<?xml version="1.0" encoding="UTF-8" standalone="no"?>
<!-- Created with Inkscape (http://www.inkscape.org/) -->

<svg
   height="180"
   id="svg118"
   inkscape:output_extension="org.inkscape.output.svg.inkscape"
   inkscape:version="1.3 (0e150ed6c4, 2023-07-21)"
   sodipodi:docname="1.13.svg"
   sodipodi:version="0.32"
   version="1.0"
   width="200"
   xmlns:inkscape="http://www.inkscape.org/namespaces/inkscape"
   xmlns:sodipodi="http://sodipodi.sourceforge.net/DTD/sodipodi-0.dtd"
   xmlns="http://www.w3.org/2000/svg"
   xmlns:svg="http://www.w3.org/2000/svg"
   xmlns:rdf="http://www.w3.org/1999/02/22-rdf-syntax-ns#"
   xmlns:cc="http://creativecommons.org/ns#"
   xmlns:dc="http://purl.org/dc/elements/1.1/">
  <title
     id="title1">Попереджувальні знаки » Дорожні знаки » ПДР Тест Центр</title>
  <metadata
     id="metadata118">
    <rdf:RDF>
      <cc:Work
         rdf:about="">
        <dc:format>&#10;					image/svg+xml&#10;				</dc:format>
        <dc:type
           rdf:resource="http://purl.org/dc/dcmitype/StillImage" />
        <dc:title>Попереджувальні знаки » Дорожні знаки » ПДР Тест Центр</dc:title>
        <cc:license
           rdf:resource="http://creativecommons.org/licenses/by-nc-sa/4.0/" />
        <dc:creator>
          <cc:Agent>
            <dc:title>ПДР Тест Центр | PDR Test Center</dc:title>
          </cc:Agent>
        </dc:creator>
        <dc:rights>
          <cc:Agent>
            <dc:title>ПДР Тест Центр | PDR Test Center</dc:title>
          </cc:Agent>
        </dc:rights>
        <dc:language>uk-UA</dc:language>
        <dc:date>2023-09-01</dc:date>
        <dc:publisher>
          <cc:Agent>
            <dc:title>https://pdrtest.com/</dc:title>
          </cc:Agent>
        </dc:publisher>
        <dc:source>https://pdrtest.com/driver/rules/section/33.1</dc:source>
      </cc:Work>
      <cc:License
         rdf:about="http://creativecommons.org/licenses/by-nc-sa/4.0/">
        <cc:permits
           rdf:resource="http://creativecommons.org/ns#Reproduction" />
        <cc:permits
           rdf:resource="http://creativecommons.org/ns#Distribution" />
        <cc:requires
           rdf:resource="http://creativecommons.org/ns#Notice" />
        <cc:requires
           rdf:resource="http://creativecommons.org/ns#Attribution" />
        <cc:prohibits
           rdf:resource="http://creativecommons.org/ns#CommercialUse" />
        <cc:permits
           rdf:resource="http://creativecommons.org/ns#DerivativeWorks" />
        <cc:requires
           rdf:resource="http://creativecommons.org/ns#ShareAlike" />
      </cc:License>
    </rdf:RDF>
  </metadata>
  <defs
     id="defs118">
    <inkscape:perspective
       id="perspective118"
       inkscape:persp3d-origin="372.04724 : 363.47921 : 1"
       inkscape:vp_x="0 : 538.87291 : 1"
       inkscape:vp_y="0 : 1000 : 0"
       inkscape:vp_z="744.09448 : 538.87291 : 1"
       sodipodi:type="inkscape:persp3d" />
    <inkscape:perspective
       id="perspective126"
       inkscape:persp3d-origin="372.04724 : 363.47921 : 1"
       inkscape:vp_x="0 : 538.87291 : 1"
       inkscape:vp_y="0 : 1000 : 0"
       inkscape:vp_z="744.09448 : 538.87291 : 1"
       sodipodi:type="inkscape:persp3d" />
    <inkscape:perspective
       id="perspective124"
       inkscape:persp3d-origin="372.04724 : 363.47921 : 1"
       inkscape:vp_x="0 : 538.87291 : 1"
       inkscape:vp_y="0 : 1000 : 0"
       inkscape:vp_z="744.09448 : 538.87291 : 1"
       sodipodi:type="inkscape:persp3d" />
    <inkscape:perspective
       id="perspective120"
       inkscape:persp3d-origin="372.04724 : 363.47921 : 1"
       inkscape:vp_x="0 : 538.87291 : 1"
       inkscape:vp_y="0 : 1000 : 0"
       inkscape:vp_z="744.09448 : 538.87291 : 1"
       sodipodi:type="inkscape:persp3d" />
    <inkscape:perspective
       id="perspective114"
       inkscape:persp3d-origin="372.04724 : 363.47921 : 1"
       inkscape:vp_x="0 : 538.87291 : 1"
       inkscape:vp_y="0 : 1000 : 0"
       inkscape:vp_z="744.09448 : 538.87291 : 1"
       sodipodi:type="inkscape:persp3d" />
    <inkscape:perspective
       id="perspective137"
       inkscape:persp3d-origin="372.04724 : 363.47921 : 1"
       inkscape:vp_x="0 : 538.87291 : 1"
       inkscape:vp_y="0 : 1000 : 0"
       inkscape:vp_z="744.09448 : 538.87291 : 1"
       sodipodi:type="inkscape:persp3d" />
    <inkscape:perspective
       id="perspective122"
       inkscape:persp3d-origin="372.04724 : 363.47921 : 1"
       inkscape:vp_x="0 : 538.87291 : 1"
       inkscape:vp_y="0 : 1000 : 0"
       inkscape:vp_z="744.09448 : 538.87291 : 1"
       sodipodi:type="inkscape:persp3d" />
    <inkscape:perspective
       id="perspective123"
       inkscape:persp3d-origin="372.04724 : 363.47921 : 1"
       inkscape:vp_x="0 : 538.87291 : 1"
       inkscape:vp_y="0 : 1000 : 0"
       inkscape:vp_z="744.09448 : 538.87291 : 1"
       sodipodi:type="inkscape:persp3d" />
    <inkscape:perspective
       id="perspective108"
       inkscape:persp3d-origin="372.04724 : 363.47921 : 1"
       inkscape:vp_x="0 : 538.87291 : 1"
       inkscape:vp_y="0 : 1000 : 0"
       inkscape:vp_z="744.09448 : 538.87291 : 1"
       sodipodi:type="inkscape:persp3d" />
    <inkscape:perspective
       id="perspective142"
       inkscape:persp3d-origin="372.04724 : 363.47921 : 1"
       inkscape:vp_x="0 : 538.87291 : 1"
       inkscape:vp_y="0 : 1000 : 0"
       inkscape:vp_z="744.09448 : 538.87291 : 1"
       sodipodi:type="inkscape:persp3d" />
  </defs>
  <sodipodi:namedview
     bordercolor="#666666"
     borderopacity="1.0"
     gridtolerance="10.0"
     guidetolerance="10.0"
     id="base"
     inkscape:current-layer="svg118"
     inkscape:cx="80.610174"
     inkscape:cy="129.57732"
     inkscape:guide-bbox="true"
     inkscape:pageopacity="0.0"
     inkscape:pageshadow="2"
     inkscape:window-height="1009"
     inkscape:window-width="1920"
     inkscape:zoom="2.8284271"
     objecttolerance="10.0"
     pagecolor="#ffffff"
     showgrid="false"
     showguides="false"
     inkscape:showpageshadow="2"
     inkscape:pagecheckerboard="0"
     inkscape:deskcolor="#d1d1d1"
     inkscape:window-x="-8"
     inkscape:window-y="-8"
     inkscape:window-maximized="1" />
  <g
     id="g2523"
     transform="translate(4.99754,6.3459222)"
     inkscape:label="sign_1_13"
     style="display:inline;opacity:1">
    <path
       d="M 95.650709,0.01644126 C 99.911926,0.22528032 103.77901,2.5849489 105.92017,6.2619219 L 188.30544,148.52272 c 2.24359,3.88063 2.28011,8.64258 0.0287,12.51842 -2.2514,3.87586 -6.45336,6.27029 -10.94793,6.26656 l -164.857652,4.8e-4 c -4.4859378,-0.008 -8.5895804,-2.4514 -10.8345662,-6.3213 -2.24497627,-3.86993 -2.26263805,-8.64246 -0.028705,-12.51841 L 84.06631,6.2772752 C 86.430905,2.2027771 90.933084,-0.22473 95.650709,0.01644126 Z"
       id="path3752"
       sodipodi:nodetypes="cccsccsccc"
       style="fill:#ffffff;fill-opacity:1;fill-rule:nonzero;stroke:#000000;stroke-width:2;stroke-linecap:round;stroke-linejoin:miter;stroke-miterlimit:4;stroke-dasharray:none;stroke-opacity:1"
       inkscape:label="bg" />
    <path
       d="m 95.420595,4.6157775 c 2.680388,0.1619896 5.096895,1.6629154 6.422505,3.9891487 L 184.31682,150.82389 c 1.40525,2.4445 1.39867,5.44902 -0.0173,7.88721 -1.41595,2.43817 -4.02738,3.9417 -6.85529,3.94692 l -164.894966,-0.004 c -2.8328133,-0.004 -5.4486721,-1.51226 -6.8639275,-3.95666 -1.4152781,-2.44441 -1.4153697,-5.45477 -2.852e-4,-7.8991 L 88.106313,8.5833249 c 1.489599,-2.5928506 4.31934,-4.127821 7.314282,-3.9675474 z M 95.001784,28.35304 26.274862,146.84773 l 137.420928,0.0123 z"
       id="path3668"
       style="fill:#ff0000;fill-opacity:1;stroke:none;stroke-width:9.6775;stroke-linecap:round;stroke-linejoin:round;stroke-miterlimit:4;stroke-dasharray:none;stroke-opacity:1"
       inkscape:label="red" />
    <path
       d="m 70.852126,112.96473 c -4.082912,0.48441 -9.458931,1.95031 -9.458931,6.79445 0,6.08976 8.533054,7.26447 13.722112,10.72456 2.354234,1.45351 5.565945,3.39667 5.565945,6.37235 -2.1e-5,2.07551 -0.901347,3.56537 -3.046877,5.01833 -1.452956,1.03803 -3.156225,2.02845 -4.263181,2.99755 h 4.263181 11.883881 c 3.321657,-1.1767 5.134319,-6.60711 4.995915,-8.06007 -1.038042,-8.51184 -11.578508,-11.80446 -19.398864,-14.98775 -2.214168,-0.89962 -4.329068,-1.82629 -6.128322,-2.86432 -3.529295,-2.00767 -0.487729,-4.61106 1.865141,-5.9951 z m 34.505114,4.26318 c -5.951376,0.69202 -9.525541,2.44249 -9.525541,6.59461 -2.1e-5,3.18329 4.727311,5.12297 10.125051,7.06089 7.54302,2.56047 17.40129,5.0267 17.77904,9.92522 0.11087,1.43785 0.0658,2.83022 -0.52524,4.06334 h 16.53137 c 1.59164,-1.66112 0.26645,-5.26236 0.26645,-5.26236 -2.21474,-9.13465 -22.70252,-10.87117 -34.05162,-15.8537 -0.27681,-0.13868 -0.52514,-0.26127 -0.73273,-0.39968 -8.027677,-3.9445 -3.32714,-4.95161 0.13322,-6.12832 z"
       id="path4494"
       style="fill:#000000;fill-rule:evenodd"
       inkscape:label="road"
       sodipodi:nodetypes="cscscccccccccscscccccc" />
    <path
       d="m 87.740294,86.852392 c -1.987766,0.259516 -3.132143,2.114164 -4.28785,4.005857 l -2.538444,5.297993 -1.179898,2.47655 c -2.028878,-0.289358 -3.712603,1.299992 -3.87655,3.112468 l -1.216762,10.42121 c -0.163934,1.81302 1.019234,3.59695 2.971188,3.75191 l 4.570705,0.51492 19.562617,2.24663 11.56389,1.3455 5.71337,0.64366 c 2.01993,0.15097 3.78444,-1.30162 3.80591,-3.17478 l 1.35805,-10.29658 c 0.23758,-1.74801 -1.08715,-3.51531 -2.91719,-3.95551 l -2.11967,-8.276918 c -0.54414,-2.047165 -1.47236,-4.761643 -3.98929,-5.089797 l -3.76461,-0.431884 -11.559719,-1.279012 -11.227318,-1.29981 c -0.322669,-0.03171 -0.584472,-0.04948 -0.868428,-0.0124 z m 2.580614,3.909827 c 0.373226,-0.07744 0.76294,-0.08527 1.200838,-0.0084 l 8.543064,1.067302 11.22316,1.233328 c 0.14271,0.06014 0.26734,0.04715 0.34073,0.112166 1.88643,0.228655 2.22265,1.559091 2.55974,2.509541 l 1.04321,3.872531 c 0.0519,0.829073 -0.18722,3.230643 -2.28514,2.946153 l -0.73962,-0.0872 -11.56389,-1.34549 -12.976647,-1.524074 c -2.162677,-0.211099 -2.480811,-1.941618 -1.924039,-3.016513 l 2.156261,-3.939231 c 0.472421,-0.757596 1.302653,-1.587785 2.422333,-1.820121 z m -11.429058,26.410931 -0.705988,5.78402 c -0.194167,1.32983 0.561469,2.29048 1.890762,2.48465 l 2.696725,0.43196 0.872586,0.0789 c 1.329549,0.19417 2.20292,-0.88971 2.397376,-2.219 l 0.639506,-5.77987 -4.429421,-0.39029 z m 31.0517,3.46331 -0.63118,5.91283 c -0.19415,1.32955 0.49217,2.29973 1.88243,2.35169 l 2.69673,0.43196 0.87258,0.0789 c 1.18279,0.0647 2.14092,-0.81855 2.33506,-2.14838 l 0.70183,-5.8505 -4.42942,-0.39028 z"
       id="path4496"
       style="display:inline;opacity:1;fill:#000000;fill-rule:evenodd"
       inkscape:label="car"
       transform="translate(-4.9972465,-16.34591)" />
  </g>
</svg>
