<?xml version="1.0" encoding="UTF-8" standalone="no"?>
<!-- Created with Inkscape (http://www.inkscape.org/) -->

<svg
   height="180"
   id="svg118"
   inkscape:output_extension="org.inkscape.output.svg.inkscape"
   inkscape:version="1.3 (0e150ed6c4, 2023-07-21)"
   sodipodi:docname="1.14.svg"
   sodipodi:version="0.32"
   version="1.0"
   width="200"
   xmlns:inkscape="http://www.inkscape.org/namespaces/inkscape"
   xmlns:sodipodi="http://sodipodi.sourceforge.net/DTD/sodipodi-0.dtd"
   xmlns="http://www.w3.org/2000/svg"
   xmlns:svg="http://www.w3.org/2000/svg"
   xmlns:rdf="http://www.w3.org/1999/02/22-rdf-syntax-ns#"
   xmlns:cc="http://creativecommons.org/ns#"
   xmlns:dc="http://purl.org/dc/elements/1.1/">
  <title
     id="title1">Попереджувальні знаки » Дорожні знаки » ПДР Тест Центр</title>
  <metadata
     id="metadata118">
    <rdf:RDF>
      <cc:Work
         rdf:about="">
        <dc:format>&#10;					image/svg+xml&#10;				</dc:format>
        <dc:type
           rdf:resource="http://purl.org/dc/dcmitype/StillImage" />
        <dc:title>Попереджувальні знаки » Дорожні знаки » ПДР Тест Центр</dc:title>
        <cc:license
           rdf:resource="http://creativecommons.org/licenses/by-nc-sa/4.0/" />
        <dc:creator>
          <cc:Agent>
            <dc:title>ПДР Тест Центр | PDR Test Center</dc:title>
          </cc:Agent>
        </dc:creator>
        <dc:rights>
          <cc:Agent>
            <dc:title>ПДР Тест Центр | PDR Test Center</dc:title>
          </cc:Agent>
        </dc:rights>
        <dc:language>uk-UA</dc:language>
        <dc:date>2023-09-01</dc:date>
        <dc:publisher>
          <cc:Agent>
            <dc:title>https://pdrtest.com/</dc:title>
          </cc:Agent>
        </dc:publisher>
        <dc:source>https://pdrtest.com/driver/rules/section/33.1</dc:source>
      </cc:Work>
      <cc:License
         rdf:about="http://creativecommons.org/licenses/by-nc-sa/4.0/">
        <cc:permits
           rdf:resource="http://creativecommons.org/ns#Reproduction" />
        <cc:permits
           rdf:resource="http://creativecommons.org/ns#Distribution" />
        <cc:requires
           rdf:resource="http://creativecommons.org/ns#Notice" />
        <cc:requires
           rdf:resource="http://creativecommons.org/ns#Attribution" />
        <cc:prohibits
           rdf:resource="http://creativecommons.org/ns#CommercialUse" />
        <cc:permits
           rdf:resource="http://creativecommons.org/ns#DerivativeWorks" />
        <cc:requires
           rdf:resource="http://creativecommons.org/ns#ShareAlike" />
      </cc:License>
    </rdf:RDF>
  </metadata>
  <defs
     id="defs118">
    <inkscape:perspective
       id="perspective118"
       inkscape:persp3d-origin="372.04724 : 363.47921 : 1"
       inkscape:vp_x="0 : 538.87291 : 1"
       inkscape:vp_y="0 : 1000 : 0"
       inkscape:vp_z="744.09448 : 538.87291 : 1"
       sodipodi:type="inkscape:persp3d" />
    <inkscape:perspective
       id="perspective126"
       inkscape:persp3d-origin="372.04724 : 363.47921 : 1"
       inkscape:vp_x="0 : 538.87291 : 1"
       inkscape:vp_y="0 : 1000 : 0"
       inkscape:vp_z="744.09448 : 538.87291 : 1"
       sodipodi:type="inkscape:persp3d" />
    <inkscape:perspective
       id="perspective124"
       inkscape:persp3d-origin="372.04724 : 363.47921 : 1"
       inkscape:vp_x="0 : 538.87291 : 1"
       inkscape:vp_y="0 : 1000 : 0"
       inkscape:vp_z="744.09448 : 538.87291 : 1"
       sodipodi:type="inkscape:persp3d" />
    <inkscape:perspective
       id="perspective120"
       inkscape:persp3d-origin="372.04724 : 363.47921 : 1"
       inkscape:vp_x="0 : 538.87291 : 1"
       inkscape:vp_y="0 : 1000 : 0"
       inkscape:vp_z="744.09448 : 538.87291 : 1"
       sodipodi:type="inkscape:persp3d" />
    <inkscape:perspective
       id="perspective114"
       inkscape:persp3d-origin="372.04724 : 363.47921 : 1"
       inkscape:vp_x="0 : 538.87291 : 1"
       inkscape:vp_y="0 : 1000 : 0"
       inkscape:vp_z="744.09448 : 538.87291 : 1"
       sodipodi:type="inkscape:persp3d" />
    <inkscape:perspective
       id="perspective137"
       inkscape:persp3d-origin="372.04724 : 363.47921 : 1"
       inkscape:vp_x="0 : 538.87291 : 1"
       inkscape:vp_y="0 : 1000 : 0"
       inkscape:vp_z="744.09448 : 538.87291 : 1"
       sodipodi:type="inkscape:persp3d" />
    <inkscape:perspective
       id="perspective122"
       inkscape:persp3d-origin="372.04724 : 363.47921 : 1"
       inkscape:vp_x="0 : 538.87291 : 1"
       inkscape:vp_y="0 : 1000 : 0"
       inkscape:vp_z="744.09448 : 538.87291 : 1"
       sodipodi:type="inkscape:persp3d" />
    <inkscape:perspective
       id="perspective123"
       inkscape:persp3d-origin="372.04724 : 363.47921 : 1"
       inkscape:vp_x="0 : 538.87291 : 1"
       inkscape:vp_y="0 : 1000 : 0"
       inkscape:vp_z="744.09448 : 538.87291 : 1"
       sodipodi:type="inkscape:persp3d" />
  </defs>
  <sodipodi:namedview
     bordercolor="#666666"
     borderopacity="1.0"
     gridtolerance="10.0"
     guidetolerance="10.0"
     id="base"
     inkscape:current-layer="svg118"
     inkscape:cx="11.313708"
     inkscape:cy="119.8546"
     inkscape:guide-bbox="true"
     inkscape:pageopacity="0.0"
     inkscape:pageshadow="2"
     inkscape:window-height="1009"
     inkscape:window-width="1920"
     inkscape:zoom="1.4142136"
     objecttolerance="10.0"
     pagecolor="#ffffff"
     showgrid="false"
     showguides="false"
     inkscape:showpageshadow="2"
     inkscape:pagecheckerboard="0"
     inkscape:deskcolor="#d1d1d1"
     inkscape:window-x="-8"
     inkscape:window-y="-8"
     inkscape:window-maximized="1" />
  <g
     id="g5029"
     transform="translate(4.997542,6.3459231)"
     inkscape:label="sign_1_14"
     style="opacity:1">
    <path
       d="m 57.46875,418.03125 c -1.883686,0.0753 -3.601781,1.10257 -4.5625,2.71875 L 15.9375,483.28125 c -1.006793,1.70576 -1.04188,3.80972 -0.0625,5.53125 0.979379,1.72154 2.826523,2.79626 4.8125,2.8125 l 72.84375,0.65625 c 1.982181,0.0143 3.805134,-1.04899 4.8125,-2.75 1.007362,-1.70103 1.034158,-3.80974 0.0625,-5.53125 L 62.5625,420.84375 c -1.028602,-1.80976 -3.008268,-2.90029 -5.09375,-2.8125 z"
       id="path3752"
       sodipodi:nodetypes="cccsccsccc"
       style="opacity:1;fill:#ffffff;fill-opacity:1;fill-rule:nonzero;stroke:#000000;stroke-width:0.883752;stroke-linecap:round;stroke-linejoin:miter;stroke-miterlimit:4;stroke-dasharray:none;stroke-opacity:1"
       transform="matrix(-2.2629845,-0.02038076,-0.02038078,2.2629861,234.2214,-944.81121)"
       inkscape:label="bg" />
    <path
       d="m 97.045593,5.4907775 c 2.680388,0.161967 5.096897,1.6629154 6.422507,3.9891487 L 185.94181,151.69889 c 1.40526,2.4445 1.39868,5.44902 -0.0173,7.88721 -1.41594,2.43817 -4.02737,3.9417 -6.85528,3.94692 l -164.894969,-0.004 c -2.832807,-0.005 -5.4486725,-1.51226 -6.8639279,-3.95666 -1.4152781,-2.44441 -1.4153697,-5.45477 -2.852e-4,-7.8991 L 89.73131,9.458325 c 1.4896,-2.5928506 4.319341,-4.1278211 7.314283,-3.9675475 z"
       id="path4698"
       sodipodi:nodetypes="cccsccsccc"
       style="opacity:1;fill:#ffff00;fill-opacity:1;stroke:none;stroke-width:21.9009;stroke-linecap:round;stroke-linejoin:round;stroke-miterlimit:4;stroke-dasharray:none;stroke-opacity:1"
       inkscape:label="yellow" />
    <path
       id="_144477240"
       style="opacity:1;fill:#000000;fill-rule:evenodd;stroke-width:2.75263"
       inkscape:label="sign"
       d="m 65.742981,76.161901 -3.353516,6.021485 h 1.890625 c 3.842525,0 4.886464,2.620357 5.333985,3.871094 l 2.408203,6.794921 c 0.536431,1.340514 0.565481,5.50586 -3.009766,5.50586 H 53.184387 l -17.375,29.847659 h 32.81836 v 10.1914 c -1.37e-4,2.23376 1.901315,3.8711 3.957031,3.8711 h 3.18164 2.837891 c 2.233645,-4e-5 3.957031,-1.63737 3.957031,-3.8711 v -10.1914 h 0.386719 c 1.251398,0 2.374296,-0.40191 3.267578,-1.11719 1.519449,-1.072 2.580078,-2.84551 2.580078,-4.99023 v -17.89258 c -2.8e-5,-2.05572 -0.970838,-3.74368 -2.580078,-4.816409 -0.804371,-0.536183 -1.850773,-0.85561 -2.923828,-0.945313 L 78.043762,83.990026 C 77.060663,81.755583 75.963717,79.31697 74.086731,77.708776 73.103658,76.815494 71.738251,76.161901 70.1297,76.161901 Z m 38.773439,19.65625 a 4.2426405,3.8890872 0 0 0 -4.24219,3.890625 4.2426405,3.8890872 0 0 0 4.24219,3.888674 4.2426405,3.8890872 0 0 0 4.24219,-3.888674 4.2426405,3.8890872 0 0 0 -4.24219,-3.890625 z m 26.07422,5.480469 a 5.3916893,6.2313786 0 0 0 -5.39258,6.23242 5.3916893,6.2313786 0 0 0 5.39258,6.23047 5.3916893,6.2313786 0 0 0 5.39062,-6.23047 5.3916893,6.2313786 0 0 0 -5.39062,-6.23242 z m -56.503909,2.9043 v 0.0859 c 2.681192,0 4.904297,2.04124 4.904297,4.99024 -5.6e-5,2.68056 -2.223022,4.98828 -4.904297,4.98828 -3.038072,0 -5.074219,-2.30772 -5.074219,-4.98828 -8.3e-5,-3.03874 2.036201,-5.07617 5.074219,-5.07617 z m 33.212889,2.66406 a 5.6126599,5.0381355 0 0 0 -5.61133,5.03906 5.6126599,5.0381355 0 0 0 5.61133,5.03711 5.6126599,5.0381355 0 0 0 5.61328,-5.03711 5.6126599,5.0381355 0 0 0 -5.61328,-5.03906 z m 14.66602,4.28711 c -0.0756,-0.004 -0.15082,-0.003 -0.22657,0.002 -0.36359,0.0256 -0.75321,0.12429 -1.03515,0.40235 -7.85525,7.74716 -16.40223,14.85958 -25.253908,21.69336 -0.835833,0.64531 -0.978516,1.85542 -0.335937,2.69335 l 0.257812,0.26954 c 0.642579,0.83794 1.857005,1.02214 2.65625,0.33203 8.436553,-7.28464 17.090143,-14.24466 26.845703,-19.55078 0.92762,-0.50455 0.97852,-1.85542 0.33594,-2.69336 l -1.84961,-2.41211 c -0.35141,-0.45825 -0.86566,-0.70925 -1.39453,-0.73633 z m -24.259768,8.07226 c -0.33536,0.008 -0.665365,0.17638 -0.890625,0.4961 l -9.917969,14.92187 c -0.400518,0.56787 -0.31354,1.38917 0.193359,1.83789 l 0.273438,0.15625 c 0.283738,0.15023 1.273274,0.2562 1.380859,0.0527 2.770462,-5.23854 6.755154,-10.11863 10.503906,-14.75 0.40051,-0.5679 0.315492,-1.38722 -0.191406,-1.83594 l -0.605469,-0.5957 c -0.221763,-0.19632 -0.485258,-0.28906 -0.746093,-0.28321 z m 44.683598,1.25196 a 4.8171649,2.6958447 0 0 0 -4.81641,2.69726 4.8171649,2.6958447 0 0 0 4.81641,2.69532 4.8171649,2.6958447 0 0 0 4.81835,-2.69532 4.8171649,2.6958447 0 0 0 -4.81835,-2.69726 z m -13.25782,2.0332 a 4.4636116,4.9055533 0 0 0 -4.46289,4.90625 4.4636116,4.9055533 0 0 0 4.46289,4.90625 4.4636116,4.9055533 0 0 0 4.46485,-4.90625 4.4636116,4.9055533 0 0 0 -4.46485,-4.90625 z m -9.34765,5.94531 c -0.12171,-4e-4 -0.24545,0.0222 -0.36524,0.0723 l -11.9414,5.79883 c -0.47917,0.20037 -0.70428,0.74932 -0.50391,1.22851 l 0.43164,0.8418 c 0.16279,0.38932 0.553,0.60853 0.95117,0.57031 0.0919,-0.009 0.18359,-0.0289 0.27344,-0.0664 l 12.37891,-4.56446 c 0.47917,-0.20037 0.70427,-0.74933 0.5039,-1.22851 l -0.86719,-2.07617 c -0.15027,-0.35938 -0.49621,-0.57497 -0.86132,-0.57618 z" />
    <path
       d="m 57.552125,420.06442 c -1.184997,0.0609 -2.258724,0.71449 -2.853712,1.73708 l -37.007664,62.51241 c -0.630652,1.07453 -0.639702,2.40213 -0.02376,3.4851 0.615946,1.08296 1.763843,1.7577 3.013359,1.77126 l 72.860258,0.65423 c 1.25172,0.009 2.41356,-0.64652 3.04863,-1.72097 0.63508,-1.07445 0.6471,-2.4046 0.03156,-3.49028 L 60.768214,421.84662 c -0.647874,-1.1516 -1.892111,-1.8411 -3.216089,-1.7822 z m 0.09059,10.49017 29.896031,52.63134 -60.720652,-0.54143 z"
       id="path3668"
       style="opacity:1;fill:#ff0000;fill-opacity:1;stroke:none;stroke-width:9.6775;stroke-linecap:round;stroke-linejoin:round;stroke-miterlimit:4;stroke-dasharray:none;stroke-opacity:1"
       transform="matrix(-2.2629845,-0.02038076,-0.02038078,2.2629861,234.2214,-944.81121)"
       inkscape:label="red" />
  </g>
</svg>
