<?xml version="1.0" encoding="UTF-8" standalone="no"?>
<!-- Created with Inkscape (http://www.inkscape.org/) -->

<svg
   height="180"
   id="svg118"
   inkscape:output_extension="org.inkscape.output.svg.inkscape"
   inkscape:version="1.3 (0e150ed6c4, 2023-07-21)"
   sodipodi:docname="1.16.svg"
   sodipodi:version="0.32"
   version="1.0"
   width="200"
   xmlns:inkscape="http://www.inkscape.org/namespaces/inkscape"
   xmlns:sodipodi="http://sodipodi.sourceforge.net/DTD/sodipodi-0.dtd"
   xmlns="http://www.w3.org/2000/svg"
   xmlns:svg="http://www.w3.org/2000/svg"
   xmlns:rdf="http://www.w3.org/1999/02/22-rdf-syntax-ns#"
   xmlns:cc="http://creativecommons.org/ns#"
   xmlns:dc="http://purl.org/dc/elements/1.1/">
  <title
     id="title1">Попереджувальні знаки » Дорожні знаки » ПДР Тест Центр</title>
  <metadata
     id="metadata118">
    <rdf:RDF>
      <cc:Work
         rdf:about="">
        <dc:format>&#10;					image/svg+xml&#10;				</dc:format>
        <dc:type
           rdf:resource="http://purl.org/dc/dcmitype/StillImage" />
        <dc:title>Попереджувальні знаки » Дорожні знаки » ПДР Тест Центр</dc:title>
        <cc:license
           rdf:resource="http://creativecommons.org/licenses/by-nc-sa/4.0/" />
        <dc:creator>
          <cc:Agent>
            <dc:title>ПДР Тест Центр | PDR Test Center</dc:title>
          </cc:Agent>
        </dc:creator>
        <dc:rights>
          <cc:Agent>
            <dc:title>ПДР Тест Центр | PDR Test Center</dc:title>
          </cc:Agent>
        </dc:rights>
        <dc:language>uk-UA</dc:language>
        <dc:date>2023-09-01</dc:date>
        <dc:publisher>
          <cc:Agent>
            <dc:title>https://pdrtest.com/</dc:title>
          </cc:Agent>
        </dc:publisher>
        <dc:source>https://pdrtest.com/driver/rules/section/33.1</dc:source>
      </cc:Work>
      <cc:License
         rdf:about="http://creativecommons.org/licenses/by-nc-sa/4.0/">
        <cc:permits
           rdf:resource="http://creativecommons.org/ns#Reproduction" />
        <cc:permits
           rdf:resource="http://creativecommons.org/ns#Distribution" />
        <cc:requires
           rdf:resource="http://creativecommons.org/ns#Notice" />
        <cc:requires
           rdf:resource="http://creativecommons.org/ns#Attribution" />
        <cc:prohibits
           rdf:resource="http://creativecommons.org/ns#CommercialUse" />
        <cc:permits
           rdf:resource="http://creativecommons.org/ns#DerivativeWorks" />
        <cc:requires
           rdf:resource="http://creativecommons.org/ns#ShareAlike" />
      </cc:License>
    </rdf:RDF>
  </metadata>
  <defs
     id="defs118">
    <inkscape:perspective
       id="perspective118"
       inkscape:persp3d-origin="372.04724 : 363.47921 : 1"
       inkscape:vp_x="0 : 538.87291 : 1"
       inkscape:vp_y="0 : 1000 : 0"
       inkscape:vp_z="744.09448 : 538.87291 : 1"
       sodipodi:type="inkscape:persp3d" />
    <inkscape:perspective
       id="perspective126"
       inkscape:persp3d-origin="372.04724 : 363.47921 : 1"
       inkscape:vp_x="0 : 538.87291 : 1"
       inkscape:vp_y="0 : 1000 : 0"
       inkscape:vp_z="744.09448 : 538.87291 : 1"
       sodipodi:type="inkscape:persp3d" />
    <inkscape:perspective
       id="perspective124"
       inkscape:persp3d-origin="372.04724 : 363.47921 : 1"
       inkscape:vp_x="0 : 538.87291 : 1"
       inkscape:vp_y="0 : 1000 : 0"
       inkscape:vp_z="744.09448 : 538.87291 : 1"
       sodipodi:type="inkscape:persp3d" />
    <inkscape:perspective
       id="perspective120"
       inkscape:persp3d-origin="372.04724 : 363.47921 : 1"
       inkscape:vp_x="0 : 538.87291 : 1"
       inkscape:vp_y="0 : 1000 : 0"
       inkscape:vp_z="744.09448 : 538.87291 : 1"
       sodipodi:type="inkscape:persp3d" />
    <inkscape:perspective
       id="perspective114"
       inkscape:persp3d-origin="372.04724 : 363.47921 : 1"
       inkscape:vp_x="0 : 538.87291 : 1"
       inkscape:vp_y="0 : 1000 : 0"
       inkscape:vp_z="744.09448 : 538.87291 : 1"
       sodipodi:type="inkscape:persp3d" />
    <inkscape:perspective
       id="perspective137"
       inkscape:persp3d-origin="372.04724 : 363.47921 : 1"
       inkscape:vp_x="0 : 538.87291 : 1"
       inkscape:vp_y="0 : 1000 : 0"
       inkscape:vp_z="744.09448 : 538.87291 : 1"
       sodipodi:type="inkscape:persp3d" />
    <inkscape:perspective
       id="perspective122"
       inkscape:persp3d-origin="372.04724 : 363.47921 : 1"
       inkscape:vp_x="0 : 538.87291 : 1"
       inkscape:vp_y="0 : 1000 : 0"
       inkscape:vp_z="744.09448 : 538.87291 : 1"
       sodipodi:type="inkscape:persp3d" />
    <inkscape:perspective
       id="perspective123"
       inkscape:persp3d-origin="372.04724 : 363.47921 : 1"
       inkscape:vp_x="0 : 538.87291 : 1"
       inkscape:vp_y="0 : 1000 : 0"
       inkscape:vp_z="744.09448 : 538.87291 : 1"
       sodipodi:type="inkscape:persp3d" />
    <inkscape:perspective
       id="perspective108"
       inkscape:persp3d-origin="372.04724 : 363.47921 : 1"
       inkscape:vp_x="0 : 538.87291 : 1"
       inkscape:vp_y="0 : 1000 : 0"
       inkscape:vp_z="744.09448 : 538.87291 : 1"
       sodipodi:type="inkscape:persp3d" />
    <inkscape:perspective
       id="perspective142"
       inkscape:persp3d-origin="372.04724 : 363.47921 : 1"
       inkscape:vp_x="0 : 538.87291 : 1"
       inkscape:vp_y="0 : 1000 : 0"
       inkscape:vp_z="744.09448 : 538.87291 : 1"
       sodipodi:type="inkscape:persp3d" />
    <inkscape:perspective
       id="perspective138"
       inkscape:persp3d-origin="372.04724 : 363.47921 : 1"
       inkscape:vp_x="0 : 538.87291 : 1"
       inkscape:vp_y="0 : 1000 : 0"
       inkscape:vp_z="744.09448 : 538.87291 : 1"
       sodipodi:type="inkscape:persp3d" />
    <inkscape:perspective
       id="perspective136"
       inkscape:persp3d-origin="372.04724 : 363.47921 : 1"
       inkscape:vp_x="0 : 538.87291 : 1"
       inkscape:vp_y="0 : 1000 : 0"
       inkscape:vp_z="744.09448 : 538.87291 : 1"
       sodipodi:type="inkscape:persp3d" />
    <inkscape:perspective
       id="perspective135"
       inkscape:persp3d-origin="372.04724 : 363.47921 : 1"
       inkscape:vp_x="0 : 538.87291 : 1"
       inkscape:vp_y="0 : 1000 : 0"
       inkscape:vp_z="744.09448 : 538.87291 : 1"
       sodipodi:type="inkscape:persp3d" />
    <inkscape:perspective
       id="perspective134"
       inkscape:persp3d-origin="372.04724 : 363.47921 : 1"
       inkscape:vp_x="0 : 538.87291 : 1"
       inkscape:vp_y="0 : 1000 : 0"
       inkscape:vp_z="744.09448 : 538.87291 : 1"
       sodipodi:type="inkscape:persp3d" />
    <inkscape:perspective
       id="perspective133"
       inkscape:persp3d-origin="372.04724 : 363.47921 : 1"
       inkscape:vp_x="0 : 538.87291 : 1"
       inkscape:vp_y="0 : 1000 : 0"
       inkscape:vp_z="744.09448 : 538.87291 : 1"
       sodipodi:type="inkscape:persp3d" />
  </defs>
  <sodipodi:namedview
     bordercolor="#666666"
     borderopacity="1.0"
     gridtolerance="10.0"
     guidetolerance="10.0"
     id="base"
     inkscape:current-layer="svg118"
     inkscape:cx="121.62236"
     inkscape:cy="114.90485"
     inkscape:guide-bbox="true"
     inkscape:pageopacity="0.0"
     inkscape:pageshadow="2"
     inkscape:window-height="1009"
     inkscape:window-width="1920"
     inkscape:zoom="1.4142136"
     objecttolerance="10.0"
     pagecolor="#ffffff"
     showgrid="false"
     showguides="false"
     inkscape:showpageshadow="2"
     inkscape:pagecheckerboard="0"
     inkscape:deskcolor="#d1d1d1"
     inkscape:window-x="-8"
     inkscape:window-y="-8"
     inkscape:window-maximized="1" />
  <g
     id="g6532"
     transform="translate(4.997542,6.3459231)"
     inkscape:label="sign_1_16"
     style="display:inline;opacity:1">
    <path
       d="m 57.46875,418.03125 c -1.883686,0.0753 -3.601781,1.10257 -4.5625,2.71875 L 15.9375,483.28125 c -1.006793,1.70576 -1.04188,3.80972 -0.0625,5.53125 0.979379,1.72154 2.826523,2.79626 4.8125,2.8125 l 72.84375,0.65625 c 1.982181,0.0143 3.805134,-1.04899 4.8125,-2.75 1.007362,-1.70103 1.034158,-3.80974 0.0625,-5.53125 L 62.5625,420.84375 c -1.028602,-1.80976 -3.008268,-2.90029 -5.09375,-2.8125 z"
       id="path3752"
       sodipodi:nodetypes="cccsccsccc"
       style="opacity:1;fill:#ffffff;fill-opacity:1;fill-rule:nonzero;stroke:#000000;stroke-width:0.883752;stroke-linecap:round;stroke-linejoin:miter;stroke-miterlimit:4;stroke-dasharray:none;stroke-opacity:1"
       transform="matrix(-2.2629845,-0.02038076,-0.02038078,2.2629861,234.2214,-944.81121)"
       inkscape:label="bg" />
    <path
       d="m 57.552125,420.06442 c -1.184997,0.0609 -2.258724,0.71449 -2.853712,1.73708 l -37.007664,62.51241 c -0.630652,1.07453 -0.639702,2.40213 -0.02376,3.4851 0.615946,1.08296 1.763843,1.7577 3.013359,1.77126 l 72.860258,0.65423 c 1.25172,0.009 2.41356,-0.64652 3.04863,-1.72097 0.63508,-1.07445 0.6471,-2.4046 0.03156,-3.49028 L 60.768214,421.84662 c -0.647874,-1.1516 -1.892111,-1.8411 -3.216089,-1.7822 z m 0.09059,10.49017 29.896031,52.63134 -60.720652,-0.54143 z"
       id="path3668"
       style="opacity:1;fill:#ff0004;fill-opacity:1;stroke:none;stroke-width:9.6775;stroke-linecap:round;stroke-linejoin:round;stroke-miterlimit:4;stroke-dasharray:none;stroke-opacity:1"
       transform="matrix(-2.2629845,-0.02038076,-0.02038078,2.2629861,234.2214,-944.81121)"
       inkscape:label="red" />
    <path
       id="_143939736"
       style="display:inline;opacity:1;fill:#000000;fill-rule:evenodd"
       inkscape:label="sign"
       d="m 246.27206,17.228042 a 2.7991103,1.9954053 56.556708 0 0 -0.75434,0.243363 2.7991103,1.9954053 56.556708 0 0 -0.12298,3.435666 2.7991103,1.9954053 56.556708 0 0 3.20789,1.235869 2.7991103,1.9954053 56.556708 0 0 0.12298,-3.435665 2.7991103,1.9954053 56.556708 0 0 -2.45355,-1.479233 z m 5.80174,2.620702 c -0.89309,0.05184 -1.44562,3.54818 -1.9469,4.418645 -1.78544,2.954304 -0.48899,4.189463 -0.71624,6.169821 -0.0649,0.648786 -0.20894,1.317973 -0.46853,1.999735 -0.64917,1.591162 -2.699,2.821036 -3.60802,3.535263 -0.42205,0.324777 -0.99654,1.750331 -1.35365,2.140037 -1.78556,1.850498 -1.21586,4.756935 -3.22868,5.795683 -1.2823,0.793311 -2.75884,1.350042 -4.07135,2.096734 -0.84716,0.543293 -1.4035,0.897861 -2.18854,1.523402 -1.33092,1.2012 -1.80481,2.299968 -1.99973,3.468576 -0.0649,0.519436 -0.0638,1.072701 -0.0312,1.624731 h 0.0312 L 271.1566,52.593661 252.7502,20.43767 c -0.24588,-0.429562 -0.4703,-0.600885 -0.6764,-0.588922 z m -6.17761,4.946942 a 1.9676914,2.3834008 5.7254152e-7 0 0 -1.96769,2.383401 1.9676914,2.3834008 5.7254152e-7 0 0 1.96769,2.383401 1.9676914,2.3834008 5.7254152e-7 0 0 1.96769,-2.383401 1.9676914,2.3834008 5.7254152e-7 0 0 -1.96769,-2.383401 z m -5.3488,3.547387 a 2.6605404,2.6051125 5.7254147e-7 0 0 -2.66054,2.605113 2.6605404,2.6051125 5.7254147e-7 0 0 2.66054,2.605113 2.6605404,2.6051125 5.7254147e-7 0 0 2.66054,-2.605113 2.6605404,2.6051125 5.7254147e-7 0 0 -2.66054,-2.605113 z m -8.42851,5.929056 a 2.1062612,1.496554 23.573309 0 0 -1.48356,0.766465 2.1062612,1.496554 23.573309 0 0 1.332,2.214519 2.1062612,1.496554 23.573309 0 0 2.5289,-0.529164 2.1062612,1.496554 23.573309 0 0 -1.332,-2.214519 2.1062612,1.496554 23.573309 0 0 -1.04534,-0.237301 z m 4.07742,4.325111 a 2.965394,2.7713963 5.725415e-7 0 0 -2.96539,2.771396 2.965394,2.7713963 5.725415e-7 0 0 2.96539,2.771396 2.965394,2.7713963 5.725415e-7 0 0 2.96539,-2.771396 2.965394,2.7713963 5.725415e-7 0 0 -2.96539,-2.771396 z m -9.46865,3.213953 a 4.3510922,3.9076688 29.430916 0 0 -3.35599,1.881086 4.3510922,3.9076688 29.430916 0 0 1.86983,5.541926 4.3510922,3.9076688 29.430916 0 0 5.70994,-1.265315 4.3510922,3.9076688 29.430916 0 0 -1.86982,-5.541927 4.3510922,3.9076688 29.430916 0 0 -2.35396,-0.61577 z"
       transform="matrix(2.2551809,0,0,2.2551809,-456.85014,25.235331)" />
  </g>
</svg>
