<?xml version="1.0" encoding="UTF-8" standalone="no"?>
<!-- Created with Inkscape (http://www.inkscape.org/) -->

<svg
   height="180"
   id="svg118"
   inkscape:output_extension="org.inkscape.output.svg.inkscape"
   inkscape:version="1.3 (0e150ed6c4, 2023-07-21)"
   sodipodi:docname="1.20.svg"
   sodipodi:version="0.32"
   version="1.0"
   width="200"
   xmlns:inkscape="http://www.inkscape.org/namespaces/inkscape"
   xmlns:sodipodi="http://sodipodi.sourceforge.net/DTD/sodipodi-0.dtd"
   xmlns="http://www.w3.org/2000/svg"
   xmlns:svg="http://www.w3.org/2000/svg"
   xmlns:rdf="http://www.w3.org/1999/02/22-rdf-syntax-ns#"
   xmlns:cc="http://creativecommons.org/ns#"
   xmlns:dc="http://purl.org/dc/elements/1.1/">
  <title
     id="title1">Попереджувальні знаки » Дорожні знаки » ПДР Тест Центр</title>
  <metadata
     id="metadata118">
    <rdf:RDF>
      <cc:Work
         rdf:about="">
        <dc:format>&#10;					image/svg+xml&#10;				</dc:format>
        <dc:type
           rdf:resource="http://purl.org/dc/dcmitype/StillImage" />
        <dc:title>Попереджувальні знаки » Дорожні знаки » ПДР Тест Центр</dc:title>
        <cc:license
           rdf:resource="http://creativecommons.org/licenses/by-nc-sa/4.0/" />
        <dc:creator>
          <cc:Agent>
            <dc:title>ПДР Тест Центр | PDR Test Center</dc:title>
          </cc:Agent>
        </dc:creator>
        <dc:rights>
          <cc:Agent>
            <dc:title>ПДР Тест Центр | PDR Test Center</dc:title>
          </cc:Agent>
        </dc:rights>
        <dc:language>uk-UA</dc:language>
        <dc:date>2023-09-01</dc:date>
        <dc:publisher>
          <cc:Agent>
            <dc:title>https://pdrtest.com/</dc:title>
          </cc:Agent>
        </dc:publisher>
        <dc:source>https://pdrtest.com/driver/rules/section/33.1</dc:source>
      </cc:Work>
      <cc:License
         rdf:about="http://creativecommons.org/licenses/by-nc-sa/4.0/">
        <cc:permits
           rdf:resource="http://creativecommons.org/ns#Reproduction" />
        <cc:permits
           rdf:resource="http://creativecommons.org/ns#Distribution" />
        <cc:requires
           rdf:resource="http://creativecommons.org/ns#Notice" />
        <cc:requires
           rdf:resource="http://creativecommons.org/ns#Attribution" />
        <cc:prohibits
           rdf:resource="http://creativecommons.org/ns#CommercialUse" />
        <cc:permits
           rdf:resource="http://creativecommons.org/ns#DerivativeWorks" />
        <cc:requires
           rdf:resource="http://creativecommons.org/ns#ShareAlike" />
      </cc:License>
    </rdf:RDF>
  </metadata>
  <defs
     id="defs118">
    <inkscape:path-effect
       effect="fillet_chamfer"
       id="path-effect1"
       is_visible="true"
       lpeversion="1"
       nodesatellites_param="F,0,0,1,0,0,0,1 @ F,0,0,1,0,0,0,1 @ F,0,0,1,0,3.7082186,0,1 @ F,0,0,1,0,0,0,1 @ F,0,0,1,0,2.9905951,0,1 @ F,0,0,1,0,2.3014297,0,1 @ F,0,0,1,0,1.4299953,0,1 @ F,0,0,1,0,1.2136351,0,1 @ F,0,0,1,0,2.5358716,0,1 @ F,0,0,1,0,1.726935,0,1 @ F,0,0,1,0,0,0,1 @ F,0,0,1,0,5.0518542,0,1 @ F,0,0,1,0,0,0,1 @ F,0,0,1,0,0,0,1 | F,0,0,1,0,0,0,1 @ F,0,0,1,0,0,0,1 @ F,0,0,1,0,0,0,1 @ F,0,0,1,0,0,0,1 @ F,0,0,1,0,0,0,1 @ F,0,0,1,0,0,0,1 @ F,0,0,1,0,0,0,1 | F,0,0,1,0,0,0,1 @ F,0,0,1,0,0,0,1 @ F,0,0,1,0,0,0,1 @ F,0,0,1,0,0,0,1 @ F,0,0,1,0,0,0,1 @ F,0,0,1,0,0,0,1 @ F,0,0,1,0,0,0,1 @ F,0,0,1,0,0,0,1 | F,0,0,1,0,0,0,1 @ F,0,0,1,0,0,0,1 @ F,0,0,1,0,0,0,1 @ F,0,0,1,0,0,0,1 @ F,0,0,1,0,0,0,1 @ F,0,0,1,0,0,0,1 @ F,0,0,1,0,0,0,1 @ F,0,0,1,0,0,0,1 @ F,0,0,1,0,0,0,1 | F,0,0,1,0,0,0,1 @ F,0,0,1,0,0,0,1 @ F,0,0,1,0,0,0,1 @ F,0,0,1,0,0,0,1 @ F,0,0,1,0,0,0,1 @ F,0,0,1,0,0,0,1 @ F,0,0,1,0,0,0,1 | F,0,0,1,0,0,0,1 @ F,0,0,1,0,0,0,1 @ F,0,0,1,0,0,0,1 @ F,0,0,1,0,0,0,1 @ F,0,0,1,0,0,0,1 @ F,0,0,1,0,0,0,1 @ F,0,0,1,0,0,0,1 @ F,0,0,1,0,0,0,1"
       radius="0"
       unit="px"
       method="auto"
       mode="F"
       chamfer_steps="1"
       flexible="false"
       use_knot_distance="true"
       apply_no_radius="true"
       apply_with_radius="true"
       only_selected="false"
       hide_knots="false" />
    <inkscape:perspective
       id="perspective118"
       inkscape:persp3d-origin="372.04724 : 363.4844 : 1"
       inkscape:vp_x="0 : 538.8781 : 1"
       inkscape:vp_y="0 : 1000 : 0"
       inkscape:vp_z="744.09448 : 538.8781 : 1"
       sodipodi:type="inkscape:persp3d" />
    <inkscape:perspective
       id="perspective126"
       inkscape:persp3d-origin="372.04724 : 363.4844 : 1"
       inkscape:vp_x="0 : 538.8781 : 1"
       inkscape:vp_y="0 : 1000 : 0"
       inkscape:vp_z="744.09448 : 538.8781 : 1"
       sodipodi:type="inkscape:persp3d" />
    <inkscape:perspective
       id="perspective124"
       inkscape:persp3d-origin="372.04724 : 363.4844 : 1"
       inkscape:vp_x="0 : 538.8781 : 1"
       inkscape:vp_y="0 : 1000 : 0"
       inkscape:vp_z="744.09448 : 538.8781 : 1"
       sodipodi:type="inkscape:persp3d" />
    <inkscape:perspective
       id="perspective120"
       inkscape:persp3d-origin="372.04724 : 363.4844 : 1"
       inkscape:vp_x="0 : 538.8781 : 1"
       inkscape:vp_y="0 : 1000 : 0"
       inkscape:vp_z="744.09448 : 538.8781 : 1"
       sodipodi:type="inkscape:persp3d" />
    <inkscape:perspective
       id="perspective114"
       inkscape:persp3d-origin="372.04724 : 363.4844 : 1"
       inkscape:vp_x="0 : 538.8781 : 1"
       inkscape:vp_y="0 : 1000 : 0"
       inkscape:vp_z="744.09448 : 538.8781 : 1"
       sodipodi:type="inkscape:persp3d" />
    <inkscape:perspective
       id="perspective137"
       inkscape:persp3d-origin="372.04724 : 363.4844 : 1"
       inkscape:vp_x="0 : 538.8781 : 1"
       inkscape:vp_y="0 : 1000 : 0"
       inkscape:vp_z="744.09448 : 538.8781 : 1"
       sodipodi:type="inkscape:persp3d" />
    <inkscape:perspective
       id="perspective122"
       inkscape:persp3d-origin="372.04724 : 363.4844 : 1"
       inkscape:vp_x="0 : 538.8781 : 1"
       inkscape:vp_y="0 : 1000 : 0"
       inkscape:vp_z="744.09448 : 538.8781 : 1"
       sodipodi:type="inkscape:persp3d" />
    <inkscape:perspective
       id="perspective123"
       inkscape:persp3d-origin="372.04724 : 363.4844 : 1"
       inkscape:vp_x="0 : 538.8781 : 1"
       inkscape:vp_y="0 : 1000 : 0"
       inkscape:vp_z="744.09448 : 538.8781 : 1"
       sodipodi:type="inkscape:persp3d" />
    <inkscape:perspective
       id="perspective108"
       inkscape:persp3d-origin="372.04724 : 363.4844 : 1"
       inkscape:vp_x="0 : 538.8781 : 1"
       inkscape:vp_y="0 : 1000 : 0"
       inkscape:vp_z="744.09448 : 538.8781 : 1"
       sodipodi:type="inkscape:persp3d" />
    <inkscape:perspective
       id="perspective142"
       inkscape:persp3d-origin="372.04724 : 363.4844 : 1"
       inkscape:vp_x="0 : 538.8781 : 1"
       inkscape:vp_y="0 : 1000 : 0"
       inkscape:vp_z="744.09448 : 538.8781 : 1"
       sodipodi:type="inkscape:persp3d" />
    <inkscape:perspective
       id="perspective138"
       inkscape:persp3d-origin="372.04724 : 363.4844 : 1"
       inkscape:vp_x="0 : 538.8781 : 1"
       inkscape:vp_y="0 : 1000 : 0"
       inkscape:vp_z="744.09448 : 538.8781 : 1"
       sodipodi:type="inkscape:persp3d" />
    <inkscape:perspective
       id="perspective136"
       inkscape:persp3d-origin="372.04724 : 363.4844 : 1"
       inkscape:vp_x="0 : 538.8781 : 1"
       inkscape:vp_y="0 : 1000 : 0"
       inkscape:vp_z="744.09448 : 538.8781 : 1"
       sodipodi:type="inkscape:persp3d" />
    <inkscape:perspective
       id="perspective135"
       inkscape:persp3d-origin="372.04724 : 363.4844 : 1"
       inkscape:vp_x="0 : 538.8781 : 1"
       inkscape:vp_y="0 : 1000 : 0"
       inkscape:vp_z="744.09448 : 538.8781 : 1"
       sodipodi:type="inkscape:persp3d" />
    <inkscape:perspective
       id="perspective134"
       inkscape:persp3d-origin="372.04724 : 363.4844 : 1"
       inkscape:vp_x="0 : 538.8781 : 1"
       inkscape:vp_y="0 : 1000 : 0"
       inkscape:vp_z="744.09448 : 538.8781 : 1"
       sodipodi:type="inkscape:persp3d" />
    <inkscape:perspective
       id="perspective133"
       inkscape:persp3d-origin="372.04724 : 363.4844 : 1"
       inkscape:vp_x="0 : 538.8781 : 1"
       inkscape:vp_y="0 : 1000 : 0"
       inkscape:vp_z="744.09448 : 538.8781 : 1"
       sodipodi:type="inkscape:persp3d" />
    <inkscape:perspective
       id="perspective132"
       inkscape:persp3d-origin="372.04724 : 363.4844 : 1"
       inkscape:vp_x="0 : 538.8781 : 1"
       inkscape:vp_y="0 : 1000 : 0"
       inkscape:vp_z="744.09448 : 538.8781 : 1"
       sodipodi:type="inkscape:persp3d" />
    <inkscape:perspective
       id="perspective131"
       inkscape:persp3d-origin="372.04724 : 363.4844 : 1"
       inkscape:vp_x="0 : 538.8781 : 1"
       inkscape:vp_y="0 : 1000 : 0"
       inkscape:vp_z="744.09448 : 538.8781 : 1"
       sodipodi:type="inkscape:persp3d" />
    <inkscape:perspective
       id="perspective130"
       inkscape:persp3d-origin="372.04724 : 363.4844 : 1"
       inkscape:vp_x="0 : 538.8781 : 1"
       inkscape:vp_y="0 : 1000 : 0"
       inkscape:vp_z="744.09448 : 538.8781 : 1"
       sodipodi:type="inkscape:persp3d" />
    <inkscape:perspective
       id="perspective129"
       inkscape:persp3d-origin="372.04724 : 363.4844 : 1"
       inkscape:vp_x="0 : 538.8781 : 1"
       inkscape:vp_y="0 : 1000 : 0"
       inkscape:vp_z="744.09448 : 538.8781 : 1"
       sodipodi:type="inkscape:persp3d" />
    <inkscape:perspective
       id="perspective128"
       inkscape:persp3d-origin="372.04724 : 363.4844 : 1"
       inkscape:vp_x="0 : 538.8781 : 1"
       inkscape:vp_y="0 : 1000 : 0"
       inkscape:vp_z="744.09448 : 538.8781 : 1"
       sodipodi:type="inkscape:persp3d" />
    <inkscape:perspective
       id="perspective127"
       inkscape:persp3d-origin="372.04724 : 363.4844 : 1"
       inkscape:vp_x="0 : 538.8781 : 1"
       inkscape:vp_y="0 : 1000 : 0"
       inkscape:vp_z="744.09448 : 538.8781 : 1"
       sodipodi:type="inkscape:persp3d" />
    <inkscape:perspective
       id="perspective115"
       inkscape:persp3d-origin="372.04724 : 363.4844 : 1"
       inkscape:vp_x="0 : 538.8781 : 1"
       inkscape:vp_y="0 : 1000 : 0"
       inkscape:vp_z="744.09448 : 538.8781 : 1"
       sodipodi:type="inkscape:persp3d" />
    <inkscape:perspective
       id="perspective113"
       inkscape:persp3d-origin="372.04724 : 363.4844 : 1"
       inkscape:vp_x="0 : 538.8781 : 1"
       inkscape:vp_y="0 : 1000 : 0"
       inkscape:vp_z="744.09448 : 538.8781 : 1"
       sodipodi:type="inkscape:persp3d" />
    <inkscape:perspective
       id="perspective112"
       inkscape:persp3d-origin="372.04724 : 363.4844 : 1"
       inkscape:vp_x="0 : 538.8781 : 1"
       inkscape:vp_y="0 : 1000 : 0"
       inkscape:vp_z="744.09448 : 538.8781 : 1"
       sodipodi:type="inkscape:persp3d" />
    <inkscape:perspective
       id="perspective111"
       inkscape:persp3d-origin="372.04724 : 363.4844 : 1"
       inkscape:vp_x="0 : 538.8781 : 1"
       inkscape:vp_y="0 : 1000 : 0"
       inkscape:vp_z="744.09448 : 538.8781 : 1"
       sodipodi:type="inkscape:persp3d" />
    <inkscape:perspective
       id="perspective110"
       inkscape:persp3d-origin="372.04724 : 363.4844 : 1"
       inkscape:vp_x="0 : 538.8781 : 1"
       inkscape:vp_y="0 : 1000 : 0"
       inkscape:vp_z="744.09448 : 538.8781 : 1"
       sodipodi:type="inkscape:persp3d" />
    <inkscape:perspective
       id="perspective2573"
       inkscape:persp3d-origin="372.04724 : 363.4844 : 1"
       inkscape:vp_x="0 : 538.8781 : 1"
       inkscape:vp_y="0 : 1000 : 0"
       inkscape:vp_z="744.09448 : 538.8781 : 1"
       sodipodi:type="inkscape:persp3d" />
    <inkscape:perspective
       id="perspective179"
       inkscape:persp3d-origin="372.04724 : 363.4844 : 1"
       inkscape:vp_x="0 : 538.8781 : 1"
       inkscape:vp_y="0 : 1000 : 0"
       inkscape:vp_z="744.09448 : 538.8781 : 1"
       sodipodi:type="inkscape:persp3d" />
    <inkscape:perspective
       id="perspective2627"
       inkscape:persp3d-origin="372.04724 : 363.4844 : 1"
       inkscape:vp_x="0 : 538.8781 : 1"
       inkscape:vp_y="0 : 1000 : 0"
       inkscape:vp_z="744.09448 : 538.8781 : 1"
       sodipodi:type="inkscape:persp3d" />
    <inkscape:perspective
       id="perspective109"
       inkscape:persp3d-origin="372.04724 : 363.4844 : 1"
       inkscape:vp_x="0 : 538.8781 : 1"
       inkscape:vp_y="0 : 1000 : 0"
       inkscape:vp_z="744.09448 : 538.8781 : 1"
       sodipodi:type="inkscape:persp3d" />
    <inkscape:perspective
       id="perspective2411"
       inkscape:persp3d-origin="372.04724 : 363.4844 : 1"
       inkscape:vp_x="0 : 538.8781 : 1"
       inkscape:vp_y="0 : 1000 : 0"
       inkscape:vp_z="744.09448 : 538.8781 : 1"
       sodipodi:type="inkscape:persp3d" />
    <inkscape:perspective
       id="perspective9"
       inkscape:persp3d-origin="372.04724 : 363.4844 : 1"
       inkscape:vp_x="0 : 538.8781 : 1"
       inkscape:vp_y="0 : 1000 : 0"
       inkscape:vp_z="744.09448 : 538.8781 : 1"
       sodipodi:type="inkscape:persp3d" />
  </defs>
  <sodipodi:namedview
     bordercolor="#666666"
     borderopacity="1.0"
     gridtolerance="10.0"
     guidetolerance="10.0"
     id="base"
     inkscape:current-layer="svg118"
     inkscape:cx="156.5"
     inkscape:cy="116.25"
     inkscape:guide-bbox="true"
     inkscape:pageopacity="0.0"
     inkscape:pageshadow="2"
     inkscape:window-height="1009"
     inkscape:window-width="1920"
     inkscape:zoom="2"
     objecttolerance="10.0"
     pagecolor="#ffffff"
     showgrid="false"
     showguides="false"
     inkscape:showpageshadow="2"
     inkscape:pagecheckerboard="0"
     inkscape:deskcolor="#d1d1d1"
     inkscape:window-x="-8"
     inkscape:window-y="-8"
     inkscape:window-maximized="1" />
  <g
     id="g2691"
     transform="translate(5.0004943,6.3485372)"
     inkscape:label="sign_1_20"
     style="display:inline;opacity:1">
    <path
       d="m 57.46875,418.03125 c -1.883686,0.0753 -3.601781,1.10257 -4.5625,2.71875 L 15.9375,483.28125 c -1.006793,1.70576 -1.04188,3.80972 -0.0625,5.53125 0.979379,1.72154 2.826523,2.79626 4.8125,2.8125 l 72.84375,0.65625 c 1.982181,0.0143 3.805134,-1.04899 4.8125,-2.75 1.007362,-1.70103 1.034158,-3.80974 0.0625,-5.53125 L 62.5625,420.84375 c -1.028602,-1.80976 -3.008268,-2.90029 -5.09375,-2.8125 z"
       id="path3752"
       sodipodi:nodetypes="cccsccsccc"
       style="opacity:1;fill:#ffffff;fill-opacity:1;fill-rule:nonzero;stroke:#000000;stroke-width:0.88378;stroke-linecap:round;stroke-linejoin:miter;stroke-miterlimit:4;stroke-dasharray:none;stroke-opacity:1"
       transform="matrix(-2.2629143,-0.02038013,-0.02038015,2.2629159,234.21413,-944.78192)"
       inkscape:label="bg" />
    <path
       d="m 57.552125,420.06442 c -1.184997,0.0609 -2.258724,0.71449 -2.853712,1.73708 l -37.007664,62.51241 c -0.630652,1.07453 -0.639702,2.40213 -0.02376,3.4851 0.615946,1.08296 1.763843,1.7577 3.013359,1.77126 l 72.860258,0.65423 c 1.25172,0.009 2.41356,-0.64652 3.04863,-1.72097 0.63508,-1.07445 0.6471,-2.4046 0.03156,-3.49028 L 60.768214,421.84662 c -0.647874,-1.1516 -1.892111,-1.8411 -3.216089,-1.7822 z m 0.09059,10.49017 29.896031,52.63134 -60.720652,-0.54143 z"
       id="path3668"
       style="opacity:1;fill:#ff0000;fill-opacity:1;stroke:none;stroke-width:9.6775;stroke-linecap:round;stroke-linejoin:round;stroke-miterlimit:4;stroke-dasharray:none;stroke-opacity:1"
       transform="matrix(-2.2629143,-0.02038013,-0.02038015,2.2629159,234.21413,-944.78192)"
       inkscape:label="red" />
    <path
       id="path2622"
       style="display:inline;opacity:1;fill:#000000;fill-opacity:1;fill-rule:nonzero;stroke:none;stroke-width:3.4;stroke-linecap:round;stroke-linejoin:miter;stroke-miterlimit:4;stroke-opacity:1"
       inkscape:label="sign"
       d="m -156.66208,59.084273 -0.0284,2.384142 -10.07011,7.914515 3.68988,5.36503 h 14.37447 l 4.46281,-5.410496 -10.4608,-7.851999 -0.0256,-2.37988 z m 0.92849,3.379247 c 3.20837,2.321687 6.30447,4.795586 9.43711,7.217783 l -2.84591,3.439814 -13.23212,0.0043 -2.32305,-3.398609 z m -26.54098,15.796715 c -1.3517,1e-6 -5.74012,7.962472 -5.74012,9.562142 v 9.653074 c -7e-5,2.047536 1.65938,3.707629 3.70692,3.708349 h 0.58254 l 1.87691,-3.189748 c 0.94007,-1.597096 2.65504,-2.577543 4.50827,-2.577374 h 12.79168 c 1.39379,-2.85e-4 2.65073,0.838426 3.18548,2.125552 l 0.56833,1.366832 c 0.33229,0.798949 1.11249,1.319648 1.97779,1.319948 h 4.83648 c 0.73488,-4e-5 1.39752,-0.442364 1.67941,-1.121032 l 0.56123,-1.349783 c 0.58932,-1.417839 1.97399,-2.341703 3.50943,-2.341517 h 13.82177 c 1.04389,2.62e-4 1.98389,0.631983 2.37846,1.598427 l 1.68226,4.123225 h 1.0102 c 2.79053,3.3e-4 5.05278,-2.261919 5.05245,-5.052444 v -8.263509 c 0,-1.59967 -5.07045,-9.562141 -6.42212,-9.562142 z m 16.65774,1.631105 c 0.87468,0 1.61263,0.832037 1.61263,1.717776 v 5.308196 c -2e-5,0.88573 -0.73795,1.93232 -1.61263,1.93232 l -6.36813,0.129295 c -0.87369,0 -1.57001,-1.090646 -1.57001,-1.976365 v -5.393446 c 0,-0.885739 0.69632,-1.588481 1.57001,-1.588481 z m -16.25707,0.244382 h 4.20422 c 0.6363,-6.98e-4 1.17218,0.608125 1.17218,1.248904 v 5.812589 c 1e-5,0.642919 -0.53727,1.406615 -1.17218,1.406615 h -7.25899 c -0.63279,0 -1.35749,-0.799776 -1.14234,-1.406615 0.82776,-2.172113 2.26712,-5.830384 4.19711,-7.061493 z m 29.82451,0 c 0.6363,2e-6 1.1736,0.604565 1.1736,1.248904 v 5.812589 c -1e-5,0.644329 -0.5373,1.406615 -1.1736,1.406615 l -7.31014,0.09377 c -0.63558,0 -1.14234,-0.793544 -1.14234,-1.437873 v -5.875105 c 0,-0.644339 0.50676,-1.15513 1.14234,-1.15513 z m 4.95157,0 7.94809,0.09377 c 0.63558,0 1.14234,0.510791 1.14234,1.15513 v 5.875105 c 0,0.644329 -0.50676,1.437873 -1.14234,1.437873 -4.40734,-0.03123 2.55099,-0.06254 -7.94809,-0.09377 -0.63629,0 -1.14093,-0.762286 -1.14092,-1.406615 v -5.811168 c 0,-0.64434 0.50464,-1.250323 1.14092,-1.250325 z m 12.34553,0 h 3.61316 c 1.93001,1.231109 3.36935,4.88938 4.19711,7.061493 0.21515,0.606839 -0.50954,1.406615 -1.14234,1.406615 h -6.66793 c -0.63491,0 -1.14092,-0.763696 -1.14092,-1.406615 v -5.812589 c 0,-0.640779 0.50461,-1.249602 1.14092,-1.248904 z m -40.82594,16.33947 c -2.51269,0 -4.531,2.04957 -4.531,4.562268 0,2.51269 2.01831,4.56368 4.531,4.56368 1.90527,0 3.54162,-1.18217 4.21985,-2.84449 0.67638,1.66629 2.3103,2.84449 4.21842,2.84449 2.5127,0 4.56227,-2.05099 4.56227,-4.56368 0,-2.512698 -2.04957,-4.562268 -4.56227,-4.562268 -1.90812,0 -3.54204,1.1782 -4.21842,2.844488 -0.67823,-1.662318 -2.31457,-2.844488 -4.21985,-2.844488 z m 29.64691,0.181865 c -2.5127,0 -4.53101,2.049566 -4.53101,4.562263 0,2.5127 2.01831,4.56369 4.53101,4.56369 1.90526,0 3.54019,-1.18217 4.21842,-2.84449 0.67638,1.66629 2.3103,2.84449 4.21843,2.84449 2.51269,0 4.56368,-2.05099 4.56368,-4.56369 0,-2.512697 -2.05099,-4.562263 -4.56368,-4.562263 -1.90813,0 -3.54205,1.1782 -4.21843,2.844489 -0.67823,-1.662319 -2.31315,-2.844489 -4.21842,-2.844489 z"
       transform="matrix(1.374643,0,0,1.374643,309.66773,-7.1354197)"
       sodipodi:nodetypes="ccccccccccccccccsccccccccccccccccccscccscccssccccscsscccscccssccccsscccsccccsssscssscssscsssscssscs" />
  </g>
</svg>
