<?xml version="1.0" encoding="UTF-8" standalone="no"?>
<!-- Created with Inkscape (http://www.inkscape.org/) -->

<svg
   height="180"
   id="svg118"
   inkscape:output_extension="org.inkscape.output.svg.inkscape"
   inkscape:version="1.3 (0e150ed6c4, 2023-07-21)"
   sodipodi:docname="1.28.svg"
   sodipodi:version="0.32"
   version="1.0"
   width="200"
   xmlns:inkscape="http://www.inkscape.org/namespaces/inkscape"
   xmlns:sodipodi="http://sodipodi.sourceforge.net/DTD/sodipodi-0.dtd"
   xmlns="http://www.w3.org/2000/svg"
   xmlns:svg="http://www.w3.org/2000/svg"
   xmlns:rdf="http://www.w3.org/1999/02/22-rdf-syntax-ns#"
   xmlns:cc="http://creativecommons.org/ns#"
   xmlns:dc="http://purl.org/dc/elements/1.1/">
  <title
     id="title1">Попереджувальні знаки » Дорожні знаки » ПДР Тест Центр</title>
  <metadata
     id="metadata118">
    <rdf:RDF>
      <cc:Work
         rdf:about="">
        <dc:format>&#10;					image/svg+xml&#10;				</dc:format>
        <dc:type
           rdf:resource="http://purl.org/dc/dcmitype/StillImage" />
        <dc:title>Попереджувальні знаки » Дорожні знаки » ПДР Тест Центр</dc:title>
        <cc:license
           rdf:resource="http://creativecommons.org/licenses/by-nc-sa/4.0/" />
        <dc:creator>
          <cc:Agent>
            <dc:title>ПДР Тест Центр | PDR Test Center</dc:title>
          </cc:Agent>
        </dc:creator>
        <dc:rights>
          <cc:Agent>
            <dc:title>ПДР Тест Центр | PDR Test Center</dc:title>
          </cc:Agent>
        </dc:rights>
        <dc:language>uk-UA</dc:language>
        <dc:date>2023-09-01</dc:date>
        <dc:publisher>
          <cc:Agent>
            <dc:title>https://pdrtest.com/</dc:title>
          </cc:Agent>
        </dc:publisher>
        <dc:source>https://pdrtest.com/driver/rules/section/33.1</dc:source>
      </cc:Work>
      <cc:License
         rdf:about="http://creativecommons.org/licenses/by-nc-sa/4.0/">
        <cc:permits
           rdf:resource="http://creativecommons.org/ns#Reproduction" />
        <cc:permits
           rdf:resource="http://creativecommons.org/ns#Distribution" />
        <cc:requires
           rdf:resource="http://creativecommons.org/ns#Notice" />
        <cc:requires
           rdf:resource="http://creativecommons.org/ns#Attribution" />
        <cc:prohibits
           rdf:resource="http://creativecommons.org/ns#CommercialUse" />
        <cc:permits
           rdf:resource="http://creativecommons.org/ns#DerivativeWorks" />
        <cc:requires
           rdf:resource="http://creativecommons.org/ns#ShareAlike" />
      </cc:License>
    </rdf:RDF>
  </metadata>
  <defs
     id="defs118">
    <inkscape:path-effect
       effect="fillet_chamfer"
       id="path-effect1"
       is_visible="true"
       lpeversion="1"
       nodesatellites_param="F,0,0,1,0,0,0,1 @ F,0,0,1,0,0,0,1 @ F,0,0,1,0,0,0,1 @ F,0,0,1,0,0,0,1 @ F,0,0,1,0,0,0,1 @ F,0,0,1,0,0,0,1 @ F,0,0,1,0,0,0,1 @ F,0,0,1,0,0,0,1 @ F,0,0,1,0,0,0,1 @ F,0,0,1,0,0,0,1 @ F,0,0,1,0,0,0,1 @ F,0,0,1,0,0,0,1 @ F,0,0,1,0,0,0,1 @ F,0,0,1,0,0,0,1 @ F,0,0,1,0,0,0,1 @ F,0,0,1,0,0,0,1 @ F,0,0,1,0,0,0,1 @ F,0,0,1,0,0,0,1 @ F,0,0,1,0,0,0,1 @ F,0,0,1,0,0,0,1 | F,0,0,1,0,2.4846349,0,1 @ F,0,0,1,0,0,0,1 @ F,0,0,1,0,1.284837,0,1 @ F,0,0,1,0,1.4275057,0,1 @ F,0,0,1,0,0.55490214,0,1 @ F,0,0,1,0,1.3139339,0,1 | F,0,0,1,0,0,0,1 @ F,0,0,1,0,0,0,1 @ F,0,0,1,0,0,0,1 @ F,0,0,1,0,0,0,1 @ F,0,0,1,0,0,0,1 @ F,0,0,1,0,0,0,1 @ F,0,0,1,0,0,0,1 | F,0,0,1,0,1.8288743,0,1 @ F,0,0,1,0,1.8288743,0,1 @ F,0,0,1,0,1.8288743,0,1 @ F,0,0,1,0,1.8288743,0,1 | F,0,0,1,0,0.6346225,0,1 @ F,0,0,1,0,0.6913176,0,1 @ F,0,0,1,0,0,0,1 @ F,0,0,1,0,0,0,1 @ F,0,0,1,0,0,0,1 @ F,0,0,1,0,0,0,1 @ F,0,0,1,0,0,0,1 @ F,0,0,1,0,0,0,1 @ F,0,0,1,0,0,0,1 @ F,0,0,1,0,0,0,1 @ F,0,0,1,0,0,0,1 @ F,0,0,1,0,0,0,1 @ F,0,0,1,0,0,0,1 @ F,0,0,1,0,0,0,1 @ F,0,0,1,0,1.8288743,0,1 @ F,0,0,1,0,1.1773806,0,1 | F,0,0,1,0,0,0,1 @ F,0,0,1,0,0,0,1 @ F,0,0,1,0,0,0,1 @ F,0,0,1,0,0,0,1 | F,0,0,1,0,1.8288743,0,1 @ F,0,0,1,0,0,0,1 @ F,0,0,1,0,0,0,1 @ F,0,0,1,0,0,0,1 | F,0,0,1,0,0,0,1 @ F,0,0,1,0,0,0,1 @ F,0,0,1,0,0,0,1 @ F,0,0,1,0,0,0,1 | F,0,0,1,0,0,0,1 @ F,0,0,1,0,0,0,1 @ F,0,0,1,0,0,0,1 @ F,0,0,1,0,0,0,1 | F,0,0,1,0,0,0,1 @ F,0,0,1,0,0,0,1 @ F,0,0,1,0,0,0,1 @ F,0,0,1,0,0,0,1 | F,0,0,1,0,0,0,1 @ F,0,0,1,0,0,0,1 @ F,0,0,1,0,0,0,1 @ F,0,0,1,0,0,0,1"
       radius="0"
       unit="px"
       method="auto"
       mode="F"
       chamfer_steps="1"
       flexible="false"
       use_knot_distance="true"
       apply_no_radius="true"
       apply_with_radius="true"
       only_selected="false"
       hide_knots="false" />
    <inkscape:perspective
       id="perspective118"
       inkscape:persp3d-origin="372.04724 : 363.4844 : 1"
       inkscape:vp_x="0 : 538.8781 : 1"
       inkscape:vp_y="0 : 1000 : 0"
       inkscape:vp_z="744.09448 : 538.8781 : 1"
       sodipodi:type="inkscape:persp3d" />
    <inkscape:perspective
       id="perspective126"
       inkscape:persp3d-origin="372.04724 : 363.4844 : 1"
       inkscape:vp_x="0 : 538.8781 : 1"
       inkscape:vp_y="0 : 1000 : 0"
       inkscape:vp_z="744.09448 : 538.8781 : 1"
       sodipodi:type="inkscape:persp3d" />
    <inkscape:perspective
       id="perspective124"
       inkscape:persp3d-origin="372.04724 : 363.4844 : 1"
       inkscape:vp_x="0 : 538.8781 : 1"
       inkscape:vp_y="0 : 1000 : 0"
       inkscape:vp_z="744.09448 : 538.8781 : 1"
       sodipodi:type="inkscape:persp3d" />
    <inkscape:perspective
       id="perspective120"
       inkscape:persp3d-origin="372.04724 : 363.4844 : 1"
       inkscape:vp_x="0 : 538.8781 : 1"
       inkscape:vp_y="0 : 1000 : 0"
       inkscape:vp_z="744.09448 : 538.8781 : 1"
       sodipodi:type="inkscape:persp3d" />
    <inkscape:perspective
       id="perspective114"
       inkscape:persp3d-origin="372.04724 : 363.4844 : 1"
       inkscape:vp_x="0 : 538.8781 : 1"
       inkscape:vp_y="0 : 1000 : 0"
       inkscape:vp_z="744.09448 : 538.8781 : 1"
       sodipodi:type="inkscape:persp3d" />
    <inkscape:perspective
       id="perspective137"
       inkscape:persp3d-origin="372.04724 : 363.4844 : 1"
       inkscape:vp_x="0 : 538.8781 : 1"
       inkscape:vp_y="0 : 1000 : 0"
       inkscape:vp_z="744.09448 : 538.8781 : 1"
       sodipodi:type="inkscape:persp3d" />
    <inkscape:perspective
       id="perspective122"
       inkscape:persp3d-origin="372.04724 : 363.4844 : 1"
       inkscape:vp_x="0 : 538.8781 : 1"
       inkscape:vp_y="0 : 1000 : 0"
       inkscape:vp_z="744.09448 : 538.8781 : 1"
       sodipodi:type="inkscape:persp3d" />
    <inkscape:perspective
       id="perspective123"
       inkscape:persp3d-origin="372.04724 : 363.4844 : 1"
       inkscape:vp_x="0 : 538.8781 : 1"
       inkscape:vp_y="0 : 1000 : 0"
       inkscape:vp_z="744.09448 : 538.8781 : 1"
       sodipodi:type="inkscape:persp3d" />
    <inkscape:perspective
       id="perspective108"
       inkscape:persp3d-origin="372.04724 : 363.4844 : 1"
       inkscape:vp_x="0 : 538.8781 : 1"
       inkscape:vp_y="0 : 1000 : 0"
       inkscape:vp_z="744.09448 : 538.8781 : 1"
       sodipodi:type="inkscape:persp3d" />
    <inkscape:perspective
       id="perspective142"
       inkscape:persp3d-origin="372.04724 : 363.4844 : 1"
       inkscape:vp_x="0 : 538.8781 : 1"
       inkscape:vp_y="0 : 1000 : 0"
       inkscape:vp_z="744.09448 : 538.8781 : 1"
       sodipodi:type="inkscape:persp3d" />
    <inkscape:perspective
       id="perspective138"
       inkscape:persp3d-origin="372.04724 : 363.4844 : 1"
       inkscape:vp_x="0 : 538.8781 : 1"
       inkscape:vp_y="0 : 1000 : 0"
       inkscape:vp_z="744.09448 : 538.8781 : 1"
       sodipodi:type="inkscape:persp3d" />
    <inkscape:perspective
       id="perspective136"
       inkscape:persp3d-origin="372.04724 : 363.4844 : 1"
       inkscape:vp_x="0 : 538.8781 : 1"
       inkscape:vp_y="0 : 1000 : 0"
       inkscape:vp_z="744.09448 : 538.8781 : 1"
       sodipodi:type="inkscape:persp3d" />
    <inkscape:perspective
       id="perspective135"
       inkscape:persp3d-origin="372.04724 : 363.4844 : 1"
       inkscape:vp_x="0 : 538.8781 : 1"
       inkscape:vp_y="0 : 1000 : 0"
       inkscape:vp_z="744.09448 : 538.8781 : 1"
       sodipodi:type="inkscape:persp3d" />
    <inkscape:perspective
       id="perspective134"
       inkscape:persp3d-origin="372.04724 : 363.4844 : 1"
       inkscape:vp_x="0 : 538.8781 : 1"
       inkscape:vp_y="0 : 1000 : 0"
       inkscape:vp_z="744.09448 : 538.8781 : 1"
       sodipodi:type="inkscape:persp3d" />
    <inkscape:perspective
       id="perspective133"
       inkscape:persp3d-origin="372.04724 : 363.4844 : 1"
       inkscape:vp_x="0 : 538.8781 : 1"
       inkscape:vp_y="0 : 1000 : 0"
       inkscape:vp_z="744.09448 : 538.8781 : 1"
       sodipodi:type="inkscape:persp3d" />
    <inkscape:perspective
       id="perspective132"
       inkscape:persp3d-origin="372.04724 : 363.4844 : 1"
       inkscape:vp_x="0 : 538.8781 : 1"
       inkscape:vp_y="0 : 1000 : 0"
       inkscape:vp_z="744.09448 : 538.8781 : 1"
       sodipodi:type="inkscape:persp3d" />
    <inkscape:perspective
       id="perspective131"
       inkscape:persp3d-origin="372.04724 : 363.4844 : 1"
       inkscape:vp_x="0 : 538.8781 : 1"
       inkscape:vp_y="0 : 1000 : 0"
       inkscape:vp_z="744.09448 : 538.8781 : 1"
       sodipodi:type="inkscape:persp3d" />
    <inkscape:perspective
       id="perspective130"
       inkscape:persp3d-origin="372.04724 : 363.4844 : 1"
       inkscape:vp_x="0 : 538.8781 : 1"
       inkscape:vp_y="0 : 1000 : 0"
       inkscape:vp_z="744.09448 : 538.8781 : 1"
       sodipodi:type="inkscape:persp3d" />
    <inkscape:perspective
       id="perspective129"
       inkscape:persp3d-origin="372.04724 : 363.4844 : 1"
       inkscape:vp_x="0 : 538.8781 : 1"
       inkscape:vp_y="0 : 1000 : 0"
       inkscape:vp_z="744.09448 : 538.8781 : 1"
       sodipodi:type="inkscape:persp3d" />
    <inkscape:perspective
       id="perspective128"
       inkscape:persp3d-origin="372.04724 : 363.4844 : 1"
       inkscape:vp_x="0 : 538.8781 : 1"
       inkscape:vp_y="0 : 1000 : 0"
       inkscape:vp_z="744.09448 : 538.8781 : 1"
       sodipodi:type="inkscape:persp3d" />
    <inkscape:perspective
       id="perspective127"
       inkscape:persp3d-origin="372.04724 : 363.4844 : 1"
       inkscape:vp_x="0 : 538.8781 : 1"
       inkscape:vp_y="0 : 1000 : 0"
       inkscape:vp_z="744.09448 : 538.8781 : 1"
       sodipodi:type="inkscape:persp3d" />
    <inkscape:perspective
       id="perspective115"
       inkscape:persp3d-origin="372.04724 : 363.4844 : 1"
       inkscape:vp_x="0 : 538.8781 : 1"
       inkscape:vp_y="0 : 1000 : 0"
       inkscape:vp_z="744.09448 : 538.8781 : 1"
       sodipodi:type="inkscape:persp3d" />
    <inkscape:perspective
       id="perspective113"
       inkscape:persp3d-origin="372.04724 : 363.4844 : 1"
       inkscape:vp_x="0 : 538.8781 : 1"
       inkscape:vp_y="0 : 1000 : 0"
       inkscape:vp_z="744.09448 : 538.8781 : 1"
       sodipodi:type="inkscape:persp3d" />
    <inkscape:perspective
       id="perspective112"
       inkscape:persp3d-origin="372.04724 : 363.4844 : 1"
       inkscape:vp_x="0 : 538.8781 : 1"
       inkscape:vp_y="0 : 1000 : 0"
       inkscape:vp_z="744.09448 : 538.8781 : 1"
       sodipodi:type="inkscape:persp3d" />
    <inkscape:perspective
       id="perspective111"
       inkscape:persp3d-origin="372.04724 : 363.4844 : 1"
       inkscape:vp_x="0 : 538.8781 : 1"
       inkscape:vp_y="0 : 1000 : 0"
       inkscape:vp_z="744.09448 : 538.8781 : 1"
       sodipodi:type="inkscape:persp3d" />
    <inkscape:perspective
       id="perspective110"
       inkscape:persp3d-origin="372.04724 : 363.4844 : 1"
       inkscape:vp_x="0 : 538.8781 : 1"
       inkscape:vp_y="0 : 1000 : 0"
       inkscape:vp_z="744.09448 : 538.8781 : 1"
       sodipodi:type="inkscape:persp3d" />
    <inkscape:perspective
       id="perspective109"
       inkscape:persp3d-origin="372.04724 : 363.4844 : 1"
       inkscape:vp_x="0 : 538.8781 : 1"
       inkscape:vp_y="0 : 1000 : 0"
       inkscape:vp_z="744.09448 : 538.8781 : 1"
       sodipodi:type="inkscape:persp3d" />
    <inkscape:perspective
       id="perspective2448"
       inkscape:persp3d-origin="372.04724 : 363.4844 : 1"
       inkscape:vp_x="0 : 538.8781 : 1"
       inkscape:vp_y="0 : 1000 : 0"
       inkscape:vp_z="744.09448 : 538.8781 : 1"
       sodipodi:type="inkscape:persp3d" />
  </defs>
  <sodipodi:namedview
     bordercolor="#666666"
     borderopacity="1.0"
     gridtolerance="10.0"
     guidetolerance="10.0"
     id="base"
     inkscape:current-layer="svg118"
     inkscape:cx="113.16113"
     inkscape:cy="71.094711"
     inkscape:guide-bbox="true"
     inkscape:pageopacity="0.0"
     inkscape:pageshadow="2"
     inkscape:window-height="1009"
     inkscape:window-width="1920"
     inkscape:zoom="2.0325"
     objecttolerance="10.0"
     pagecolor="#ffffff"
     showgrid="false"
     showguides="false"
     inkscape:showpageshadow="2"
     inkscape:pagecheckerboard="0"
     inkscape:deskcolor="#d1d1d1"
     inkscape:window-x="-8"
     inkscape:window-y="-8"
     inkscape:window-maximized="1" />
  <g
     id="g2496"
     transform="translate(5.0004965,6.3485366)"
     inkscape:label="sign_1_28"
     style="display:inline;opacity:1">
    <path
       d="M 95.647737,0.01642178 C 99.908822,0.22525437 103.77579,2.5848497 105.91688,6.2617087 L 188.29959,148.5181 c 2.24353,3.88051 2.28004,8.64231 0.0287,12.51802 -2.25134,3.87574 -6.45317,6.2701 -10.9476,6.26638 l -164.852535,4.7e-4 c -4.4857986,-0.008 -8.589314,-2.45133 -10.8342301,-6.3211 -2.24490661,-3.86982 -2.26256785,-8.6422 -0.028704,-12.51803 L 84.063698,6.2770615 C 86.42822,2.2026898 90.930259,-0.224742 95.647737,0.01642178 Z"
       id="path3752"
       sodipodi:nodetypes="cccsccsccc"
       style="fill:#ffffff;fill-opacity:1;fill-rule:nonzero;stroke:#000000;stroke-width:2;stroke-linecap:round;stroke-linejoin:miter;stroke-miterlimit:4;stroke-dasharray:none;stroke-opacity:1"
       inkscape:label="bg" />
    <path
       d="m 95.41763,4.6156153 c 2.680306,0.1619846 5.09674,1.6628639 6.4223,3.989025 L 184.31109,150.81919 c 1.40522,2.44442 1.39864,5.44885 -0.0173,7.88697 -1.41591,2.43809 -4.02725,3.94158 -6.85508,3.9468 l -164.889849,-0.004 c -2.8327261,-0.004 -5.4485037,-1.51221 -6.8637152,-3.95655 -1.4152342,-2.44433 -1.4153258,-5.45459 -2.852e-4,-7.89885 L 88.103575,8.5830397 C 89.593128,5.9902695 92.422782,4.4553467 95.41763,4.6156153 Z M 94.998833,28.352141 26.274042,146.84315 l 137.416668,0.0123 z"
       id="path3668"
       style="fill:#ff0000;fill-opacity:1;stroke:none;stroke-width:9.6775;stroke-linecap:round;stroke-linejoin:round;stroke-miterlimit:4;stroke-dasharray:none;stroke-opacity:1"
       inkscape:label="red" />
    <path
       d="m 94.562856,46.856889 c -0.789215,0 -1.410016,0.05422 -2.120029,0.212003 -2.918395,0.710017 -4.964455,3.678175 -4.964455,6.360193 -3.3e-5,2.367058 1.304701,5.572166 2.17346,6.520112 1.959303,1.973938 -1.427684,3.71005 -2.137695,3.71005 -7.105996,-0.901288 -6.7958,5.320707 -8.904122,10.63548 -1.183394,2.681389 -3.434549,5.805977 -4.854293,7.304917 -2.05149,2.36706 -3.33554,2.663185 -5.781186,4.319908 -2.8398,1.814509 -3.430932,3.959202 -3.430932,7.667438 0,1.774691 0.223273,4.75645 1.66456,4.7627 1.439859,0.007 3.297998,0 4.946416,0 1.648416,0 0.783408,-1.952109 1.809019,-3.76693 0.157807,-0.552269 1.223488,-2.237012 1.618253,-2.710053 1.024974,-1.105732 3.230839,-1.743787 4.650899,-2.217455 4.260475,-1.341156 8.197548,-0.17276 12.220729,-1.987268 0.315913,-0.159019 0.674373,-0.364302 0.989347,-0.600675 2.524833,-1.657037 3.613873,-3.970645 5.42871,-6.494247 1.419705,-2.445667 9.498533,-3.54429 10.065873,-9.830407 0.68377,-7.576246 -5.23853,-3.927213 -7.17456,-9.44575 -0.0792,-2.050884 2.63367,-5.021127 2.63367,-7.072324 0,-4.891316 -5.362752,-7.289105 -8.833664,-7.367692 z m 13.762894,52.854115 v 23.591726 h 17.97209 a 1.284837,1.284837 135 0 0 1.28484,-1.28484 l 0,-18.41727 a 3.7306684,3.7306684 110.93889 0 1 0.95292,-2.49039 l 0.51402,-0.57333 a 1.450191,1.450191 110.93889 0 0 0.37042,-0.968062 v -1.028535 a 1.3139339,1.3139339 45 0 0 -1.31393,-1.313934 l -17.29573,0 a 2.4846349,2.4846349 135 0 0 -2.48463,2.484635 z m -43.142585,0.412736 -3.68e-4,4.77007 c -10.263767,0 -9.716139,18.40892 0,18.40892 H 107.12441 V 104.89381 H 72.779935 v -4.77007 z m 50.730875,2.89738 h 4.2217 a 1.8288743,1.8288743 45 0 1 1.82887,1.82887 l 0,4.08036 a 1.8288743,1.8288743 135 0 1 -1.82887,1.82887 h -4.2217 a 1.8288743,1.8288743 45 0 1 -1.82887,-1.82887 v -4.08036 a 1.8288743,1.8288743 135 0 1 1.82887,-1.82887 z m -53.698916,22.43559 0,0.72341 a 0.6913176,0.6913176 135 0 1 -0.691318,0.69132 l -3.018733,0 c -4.0241,0.86781 -4.024097,8.52216 0,10.49415 h 8.868789 c 0.788922,3.31347 3.755751,5.75941 7.384767,5.75941 3.54984,0 6.54377,-2.44594 7.490768,-5.75941 h 3.286046 c 0.946384,3.31347 3.791052,5.75941 7.420101,5.75941 h 0.106002 c 3.55139,0 6.402718,-2.44594 7.349434,-5.75941 h 3.56871 c 0.70971,3.31347 3.65796,5.75941 7.2081,5.75941 3.68859,-0.10666 6.16603,-2.5046 7.38477,-5.75941 h 7.18125 a 1.8288743,1.8288743 135 0 0 1.82887,-1.82887 v -9.53725 a 1.1773806,1.1773806 45 0 0 -1.17738,-1.17738 H 62.849747 a 0.6346225,0.6346225 135 0 0 -0.634623,0.63462 z m 12.543505,5.05411 c 2.820498,0 4.770065,2.20834 4.770065,4.87608 0,2.66773 -2.087741,4.6994 -4.770065,4.6994 -2.682324,0 -4.734745,-2.04681 -4.734732,-4.6994 1.4e-5,-2.6526 1.914234,-4.87608 4.734732,-4.87608 z m 19.984149,0.33355 c 1.820916,0.71801 3.018165,2.51054 3.018165,4.54253 0,2.64016 -1.953241,4.6994 -4.699398,4.6994 -2.746156,0 -4.876066,-1.89515 -4.876066,-4.6994 0,-2.04808 1.178553,-3.82768 2.982988,-4.54215 0.933542,-0.36964 2.640203,-0.36871 3.574311,-3.8e-4 z m 16.445012,-0.33355 c 2.8484,0 4.8054,2.20889 4.8054,4.87608 0,2.68483 -2.12097,4.6994 -4.8054,4.6994 -2.68233,0 -4.69941,-2.05637 -4.6994,-4.6994 1e-5,-2.64305 1.85108,-4.87608 4.6994,-4.87608 z m 0,1.59003 c -1.75538,-1e-5 -3.18004,1.42466 -3.18004,3.18005 0,1.75536 1.42466,3.18004 3.18004,3.18004 1.75539,-1e-5 3.18005,-1.42467 3.18005,-3.18004 0,-1.7554 -1.42466,-3.18005 -3.18005,-3.18005 z m -36.393828,0.106 c -1.755383,0 -3.180043,1.42466 -3.180043,3.18004 0,1.75538 1.42466,3.18004 3.180043,3.18004 1.755385,0 3.180044,-1.42466 3.180044,-3.18004 0,-1.75538 -1.424659,-3.18004 -3.180044,-3.18004 z m 18.090915,0 c -1.755385,0 -3.180044,1.42466 -3.180044,3.18004 0,1.75538 1.424659,3.18004 3.180044,3.18004 1.755383,0 3.180042,-1.42466 3.180042,-3.18004 0,-1.75538 -1.424659,-3.18004 -3.180042,-3.18004 z"
       id="_43133688"
       sodipodi:nodetypes="ccscccccszzccccccscscccccccccczcccccccccccccccsccccccccccccsssccsssccsssccsssccsssccsssc"
       style="fill:#000000;fill-rule:evenodd;stroke-width:1.13068"
       inkscape:label="sign"
       inkscape:path-effect="#path-effect1"
       inkscape:original-d="m 94.562856,46.856889 c -0.789215,0 -1.410016,0.05422 -2.120029,0.212003 -2.918395,0.710017 -4.964455,3.678175 -4.964455,6.360193 -3.3e-5,2.367058 1.304701,5.572166 2.17346,6.520112 1.959303,1.973938 -1.427684,3.71005 -2.137695,3.71005 -7.105996,-0.901288 -6.7958,5.320707 -8.904122,10.63548 -1.183394,2.681389 -3.434549,5.805977 -4.854293,7.304917 -2.05149,2.36706 -3.33554,2.663185 -5.781186,4.319908 -2.8398,1.814509 -3.430932,3.959202 -3.430932,7.667438 0,1.774691 0.223273,4.75645 1.66456,4.7627 1.439859,0.007 3.297998,0 4.946416,0 1.648416,0 0.783408,-1.952109 1.809019,-3.76693 0.157807,-0.552269 1.223488,-2.237012 1.618253,-2.710053 1.024974,-1.105732 3.230839,-1.743787 4.650899,-2.217455 4.260475,-1.341156 8.197548,-0.17276 12.220729,-1.987268 0.315913,-0.159019 0.674373,-0.364302 0.989347,-0.600675 2.524833,-1.657037 3.613873,-3.970645 5.42871,-6.494247 1.419705,-2.445667 9.498533,-3.54429 10.065873,-9.830407 0.68377,-7.576246 -5.23853,-3.927213 -7.17456,-9.44575 -0.0792,-2.050884 2.63367,-5.021127 2.63367,-7.072324 0,-4.891316 -5.362752,-7.289105 -8.833664,-7.367692 z m 13.762894,50.36948 v 26.076361 h 19.25693 v -21.12962 l 1.83736,-2.04937 v -2.897371 z m -43.142585,2.897371 -3.68e-4,4.77007 c -10.263767,0 -9.716139,18.40892 0,18.40892 H 107.12441 V 104.89381 H 72.779935 v -4.77007 z m 48.902005,2.89738 h 7.87944 v 7.7381 h -7.87944 z m -51.870046,21.80097 v 2.04935 h -3.710051 c -4.0241,0.86781 -4.024097,8.52216 0,10.49415 h 8.868789 c 0.788922,3.31347 3.755751,5.75941 7.384767,5.75941 3.54984,0 6.54377,-2.44594 7.490768,-5.75941 h 3.286046 c 0.946384,3.31347 3.791052,5.75941 7.420101,5.75941 h 0.106002 c 3.55139,0 6.402718,-2.44594 7.349434,-5.75941 h 3.56871 c 0.70971,3.31347 3.65796,5.75941 7.2081,5.75941 3.68859,-0.10666 6.16603,-2.5046 7.38477,-5.75941 h 9.01012 v -12.5435 z m 12.543505,5.68873 c 2.820498,0 4.770065,2.20834 4.770065,4.87608 0,2.66773 -2.087741,4.6994 -4.770065,4.6994 -2.682324,0 -4.734745,-2.04681 -4.734732,-4.6994 1.4e-5,-2.6526 1.914234,-4.87608 4.734732,-4.87608 z m 18.196915,0 c 2.784223,0 4.805399,2.23591 4.805399,4.87608 0,2.64016 -1.953241,4.6994 -4.699398,4.6994 -2.746156,0 -4.876066,-1.89515 -4.876066,-4.6994 0,-2.66539 1.996081,-4.87608 4.770065,-4.87608 z m 18.232246,0 c 2.8484,0 4.8054,2.20889 4.8054,4.87608 0,2.68483 -2.12097,4.6994 -4.8054,4.6994 -2.68233,0 -4.69941,-2.05637 -4.6994,-4.6994 1e-5,-2.64305 1.85108,-4.87608 4.6994,-4.87608 z m 0,1.59003 c -1.75538,-1e-5 -3.18004,1.42466 -3.18004,3.18005 0,1.75536 1.42466,3.18004 3.18004,3.18004 1.75539,-1e-5 3.18005,-1.42467 3.18005,-3.18004 0,-1.7554 -1.42466,-3.18005 -3.18005,-3.18005 z m -36.393828,0.106 c -1.755383,0 -3.180043,1.42466 -3.180043,3.18004 0,1.75538 1.42466,3.18004 3.180043,3.18004 1.755385,0 3.180044,-1.42466 3.180044,-3.18004 0,-1.75538 -1.424659,-3.18004 -3.180044,-3.18004 z m 18.090915,0 c -1.755385,0 -3.180044,1.42466 -3.180044,3.18004 0,1.75538 1.424659,3.18004 3.180044,3.18004 1.755383,0 3.180042,-1.42466 3.180042,-3.18004 0,-1.75538 -1.424659,-3.18004 -3.180042,-3.18004 z" />
  </g>
</svg>
