<?xml version="1.0" encoding="UTF-8" standalone="no"?>
<!-- Created with Inkscape (http://www.inkscape.org/) -->

<svg
   height="180"
   id="svg118"
   inkscape:output_extension="org.inkscape.output.svg.inkscape"
   inkscape:version="1.3 (0e150ed6c4, 2023-07-21)"
   sodipodi:docname="1.33.svg"
   sodipodi:version="0.32"
   version="1.0"
   width="200"
   xmlns:inkscape="http://www.inkscape.org/namespaces/inkscape"
   xmlns:sodipodi="http://sodipodi.sourceforge.net/DTD/sodipodi-0.dtd"
   xmlns="http://www.w3.org/2000/svg"
   xmlns:svg="http://www.w3.org/2000/svg"
   xmlns:rdf="http://www.w3.org/1999/02/22-rdf-syntax-ns#"
   xmlns:cc="http://creativecommons.org/ns#"
   xmlns:dc="http://purl.org/dc/elements/1.1/">
  <title
     id="title1">Попереджувальні знаки » Дорожні знаки » ПДР Тест Центр</title>
  <metadata
     id="metadata118">
    <rdf:RDF>
      <cc:Work
         rdf:about="">
        <dc:format>&#10;					image/svg+xml&#10;				</dc:format>
        <dc:type
           rdf:resource="http://purl.org/dc/dcmitype/StillImage" />
        <dc:title>Попереджувальні знаки » Дорожні знаки » ПДР Тест Центр</dc:title>
        <cc:license
           rdf:resource="http://creativecommons.org/licenses/by-nc-sa/4.0/" />
        <dc:creator>
          <cc:Agent>
            <dc:title>ПДР Тест Центр | PDR Test Center</dc:title>
          </cc:Agent>
        </dc:creator>
        <dc:rights>
          <cc:Agent>
            <dc:title>ПДР Тест Центр | PDR Test Center</dc:title>
          </cc:Agent>
        </dc:rights>
        <dc:language>uk-UA</dc:language>
        <dc:date>2023-09-01</dc:date>
        <dc:publisher>
          <cc:Agent>
            <dc:title>https://pdrtest.com/</dc:title>
          </cc:Agent>
        </dc:publisher>
        <dc:source>https://pdrtest.com/driver/rules/section/33.1</dc:source>
      </cc:Work>
      <cc:License
         rdf:about="http://creativecommons.org/licenses/by-nc-sa/4.0/">
        <cc:permits
           rdf:resource="http://creativecommons.org/ns#Reproduction" />
        <cc:permits
           rdf:resource="http://creativecommons.org/ns#Distribution" />
        <cc:requires
           rdf:resource="http://creativecommons.org/ns#Notice" />
        <cc:requires
           rdf:resource="http://creativecommons.org/ns#Attribution" />
        <cc:prohibits
           rdf:resource="http://creativecommons.org/ns#CommercialUse" />
        <cc:permits
           rdf:resource="http://creativecommons.org/ns#DerivativeWorks" />
        <cc:requires
           rdf:resource="http://creativecommons.org/ns#ShareAlike" />
      </cc:License>
    </rdf:RDF>
  </metadata>
  <defs
     id="defs118">
    <inkscape:perspective
       id="perspective118"
       inkscape:persp3d-origin="372.04724 : 363.4844 : 1"
       inkscape:vp_x="0 : 538.8781 : 1"
       inkscape:vp_y="0 : 1000 : 0"
       inkscape:vp_z="744.09448 : 538.8781 : 1"
       sodipodi:type="inkscape:persp3d" />
    <inkscape:perspective
       id="perspective126"
       inkscape:persp3d-origin="372.04724 : 363.4844 : 1"
       inkscape:vp_x="0 : 538.8781 : 1"
       inkscape:vp_y="0 : 1000 : 0"
       inkscape:vp_z="744.09448 : 538.8781 : 1"
       sodipodi:type="inkscape:persp3d" />
    <inkscape:perspective
       id="perspective124"
       inkscape:persp3d-origin="372.04724 : 363.4844 : 1"
       inkscape:vp_x="0 : 538.8781 : 1"
       inkscape:vp_y="0 : 1000 : 0"
       inkscape:vp_z="744.09448 : 538.8781 : 1"
       sodipodi:type="inkscape:persp3d" />
    <inkscape:perspective
       id="perspective120"
       inkscape:persp3d-origin="372.04724 : 363.4844 : 1"
       inkscape:vp_x="0 : 538.8781 : 1"
       inkscape:vp_y="0 : 1000 : 0"
       inkscape:vp_z="744.09448 : 538.8781 : 1"
       sodipodi:type="inkscape:persp3d" />
    <inkscape:perspective
       id="perspective114"
       inkscape:persp3d-origin="372.04724 : 363.4844 : 1"
       inkscape:vp_x="0 : 538.8781 : 1"
       inkscape:vp_y="0 : 1000 : 0"
       inkscape:vp_z="744.09448 : 538.8781 : 1"
       sodipodi:type="inkscape:persp3d" />
    <inkscape:perspective
       id="perspective137"
       inkscape:persp3d-origin="372.04724 : 363.4844 : 1"
       inkscape:vp_x="0 : 538.8781 : 1"
       inkscape:vp_y="0 : 1000 : 0"
       inkscape:vp_z="744.09448 : 538.8781 : 1"
       sodipodi:type="inkscape:persp3d" />
    <inkscape:perspective
       id="perspective122"
       inkscape:persp3d-origin="372.04724 : 363.4844 : 1"
       inkscape:vp_x="0 : 538.8781 : 1"
       inkscape:vp_y="0 : 1000 : 0"
       inkscape:vp_z="744.09448 : 538.8781 : 1"
       sodipodi:type="inkscape:persp3d" />
    <inkscape:perspective
       id="perspective123"
       inkscape:persp3d-origin="372.04724 : 363.4844 : 1"
       inkscape:vp_x="0 : 538.8781 : 1"
       inkscape:vp_y="0 : 1000 : 0"
       inkscape:vp_z="744.09448 : 538.8781 : 1"
       sodipodi:type="inkscape:persp3d" />
    <inkscape:perspective
       id="perspective108"
       inkscape:persp3d-origin="372.04724 : 363.4844 : 1"
       inkscape:vp_x="0 : 538.8781 : 1"
       inkscape:vp_y="0 : 1000 : 0"
       inkscape:vp_z="744.09448 : 538.8781 : 1"
       sodipodi:type="inkscape:persp3d" />
    <inkscape:perspective
       id="perspective142"
       inkscape:persp3d-origin="372.04724 : 363.4844 : 1"
       inkscape:vp_x="0 : 538.8781 : 1"
       inkscape:vp_y="0 : 1000 : 0"
       inkscape:vp_z="744.09448 : 538.8781 : 1"
       sodipodi:type="inkscape:persp3d" />
    <inkscape:perspective
       id="perspective138"
       inkscape:persp3d-origin="372.04724 : 363.4844 : 1"
       inkscape:vp_x="0 : 538.8781 : 1"
       inkscape:vp_y="0 : 1000 : 0"
       inkscape:vp_z="744.09448 : 538.8781 : 1"
       sodipodi:type="inkscape:persp3d" />
    <inkscape:perspective
       id="perspective136"
       inkscape:persp3d-origin="372.04724 : 363.4844 : 1"
       inkscape:vp_x="0 : 538.8781 : 1"
       inkscape:vp_y="0 : 1000 : 0"
       inkscape:vp_z="744.09448 : 538.8781 : 1"
       sodipodi:type="inkscape:persp3d" />
    <inkscape:perspective
       id="perspective135"
       inkscape:persp3d-origin="372.04724 : 363.4844 : 1"
       inkscape:vp_x="0 : 538.8781 : 1"
       inkscape:vp_y="0 : 1000 : 0"
       inkscape:vp_z="744.09448 : 538.8781 : 1"
       sodipodi:type="inkscape:persp3d" />
    <inkscape:perspective
       id="perspective134"
       inkscape:persp3d-origin="372.04724 : 363.4844 : 1"
       inkscape:vp_x="0 : 538.8781 : 1"
       inkscape:vp_y="0 : 1000 : 0"
       inkscape:vp_z="744.09448 : 538.8781 : 1"
       sodipodi:type="inkscape:persp3d" />
    <inkscape:perspective
       id="perspective133"
       inkscape:persp3d-origin="372.04724 : 363.4844 : 1"
       inkscape:vp_x="0 : 538.8781 : 1"
       inkscape:vp_y="0 : 1000 : 0"
       inkscape:vp_z="744.09448 : 538.8781 : 1"
       sodipodi:type="inkscape:persp3d" />
    <inkscape:perspective
       id="perspective132"
       inkscape:persp3d-origin="372.04724 : 363.4844 : 1"
       inkscape:vp_x="0 : 538.8781 : 1"
       inkscape:vp_y="0 : 1000 : 0"
       inkscape:vp_z="744.09448 : 538.8781 : 1"
       sodipodi:type="inkscape:persp3d" />
    <inkscape:perspective
       id="perspective131"
       inkscape:persp3d-origin="372.04724 : 363.4844 : 1"
       inkscape:vp_x="0 : 538.8781 : 1"
       inkscape:vp_y="0 : 1000 : 0"
       inkscape:vp_z="744.09448 : 538.8781 : 1"
       sodipodi:type="inkscape:persp3d" />
    <inkscape:perspective
       id="perspective130"
       inkscape:persp3d-origin="372.04724 : 363.4844 : 1"
       inkscape:vp_x="0 : 538.8781 : 1"
       inkscape:vp_y="0 : 1000 : 0"
       inkscape:vp_z="744.09448 : 538.8781 : 1"
       sodipodi:type="inkscape:persp3d" />
    <inkscape:perspective
       id="perspective129"
       inkscape:persp3d-origin="372.04724 : 363.4844 : 1"
       inkscape:vp_x="0 : 538.8781 : 1"
       inkscape:vp_y="0 : 1000 : 0"
       inkscape:vp_z="744.09448 : 538.8781 : 1"
       sodipodi:type="inkscape:persp3d" />
    <inkscape:perspective
       id="perspective128"
       inkscape:persp3d-origin="372.04724 : 363.4844 : 1"
       inkscape:vp_x="0 : 538.8781 : 1"
       inkscape:vp_y="0 : 1000 : 0"
       inkscape:vp_z="744.09448 : 538.8781 : 1"
       sodipodi:type="inkscape:persp3d" />
  </defs>
  <sodipodi:namedview
     bordercolor="#666666"
     borderopacity="1.0"
     gridtolerance="10.0"
     guidetolerance="10.0"
     id="base"
     inkscape:current-layer="svg118"
     inkscape:cx="229.99999"
     inkscape:cy="134.25"
     inkscape:guide-bbox="true"
     inkscape:pageopacity="0.0"
     inkscape:pageshadow="2"
     inkscape:window-height="1009"
     inkscape:window-width="1920"
     inkscape:zoom="2.0000001"
     objecttolerance="10.0"
     pagecolor="#ffffff"
     showgrid="false"
     showguides="false"
     inkscape:showpageshadow="2"
     inkscape:pagecheckerboard="0"
     inkscape:deskcolor="#d1d1d1"
     inkscape:window-x="-8"
     inkscape:window-y="-8"
     inkscape:window-maximized="1" />
  <g
     id="g2466"
     transform="translate(5.0004943,6.3485372)"
     inkscape:label="sign_1_33"
     style="display:inline;opacity:1">
    <path
       d="m 57.46875,418.03125 c -1.883686,0.0753 -3.601781,1.10257 -4.5625,2.71875 L 15.9375,483.28125 c -1.006793,1.70576 -1.04188,3.80972 -0.0625,5.53125 0.979379,1.72154 2.826523,2.79626 4.8125,2.8125 l 72.84375,0.65625 c 1.982181,0.0143 3.805134,-1.04899 4.8125,-2.75 1.007362,-1.70103 1.034158,-3.80974 0.0625,-5.53125 L 62.5625,420.84375 c -1.028602,-1.80976 -3.008268,-2.90029 -5.09375,-2.8125 z"
       id="path3752"
       sodipodi:nodetypes="cccsccsccc"
       style="opacity:1;fill:#ffffff;fill-opacity:1;fill-rule:nonzero;stroke:#000000;stroke-width:0.88378;stroke-linecap:round;stroke-linejoin:miter;stroke-miterlimit:4;stroke-dasharray:none;stroke-opacity:1"
       transform="matrix(-2.2629143,-0.02038013,-0.02038015,2.2629159,234.21413,-944.78192)"
       inkscape:label="bg" />
    <path
       d="m 57.552125,420.06442 c -1.184997,0.0609 -2.258724,0.71449 -2.853712,1.73708 l -37.007664,62.51241 c -0.630652,1.07453 -0.639702,2.40213 -0.02376,3.4851 0.615946,1.08296 1.763843,1.7577 3.013359,1.77126 l 72.860258,0.65423 c 1.25172,0.009 2.41356,-0.64652 3.04863,-1.72097 0.63508,-1.07445 0.6471,-2.4046 0.03156,-3.49028 L 60.768214,421.84662 c -0.647874,-1.1516 -1.892111,-1.8411 -3.216089,-1.7822 z m 0.09059,10.49017 29.896031,52.63134 -60.720652,-0.54143 z"
       id="path3668"
       style="opacity:1;fill:#ff0000;fill-opacity:1;stroke:none;stroke-width:9.67739;stroke-linecap:round;stroke-linejoin:round;stroke-miterlimit:4;stroke-dasharray:none;stroke-opacity:1"
       transform="matrix(-2.2629143,-0.02038013,-0.02038015,2.2629159,234.21413,-944.78192)"
       inkscape:label="red" />
    <path
       id="_43777400"
       style="display:inline;opacity:1;fill:#000000;fill-rule:evenodd"
       inkscape:label="sign"
       d="m 261.34123,-31.738522 c -0.1464,-0.0027 -0.3188,0.01485 -0.46892,0.03108 -0.5845,0.06493 -1.22999,0.299185 -1.78151,0.656299 -1.68855,1.103678 -2.15993,3.196714 -1.21845,4.625169 0.6493,0.973946 1.79876,1.475305 2.99996,1.312597 0.58424,-0.09688 1.13534,-0.297798 1.68737,-0.687377 1.68816,-1.103806 2.22248,-3.195199 1.28152,-4.656247 -0.56813,-0.795278 -1.47516,-1.262879 -2.49997,-1.281519 z m 3.52006,5.081287 c -0.10035,6.5e-5 -0.1919,0.0049 -0.27056,0.0128 -0.47197,0.04715 -0.66235,0.255734 -0.90584,0.718455 l -1.37475,2.031052 c -0.19492,0.324649 -0.002,0.921632 0.0622,1.343676 l 3.21843,6.625142 c 0.0973,0.357114 0.10883,0.986562 -0.28062,1.343676 l -3.93779,2.499967 c -0.16219,0.129859 -0.3378,0.305332 -0.5,0.499994 -0.42166,0.55203 -0.68737,1.440192 -0.68737,2.2193492 l 0.0622,1.9369036 c -0.0649,0 -0.21695,0.06307 -0.24954,0.06307 l -1.34367,0.7806115 c -0.45439,0.2595907 -0.86047,0.3306684 -1.25044,-0.1563051 l -1.62521,-2.3125842 -0.53107,0.3126102 -1.99998,1.2504408 1.99998,2.6562726 0.59414,0.7495332 c 0.71423,0.9088891 2.22543,0.9484823 2.87473,0.6562986 l 1.59413,-0.9058383 v 2.3125842 c 0,0.4543806 0.20503,0.925006 0.56215,1.24952675 0.38946,0.32477668 0.88917,0.50263903 1.34368,0.43783709 0.87641,-0.0649299 1.59413,-1.06265224 1.59413,-1.90673944 v -5.7805465 c 0,-0.5194374 0.20365,-1.3683892 0.59323,-1.563051 l 6.1873,-4.1873312 c 0.84358,-0.519565 0.9945,-1.947788 0.31261,-3.343649 l -3.28058,-6.125149 1.59322,0.125227 c 0.19416,0 0.71572,0.399953 0.8126,0.56215 l 2.28151,4.719317 0.31261,0.593228 c 0.45401,0.746564 1.38175,0.819882 2.03105,0.62522 0.61618,-0.227381 1.04298,-1.2593 0.71845,-1.843669 l -3.06211,-6.062992 v -0.09323 c -0.22724,-0.324521 -0.4976,-1.089975 -1.40675,-1.18737 l -5.71839,-0.843682 c -0.11369,-0.0081 -0.22323,-0.01286 -0.32358,-0.0128 z m -9.20829,0.387564 c -0.13716,0.0096 -0.26817,0.0217 -0.40584,0.06216 -0.35711,0.129988 -0.77248,0.3626 -0.99999,0.687377 l -5.43777,8.625116 c -0.19479,0.357113 -0.0682,0.770746 0.0941,1.063058 l 2.1252,4.405793 c 0.0649,0.324521 0.10652,0.930425 -0.25046,1.125214 l -3.2495,2.0932083 c -0.0323,0 -0.2092,0.2091965 -0.46891,0.4689153 -0.22725,0.2598467 -0.49561,0.6117951 -0.62522,0.9689088 l -1.71844,4.6873248 c -0.22713,0.7142273 -0.0666,1.70744566 0.87476,2.03196634 0.58436,0.16232483 1.14438,-0.04813049 1.4689,-0.4378371 0.16219,-0.1946618 0.27863,-0.39796659 0.34369,-0.62522044 l 1.4689,-3.9377916 c 0.0974,-0.3576246 0.51613,-0.9310248 0.90584,-1.0932216 l 5.40669,-3.4377982 c 0,0 0.77554,-0.7449326 0.67641,-1.9067396 l -0.12431,-0.623392 -2.70838,-5.62607 2.21844,-3.281493 1.90674,-2.811663 c 0.12623,-0.186243 0.24518,-1.669307 -0.46892,-2.156279 -0.2431,-0.194738 -0.61893,-0.310182 -1.03106,-0.281532 z m -7.44414,1.808934 c -0.0598,-5.76e-4 -0.11977,9.12e-4 -0.18007,0.0037 -0.32161,0.01464 -0.64429,0.07388 -0.96891,0.187384 -0.25959,0.09778 -0.55302,0.212313 -0.81261,0.374766 -1.42845,1.038876 -1.94021,2.824682 -1.03106,4.156253 0.42204,0.616833 1.09698,0.996869 1.84367,1.094136 0.74669,0.09714 1.53541,-0.0747 2.24951,-0.594142 1.49351,-0.974457 1.96904,-2.76165 1.12522,-4.125175 -0.50219,-0.707633 -1.32929,-1.088238 -2.22575,-1.096878 z m 13.66344,3.659916 -0.99999,1.468902 -0.99998,1.593215 -2.84366,-1.281519 c -0.84423,-0.1953 -1.4244,0.04688 -1.78151,0.468916 -0.0974,0.09752 -0.18461,0.213828 -0.24954,0.343688 -0.42255,0.584496 -0.23756,1.359469 0.24954,1.781513 0.12985,0.09752 0.24443,0.185868 0.40676,0.218461 l 3.74949,1.468902 c 0.51957,0.194789 1.04724,0.102028 1.4689,-0.125226 0.42179,-0.194661 0.80746,-0.461382 0.93783,-0.656299 l 1.46799,-2.31167 z m -18.81237,5.187318 c -0.30027,-0.0081 -0.59875,0.07098 -0.87476,0.24954 -0.42204,0.486973 -0.96931,1.533427 -0.12523,2.312584 l 2.03105,2.094123 c 0.7793,0.909017 2.01451,0.761099 2.46889,0.468915 l 0.5,-0.343688 2.34366,-1.750434 -1.21845,-2.46889 -1.12521,0.781526 -1.34368,0.905838 -1.78151,-1.936903 c -0.27589,-0.211022 -0.57449,-0.304495 -0.87476,-0.312611 z m 29.0307,1.937818 -2.99996,1.936904 3.12519,4.1873309 c 0.0323,0.06493 0.0618,0.1239681 0.0941,0.1563051 0.9415,0.974074 2.56323,1.0174445 3.37472,0.563064 l 3.03104,-1.6252075 c 0.9733,-0.4545085 1.35762,-1.7235835 0.99999,-2.4378115 -0.22725,-0.714227 -1.1377,-1.240666 -2.46889,-0.656298 l -1.62429,0.906752 c -0.58437,0.292184 -1.11053,0.364519 -1.49998,-0.187383 l -1.81259,-2.437811 z"
       transform="matrix(2.1367465,0,0,2.1367465,-459.80101,140.38664)" />
  </g>
</svg>
