<?xml version="1.0" encoding="UTF-8" standalone="no"?>
<!-- Created with Inkscape (http://www.inkscape.org/) -->

<svg
   height="180"
   id="svg118"
   inkscape:output_extension="org.inkscape.output.svg.inkscape"
   inkscape:version="1.3 (0e150ed6c4, 2023-07-21)"
   sodipodi:docname="1.34.svg"
   sodipodi:version="0.32"
   version="1.0"
   width="200"
   xmlns:inkscape="http://www.inkscape.org/namespaces/inkscape"
   xmlns:sodipodi="http://sodipodi.sourceforge.net/DTD/sodipodi-0.dtd"
   xmlns="http://www.w3.org/2000/svg"
   xmlns:svg="http://www.w3.org/2000/svg"
   xmlns:rdf="http://www.w3.org/1999/02/22-rdf-syntax-ns#"
   xmlns:cc="http://creativecommons.org/ns#"
   xmlns:dc="http://purl.org/dc/elements/1.1/">
  <title
     id="title1">Попереджувальні знаки » Дорожні знаки » ПДР Тест Центр</title>
  <metadata
     id="metadata118">
    <rdf:RDF>
      <cc:Work
         rdf:about="">
        <dc:format>&#10;					image/svg+xml&#10;				</dc:format>
        <dc:type
           rdf:resource="http://purl.org/dc/dcmitype/StillImage" />
        <dc:title>Попереджувальні знаки » Дорожні знаки » ПДР Тест Центр</dc:title>
        <cc:license
           rdf:resource="http://creativecommons.org/licenses/by-nc-sa/4.0/" />
        <dc:creator>
          <cc:Agent>
            <dc:title>ПДР Тест Центр | PDR Test Center</dc:title>
          </cc:Agent>
        </dc:creator>
        <dc:rights>
          <cc:Agent>
            <dc:title>ПДР Тест Центр | PDR Test Center</dc:title>
          </cc:Agent>
        </dc:rights>
        <dc:language>uk-UA</dc:language>
        <dc:date>2023-09-01</dc:date>
        <dc:publisher>
          <cc:Agent>
            <dc:title>https://pdrtest.com/</dc:title>
          </cc:Agent>
        </dc:publisher>
        <dc:source>https://pdrtest.com/driver/rules/section/33.1</dc:source>
      </cc:Work>
      <cc:License
         rdf:about="http://creativecommons.org/licenses/by-nc-sa/4.0/">
        <cc:permits
           rdf:resource="http://creativecommons.org/ns#Reproduction" />
        <cc:permits
           rdf:resource="http://creativecommons.org/ns#Distribution" />
        <cc:requires
           rdf:resource="http://creativecommons.org/ns#Notice" />
        <cc:requires
           rdf:resource="http://creativecommons.org/ns#Attribution" />
        <cc:prohibits
           rdf:resource="http://creativecommons.org/ns#CommercialUse" />
        <cc:permits
           rdf:resource="http://creativecommons.org/ns#DerivativeWorks" />
        <cc:requires
           rdf:resource="http://creativecommons.org/ns#ShareAlike" />
      </cc:License>
    </rdf:RDF>
  </metadata>
  <defs
     id="defs118">
    <inkscape:perspective
       id="perspective118"
       inkscape:persp3d-origin="372.04724 : 363.47921 : 1"
       inkscape:vp_x="0 : 538.87291 : 1"
       inkscape:vp_y="0 : 1000 : 0"
       inkscape:vp_z="744.09448 : 538.87291 : 1"
       sodipodi:type="inkscape:persp3d" />
    <inkscape:perspective
       id="perspective126"
       inkscape:persp3d-origin="372.04724 : 363.47921 : 1"
       inkscape:vp_x="0 : 538.87291 : 1"
       inkscape:vp_y="0 : 1000 : 0"
       inkscape:vp_z="744.09448 : 538.87291 : 1"
       sodipodi:type="inkscape:persp3d" />
    <inkscape:perspective
       id="perspective124"
       inkscape:persp3d-origin="372.04724 : 363.47921 : 1"
       inkscape:vp_x="0 : 538.87291 : 1"
       inkscape:vp_y="0 : 1000 : 0"
       inkscape:vp_z="744.09448 : 538.87291 : 1"
       sodipodi:type="inkscape:persp3d" />
    <inkscape:perspective
       id="perspective120"
       inkscape:persp3d-origin="372.04724 : 363.47921 : 1"
       inkscape:vp_x="0 : 538.87291 : 1"
       inkscape:vp_y="0 : 1000 : 0"
       inkscape:vp_z="744.09448 : 538.87291 : 1"
       sodipodi:type="inkscape:persp3d" />
    <inkscape:perspective
       id="perspective114"
       inkscape:persp3d-origin="372.04724 : 363.47921 : 1"
       inkscape:vp_x="0 : 538.87291 : 1"
       inkscape:vp_y="0 : 1000 : 0"
       inkscape:vp_z="744.09448 : 538.87291 : 1"
       sodipodi:type="inkscape:persp3d" />
    <inkscape:perspective
       id="perspective137"
       inkscape:persp3d-origin="372.04724 : 363.47921 : 1"
       inkscape:vp_x="0 : 538.87291 : 1"
       inkscape:vp_y="0 : 1000 : 0"
       inkscape:vp_z="744.09448 : 538.87291 : 1"
       sodipodi:type="inkscape:persp3d" />
    <inkscape:perspective
       id="perspective122"
       inkscape:persp3d-origin="372.04724 : 363.47921 : 1"
       inkscape:vp_x="0 : 538.87291 : 1"
       inkscape:vp_y="0 : 1000 : 0"
       inkscape:vp_z="744.09448 : 538.87291 : 1"
       sodipodi:type="inkscape:persp3d" />
    <inkscape:perspective
       id="perspective123"
       inkscape:persp3d-origin="372.04724 : 363.47921 : 1"
       inkscape:vp_x="0 : 538.87291 : 1"
       inkscape:vp_y="0 : 1000 : 0"
       inkscape:vp_z="744.09448 : 538.87291 : 1"
       sodipodi:type="inkscape:persp3d" />
    <inkscape:perspective
       id="perspective108"
       inkscape:persp3d-origin="372.04724 : 363.47921 : 1"
       inkscape:vp_x="0 : 538.87291 : 1"
       inkscape:vp_y="0 : 1000 : 0"
       inkscape:vp_z="744.09448 : 538.87291 : 1"
       sodipodi:type="inkscape:persp3d" />
    <inkscape:perspective
       id="perspective142"
       inkscape:persp3d-origin="372.04724 : 363.47921 : 1"
       inkscape:vp_x="0 : 538.87291 : 1"
       inkscape:vp_y="0 : 1000 : 0"
       inkscape:vp_z="744.09448 : 538.87291 : 1"
       sodipodi:type="inkscape:persp3d" />
    <inkscape:perspective
       id="perspective138"
       inkscape:persp3d-origin="372.04724 : 363.47921 : 1"
       inkscape:vp_x="0 : 538.87291 : 1"
       inkscape:vp_y="0 : 1000 : 0"
       inkscape:vp_z="744.09448 : 538.87291 : 1"
       sodipodi:type="inkscape:persp3d" />
    <inkscape:perspective
       id="perspective136"
       inkscape:persp3d-origin="372.04724 : 363.47921 : 1"
       inkscape:vp_x="0 : 538.87291 : 1"
       inkscape:vp_y="0 : 1000 : 0"
       inkscape:vp_z="744.09448 : 538.87291 : 1"
       sodipodi:type="inkscape:persp3d" />
    <inkscape:perspective
       id="perspective135"
       inkscape:persp3d-origin="372.04724 : 363.47921 : 1"
       inkscape:vp_x="0 : 538.87291 : 1"
       inkscape:vp_y="0 : 1000 : 0"
       inkscape:vp_z="744.09448 : 538.87291 : 1"
       sodipodi:type="inkscape:persp3d" />
    <inkscape:perspective
       id="perspective134"
       inkscape:persp3d-origin="372.04724 : 363.47921 : 1"
       inkscape:vp_x="0 : 538.87291 : 1"
       inkscape:vp_y="0 : 1000 : 0"
       inkscape:vp_z="744.09448 : 538.87291 : 1"
       sodipodi:type="inkscape:persp3d" />
    <inkscape:perspective
       id="perspective133"
       inkscape:persp3d-origin="372.04724 : 363.47921 : 1"
       inkscape:vp_x="0 : 538.87291 : 1"
       inkscape:vp_y="0 : 1000 : 0"
       inkscape:vp_z="744.09448 : 538.87291 : 1"
       sodipodi:type="inkscape:persp3d" />
    <inkscape:perspective
       id="perspective132"
       inkscape:persp3d-origin="372.04724 : 363.47921 : 1"
       inkscape:vp_x="0 : 538.87291 : 1"
       inkscape:vp_y="0 : 1000 : 0"
       inkscape:vp_z="744.09448 : 538.87291 : 1"
       sodipodi:type="inkscape:persp3d" />
    <inkscape:perspective
       id="perspective131"
       inkscape:persp3d-origin="372.04724 : 363.47921 : 1"
       inkscape:vp_x="0 : 538.87291 : 1"
       inkscape:vp_y="0 : 1000 : 0"
       inkscape:vp_z="744.09448 : 538.87291 : 1"
       sodipodi:type="inkscape:persp3d" />
    <inkscape:perspective
       id="perspective130"
       inkscape:persp3d-origin="372.04724 : 363.47921 : 1"
       inkscape:vp_x="0 : 538.87291 : 1"
       inkscape:vp_y="0 : 1000 : 0"
       inkscape:vp_z="744.09448 : 538.87291 : 1"
       sodipodi:type="inkscape:persp3d" />
  </defs>
  <sodipodi:namedview
     bordercolor="#666666"
     borderopacity="1.0"
     gridtolerance="10.0"
     guidetolerance="10.0"
     id="base"
     inkscape:current-layer="svg118"
     inkscape:cx="179.5"
     inkscape:cy="104.75"
     inkscape:guide-bbox="true"
     inkscape:pageopacity="0.0"
     inkscape:pageshadow="2"
     inkscape:window-height="1009"
     inkscape:window-width="1920"
     inkscape:zoom="2"
     objecttolerance="10.0"
     pagecolor="#ffffff"
     showgrid="false"
     showguides="false"
     inkscape:showpageshadow="2"
     inkscape:pagecheckerboard="0"
     inkscape:deskcolor="#d1d1d1"
     inkscape:window-x="-8"
     inkscape:window-y="-8"
     inkscape:window-maximized="1" />
  <g
     id="g2412"
     transform="translate(4.997542,6.3459231)"
     inkscape:label="sign_1_34"
     style="opacity:1">
    <path
       d="m 57.46875,418.03125 c -1.883686,0.0753 -3.601781,1.10257 -4.5625,2.71875 L 15.9375,483.28125 c -1.006793,1.70576 -1.04188,3.80972 -0.0625,5.53125 0.979379,1.72154 2.826523,2.79626 4.8125,2.8125 l 72.84375,0.65625 c 1.982181,0.0143 3.805134,-1.04899 4.8125,-2.75 1.007362,-1.70103 1.034158,-3.80974 0.0625,-5.53125 L 62.5625,420.84375 c -1.028602,-1.80976 -3.008268,-2.90029 -5.09375,-2.8125 z"
       id="path3752"
       sodipodi:nodetypes="cccsccsccc"
       style="opacity:1;fill:#ffffff;fill-opacity:1;fill-rule:nonzero;stroke:#000000;stroke-width:0.883752;stroke-linecap:round;stroke-linejoin:miter;stroke-miterlimit:4;stroke-dasharray:none;stroke-opacity:1"
       transform="matrix(-2.2629845,-0.02038076,-0.02038078,2.2629861,234.2214,-944.81121)"
       inkscape:label="bg" />
    <path
       d="m 57.552125,420.06442 c -1.184997,0.0609 -2.258724,0.71449 -2.853712,1.73708 l -37.007664,62.51241 c -0.630652,1.07453 -0.639702,2.40213 -0.02376,3.4851 0.615946,1.08296 1.763843,1.7577 3.013359,1.77126 l 72.860258,0.65423 c 1.25172,0.009 2.41356,-0.64652 3.04863,-1.72097 0.63508,-1.07445 0.6471,-2.4046 0.03156,-3.49028 L 60.768214,421.84662 c -0.647874,-1.1516 -1.892111,-1.8411 -3.216089,-1.7822 z m 0.09059,10.49017 29.896031,52.63134 -60.720652,-0.54143 z"
       id="path3668"
       style="opacity:1;fill:#ff0000;fill-opacity:1;stroke:none;stroke-width:9.6775;stroke-linecap:round;stroke-linejoin:round;stroke-miterlimit:4;stroke-dasharray:none;stroke-opacity:1"
       transform="matrix(-2.2629845,-0.02038076,-0.02038078,2.2629861,234.2214,-944.81121)"
       inkscape:label="red" />
    <path
       d="m 87.112117,80.304139 c -2.635934,0.106945 -8.083883,0.141229 -10.721317,0.141229 -1.760638,0.366789 -4.095637,1.962698 -4.095637,4.236867 0,2.714305 2.758685,4.144558 4.519324,4.731166 0.660228,0.146698 1.358441,1.162009 0.917987,2.189049 l -4.731167,12.85184 c -2.054349,-0.66026 -4.290262,-1.20046 -6.637757,-1.20046 -9.903263,-2e-5 -17.794845,7.82153 -17.794845,17.72423 0,9.97806 7.891582,17.79484 17.794845,17.79484 v -0.0706 c 9.905093,-4e-5 17.724223,-7.97339 17.724223,-17.79483 4e-5,-8.01427 -5.552251,-13.00606 -7.555744,-14.54658 l 0.282458,-0.77676 c 5.183539,4.42476 12.029769,10.01749 22.031714,18.0773 h 7.343899 c 1.19622,8.67712 8.67235,15.04087 17.65362,15.04087 9.90326,-2e-5 17.72422,-7.81678 17.72422,-17.79483 -2e-5,-10.51578 -9.51878,-21.317579 -24.4326,-16.52378 -2.72433,-4.506994 -5.06875,-8.553503 -6.49652,-11.157089 l 0.56491,-1.412288 c 1.57824,0.753766 3.02314,0.645479 4.44872,-0.353072 1.65684,-1.197156 1.34167,-1.727476 1.34167,-3.5557 2e-5,-0.513531 -0.46166,-1.412288 -1.34167,-1.412288 v -0.07061 h -13.76983 c -1.88253,0.856306 -1.67657,2.252601 0,2.990782 1.76757,0.567171 3.57363,1.004749 5.36671,1.482904 l -1.05923,2.54212 H 81.263196 l 0.988602,-2.824578 c 0.14672,-1.174052 0.263996,-2.503705 -1.129831,-3.530722 -0.66025,-0.440159 -1.5052,-0.710175 -1.945652,-1.003322 -0.486568,-1.185447 -0.05924,-1.538797 1.168893,-1.538797 h 6.766909 c 1.320479,0 1.835976,-1.67554 1.835976,-2.189048 2.2e-5,0 -0.368777,-2.047819 -1.835976,-2.047819 z M 79.639064,97.74591 H 104.7072 c -2.52428,6.54483 -4.830043,13.17127 -7.20268,19.77205 -6.395158,-5.32201 -13.031257,-10.37992 -19.20713,-15.95887 0.384172,-1.30325 0.734639,-2.599113 1.341674,-3.81318 z m 29.234386,0.56492 c 1.46759,2.73532 3.03453,5.40775 4.66056,8.05004 -3.39159,2.5434 -6.97906,6.72713 -7.48514,13.2049 h -4.87239 c 2.47384,-7.11782 5.10936,-14.17798 7.69697,-21.25494 z m 28.66947,22.59662 c 2e-5,7.62941 -6.14316,13.76981 -13.6992,13.76981 -7.81034,-5e-5 -12.74345,-5.80726 -13.48736,-11.01585 h 13.48736 c 1.61389,-2e-5 2.68335,-1.21256 2.68335,-2.75396 -1.71455,-4.42851 -4.72195,-8.64816 -7.13206,-12.85184 6.68209,-2.97119 18.14791,1.95542 18.14791,12.85184 z m -71.17937,-13.6286 c 1.907381,-3e-5 3.61155,0.3965 5.225468,1.12983 -0.733789,3.9549 -2.541606,7.21608 -5.437311,9.95664 -1.467199,-3e-5 -2.471506,1.07607 -2.471506,2.54212 -2.2e-5,1.5414 1.21615,2.75396 2.683349,2.75396 1.320208,-2e-5 2.316538,-0.86975 2.683348,-2.18905 3.857599,-2.68196 4.51164,-6.76768 6.002228,-11.01585 3.174614,2.56416 4.943011,6.84351 4.943011,10.45094 0,6.61443 -5.126369,13.76981 -13.628587,13.76981 -7.62941,-2e-5 -13.699208,-6.06978 -13.699208,-13.6992 0,-7.55491 6.069798,-13.6992 13.699208,-13.6992 z m 49.2889,2.68335 v 0.14122 l 5.50792,9.46234 h -11.01586 c 0.36454,-4.72997 3.52294,-7.99699 5.50794,-9.60356 z"
       id="_143373520"
       style="fill:#000000;fill-rule:evenodd"
       inkscape:label="sign"
       sodipodi:nodetypes="ccscccssccsccccsscccccccscccccccsssccccccccccccssccscscccssccssscccccc" />
  </g>
</svg>
