<?xml version="1.0" encoding="UTF-8" standalone="no"?>
<!-- Created with Inkscape (http://www.inkscape.org/) -->

<svg
   height="180"
   id="svg118"
   inkscape:output_extension="org.inkscape.output.svg.inkscape"
   inkscape:version="1.3 (0e150ed6c4, 2023-07-21)"
   sodipodi:docname="1.36.svg"
   sodipodi:version="0.32"
   version="1.0"
   width="200"
   xmlns:inkscape="http://www.inkscape.org/namespaces/inkscape"
   xmlns:sodipodi="http://sodipodi.sourceforge.net/DTD/sodipodi-0.dtd"
   xmlns="http://www.w3.org/2000/svg"
   xmlns:svg="http://www.w3.org/2000/svg"
   xmlns:rdf="http://www.w3.org/1999/02/22-rdf-syntax-ns#"
   xmlns:cc="http://creativecommons.org/ns#"
   xmlns:dc="http://purl.org/dc/elements/1.1/">
  <title
     id="title1">Попереджувальні знаки » Дорожні знаки » ПДР Тест Центр</title>
  <metadata
     id="metadata118">
    <rdf:RDF>
      <cc:Work
         rdf:about="">
        <dc:format>&#10;					image/svg+xml&#10;				</dc:format>
        <dc:type
           rdf:resource="http://purl.org/dc/dcmitype/StillImage" />
        <dc:title>Попереджувальні знаки » Дорожні знаки » ПДР Тест Центр</dc:title>
        <cc:license
           rdf:resource="http://creativecommons.org/licenses/by-nc-sa/4.0/" />
        <dc:creator>
          <cc:Agent>
            <dc:title>ПДР Тест Центр | PDR Test Center</dc:title>
          </cc:Agent>
        </dc:creator>
        <dc:rights>
          <cc:Agent>
            <dc:title>ПДР Тест Центр | PDR Test Center</dc:title>
          </cc:Agent>
        </dc:rights>
        <dc:language>uk-UA</dc:language>
        <dc:date>2023-09-01</dc:date>
        <dc:publisher>
          <cc:Agent>
            <dc:title>https://pdrtest.com/</dc:title>
          </cc:Agent>
        </dc:publisher>
        <dc:source>https://pdrtest.com/driver/rules/section/33.1</dc:source>
      </cc:Work>
      <cc:License
         rdf:about="http://creativecommons.org/licenses/by-nc-sa/4.0/">
        <cc:permits
           rdf:resource="http://creativecommons.org/ns#Reproduction" />
        <cc:permits
           rdf:resource="http://creativecommons.org/ns#Distribution" />
        <cc:requires
           rdf:resource="http://creativecommons.org/ns#Notice" />
        <cc:requires
           rdf:resource="http://creativecommons.org/ns#Attribution" />
        <cc:prohibits
           rdf:resource="http://creativecommons.org/ns#CommercialUse" />
        <cc:permits
           rdf:resource="http://creativecommons.org/ns#DerivativeWorks" />
        <cc:requires
           rdf:resource="http://creativecommons.org/ns#ShareAlike" />
      </cc:License>
    </rdf:RDF>
  </metadata>
  <defs
     id="defs118">
    <inkscape:perspective
       id="perspective118"
       inkscape:persp3d-origin="372.04724 : 363.47921 : 1"
       inkscape:vp_x="0 : 538.87291 : 1"
       inkscape:vp_y="0 : 1000 : 0"
       inkscape:vp_z="744.09448 : 538.87291 : 1"
       sodipodi:type="inkscape:persp3d" />
    <inkscape:perspective
       id="perspective126"
       inkscape:persp3d-origin="372.04724 : 363.47921 : 1"
       inkscape:vp_x="0 : 538.87291 : 1"
       inkscape:vp_y="0 : 1000 : 0"
       inkscape:vp_z="744.09448 : 538.87291 : 1"
       sodipodi:type="inkscape:persp3d" />
    <inkscape:perspective
       id="perspective124"
       inkscape:persp3d-origin="372.04724 : 363.47921 : 1"
       inkscape:vp_x="0 : 538.87291 : 1"
       inkscape:vp_y="0 : 1000 : 0"
       inkscape:vp_z="744.09448 : 538.87291 : 1"
       sodipodi:type="inkscape:persp3d" />
    <inkscape:perspective
       id="perspective120"
       inkscape:persp3d-origin="372.04724 : 363.47921 : 1"
       inkscape:vp_x="0 : 538.87291 : 1"
       inkscape:vp_y="0 : 1000 : 0"
       inkscape:vp_z="744.09448 : 538.87291 : 1"
       sodipodi:type="inkscape:persp3d" />
    <inkscape:perspective
       id="perspective114"
       inkscape:persp3d-origin="372.04724 : 363.47921 : 1"
       inkscape:vp_x="0 : 538.87291 : 1"
       inkscape:vp_y="0 : 1000 : 0"
       inkscape:vp_z="744.09448 : 538.87291 : 1"
       sodipodi:type="inkscape:persp3d" />
    <inkscape:perspective
       id="perspective137"
       inkscape:persp3d-origin="372.04724 : 363.47921 : 1"
       inkscape:vp_x="0 : 538.87291 : 1"
       inkscape:vp_y="0 : 1000 : 0"
       inkscape:vp_z="744.09448 : 538.87291 : 1"
       sodipodi:type="inkscape:persp3d" />
    <inkscape:perspective
       id="perspective122"
       inkscape:persp3d-origin="372.04724 : 363.47921 : 1"
       inkscape:vp_x="0 : 538.87291 : 1"
       inkscape:vp_y="0 : 1000 : 0"
       inkscape:vp_z="744.09448 : 538.87291 : 1"
       sodipodi:type="inkscape:persp3d" />
    <inkscape:perspective
       id="perspective123"
       inkscape:persp3d-origin="372.04724 : 363.47921 : 1"
       inkscape:vp_x="0 : 538.87291 : 1"
       inkscape:vp_y="0 : 1000 : 0"
       inkscape:vp_z="744.09448 : 538.87291 : 1"
       sodipodi:type="inkscape:persp3d" />
    <inkscape:perspective
       id="perspective108"
       inkscape:persp3d-origin="372.04724 : 363.47921 : 1"
       inkscape:vp_x="0 : 538.87291 : 1"
       inkscape:vp_y="0 : 1000 : 0"
       inkscape:vp_z="744.09448 : 538.87291 : 1"
       sodipodi:type="inkscape:persp3d" />
    <inkscape:perspective
       id="perspective142"
       inkscape:persp3d-origin="372.04724 : 363.47921 : 1"
       inkscape:vp_x="0 : 538.87291 : 1"
       inkscape:vp_y="0 : 1000 : 0"
       inkscape:vp_z="744.09448 : 538.87291 : 1"
       sodipodi:type="inkscape:persp3d" />
    <inkscape:perspective
       id="perspective138"
       inkscape:persp3d-origin="372.04724 : 363.47921 : 1"
       inkscape:vp_x="0 : 538.87291 : 1"
       inkscape:vp_y="0 : 1000 : 0"
       inkscape:vp_z="744.09448 : 538.87291 : 1"
       sodipodi:type="inkscape:persp3d" />
    <inkscape:perspective
       id="perspective136"
       inkscape:persp3d-origin="372.04724 : 363.47921 : 1"
       inkscape:vp_x="0 : 538.87291 : 1"
       inkscape:vp_y="0 : 1000 : 0"
       inkscape:vp_z="744.09448 : 538.87291 : 1"
       sodipodi:type="inkscape:persp3d" />
    <inkscape:perspective
       id="perspective135"
       inkscape:persp3d-origin="372.04724 : 363.47921 : 1"
       inkscape:vp_x="0 : 538.87291 : 1"
       inkscape:vp_y="0 : 1000 : 0"
       inkscape:vp_z="744.09448 : 538.87291 : 1"
       sodipodi:type="inkscape:persp3d" />
    <inkscape:perspective
       id="perspective134"
       inkscape:persp3d-origin="372.04724 : 363.47921 : 1"
       inkscape:vp_x="0 : 538.87291 : 1"
       inkscape:vp_y="0 : 1000 : 0"
       inkscape:vp_z="744.09448 : 538.87291 : 1"
       sodipodi:type="inkscape:persp3d" />
    <inkscape:perspective
       id="perspective2425"
       inkscape:persp3d-origin="372.04724 : 363.47921 : 1"
       inkscape:vp_x="0 : 538.87291 : 1"
       inkscape:vp_y="0 : 1000 : 0"
       inkscape:vp_z="744.09448 : 538.87291 : 1"
       sodipodi:type="inkscape:persp3d" />
  </defs>
  <sodipodi:namedview
     bordercolor="#666666"
     borderopacity="1.0"
     gridtolerance="10.0"
     guidetolerance="10.0"
     id="base"
     inkscape:current-layer="svg118"
     inkscape:cx="84.170253"
     inkscape:cy="123.29899"
     inkscape:guide-bbox="true"
     inkscape:pageopacity="0.0"
     inkscape:pageshadow="2"
     inkscape:window-height="1009"
     inkscape:window-width="1920"
     inkscape:zoom="2.875125"
     objecttolerance="10.0"
     pagecolor="#ffffff"
     showgrid="false"
     showguides="false"
     inkscape:showpageshadow="2"
     inkscape:pagecheckerboard="0"
     inkscape:deskcolor="#d1d1d1"
     inkscape:window-x="-8"
     inkscape:window-y="-8"
     inkscape:window-maximized="1" />
  <g
     id="g2439"
     transform="translate(4.99754,6.3459222)"
     inkscape:label="sign_1_36"
     style="opacity:1">
    <path
       d="M 95.650709,0.01644126 C 99.911926,0.22528032 103.77901,2.5849489 105.92017,6.2619219 L 188.30544,148.52272 c 2.24359,3.88063 2.28011,8.64258 0.0287,12.51842 -2.2514,3.87586 -6.45336,6.27029 -10.94793,6.26656 l -164.857652,4.8e-4 c -4.4859378,-0.008 -8.5895804,-2.4514 -10.8345662,-6.3213 -2.24497627,-3.86993 -2.26263805,-8.64246 -0.028705,-12.51841 L 84.06631,6.2772752 C 86.430905,2.2027771 90.933084,-0.22473 95.650709,0.01644126 Z"
       id="path3752"
       sodipodi:nodetypes="cccsccsccc"
       style="fill:#ffffff;fill-opacity:1;fill-rule:nonzero;stroke:#000000;stroke-width:2;stroke-linecap:round;stroke-linejoin:miter;stroke-miterlimit:4;stroke-dasharray:none;stroke-opacity:1"
       inkscape:label="bg" />
    <path
       d="m 95.420595,4.6157775 c 2.680388,0.1619896 5.096895,1.6629154 6.422505,3.9891487 L 184.31682,150.82389 c 1.40525,2.4445 1.39867,5.44902 -0.0173,7.88721 -1.41595,2.43817 -4.02738,3.9417 -6.85529,3.94692 l -164.894966,-0.004 c -2.8328133,-0.004 -5.4486721,-1.51226 -6.8639275,-3.95666 -1.4152781,-2.44441 -1.4153697,-5.45477 -2.852e-4,-7.8991 L 88.106313,8.5833249 c 1.489599,-2.5928506 4.31934,-4.127821 7.314282,-3.9675474 z M 95.001784,28.35304 26.274862,146.84773 l 137.420928,0.0123 z"
       id="path3668"
       style="fill:#ff0000;fill-opacity:1;stroke:none;stroke-width:9.6775;stroke-linecap:round;stroke-linejoin:round;stroke-miterlimit:4;stroke-dasharray:none;stroke-opacity:1"
       inkscape:label="red" />
    <path
       d="m 109.09468,72.358998 c -3.42279,-0.897931 -2.01783,4.939558 -7.78634,5.376804 -1.0369,-0.0027 -1.66591,-3.270466 -2.92496,-3.273769 -3.407177,-0.0089 -2.929548,2.573602 -4.70705,2.568939 -2.372174,-0.0064 -0.343764,-4.5649 -1.129514,-5.441182 -1.39242,-1.39107 -3.175131,0.917111 -3.913617,2.038242 -1.792963,3.797834 1.164272,5.784487 4.02171,7.648225 1.404246,1.114624 2.396027,2.794117 0.694447,2.641529 L 82.349613,83.595545 c -1.628573,-0.300819 -3.433059,3.889473 -1.658666,5.079425 l 5.608091,3.052109 c 3.576535,4.190891 2.532179,11.634741 2.558023,16.860891 -0.0062,2.33048 0.540926,3.44332 -0.351415,4.47786 -1.88087,1.8709 -9.969715,-5.7444 -13.203348,-0.65998 -2.294317,4.79048 -3.463662,16.25277 -2.600373,19.74274 0.700009,1.94474 5.218737,2.84164 4.997425,-1.07433 -0.13674,-4.44325 0.973155,-9.00441 2.464509,-12.85175 2.448483,-2.38135 9.433462,2.84198 12.899994,3.46891 3.255489,1.56357 5.940348,-0.82387 8.527867,0.96044 l 12.52876,10.29061 c 1.62583,1.33739 2.81012,5.23889 3.54601,7.16617 0.66055,2.29797 2.56352,3.35006 4.48488,4.98448 3.99225,2.1295 8.25763,10.57619 8.24565,15.14819 -0.003,1.18528 0.63762,2.57204 3.60091,2.28384 1.40719,0.004 3.44739,-1.814 2.93636,-4.62973 -0.43839,-2.29681 -2.01779,-4.84718 -2.45606,-7.2924 -0.29257,-1.40768 -0.62419,-3.52623 -1.3619,-4.63881 -1.03205,-1.85458 -3.59282,-2.76922 -4.32849,-4.54866 -2.4658,-4.9135 -1.68093,-8.39713 1.0893,-12.56822 2.89983,-4.36209 1.09797,-7.91177 -1.26563,-10.36205 -8.01771,-6.99184 -25.55842,-10.26988 -25.40662,-16.11961 -1.51864,-2.885477 -1.70886,-5.770949 -2.13493,-8.656421 -0.14357,-1.407862 0.48655,-3.401146 1.00635,-3.918222 1.2623,-1.255762 3.72314,-3.221105 2.83586,-3.89029 -1.40207,-1.410584 -4.00534,0.0068 -5.632578,-0.812175 -0.761409,-2.469565 0.451971,-4.291964 3.084368,-4.410991 5.92586,0.01554 7.41579,-2.238327 8.23824,-5.198393 0.69919,-1.850287 -0.39855,-2.829326 -1.50755,-3.120179 z M 89.329079,123.54251 c -1.709985,2.36583 -3.708481,6.21321 -3.716055,9.10048 -0.01947,7.40963 2.370274,5.12611 4.729156,17.18583 0.187523,0.97466 1.369147,1.46552 3.295656,1.24867 4.547157,-0.40216 -2.558992,-12.27265 -2.542929,-18.39609 0.0054,-2.07257 2.865789,-4.83842 2.87084,-6.76318 0.0051,-2.01557 -3.368654,-3.80614 -4.636668,-2.37571 z m 30.206831,20.78829 c -1.88161,0.12785 -2.4431,5.93007 -3.52783,8.33651 -0.53599,1.18904 -1.01397,0.91585 -1.62922,2.6501 -0.57044,1.60791 2.2676,3.26887 3.4357,2.74043 2.03424,-0.92027 2.68984,-2.26715 2.69353,-3.67464 0.003,-1.11094 2.06108,-3.72414 2.06341,-4.6126 2.21352,-2.25959 -0.65548,-4.60662 -3.03559,-5.4398 z"
       id="_43076888"
       sodipodi:nodetypes="ccsscccccccsccccccccccscccccccccsccscccscccscsssscsss"
       style="opacity:1;fill:#000000;fill-rule:evenodd;stroke-width:1.02737"
       inkscape:label="sign"
       transform="translate(-4.9972465,-16.34591)" />
  </g>
</svg>
