<?xml version="1.0" encoding="UTF-8" standalone="no"?>
<!-- Created with Inkscape (http://www.inkscape.org/) -->

<svg
   height="180"
   id="svg3630"
   inkscape:output_extension="org.inkscape.output.svg.inkscape"
   inkscape:version="1.3 (0e150ed6c4, 2023-07-21)"
   sodipodi:docname="1.38.svg"
   sodipodi:version="0.32"
   version="1.0"
   width="200"
   xmlns:inkscape="http://www.inkscape.org/namespaces/inkscape"
   xmlns:sodipodi="http://sodipodi.sourceforge.net/DTD/sodipodi-0.dtd"
   xmlns="http://www.w3.org/2000/svg"
   xmlns:svg="http://www.w3.org/2000/svg"
   xmlns:rdf="http://www.w3.org/1999/02/22-rdf-syntax-ns#"
   xmlns:cc="http://creativecommons.org/ns#"
   xmlns:dc="http://purl.org/dc/elements/1.1/">
  <title
     id="title1">Попереджувальні знаки » Дорожні знаки » ПДР Тест Центр</title>
  <metadata
     id="metadata3635">
    <rdf:RDF>
      <cc:Work
         rdf:about="">
        <dc:format>&#10;					image/svg+xml&#10;				</dc:format>
        <dc:type
           rdf:resource="http://purl.org/dc/dcmitype/StillImage" />
        <dc:title>Попереджувальні знаки » Дорожні знаки » ПДР Тест Центр</dc:title>
        <cc:license
           rdf:resource="http://creativecommons.org/licenses/by-nc-sa/4.0/" />
        <dc:creator>
          <cc:Agent>
            <dc:title>ПДР Тест Центр | PDR Test Center</dc:title>
          </cc:Agent>
        </dc:creator>
        <dc:rights>
          <cc:Agent>
            <dc:title>ПДР Тест Центр | PDR Test Center</dc:title>
          </cc:Agent>
        </dc:rights>
        <dc:language>uk-UA</dc:language>
        <dc:date>2023-09-01</dc:date>
        <dc:publisher>
          <cc:Agent>
            <dc:title>https://pdrtest.com/</dc:title>
          </cc:Agent>
        </dc:publisher>
        <dc:source>https://pdrtest.com/driver/rules/section/33.1</dc:source>
      </cc:Work>
      <cc:License
         rdf:about="http://creativecommons.org/licenses/by-nc-sa/4.0/">
        <cc:permits
           rdf:resource="http://creativecommons.org/ns#Reproduction" />
        <cc:permits
           rdf:resource="http://creativecommons.org/ns#Distribution" />
        <cc:requires
           rdf:resource="http://creativecommons.org/ns#Notice" />
        <cc:requires
           rdf:resource="http://creativecommons.org/ns#Attribution" />
        <cc:prohibits
           rdf:resource="http://creativecommons.org/ns#CommercialUse" />
        <cc:permits
           rdf:resource="http://creativecommons.org/ns#DerivativeWorks" />
        <cc:requires
           rdf:resource="http://creativecommons.org/ns#ShareAlike" />
      </cc:License>
    </rdf:RDF>
  </metadata>
  <defs
     id="defs3633">
    <inkscape:perspective
       id="perspective3637"
       inkscape:persp3d-origin="372.04724 : 363.4844 : 1"
       inkscape:vp_x="0 : 538.8781 : 1"
       inkscape:vp_y="0 : 1000 : 0"
       inkscape:vp_z="744.09448 : 538.8781 : 1"
       sodipodi:type="inkscape:persp3d" />
    <inkscape:perspective
       id="perspective118"
       inkscape:persp3d-origin="372.04724 : 363.4844 : 1"
       inkscape:vp_x="0 : 538.8781 : 1"
       inkscape:vp_y="0 : 1000 : 0"
       inkscape:vp_z="744.09448 : 538.8781 : 1"
       sodipodi:type="inkscape:persp3d" />
  </defs>
  <sodipodi:namedview
     bordercolor="#666666"
     borderopacity="1.0"
     gridtolerance="10.0"
     guidetolerance="10.0"
     id="base"
     inkscape:current-layer="svg3630"
     inkscape:cx="151.6744"
     inkscape:cy="123.92046"
     inkscape:pageopacity="0.0"
     inkscape:pageshadow="2"
     inkscape:window-height="1009"
     inkscape:window-width="1920"
     inkscape:zoom="2.8284271"
     objecttolerance="10.0"
     pagecolor="#ffffff"
     showgrid="false"
     inkscape:showpageshadow="2"
     inkscape:pagecheckerboard="0"
     inkscape:deskcolor="#d1d1d1"
     inkscape:window-x="-8"
     inkscape:window-y="-8"
     inkscape:window-maximized="1" />
  <g
     id="g2401"
     transform="translate(4.9999029,6.3485366)"
     inkscape:label="sign_1_38"
     style="display:inline;opacity:1">
    <path
       d="M 94.351869,0.01642178 C 90.090784,0.22525437 86.223818,2.5848497 84.082731,6.2617087 L 1.7000136,148.5181 c -2.2435226,3.88051 -2.28004247,8.64231 -0.028704,12.51802 2.2513359,3.87574 6.4531675,6.2701 10.9475934,6.26638 l 164.852537,4.7e-4 c 4.4858,-0.008 8.58931,-2.45133 10.83423,-6.3211 2.24491,-3.86982 2.26257,-8.6422 0.0287,-12.51803 L 105.93591,6.2770615 C 103.57139,2.2026898 99.069347,-0.224742 94.351869,0.01642178 Z"
       id="path3752"
       sodipodi:nodetypes="cccsccsccc"
       style="fill:#ffffff;fill-opacity:1;fill-rule:nonzero;stroke:#000000;stroke-width:2;stroke-linecap:round;stroke-linejoin:miter;stroke-miterlimit:4;stroke-dasharray:none;stroke-opacity:1"
       inkscape:label="bg" />
    <path
       d="M 94.581976,4.6156153 C 91.90167,4.7775999 89.485238,6.2784792 88.159672,8.6046403 L 5.6885116,150.81919 c -1.4052123,2.44442 -1.398635,5.44885 0.017269,7.88697 1.4159039,2.43809 4.0272477,3.94158 6.8550714,3.9468 l 164.889858,-0.004 c 2.83272,-0.004 5.4485,-1.51221 6.86371,-3.95655 1.41523,-2.44433 1.41533,-5.45459 2.9e-4,-7.89885 L 101.89603,8.5830397 C 100.40648,5.9902695 97.576824,4.4553467 94.581976,4.6156153 Z"
       id="path5135"
       sodipodi:nodetypes="cccsccsccc"
       style="fill:#ffff00;fill-opacity:1;stroke:none;stroke-width:9.6775;stroke-linecap:round;stroke-linejoin:round;stroke-miterlimit:4;stroke-dasharray:none;stroke-opacity:1"
       inkscape:label="yellow" />
    <path
       d="M 94.581976,4.6156153 C 91.90167,4.7775999 89.485238,6.2784792 88.159672,8.6046403 L 5.6885116,150.81919 c -1.4052123,2.44442 -1.398635,5.44885 0.017269,7.88697 1.4159039,2.43809 4.0272477,3.94158 6.8550714,3.9468 l 164.889858,-0.004 c 2.83272,-0.004 5.4485,-1.51221 6.86371,-3.95655 1.41523,-2.44433 1.41533,-5.45459 2.9e-4,-7.89885 L 101.89603,8.5830397 C 100.40648,5.9902695 97.576824,4.4553467 94.581976,4.6156153 Z m 0.418797,23.7365257 68.724787,118.491009 -137.416663,0.0123 z"
       id="path3668"
       style="fill:#ff0000;fill-opacity:1;stroke:none;stroke-width:9.6775;stroke-linecap:round;stroke-linejoin:round;stroke-miterlimit:4;stroke-dasharray:none;stroke-opacity:1"
       inkscape:label="red" />
    <path
       class="fil1 str0"
       d="m 112.91029,105.94786 h 8.73181 v 6.41129 c 0,1.65847 4.30092,1.65847 4.30092,0 v -6.41687 c 1.18384,-0.0709 2.12535,-0.85464 2.12535,-1.80413 v -9.04931 c 0,-0.96782 -0.97978,-1.765035 -2.19788,-1.807294 l -2.35814,-7.145548 c -0.50864,-1.541033 -0.92637,-2.949719 -2.05682,-2.949719 H 97.51945 c -1.131225,0 -1.580051,1.399127 -2.057566,2.949719 l -2.629202,8.394785 H 80.822791 c -1.28029,0 -1.788114,1.584101 -2.328637,3.338787 l -1.741096,5.65231 H 56.274463 c -1.448525,0 -2.021727,1.79218 -2.633178,3.77647 l -2.823702,9.1681 c -1.430986,0.15624 -2.541482,1.12885 -2.541482,2.29521 v 11.58527 c 0,0.9479 0.732638,1.76665 1.773775,2.12462 v 8.40036 c 0,2.12389 5.50629,2.1239 5.50629,0 v -8.20823 h 31.603635 v 8.20823 c 0,2.12429 5.506279,2.12365 5.506279,0 v -8.21461 c 1.516293,-0.0909 2.721646,-1.0954 2.721646,-2.31037 v -10.05221 h 12.740144 v 7.25636 c 0,1.8792 4.86775,1.87855 4.86775,0 v -7.26274 c 1.34089,-0.0797 2.40674,-0.96782 2.40674,-2.0417 V 108.0039 c 0,-1.09618 -1.1097,-1.99865 -2.48886,-2.04646 l -0.003,-0.01 z m -3.57625,-10.419743 c -0.34757,-0.606682 -0.78365,-0.99733 -1.41824,-0.99733 H 96.576801 l 0.993687,-7.597564 c 0.408168,-1.183083 0.791626,-2.25137 1.759436,-2.25137 h 20.471426 c 0.96781,0 1.32415,1.075466 1.75942,2.25137 l 0.46131,6.674529 c 0.43526,1.175903 -2.62792,1.920365 -3.59573,1.920365 z M 89.950794,108.50057 c -0.689284,-1.8426 -0.889193,-4.41122 -3.030976,-4.97869 H 80.39019 l 0.490821,-4.749864 c 0.462365,-1.339319 0.896052,-2.547921 1.991408,-2.547921 h 23.171551 c 1.09536,0 1.49956,1.216562 1.99143,2.547921 l 0.40357,7.279964 c 0.49188,1.33057 -2.86214,2.44859 -3.9575,2.44859 z m -5.147565,-3.06294 H 58.592732 c -1.238862,0 -1.729137,1.36724 -2.252101,2.88198 l -0.991761,8.30469 c -0.522964,1.51474 3.5675,2.6994 4.806362,2.6994 h 23.335497 c 1.238862,0 5.192703,-1.25594 4.63626,-2.7619 l -1.071635,-8.24219 c -0.556448,-1.50517 -1.013263,-2.88198 -2.252125,-2.88198 z"
       id="_145102552"
       style="fill:#000000;fill-rule:evenodd;stroke:#000000;stroke-width:0.00460631"
       inkscape:label="sign"
       sodipodi:nodetypes="ccsscssccssccsccsccsscssccsscsccsscssccccsccssccsccsccssccscssccssccs" />
  </g>
</svg>
