<?xml version="1.0" encoding="UTF-8" standalone="no"?>
<!-- Created with Inkscape (http://www.inkscape.org/) -->

<svg
   height="180"
   id="svg118"
   inkscape:output_extension="org.inkscape.output.svg.inkscape"
   inkscape:version="1.3 (0e150ed6c4, 2023-07-21)"
   sodipodi:docname="1.6.svg"
   sodipodi:version="0.32"
   version="1.0"
   width="200"
   xmlns:inkscape="http://www.inkscape.org/namespaces/inkscape"
   xmlns:sodipodi="http://sodipodi.sourceforge.net/DTD/sodipodi-0.dtd"
   xmlns="http://www.w3.org/2000/svg"
   xmlns:svg="http://www.w3.org/2000/svg"
   xmlns:rdf="http://www.w3.org/1999/02/22-rdf-syntax-ns#"
   xmlns:cc="http://creativecommons.org/ns#"
   xmlns:dc="http://purl.org/dc/elements/1.1/">
  <title
     id="title1">Попереджувальні знаки » Дорожні знаки » ПДР Тест Центр</title>
  <metadata
     id="metadata118">
    <rdf:RDF>
      <cc:Work
         rdf:about="">
        <dc:format>&#10;					image/svg+xml&#10;				</dc:format>
        <dc:type
           rdf:resource="http://purl.org/dc/dcmitype/StillImage" />
        <dc:title>Попереджувальні знаки » Дорожні знаки » ПДР Тест Центр</dc:title>
        <cc:license
           rdf:resource="http://creativecommons.org/licenses/by-nc-sa/4.0/" />
        <dc:creator>
          <cc:Agent>
            <dc:title>ПДР Тест Центр | PDR Test Center</dc:title>
          </cc:Agent>
        </dc:creator>
        <dc:rights>
          <cc:Agent>
            <dc:title>ПДР Тест Центр | PDR Test Center</dc:title>
          </cc:Agent>
        </dc:rights>
        <dc:language>uk-UA</dc:language>
        <dc:date>2023-09-01</dc:date>
        <dc:publisher>
          <cc:Agent>
            <dc:title>https://pdrtest.com/</dc:title>
          </cc:Agent>
        </dc:publisher>
        <dc:source>https://pdrtest.com/driver/rules/section/33.1</dc:source>
      </cc:Work>
      <cc:License
         rdf:about="http://creativecommons.org/licenses/by-nc-sa/4.0/">
        <cc:permits
           rdf:resource="http://creativecommons.org/ns#Reproduction" />
        <cc:permits
           rdf:resource="http://creativecommons.org/ns#Distribution" />
        <cc:requires
           rdf:resource="http://creativecommons.org/ns#Notice" />
        <cc:requires
           rdf:resource="http://creativecommons.org/ns#Attribution" />
        <cc:prohibits
           rdf:resource="http://creativecommons.org/ns#CommercialUse" />
        <cc:permits
           rdf:resource="http://creativecommons.org/ns#DerivativeWorks" />
        <cc:requires
           rdf:resource="http://creativecommons.org/ns#ShareAlike" />
      </cc:License>
    </rdf:RDF>
  </metadata>
  <defs
     id="defs118">
    <inkscape:perspective
       id="perspective118"
       inkscape:persp3d-origin="372.04724 : 363.47921 : 1"
       inkscape:vp_x="0 : 538.87291 : 1"
       inkscape:vp_y="0 : 1000 : 0"
       inkscape:vp_z="744.09448 : 538.87291 : 1"
       sodipodi:type="inkscape:persp3d" />
    <inkscape:perspective
       id="perspective126"
       inkscape:persp3d-origin="372.04724 : 363.47921 : 1"
       inkscape:vp_x="0 : 538.87291 : 1"
       inkscape:vp_y="0 : 1000 : 0"
       inkscape:vp_z="744.09448 : 538.87291 : 1"
       sodipodi:type="inkscape:persp3d" />
    <inkscape:perspective
       id="perspective124"
       inkscape:persp3d-origin="372.04724 : 363.47921 : 1"
       inkscape:vp_x="0 : 538.87291 : 1"
       inkscape:vp_y="0 : 1000 : 0"
       inkscape:vp_z="744.09448 : 538.87291 : 1"
       sodipodi:type="inkscape:persp3d" />
    <inkscape:perspective
       id="perspective120"
       inkscape:persp3d-origin="372.04724 : 363.47921 : 1"
       inkscape:vp_x="0 : 538.87291 : 1"
       inkscape:vp_y="0 : 1000 : 0"
       inkscape:vp_z="744.09448 : 538.87291 : 1"
       sodipodi:type="inkscape:persp3d" />
  </defs>
  <sodipodi:namedview
     bordercolor="#666666"
     borderopacity="1.0"
     gridtolerance="10.0"
     guidetolerance="10.0"
     id="base"
     inkscape:current-layer="svg118"
     inkscape:cx="94.900283"
     inkscape:cy="178.89986"
     inkscape:guide-bbox="true"
     inkscape:pageopacity="0.0"
     inkscape:pageshadow="2"
     inkscape:window-height="1009"
     inkscape:window-width="1920"
     inkscape:zoom="0.77976585"
     objecttolerance="10.0"
     pagecolor="#ffffff"
     showgrid="false"
     showguides="false"
     inkscape:window-x="-8"
     inkscape:window-y="-8"
     inkscape:window-maximized="1"
     inkscape:showpageshadow="2"
     inkscape:pagecheckerboard="0"
     inkscape:deskcolor="#d1d1d1" />
  <g
     id="g2939"
     transform="translate(4.997542,6.3459231)"
     inkscape:label="sign_1_6"
     style="opacity:1">
    <path
       style="fill:#ffffff;fill-opacity:1;fill-rule:nonzero;stroke:#000000;stroke-width:0.883752;stroke-dasharray:none;stroke-opacity:1"
       sodipodi:nodetypes="cccsccsccc"
       id="path3752"
       d="m 57.46875,418.03125 c -1.883686,0.0753 -3.601781,1.10257 -4.5625,2.71875 L 15.9375,483.28125 c -1.006793,1.70576 -1.04188,3.80972 -0.0625,5.53125 0.979379,1.72154 2.826523,2.79626 4.8125,2.8125 l 72.84375,0.65625 c 1.982181,0.0143 3.805134,-1.04899 4.8125,-2.75 1.007362,-1.70103 1.034158,-3.80974 0.0625,-5.53125 L 62.5625,420.84375 c -1.028602,-1.80976 -3.008268,-2.90029 -5.09375,-2.8125 z"
       transform="matrix(-2.2629845,-0.02038076,-0.02038078,2.2629861,234.2214,-944.81121)"
       inkscape:label="bg" />
    <path
       style="fill:#ff0000;fill-opacity:1;stroke:none"
       id="path3668"
       d="m 57.552125,420.06442 c -1.184997,0.0609 -2.258724,0.71449 -2.853712,1.73708 l -37.007664,62.51241 c -0.630652,1.07453 -0.639702,2.40213 -0.02376,3.4851 0.615946,1.08296 1.763843,1.7577 3.013359,1.77126 l 72.860258,0.65423 c 1.25172,0.009 2.41356,-0.64652 3.04863,-1.72097 0.63508,-1.07445 0.6471,-2.4046 0.03156,-3.49028 L 60.768214,421.84662 c -0.647874,-1.1516 -1.892111,-1.8411 -3.216089,-1.7822 z m 0.09059,10.49017 29.896031,52.63134 -60.720652,-0.54143 z"
       transform="matrix(-2.2629845,-0.02038076,-0.02038078,2.2629861,234.2214,-944.81121)"
       inkscape:label="red" />
    <g
       id="text3280"
       style="font-style:normal;font-weight:normal;font-size:33.974px;font-family:'Bitstream Vera Sans';fill:#000000;fill-opacity:1;stroke:none"
       transform="rotate(-26.150365,302.65698,1295.5367)"
       inkscape:label="sign">
      <path
         id="path2933"
         style="font-variant:normal;font-weight:bold;font-stretch:normal;font-family:Arial;-inkscape-font-specification:'Arial Bold'"
         inkscape:label="1"
         d="m 662.48848,117.89481 -3.34726,-0.15188 -14.10336,25.05063 3.44762,0.1557 z m -13.68037,-0.003 c -0.74874,-0.44475 -1.6522,-0.69154 -2.70866,-0.73943 -1.63508,-0.0741 -2.95693,0.39197 -3.96566,1.39795 -0.99767,1.00653 -1.54631,2.59736 -1.64493,4.77377 -0.0991,2.1875 0.30346,3.82815 1.20602,4.92074 0.91412,1.08207 2.21717,1.66126 3.9075,1.73784 1.63509,0.0741 2.95053,-0.39212 3.94821,-1.39863 1.00871,-1.00598 1.56205,-2.59759 1.66068,-4.77404 0.0991,-2.18747 -0.3074,-3.82266 -1.22149,-4.90472 -0.33846,-0.40972 -0.73243,-0.74663 -1.18167,-1.01348 z m -2.17039,2.04407 c 0.18871,0.11095 0.34748,0.27339 0.47632,0.48402 0.3295,0.54635 0.45894,1.60876 0.38737,3.18859 -0.0716,1.57987 -0.29635,2.63336 -0.6744,3.15866 -0.29423,0.38523 -0.68957,0.56565 -1.18672,0.5431 -0.48611,-0.022 -0.85874,-0.238 -1.1169,-0.64826 -0.34005,-0.55784 -0.47402,-1.6259 -0.40244,-3.20577 0.0716,-1.57982 0.30274,-2.63315 0.69186,-3.158 0.29421,-0.3852 0.68314,-0.56577 1.16925,-0.54376 0.24858,0.0113 0.46696,0.0705 0.65566,0.18142 z m 17.98233,11.5407 c -0.74356,-0.44451 -1.63641,-0.68931 -2.67903,-0.73656 -1.65721,-0.0751 -2.99093,0.38895 -3.99964,1.39493 -0.9977,1.00651 -1.54463,2.59826 -1.64322,4.7747 -0.0991,2.18749 0.30173,3.8272 1.2043,4.9198 0.9136,1.0931 2.21649,1.6787 3.90684,1.75529 1.63507,0.0741 2.9505,-0.39213 3.9482,-1.39863 1.0087,-1.006 1.56391,-2.60308 1.66306,-4.79055 0.0986,-2.17644 -0.31056,-3.81084 -1.22415,-4.90395 -0.33847,-0.40972 -0.73022,-0.74832 -1.17636,-1.01503 z m -2.17448,2.05966 c 0.18884,0.10819 0.34695,0.26316 0.47605,0.46827 0.32897,0.55739 0.45827,1.6262 0.3867,3.20604 -0.0716,1.57985 -0.30277,2.63318 -0.69186,3.15801 -0.2832,0.38571 -0.67213,0.56629 -1.16926,0.54377 -0.48613,-0.022 -0.85952,-0.24272 -1.11717,-0.66401 -0.34057,-0.54682 -0.47377,-1.61018 -0.40216,-3.19003 0.0716,-1.57985 0.30178,-2.63144 0.69092,-3.15629 0.28314,-0.3857 0.673,-0.56799 1.17019,-0.54547 0.24856,0.0113 0.46777,0.0715 0.65659,0.17971 z m -29.61577,-16.0393 c -0.90072,-0.4615 -1.93991,-0.71825 -3.11651,-0.77157 -2.35322,-0.1066 -4.22484,0.63792 -5.61462,2.23551 -1.68202,1.93866 -2.62689,5.19474 -2.83414,9.76855 -0.21125,4.66223 0.3653,7.93753 1.72996,9.82601 1.36518,1.87744 3.22943,2.86967 5.59368,2.9768 2.3532,0.10662 4.22482,-0.63791 5.61463,-2.23553 1.68198,-1.93863 2.62625,-5.20581 2.83452,-9.80174 0.20873,-4.60696 -0.43109,-7.94174 -1.92081,-10.00197 -0.62485,-0.86966 -1.386,-1.53457 -2.28671,-1.99606 z m -2.32402,3.34761 c 0.17635,0.0936 0.34244,0.21145 0.49781,0.35548 0.42589,0.37358 0.75923,1.10449 0.99794,2.18914 0.23917,1.07362 0.29414,3.03423 0.165,5.88458 -0.12916,2.85036 -0.38091,4.86494 -0.75536,6.04359 -0.28511,0.91701 -0.65725,1.54735 -1.11568,1.89191 -0.45794,0.33351 -0.96899,0.48817 -1.53242,0.46264 -0.56345,-0.0255 -1.05743,-0.22397 -1.48332,-0.59753 -0.41485,-0.37305 -0.74197,-1.09739 -0.98115,-2.17101 -0.2387,-1.08465 -0.2935,-3.05166 -0.16433,-5.90203 0.12914,-2.85035 0.38107,-4.87134 0.75603,-6.06106 0.2851,-0.91699 0.65707,-1.54092 1.11501,-1.87445 0.45843,-0.34454 0.96963,-0.50561 1.53308,-0.4801 0.35215,0.016 0.67348,0.10282 0.96739,0.25884 z m -15.64222,-4.79277 -3.77743,-0.17175 c -0.59739,1.45642 -1.63505,2.71134 -3.11077,3.76259 -1.47525,1.04023 -2.8289,1.73082 -4.06217,2.07346 l -0.19057,4.226 c 2.34354,-0.65768 4.40096,-1.74231 6.17443,-3.25613 l -0.79557,17.54954 4.65787,0.21138 z" />
      <path
         style="display:inline;fill:#000000;fill-rule:evenodd"
         id="_147419352"
         d="m 132.39661,101.1738 25.20204,43.98503 H 31.893381 C 72.791689,126.16089 109.22057,112.11803 132.39661,101.1738 Z"
         inkscape:label="bg"
         transform="rotate(26.150365,302.65698,1295.5367)"
         sodipodi:nodetypes="cccc" />
    </g>
  </g>
</svg>
