<?xml version="1.0" encoding="UTF-8" standalone="no"?>
<!-- Created with Inkscape (http://www.inkscape.org/) -->

<svg
   height="180"
   id="svg118"
   inkscape:output_extension="org.inkscape.output.svg.inkscape"
   inkscape:version="1.3 (0e150ed6c4, 2023-07-21)"
   sodipodi:docname="1.7.svg"
   sodipodi:version="0.32"
   version="1.0"
   width="200"
   xmlns:inkscape="http://www.inkscape.org/namespaces/inkscape"
   xmlns:sodipodi="http://sodipodi.sourceforge.net/DTD/sodipodi-0.dtd"
   xmlns="http://www.w3.org/2000/svg"
   xmlns:svg="http://www.w3.org/2000/svg"
   xmlns:rdf="http://www.w3.org/1999/02/22-rdf-syntax-ns#"
   xmlns:cc="http://creativecommons.org/ns#"
   xmlns:dc="http://purl.org/dc/elements/1.1/">
  <title
     id="title1">Попереджувальні знаки » Дорожні знаки » ПДР Тест Центр</title>
  <metadata
     id="metadata118">
    <rdf:RDF>
      <cc:Work
         rdf:about="">
        <dc:format>&#10;					image/svg+xml&#10;				</dc:format>
        <dc:type
           rdf:resource="http://purl.org/dc/dcmitype/StillImage" />
        <dc:title>Попереджувальні знаки » Дорожні знаки » ПДР Тест Центр</dc:title>
        <cc:license
           rdf:resource="http://creativecommons.org/licenses/by-nc-sa/4.0/" />
        <dc:creator>
          <cc:Agent>
            <dc:title>ПДР Тест Центр | PDR Test Center</dc:title>
          </cc:Agent>
        </dc:creator>
        <dc:rights>
          <cc:Agent>
            <dc:title>ПДР Тест Центр | PDR Test Center</dc:title>
          </cc:Agent>
        </dc:rights>
        <dc:language>uk-UA</dc:language>
        <dc:date>2023-09-01</dc:date>
        <dc:publisher>
          <cc:Agent>
            <dc:title>https://pdrtest.com/</dc:title>
          </cc:Agent>
        </dc:publisher>
        <dc:source>https://pdrtest.com/driver/rules/section/33.1</dc:source>
      </cc:Work>
      <cc:License
         rdf:about="http://creativecommons.org/licenses/by-nc-sa/4.0/">
        <cc:permits
           rdf:resource="http://creativecommons.org/ns#Reproduction" />
        <cc:permits
           rdf:resource="http://creativecommons.org/ns#Distribution" />
        <cc:requires
           rdf:resource="http://creativecommons.org/ns#Notice" />
        <cc:requires
           rdf:resource="http://creativecommons.org/ns#Attribution" />
        <cc:prohibits
           rdf:resource="http://creativecommons.org/ns#CommercialUse" />
        <cc:permits
           rdf:resource="http://creativecommons.org/ns#DerivativeWorks" />
        <cc:requires
           rdf:resource="http://creativecommons.org/ns#ShareAlike" />
      </cc:License>
    </rdf:RDF>
  </metadata>
  <defs
     id="defs118">
    <inkscape:perspective
       id="perspective118"
       inkscape:persp3d-origin="372.04724 : 363.47921 : 1"
       inkscape:vp_x="0 : 538.87291 : 1"
       inkscape:vp_y="0 : 1000 : 0"
       inkscape:vp_z="744.09448 : 538.87291 : 1"
       sodipodi:type="inkscape:persp3d" />
    <inkscape:perspective
       id="perspective126"
       inkscape:persp3d-origin="372.04724 : 363.47921 : 1"
       inkscape:vp_x="0 : 538.87291 : 1"
       inkscape:vp_y="0 : 1000 : 0"
       inkscape:vp_z="744.09448 : 538.87291 : 1"
       sodipodi:type="inkscape:persp3d" />
    <inkscape:perspective
       id="perspective124"
       inkscape:persp3d-origin="372.04724 : 363.47921 : 1"
       inkscape:vp_x="0 : 538.87291 : 1"
       inkscape:vp_y="0 : 1000 : 0"
       inkscape:vp_z="744.09448 : 538.87291 : 1"
       sodipodi:type="inkscape:persp3d" />
    <inkscape:perspective
       id="perspective120"
       inkscape:persp3d-origin="372.04724 : 363.47921 : 1"
       inkscape:vp_x="0 : 538.87291 : 1"
       inkscape:vp_y="0 : 1000 : 0"
       inkscape:vp_z="744.09448 : 538.87291 : 1"
       sodipodi:type="inkscape:persp3d" />
  </defs>
  <sodipodi:namedview
     bordercolor="#666666"
     borderopacity="1.0"
     gridtolerance="10.0"
     guidetolerance="10.0"
     id="base"
     inkscape:current-layer="svg118"
     inkscape:cx="126.95472"
     inkscape:cy="241.66737"
     inkscape:guide-bbox="true"
     inkscape:pageopacity="0.0"
     inkscape:pageshadow="2"
     inkscape:window-height="1009"
     inkscape:window-width="1920"
     inkscape:zoom="1.1027554"
     objecttolerance="10.0"
     pagecolor="#ffffff"
     showgrid="false"
     showguides="false"
     inkscape:window-x="-8"
     inkscape:window-y="-8"
     inkscape:window-maximized="1"
     inkscape:showpageshadow="2"
     inkscape:pagecheckerboard="0"
     inkscape:deskcolor="#d1d1d1" />
  <g
     id="g2875"
     transform="translate(4.997542,6.3459231)"
     inkscape:label="sign_1_7"
     style="opacity:1">
    <path
       style="fill:#ffffff;fill-opacity:1;fill-rule:nonzero;stroke:#000000;stroke-width:0.883752;stroke-dasharray:none;stroke-opacity:1"
       sodipodi:nodetypes="cccsccsccc"
       id="path3752"
       d="m 57.46875,418.03125 c -1.883686,0.0753 -3.601781,1.10257 -4.5625,2.71875 L 15.9375,483.28125 c -1.006793,1.70576 -1.04188,3.80972 -0.0625,5.53125 0.979379,1.72154 2.826523,2.79626 4.8125,2.8125 l 72.84375,0.65625 c 1.982181,0.0143 3.805134,-1.04899 4.8125,-2.75 1.007362,-1.70103 1.034158,-3.80974 0.0625,-5.53125 L 62.5625,420.84375 c -1.028602,-1.80976 -3.008268,-2.90029 -5.09375,-2.8125 z"
       transform="matrix(-2.2629845,-0.02038076,-0.02038078,2.2629861,234.2214,-944.81121)"
       inkscape:label="bg" />
    <path
       style="fill:#ff0000;fill-opacity:1;stroke:none"
       id="path3668"
       d="m 57.552125,420.06442 c -1.184997,0.0609 -2.258724,0.71449 -2.853712,1.73708 l -37.007664,62.51241 c -0.630652,1.07453 -0.639702,2.40213 -0.02376,3.4851 0.615946,1.08296 1.763843,1.7577 3.013359,1.77126 l 72.860258,0.65423 c 1.25172,0.009 2.41356,-0.64652 3.04863,-1.72097 0.63508,-1.07445 0.6471,-2.4046 0.03156,-3.49028 L 60.768214,421.84662 c -0.647874,-1.1516 -1.892111,-1.8411 -3.216089,-1.7822 z m 0.09059,10.49017 29.896031,52.63134 -60.720652,-0.54143 z"
       transform="matrix(-2.2629845,-0.02038076,-0.02038078,2.2629861,234.2214,-944.81121)"
       inkscape:label="red" />
    <g
       id="text3280"
       style="font-style:normal;font-weight:normal;font-size:33.974px;font-family:'Bitstream Vera Sans';fill:#000000;fill-opacity:1;stroke:none"
       transform="rotate(24.649634,306.26489,-1385.6444)"
       inkscape:label="sign">
      <path
         style="font-style:normal;font-weight:normal;font-size:33.974px;font-family:'Bitstream Vera Sans';fill:#000000;fill-opacity:1;fill-rule:evenodd;stroke:none"
         id="_147419352"
         d="m 57.265441,101.96727 -25.37206,43.19156 H 157.59865 C 116.70127,126.16133 80.441509,112.91151 57.265441,101.96727 Z"
         transform="rotate(-24.649634,306.26489,-1385.6444)"
         inkscape:label="bg"
         sodipodi:nodetypes="cccc" />
      <path
         id="path2869"
         style="font-style:normal;font-variant:normal;font-weight:bold;font-stretch:normal;font-size:33.974px;font-family:Arial;-inkscape-font-specification:'Arial Bold';opacity:1;fill:#000000;fill-opacity:1;stroke:none"
         inkscape:label="10%"
         d="m 85.730091,94.8619 c -1.104816,1.121338 -2.539616,1.888581 -4.303672,2.302083 -1.759431,0.403501 -3.273291,0.529634 -4.544436,0.379286 l -1.780167,3.838991 c 2.417968,0.27962 4.734953,0.0538 6.949869,-0.67487 l -7.386554,15.93895 4.228933,1.96134 10.267525,-22.154657 z m 13.80336,7.08354 c -1.007203,-0.01 -1.982644,0.22208 -2.928439,0.69791 -2.291281,1.15653 -4.399846,3.81231 -6.325125,7.96635 -1.962511,4.23432 -2.669983,7.48504 -2.122854,9.74985 0.551758,2.25477 1.900712,3.87953 4.047987,4.87473 2.137221,0.99055 4.151167,1.00971 6.042795,0.058 2.291245,-1.15652 4.404285,-3.82148 6.338905,-7.99559 1.93922,-4.18415 2.61014,-7.51156 2.0124,-9.98269 -0.49723,-2.08321 -1.81411,-3.62013 -3.95132,-4.6107 -1.06862,-0.49526 -2.10714,-0.74817 -3.114349,-0.75789 z m 0.504229,4.04296 c 0.33667,-0.001 0.66566,0.0723 0.98551,0.22053 0.51171,0.23719 0.88482,0.61287 1.1227,1.12535 0.25252,0.50712 0.28462,1.30657 0.0944,2.40076 -0.18558,1.08419 -0.87771,2.92101 -2.07751,5.50976 -1.199845,2.58875 -2.1976,4.35827 -2.990815,5.30708 -0.611404,0.74053 -1.194361,1.18227 -1.749174,1.32737 -0.550184,0.13507 -1.081471,0.0846 -1.59319,-0.15252 -0.51174,-0.23717 -0.893643,-0.60857 -1.146175,-1.11567 -0.242519,-0.50246 -0.270314,-1.29703 -0.08474,-2.3812 0.190201,-1.0942 0.885557,-2.93463 2.085382,-5.52339 1.199815,-2.58875 2.198827,-4.36188 2.996721,-5.32073 0.611376,-0.74053 1.191128,-1.17865 1.741309,-1.31373 0.208057,-0.0544 0.413563,-0.083 0.615552,-0.0836 z m 15.44868,2.75185 c -0.69994,-0.0349 -1.37721,0.0852 -2.03457,0.35949 -1.30473,0.5533 -2.41662,1.81739 -3.33275,3.79405 -0.9208,1.98674 -1.17057,3.65772 -0.74944,5.01088 0.4358,1.34779 1.42189,2.37587 2.95709,3.08738 1.48501,0.68828 2.88007,0.75663 4.18481,0.20335 1.31473,-0.54863 2.43023,-1.81145 3.34639,-3.78815 0.92077,-1.9867 1.1637,-3.65339 0.72792,-5.00118 -0.42115,-1.35315 -1.40039,-2.38554 -2.93556,-3.09707 -0.74253,-0.34413 -1.46395,-0.53384 -2.16389,-0.56875 z m 0.41522,2.79261 c 0.21494,-0.0101 0.43302,0.0369 0.65378,0.1392 0.45151,0.20929 0.71608,0.55653 0.79488,1.04403 0.0978,0.63045 -0.18463,1.66353 -0.84963,3.09837 -0.66503,1.43486 -1.2717,2.32412 -1.82065,2.66695 -0.41828,0.24497 -0.85338,0.26294 -1.3049,0.0537 -0.44151,-0.20462 -0.70374,-0.54503 -0.78715,-1.02252 -0.10327,-0.64512 0.17686,-1.68502 0.84189,-3.11989 0.66501,-1.43483 1.27724,-2.32282 1.83626,-2.66103 0.20913,-0.12247 0.42058,-0.18868 0.63552,-0.19877 z m 13.5932,3.26632 -22.54618,17.83471 3.13125,1.45132 22.4565,-17.87802 z m -4.52199,12.50836 c -0.70495,-0.0372 -1.385,0.0812 -2.04237,0.35556 -1.30473,0.55328 -2.41467,1.81737 -3.33079,3.79406 -0.92081,1.98671 -1.17058,3.6577 -0.74944,5.01087 0.43115,1.35781 1.414,2.39145 2.94921,3.10298 1.485,0.68826 2.88007,0.75661 4.18481,0.20334 1.31471,-0.54864 2.43149,-1.81704 3.35231,-3.80374 0.91611,-1.9767 1.15904,-3.64338 0.72792,-5.00119 -0.42115,-1.35317 -1.38926,-2.38106 -2.90437,-3.08328 -0.75255,-0.34879 -1.48232,-0.54136 -2.18728,-0.5786 z m 0.3937,2.80034 c 0.21495,-0.0101 0.4358,0.0385 0.66158,0.14313 0.4515,0.20927 0.71929,0.55095 0.80275,1.02844 0.0932,0.64047 -0.1925,1.67911 -0.8575,3.11396 -0.66503,1.43485 -1.27727,2.32088 -1.83624,2.65909 -0.40826,0.2496 -0.83976,0.27078 -1.29126,0.0615 -0.44152,-0.20463 -0.70052,-0.5506 -0.77928,-1.03811 -0.10791,-0.6351 0.17094,-1.67138 0.83598,-3.10623 0.665,-1.43486 1.27724,-2.32089 1.83625,-2.65909 0.2041,-0.1248 0.41279,-0.19261 0.62772,-0.2027 z"
         transform="rotate(-24.649634,271.35681,-1366.0355)" />
    </g>
  </g>
</svg>
