<?xml version="1.0" encoding="UTF-8" standalone="no"?>
<!-- Created with Inkscape (http://www.inkscape.org/) -->

<svg
   height="180"
   id="svg118"
   inkscape:output_extension="org.inkscape.output.svg.inkscape"
   inkscape:version="1.3 (0e150ed6c4, 2023-07-21)"
   sodipodi:docname="1.8.svg"
   sodipodi:version="0.32"
   version="1.0"
   width="200"
   xml:space="preserve"
   xmlns:inkscape="http://www.inkscape.org/namespaces/inkscape"
   xmlns:sodipodi="http://sodipodi.sourceforge.net/DTD/sodipodi-0.dtd"
   xmlns="http://www.w3.org/2000/svg"
   xmlns:svg="http://www.w3.org/2000/svg"
   xmlns:rdf="http://www.w3.org/1999/02/22-rdf-syntax-ns#"
   xmlns:cc="http://creativecommons.org/ns#"
   xmlns:dc="http://purl.org/dc/elements/1.1/"><title
     id="title1">Попереджувальні знаки » Дорожні знаки » ПДР Тест Центр</title><metadata
     id="metadata118"><rdf:RDF><cc:Work
         rdf:about=""><dc:format>&#10;					image/svg+xml&#10;				</dc:format><dc:type
           rdf:resource="http://purl.org/dc/dcmitype/StillImage" /><dc:title>Попереджувальні знаки » Дорожні знаки » ПДР Тест Центр</dc:title><cc:license
           rdf:resource="http://creativecommons.org/licenses/by-nc-sa/4.0/" /><dc:creator><cc:Agent><dc:title>ПДР Тест Центр | PDR Test Center</dc:title></cc:Agent></dc:creator><dc:rights><cc:Agent><dc:title>ПДР Тест Центр | PDR Test Center</dc:title></cc:Agent></dc:rights><dc:language>uk-UA</dc:language><dc:date>2023-09-01</dc:date><dc:publisher><cc:Agent><dc:title>https://pdrtest.com/</dc:title></cc:Agent></dc:publisher><dc:source>https://pdrtest.com/driver/rules/section/33.1</dc:source></cc:Work><cc:License
         rdf:about="http://creativecommons.org/licenses/by-nc-sa/4.0/"><cc:permits
           rdf:resource="http://creativecommons.org/ns#Reproduction" /><cc:permits
           rdf:resource="http://creativecommons.org/ns#Distribution" /><cc:requires
           rdf:resource="http://creativecommons.org/ns#Notice" /><cc:requires
           rdf:resource="http://creativecommons.org/ns#Attribution" /><cc:prohibits
           rdf:resource="http://creativecommons.org/ns#CommercialUse" /><cc:permits
           rdf:resource="http://creativecommons.org/ns#DerivativeWorks" /><cc:requires
           rdf:resource="http://creativecommons.org/ns#ShareAlike" /></cc:License></rdf:RDF></metadata><defs
     id="defs118"><inkscape:perspective
       id="perspective118"
       inkscape:persp3d-origin="372.04724 : 363.47921 : 1"
       inkscape:vp_x="0 : 538.87291 : 1"
       inkscape:vp_y="0 : 1000 : 0"
       inkscape:vp_z="744.09448 : 538.87291 : 1"
       sodipodi:type="inkscape:persp3d" /><inkscape:perspective
       id="perspective126"
       inkscape:persp3d-origin="372.04724 : 363.47921 : 1"
       inkscape:vp_x="0 : 538.87291 : 1"
       inkscape:vp_y="0 : 1000 : 0"
       inkscape:vp_z="744.09448 : 538.87291 : 1"
       sodipodi:type="inkscape:persp3d" /><inkscape:perspective
       id="perspective124"
       inkscape:persp3d-origin="372.04724 : 363.47921 : 1"
       inkscape:vp_x="0 : 538.87291 : 1"
       inkscape:vp_y="0 : 1000 : 0"
       inkscape:vp_z="744.09448 : 538.87291 : 1"
       sodipodi:type="inkscape:persp3d" /><inkscape:perspective
       id="perspective120"
       inkscape:persp3d-origin="372.04724 : 363.47921 : 1"
       inkscape:vp_x="0 : 538.87291 : 1"
       inkscape:vp_y="0 : 1000 : 0"
       inkscape:vp_z="744.09448 : 538.87291 : 1"
       sodipodi:type="inkscape:persp3d" /><inkscape:perspective
       id="perspective114"
       inkscape:persp3d-origin="372.04724 : 363.47921 : 1"
       inkscape:vp_x="0 : 538.87291 : 1"
       inkscape:vp_y="0 : 1000 : 0"
       inkscape:vp_z="744.09448 : 538.87291 : 1"
       sodipodi:type="inkscape:persp3d" /></defs><sodipodi:namedview
     bordercolor="#666666"
     borderopacity="1.0"
     gridtolerance="10.0"
     guidetolerance="10.0"
     id="base"
     inkscape:current-layer="svg118"
     inkscape:cx="45"
     inkscape:cy="144.75"
     inkscape:guide-bbox="true"
     inkscape:pageopacity="0.0"
     inkscape:pageshadow="2"
     inkscape:window-height="1009"
     inkscape:window-width="1920"
     inkscape:zoom="2"
     objecttolerance="10.0"
     pagecolor="#ffffff"
     showgrid="false"
     showguides="false"
     inkscape:showpageshadow="2"
     inkscape:pagecheckerboard="0"
     inkscape:deskcolor="#d1d1d1"
     inkscape:window-x="-8"
     inkscape:window-y="-8"
     inkscape:window-maximized="1" /><g
     id="g4304"
     transform="translate(4.997542,6.3459231)"
     inkscape:label="sign_1_8"
     style="opacity:1"><path
       d="m 57.46875,418.03125 c -1.883686,0.0753 -3.601781,1.10257 -4.5625,2.71875 L 15.9375,483.28125 c -1.006793,1.70576 -1.04188,3.80972 -0.0625,5.53125 0.979379,1.72154 2.826523,2.79626 4.8125,2.8125 l 72.84375,0.65625 c 1.982181,0.0143 3.805134,-1.04899 4.8125,-2.75 1.007362,-1.70103 1.034158,-3.80974 0.0625,-5.53125 L 62.5625,420.84375 c -1.028602,-1.80976 -3.008268,-2.90029 -5.09375,-2.8125 z"
       id="path3752"
       sodipodi:nodetypes="cccsccsccc"
       style="opacity:1;fill:#ffffff;fill-opacity:1;fill-rule:nonzero;stroke:#000000;stroke-width:0.883752;stroke-linecap:round;stroke-linejoin:miter;stroke-miterlimit:4;stroke-dasharray:none;stroke-opacity:1"
       transform="matrix(-2.2629845,-0.02038076,-0.02038078,2.2629861,234.2214,-944.81121)"
       inkscape:label="bg" /><path
       d="m 57.552125,420.06442 c -1.184997,0.0609 -2.258724,0.71449 -2.853712,1.73708 l -37.007664,62.51241 c -0.630652,1.07453 -0.639702,2.40213 -0.02376,3.4851 0.615946,1.08296 1.763843,1.7577 3.013359,1.77126 l 72.860258,0.65423 c 1.25172,0.009 2.41356,-0.64652 3.04863,-1.72097 0.63508,-1.07445 0.6471,-2.4046 0.03156,-3.49028 L 60.768214,421.84662 c -0.647874,-1.1516 -1.892111,-1.8411 -3.216089,-1.7822 z m 0.09059,10.49017 29.896031,52.63134 -60.720652,-0.54143 z"
       id="path3668"
       style="opacity:1;fill:#ff0000;fill-opacity:1;stroke:none;stroke-width:9.67753;stroke-linecap:round;stroke-linejoin:round;stroke-miterlimit:4;stroke-dasharray:none;stroke-opacity:1"
       transform="matrix(-2.2629845,-0.02038076,-0.02038078,2.2629861,234.2214,-944.81121)"
       inkscape:label="red" /><g
       id="g4277"
       transform="matrix(2.3061373,0,0,2.3061373,-500.45241,-22.567411)"
       inkscape:label="sign"><path
         d="m 241.18751,54.031258 c -3.57311,6.180276 -7.08573,12.395614 -10.68196,18.5625 h 20.08821 3.9375 v -2.09375 c 0.58434,-0.227254 1.15578,-0.34375 2,-0.34375 1.13623,3e-6 1.99858,0.391671 2.875,0.78125 0.94145,0.422046 1.85874,0.8125 3.125,0.8125 1.78541,0 2.91542,-0.889241 4.34375,-1.34375 0.51943,-0.129859 1.03954,-0.25 1.65625,-0.25 2.4024,1e-6 3.69269,1.59375 6.0625,1.59375 2.40252,-3e-6 3.6624,-1.59375 6,-1.59375 2.10996,1e-6 3.02009,1.075369 4.90293,1.39989 l -1.09375,-1.9375 c -1.2986,-0.454505 -2.08867,-1.05614 -3.80918,-1.05614 -2.3376,3e-6 -3.59747,1.59375 -6,1.59375 -2.36982,1e-6 -3.6601,-1.59375 -6.0625,-1.59375 -0.6167,3e-6 -1.13681,0.120013 -1.65625,0.25 -1.42835,0.454384 -2.55831,1.34375 -4.34375,1.34375 -1.26629,4e-6 -2.18352,-0.390456 -3.125,-0.8125 -0.87644,-0.389448 -1.73873,-0.78125 -2.875,-0.78125 -0.84426,5e-6 -1.41563,0.116496 -2,0.34375 v -1.625 c 0.58434,-0.19466 1.15578,-0.34375 2,-0.34375 1.13623,4e-6 1.99858,0.422793 2.875,0.8125 0.94145,0.422043 1.85874,0.8125 3.125,0.8125 1.78541,2e-6 2.91542,-0.889113 4.34375,-1.34375 0.51943,-0.162321 1.03954,-0.28125 1.65625,-0.28125 2.4024,2e-6 3.69269,1.625 6.0625,1.625 2.40252,3e-6 3.6624,-1.625 6,-1.625 1.16861,2e-6 1.77344,0.238336 2.61753,0.628043 l -1.15625,-2.0625 c -0.55191,-0.194792 -0.8447,-0.190543 -1.46128,-0.190543 -2.3376,2e-6 -3.59747,1.625 -6,1.625 -2.36982,2e-6 -3.6601,-1.625 -6.0625,-1.625 -0.6167,2e-6 -1.13681,0.118798 -1.65625,0.28125 -1.42835,0.454382 -2.55831,1.34375 -4.34375,1.34375 -1.26629,1e-6 -2.18352,-0.390456 -3.125,-0.8125 -0.87644,-0.389704 -1.73873,-0.8125 -2.875,-0.8125 -0.84426,4e-6 -1.41563,0.180914 -2,0.34375 v -1.5625 c 0.58434,-0.194786 1.15578,-0.40625 2,-0.40625 1.13623,2e-6 1.99858,0.423432 2.875,0.8125 0.94145,0.422045 1.85874,0.8125 3.125,0.8125 1.78541,3e-6 2.91542,-0.889369 4.34375,-1.34375 0.51943,-0.162964 1.03954,-0.28125 1.65625,-0.28125 2.4024,2e-6 3.69269,1.625 6.0625,1.625 2.40252,0 3.41849,-1.638551 5.75609,-1.638551 0.25946,2e-6 0.64287,0.07605 0.83766,0.07605 l -0.90625,-1.59375 c -2.17504,0.09752 -3.38224,1.53125 -5.6875,1.53125 -2.36982,2e-6 -3.6601,-1.59375 -6.0625,-1.59375 -0.6167,2e-6 -1.13681,0.12014 -1.65625,0.25 -1.42835,0.454509 -2.55831,1.34375 -4.34375,1.34375 -1.26629,1e-6 -2.18352,-0.390456 -3.125,-0.8125 -0.87644,-0.389447 -1.73873,-0.78125 -2.875,-0.78125 -0.84426,2e-6 -1.41563,0.180338 -2,0.375 v -8.46875 z"
         id="_145965688"
         style="fill:#000000;fill-rule:evenodd"
         inkscape:label="water"
         sodipodi:nodetypes="cccccscscsssccssscscsccscscsssccssscscsccscscsssccsscscsccc" /><path
         id="path4258-2"
         style="opacity:1;fill:#000000;fill-opacity:1;fill-rule:evenodd;stroke-width:2.306;stroke-dasharray:none"
         inkscape:label="car"
         d="m 113.13575,95.022859 c -6.77768,-1.886905 -13.51119,-3.921598 -20.25633,-5.920692 -5.277611,0.944976 -10.170456,5.535698 -14.654964,8.484513 -2.059843,2.223845 -1.220873,5.97472 -1.179539,8.77972 0.312861,1.81315 1.403873,2.18174 2.922911,2.77091 3.009833,-5.23304 13.507857,-5.60454 12.481348,5.32869 8.032204,2.47971 16.117034,4.77235 24.208884,7.04639 2.24173,-7.95043 14.18555,-5.70852 13.45079,2.45876 1.32243,0.0915 2.32471,0.0714 3.18282,-1.04685 l 2.00163,-5.02195 c 0.76573,-1.48887 -0.23447,-2.58703 -0.90489,-2.89375 -4.63207,-3.23932 -11.32811,-4.24456 -15.10842,-8.67371 -2.02821,-3.27762 -1.93102,-9.878203 -6.14424,-11.312031 z m -1.75263,1.997956 c 3.67403,1.730563 5.69792,11.425715 1.76086,10.181965 -7.19537,-1.94995 -14.331154,-4.11354 -21.480717,-6.22327 -6.216035,-1.48565 0.331146,-8.316559 2.191295,-8.911647 0.884577,-0.07402 5.779799,1.701545 17.528562,4.952952 z m 13.76525,20.873915 c -3.51375,-1.12053 -7.67862,1.40507 -7.70496,5.54007 -0.0205,3.22641 2.66755,5.872 5.89395,5.89255 3.22642,0.0205 5.87134,-2.59028 5.8919,-5.81669 0.0167,-2.62146 -1.70462,-4.85818 -4.08089,-5.61593 z M 87.688432,106.74518 c -3.520691,-1.1227 -7.681075,1.40993 -7.707389,5.54138 -0.02056,3.2264 2.668104,5.87012 5.894511,5.89068 3.226429,0.0205 5.871347,-2.59028 5.891895,-5.8167 0.0167,-2.62146 -1.702725,-4.85762 -4.079017,-5.61536 z m 36.666268,13.63581 c 1.2992,0.41807 2.19403,1.65443 2.18475,3.11301 -0.0115,1.79516 -1.38959,3.23472 -3.18476,3.22328 -1.79516,-0.0115 -3.23351,-1.46873 -3.22207,-3.26389 0.015,-2.35542 2.33012,-3.68115 4.22207,-3.07241 z M 86.892342,109.2327 c 1.299205,0.41807 2.194606,1.65256 2.185312,3.11112 -0.01143,1.79517 -1.389575,3.23474 -3.184749,3.2233 -1.795156,-0.0115 -3.233513,-1.46873 -3.222074,-3.2639 0.015,-2.35662 2.33144,-3.67866 4.221514,-3.07053 z"
         sodipodi:nodetypes="ccccccccccccccccccssssssssssssssssssssss"
         transform="matrix(0.43362553,0,0,0.43362553,214.842,2.6978012)" /></g></g></svg>
