<?xml version="1.0" encoding="UTF-8" standalone="no"?>
<!-- Created with Inkscape (http://www.inkscape.org/) -->

<svg
   height="200"
   id="svg118"
   inkscape:output_extension="org.inkscape.output.svg.inkscape"
   inkscape:version="1.3 (0e150ed6c4, 2023-07-21)"
   sodipodi:docname="3.12.svg"
   sodipodi:version="0.32"
   version="1.0"
   width="200"
   xmlns:inkscape="http://www.inkscape.org/namespaces/inkscape"
   xmlns:sodipodi="http://sodipodi.sourceforge.net/DTD/sodipodi-0.dtd"
   xmlns="http://www.w3.org/2000/svg"
   xmlns:svg="http://www.w3.org/2000/svg"
   xmlns:rdf="http://www.w3.org/1999/02/22-rdf-syntax-ns#"
   xmlns:cc="http://creativecommons.org/ns#"
   xmlns:dc="http://purl.org/dc/elements/1.1/">
  <title
     id="title1">Заборонні знаки » Дорожні знаки » ПДР Тест Центр</title>
  <metadata
     id="metadata118">
    <rdf:RDF>
      <cc:Work
         rdf:about="">
        <dc:title>Заборонні знаки » Дорожні знаки » ПДР Тест Центр</dc:title>
        <dc:date>2023-09-01</dc:date>
        <dc:creator>
          <cc:Agent>
            <dc:title>ПДР Тест Центр | PDR Test Center</dc:title>
          </cc:Agent>
        </dc:creator>
        <dc:rights>
          <cc:Agent>
            <dc:title>ПДР Тест Центр | PDR Test Center</dc:title>
          </cc:Agent>
        </dc:rights>
        <dc:publisher>
          <cc:Agent>
            <dc:title>https://pdrtest.com/</dc:title>
          </cc:Agent>
        </dc:publisher>
        <dc:source>https://pdrtest.com/driver/rules/section/33.3</dc:source>
        <dc:language>uk-UA</dc:language>
      </cc:Work>
    </rdf:RDF>
  </metadata>
  <defs
     id="defs118">
    <inkscape:perspective
       id="perspective118"
       inkscape:persp3d-origin="372.04724 : 354.25196 : 1"
       inkscape:vp_x="0 : 529.64566 : 1"
       inkscape:vp_y="0 : 1000 : 0"
       inkscape:vp_z="744.09448 : 529.64566 : 1"
       sodipodi:type="inkscape:persp3d" />
    <inkscape:perspective
       id="perspective102"
       inkscape:persp3d-origin="372.04724 : 354.25196 : 1"
       inkscape:vp_x="0 : 529.64566 : 1"
       inkscape:vp_y="0 : 1000 : 0"
       inkscape:vp_z="744.09448 : 529.64566 : 1"
       sodipodi:type="inkscape:persp3d" />
    <inkscape:perspective
       id="perspective3360"
       inkscape:persp3d-origin="372.04724 : 354.25196 : 1"
       inkscape:vp_x="0 : 529.64566 : 1"
       inkscape:vp_y="0 : 1000 : 0"
       inkscape:vp_z="744.09448 : 529.64566 : 1"
       sodipodi:type="inkscape:persp3d" />
    <inkscape:perspective
       id="perspective103"
       inkscape:persp3d-origin="372.04724 : 354.25196 : 1"
       inkscape:vp_x="0 : 529.64566 : 1"
       inkscape:vp_y="0 : 1000 : 0"
       inkscape:vp_z="744.09448 : 529.64566 : 1"
       sodipodi:type="inkscape:persp3d" />
    <inkscape:perspective
       id="perspective4652"
       inkscape:persp3d-origin="372.04724 : 354.25196 : 1"
       inkscape:vp_x="0 : 529.64566 : 1"
       inkscape:vp_y="0 : 1000 : 0"
       inkscape:vp_z="744.09448 : 529.64566 : 1"
       sodipodi:type="inkscape:persp3d" />
    <inkscape:perspective
       id="perspective104"
       inkscape:persp3d-origin="372.04724 : 354.25196 : 1"
       inkscape:vp_x="0 : 529.64566 : 1"
       inkscape:vp_y="0 : 1000 : 0"
       inkscape:vp_z="744.09448 : 529.64566 : 1"
       sodipodi:type="inkscape:persp3d" />
    <inkscape:perspective
       id="perspective105"
       inkscape:persp3d-origin="372.04724 : 354.25196 : 1"
       inkscape:vp_x="0 : 529.64566 : 1"
       inkscape:vp_y="0 : 1000 : 0"
       inkscape:vp_z="744.09448 : 529.64566 : 1"
       sodipodi:type="inkscape:persp3d" />
    <inkscape:perspective
       id="perspective4420"
       inkscape:persp3d-origin="372.04724 : 354.25196 : 1"
       inkscape:vp_x="0 : 529.64566 : 1"
       inkscape:vp_y="0 : 1000 : 0"
       inkscape:vp_z="744.09448 : 529.64566 : 1"
       sodipodi:type="inkscape:persp3d" />
    <inkscape:perspective
       id="perspective107"
       inkscape:persp3d-origin="372.04724 : 354.25196 : 1"
       inkscape:vp_x="0 : 529.64566 : 1"
       inkscape:vp_y="0 : 1000 : 0"
       inkscape:vp_z="744.09448 : 529.64566 : 1"
       sodipodi:type="inkscape:persp3d" />
    <inkscape:perspective
       id="perspective4648"
       inkscape:persp3d-origin="372.04724 : 354.25196 : 1"
       inkscape:vp_x="0 : 529.64566 : 1"
       inkscape:vp_y="0 : 1000 : 0"
       inkscape:vp_z="744.09448 : 529.64566 : 1"
       sodipodi:type="inkscape:persp3d" />
    <inkscape:perspective
       id="perspective108"
       inkscape:persp3d-origin="372.04724 : 354.25196 : 1"
       inkscape:vp_x="0 : 529.64566 : 1"
       inkscape:vp_y="0 : 1000 : 0"
       inkscape:vp_z="744.09448 : 529.64566 : 1"
       sodipodi:type="inkscape:persp3d" />
    <inkscape:perspective
       id="perspective4799"
       inkscape:persp3d-origin="372.04724 : 354.25196 : 1"
       inkscape:vp_x="0 : 529.64566 : 1"
       inkscape:vp_y="0 : 1000 : 0"
       inkscape:vp_z="744.09448 : 529.64566 : 1"
       sodipodi:type="inkscape:persp3d" />
    <inkscape:perspective
       id="perspective106"
       inkscape:persp3d-origin="372.04724 : 354.25196 : 1"
       inkscape:vp_x="0 : 529.64566 : 1"
       inkscape:vp_y="0 : 1000 : 0"
       inkscape:vp_z="744.09448 : 529.64566 : 1"
       sodipodi:type="inkscape:persp3d" />
    <inkscape:perspective
       id="perspective126"
       inkscape:persp3d-origin="372.04724 : 354.25196 : 1"
       inkscape:vp_x="0 : 529.64566 : 1"
       inkscape:vp_y="0 : 1000 : 0"
       inkscape:vp_z="744.09448 : 529.64566 : 1"
       sodipodi:type="inkscape:persp3d" />
    <inkscape:perspective
       id="perspective5377"
       inkscape:persp3d-origin="372.04724 : 354.25196 : 1"
       inkscape:vp_x="0 : 529.64566 : 1"
       inkscape:vp_y="0 : 1000 : 0"
       inkscape:vp_z="744.09448 : 529.64566 : 1"
       sodipodi:type="inkscape:persp3d" />
  </defs>
  <sodipodi:namedview
     bordercolor="#666666"
     borderopacity="1.0"
     gridtolerance="10.0"
     guidetolerance="10.0"
     id="base"
     inkscape:current-layer="svg118"
     inkscape:cx="101.52912"
     inkscape:cy="117.8569"
     inkscape:guide-bbox="true"
     inkscape:pageopacity="0.0"
     inkscape:pageshadow="2"
     inkscape:window-height="1009"
     inkscape:window-width="1920"
     inkscape:zoom="1.6842459"
     objecttolerance="10.0"
     pagecolor="#ffffff"
     showgrid="false"
     showguides="false"
     inkscape:showpageshadow="2"
     inkscape:pagecheckerboard="0"
     inkscape:deskcolor="#d1d1d1"
     inkscape:window-x="1912"
     inkscape:window-y="-8"
     inkscape:window-maximized="1" />
  <g
     id="g2407"
     transform="translate(4.999995,5)"
     inkscape:label="sign_3_12"
     style="display:inline;opacity:1">
    <path
       d="m 94.999538,0.52549345 c -52.053159,0 -94.47398704,42.42082755 -94.47398704,94.47398055 0,52.053156 42.42082804,94.473996 94.47398704,94.473986 52.053142,0 94.473962,-42.42083 94.473972,-94.473986 0,-52.053153 -42.42083,-94.47398055 -94.473972,-94.47398055 z"
       id="path3157"
       sodipodi:nodetypes="csssc"
       style="fill:#ffffff;fill-opacity:1;fill-rule:evenodd;stroke:#000000;stroke-width:2;stroke-miterlimit:4;stroke-dasharray:none;stroke-opacity:1"
       inkscape:label="bg" />
    <g
       id="g5474"
       inkscape:label="sign">
      <path
         id="path5385"
         style="display:inline;fill:#000000;fill-rule:evenodd;stroke:none;stroke-width:0.0147217"
         inkscape:label="3"
         d="M 61.472661 41.435547 L 61.541021 107.1543 L 128.52735 107.1543 L 128.52735 41.435547 L 61.472661 41.435547 z M 65.67188 44.960938 L 124.32813 44.960938 L 124.32813 103.83789 L 65.738286 103.83789 L 65.67188 44.960938 z " />
      <path
         id="_43331600"
         style="display:inline;fill:#ff6a00;fill-opacity:1;fill-rule:evenodd;stroke:#000000;stroke-width:0.0130335"
         class="fil6 str0"
         inkscape:label="2"
         d="M 65.730474 44.878906 L 65.789068 103.83398 L 124.26954 103.83398 L 124.26954 44.878906 L 65.730474 44.878906 z " />
      <path
         id="_147376360"
         style="display:inline;fill:#000000;fill-rule:evenodd;stroke:#000000;stroke-width:0.0168259"
         inkscape:label="1"
         d="m 56.451177,110.83789 v 4.9707 h 77.097653 v -4.9707 z m 3.226562,9.2207 c -1.289695,0.13859 -1.951171,0.85244 -1.951171,2.33008 v 22.78125 c -9e-6,1.47764 0.661475,2.23453 1.951171,2.37305 h 5.457032 c 1.110108,0 1.861328,-0.68601 1.861328,-2.37305 v -22.78125 c 2e-6,-1.687 -0.751221,-2.33008 -1.861328,-2.33008 z m 11.591797,0 c -1.289694,0.13859 -1.921875,0.85244 -1.921875,2.33008 v 22.78125 c -6e-6,1.47764 0.632179,2.23453 1.921875,2.37305 h 5.679688 c 1.110107,0 1.859375,-0.68601 1.859375,-2.37305 v -8.19922 h 11.777344 c 0.612963,1.98478 3.36452,3.75391 5.36914,3.75391 2.138145,0 4.756197,-1.76913 5.369137,-3.75391 h 10.77735 v 8.19922 c 0,1.68704 0.78245,2.37305 1.89258,2.37305 h 5.04492 c 1.28971,-0.1386 1.92187,-0.89541 1.92187,-2.37305 v -22.78125 c 0,-1.687 -0.74926,-2.33008 -1.85937,-2.33008 h -5.07617 c -1.28969,0.13859 -1.92382,0.85244 -1.92383,2.33008 v 8.58594 h -10.74805 c 0,-2.65648 -1.904428,-4.82614 -5.32422,-4.82614 -3.286267,1e-5 -5.474607,2.08306 -5.474607,4.82614 H 78.808599 v -8.58594 c 4e-6,-1.687 -0.74927,-2.33008 -1.859375,-2.33008 z m 54.185544,0 c -1.28971,0.13859 -1.92186,0.85244 -1.92187,2.33008 v 22.78125 c 0,1.68704 0.75121,2.37305 1.86133,2.37305 h 5.30859 c 1.28969,-0.1386 1.95117,-0.89541 1.95117,-2.37305 v -22.78125 c 0,-1.687 -0.78052,-2.33008 -1.89062,-2.33008 z"
         sodipodi:nodetypes="ccccccsccssssccsccssccsccsscsssccccsccsscccsscsssc" />
    </g>
    <path
       d="m 94.999335,5.0240299 c -49.57443,0 -89.9752201,40.4007891 -89.9752201,89.9752201 0,49.57443 40.4007901,89.97523 89.9752201,89.97522 49.574425,0 89.975205,-40.40079 89.975215,-89.97522 0,-49.574431 -40.40079,-89.9752201 -89.975215,-89.9752201 z m 0,18.0091141 c 39.830375,0 71.966105,32.135732 71.966105,71.966106 -1e-5,39.83037 -32.13573,71.9661 -71.966105,71.9661 -39.830362,1e-5 -71.966106,-32.13573 -71.966106,-71.9661 0,-39.830374 32.135732,-71.966106 71.966106,-71.966106 z"
       id="path2385"
       style="fill:#ff0000;fill-opacity:1;fill-rule:evenodd;stroke:none;stroke-width:16;stroke-miterlimit:4;stroke-dasharray:none;stroke-opacity:1"
       inkscape:label="red" />
  </g>
</svg>
