<?xml version="1.0" encoding="UTF-8" standalone="no"?>
<!-- Created with Inkscape (http://www.inkscape.org/) -->

<svg
   height="200"
   id="svg118"
   inkscape:output_extension="org.inkscape.output.svg.inkscape"
   inkscape:version="1.3 (0e150ed6c4, 2023-07-21)"
   sodipodi:docname="3.16.svg"
   sodipodi:version="0.32"
   version="1.0"
   width="200"
   xmlns:inkscape="http://www.inkscape.org/namespaces/inkscape"
   xmlns:sodipodi="http://sodipodi.sourceforge.net/DTD/sodipodi-0.dtd"
   xmlns="http://www.w3.org/2000/svg"
   xmlns:svg="http://www.w3.org/2000/svg"
   xmlns:rdf="http://www.w3.org/1999/02/22-rdf-syntax-ns#"
   xmlns:cc="http://creativecommons.org/ns#"
   xmlns:dc="http://purl.org/dc/elements/1.1/">
  <title
     id="title1">Заборонні знаки » Дорожні знаки » ПДР Тест Центр</title>
  <metadata
     id="metadata118">
    <rdf:RDF>
      <cc:Work
         rdf:about="">
        <dc:format>&#10;					image/svg+xml&#10;				</dc:format>
        <dc:type
           rdf:resource="http://purl.org/dc/dcmitype/StillImage" />
        <dc:title>Заборонні знаки » Дорожні знаки » ПДР Тест Центр</dc:title>
        <cc:license
           rdf:resource="http://creativecommons.org/licenses/by-nc-sa/4.0/" />
        <dc:creator>
          <cc:Agent>
            <dc:title>ПДР Тест Центр | PDR Test Center</dc:title>
          </cc:Agent>
        </dc:creator>
        <dc:rights>
          <cc:Agent>
            <dc:title>ПДР Тест Центр | PDR Test Center</dc:title>
          </cc:Agent>
        </dc:rights>
        <dc:language>uk-UA</dc:language>
        <dc:date>2023-09-01</dc:date>
        <dc:publisher>
          <cc:Agent>
            <dc:title>https://pdrtest.com/</dc:title>
          </cc:Agent>
        </dc:publisher>
        <dc:source>https://pdrtest.com/driver/rules/section/33.3</dc:source>
      </cc:Work>
      <cc:License
         rdf:about="http://creativecommons.org/licenses/by-nc-sa/4.0/">
        <cc:permits
           rdf:resource="http://creativecommons.org/ns#Reproduction" />
        <cc:permits
           rdf:resource="http://creativecommons.org/ns#Distribution" />
        <cc:requires
           rdf:resource="http://creativecommons.org/ns#Notice" />
        <cc:requires
           rdf:resource="http://creativecommons.org/ns#Attribution" />
        <cc:prohibits
           rdf:resource="http://creativecommons.org/ns#CommercialUse" />
        <cc:permits
           rdf:resource="http://creativecommons.org/ns#DerivativeWorks" />
        <cc:requires
           rdf:resource="http://creativecommons.org/ns#ShareAlike" />
      </cc:License>
    </rdf:RDF>
  </metadata>
  <defs
     id="defs118">
    <inkscape:perspective
       id="perspective118"
       inkscape:persp3d-origin="372.04724 : 360.78739 : 1"
       inkscape:vp_x="0 : 536.18109 : 1"
       inkscape:vp_y="0 : 1000 : 0"
       inkscape:vp_z="744.09448 : 536.18109 : 1"
       sodipodi:type="inkscape:persp3d" />
    <inkscape:perspective
       id="perspective109"
       inkscape:persp3d-origin="372.04724 : 360.78739 : 1"
       inkscape:vp_x="0 : 536.18109 : 1"
       inkscape:vp_y="0 : 1000 : 0"
       inkscape:vp_z="744.09448 : 536.18109 : 1"
       sodipodi:type="inkscape:persp3d" />
    <inkscape:perspective
       id="perspective110"
       inkscape:persp3d-origin="372.04724 : 360.78739 : 1"
       inkscape:vp_x="0 : 536.18109 : 1"
       inkscape:vp_y="0 : 1000 : 0"
       inkscape:vp_z="744.09448 : 536.18109 : 1"
       sodipodi:type="inkscape:persp3d" />
    <inkscape:perspective
       id="perspective3496"
       inkscape:persp3d-origin="372.04724 : 360.78739 : 1"
       inkscape:vp_x="0 : 536.18109 : 1"
       inkscape:vp_y="0 : 1000 : 0"
       inkscape:vp_z="744.09448 : 536.18109 : 1"
       sodipodi:type="inkscape:persp3d" />
  </defs>
  <sodipodi:namedview
     bordercolor="#666666"
     borderopacity="1.0"
     gridtolerance="10.0"
     guidetolerance="10.0"
     id="base"
     inkscape:current-layer="svg118"
     inkscape:cx="37.501571"
     inkscape:cy="100.3076"
     inkscape:guide-bbox="true"
     inkscape:pageopacity="0.0"
     inkscape:pageshadow="2"
     inkscape:window-height="1009"
     inkscape:window-maximized="1"
     inkscape:window-width="1920"
     inkscape:window-x="1912"
     inkscape:window-y="-8"
     inkscape:zoom="2.7465516"
     objecttolerance="10.0"
     pagecolor="#ffffff"
     showgrid="false"
     showguides="false"
     inkscape:showpageshadow="2"
     inkscape:pagecheckerboard="0"
     inkscape:deskcolor="#d1d1d1" />
  <g
     id="g3730"
     transform="translate(4.9999954,5.0000002)"
     inkscape:label="sign_3_16"
     style="opacity:1">
    <path
       d="m 281.61136,-0.5172025 c -46.24606,0 -83.93438,37.6883205 -83.93438,83.9343745 0,46.246058 37.68832,83.934388 83.93438,83.934378 46.24605,0 83.93436,-37.68832 83.93437,-83.934378 0,-46.246054 -37.68832,-83.9343745 -83.93437,-83.9343745 z"
       id="path3157"
       sodipodi:nodetypes="csssc"
       style="fill:#ffffff;fill-opacity:1;fill-rule:evenodd;stroke:#000000;stroke-opacity:1;stroke-width:1.77687812;stroke-dasharray:none"
       transform="matrix(1.1255696,0,0,1.1255696,-221.97365,1.1076409)"
       inkscape:label="bg" />
    <path
       d="m 281.61118,3.479473 c -44.04386,0 -79.9375,35.893639 -79.9375,79.9375 0,44.043857 35.89364,79.937507 79.9375,79.937497 44.04386,0 79.93749,-35.89364 79.9375,-79.937497 0,-44.043861 -35.89364,-79.9375 -79.9375,-79.9375 z m 0,16 c 35.38686,0 63.9375,28.55064 63.9375,63.9375 -10e-6,35.386857 -28.55064,63.937497 -63.9375,63.937497 -35.38685,1e-5 -63.9375,-28.55064 -63.9375,-63.937497 0,-35.38686 28.55064,-63.9375 63.9375,-63.9375 z"
       id="path2385"
       style="fill:#ff0000;fill-opacity:1;fill-rule:evenodd;stroke:none"
       transform="matrix(1.1255696,0,0,1.1255696,-221.97365,1.1076409)"
       inkscape:label="red" />
    <g
       id="text3450"
       style="font-style:normal;font-variant:normal;font-weight:bold;font-stretch:normal;font-size:61.1781px;line-height:125%;font-family:Arial;-inkscape-font-specification:'Arial Bold';text-align:start;writing-mode:lr-tb;text-anchor:start;fill:#000000;fill-opacity:1;stroke:none"
       transform="matrix(1.0377366,0,0,0.96363563,-763.11509,0)"
       inkscape:label="sign">
      <path
         d="m 831.72988,54.784568 h 28.7071 v 8.584355 H 850.28046 V 90.115527 H 841.8864 V 63.368923 h -10.15652 v -8.584355"
         id="path3728"
         inkscape:label="T"
         sodipodi:nodetypes="ccccccccc" />
      <path
         d="m 792.36142,78.900279 8.49922,-1.007366 c 0.24283,2.200006 0.96121,3.948423 2.15516,5.245252 1.19392,1.273689 2.56998,1.910529 4.12819,1.910522 1.78077,7e-6 3.28836,-0.822096 4.52279,-2.466311 1.2344,-1.667353 1.8516,-4.168398 1.85163,-7.503142 -3e-5,-3.126289 -0.61723,-5.465228 -1.85163,-7.016827 -1.21418,-1.574709 -2.80273,-2.362074 -4.76563,-2.362101 -2.4486,2.7e-5 -4.64423,1.238971 -6.58689,3.716835 l -6.92079,-1.146314 4.37102,-26.504154 h 22.55329 v 9.13577 h -16.0878 l -1.3356,8.649455 c 1.90219,-1.088385 3.84487,-1.632594 5.82804,-1.632628 3.78415,3.4e-5 6.9916,1.574766 9.62233,4.724201 2.63068,3.149494 3.94603,7.236849 3.94608,12.26208 -5e-5,4.191582 -1.06245,7.931571 -3.18722,11.219975 -2.89381,4.492623 -6.9107,6.738933 -12.05068,6.738934 -4.10797,-10e-7 -7.45706,-1.262103 -10.0473,-3.786308 -2.59024,-2.5242 -4.13831,-5.916821 -4.64421,-10.177873"
         id="path3726"
         inkscape:label="5"
         style="font-style:normal;font-variant:normal;font-weight:bold;font-stretch:normal;font-size:61.1781px;line-height:125%;font-family:Arial;-inkscape-font-specification:'Arial Bold';text-align:start;writing-mode:lr-tb;text-anchor:start;fill:#000000;fill-opacity:1;stroke:none;stroke-width:1.08703" />
      <path
         class="fil2 str0"
         d="m 868.38736,94.677364 h 6.52855 c 1.88227,0 3.42216,1.657151 3.42216,3.685188 v 36.595958 c 0,2.02673 -1.53989,3.68518 -3.42216,3.68518 h -6.52855 c -1.88227,0 -3.42216,-1.65845 -3.42216,-3.68518 v -13.21333 h -26.20698 c -2.30945,3.81461 -6.61006,6.3897 -11.51621,6.3897 -4.90645,0 -9.20706,-2.57509 -11.51516,-6.3897 h -27.04684 v 13.02442 c 0,2.02673 -1.54028,3.68518 -3.42216,3.68518 h -6.35342 c -1.88198,0 -3.42187,-1.65845 -3.42187,-3.68518 V 123.44543 110.63 98.362552 c 0,-2.028037 1.53989,-3.685188 3.42187,-3.685188 h 6.35342 c 1.88188,0 3.42216,1.657151 3.42216,3.685188 V 112.897 h 27.04578 c 2.30916,-3.81465 6.60871,-6.3884 11.51622,-6.3884 4.90615,0 9.20773,2.57375 11.51727,6.3884 H 864.9652 V 98.362552 c 0,-2.028037 1.53989,-3.685188 3.42216,-3.685188 z"
         id="_143626528"
         sodipodi:nodetypes="cccccccccsccccccccccccccscccc"
         style="fill:#000000;fill-rule:evenodd;stroke:#000000;stroke-width:0.0167145"
         inkscape:label="1" />
    </g>
  </g>
</svg>
