<?xml version="1.0" encoding="UTF-8" standalone="no"?>
<!-- Created with Inkscape (http://www.inkscape.org/) -->

<svg
   height="200"
   id="svg118"
   inkscape:output_extension="org.inkscape.output.svg.inkscape"
   inkscape:version="1.3 (0e150ed6c4, 2023-07-21)"
   sodipodi:docname="3.17.svg"
   sodipodi:version="0.32"
   version="1.0"
   width="200"
   xmlns:inkscape="http://www.inkscape.org/namespaces/inkscape"
   xmlns:sodipodi="http://sodipodi.sourceforge.net/DTD/sodipodi-0.dtd"
   xmlns="http://www.w3.org/2000/svg"
   xmlns:svg="http://www.w3.org/2000/svg"
   xmlns:rdf="http://www.w3.org/1999/02/22-rdf-syntax-ns#"
   xmlns:cc="http://creativecommons.org/ns#"
   xmlns:dc="http://purl.org/dc/elements/1.1/">
  <title
     id="title1">Заборонні знаки » Дорожні знаки » ПДР Тест Центр</title>
  <metadata
     id="metadata118">
    <rdf:RDF>
      <cc:Work
         rdf:about="">
        <dc:format>&#10;					image/svg+xml&#10;				</dc:format>
        <dc:type
           rdf:resource="http://purl.org/dc/dcmitype/StillImage" />
        <dc:title>Заборонні знаки » Дорожні знаки » ПДР Тест Центр</dc:title>
        <cc:license
           rdf:resource="http://creativecommons.org/licenses/by-nc-sa/4.0/" />
        <dc:creator>
          <cc:Agent>
            <dc:title>ПДР Тест Центр | PDR Test Center</dc:title>
          </cc:Agent>
        </dc:creator>
        <dc:rights>
          <cc:Agent>
            <dc:title>ПДР Тест Центр | PDR Test Center</dc:title>
          </cc:Agent>
        </dc:rights>
        <dc:language>uk-UA</dc:language>
        <dc:date>2023-09-01</dc:date>
        <dc:publisher>
          <cc:Agent>
            <dc:title>https://pdrtest.com/</dc:title>
          </cc:Agent>
        </dc:publisher>
        <dc:source>https://pdrtest.com/driver/rules/section/33.3</dc:source>
      </cc:Work>
      <cc:License
         rdf:about="http://creativecommons.org/licenses/by-nc-sa/4.0/">
        <cc:permits
           rdf:resource="http://creativecommons.org/ns#Reproduction" />
        <cc:permits
           rdf:resource="http://creativecommons.org/ns#Distribution" />
        <cc:requires
           rdf:resource="http://creativecommons.org/ns#Notice" />
        <cc:requires
           rdf:resource="http://creativecommons.org/ns#Attribution" />
        <cc:prohibits
           rdf:resource="http://creativecommons.org/ns#CommercialUse" />
        <cc:permits
           rdf:resource="http://creativecommons.org/ns#DerivativeWorks" />
        <cc:requires
           rdf:resource="http://creativecommons.org/ns#ShareAlike" />
      </cc:License>
    </rdf:RDF>
  </metadata>
  <defs
     id="defs118">
    <inkscape:perspective
       id="perspective118"
       inkscape:persp3d-origin="372.04724 : 360.78739 : 1"
       inkscape:vp_x="0 : 536.18109 : 1"
       inkscape:vp_y="0 : 1000 : 0"
       inkscape:vp_z="744.09448 : 536.18109 : 1"
       sodipodi:type="inkscape:persp3d" />
    <inkscape:perspective
       id="perspective109"
       inkscape:persp3d-origin="372.04724 : 360.78739 : 1"
       inkscape:vp_x="0 : 536.18109 : 1"
       inkscape:vp_y="0 : 1000 : 0"
       inkscape:vp_z="744.09448 : 536.18109 : 1"
       sodipodi:type="inkscape:persp3d" />
    <inkscape:perspective
       id="perspective110"
       inkscape:persp3d-origin="372.04724 : 360.78739 : 1"
       inkscape:vp_x="0 : 536.18109 : 1"
       inkscape:vp_y="0 : 1000 : 0"
       inkscape:vp_z="744.09448 : 536.18109 : 1"
       sodipodi:type="inkscape:persp3d" />
    <inkscape:perspective
       id="perspective3496"
       inkscape:persp3d-origin="372.04724 : 360.78739 : 1"
       inkscape:vp_x="0 : 536.18109 : 1"
       inkscape:vp_y="0 : 1000 : 0"
       inkscape:vp_z="744.09448 : 536.18109 : 1"
       sodipodi:type="inkscape:persp3d" />
    <inkscape:perspective
       id="perspective111"
       inkscape:persp3d-origin="372.04724 : 360.78739 : 1"
       inkscape:vp_x="0 : 536.18109 : 1"
       inkscape:vp_y="0 : 1000 : 0"
       inkscape:vp_z="744.09448 : 536.18109 : 1"
       sodipodi:type="inkscape:persp3d" />
  </defs>
  <sodipodi:namedview
     bordercolor="#666666"
     borderopacity="1.0"
     gridtolerance="10.0"
     guidetolerance="10.0"
     id="base"
     inkscape:current-layer="svg118"
     inkscape:cx="99.634147"
     inkscape:cy="104.39702"
     inkscape:guide-bbox="true"
     inkscape:pageopacity="0.0"
     inkscape:pageshadow="2"
     inkscape:window-height="1009"
     inkscape:window-maximized="1"
     inkscape:window-width="1920"
     inkscape:window-x="1912"
     inkscape:window-y="-8"
     inkscape:zoom="3.8842105"
     objecttolerance="10.0"
     pagecolor="#ffffff"
     showgrid="false"
     showguides="false"
     inkscape:showpageshadow="2"
     inkscape:pagecheckerboard="0"
     inkscape:deskcolor="#d1d1d1" />
  <g
     id="g3699"
     transform="translate(5.0004703,5)"
     inkscape:label="sign_3_17"
     style="display:inline;opacity:1">
    <path
       d="m 94.999536,0.52549349 c -52.053159,0 -94.47398669,42.42082751 -94.47398669,94.47398051 0,52.053156 42.42082769,94.473996 94.47398669,94.473986 52.053144,0 94.473964,-42.42083 94.473974,-94.473986 0,-52.053153 -42.42083,-94.47398051 -94.473974,-94.47398051 z"
       id="path3157"
       sodipodi:nodetypes="csssc"
       style="fill:#ffffff;fill-opacity:1;fill-rule:evenodd;stroke:#000000;stroke-width:2;stroke-dasharray:none;stroke-opacity:1"
       inkscape:label="bg" />
    <g
       id="text3613"
       style="font-style:normal;font-variant:normal;font-weight:bold;font-stretch:normal;font-size:52.833px;line-height:125%;font-family:Arial;-inkscape-font-specification:'Sans Bold';text-align:start;writing-mode:lr-tb;text-anchor:start;fill:#000000;fill-opacity:1;stroke:none"
       transform="translate(-736)"
       inkscape:label="sign">
      <path
         class="fil2 str0"
         d="m 384.68892,554.81677 -21.7956,-24.84541 21.7969,-25.2311 -0.001,50.07651 z m -130.1825,-50.07651 21.797,25.2324 -21.797,24.84281 z"
         id="_144395520"
         sodipodi:nodetypes="cccccccc"
         style="fill:#000000;fill-rule:evenodd;stroke:#000000;stroke-width:0.0156673"
         transform="matrix(1.138136,0,0,1,466.67753,-434.09468)"
         inkscape:label="main" />
      <path
         d="m 816.3865,121.30603 h 8.30259 l 6.29851,17.65492 6.34623,-17.65492 h 8.27872 v 25.3372 h -5.70206 v -16.67674 l -6.17922,16.67674 h -5.72592 l -5.89293,-16.67674 v 16.67674 h -5.72592 v -25.3372"
         id="path3697"
         inkscape:label="M"
         style="stroke-width:0.924823" />
      <path
         d="m 846.66338,76.040792 v -6.876394 h 25.31883 v 5.374653 c -2.09016,2.055045 -4.21544,5.005832 -6.37581,8.852369 -2.16042,3.846585 -3.81146,7.939046 -4.95311,12.277393 -1.12413,4.320804 -1.6774,8.184937 -1.65983,11.592387 h -7.13985 c 0.12295,-5.33952 1.2207,-10.784423 3.29329,-16.334727 2.09014,-5.550273 4.87406,-10.512162 8.35179,-14.885681 h -16.83531"
         id="path3694"
         style="font-style:normal;font-variant:normal;font-weight:bold;font-stretch:normal;font-size:61.6385px;line-height:125%;font-family:Arial;-inkscape-font-specification:'Arial Bold';text-align:start;writing-mode:lr-tb;text-anchor:start;fill:#000000;fill-opacity:1;stroke:none;stroke-width:0.875382"
         inkscape:label="7" />
      <path
         d="m 833.53898,97.533574 h 9.17117 v 6.560156 c -10e-6,2.65453 -0.22848,4.74333 -0.68539,6.26643 -0.45694,1.54483 -1.32728,2.9265 -2.61101,4.14497 -1.262,1.21846 -2.87212,2.17582 -4.83036,2.87211 l -1.79507,-3.78596 c 1.84946,-0.60925 3.16584,-1.44695 3.94915,-2.5131 0.78329,-1.06616 1.19671,-2.52398 1.24022,-4.37344 h -4.43871 v -9.171166"
         id="path3692"
         style="font-style:normal;font-variant:normal;font-weight:bold;font-stretch:normal;font-size:61.6385px;line-height:125%;font-family:Arial;-inkscape-font-specification:'Arial Bold';text-align:start;writing-mode:lr-tb;text-anchor:start;fill:#000000;fill-opacity:1;stroke:none;stroke-width:1.08442"
         inkscape:label="," />
      <path
         d="m 825.36452,97.616164 v 8.742146 h -32.99238 c 0.35728,-3.30482 1.42912,-6.430999 3.2155,-9.378547 1.78639,-2.96986 5.3145,-6.899913 10.58437,-11.790169 4.24265,-3.95236 6.84408,-6.631942 7.80428,-8.038751 1.2951,-1.942667 1.94268,-3.863034 1.9427,-5.761105 -2e-5,-2.09897 -0.56944,-3.706719 -1.70824,-4.823252 -1.11652,-1.138781 -2.66844,-1.708192 -4.65577,-1.708234 -1.96504,4.2e-5 -3.52814,0.591783 -4.68927,1.775224 -1.16118,1.183521 -1.83106,3.148548 -2.00969,5.895085 l -9.37855,-0.937855 c 0.55825,-5.180488 2.31114,-8.898407 5.25868,-11.153767 2.94754,-2.255268 6.63197,-3.382925 11.05329,-3.382974 4.84556,4.9e-5 8.6528,1.306345 11.42173,3.91889 2.76887,2.612638 4.15332,5.86163 4.15335,9.746987 -3e-5,2.210689 -0.40197,4.32086 -1.20581,6.330517 -0.78158,1.987384 -2.03205,4.075224 -3.75142,6.263527 -1.13885,1.451462 -3.1932,3.539302 -6.16304,6.263527 -2.96989,2.724257 -4.85676,4.532974 -5.66062,5.426156 -0.78156,0.893206 -1.41796,1.764069 -1.90921,2.612595 h 18.6901"
         id="path3690"
         style="font-style:normal;font-variant:normal;font-weight:bold;font-stretch:normal;font-size:61.6385px;line-height:125%;font-family:Arial;-inkscape-font-specification:'Arial Bold';text-align:start;writing-mode:lr-tb;text-anchor:start;fill:#000000;fill-opacity:1;stroke:none;stroke-width:1.1129"
         inkscape:label="2" />
    </g>
    <path
       d="m 94.999335,5.0240299 c -49.57443,0 -89.9752201,40.4007891 -89.9752201,89.9752201 0,49.57443 40.4007901,89.97523 89.9752201,89.97522 49.574425,0 89.975205,-40.40079 89.975215,-89.97522 0,-49.574431 -40.40079,-89.9752201 -89.975215,-89.9752201 z m 0,18.0091141 c 39.830375,0 71.966105,32.135732 71.966105,71.966106 -1e-5,39.83037 -32.13573,71.9661 -71.966105,71.9661 -39.830362,1e-5 -71.966106,-32.13573 -71.966106,-71.9661 0,-39.830374 32.135732,-71.966106 71.966106,-71.966106 z"
       id="path2385"
       style="fill:#ff0000;fill-opacity:1;fill-rule:evenodd;stroke:none"
       inkscape:label="red" />
  </g>
</svg>
