<?xml version="1.0" encoding="UTF-8" standalone="no"?>
<!-- Created with Inkscape (http://www.inkscape.org/) -->

<svg
   height="200"
   id="svg118"
   inkscape:output_extension="org.inkscape.output.svg.inkscape"
   inkscape:version="1.3 (0e150ed6c4, 2023-07-21)"
   sodipodi:docname="3.18.svg"
   sodipodi:version="0.32"
   version="1.0"
   width="200"
   xmlns:inkscape="http://www.inkscape.org/namespaces/inkscape"
   xmlns:sodipodi="http://sodipodi.sourceforge.net/DTD/sodipodi-0.dtd"
   xmlns="http://www.w3.org/2000/svg"
   xmlns:svg="http://www.w3.org/2000/svg"
   xmlns:rdf="http://www.w3.org/1999/02/22-rdf-syntax-ns#"
   xmlns:cc="http://creativecommons.org/ns#"
   xmlns:dc="http://purl.org/dc/elements/1.1/">
  <title
     id="title1">Заборонні знаки » Дорожні знаки » ПДР Тест Центр</title>
  <metadata
     id="metadata118">
    <rdf:RDF>
      <cc:Work
         rdf:about="">
        <dc:format>&#10;					image/svg+xml&#10;				</dc:format>
        <dc:type
           rdf:resource="http://purl.org/dc/dcmitype/StillImage" />
        <dc:title>Заборонні знаки » Дорожні знаки » ПДР Тест Центр</dc:title>
        <cc:license
           rdf:resource="http://creativecommons.org/licenses/by-nc-sa/4.0/" />
        <dc:creator>
          <cc:Agent>
            <dc:title>ПДР Тест Центр | PDR Test Center</dc:title>
          </cc:Agent>
        </dc:creator>
        <dc:rights>
          <cc:Agent>
            <dc:title>ПДР Тест Центр | PDR Test Center</dc:title>
          </cc:Agent>
        </dc:rights>
        <dc:language>uk-UA</dc:language>
        <dc:date>2023-09-01</dc:date>
        <dc:publisher>
          <cc:Agent>
            <dc:title>https://pdrtest.com/</dc:title>
          </cc:Agent>
        </dc:publisher>
        <dc:source>https://pdrtest.com/driver/rules/section/33.3</dc:source>
      </cc:Work>
      <cc:License
         rdf:about="http://creativecommons.org/licenses/by-nc-sa/4.0/">
        <cc:permits
           rdf:resource="http://creativecommons.org/ns#Reproduction" />
        <cc:permits
           rdf:resource="http://creativecommons.org/ns#Distribution" />
        <cc:requires
           rdf:resource="http://creativecommons.org/ns#Notice" />
        <cc:requires
           rdf:resource="http://creativecommons.org/ns#Attribution" />
        <cc:prohibits
           rdf:resource="http://creativecommons.org/ns#CommercialUse" />
        <cc:permits
           rdf:resource="http://creativecommons.org/ns#DerivativeWorks" />
        <cc:requires
           rdf:resource="http://creativecommons.org/ns#ShareAlike" />
      </cc:License>
    </rdf:RDF>
  </metadata>
  <defs
     id="defs118">
    <inkscape:perspective
       id="perspective118"
       inkscape:persp3d-origin="372.04724 : 360.78737 : 1"
       inkscape:vp_x="0 : 536.18107 : 1"
       inkscape:vp_y="0 : 1000 : 0"
       inkscape:vp_z="744.09448 : 536.18107 : 1"
       sodipodi:type="inkscape:persp3d" />
    <inkscape:perspective
       id="perspective109"
       inkscape:persp3d-origin="372.04724 : 360.78737 : 1"
       inkscape:vp_x="0 : 536.18107 : 1"
       inkscape:vp_y="0 : 1000 : 0"
       inkscape:vp_z="744.09448 : 536.18107 : 1"
       sodipodi:type="inkscape:persp3d" />
    <inkscape:perspective
       id="perspective110"
       inkscape:persp3d-origin="372.04724 : 360.78737 : 1"
       inkscape:vp_x="0 : 536.18107 : 1"
       inkscape:vp_y="0 : 1000 : 0"
       inkscape:vp_z="744.09448 : 536.18107 : 1"
       sodipodi:type="inkscape:persp3d" />
    <inkscape:perspective
       id="perspective3496"
       inkscape:persp3d-origin="372.04724 : 360.78737 : 1"
       inkscape:vp_x="0 : 536.18107 : 1"
       inkscape:vp_y="0 : 1000 : 0"
       inkscape:vp_z="744.09448 : 536.18107 : 1"
       sodipodi:type="inkscape:persp3d" />
    <inkscape:perspective
       id="perspective111"
       inkscape:persp3d-origin="372.04724 : 360.78737 : 1"
       inkscape:vp_x="0 : 536.18107 : 1"
       inkscape:vp_y="0 : 1000 : 0"
       inkscape:vp_z="744.09448 : 536.18107 : 1"
       sodipodi:type="inkscape:persp3d" />
  </defs>
  <sodipodi:namedview
     bordercolor="#666666"
     borderopacity="1.0"
     gridtolerance="10.0"
     guidetolerance="10.0"
     id="base"
     inkscape:current-layer="svg118"
     inkscape:cx="37.137481"
     inkscape:cy="151.28062"
     inkscape:guide-bbox="true"
     inkscape:pageopacity="0.0"
     inkscape:pageshadow="2"
     inkscape:window-height="1009"
     inkscape:window-maximized="1"
     inkscape:window-width="1920"
     inkscape:window-x="1912"
     inkscape:window-y="-8"
     inkscape:zoom="2.7465514"
     objecttolerance="10.0"
     pagecolor="#ffffff"
     showgrid="false"
     showguides="false"
     inkscape:showpageshadow="2"
     inkscape:pagecheckerboard="0"
     inkscape:deskcolor="#d1d1d1" />
  <g
     id="g3653"
     transform="translate(5.7281861,4.9999929)"
     inkscape:label="sign_3_18"
     style="opacity:1">
    <path
       d="m 281.61136,-0.5172025 c -46.24606,0 -83.93438,37.6883205 -83.93438,83.9343745 0,46.246058 37.68832,83.934388 83.93438,83.934378 46.24605,0 83.93436,-37.68832 83.93437,-83.934378 0,-46.246054 -37.68832,-83.9343745 -83.93437,-83.9343745 z"
       id="path3157"
       sodipodi:nodetypes="csssc"
       style="fill:#ffffff;fill-opacity:1;fill-rule:evenodd;stroke:#000000;stroke-width:1.77688;stroke-dasharray:none;stroke-opacity:1"
       inkscape:label="bg"
       transform="matrix(0,-1.1255696,1.1255696,0,1.1076409,411.97366)" />
    <g
       id="g3619"
       transform="matrix(1.1006883,0,0,1.1006883,-746.92553,4.634787)"
       inkscape:label="sign">
      <path
         class="fil2 str0"
         d="m 384.68892,554.81677 -21.7956,-24.84541 21.7969,-25.2311 -0.001,50.07651 z m -130.1825,-50.07651 21.797,25.2324 -21.797,24.84281 z"
         id="_144395520"
         sodipodi:nodetypes="cccccccc"
         style="fill:#000000;fill-rule:evenodd;stroke:#000000;stroke-width:0.0156673"
         transform="matrix(0,-1.0340221,0.90852242,0,284.21384,413.09396)"
         inkscape:label="main" />
      <path
         d="m 752.20669,102.3519 h 7.6864 l 5.83106,16.34464 5.87523,-16.34464 h 7.66431 v 23.45676 h -5.27888 V 110.3696 l -5.72062,15.43906 h -5.30096 l -5.45558,-15.43906 v 15.43906 h -5.30096 V 102.3519"
         id="path3651"
         style="font-style:normal;font-variant:normal;font-weight:bold;font-stretch:normal;font-size:48px;line-height:125%;font-family:Arial;-inkscape-font-specification:'Sans Bold';text-align:start;writing-mode:lr-tb;text-anchor:start;fill:#000000;fill-opacity:1;stroke:none;stroke-width:0.942394"
         inkscape:label="M" />
      <path
         d="m 779.29868,82.114173 6.59349,-0.682898 c 0.18838,1.491394 0.74568,2.676651 1.67192,3.555777 0.92622,0.863438 1.99373,1.295155 3.20255,1.29515 1.38148,5e-6 2.55104,-0.557302 3.50868,-1.671921 0.95761,-1.130306 1.43643,-2.825774 1.43644,-5.086409 -10e-6,-2.119324 -0.47883,-3.7049 -1.43644,-4.756734 -0.94194,-1.067501 -2.1743,-1.601259 -3.69706,-1.601276 -1.89957,1.7e-5 -3.60288,0.839902 -5.10996,2.519656 l -5.36899,-0.777091 3.39094,-17.967267 h 17.49631 v 6.193173 h -12.48054 l -1.03612,5.863499 c 1.47568,-0.73782 2.98275,-1.106741 4.52125,-1.106764 2.93566,2.3e-5 5.42391,1.06754 7.46478,3.202553 2.04081,2.135053 3.06123,4.905888 3.06126,8.31251 -3e-5,2.84149 -0.82421,5.376842 -2.47256,7.606065 -2.24494,3.045566 -5.36115,4.568348 -9.34863,4.568348 -3.18686,0 -5.78502,-0.855583 -7.79445,-2.566753 -2.00945,-1.711163 -3.21041,-4.011035 -3.60287,-6.899618"
         id="path3648"
         style="font-style:normal;font-variant:normal;font-weight:bold;font-stretch:normal;font-size:56px;line-height:125%;font-family:Arial;-inkscape-font-specification:'Arial Bold';text-align:start;writing-mode:lr-tb;text-anchor:start;fill:#000000;fill-opacity:1;stroke:none;stroke-width:0.861191"
         inkscape:label="5" />
      <path
         d="m 767.78882,81.722831 h 7.68359 v 5.496093 c -10e-6,2.223959 -0.19141,3.973957 -0.57422,5.25 -0.38282,1.294267 -1.11198,2.451818 -2.1875,3.472657 -1.05729,1.020825 -2.40625,1.822908 -4.04687,2.40625 l -1.50391,-3.171875 c 1.54948,-0.510422 2.65234,-1.212244 3.3086,-2.105469 0.65624,-0.893232 1.00259,-2.114585 1.03906,-3.664063 h -3.71875 v -7.683593"
         id="path3646"
         style="font-style:normal;font-variant:normal;font-weight:bold;font-stretch:normal;font-size:56px;line-height:125%;font-family:Arial;-inkscape-font-specification:'Arial Bold';text-align:start;writing-mode:lr-tb;text-anchor:start;fill:#000000;fill-opacity:1;stroke:none"
         inkscape:label="," />
      <path
         d="m 730.21626,78.580804 8.32998,-1.010623 c 0.26541,2.123339 0.97999,3.746459 2.14375,4.869364 1.16372,1.122921 2.57247,1.684377 4.22624,1.684371 1.77622,6e-6 3.26664,-0.673742 4.47124,-2.021246 1.22498,-1.347487 1.83747,-3.164564 1.83749,-5.451237 -2e-5,-2.164146 -0.58189,-3.879141 -1.74561,-5.14499 -1.16378,-1.26581 -2.58273,-1.898724 -4.25687,-1.898745 -1.10251,2.1e-5 -2.41938,0.214396 -3.95062,0.643124 l 0.94937,-7.013109 c 2.32749,0.06127 4.10372,-0.438929 5.32874,-1.500622 1.22498,-1.082052 1.83748,-2.511213 1.8375,-4.287491 -2e-5,-1.510795 -0.44919,-2.715375 -1.34751,-3.613742 -0.89834,-0.898293 -2.09271,-1.347459 -3.58311,-1.347497 -1.47001,3.8e-5 -2.72563,0.510453 -3.76686,1.531246 -1.04127,1.020866 -1.67418,2.511279 -1.89875,4.471241 l -7.93185,-1.347497 c 0.55123,-2.715374 1.37811,-4.879535 2.48061,-6.492486 1.12291,-1.633289 2.67456,-2.909326 4.65499,-3.828117 2.00082,-0.93912 4.23643,-1.408701 6.70686,-1.408747 4.22622,4.6e-5 7.61538,1.347542 10.16748,4.042491 2.10289,2.205035 3.15434,4.69586 3.15436,7.472484 -2e-5,3.940438 -2.15398,7.084595 -6.46186,9.432479 2.57247,0.551273 4.62434,1.786477 6.15562,3.705617 1.55162,1.919181 2.32746,4.236466 2.3275,6.951859 -4e-5,3.940418 -1.43941,7.29895 -4.31813,10.075603 -2.87876,2.776661 -6.46187,4.164991 -10.74934,4.164991 -4.06292,0 -7.43166,-1.163747 -10.10623,-3.491241 -2.67459,-2.347907 -4.22624,-5.410397 -4.65499,-9.18748"
         id="path3644"
         style="font-style:normal;font-variant:normal;font-weight:bold;font-stretch:normal;font-size:56px;line-height:125%;font-family:Arial;-inkscape-font-specification:'Arial Bold';text-align:start;writing-mode:lr-tb;text-anchor:start;fill:#000000;fill-opacity:1;stroke:none;stroke-width:1.12"
         inkscape:label="3" />
    </g>
    <path
       d="m 5.0240299,95.000675 c 0,49.574435 40.4007891,89.975225 89.9752201,89.975225 49.57443,0 89.97523,-40.40079 89.97522,-89.975225 0,-49.574427 -40.40079,-89.9752075 -89.97522,-89.9752175 -49.574431,0 -89.9752201,40.4007905 -89.9752201,89.9752175 z m 18.0091141,0 c 0,-39.830377 32.135732,-71.966107 71.966106,-71.966107 39.83037,10e-6 71.9661,32.13573 71.9661,71.966107 1e-5,39.830365 -32.13573,71.966105 -71.9661,71.966105 -39.830374,0 -71.966106,-32.13573 -71.966106,-71.966105 z"
       id="path2385"
       style="fill:#ff0000;fill-opacity:1;fill-rule:evenodd;stroke:none"
       inkscape:label="red" />
  </g>
</svg>
