<?xml version="1.0" encoding="UTF-8" standalone="no"?>
<!-- Created with Inkscape (http://www.inkscape.org/) -->

<svg
   height="200"
   id="svg118"
   inkscape:output_extension="org.inkscape.output.svg.inkscape"
   inkscape:version="1.3 (0e150ed6c4, 2023-07-21)"
   sodipodi:docname="3.19.svg"
   sodipodi:version="0.32"
   version="1.0"
   width="200"
   xmlns:inkscape="http://www.inkscape.org/namespaces/inkscape"
   xmlns:sodipodi="http://sodipodi.sourceforge.net/DTD/sodipodi-0.dtd"
   xmlns="http://www.w3.org/2000/svg"
   xmlns:svg="http://www.w3.org/2000/svg"
   xmlns:rdf="http://www.w3.org/1999/02/22-rdf-syntax-ns#"
   xmlns:cc="http://creativecommons.org/ns#"
   xmlns:dc="http://purl.org/dc/elements/1.1/">
  <title
     id="title1">Заборонні знаки » Дорожні знаки » ПДР Тест Центр</title>
  <metadata
     id="metadata118">
    <rdf:RDF>
      <cc:Work
         rdf:about="">
        <dc:format>&#10;					image/svg+xml&#10;				</dc:format>
        <dc:type
           rdf:resource="http://purl.org/dc/dcmitype/StillImage" />
        <dc:title>Заборонні знаки » Дорожні знаки » ПДР Тест Центр</dc:title>
        <cc:license
           rdf:resource="http://creativecommons.org/licenses/by-nc-sa/4.0/" />
        <dc:creator>
          <cc:Agent>
            <dc:title>ПДР Тест Центр | PDR Test Center</dc:title>
          </cc:Agent>
        </dc:creator>
        <dc:rights>
          <cc:Agent>
            <dc:title>ПДР Тест Центр | PDR Test Center</dc:title>
          </cc:Agent>
        </dc:rights>
        <dc:language>uk-UA</dc:language>
        <dc:date>2023-09-01</dc:date>
        <dc:publisher>
          <cc:Agent>
            <dc:title>https://pdrtest.com/</dc:title>
          </cc:Agent>
        </dc:publisher>
        <dc:source>https://pdrtest.com/driver/rules/section/33.3</dc:source>
      </cc:Work>
      <cc:License
         rdf:about="http://creativecommons.org/licenses/by-nc-sa/4.0/">
        <cc:permits
           rdf:resource="http://creativecommons.org/ns#Reproduction" />
        <cc:permits
           rdf:resource="http://creativecommons.org/ns#Distribution" />
        <cc:requires
           rdf:resource="http://creativecommons.org/ns#Notice" />
        <cc:requires
           rdf:resource="http://creativecommons.org/ns#Attribution" />
        <cc:prohibits
           rdf:resource="http://creativecommons.org/ns#CommercialUse" />
        <cc:permits
           rdf:resource="http://creativecommons.org/ns#DerivativeWorks" />
        <cc:requires
           rdf:resource="http://creativecommons.org/ns#ShareAlike" />
      </cc:License>
    </rdf:RDF>
  </metadata>
  <defs
     id="defs118">
    <inkscape:perspective
       id="perspective118"
       inkscape:persp3d-origin="372.04724 : 360.78739 : 1"
       inkscape:vp_x="0 : 536.18109 : 1"
       inkscape:vp_y="0 : 1000 : 0"
       inkscape:vp_z="744.09448 : 536.18109 : 1"
       sodipodi:type="inkscape:persp3d" />
    <inkscape:perspective
       id="perspective109"
       inkscape:persp3d-origin="372.04724 : 360.78739 : 1"
       inkscape:vp_x="0 : 536.18109 : 1"
       inkscape:vp_y="0 : 1000 : 0"
       inkscape:vp_z="744.09448 : 536.18109 : 1"
       sodipodi:type="inkscape:persp3d" />
    <inkscape:perspective
       id="perspective112"
       inkscape:persp3d-origin="372.04724 : 360.78739 : 1"
       inkscape:vp_x="0 : 536.18109 : 1"
       inkscape:vp_y="0 : 1000 : 0"
       inkscape:vp_z="744.09448 : 536.18109 : 1"
       sodipodi:type="inkscape:persp3d" />
    <inkscape:path-effect
       effect="fillet_chamfer"
       id="path-effect1"
       is_visible="true"
       lpeversion="1"
       nodesatellites_param="F,0,0,1,0,0,0,1 @ F,0,0,1,0,0,0,1 @ F,0,0,1,0,0,0,1 @ F,0,0,1,0,0,0,1 @ F,0,0,1,0,0,0,1 @ F,0,0,1,0,0,0,1 @ F,0,0,1,0,0,0,1 @ F,0,0,1,0,0,0,1 | F,0,0,1,0,0,0,1 @ F,0,0,1,0,0,0,1 @ F,0,0,1,0,0,0,1 @ F,0,0,1,0,0,0,1 | F,0,0,1,0,0,0,1 @ F,0,0,1,0,0,0,1 @ F,0,0,1,0,0,0,1 @ F,0,0,1,0,0,0,1 | F,0,0,1,0,0,0,1 @ F,0,0,1,0,0,0,1 @ F,0,0,1,0,0,0,1 @ F,0,0,1,0,0,0,1 | F,0,0,1,0,0,0,1 @ F,0,0,1,0,0,0,1 @ F,0,0,1,0,0,0,1 @ F,0,0,1,0,0,0,1 | F,0,0,1,0,0,0,1 @ F,0,0,1,0,0,0,1 @ F,0,0,1,0,0,0,1 @ F,0,0,1,0,0,0,1 @ F,0,0,1,0,0,0,1 @ F,0,0,1,0,0,0,1 @ F,0,0,1,0,1.2368237,0,1 @ F,0,0,1,0,1.3025606,0,1 @ F,0,0,1,0,0,0,1 @ F,0,0,1,0,0,0,1 @ F,0,0,1,0,0,0,1 @ F,0,0,1,0,0,0,1 @ F,0,0,1,0,0,0,1 @ F,0,0,1,0,0,0,1 @ F,0,0,1,0,0,0,1 @ F,0,0,1,0,0,0,1 | F,0,0,1,0,0,0,1 @ F,0,0,1,0,0,0,1 @ F,0,0,1,0,0,0,1 @ F,0,0,1,0,0,0,1 @ F,0,0,1,0,0,0,1 @ F,0,0,1,0,0,0,1 @ F,0,0,1,0,0,0,1 @ F,0,0,1,0,0,0,1 | F,0,0,1,0,0,0,1 @ F,0,0,1,0,0,0,1 @ F,0,0,1,0,0,0,1 @ F,0,0,1,0,0,0,1 @ F,0,0,1,0,0,0,1 @ F,0,0,1,0,0,0,1 @ F,0,0,1,0,0,0,1 @ F,0,0,1,0,0,0,1"
       radius="0"
       unit="px"
       method="auto"
       mode="F"
       chamfer_steps="1"
       flexible="false"
       use_knot_distance="true"
       apply_no_radius="true"
       apply_with_radius="true"
       only_selected="false"
       hide_knots="false" />
  </defs>
  <sodipodi:namedview
     bordercolor="#666666"
     borderopacity="1.0"
     gridtolerance="10.0"
     guidetolerance="10.0"
     id="base"
     inkscape:current-layer="svg118"
     inkscape:cx="-8.2384822"
     inkscape:cy="120.74526"
     inkscape:guide-bbox="true"
     inkscape:pageopacity="0.0"
     inkscape:pageshadow="2"
     inkscape:window-height="1009"
     inkscape:window-maximized="1"
     inkscape:window-width="1920"
     inkscape:window-x="1912"
     inkscape:window-y="-8"
     inkscape:zoom="1.9421053"
     objecttolerance="10.0"
     pagecolor="#ffffff"
     showgrid="false"
     showguides="false"
     inkscape:showpageshadow="2"
     inkscape:pagecheckerboard="0"
     inkscape:deskcolor="#d1d1d1" />
  <g
     id="g3616"
     transform="translate(4.9999971,5.0000002)"
     inkscape:label="sign_3_19"
     style="opacity:1">
    <path
       d="m 281.61136,-0.5172025 c -46.24606,0 -83.93438,37.6883205 -83.93438,83.9343745 0,46.246058 37.68832,83.934388 83.93438,83.934378 46.24605,0 83.93436,-37.68832 83.93437,-83.934378 0,-46.246054 -37.68832,-83.9343745 -83.93437,-83.9343745 z"
       id="path3157"
       sodipodi:nodetypes="csssc"
       style="fill:#ffffff;fill-opacity:1;fill-rule:evenodd;stroke:#000000;stroke-opacity:1;stroke-width:1.77687812;stroke-dasharray:none"
       transform="matrix(1.1255696,0,0,1.1255696,-221.97365,1.1076409)"
       inkscape:label="bg" />
    <path
       d="m 281.61118,3.479473 c -44.04386,0 -79.9375,35.893639 -79.9375,79.9375 0,44.043857 35.89364,79.937507 79.9375,79.937497 44.04386,0 79.93749,-35.89364 79.9375,-79.937497 0,-44.043861 -35.89364,-79.9375 -79.9375,-79.9375 z m 0,16 c 35.38686,0 63.9375,28.55064 63.9375,63.9375 -10e-6,35.386857 -28.55064,63.937497 -63.9375,63.937497 -35.38685,1e-5 -63.9375,-28.55064 -63.9375,-63.937497 0,-35.38686 28.55064,-63.9375 63.9375,-63.9375 z"
       id="path2385"
       style="fill:#ff0000;fill-opacity:1;fill-rule:evenodd;stroke:none"
       transform="matrix(1.1255696,0,0,1.1255696,-221.97365,1.1076409)"
       inkscape:label="red" />
    <g
       id="g2462"
       transform="translate(-508)"
       inkscape:label="sign">
      <path
         class="fil2 str0"
         d="m 636.73504,104.28536 15.23976,17.37273 -15.23976,17.64147 z m -67.4688,35.19625 -15.24103,-17.37146 15.24103,-17.64274 z"
         id="_146952896"
         sodipodi:nodetypes="cccccccc"
         style="fill:#000000;fill-rule:evenodd;stroke:#000000;stroke-width:0.0167145"
         inkscape:label="arr" />
      <path
         d="m 596.86554,128.87404 h -5.94726 v -22.41335 c -2.1729,2.03182 -4.73382,3.53451 -7.68276,4.50807 v -5.39698 c 1.55207,-0.50794 3.23819,-1.46739 5.05835,-2.8784 1.82014,-1.42506 3.06886,-3.082945 3.74614,-4.973686 h 4.82553 v 31.154346"
         id="path3609"
         style="font-style:normal;font-variant:normal;font-weight:bold;font-stretch:normal;font-size:36px;line-height:125%;font-family:Arial;-inkscape-font-specification:'Arial Bold';text-align:start;writing-mode:lr-tb;text-anchor:start;fill:#000000;fill-opacity:1;stroke:none;stroke-width:1.20403"
         inkscape:label="1" />
      <path
         d="m 611.87882,97.173554 c 3.01414,3.7e-5 5.37026,1.075499 7.06838,3.226416 2.02355,2.54718 3.03534,6.77123 3.03536,12.67213 -2e-5,5.88678 -1.01888,10.1179 -3.05659,12.69336 -1.68396,2.12263 -4.03301,3.18394 -7.04715,3.18394 -3.0283,0 -5.46933,-1.16037 -7.32309,-3.48112 -1.85377,-2.33489 -2.78065,-6.48817 -2.78065,-12.45986 0,-5.85845 1.01886,-10.07542 3.0566,-12.6509 1.68394,-2.122619 4.03298,-3.183929 7.04714,-3.183966 m 0,4.945736 c -0.7217,4e-5 -1.36556,0.23353 -1.93159,0.70048 -0.56605,0.45285 -1.00473,1.2736 -1.31604,2.46225 -0.41038,1.54248 -0.61557,4.13917 -0.61556,7.79008 -10e-6,3.65093 0.18395,6.16272 0.55188,7.53535 0.36792,1.3585 0.82783,2.26415 1.37972,2.71697 0.56603,0.45284 1.20989,0.67925 1.93159,0.67925 0.72169,0 1.36555,-0.22641 1.9316,-0.67925 0.56602,-0.46696 1.0047,-1.2948 1.31604,-2.48348 0.41036,-1.52829 0.61555,-4.11791 0.61556,-7.76884 -10e-6,-3.65091 -0.18397,-6.15562 -0.55189,-7.51414 -0.36794,-1.3726 -0.83492,-2.28534 -1.40093,-2.73819 -0.55191,-0.46695 -1.18869,-0.70044 -1.91038,-0.70048"
         id="path3611"
         style="font-style:normal;font-variant:normal;font-weight:bold;font-stretch:normal;font-size:36px;line-height:125%;font-family:Arial;-inkscape-font-specification:'Arial Bold';text-align:start;writing-mode:lr-tb;text-anchor:start;fill:#000000;fill-opacity:1;stroke:none;stroke-width:1.20754"
         inkscape:label="0" />
      <path
         d="m 592.2334,133.63272 h 6.11719 l 4.64062,13.00781 4.67578,-13.00781 h 6.09961 v 18.66797 h -4.20117 v -12.28711 l -4.55273,12.28711 h -4.21875 l -4.3418,-12.28711 v 12.28711 h -4.21875 v -18.66797"
         id="path3614"
         style="font-style:normal;font-variant:normal;font-weight:bold;font-stretch:normal;font-size:36px;line-height:125%;font-family:Arial;-inkscape-font-specification:'Arial Bold';text-align:start;writing-mode:lr-tb;text-anchor:start;fill:#000000;fill-opacity:1;stroke:none"
         inkscape:label="M" />
      <path
         class="fil2 str0"
         d="m 87.539642,58.388301 h 58.874678 c 2.54087,0 4.44653,2.065282 4.44653,4.606108 v 32.293285 c 0,2.540834 -1.90566,4.446484 -4.44653,4.446484 H 87.539642 c -2.540886,0 -4.446534,-1.90565 -4.446534,-4.446484 V 62.994409 c 0,-2.540826 1.905648,-4.606108 4.446534,-4.606108 z m 37.591328,57.863559 c -2.38224,0 -4.44654,-2.06416 -4.44654,-4.44645 0,-2.54199 2.0643,-4.44762 4.44654,-4.44762 2.54182,0 4.60614,1.90563 4.60614,4.44762 0,2.38229 -2.06432,4.44645 -4.60614,4.44645 z m 0,6.19472 c -5.55834,0 -10.64136,-4.76466 -10.64136,-10.64117 0,-5.87654 5.08302,-10.48264 10.64136,-10.48264 5.71793,0 10.64231,4.6061 10.64231,10.48264 0,5.87651 -4.92438,10.64117 -10.64231,10.64117 z m -63.21292,-6.19472 c -2.382242,0 -4.446544,-2.06416 -4.446544,-4.44645 0,-2.54199 2.064302,-4.44762 4.446544,-4.44762 2.541822,0 4.447479,1.90563 4.447479,4.44762 0,2.38229 -1.905657,4.44645 -4.447479,4.44645 z m 0,6.19472 c -5.716979,0 -10.641042,-4.76466 -10.641042,-10.64117 0,-5.87654 4.924063,-10.48264 10.641042,-10.48264 5.877522,0 10.482711,4.6061 10.482711,10.48264 0,5.87651 -4.605189,10.64117 -10.482711,10.64117 z m -11.911487,-9.21224 c 0,-0.4767 -0.158636,-1.11189 -0.158636,-1.42893 0,-6.51177 5.558323,-12.071232 12.070123,-12.071232 6.671389,0 12.071067,5.559462 12.071067,12.071232 0,0.47667 0,0.95223 -0.158323,1.42893 h 36.148096 c 0.45713,-3.07332 0.13405,-5.47343 2.48674,-8.78604 0.39533,-0.55664 0.9943,-1.5977 0.63901,-2.12445 -0.0968,-0.14358 -0.21491,-0.28215 -0.34465,-0.40806 -0.5055,-0.49056 -1.71237,-0.59302 -2.43175,-0.59302 l -33.321354,0 V 70.730598 c 0,-1.2704 -1.270435,-2.859001 -3.017769,-2.859001 H 52.865363 c -1.746993,0 -2.540869,1.428932 -3.176082,2.859001 l -5.876578,19.950989 v 19.535223 c 0,1.5886 1.429081,3.01753 3.176101,3.01753 z m 89.886117,-11.91157 h 9.53909 c 0.79387,0 1.42908,0.47667 1.42908,1.42892 v 11.25584 c 0,0.95338 -0.63521,1.5886 -1.42908,1.5886 h -9.53909 c -0.95346,0 -1.58868,-0.63522 -1.58868,-1.5886 v -11.25584 c 0,-0.95225 0.63522,-1.42892 1.58868,-1.42892 z M 72.130726,72.31919 h -16.2479 c -0.635221,0 -1.270434,0.793737 -1.588382,1.428958 l -3.017436,13.914786 c -0.158638,0.636324 0.794811,1.430061 1.588355,1.430061 h 19.265363 c 0.793553,0 1.58742,-0.635213 1.58742,-1.430061 V 73.748148 c 0,-0.793745 -1.110852,-1.428958 -1.58742,-1.428958 z"
         id="_146527632"
         style="display:inline;fill:#000000;fill-rule:evenodd;stroke:#000000;stroke-width:0.0146155"
         inkscape:label="sign"
         sodipodi:nodetypes="ssssssssssssssssssssssssssssscsssccsscsssccsscsssssssssssccsssss"
         inkscape:path-effect="#path-effect1"
         inkscape:original-d="m 87.539642,58.388301 h 58.874678 c 2.54087,0 4.44653,2.065282 4.44653,4.606108 v 32.293285 c 0,2.540834 -1.90566,4.446484 -4.44653,4.446484 H 87.539642 c -2.540886,0 -4.446534,-1.90565 -4.446534,-4.446484 V 62.994409 c 0,-2.540826 1.905648,-4.606108 4.446534,-4.606108 z m 37.591328,57.863559 c -2.38224,0 -4.44654,-2.06416 -4.44654,-4.44645 0,-2.54199 2.0643,-4.44762 4.44654,-4.44762 2.54182,0 4.60614,1.90563 4.60614,4.44762 0,2.38229 -2.06432,4.44645 -4.60614,4.44645 z m 0,6.19472 c -5.55834,0 -10.64136,-4.76466 -10.64136,-10.64117 0,-5.87654 5.08302,-10.48264 10.64136,-10.48264 5.71793,0 10.64231,4.6061 10.64231,10.48264 0,5.87651 -4.92438,10.64117 -10.64231,10.64117 z m -63.21292,-6.19472 c -2.382242,0 -4.446544,-2.06416 -4.446544,-4.44645 0,-2.54199 2.064302,-4.44762 4.446544,-4.44762 2.541822,0 4.447479,1.90563 4.447479,4.44762 0,2.38229 -1.905657,4.44645 -4.447479,4.44645 z m 0,6.19472 c -5.716979,0 -10.641042,-4.76466 -10.641042,-10.64117 0,-5.87654 4.924063,-10.48264 10.641042,-10.48264 5.877522,0 10.482711,4.6061 10.482711,10.48264 0,5.87651 -4.605189,10.64117 -10.482711,10.64117 z m -11.911487,-9.21224 c 0,-0.4767 -0.158636,-1.11189 -0.158636,-1.42893 0,-6.51177 5.558323,-12.071232 12.070123,-12.071232 6.671389,0 12.071067,5.559462 12.071067,12.071232 0,0.47667 0,0.95223 -0.158323,1.42893 h 36.148096 c 0.50097,-3.36809 0.0649,-5.92764 3.24059,-9.76579 0.60704,-0.73367 -0.79385,-2.14578 -1.58868,-2.14578 H 77.006886 V 70.730598 c 0,-1.2704 -1.270435,-2.859001 -3.017769,-2.859001 H 52.865363 c -1.746993,0 -2.540869,1.428932 -3.176082,2.859001 l -5.876578,19.950989 v 19.535223 c 0,1.5886 1.429081,3.01753 3.176101,3.01753 z m 89.886117,-11.91157 h 9.53909 c 0.79387,0 1.42908,0.47667 1.42908,1.42892 v 11.25584 c 0,0.95338 -0.63521,1.5886 -1.42908,1.5886 h -9.53909 c -0.95346,0 -1.58868,-0.63522 -1.58868,-1.5886 v -11.25584 c 0,-0.95225 0.63522,-1.42892 1.58868,-1.42892 z M 72.130726,72.31919 h -16.2479 c -0.635221,0 -1.270434,0.793737 -1.588382,1.428958 l -3.017436,13.914786 c -0.158638,0.636324 0.794811,1.430061 1.588355,1.430061 h 19.265363 c 0.793553,0 1.58742,-0.635213 1.58742,-1.430061 V 73.748148 c 0,-0.793745 -1.110852,-1.428958 -1.58742,-1.428958 z"
         transform="matrix(0.73788897,0,0,0.73788897,531.17627,-2.7534886)" />
    </g>
  </g>
</svg>
