<?xml version="1.0" encoding="UTF-8" standalone="no"?>
<!-- Created with Inkscape (http://www.inkscape.org/) -->

<svg
   height="200"
   id="svg118"
   inkscape:output_extension="org.inkscape.output.svg.inkscape"
   inkscape:version="1.3 (0e150ed6c4, 2023-07-21)"
   sodipodi:docname="3.2.svg"
   sodipodi:version="0.32"
   version="1.0"
   width="200"
   xmlns:inkscape="http://www.inkscape.org/namespaces/inkscape"
   xmlns:sodipodi="http://sodipodi.sourceforge.net/DTD/sodipodi-0.dtd"
   xmlns="http://www.w3.org/2000/svg"
   xmlns:svg="http://www.w3.org/2000/svg"
   xmlns:rdf="http://www.w3.org/1999/02/22-rdf-syntax-ns#"
   xmlns:cc="http://creativecommons.org/ns#"
   xmlns:dc="http://purl.org/dc/elements/1.1/">
  <title
     id="title1">Заборонні знаки » Дорожні знаки » ПДР Тест Центр</title>
  <metadata
     id="metadata118">
    <rdf:RDF>
      <cc:Work
         rdf:about="">
        <dc:format>&#10;					image/svg+xml&#10;				</dc:format>
        <dc:type
           rdf:resource="http://purl.org/dc/dcmitype/StillImage" />
        <dc:title>Заборонні знаки » Дорожні знаки » ПДР Тест Центр</dc:title>
        <cc:license
           rdf:resource="http://creativecommons.org/licenses/by-nc-sa/4.0/" />
        <dc:creator>
          <cc:Agent>
            <dc:title>ПДР Тест Центр | PDR Test Center</dc:title>
          </cc:Agent>
        </dc:creator>
        <dc:rights>
          <cc:Agent>
            <dc:title>ПДР Тест Центр | PDR Test Center</dc:title>
          </cc:Agent>
        </dc:rights>
        <dc:language>uk-UA</dc:language>
        <dc:date>2023-09-01</dc:date>
        <dc:publisher>
          <cc:Agent>
            <dc:title>https://pdrtest.com/</dc:title>
          </cc:Agent>
        </dc:publisher>
        <dc:source>https://pdrtest.com/driver/rules/section/33.3</dc:source>
      </cc:Work>
      <cc:License
         rdf:about="http://creativecommons.org/licenses/by-nc-sa/4.0/">
        <cc:permits
           rdf:resource="http://creativecommons.org/ns#Reproduction" />
        <cc:permits
           rdf:resource="http://creativecommons.org/ns#Distribution" />
        <cc:requires
           rdf:resource="http://creativecommons.org/ns#Notice" />
        <cc:requires
           rdf:resource="http://creativecommons.org/ns#Attribution" />
        <cc:prohibits
           rdf:resource="http://creativecommons.org/ns#CommercialUse" />
        <cc:permits
           rdf:resource="http://creativecommons.org/ns#DerivativeWorks" />
        <cc:requires
           rdf:resource="http://creativecommons.org/ns#ShareAlike" />
      </cc:License>
    </rdf:RDF>
  </metadata>
  <defs
     id="defs118">
    <inkscape:perspective
       id="perspective118"
       inkscape:persp3d-origin="372.04724 : 360.78739 : 1"
       inkscape:vp_x="0 : 536.18109 : 1"
       inkscape:vp_y="0 : 1000 : 0"
       inkscape:vp_z="744.09448 : 536.18109 : 1"
       sodipodi:type="inkscape:persp3d" />
    <inkscape:perspective
       id="perspective102"
       inkscape:persp3d-origin="372.04724 : 360.78739 : 1"
       inkscape:vp_x="0 : 536.18109 : 1"
       inkscape:vp_y="0 : 1000 : 0"
       inkscape:vp_z="744.09448 : 536.18109 : 1"
       sodipodi:type="inkscape:persp3d" />
    <inkscape:perspective
       id="perspective3360"
       inkscape:persp3d-origin="372.04724 : 360.78739 : 1"
       inkscape:vp_x="0 : 536.18109 : 1"
       inkscape:vp_y="0 : 1000 : 0"
       inkscape:vp_z="744.09448 : 536.18109 : 1"
       sodipodi:type="inkscape:persp3d" />
  </defs>
  <sodipodi:namedview
     bordercolor="#666666"
     borderopacity="1.0"
     gridtolerance="10.0"
     guidetolerance="10.0"
     id="base"
     inkscape:current-layer="svg118"
     inkscape:cx="102.53048"
     inkscape:cy="90.332892"
     inkscape:guide-bbox="true"
     inkscape:pageopacity="0.0"
     inkscape:pageshadow="2"
     inkscape:window-height="1009"
     inkscape:window-width="1920"
     inkscape:zoom="2.8284271"
     objecttolerance="10.0"
     pagecolor="#ffffff"
     showgrid="false"
     showguides="false"
     inkscape:showpageshadow="2"
     inkscape:pagecheckerboard="0"
     inkscape:deskcolor="#d1d1d1"
     inkscape:window-x="1912"
     inkscape:window-y="-8"
     inkscape:window-maximized="1" />
  <g
     id="g3364"
     transform="translate(4.9999942,5)"
     inkscape:label="sign_3_2"
     style="display:inline;opacity:1">
    <path
       d="m 94.999536,0.52549349 c -52.053159,0 -94.47398669,42.42082751 -94.47398669,94.47398051 0,52.053156 42.42082769,94.473996 94.47398669,94.473986 52.053144,0 94.473964,-42.42083 94.473974,-94.473986 0,-52.053153 -42.42083,-94.47398051 -94.473974,-94.47398051 z"
       id="path3157"
       sodipodi:nodetypes="csssc"
       style="fill:#ffffff;fill-opacity:1;fill-rule:evenodd;stroke:#000000;stroke-width:2;stroke-miterlimit:4;stroke-dasharray:none;stroke-opacity:1"
       transform="translate(1.6e-6)"
       inkscape:label="bg" />
    <path
       d="m 94.999333,5.0240299 c -49.57443,0 -89.9752197,40.4007891 -89.9752197,89.9752201 0,49.57443 40.4007897,89.97523 89.9752197,89.97522 49.574427,0 89.975207,-40.40079 89.975217,-89.97522 0,-49.574431 -40.40079,-89.9752201 -89.975217,-89.9752201 z m 0,18.0091141 c 39.830377,0 71.966107,32.135732 71.966107,71.966106 -1e-5,39.83037 -32.13573,71.9661 -71.966107,71.9661 -39.830362,1e-5 -71.966106,-32.13573 -71.966106,-71.9661 0,-39.830374 32.135732,-71.966106 71.966106,-71.966106 z"
       id="path2385"
       style="fill:#ff0000;fill-opacity:1;fill-rule:evenodd;stroke:none;stroke-width:16;stroke-miterlimit:4;stroke-dasharray:none;stroke-opacity:1"
       transform="translate(1.6e-6)"
       inkscape:label="red" />
    <path
       id="_146946152"
       style="fill:#000000;fill-rule:evenodd;stroke:#1f1a17;stroke-width:0.0130474"
       class="fil2 str0"
       inkscape:label="sign"
       d="m 73.895514,57.477984 c -4.720106,-0.01422 -6.865815,4.074641 -8.582031,8.365234 l -6.794922,16.5 c -3.538854,0 -7.871094,1.198397 -7.871094,4.738281 v 18.984371 c 0,3.53986 2.789273,8.17969 6.328125,8.17969 h 2.144531 16.689453 l 39.376944,-0.004 h 16.56446 l 1.27344,0.004 c 3.53885,0 6.32812,-4.63983 6.32812,-8.17969 V 87.081499 c 0,-3.325092 -4.07337,-4.904358 -7.39844,-5.11914 l -6.98828,-17.175782 c -1.50146,-3.862063 -2.45666,-7.163514 -7.17578,-7.177734 z m 57.855466,56.767576 h -16.56446 v 13.17383 c 0,6.13688 16.56446,6.13688 16.56446,0 z m -55.941404,0 H 59.120123 v 13.67383 c 0,6.13688 16.689453,6.13688 16.689453,0 z M 76.71192,63.806109 h 36.46875 c 4.18319,0 5.25405,2.893977 5.79101,4.18164 l 2.57422,6.972656 c 0.53697,1.394046 0.43042,7.88086 -3.32422,7.88086 H 71.778326 c -3.862024,0 -4.826885,-5.198942 -3.96875,-7.34375 l 2.896485,-7.509766 c 0.858143,-2.252171 2.894567,-4.18164 6.005859,-4.18164 z m -7.96289,29.259765 c 2.89551,0 5.253906,2.358408 5.253906,5.361328 0,2.896498 -2.358396,5.255858 -5.253906,5.255858 -3.003911,0 -5.363282,-2.35936 -5.363282,-5.255858 0,-3.00292 2.359371,-5.361328 5.363282,-5.361328 z m 52.83984,0 c 2.89552,0 5.25586,2.358408 5.25586,5.361328 0,2.896498 -2.36034,5.255858 -5.25586,5.255858 -3.00292,0 -5.36328,-2.35936 -5.36328,-5.255858 0,-3.00292 2.36036,-5.361328 5.36328,-5.361328 z"
       sodipodi:nodetypes="cccsssccccsssccccccsscccsscssccssccsssssssssss" />
  </g>
</svg>
