<?xml version="1.0" encoding="UTF-8" standalone="no"?>
<!-- Created with Inkscape (http://www.inkscape.org/) -->

<svg
   height="200"
   id="svg118"
   inkscape:output_extension="org.inkscape.output.svg.inkscape"
   inkscape:version="1.3 (0e150ed6c4, 2023-07-21)"
   sodipodi:docname="3.20.svg"
   sodipodi:version="0.32"
   version="1.0"
   width="200"
   xmlns:inkscape="http://www.inkscape.org/namespaces/inkscape"
   xmlns:sodipodi="http://sodipodi.sourceforge.net/DTD/sodipodi-0.dtd"
   xmlns="http://www.w3.org/2000/svg"
   xmlns:svg="http://www.w3.org/2000/svg"
   xmlns:rdf="http://www.w3.org/1999/02/22-rdf-syntax-ns#"
   xmlns:cc="http://creativecommons.org/ns#"
   xmlns:dc="http://purl.org/dc/elements/1.1/">
  <title
     id="title1">Заборонні знаки » Дорожні знаки » ПДР Тест Центр</title>
  <metadata
     id="metadata118">
    <rdf:RDF>
      <cc:Work
         rdf:about="">
        <dc:format>&#10;					image/svg+xml&#10;				</dc:format>
        <dc:type
           rdf:resource="http://purl.org/dc/dcmitype/StillImage" />
        <dc:title>Заборонні знаки » Дорожні знаки » ПДР Тест Центр</dc:title>
        <cc:license
           rdf:resource="http://creativecommons.org/licenses/by-nc-sa/4.0/" />
        <dc:creator>
          <cc:Agent>
            <dc:title>ПДР Тест Центр | PDR Test Center</dc:title>
          </cc:Agent>
        </dc:creator>
        <dc:rights>
          <cc:Agent>
            <dc:title>ПДР Тест Центр | PDR Test Center</dc:title>
          </cc:Agent>
        </dc:rights>
        <dc:language>uk-UA</dc:language>
        <dc:date>2023-09-01</dc:date>
        <dc:publisher>
          <cc:Agent>
            <dc:title>https://pdrtest.com/</dc:title>
          </cc:Agent>
        </dc:publisher>
        <dc:source>https://pdrtest.com/driver/rules/section/33.3</dc:source>
      </cc:Work>
      <cc:License
         rdf:about="http://creativecommons.org/licenses/by-nc-sa/4.0/">
        <cc:permits
           rdf:resource="http://creativecommons.org/ns#Reproduction" />
        <cc:permits
           rdf:resource="http://creativecommons.org/ns#Distribution" />
        <cc:requires
           rdf:resource="http://creativecommons.org/ns#Notice" />
        <cc:requires
           rdf:resource="http://creativecommons.org/ns#Attribution" />
        <cc:prohibits
           rdf:resource="http://creativecommons.org/ns#CommercialUse" />
        <cc:permits
           rdf:resource="http://creativecommons.org/ns#DerivativeWorks" />
        <cc:requires
           rdf:resource="http://creativecommons.org/ns#ShareAlike" />
      </cc:License>
    </rdf:RDF>
  </metadata>
  <defs
     id="defs118">
    <inkscape:perspective
       id="perspective118"
       inkscape:persp3d-origin="372.04724 : 360.78739 : 1"
       inkscape:vp_x="0 : 536.18109 : 1"
       inkscape:vp_y="0 : 1000 : 0"
       inkscape:vp_z="744.09448 : 536.18109 : 1"
       sodipodi:type="inkscape:persp3d" />
    <inkscape:perspective
       id="perspective109"
       inkscape:persp3d-origin="372.04724 : 360.78739 : 1"
       inkscape:vp_x="0 : 536.18109 : 1"
       inkscape:vp_y="0 : 1000 : 0"
       inkscape:vp_z="744.09448 : 536.18109 : 1"
       sodipodi:type="inkscape:persp3d" />
    <inkscape:perspective
       id="perspective112"
       inkscape:persp3d-origin="372.04724 : 360.78739 : 1"
       inkscape:vp_x="0 : 536.18109 : 1"
       inkscape:vp_y="0 : 1000 : 0"
       inkscape:vp_z="744.09448 : 536.18109 : 1"
       sodipodi:type="inkscape:persp3d" />
    <inkscape:perspective
       id="perspective113"
       inkscape:persp3d-origin="372.04724 : 360.78739 : 1"
       inkscape:vp_x="0 : 536.18109 : 1"
       inkscape:vp_y="0 : 1000 : 0"
       inkscape:vp_z="744.09448 : 536.18109 : 1"
       sodipodi:type="inkscape:persp3d" />
    <inkscape:perspective
       id="perspective116"
       inkscape:persp3d-origin="372.04724 : 360.78739 : 1"
       inkscape:vp_x="0 : 536.18109 : 1"
       inkscape:vp_y="0 : 1000 : 0"
       inkscape:vp_z="744.09448 : 536.18109 : 1"
       sodipodi:type="inkscape:persp3d" />
    <inkscape:perspective
       id="perspective114"
       inkscape:persp3d-origin="372.04724 : 360.78739 : 1"
       inkscape:vp_x="0 : 536.18109 : 1"
       inkscape:vp_y="0 : 1000 : 0"
       inkscape:vp_z="744.09448 : 536.18109 : 1"
       sodipodi:type="inkscape:persp3d" />
    <inkscape:perspective
       id="perspective120"
       inkscape:persp3d-origin="372.04724 : 360.78739 : 1"
       inkscape:vp_x="0 : 536.18109 : 1"
       inkscape:vp_y="0 : 1000 : 0"
       inkscape:vp_z="744.09448 : 536.18109 : 1"
       sodipodi:type="inkscape:persp3d" />
    <inkscape:perspective
       id="perspective124"
       inkscape:persp3d-origin="372.04724 : 360.78739 : 1"
       inkscape:vp_x="0 : 536.18109 : 1"
       inkscape:vp_y="0 : 1000 : 0"
       inkscape:vp_z="744.09448 : 536.18109 : 1"
       sodipodi:type="inkscape:persp3d" />
    <inkscape:perspective
       id="perspective126"
       inkscape:persp3d-origin="372.04724 : 360.78739 : 1"
       inkscape:vp_x="0 : 536.18109 : 1"
       inkscape:vp_y="0 : 1000 : 0"
       inkscape:vp_z="744.09448 : 536.18109 : 1"
       sodipodi:type="inkscape:persp3d" />
    <inkscape:perspective
       id="perspective3149"
       inkscape:persp3d-origin="372.04724 : 360.78739 : 1"
       inkscape:vp_x="0 : 536.18109 : 1"
       inkscape:vp_y="0 : 1000 : 0"
       inkscape:vp_z="744.09448 : 536.18109 : 1"
       sodipodi:type="inkscape:persp3d" />
  </defs>
  <sodipodi:namedview
     bordercolor="#666666"
     borderopacity="1.0"
     gridtolerance="10.0"
     guidetolerance="10.0"
     id="base"
     inkscape:current-layer="svg118"
     inkscape:cx="76.205961"
     inkscape:cy="154.21409"
     inkscape:guide-bbox="true"
     inkscape:pageopacity="0.0"
     inkscape:pageshadow="2"
     inkscape:window-height="1009"
     inkscape:window-maximized="1"
     inkscape:window-width="1920"
     inkscape:window-x="1912"
     inkscape:window-y="-8"
     inkscape:zoom="1.9421053"
     objecttolerance="10.0"
     pagecolor="#ffffff"
     showgrid="false"
     showguides="false"
     inkscape:showpageshadow="2"
     inkscape:pagecheckerboard="0"
     inkscape:deskcolor="#d1d1d1" />
  <g
     id="g3569"
     transform="translate(4.9999971,5.0000002)"
     inkscape:label="sign_3_20"
     style="opacity:1">
    <path
       d="m 281.61136,-0.5172025 c -46.24606,0 -83.93438,37.6883205 -83.93438,83.9343745 0,46.246058 37.68832,83.934388 83.93438,83.934378 46.24605,0 83.93436,-37.68832 83.93437,-83.934378 0,-46.246054 -37.68832,-83.9343745 -83.93437,-83.9343745 z"
       id="path3157"
       sodipodi:nodetypes="csssc"
       style="fill:#ffffff;fill-opacity:1;fill-rule:evenodd;stroke:#000000;stroke-opacity:1;stroke-width:1.77687812;stroke-dasharray:none"
       transform="matrix(1.1255696,0,0,1.1255696,-221.97365,1.1076409)"
       inkscape:label="bg" />
    <g
       id="text3282"
       style="font-style:normal;font-variant:normal;font-weight:bold;font-stretch:normal;font-size:40px;line-height:125%;font-family:Arial;-inkscape-font-specification:'Arial Bold';text-align:start;writing-mode:lr-tb;text-anchor:start;fill:#000000;fill-opacity:1;stroke:none"
       transform="translate(-391.68295)"
       inkscape:label="sign">
      <path
         d="m 496.20142,50.901252 h 6.79688 l 5.15625,14.453125 5.19531,-14.453125 h 6.77734 V 71.64344 h -4.66796 V 57.991096 l -5.0586,13.652344 h -4.6875 L 500.88892,57.991096 V 71.64344 h -4.6875 V 50.901252"
         id="path3567"
         style="font-style:normal;font-variant:normal;font-weight:bold;font-stretch:normal;font-size:40px;line-height:125%;font-family:Arial;-inkscape-font-specification:'Arial Bold';text-align:start;writing-mode:lr-tb;text-anchor:start;fill:#000000;fill-opacity:1;stroke:none"
         inkscape:label="M" />
      <path
         d="m 483.52344,43.985719 c 2.77342,2.9e-5 4.94139,0.989611 6.5039,2.96875 1.86196,2.343773 2.79295,6.230488 2.79297,11.660156 -2e-5,5.416676 -0.93752,9.309901 -2.8125,11.679688 -1.54949,1.953125 -3.71095,2.929687 -6.48437,2.929687 -2.78647,0 -5.03256,-1.067708 -6.73828,-3.203125 -1.70574,-2.148432 -2.5586,-5.970043 -2.5586,-11.464844 0,-5.390605 0.9375,-9.270809 2.8125,-11.640625 1.54948,-1.953097 3.71093,-2.929658 6.48438,-2.929687 m 0,4.550781 c -0.66408,2.4e-5 -1.25652,0.214868 -1.77735,0.644531 -0.52084,0.41669 -0.92448,1.171898 -1.21093,2.265625 -0.37762,1.419291 -0.56642,3.808612 -0.56641,7.167969 -10e-6,3.359386 0.16926,5.670582 0.50781,6.933594 0.33854,1.250006 0.76171,2.083338 1.26953,2.5 0.52083,0.416671 1.11327,0.625004 1.77735,0.625 0.66405,4e-6 1.2565,-0.208329 1.77734,-0.625 0.52082,-0.429682 0.92447,-1.1914 1.21094,-2.285156 0.37759,-1.406242 0.56639,-3.789052 0.5664,-7.148438 -1e-5,-3.359357 -0.16928,-5.664042 -0.50781,-6.914062 -0.33855,-1.262999 -0.76824,-2.102842 -1.28906,-2.519532 -0.50782,-0.429663 -1.09376,-0.644507 -1.75781,-0.644531"
         id="path3565"
         style="font-style:normal;font-variant:normal;font-weight:bold;font-stretch:normal;font-size:40px;line-height:125%;font-family:Arial;-inkscape-font-specification:'Arial Bold';text-align:start;writing-mode:lr-tb;text-anchor:start;fill:#000000;fill-opacity:1;stroke:none"
         inkscape:label="0" />
      <path
         d="m 454.71117,49.591188 v -5.097657 h 18.76953 v 3.984375 c -1.5495,1.523461 -3.12502,3.710959 -4.72656,6.5625 -1.60158,2.851578 -2.82554,5.885429 -3.67188,9.101563 -0.83334,3.20313 -1.2435,6.067711 -1.23047,8.59375 h -5.29297 c 0.0911,-3.958329 0.90495,-7.994784 2.44141,-12.109375 1.54947,-4.114567 3.61327,-7.792949 6.19141,-11.035156 h -12.48047"
         id="path3563"
         inkscape:label="7" />
      <path
         id="path4258-8"
         style="fill:#000000;fill-rule:evenodd;stroke-width:5.01349;stroke-dasharray:none"
         inkscape:label="car"
         d="m 19.689891,82.376017 c 15.293109,0.287025 24.02111,0.238695 39.316249,0.271762 10.405974,5.252753 17.741697,17.860681 25.248532,26.794171 2.907069,5.91441 -1.174773,13.20595 -3.006412,19.02344 -1.780052,3.58236 -4.282163,3.67128 -7.813191,3.95331 -3.013422,-12.77418 -24.651125,-20.08094 -29.316465,3.33334 -18.275338,0.16718 -7.323041,-0.0881 -25.594671,-0.38641 z m 3.397546,5.252687 -0.71993,20.114716 c 16.20244,0.41564 15.574397,0.34913 31.780854,0.40339 13.873412,0.77338 4.485524,-17.530666 0.98088,-19.92788 -1.796625,-0.704672 -5.544077,-0.05218 -32.041804,-0.590226 z m 35.75311,35.002336 c 8.032761,-0.14784 15.123406,7.71699 12.607251,16.33977 -1.96497,6.73385 -9.211004,10.56796 -15.944862,8.603 -6.733906,-1.96498 -10.618948,-9.04963 -8.653981,-15.78352 1.596533,-5.47127 6.569904,-9.0595 11.991592,-9.15925 z m 0.110403,5.67733 c -2.966584,0.0624 -5.600054,2.07684 -6.488357,5.12101 -1.093298,3.74671 0.881741,7.60314 4.628469,8.69643 3.746679,1.09329 7.649846,-1.04737 8.743147,-4.79407 1.435248,-4.91853 -2.567512,-9.11403 -6.883255,-9.0234 z"
         sodipodi:nodetypes="cccccccccccccsssssccssssss"
         transform="translate(389.81893,-5.0000002)" />
      <path
         id="path1"
         style="fill:#000000;fill-rule:evenodd;stroke-width:5.01349;stroke-dasharray:none"
         inkscape:label="car"
         d="m 168.95662,82.376017 8.74381,0.271762 -3.60066,53.104261 -28.96494,-0.38641 c 0.27767,-17.95691 -25.99814,-20.71928 -29.55001,-3.24842 -2.81176,-0.63232 -4.88714,-1.29792 -5.97882,-4.1614 l -1.04455,-11.70703 c -0.66861,-3.57804 2.09835,-5.24325 3.68579,-5.46498 11.66508,-3.86549 26.23945,-1.79264 36.87062,-8.66672 6.2647,-5.565601 10.16976,-19.376053 19.83876,-19.741063 z m 2.40766,5.252687 c -8.73045,1.318682 -18.97975,20.255626 -10.0043,20.114716 l 9.07056,0.40339 z m -41.66475,34.917336 c 8.01696,-0.14764 15.12132,7.70534 12.60301,16.33552 -1.96497,6.73388 -9.21099,10.57223 -15.94485,8.60727 -6.73391,-1.96499 -10.61895,-9.04964 -8.65398,-15.78352 1.59653,-5.47127 6.57418,-9.05951 11.99582,-9.15927 z m 0.10616,5.67313 c -2.96659,0.0624 -5.60004,2.08109 -6.48835,5.12528 -1.09329,3.7467 0.88175,7.60312 4.62848,8.69642 3.74668,1.0933 7.64984,-1.04736 8.74314,-4.79407 1.43452,-4.91602 -2.56321,-9.11839 -6.88326,-9.02765 z"
         sodipodi:nodetypes="ccccccccccccccsssssssssss"
         transform="translate(389.81893,-5.0000002)" />
    </g>
    <path
       d="m 94.999333,5.0240299 c -49.57443,0 -89.9752197,40.4007891 -89.9752197,89.9752201 0,49.57443 40.4007897,89.97523 89.9752197,89.97522 49.574427,0 89.975207,-40.40079 89.975217,-89.97522 0,-49.574431 -40.40079,-89.9752201 -89.975217,-89.9752201 z m 0,18.0091141 c 39.830377,0 71.966107,32.135732 71.966107,71.966106 -1e-5,39.83037 -32.13573,71.9661 -71.966107,71.9661 -39.830362,1e-5 -71.966106,-32.13573 -71.966106,-71.9661 0,-39.830374 32.135732,-71.966106 71.966106,-71.966106 z"
       id="path2385"
       style="fill:#ff0000;fill-opacity:1;fill-rule:evenodd;stroke:none"
       inkscape:label="red" />
  </g>
</svg>
