<?xml version="1.0" encoding="UTF-8" standalone="no"?>
<!-- Created with Inkscape (http://www.inkscape.org/) -->

<svg
   height="200"
   id="svg118"
   inkscape:output_extension="org.inkscape.output.svg.inkscape"
   inkscape:version="1.3 (0e150ed6c4, 2023-07-21)"
   sodipodi:docname="3.25.svg"
   sodipodi:version="0.32"
   version="1.0"
   width="200"
   xml:space="preserve"
   xmlns:inkscape="http://www.inkscape.org/namespaces/inkscape"
   xmlns:sodipodi="http://sodipodi.sourceforge.net/DTD/sodipodi-0.dtd"
   xmlns="http://www.w3.org/2000/svg"
   xmlns:svg="http://www.w3.org/2000/svg"
   xmlns:rdf="http://www.w3.org/1999/02/22-rdf-syntax-ns#"
   xmlns:cc="http://creativecommons.org/ns#"
   xmlns:dc="http://purl.org/dc/elements/1.1/"><title
     id="title1">Заборонні знаки » Дорожні знаки » ПДР Тест Центр</title><metadata
     id="metadata118"><rdf:RDF><cc:Work
         rdf:about=""><dc:format>&#10;					image/svg+xml&#10;				</dc:format><dc:type
           rdf:resource="http://purl.org/dc/dcmitype/StillImage" /><dc:title>Заборонні знаки » Дорожні знаки » ПДР Тест Центр</dc:title><cc:license
           rdf:resource="http://creativecommons.org/licenses/by-nc-sa/4.0/" /><dc:creator><cc:Agent><dc:title>ПДР Тест Центр | PDR Test Center</dc:title></cc:Agent></dc:creator><dc:rights><cc:Agent><dc:title>ПДР Тест Центр | PDR Test Center</dc:title></cc:Agent></dc:rights><dc:language>uk-UA</dc:language><dc:date>2023-09-01</dc:date><dc:publisher><cc:Agent><dc:title>https://pdrtest.com/</dc:title></cc:Agent></dc:publisher><dc:source>https://pdrtest.com/driver/rules/section/33.3</dc:source></cc:Work><cc:License
         rdf:about="http://creativecommons.org/licenses/by-nc-sa/4.0/"><cc:permits
           rdf:resource="http://creativecommons.org/ns#Reproduction" /><cc:permits
           rdf:resource="http://creativecommons.org/ns#Distribution" /><cc:requires
           rdf:resource="http://creativecommons.org/ns#Notice" /><cc:requires
           rdf:resource="http://creativecommons.org/ns#Attribution" /><cc:prohibits
           rdf:resource="http://creativecommons.org/ns#CommercialUse" /><cc:permits
           rdf:resource="http://creativecommons.org/ns#DerivativeWorks" /><cc:requires
           rdf:resource="http://creativecommons.org/ns#ShareAlike" /></cc:License></rdf:RDF></metadata><defs
     id="defs118"><inkscape:perspective
       id="perspective118"
       inkscape:persp3d-origin="372.04724 : 360.78739 : 1"
       inkscape:vp_x="0 : 536.18109 : 1"
       inkscape:vp_y="0 : 1000 : 0"
       inkscape:vp_z="744.09448 : 536.18109 : 1"
       sodipodi:type="inkscape:persp3d" /><inkscape:perspective
       id="perspective109"
       inkscape:persp3d-origin="372.04724 : 360.78739 : 1"
       inkscape:vp_x="0 : 536.18109 : 1"
       inkscape:vp_y="0 : 1000 : 0"
       inkscape:vp_z="744.09448 : 536.18109 : 1"
       sodipodi:type="inkscape:persp3d" /><inkscape:perspective
       id="perspective120"
       inkscape:persp3d-origin="372.04724 : 360.78739 : 1"
       inkscape:vp_x="0 : 536.18109 : 1"
       inkscape:vp_y="0 : 1000 : 0"
       inkscape:vp_z="744.09448 : 536.18109 : 1"
       sodipodi:type="inkscape:persp3d" /><inkscape:perspective
       id="perspective121"
       inkscape:persp3d-origin="372.04724 : 360.78739 : 1"
       inkscape:vp_x="0 : 536.18109 : 1"
       inkscape:vp_y="0 : 1000 : 0"
       inkscape:vp_z="744.09448 : 536.18109 : 1"
       sodipodi:type="inkscape:persp3d" /></defs><sodipodi:namedview
     bordercolor="#666666"
     borderopacity="1.0"
     gridtolerance="10.0"
     guidetolerance="10.0"
     id="base"
     inkscape:current-layer="svg118"
     inkscape:cx="67.882252"
     inkscape:cy="141.95169"
     inkscape:guide-bbox="true"
     inkscape:pageopacity="0.0"
     inkscape:pageshadow="2"
     inkscape:window-height="1009"
     inkscape:window-width="1920"
     inkscape:zoom="2.8284271"
     objecttolerance="10.0"
     pagecolor="#ffffff"
     showgrid="false"
     showguides="false"
     inkscape:showpageshadow="2"
     inkscape:pagecheckerboard="0"
     inkscape:deskcolor="#d1d1d1"
     inkscape:window-x="1912"
     inkscape:window-y="-8"
     inkscape:window-maximized="1" /><g
     id="g2609"
     transform="translate(4.9999971,5.0000002)"
     inkscape:label="sign_3_25"
     style="opacity:1"><path
       d="m 281.61136,-0.5172025 c -46.24606,0 -83.93438,37.6883205 -83.93438,83.9343745 0,46.246058 37.68832,83.934388 83.93438,83.934378 46.24605,0 83.93436,-37.68832 83.93437,-83.934378 0,-46.246054 -37.68832,-83.9343745 -83.93437,-83.9343745 z"
       id="path3157"
       sodipodi:nodetypes="csssc"
       style="opacity:1;fill:#ffffff;fill-opacity:1;fill-rule:evenodd;stroke:#000000;stroke-width:1.77687812;stroke-miterlimit:4;stroke-dasharray:none;stroke-opacity:1"
       transform="matrix(1.1255696,0,0,1.1255696,-221.97365,1.1076409)"
       inkscape:label="bg" /><path
       d="m 281.61118,3.479473 c -44.04386,0 -79.9375,35.893639 -79.9375,79.9375 0,44.043857 35.89364,79.937507 79.9375,79.937497 44.04386,0 79.93749,-35.89364 79.9375,-79.937497 0,-44.043861 -35.89364,-79.9375 -79.9375,-79.9375 z m 0,16 c 35.38686,0 63.9375,28.55064 63.9375,63.9375 -10e-6,35.386857 -28.55064,63.937497 -63.9375,63.937497 -35.38685,1e-5 -63.9375,-28.55064 -63.9375,-63.937497 0,-35.38686 28.55064,-63.9375 63.9375,-63.9375 z"
       id="path2385"
       style="opacity:1;fill:#ff0000;fill-opacity:1;fill-rule:evenodd;stroke:none;stroke-width:16;stroke-miterlimit:4;stroke-dasharray:none;stroke-opacity:1"
       transform="matrix(1.1255696,0,0,1.1255696,-221.97365,1.1076409)"
       inkscape:label="red" /><path
       id="path1"
       style="opacity:1;display:inline;fill:#000000;fill-rule:evenodd;stroke:#1f1a17;stroke-width:0.00875234"
       class="fil2 str0"
       inkscape:label="car_black"
       d="m 115.50313,70.2544 c -3.1663,-0.0095 -4.60567,2.733313 -5.75692,5.611495 l -4.55811,11.068383 c -2.3739,0 -5.280024,0.803895 -5.280024,3.178492 v 12.73493 c 0,2.37457 1.871084,5.48702 4.244984,5.48702 h 1.43857 11.19547 l 26.4145,-0.003 h 11.11162 l 0.85424,0.003 c 2.3739,0 4.24497,-3.11245 4.24497,-5.48702 V 90.11277 c 0,-2.230509 -2.73246,-3.289899 -4.96296,-3.433977 l -4.68781,-11.521704 c -1.0072,-2.59072 -1.64796,-4.805368 -4.81359,-4.814907 z m 38.81009,38.08032 H 143.2016 v 8.83716 c 0,4.11668 11.11162,4.11668 11.11162,0 z m -37.52612,0 h -11.19547 v 9.17256 c 0,4.11669 11.19547,4.11669 11.19547,0 z m 0.60531,-33.835341 h 24.46364 c 2.80613,0 3.52448,1.941313 3.88467,2.805091 l 1.72682,4.677338 c 0.3602,0.935137 0.28873,5.286562 -2.22992,5.286562 H 114.0829 c -2.59069,0 -3.23793,-3.487507 -2.66229,-4.926269 l 1.943,-5.037631 c 0.57565,-1.510781 1.94171,-2.805091 4.0288,-2.805091 z"
       sodipodi:nodetypes="cccsssccccsssccccccsscccsscssccssccs" /><path
       id="_146946152"
       style="display:inline;fill:#ff0000;fill-rule:evenodd;stroke:#1f1a17;stroke-width:0.00875234;fill-opacity:1"
       class="fil2 str0"
       inkscape:label="car_red"
       d="m 46.560214,70.2544 c -3.1663,-0.0095 -4.605665,2.733313 -5.756922,5.611495 l -4.558109,11.068383 c -2.373903,0 -5.280017,0.803895 -5.280017,3.178492 v 12.73493 c 0,2.37457 1.871075,5.48702 4.244976,5.48702 h 1.438575 11.195468 l 26.414497,-0.003 h 11.111621 l 0.854238,0.003 c 2.3739,0 4.244973,-3.11245 4.244973,-5.48702 V 90.11277 c 0,-2.230509 -2.732461,-3.289899 -4.962955,-3.433977 L 80.818742,75.157089 c -1.007195,-2.59072 -1.647955,-4.805368 -4.81359,-4.814907 z m 38.810089,38.08032 H 74.258682 v 8.83716 c 0,4.11668 11.111621,4.11668 11.111621,0 z m -37.526118,0 H 36.648717 v 9.17256 c 0,4.11669 11.195468,4.11669 11.195468,0 z m 0.605307,-33.835341 h 24.463643 c 2.80613,0 3.524476,1.941313 3.884674,2.805091 l 1.726815,4.677338 c 0.360205,0.935137 0.28873,5.286562 -2.229923,5.286562 H 45.13998 c -2.590688,0 -3.237928,-3.487507 -2.662281,-4.926269 l 1.942994,-5.037631 c 0.575652,-1.510781 1.941708,-2.805091 4.028799,-2.805091 z"
       sodipodi:nodetypes="cccsssccccsssccccccsscccsscssccssccs" /></g></svg>
