<?xml version="1.0" encoding="UTF-8" standalone="no"?>
<!-- Created with Inkscape (http://www.inkscape.org/) -->

<svg
   height="200"
   id="svg118"
   inkscape:output_extension="org.inkscape.output.svg.inkscape"
   inkscape:version="1.3 (0e150ed6c4, 2023-07-21)"
   sodipodi:docname="3.26.svg"
   sodipodi:version="0.32"
   version="1.0"
   width="200"
   xmlns:inkscape="http://www.inkscape.org/namespaces/inkscape"
   xmlns:sodipodi="http://sodipodi.sourceforge.net/DTD/sodipodi-0.dtd"
   xmlns="http://www.w3.org/2000/svg"
   xmlns:svg="http://www.w3.org/2000/svg"
   xmlns:rdf="http://www.w3.org/1999/02/22-rdf-syntax-ns#"
   xmlns:cc="http://creativecommons.org/ns#"
   xmlns:dc="http://purl.org/dc/elements/1.1/">
  <title
     id="title1">Заборонні знаки » Дорожні знаки » ПДР Тест Центр</title>
  <metadata
     id="metadata118">
    <rdf:RDF>
      <cc:Work
         rdf:about="">
        <dc:format>&#10;					image/svg+xml&#10;				</dc:format>
        <dc:type
           rdf:resource="http://purl.org/dc/dcmitype/StillImage" />
        <dc:title>Заборонні знаки » Дорожні знаки » ПДР Тест Центр</dc:title>
        <cc:license
           rdf:resource="http://creativecommons.org/licenses/by-nc-sa/4.0/" />
        <dc:creator>
          <cc:Agent>
            <dc:title>ПДР Тест Центр | PDR Test Center</dc:title>
          </cc:Agent>
        </dc:creator>
        <dc:rights>
          <cc:Agent>
            <dc:title>ПДР Тест Центр | PDR Test Center</dc:title>
          </cc:Agent>
        </dc:rights>
        <dc:language>uk-UA</dc:language>
        <dc:date>2023-09-01</dc:date>
        <dc:publisher>
          <cc:Agent>
            <dc:title>https://pdrtest.com/</dc:title>
          </cc:Agent>
        </dc:publisher>
        <dc:source>https://pdrtest.com/driver/rules/section/33.3</dc:source>
      </cc:Work>
      <cc:License
         rdf:about="http://creativecommons.org/licenses/by-nc-sa/4.0/">
        <cc:permits
           rdf:resource="http://creativecommons.org/ns#Reproduction" />
        <cc:permits
           rdf:resource="http://creativecommons.org/ns#Distribution" />
        <cc:requires
           rdf:resource="http://creativecommons.org/ns#Notice" />
        <cc:requires
           rdf:resource="http://creativecommons.org/ns#Attribution" />
        <cc:prohibits
           rdf:resource="http://creativecommons.org/ns#CommercialUse" />
        <cc:permits
           rdf:resource="http://creativecommons.org/ns#DerivativeWorks" />
        <cc:requires
           rdf:resource="http://creativecommons.org/ns#ShareAlike" />
      </cc:License>
    </rdf:RDF>
  </metadata>
  <defs
     id="defs118">
    <inkscape:perspective
       id="perspective118"
       inkscape:persp3d-origin="372.04724 : 360.78739 : 1"
       inkscape:vp_x="0 : 536.18109 : 1"
       inkscape:vp_y="0 : 1000 : 0"
       inkscape:vp_z="744.09448 : 536.18109 : 1"
       sodipodi:type="inkscape:persp3d" />
    <inkscape:perspective
       id="perspective109"
       inkscape:persp3d-origin="372.04724 : 360.78739 : 1"
       inkscape:vp_x="0 : 536.18109 : 1"
       inkscape:vp_y="0 : 1000 : 0"
       inkscape:vp_z="744.09448 : 536.18109 : 1"
       sodipodi:type="inkscape:persp3d" />
    <inkscape:perspective
       id="perspective120"
       inkscape:persp3d-origin="372.04724 : 360.78739 : 1"
       inkscape:vp_x="0 : 536.18109 : 1"
       inkscape:vp_y="0 : 1000 : 0"
       inkscape:vp_z="744.09448 : 536.18109 : 1"
       sodipodi:type="inkscape:persp3d" />
    <inkscape:perspective
       id="perspective121"
       inkscape:persp3d-origin="372.04724 : 360.78739 : 1"
       inkscape:vp_x="0 : 536.18109 : 1"
       inkscape:vp_y="0 : 1000 : 0"
       inkscape:vp_z="744.09448 : 536.18109 : 1"
       sodipodi:type="inkscape:persp3d" />
    <inkscape:perspective
       id="perspective3372"
       inkscape:persp3d-origin="372.04724 : 360.78739 : 1"
       inkscape:vp_x="0 : 536.18109 : 1"
       inkscape:vp_y="0 : 1000 : 0"
       inkscape:vp_z="744.09448 : 536.18109 : 1"
       sodipodi:type="inkscape:persp3d" />
    <inkscape:perspective
       id="perspective3370"
       inkscape:persp3d-origin="372.04724 : 360.78739 : 1"
       inkscape:vp_x="0 : 536.18109 : 1"
       inkscape:vp_y="0 : 1000 : 0"
       inkscape:vp_z="744.09448 : 536.18109 : 1"
       sodipodi:type="inkscape:persp3d" />
    <inkscape:perspective
       id="perspective3368"
       inkscape:persp3d-origin="372.04724 : 360.78739 : 1"
       inkscape:vp_x="0 : 536.18109 : 1"
       inkscape:vp_y="0 : 1000 : 0"
       inkscape:vp_z="744.09448 : 536.18109 : 1"
       sodipodi:type="inkscape:persp3d" />
  </defs>
  <sodipodi:namedview
     bordercolor="#666666"
     borderopacity="1.0"
     gridtolerance="10.0"
     guidetolerance="10.0"
     id="base"
     inkscape:current-layer="g3445"
     inkscape:cx="84.61059"
     inkscape:cy="96.116215"
     inkscape:guide-bbox="true"
     inkscape:pageopacity="0.0"
     inkscape:pageshadow="2"
     inkscape:window-height="1009"
     inkscape:window-width="1920"
     inkscape:zoom="2.8247055"
     objecttolerance="10.0"
     pagecolor="#ffffff"
     showgrid="false"
     showguides="false"
     inkscape:showpageshadow="2"
     inkscape:pagecheckerboard="0"
     inkscape:deskcolor="#d1d1d1"
     inkscape:window-x="1912"
     inkscape:window-y="-8"
     inkscape:window-maximized="1" />
  <g
     id="g3445"
     transform="translate(4.9418621,5.0318544)"
     inkscape:label="sign_3_26">
    <path
       d="m 281.61136,-0.5172025 c -46.24606,0 -83.93438,37.6883205 -83.93438,83.9343745 0,46.246058 37.68832,83.934388 83.93438,83.934378 46.24605,0 83.93436,-37.68832 83.93437,-83.934378 0,-46.246054 -37.68832,-83.9343745 -83.93437,-83.9343745 z"
       id="path3157"
       sodipodi:nodetypes="csssc"
       style="opacity:1;fill:#ffffff;fill-opacity:1;fill-rule:evenodd;stroke:#000000;stroke-width:1.86572203;stroke-miterlimit:4;stroke-dasharray:none;stroke-opacity:1"
       transform="matrix(1.1255696,0,0,1.1255696,-221.97365,1.1076409)"
       inkscape:label="bg" />
    <g
       id="g3558"
       style="fill:#808080;fill-opacity:1"
       transform="translate(-224.58594,-1097.383)"
       inkscape:label="sign">
      <path
         id="path1"
         style="display:inline;fill:#585858;fill-opacity:1;fill-rule:evenodd;stroke:#1f1a17;stroke-width:0.00875234"
         class="fil2 str0"
         inkscape:label="right"
         d="m 120.52401,76.004401 c -3.1663,-0.0095 -4.60567,2.733313 -5.75692,5.611495 l -4.55811,11.068383 c -2.3739,0 -5.28002,0.803895 -5.28002,3.178492 V 108.5977 c 0,2.37457 1.87108,5.48702 4.24498,5.48702 h 1.43857 11.19547 l 26.4145,-0.003 h 11.11162 l 0.85424,0.003 c 2.3739,0 4.24497,-3.11245 4.24497,-5.48702 V 95.862771 c 0,-2.230509 -2.73246,-3.289899 -4.96296,-3.433977 L 154.78254,80.90709 c -1.0072,-2.59072 -1.64796,-4.805368 -4.81359,-4.814907 z m 38.81009,38.080319 h -11.11162 v 8.83716 c 0,4.11668 11.11162,4.11668 11.11162,0 z m -37.52612,0 h -11.19547 v 9.17256 c 0,4.11669 11.19547,4.11669 11.19547,0 z m 0.60531,-33.83534 h 24.46364 c 2.80613,0 3.52448,1.941313 3.88467,2.805091 l 1.72682,4.677338 c 0.3602,0.935137 0.28873,5.286562 -2.22992,5.286562 h -31.15472 c -2.59069,0 -3.23793,-3.487507 -2.66229,-4.926269 l 1.943,-5.037631 c 0.57565,-1.510781 1.94171,-2.805091 4.0288,-2.805091 z"
         sodipodi:nodetypes="cccsssccccsssccccccsscccsscssccssccs"
         transform="translate(219.4344,1092.3511)" />
      <path
         id="_146946152"
         style="display:inline;fill:#585858;fill-opacity:1;fill-rule:evenodd;stroke:#1f1a17;stroke-width:0.00875234"
         class="fil2 str0"
         inkscape:label="left"
         d="m 51.581097,76.004401 c -3.1663,-0.0095 -4.605665,2.733313 -5.756922,5.611495 l -4.558109,11.068383 c -2.373903,0 -5.280017,0.803895 -5.280017,3.178492 V 108.5977 c 0,2.37457 1.871075,5.48702 4.244976,5.48702 H 41.6696 52.865068 l 26.414497,-0.003 h 11.111621 l 0.854238,0.003 c 2.3739,0 4.244969,-3.11245 4.244969,-5.48702 V 95.862771 c 0,-2.230509 -2.732457,-3.289899 -4.962951,-3.433977 L 85.839625,80.90709 C 84.83243,78.31637 84.19167,76.101722 81.026035,76.092183 Z M 90.391186,114.08472 H 79.279565 v 8.83716 c 0,4.11668 11.111621,4.11668 11.111621,0 z m -37.526118,0 H 41.6696 v 9.17256 c 0,4.11669 11.195468,4.11669 11.195468,0 z m 0.605307,-33.83534 h 24.463643 c 2.80613,0 3.524476,1.941313 3.884674,2.805091 l 1.726815,4.677338 c 0.360205,0.935137 0.28873,5.286562 -2.229923,5.286562 H 50.160863 c -2.590688,0 -3.237928,-3.487507 -2.662281,-4.926269 l 1.942994,-5.037631 c 0.575652,-1.510781 1.941708,-2.805091 4.028799,-2.805091 z"
         sodipodi:nodetypes="cccsssccccsssccccccsscccsscssccssccs"
         transform="translate(219.4344,1092.3511)" />
    </g>
    <path
       d="m 158.61751,31.382487 c -35.05441,-35.0544178 -92.180607,-35.0544166 -127.235023,0 -35.0544158,35.054415 -35.0544229,92.180613 0,127.235023 35.054408,35.05441 92.180603,35.05441 127.235023,0 35.05442,-35.05441 35.05442,-92.180608 0,-127.235023 z m -5.83363,5.833631 c 0.71278,0.712775 1.39627,1.433079 2.07713,2.165514 L 39.381632,154.86101 c -0.732435,-0.68086 -1.452739,-1.36435 -2.165514,-2.07713 -0.705358,-0.70536 -1.380928,-1.4188 -2.055029,-2.14342 L 150.64046,35.161089 c 0.72462,0.674102 1.43806,1.349671 2.14342,2.055029 z M 147.61316,32.487341 32.487341,147.61316 c -1.304292,-1.54773 -2.54133,-3.10967 -3.71231,-4.72877 L 142.88439,28.775031 c 1.6191,1.170982 3.18104,2.408018 4.72877,3.71231 z m 9.9216,9.921592 c 1.30357,1.548085 2.54203,3.109371 3.71231,4.728777 L 47.13771,161.24707 c -1.619409,-1.17027 -3.180694,-2.40873 -4.728777,-3.71231 z M 139.50353,26.454836 26.454836,139.50353 C 5.9165204,107.85295 9.5017604,64.930475 37.216118,37.216118 64.930472,9.5017639 107.85295,5.9165204 139.50353,26.454836 Z m 24.06373,24.063728 C 184.0869,82.16667 180.49071,125.07705 152.78388,152.78388 125.07705,180.49072 82.166662,184.0869 50.518564,163.56726 Z"
       id="path2385"
       style="fill:#000000;fill-opacity:1;fill-rule:evenodd;stroke:none;stroke-width:16;stroke-miterlimit:4;stroke-dasharray:none;stroke-opacity:1"
       inkscape:label="black" />
  </g>
</svg>
