<?xml version="1.0" encoding="UTF-8" standalone="no"?>
<!-- Created with Inkscape (http://www.inkscape.org/) -->

<svg
   height="200"
   id="svg118"
   inkscape:output_extension="org.inkscape.output.svg.inkscape"
   inkscape:version="1.3 (0e150ed6c4, 2023-07-21)"
   sodipodi:docname="3.27.svg"
   sodipodi:version="0.32"
   version="1.0"
   width="200"
   xmlns:inkscape="http://www.inkscape.org/namespaces/inkscape"
   xmlns:sodipodi="http://sodipodi.sourceforge.net/DTD/sodipodi-0.dtd"
   xmlns="http://www.w3.org/2000/svg"
   xmlns:svg="http://www.w3.org/2000/svg"
   xmlns:rdf="http://www.w3.org/1999/02/22-rdf-syntax-ns#"
   xmlns:cc="http://creativecommons.org/ns#"
   xmlns:dc="http://purl.org/dc/elements/1.1/">
  <title
     id="title1">Заборонні знаки » Дорожні знаки » ПДР Тест Центр</title>
  <metadata
     id="metadata118">
    <rdf:RDF>
      <cc:Work
         rdf:about="">
        <dc:format>&#10;					image/svg+xml&#10;				</dc:format>
        <dc:type
           rdf:resource="http://purl.org/dc/dcmitype/StillImage" />
        <dc:title>Заборонні знаки » Дорожні знаки » ПДР Тест Центр</dc:title>
        <cc:license
           rdf:resource="http://creativecommons.org/licenses/by-nc-sa/4.0/" />
        <dc:creator>
          <cc:Agent>
            <dc:title>ПДР Тест Центр | PDR Test Center</dc:title>
          </cc:Agent>
        </dc:creator>
        <dc:rights>
          <cc:Agent>
            <dc:title>ПДР Тест Центр | PDR Test Center</dc:title>
          </cc:Agent>
        </dc:rights>
        <dc:language>uk-UA</dc:language>
        <dc:date>2023-09-01</dc:date>
        <dc:publisher>
          <cc:Agent>
            <dc:title>https://pdrtest.com/</dc:title>
          </cc:Agent>
        </dc:publisher>
        <dc:source>https://pdrtest.com/driver/rules/section/33.3</dc:source>
      </cc:Work>
      <cc:License
         rdf:about="http://creativecommons.org/licenses/by-nc-sa/4.0/">
        <cc:permits
           rdf:resource="http://creativecommons.org/ns#Reproduction" />
        <cc:permits
           rdf:resource="http://creativecommons.org/ns#Distribution" />
        <cc:requires
           rdf:resource="http://creativecommons.org/ns#Notice" />
        <cc:requires
           rdf:resource="http://creativecommons.org/ns#Attribution" />
        <cc:prohibits
           rdf:resource="http://creativecommons.org/ns#CommercialUse" />
        <cc:permits
           rdf:resource="http://creativecommons.org/ns#DerivativeWorks" />
        <cc:requires
           rdf:resource="http://creativecommons.org/ns#ShareAlike" />
      </cc:License>
    </rdf:RDF>
  </metadata>
  <defs
     id="defs118">
    <inkscape:perspective
       id="perspective118"
       inkscape:persp3d-origin="372.04724 : 360.78739 : 1"
       inkscape:vp_x="0 : 536.18109 : 1"
       inkscape:vp_y="0 : 1000 : 0"
       inkscape:vp_z="744.09448 : 536.18109 : 1"
       sodipodi:type="inkscape:persp3d" />
    <inkscape:perspective
       id="perspective109"
       inkscape:persp3d-origin="372.04724 : 360.78739 : 1"
       inkscape:vp_x="0 : 536.18109 : 1"
       inkscape:vp_y="0 : 1000 : 0"
       inkscape:vp_z="744.09448 : 536.18109 : 1"
       sodipodi:type="inkscape:persp3d" />
    <inkscape:perspective
       id="perspective120"
       inkscape:persp3d-origin="372.04724 : 360.78739 : 1"
       inkscape:vp_x="0 : 536.18109 : 1"
       inkscape:vp_y="0 : 1000 : 0"
       inkscape:vp_z="744.09448 : 536.18109 : 1"
       sodipodi:type="inkscape:persp3d" />
  </defs>
  <sodipodi:namedview
     bordercolor="#666666"
     borderopacity="1.0"
     gridtolerance="10.0"
     guidetolerance="10.0"
     id="base"
     inkscape:current-layer="svg118"
     inkscape:cx="131.52186"
     inkscape:cy="177.13024"
     inkscape:guide-bbox="true"
     inkscape:pageopacity="0.0"
     inkscape:pageshadow="2"
     inkscape:window-height="1009"
     inkscape:window-width="1920"
     inkscape:zoom="1.4142136"
     objecttolerance="10.0"
     pagecolor="#ffffff"
     showgrid="false"
     showguides="false"
     inkscape:showpageshadow="2"
     inkscape:pagecheckerboard="0"
     inkscape:deskcolor="#d1d1d1"
     inkscape:window-x="1912"
     inkscape:window-y="-8"
     inkscape:window-maximized="1" />
  <g
     id="g2542"
     transform="translate(4.9999971,5.0000002)"
     inkscape:label="sign_3_27"
     style="display:inline;opacity:1">
    <path
       d="m 281.61136,-0.5172025 c -46.24606,0 -83.93438,37.6883205 -83.93438,83.9343745 0,46.246058 37.68832,83.934388 83.93438,83.934378 46.24605,0 83.93436,-37.68832 83.93437,-83.934378 0,-46.246054 -37.68832,-83.9343745 -83.93437,-83.9343745 z"
       id="path3157"
       sodipodi:nodetypes="csssc"
       style="opacity:1;fill:#ffffff;fill-opacity:1;fill-rule:evenodd;stroke:#000000;stroke-width:1.77688;stroke-miterlimit:4;stroke-dasharray:none;stroke-opacity:1"
       inkscape:label="bg"
       transform="matrix(1.1255696,0,0,1.1255696,-221.97365,1.1076409)" />
    <path
       d="m 281.61118,3.479473 c -44.04386,0 -79.9375,35.893639 -79.9375,79.9375 0,44.043857 35.89364,79.937507 79.9375,79.937497 44.04386,0 79.93749,-35.89364 79.9375,-79.937497 0,-44.043861 -35.89364,-79.9375 -79.9375,-79.9375 z m 0,16 c 35.38686,0 63.9375,28.55064 63.9375,63.9375 -10e-6,35.386857 -28.55064,63.937497 -63.9375,63.937497 -35.38685,1e-5 -63.9375,-28.55064 -63.9375,-63.937497 0,-35.38686 28.55064,-63.9375 63.9375,-63.9375 z"
       id="path2385"
       style="opacity:1;fill:#ff0000;fill-opacity:1;fill-rule:evenodd;stroke:none;stroke-width:16;stroke-miterlimit:4;stroke-dasharray:none;stroke-opacity:1"
       transform="matrix(1.1255696,0,0,1.1255696,-221.97365,1.1076409)"
       inkscape:label="red" />
    <g
       id="g3554"
       transform="translate(-442.91156,-1096.6122)"
       inkscape:label="sign">
      <path
         id="path1"
         style="display:inline;opacity:1;fill:#000000;fill-rule:evenodd;stroke:#1f1a17;stroke-width:0.0075942"
         class="fil2 str0"
         inkscape:label="car_black"
         d="m 113.82056,83.215345 c -2.74732,-0.0087 -3.99623,2.371628 -4.99514,4.868965 l -3.95496,9.60377 c -2.05978,0 -4.58135,0.697518 -4.58135,2.7579 v 11.0498 c 0,2.06036 1.62349,4.76095 3.68327,4.76095 h 1.24821 9.71404 l 22.91924,-0.003 h 9.64129 l 0.7412,0.003 c 2.05978,0 3.68326,-2.70059 3.68326,-4.76095 v -11.0498 c 0,-1.935358 -2.37089,-2.854568 -4.30624,-2.979582 l -4.0675,-9.997105 c -0.87393,-2.247906 -1.4299,-4.169505 -4.17664,-4.177783 z m 33.6746,33.041385 h -9.64129 v 7.6678 c 0,3.57194 9.64129,3.57194 9.64129,0 z m -32.56053,0 h -9.71404 v 7.95882 c 0,3.57195 9.71404,3.57195 9.71404,0 z m 0.52522,-29.358117 h 21.22652 c 2.43481,0 3.0581,1.684429 3.37063,2.43391 l 1.49832,4.058417 c 0.31254,0.811399 0.25053,4.587022 -1.93485,4.587022 h -27.03221 c -2.24788,0 -2.80947,-3.026029 -2.31,-4.274407 l 1.68589,-4.371032 c 0.49948,-1.310868 1.68478,-2.43391 3.4957,-2.43391 z"
         sodipodi:nodetypes="cccsssccccsssccccccsscccsscssccssccs"
         transform="translate(442.91156,1096.6122)" />
      <path
         id="rect1"
         style="display:inline;opacity:1;fill:#ff0000;stroke:none;stroke-width:3.115;paint-order:stroke fill markers"
         d="M 42.730472 56.871094 C 40.282119 56.871094 38.31055 58.842664 38.31055 61.291015 L 38.31055 109.55078 C 38.31055 111.99914 40.282119 113.9707 42.730472 113.9707 L 42.994144 113.9707 L 42.994144 122.9043 C 42.994144 125.35265 44.965711 127.32422 47.414065 127.32422 L 48.298831 127.32422 C 50.747186 127.32422 52.7168 125.35265 52.7168 122.9043 L 52.7168 113.9707 L 59.324222 113.9707 A 7.25 5.03125 0 0 0 59.312503 114.09375 A 7.25 5.03125 0 0 0 66.562503 119.125 A 7.25 5.03125 0 0 0 73.812503 114.09375 A 7.25 5.03125 0 0 0 73.808597 113.9707 L 79.619144 113.9707 L 79.619144 122.9043 C 79.619144 125.35265 81.590711 127.32422 84.039065 127.32422 L 84.923831 127.32422 C 87.372186 127.32422 89.3418 125.35265 89.3418 122.9043 L 89.3418 113.95508 C 91.650038 113.80262 93.464847 111.89888 93.464847 109.55078 L 93.464847 61.291015 C 93.464847 58.842664 91.493277 56.871094 89.044925 56.871094 L 42.730472 56.871094 z "
         inkscape:label="car_red"
         transform="translate(442.91156,1096.6122)" />
    </g>
  </g>
</svg>
