<?xml version="1.0" encoding="UTF-8" standalone="no"?>
<!-- Created with Inkscape (http://www.inkscape.org/) -->

<svg
   height="200"
   id="svg118"
   inkscape:output_extension="org.inkscape.output.svg.inkscape"
   inkscape:version="1.3 (0e150ed6c4, 2023-07-21)"
   sodipodi:docname="3.28.svg"
   sodipodi:version="0.32"
   version="1.0"
   width="200"
   xmlns:inkscape="http://www.inkscape.org/namespaces/inkscape"
   xmlns:sodipodi="http://sodipodi.sourceforge.net/DTD/sodipodi-0.dtd"
   xmlns="http://www.w3.org/2000/svg"
   xmlns:svg="http://www.w3.org/2000/svg"
   xmlns:rdf="http://www.w3.org/1999/02/22-rdf-syntax-ns#"
   xmlns:cc="http://creativecommons.org/ns#"
   xmlns:dc="http://purl.org/dc/elements/1.1/">
  <title
     id="title1">Заборонні знаки » Дорожні знаки » ПДР Тест Центр</title>
  <metadata
     id="metadata118">
    <rdf:RDF>
      <cc:Work
         rdf:about="">
        <dc:format>&#10;					image/svg+xml&#10;				</dc:format>
        <dc:type
           rdf:resource="http://purl.org/dc/dcmitype/StillImage" />
        <dc:title>Заборонні знаки » Дорожні знаки » ПДР Тест Центр</dc:title>
        <cc:license
           rdf:resource="http://creativecommons.org/licenses/by-nc-sa/4.0/" />
        <dc:creator>
          <cc:Agent>
            <dc:title>ПДР Тест Центр | PDR Test Center</dc:title>
          </cc:Agent>
        </dc:creator>
        <dc:rights>
          <cc:Agent>
            <dc:title>ПДР Тест Центр | PDR Test Center</dc:title>
          </cc:Agent>
        </dc:rights>
        <dc:language>uk-UA</dc:language>
        <dc:date>2023-09-01</dc:date>
        <dc:publisher>
          <cc:Agent>
            <dc:title>https://pdrtest.com/</dc:title>
          </cc:Agent>
        </dc:publisher>
        <dc:source>https://pdrtest.com/driver/rules/section/33.3</dc:source>
      </cc:Work>
      <cc:License
         rdf:about="http://creativecommons.org/licenses/by-nc-sa/4.0/">
        <cc:permits
           rdf:resource="http://creativecommons.org/ns#Reproduction" />
        <cc:permits
           rdf:resource="http://creativecommons.org/ns#Distribution" />
        <cc:requires
           rdf:resource="http://creativecommons.org/ns#Notice" />
        <cc:requires
           rdf:resource="http://creativecommons.org/ns#Attribution" />
        <cc:prohibits
           rdf:resource="http://creativecommons.org/ns#CommercialUse" />
        <cc:permits
           rdf:resource="http://creativecommons.org/ns#DerivativeWorks" />
        <cc:requires
           rdf:resource="http://creativecommons.org/ns#ShareAlike" />
      </cc:License>
    </rdf:RDF>
  </metadata>
  <defs
     id="defs118">
    <inkscape:perspective
       id="perspective118"
       inkscape:persp3d-origin="372.04724 : 360.78739 : 1"
       inkscape:vp_x="0 : 536.18109 : 1"
       inkscape:vp_y="0 : 1000 : 0"
       inkscape:vp_z="744.09448 : 536.18109 : 1"
       sodipodi:type="inkscape:persp3d" />
    <inkscape:perspective
       id="perspective109"
       inkscape:persp3d-origin="372.04724 : 360.78739 : 1"
       inkscape:vp_x="0 : 536.18109 : 1"
       inkscape:vp_y="0 : 1000 : 0"
       inkscape:vp_z="744.09448 : 536.18109 : 1"
       sodipodi:type="inkscape:persp3d" />
    <inkscape:perspective
       id="perspective120"
       inkscape:persp3d-origin="372.04724 : 360.78739 : 1"
       inkscape:vp_x="0 : 536.18109 : 1"
       inkscape:vp_y="0 : 1000 : 0"
       inkscape:vp_z="744.09448 : 536.18109 : 1"
       sodipodi:type="inkscape:persp3d" />
  </defs>
  <sodipodi:namedview
     bordercolor="#666666"
     borderopacity="1.0"
     gridtolerance="10.0"
     guidetolerance="10.0"
     id="base"
     inkscape:current-layer="g3264"
     inkscape:cx="89.920875"
     inkscape:cy="88.681808"
     inkscape:guide-bbox="true"
     inkscape:pageopacity="0.0"
     inkscape:pageshadow="2"
     inkscape:window-height="1009"
     inkscape:window-width="1920"
     inkscape:zoom="2.8247056"
     objecttolerance="10.0"
     pagecolor="#ffffff"
     showgrid="false"
     showguides="false"
     inkscape:showpageshadow="2"
     inkscape:pagecheckerboard="0"
     inkscape:deskcolor="#d1d1d1"
     inkscape:window-x="1912"
     inkscape:window-y="-8"
     inkscape:window-maximized="1" />
  <g
     id="g3264"
     transform="translate(4.9999971,5.0000002)"
     inkscape:label="sign_3_28">
    <path
       d="m 281.61136,-0.5172025 c -46.24606,0 -83.93438,37.6883205 -83.93438,83.9343745 0,46.246058 37.68832,83.934388 83.93438,83.934378 46.24605,0 83.93436,-37.68832 83.93437,-83.934378 0,-46.246054 -37.68832,-83.9343745 -83.93437,-83.9343745 z"
       id="path3157"
       sodipodi:nodetypes="csssc"
       style="opacity:1;fill:#ffffff;fill-opacity:1;fill-rule:evenodd;stroke:#000000;stroke-width:1.77687812;stroke-miterlimit:4;stroke-dasharray:none;stroke-opacity:1"
       transform="matrix(1.1255696,0,0,1.1255696,-221.97365,1.1076409)"
       inkscape:label="bg" />
    <g
       id="g3554"
       style="fill:#808080;fill-opacity:1"
       transform="translate(-432.71799,-1085.8388)"
       inkscape:label="sign">
      <path
         id="path1"
         style="display:inline;fill:#585858;fill-rule:evenodd;stroke:#1f1a17;stroke-width:0.0075942;fill-opacity:1"
         class="fil2 str0"
         inkscape:label="car_black"
         d="m 103.51001,75.344245 c -2.74732,-0.0087 -3.99623,2.371628 -4.99514,4.868965 l -3.95496,9.60377 c -2.05978,0 -4.58135,0.697518 -4.58135,2.7579 v 11.0498 c 0,2.06036 1.62349,4.76095 3.68327,4.76095 h 1.24821 9.71404 l 22.91924,-0.003 h 9.64129 l 0.7412,0.003 c 2.05978,0 3.68326,-2.70059 3.68326,-4.76095 v -11.0498 c 0,-1.935358 -2.37089,-2.854568 -4.30624,-2.979582 l -4.0675,-9.997105 c -0.87393,-2.247906 -1.4299,-4.169505 -4.17664,-4.177783 z m 33.6746,33.041385 h -9.64129 v 7.6678 c 0,3.57194 9.64129,3.57194 9.64129,0 z m -32.56053,0 h -9.71404 v 7.95882 c 0,3.57195 9.71404,3.57195 9.71404,0 z m 0.52522,-29.358117 h 21.22652 c 2.43481,0 3.0581,1.684429 3.37063,2.43391 l 1.49832,4.058417 c 0.31254,0.811399 0.25053,4.587022 -1.93485,4.587022 h -27.03221 c -2.24788,0 -2.80947,-3.026029 -2.31,-4.274407 l 1.68589,-4.371032 c 0.49948,-1.310868 1.68478,-2.43391 3.4957,-2.43391 z"
         sodipodi:nodetypes="cccsssccccsssccccccsscccsscssccssccs"
         transform="translate(442.91156,1096.6122)" />
      <path
         id="rect1"
         style="display:inline;fill:#585858;stroke:none;stroke-width:3.115;paint-order:stroke fill markers;fill-opacity:1"
         d="M 32.419922,48.999994 C 29.971569,48.999994 28,50.971564 28,53.419915 v 48.259765 c 0,2.44836 1.971569,4.41992 4.419922,4.41992 h 0.263672 v 8.9336 c 0,2.44835 1.971567,4.41992 4.419921,4.41992 h 0.884766 c 2.448355,0 4.417969,-1.97157 4.417969,-4.41992 v -8.9336 h 6.607422 a 7.25,5.03125 0 0 0 -0.01172,0.12305 7.25,5.03125 0 0 0 7.25,5.03125 7.25,5.03125 0 0 0 7.25,-5.03125 7.25,5.03125 0 0 0 -0.0039,-0.12305 h 5.810547 v 8.9336 c 0,2.44835 1.971567,4.41992 4.419921,4.41992 h 0.884766 c 2.448355,0 4.417969,-1.97157 4.417969,-4.41992 v -8.94922 c 2.308238,-0.15246 4.123047,-2.0562 4.123047,-4.4043 V 53.419915 c 0,-2.448351 -1.97157,-4.419921 -4.419922,-4.419921 z"
         inkscape:label="car_red"
         transform="translate(442.91156,1096.6122)" />
    </g>
    <path
       d="m 158.61751,31.382487 c -35.05441,-35.0544178 -92.180607,-35.0544166 -127.235023,0 -35.0544158,35.054415 -35.0544229,92.180613 0,127.235023 35.054408,35.05441 92.180603,35.05441 127.235023,0 35.05442,-35.05441 35.05442,-92.180608 0,-127.235023 z m -5.83363,5.833631 c 0.71278,0.712775 1.39627,1.433079 2.07713,2.165514 L 39.381632,154.86101 c -0.732435,-0.68086 -1.452739,-1.36435 -2.165514,-2.07713 -0.705358,-0.70536 -1.380928,-1.4188 -2.055029,-2.14342 L 150.64046,35.161089 c 0.72462,0.674102 1.43806,1.349671 2.14342,2.055029 z M 147.61316,32.487341 32.487341,147.61316 c -1.304292,-1.54773 -2.54133,-3.10967 -3.71231,-4.72877 L 142.88439,28.775031 c 1.6191,1.170982 3.18104,2.408018 4.72877,3.71231 z m 9.9216,9.921592 c 1.30357,1.548085 2.54203,3.109371 3.71231,4.728777 L 47.13771,161.24707 c -1.619409,-1.17027 -3.180694,-2.40873 -4.728777,-3.71231 z M 139.50353,26.454836 26.454836,139.50353 C 5.9165204,107.85295 9.5017604,64.930475 37.216118,37.216118 64.930472,9.5017639 107.85295,5.9165204 139.50353,26.454836 Z m 24.06373,24.063728 C 184.0869,82.16667 180.49071,125.07705 152.78388,152.78388 125.07705,180.49072 82.166662,184.0869 50.518564,163.56726 Z"
       id="path2385"
       style="fill:#000000;fill-opacity:1;fill-rule:evenodd;stroke:none;stroke-width:16;stroke-miterlimit:4;stroke-dasharray:none;stroke-opacity:1"
       inkscape:label="black" />
  </g>
</svg>
