<?xml version="1.0" encoding="UTF-8" standalone="no"?>
<!-- Created with Inkscape (http://www.inkscape.org/) -->

<svg
   height="200"
   id="svg118"
   inkscape:output_extension="org.inkscape.output.svg.inkscape"
   inkscape:version="1.3 (0e150ed6c4, 2023-07-21)"
   sodipodi:docname="3.29.svg"
   sodipodi:version="0.32"
   version="1.0"
   width="200"
   xmlns:inkscape="http://www.inkscape.org/namespaces/inkscape"
   xmlns:sodipodi="http://sodipodi.sourceforge.net/DTD/sodipodi-0.dtd"
   xmlns="http://www.w3.org/2000/svg"
   xmlns:svg="http://www.w3.org/2000/svg"
   xmlns:rdf="http://www.w3.org/1999/02/22-rdf-syntax-ns#"
   xmlns:cc="http://creativecommons.org/ns#"
   xmlns:dc="http://purl.org/dc/elements/1.1/">
  <title
     id="title1">Заборонні знаки » Дорожні знаки » ПДР Тест Центр</title>
  <metadata
     id="metadata118">
    <rdf:RDF>
      <cc:Work
         rdf:about="">
        <dc:format>&#10;					image/svg+xml&#10;				</dc:format>
        <dc:type
           rdf:resource="http://purl.org/dc/dcmitype/StillImage" />
        <dc:title>Заборонні знаки » Дорожні знаки » ПДР Тест Центр</dc:title>
        <cc:license
           rdf:resource="http://creativecommons.org/licenses/by-nc-sa/4.0/" />
        <dc:creator>
          <cc:Agent>
            <dc:title>ПДР Тест Центр | PDR Test Center</dc:title>
          </cc:Agent>
        </dc:creator>
        <dc:rights>
          <cc:Agent>
            <dc:title>ПДР Тест Центр | PDR Test Center</dc:title>
          </cc:Agent>
        </dc:rights>
        <dc:language>uk-UA</dc:language>
        <dc:date>2023-09-01</dc:date>
        <dc:publisher>
          <cc:Agent>
            <dc:title>https://pdrtest.com/</dc:title>
          </cc:Agent>
        </dc:publisher>
        <dc:source>https://pdrtest.com/driver/rules/section/33.3</dc:source>
      </cc:Work>
      <cc:License
         rdf:about="http://creativecommons.org/licenses/by-nc-sa/4.0/">
        <cc:permits
           rdf:resource="http://creativecommons.org/ns#Reproduction" />
        <cc:permits
           rdf:resource="http://creativecommons.org/ns#Distribution" />
        <cc:requires
           rdf:resource="http://creativecommons.org/ns#Notice" />
        <cc:requires
           rdf:resource="http://creativecommons.org/ns#Attribution" />
        <cc:prohibits
           rdf:resource="http://creativecommons.org/ns#CommercialUse" />
        <cc:permits
           rdf:resource="http://creativecommons.org/ns#DerivativeWorks" />
        <cc:requires
           rdf:resource="http://creativecommons.org/ns#ShareAlike" />
      </cc:License>
    </rdf:RDF>
  </metadata>
  <defs
     id="defs118">
    <inkscape:perspective
       id="perspective118"
       inkscape:persp3d-origin="372.04724 : 360.78739 : 1"
       inkscape:vp_x="0 : 536.18109 : 1"
       inkscape:vp_y="0 : 1000 : 0"
       inkscape:vp_z="744.09448 : 536.18109 : 1"
       sodipodi:type="inkscape:persp3d" />
    <inkscape:perspective
       id="perspective109"
       inkscape:persp3d-origin="372.04724 : 360.78739 : 1"
       inkscape:vp_x="0 : 536.18109 : 1"
       inkscape:vp_y="0 : 1000 : 0"
       inkscape:vp_z="744.09448 : 536.18109 : 1"
       sodipodi:type="inkscape:persp3d" />
    <inkscape:perspective
       id="perspective120"
       inkscape:persp3d-origin="372.04724 : 360.78739 : 1"
       inkscape:vp_x="0 : 536.18109 : 1"
       inkscape:vp_y="0 : 1000 : 0"
       inkscape:vp_z="744.09448 : 536.18109 : 1"
       sodipodi:type="inkscape:persp3d" />
    <inkscape:perspective
       id="perspective121"
       inkscape:persp3d-origin="372.04724 : 360.78739 : 1"
       inkscape:vp_x="0 : 536.18109 : 1"
       inkscape:vp_y="0 : 1000 : 0"
       inkscape:vp_z="744.09448 : 536.18109 : 1"
       sodipodi:type="inkscape:persp3d" />
    <inkscape:perspective
       id="perspective122"
       inkscape:persp3d-origin="372.04724 : 360.78739 : 1"
       inkscape:vp_x="0 : 536.18109 : 1"
       inkscape:vp_y="0 : 1000 : 0"
       inkscape:vp_z="744.09448 : 536.18109 : 1"
       sodipodi:type="inkscape:persp3d" />
  </defs>
  <sodipodi:namedview
     bordercolor="#666666"
     borderopacity="1.0"
     gridtolerance="10.0"
     guidetolerance="10.0"
     id="base"
     inkscape:current-layer="svg118"
     inkscape:cx="105.58695"
     inkscape:cy="130.70936"
     inkscape:guide-bbox="true"
     inkscape:pageopacity="0.0"
     inkscape:pageshadow="2"
     inkscape:window-height="1009"
     inkscape:window-maximized="1"
     inkscape:window-width="1920"
     inkscape:window-x="1912"
     inkscape:window-y="-8"
     inkscape:zoom="1.3732758"
     objecttolerance="10.0"
     pagecolor="#ffffff"
     showgrid="false"
     showguides="false"
     inkscape:showpageshadow="2"
     inkscape:pagecheckerboard="0"
     inkscape:deskcolor="#d1d1d1" />
  <g
     id="g3537"
     transform="translate(4.9999971,5.0000002)"
     inkscape:label="sign_3_29"
     style="opacity:1">
    <path
       d="m 281.61136,-0.5172025 c -46.24606,0 -83.93438,37.6883205 -83.93438,83.9343745 0,46.246058 37.68832,83.934388 83.93438,83.934378 46.24605,0 83.93436,-37.68832 83.93437,-83.934378 0,-46.246054 -37.68832,-83.9343745 -83.93437,-83.9343745 z"
       id="path3157"
       sodipodi:nodetypes="csssc"
       style="fill:#ffffff;fill-opacity:1;fill-rule:evenodd;stroke:#000000;stroke-opacity:1;stroke-width:1.77687812;stroke-dasharray:none"
       transform="matrix(1.1255696,0,0,1.1255696,-221.97365,1.1076409)"
       inkscape:label="bg" />
    <path
       d="m 281.61118,3.479473 c -44.04386,0 -79.9375,35.893639 -79.9375,79.9375 0,44.043857 35.89364,79.937507 79.9375,79.937497 44.04386,0 79.93749,-35.89364 79.9375,-79.937497 0,-44.043861 -35.89364,-79.9375 -79.9375,-79.9375 z m 0,16 c 35.38686,0 63.9375,28.55064 63.9375,63.9375 -10e-6,35.386857 -28.55064,63.937497 -63.9375,63.937497 -35.38685,1e-5 -63.9375,-28.55064 -63.9375,-63.937497 0,-35.38686 28.55064,-63.9375 63.9375,-63.9375 z"
       id="path2385"
       style="fill:#ff0000;fill-opacity:1;fill-rule:evenodd;stroke:none"
       transform="matrix(1.1255696,0,0,1.1255696,-221.97365,1.1076409)"
       inkscape:label="red" />
    <g
       id="text2691"
       style="font-style:normal;font-variant:normal;font-weight:bold;font-stretch:normal;font-size:79.1926px;line-height:125%;font-family:Arial;-inkscape-font-specification:'Arial Black, Bold';text-align:start;writing-mode:lr-tb;text-anchor:start;opacity:1;fill:#000000;fill-opacity:1;stroke:none"
       transform="matrix(1.2104039,0,0,1.2104039,-1028.1612,-21.79817)"
       inkscape:label="sign">
      <path
         d="m 930.21475,96.263193 c 0,-10.775518 1.62583,-18.315822 4.87749,-22.620936 3.27334,-4.305012 8.24837,-6.457543 14.92514,-6.457601 3.20828,5.8e-5 5.84212,0.476966 7.90154,1.430726 2.05935,0.928094 3.73938,2.152587 5.04007,3.673485 1.30063,1.495224 2.31948,3.080622 3.05657,4.756197 0.75868,1.649892 1.36565,3.583304 1.82093,5.80024 0.88874,4.227769 1.33314,8.635947 1.33318,13.224548 -4e-5,10.285778 -1.46329,17.813188 -4.38975,22.582268 -2.92652,4.76909 -7.9666,7.15363 -15.12022,7.15363 -4.01041,0 -7.25122,-0.76048 -9.72248,-2.28143 -2.47127,-1.52095 -4.49814,-3.75082 -6.0806,-6.68961 -1.14893,-2.08808 -2.04856,-4.93663 -2.69889,-8.54569 -0.62866,-3.63479 -0.94298,-7.6434 -0.94298,-12.025827 m 13.13672,0.03867 c -2e-5,7.218097 0.53108,12.154737 1.59331,14.809947 1.08387,2.62945 2.64467,3.94417 4.6824,3.94416 1.34399,1e-5 2.50376,-0.55423 3.47927,-1.66273 0.99716,-1.13426 1.72336,-2.913 2.17862,-5.33623 0.47688,-2.42319 0.71533,-6.19978 0.71537,-11.329796 -4e-5,-7.527387 -0.54198,-12.580035 -1.62583,-15.157961 -1.06224,-2.603617 -2.66639,-3.905447 -4.81247,-3.905495 -2.18947,4.8e-5 -3.77194,1.327657 -4.74743,3.982832 -0.97551,2.629483 -1.46326,7.514569 -1.46324,14.655273"
         id="path3535"
         style="font-weight:normal;font-family:'Arial Black';-inkscape-font-specification:'Arial Black,';stroke-width:0.917013"
         inkscape:label="0" />
      <path
         d="m 892.84652,68.151363 h 32.78713 V 80.71855 H 903.4252 l -1.1867,8.507018 c 1.53704,-0.824886 3.0515,-1.443578 4.5434,-1.856076 1.51444,-0.412424 3.0063,-0.618655 4.47559,-0.618693 4.97285,3.8e-5 9.00766,1.71433 12.10445,5.14288 3.09671,3.428616 4.64508,7.746568 4.64512,12.953871 -4e-5,3.66061 -0.80248,7.17942 -2.40733,10.55644 -1.58231,3.37703 -3.84272,5.95491 -6.7812,7.73365 -2.91595,1.77874 -6.65691,2.66811 -11.22289,2.66811 -3.2776,0 -6.09179,-0.34802 -8.44259,-1.04404 -2.32823,-0.72181 -4.31738,-1.77874 -5.96746,-3.1708 -1.6275,-1.41783 -2.94983,-3.01612 -3.96701,-4.79487 -1.01718,-1.77873 -1.86483,-3.99571 -2.54294,-6.65094 l 13.96926,-1.74007 c 0.33905,2.55212 1.1302,4.49842 2.37343,5.83891 1.2432,1.31473 2.72377,1.97209 4.4417,1.97208 1.92131,1e-5 3.50359,-0.82491 4.74682,-2.47477 1.26581,-1.67561 1.89871,-4.16327 1.89874,-7.46298 -3e-5,-3.377 -0.63293,-5.85177 -1.89874,-7.424303 -1.26584,-1.572482 -2.94984,-2.358736 -5.05199,-2.358764 -1.33365,2.8e-5 -2.62208,0.373821 -3.86529,1.121379 -0.92676,0.541383 -1.94395,1.520978 -3.05153,2.938788 l -11.76538,-1.933413 4.37386,-30.470594"
         id="path3533"
         style="font-style:normal;font-variant:normal;font-weight:normal;font-stretch:normal;font-size:79.1926px;line-height:125%;font-family:'Arial Black';-inkscape-font-specification:'Arial Black,';text-align:start;writing-mode:lr-tb;text-anchor:start;fill:#000000;fill-opacity:1;stroke:none;stroke-width:0.936399"
         inkscape:label="5" />
    </g>
  </g>
</svg>
