<?xml version="1.0" encoding="UTF-8" standalone="no"?>
<!-- Created with Inkscape (http://www.inkscape.org/) -->

<svg
   height="280"
   id="svg2"
   inkscape:output_extension="org.inkscape.output.svg.inkscape"
   inkscape:version="1.3 (0e150ed6c4, 2023-07-21)"
   sodipodi:docname="3.32.svg"
   sodipodi:version="0.32"
   version="1.0"
   width="200"
   xmlns:inkscape="http://www.inkscape.org/namespaces/inkscape"
   xmlns:sodipodi="http://sodipodi.sourceforge.net/DTD/sodipodi-0.dtd"
   xmlns="http://www.w3.org/2000/svg"
   xmlns:svg="http://www.w3.org/2000/svg"
   xmlns:rdf="http://www.w3.org/1999/02/22-rdf-syntax-ns#"
   xmlns:cc="http://creativecommons.org/ns#"
   xmlns:dc="http://purl.org/dc/elements/1.1/">
  <title
     id="title1">Заборонні знаки » Дорожні знаки » ПДР Тест Центр</title>
  <metadata
     id="metadata7">
    <rdf:RDF>
      <cc:Work
         rdf:about="">
        <dc:format>&#10;					image/svg+xml&#10;				</dc:format>
        <dc:type
           rdf:resource="http://purl.org/dc/dcmitype/StillImage" />
        <cc:license
           rdf:resource="http://creativecommons.org/licenses/by-nc-sa/4.0/" />
        <dc:creator>
          <cc:Agent>
            <dc:title>ПДР Тест Центр | PDR Test Center</dc:title>
          </cc:Agent>
        </dc:creator>
        <dc:rights>
          <cc:Agent>
            <dc:title>ПДР Тест Центр | PDR Test Center</dc:title>
          </cc:Agent>
        </dc:rights>
        <dc:language>uk-UA</dc:language>
        <dc:date>2023-09-01</dc:date>
        <dc:title>Заборонні знаки » Дорожні знаки » ПДР Тест Центр</dc:title>
        <dc:publisher>
          <cc:Agent>
            <dc:title>https://pdrtest.com/</dc:title>
          </cc:Agent>
        </dc:publisher>
        <dc:source>https://pdrtest.com/driver/rules/section/33.3</dc:source>
      </cc:Work>
      <cc:License
         rdf:about="http://creativecommons.org/licenses/by-nc-sa/4.0/">
        <cc:permits
           rdf:resource="http://creativecommons.org/ns#Reproduction" />
        <cc:permits
           rdf:resource="http://creativecommons.org/ns#Distribution" />
        <cc:requires
           rdf:resource="http://creativecommons.org/ns#Notice" />
        <cc:requires
           rdf:resource="http://creativecommons.org/ns#Attribution" />
        <cc:prohibits
           rdf:resource="http://creativecommons.org/ns#CommercialUse" />
        <cc:permits
           rdf:resource="http://creativecommons.org/ns#DerivativeWorks" />
        <cc:requires
           rdf:resource="http://creativecommons.org/ns#ShareAlike" />
      </cc:License>
    </rdf:RDF>
  </metadata>
  <defs
     id="defs5">
    <inkscape:perspective
       id="perspective9"
       inkscape:persp3d-origin="372.04724 : 334.10074 : 1"
       inkscape:vp_x="0 : 509.49444 : 1"
       inkscape:vp_y="0 : 1000 : 0"
       inkscape:vp_z="744.09448 : 509.49444 : 1"
       sodipodi:type="inkscape:persp3d" />
    <inkscape:perspective
       id="perspective122"
       inkscape:persp3d-origin="372.04724 : 334.10074 : 1"
       inkscape:vp_x="0 : 509.49444 : 1"
       inkscape:vp_y="0 : 1000 : 0"
       inkscape:vp_z="744.09448 : 509.49444 : 1"
       sodipodi:type="inkscape:persp3d" />
    <inkscape:perspective
       id="perspective121"
       inkscape:persp3d-origin="372.04724 : 334.10074 : 1"
       inkscape:vp_x="0 : 509.49444 : 1"
       inkscape:vp_y="0 : 1000 : 0"
       inkscape:vp_z="744.09448 : 509.49444 : 1"
       sodipodi:type="inkscape:persp3d" />
    <inkscape:perspective
       id="perspective120"
       inkscape:persp3d-origin="372.04724 : 334.10074 : 1"
       inkscape:vp_x="0 : 509.49444 : 1"
       inkscape:vp_y="0 : 1000 : 0"
       inkscape:vp_z="744.09448 : 509.49444 : 1"
       sodipodi:type="inkscape:persp3d" />
    <inkscape:perspective
       id="perspective109"
       inkscape:persp3d-origin="372.04724 : 334.10074 : 1"
       inkscape:vp_x="0 : 509.49444 : 1"
       inkscape:vp_y="0 : 1000 : 0"
       inkscape:vp_z="744.09448 : 509.49444 : 1"
       sodipodi:type="inkscape:persp3d" />
    <inkscape:perspective
       id="perspective118"
       inkscape:persp3d-origin="372.04724 : 334.10074 : 1"
       inkscape:vp_x="0 : 509.49444 : 1"
       inkscape:vp_y="0 : 1000 : 0"
       inkscape:vp_z="744.09448 : 509.49444 : 1"
       sodipodi:type="inkscape:persp3d" />
    <inkscape:perspective
       id="perspective3396"
       inkscape:persp3d-origin="372.04724 : 334.10074 : 1"
       inkscape:vp_x="0 : 509.49444 : 1"
       inkscape:vp_y="0 : 1000 : 0"
       inkscape:vp_z="744.09448 : 509.49444 : 1"
       sodipodi:type="inkscape:persp3d" />
  </defs>
  <sodipodi:namedview
     bordercolor="#666666"
     borderopacity="1.0"
     gridtolerance="10.0"
     guidetolerance="10.0"
     id="base"
     inkscape:current-layer="svg2"
     inkscape:cx="134.7963"
     inkscape:cy="177.91969"
     inkscape:pageopacity="0.0"
     inkscape:pageshadow="2"
     inkscape:window-height="1009"
     inkscape:window-maximized="1"
     inkscape:window-width="1920"
     inkscape:window-x="-8"
     inkscape:window-y="-8"
     inkscape:zoom="1.7507899"
     objecttolerance="10.0"
     pagecolor="#ffffff"
     showgrid="false"
     inkscape:showpageshadow="2"
     inkscape:pagecheckerboard="0"
     inkscape:deskcolor="#d1d1d1" />
  <g
     id="g3508"
     transform="matrix(0.91132154,0,0,0.91132154,7.2146607,5.1796991)"
     inkscape:label="sign_3_31"
     style="opacity:1">
    <path
       d="m 19.09398,0.85495638 c -12.154846,0 -21.0650946,9.03393502 -21.0650946,20.16410162 V 275.66816 c 0,11.13016 8.9102486,19.35556 21.0650946,19.35555 h 165.88801 c 12.15485,0 20.61723,-8.22539 20.61723,-19.35555 V 21.019058 c 0,-11.1301646 -8.46238,-20.16410162 -20.61723,-20.16410162 z"
       id="path1"
       sodipodi:nodetypes="ccccccccc"
       style="opacity:1;fill:#ffffff;fill-opacity:1;fill-rule:nonzero;stroke:#000000;stroke-width:2.10429;stroke-linecap:round;stroke-linejoin:miter;stroke-miterlimit:4;stroke-dasharray:none;stroke-opacity:1"
       inkscape:label="bg" />
    <g
       id="g1"
       inkscape:label="sign"
       transform="translate(6.8140517,5.9371804)">
      <g
         id="g3537"
         transform="matrix(0.82444467,0,0,0.82444467,16.678144,98.37156)"
         inkscape:label="sign_3_29"
         style="opacity:1">
        <path
           d="m 281.61136,-0.5172025 c -46.24606,0 -83.93438,37.6883205 -83.93438,83.9343745 0,46.246058 37.68832,83.934388 83.93438,83.934378 46.24605,0 83.93436,-37.68832 83.93437,-83.934378 0,-46.246054 -37.68832,-83.9343745 -83.93437,-83.9343745 z"
           id="path3157"
           sodipodi:nodetypes="csssc"
           style="fill:#ffffff;fill-opacity:1;fill-rule:evenodd;stroke:#585858;stroke-width:1.77688;stroke-dasharray:none;stroke-opacity:1"
           transform="matrix(1.1255696,0,0,1.1255696,-221.97365,1.1076409)"
           inkscape:label="bg" />
        <path
           d="m 281.61118,3.479473 c -44.04386,0 -79.9375,35.893639 -79.9375,79.9375 0,44.043857 35.89364,79.937507 79.9375,79.937497 44.04386,0 79.93749,-35.89364 79.9375,-79.937497 0,-44.043861 -35.89364,-79.9375 -79.9375,-79.9375 z m 0,16 c 35.38686,0 63.9375,28.55064 63.9375,63.9375 -10e-6,35.386857 -28.55064,63.937497 -63.9375,63.937497 -35.38685,1e-5 -63.9375,-28.55064 -63.9375,-63.937497 0,-35.38686 28.55064,-63.9375 63.9375,-63.9375 z"
           id="path2385"
           style="fill:#585858;fill-opacity:1;fill-rule:evenodd;stroke:none"
           transform="matrix(1.1255696,0,0,1.1255696,-221.97365,1.1076409)"
           inkscape:label="red" />
        <g
           id="text2691"
           style="font-style:normal;font-variant:normal;font-weight:bold;font-stretch:normal;font-size:79.1926px;line-height:125%;font-family:Arial;-inkscape-font-specification:'Arial Black, Bold';text-align:start;writing-mode:lr-tb;text-anchor:start;opacity:1;fill:#585858;fill-opacity:1;stroke:none"
           transform="matrix(1.2104039,0,0,1.2104039,-1028.1612,-21.79817)"
           inkscape:label="sign">
          <path
             d="m 930.21475,96.263193 c 0,-10.775518 1.62583,-18.315822 4.87749,-22.620936 3.27334,-4.305012 8.24837,-6.457543 14.92514,-6.457601 3.20828,5.8e-5 5.84212,0.476966 7.90154,1.430726 2.05935,0.928094 3.73938,2.152587 5.04007,3.673485 1.30063,1.495224 2.31948,3.080622 3.05657,4.756197 0.75868,1.649892 1.36565,3.583304 1.82093,5.80024 0.88874,4.227769 1.33314,8.635947 1.33318,13.224548 -4e-5,10.285778 -1.46329,17.813188 -4.38975,22.582268 -2.92652,4.76909 -7.9666,7.15363 -15.12022,7.15363 -4.01041,0 -7.25122,-0.76048 -9.72248,-2.28143 -2.47127,-1.52095 -4.49814,-3.75082 -6.0806,-6.68961 -1.14893,-2.08808 -2.04856,-4.93663 -2.69889,-8.54569 -0.62866,-3.63479 -0.94298,-7.6434 -0.94298,-12.025827 m 13.13672,0.03867 c -2e-5,7.218097 0.53108,12.154737 1.59331,14.809947 1.08387,2.62945 2.64467,3.94417 4.6824,3.94416 1.34399,1e-5 2.50376,-0.55423 3.47927,-1.66273 0.99716,-1.13426 1.72336,-2.913 2.17862,-5.33623 0.47688,-2.42319 0.71533,-6.19978 0.71537,-11.329796 -4e-5,-7.527387 -0.54198,-12.580035 -1.62583,-15.157961 -1.06224,-2.603617 -2.66639,-3.905447 -4.81247,-3.905495 -2.18947,4.8e-5 -3.77194,1.327657 -4.74743,3.982832 -0.97551,2.629483 -1.46326,7.514569 -1.46324,14.655273"
             id="path3535"
             style="font-weight:normal;font-family:'Arial Black';-inkscape-font-specification:'Arial Black,';fill:#585858;fill-opacity:1;stroke-width:0.917013"
             inkscape:label="0" />
          <path
             d="m 892.84652,68.151363 h 32.78713 V 80.71855 H 903.4252 l -1.1867,8.507018 c 1.53704,-0.824886 3.0515,-1.443578 4.5434,-1.856076 1.51444,-0.412424 3.0063,-0.618655 4.47559,-0.618693 4.97285,3.8e-5 9.00766,1.71433 12.10445,5.14288 3.09671,3.428616 4.64508,7.746568 4.64512,12.953871 -4e-5,3.66061 -0.80248,7.17942 -2.40733,10.55644 -1.58231,3.37703 -3.84272,5.95491 -6.7812,7.73365 -2.91595,1.77874 -6.65691,2.66811 -11.22289,2.66811 -3.2776,0 -6.09179,-0.34802 -8.44259,-1.04404 -2.32823,-0.72181 -4.31738,-1.77874 -5.96746,-3.1708 -1.6275,-1.41783 -2.94983,-3.01612 -3.96701,-4.79487 -1.01718,-1.77873 -1.86483,-3.99571 -2.54294,-6.65094 l 13.96926,-1.74007 c 0.33905,2.55212 1.1302,4.49842 2.37343,5.83891 1.2432,1.31473 2.72377,1.97209 4.4417,1.97208 1.92131,1e-5 3.50359,-0.82491 4.74682,-2.47477 1.26581,-1.67561 1.89871,-4.16327 1.89874,-7.46298 -3e-5,-3.377 -0.63293,-5.85177 -1.89874,-7.424303 -1.26584,-1.572482 -2.94984,-2.358736 -5.05199,-2.358764 -1.33365,2.8e-5 -2.62208,0.373821 -3.86529,1.121379 -0.92676,0.541383 -1.94395,1.520978 -3.05153,2.938788 l -11.76538,-1.933413 4.37386,-30.470594"
             id="path3533"
             style="font-style:normal;font-variant:normal;font-weight:normal;font-stretch:normal;font-size:79.1926px;line-height:125%;font-family:'Arial Black';-inkscape-font-specification:'Arial Black,';text-align:start;writing-mode:lr-tb;text-anchor:start;fill:#585858;fill-opacity:1;stroke:none;stroke-width:0.936399"
             inkscape:label="5" />
        </g>
      </g>
      <g
         id="text3402"
         style="font-style:normal;font-variant:normal;font-weight:normal;font-stretch:normal;font-size:48px;line-height:125%;font-family:Arial;-inkscape-font-specification:'Arial Black,';text-align:start;writing-mode:lr-tb;text-anchor:start;fill:#585858;fill-opacity:1;stroke:none"
         transform="matrix(1.0162491,0,0,1.3523726,-398.66913,-14.719776)"
         inkscape:label="zona">
        <path
           d="m 546.76688,61.304321 h -12.09375 l -1.66406,5.671875 h -10.85156 l 12.91406,-34.359375 h 11.57812 l 12.91407,34.359375 h -11.10938 l -1.6875,-5.671875 m -2.22656,-7.429687 -3.79688,-12.351563 -3.77343,12.351563 h 7.57031"
           id="path3506"
           style="font-family:'Arial Black';-inkscape-font-specification:'Arial Black,';fill:#585858;fill-opacity:1"
           inkscape:label="А" />
        <path
           d="m 485.64188,32.616821 h 10.61719 v 12.023438 h 11.60156 V 32.616821 h 10.66406 V 66.976196 H 507.86063 V 53.077759 H 496.25907 V 66.976196 H 485.64188 V 32.616821"
           id="path3504"
           style="font-style:normal;font-variant:normal;font-weight:normal;font-stretch:normal;font-size:48px;line-height:125%;font-family:'Arial Black';-inkscape-font-specification:'Arial Black,';text-align:start;writing-mode:lr-tb;text-anchor:start;fill:#585858;fill-opacity:1;stroke:none"
           inkscape:label="Н" />
        <path
           d="m 444.22782,49.819946 c 0,-5.609352 1.5625,-9.976535 4.6875,-13.101562 3.12499,-3.124967 7.47655,-4.687465 13.05469,-4.6875 5.71872,3.5e-5 10.12497,1.539096 13.21875,4.617187 3.09371,3.062528 4.64058,7.359398 4.64062,12.890625 -4e-5,4.015639 -0.67972,7.31251 -2.03906,9.890625 -1.34378,2.562505 -3.29691,4.562503 -5.85938,6 -2.5469,1.421875 -5.72658,2.132812 -9.53906,2.132813 -3.87501,-10e-7 -7.08595,-0.617188 -9.63281,-1.851563 -2.53126,-1.234372 -4.58594,-3.187495 -6.16406,-5.859375 -1.57813,-2.671865 -2.36719,-6.015612 -2.36719,-10.03125 m 10.61719,0.04687 c -2e-5,3.468764 0.64061,5.960949 1.92187,7.476563 1.29686,1.515633 3.05467,2.273445 5.27344,2.273437 2.28123,8e-6 4.04685,-0.742179 5.29687,-2.226562 1.24998,-1.484364 1.87498,-4.148424 1.875,-7.992188 -2e-5,-3.234354 -0.65627,-5.593727 -1.96875,-7.078125 -1.29689,-1.499974 -3.06252,-2.249973 -5.29687,-2.25 -2.14064,2.7e-5 -3.85939,0.757839 -5.15625,2.273438 -1.29689,1.515648 -1.94533,4.023458 -1.94531,7.523437"
           id="path3502"
           style="font-style:normal;font-variant:normal;font-weight:normal;font-stretch:normal;font-size:48px;line-height:125%;font-family:'Arial Black';-inkscape-font-specification:'Arial Black,';text-align:start;writing-mode:lr-tb;text-anchor:start;fill:#585858;fill-opacity:1;stroke:none"
           inkscape:label="О" />
        <path
           d="m 434.10282,48.296509 c 4.12497,1.109392 6.18747,3.70314 6.1875,7.78125 -3e-5,3.359382 -1.29691,6.117192 -3.89063,8.273437 -2.57815,2.140626 -6.22658,3.210937 -10.94531,3.210938 -8.06251,-10e-7 -13.07031,-3.38281 -15.02344,-10.148438 l 10.03125,-0.75 c 0.56249,2.390633 2.16405,3.585945 4.80469,3.585938 1.46873,7e-6 2.57811,-0.367181 3.32813,-1.101563 0.7656,-0.734366 1.14841,-1.757803 1.14843,-3.070312 -2e-5,-1.265613 -0.47658,-2.28905 -1.42968,-3.070313 -0.95315,-0.79686 -2.25783,-1.195297 -3.91407,-1.195312 h -2.88281 v -6.140625 h 2.27344 c 1.35936,2.1e-5 2.42186,-0.351541 3.1875,-1.054688 0.78123,-0.718727 1.17186,-1.710913 1.17187,-2.976562 -1e-5,-1.859348 -1.16408,-2.789035 -3.49218,-2.789063 -2.40627,2.8e-5 -3.8047,1.07034 -4.19532,3.210938 l -9.49218,-1.101563 c 1.54687,-5.953093 6.17186,-8.929652 13.875,-8.929687 4.2656,3.5e-5 7.60935,0.828159 10.03125,2.484375 2.42184,1.656281 3.63278,3.882841 3.63281,6.679687 -3e-5,3.375023 -1.46878,5.742208 -4.40625,7.101563"
           id="path3500"
           style="font-style:normal;font-variant:normal;font-weight:normal;font-stretch:normal;font-size:48px;line-height:125%;font-family:'Arial Black';-inkscape-font-specification:'Arial Black,';text-align:start;writing-mode:lr-tb;text-anchor:start;fill:#585858;fill-opacity:1;stroke:none"
           inkscape:label="З" />
      </g>
    </g>
    <g
       id="g32"
       inkscape:label="black"
       transform="matrix(1.0684794,0,0,0.9996219,0.30850696,-0.3483313)">
      <path
         d="m 24.024462,8.5385729 c -10.42911,0 -18.0742881,8.5868461 -18.0742881,19.1661811 V 269.75129 c 0,10.57933 7.6451781,18.39765 18.0742881,18.39764 H 166.35982 c 10.42911,0 17.69001,-7.81831 17.69001,-18.39764 V 27.704754 c 0,-10.579334 -7.2609,-19.1661811 -17.69001,-19.1661811 z"
         id="path3412"
         sodipodi:nodetypes="ccccccccc"
         style="opacity:1;fill:none;fill-opacity:1;fill-rule:nonzero;stroke:#000000;stroke-width:4;stroke-linecap:round;stroke-linejoin:miter;stroke-miterlimit:4;stroke-dasharray:none;stroke-opacity:1"
         inkscape:label="black" />
      <path
         d="M 158.40425,8.1222425 6,272.06155 c 0.016564,1.60799 0.2350224,3.15759 0.6601483,4.62104 L 161.70499,8.1222425 Z m 8.85199,0 L 9.2107215,281.84376 c 0.6044462,0.83217 1.2969055,1.579 2.0404585,2.28051 L 170.43695,8.3923032 c -0.91002,-0.15804 -1.83441,-0.2700607 -2.79062,-0.2700607 z M 175.05799,9.9526538 15.182064,286.8849 c 0.872212,0.43145 1.778607,0.78031 2.730613,1.05022 L 177.51855,11.482998 c -0.76753,-0.591639 -1.59451,-1.082803 -2.46056,-1.5303442 z M 180.96932,15.113813 23.103844,288.56526 h 3.300741 L 182.58969,18.054474 c -0.44695,-1.03638 -0.98572,-2.029947 -1.62037,-2.940661 z M 184,25.226086 31.955832,288.56526 h 3.330749 L 184,30.98738 Z"
         id="rect3770"
         sodipodi:nodetypes="cccccccccccccccccccccccccc"
         style="fill:#000000;fill-opacity:1;fill-rule:nonzero;stroke:none;stroke-width:0.960216"
         inkscape:label="line" />
    </g>
  </g>
</svg>
