<?xml version="1.0" encoding="UTF-8" standalone="no"?>
<!-- Created with Inkscape (http://www.inkscape.org/) -->

<svg
   height="200"
   id="svg118"
   inkscape:output_extension="org.inkscape.output.svg.inkscape"
   inkscape:version="1.3 (0e150ed6c4, 2023-07-21)"
   sodipodi:docname="3.4.svg"
   sodipodi:version="0.32"
   version="1.0"
   width="200"
   xmlns:inkscape="http://www.inkscape.org/namespaces/inkscape"
   xmlns:sodipodi="http://sodipodi.sourceforge.net/DTD/sodipodi-0.dtd"
   xmlns="http://www.w3.org/2000/svg"
   xmlns:svg="http://www.w3.org/2000/svg"
   xmlns:rdf="http://www.w3.org/1999/02/22-rdf-syntax-ns#"
   xmlns:cc="http://creativecommons.org/ns#"
   xmlns:dc="http://purl.org/dc/elements/1.1/">
  <title
     id="title1">Заборонні знаки » Дорожні знаки » ПДР Тест Центр</title>
  <metadata
     id="metadata118">
    <rdf:RDF>
      <cc:Work
         rdf:about="">
        <dc:format>&#10;					image/svg+xml&#10;				</dc:format>
        <dc:type
           rdf:resource="http://purl.org/dc/dcmitype/StillImage" />
        <dc:title>Заборонні знаки » Дорожні знаки » ПДР Тест Центр</dc:title>
        <cc:license
           rdf:resource="http://creativecommons.org/licenses/by-nc-sa/4.0/" />
        <dc:creator>
          <cc:Agent>
            <dc:title>ПДР Тест Центр | PDR Test Center</dc:title>
          </cc:Agent>
        </dc:creator>
        <dc:rights>
          <cc:Agent>
            <dc:title>ПДР Тест Центр | PDR Test Center</dc:title>
          </cc:Agent>
        </dc:rights>
        <dc:language>uk-UA</dc:language>
        <dc:date>2023-09-01</dc:date>
        <dc:publisher>
          <cc:Agent>
            <dc:title>https://pdrtest.com/</dc:title>
          </cc:Agent>
        </dc:publisher>
        <dc:source>https://pdrtest.com/driver/rules/section/33.3</dc:source>
      </cc:Work>
      <cc:License
         rdf:about="http://creativecommons.org/licenses/by-nc-sa/4.0/">
        <cc:permits
           rdf:resource="http://creativecommons.org/ns#Reproduction" />
        <cc:permits
           rdf:resource="http://creativecommons.org/ns#Distribution" />
        <cc:requires
           rdf:resource="http://creativecommons.org/ns#Notice" />
        <cc:requires
           rdf:resource="http://creativecommons.org/ns#Attribution" />
        <cc:prohibits
           rdf:resource="http://creativecommons.org/ns#CommercialUse" />
        <cc:permits
           rdf:resource="http://creativecommons.org/ns#DerivativeWorks" />
        <cc:requires
           rdf:resource="http://creativecommons.org/ns#ShareAlike" />
      </cc:License>
    </rdf:RDF>
  </metadata>
  <defs
     id="defs118">
    <inkscape:perspective
       id="perspective118"
       inkscape:persp3d-origin="372.04724 : 360.78739 : 1"
       inkscape:vp_x="0 : 536.18109 : 1"
       inkscape:vp_y="0 : 1000 : 0"
       inkscape:vp_z="744.09448 : 536.18109 : 1"
       sodipodi:type="inkscape:persp3d" />
    <inkscape:perspective
       id="perspective102"
       inkscape:persp3d-origin="372.04724 : 360.78739 : 1"
       inkscape:vp_x="0 : 536.18109 : 1"
       inkscape:vp_y="0 : 1000 : 0"
       inkscape:vp_z="744.09448 : 536.18109 : 1"
       sodipodi:type="inkscape:persp3d" />
    <inkscape:perspective
       id="perspective3360"
       inkscape:persp3d-origin="372.04724 : 360.78739 : 1"
       inkscape:vp_x="0 : 536.18109 : 1"
       inkscape:vp_y="0 : 1000 : 0"
       inkscape:vp_z="744.09448 : 536.18109 : 1"
       sodipodi:type="inkscape:persp3d" />
    <inkscape:perspective
       id="perspective103"
       inkscape:persp3d-origin="372.04724 : 360.78739 : 1"
       inkscape:vp_x="0 : 536.18109 : 1"
       inkscape:vp_y="0 : 1000 : 0"
       inkscape:vp_z="744.09448 : 536.18109 : 1"
       sodipodi:type="inkscape:persp3d" />
    <inkscape:perspective
       id="perspective4652"
       inkscape:persp3d-origin="372.04724 : 360.78739 : 1"
       inkscape:vp_x="0 : 536.18109 : 1"
       inkscape:vp_y="0 : 1000 : 0"
       inkscape:vp_z="744.09448 : 536.18109 : 1"
       sodipodi:type="inkscape:persp3d" />
  </defs>
  <sodipodi:namedview
     bordercolor="#666666"
     borderopacity="1.0"
     gridtolerance="10.0"
     guidetolerance="10.0"
     id="base"
     inkscape:current-layer="svg118"
     inkscape:cx="87.68124"
     inkscape:cy="92.896153"
     inkscape:guide-bbox="true"
     inkscape:pageopacity="0.0"
     inkscape:pageshadow="2"
     inkscape:window-height="1009"
     inkscape:window-width="1920"
     inkscape:zoom="5.6568543"
     objecttolerance="10.0"
     pagecolor="#ffffff"
     showgrid="false"
     showguides="false"
     inkscape:showpageshadow="2"
     inkscape:pagecheckerboard="0"
     inkscape:deskcolor="#d1d1d1"
     inkscape:window-x="1912"
     inkscape:window-y="-8"
     inkscape:window-maximized="1" />
  <g
     id="g4194"
     transform="translate(4.999995,5)"
     inkscape:label="sign_3_4"
     style="display:inline;opacity:1">
    <path
       d="m 94.999538,0.52549345 c -52.053159,0 -94.47398704,42.42082755 -94.47398704,94.47398055 0,52.053156 42.42082804,94.473996 94.47398704,94.473986 52.053142,0 94.473962,-42.42083 94.473972,-94.473986 0,-52.053153 -42.42083,-94.47398055 -94.473972,-94.47398055 z"
       id="path3157"
       sodipodi:nodetypes="csssc"
       style="fill:#ffffff;fill-opacity:1;fill-rule:evenodd;stroke:#000000;stroke-width:2.1;stroke-miterlimit:4;stroke-dasharray:none;stroke-opacity:1"
       inkscape:label="bg" />
    <path
       id="_43793872"
       style="display:inline;opacity:1;fill:#000000;fill-rule:evenodd"
       inkscape:label="sign"
       d="m 206.70548,76.892947 v 52.760233 h 61.06748 c 2.97113,0 5.31533,-2.3472 5.31533,-5.32534 V 82.220797 c 2e-5,-2.977831 -2.34422,-5.32785 -5.31533,-5.32785 z m 82.88212,31.483883 c -2.0089,-7e-5 -3.62534,1.61419 -3.62534,3.60281 v 14.07073 c 0,0.0647 0.0165,3.60281 3.62534,3.60281 h 78.54072 c 1.98074,-3e-5 3.5953,-1.61738 3.5953,-3.60281 v -14.07073 c -10e-6,-1.98544 -1.61456,-3.60281 -3.5953,-3.60281 z m 68.20549,22.90625 c -6.75252,-4e-5 -12.41078,5.60937 -12.41078,12.37824 4e-5,6.76853 5.65829,12.43833 12.41078,12.43833 5.17418,0 12.41075,-4.2467 12.41075,-12.43833 0,-8.06457 -7.19715,-12.37824 -12.41075,-12.37824 z m -56.7837,24.83406 c 6.75252,-0.0903 12.31565,-5.6723 12.31565,-12.44083 0,-6.67828 -5.56317,-12.28516 -12.31565,-12.37573 -17.36064,0 -15.15158,24.81656 0,24.81656 z m -71.50531,-12.42582 c 1e-5,7.83205 6.80088,12.44083 12.50338,12.44083 6.75252,-0.0903 12.31815,-5.67231 12.31815,-12.44083 0,-6.67829 -5.56566,-12.28517 -12.31815,-12.37574 -5.68337,0 -12.50338,4.53388 -12.50338,12.37574 z m -22.7986,-12.31314 v 18.18179 h 15.51286 c 0.99035,0 1.81267,-0.82245 1.81267,-1.81517 v -14.5489 c 0,-0.99272 -0.8223,-1.81768 -1.81267,-1.81768 z m 52.60752,0 c -0.99041,-6e-5 -1.72004,0.72982 -1.72004,1.72254 v 15.84835 c -3e-5,0.99274 0.72967,1.6925 1.72004,1.6925 h 12.28309 c 0.99104,4e-5 1.71753,-0.69978 1.71753,-1.6925 v -3.91326 h 9.48898 c -0.90207,-6.24517 3.9916,-13.22503 5.96379,-13.56499 -12.51532,0.039 -16.93834,-0.0273 -29.45339,-0.0926 z m 50.92252,0.0926 c 3.43584,1.99899 5.71521,9.30475 7.00282,13.0292 h 24.59374 c 0.9026,-3.88668 3.61623,-11.21182 6.94022,-13.0292 z m 47.55757,6.95525 c 2.72719,0 5.3153,2.11131 5.3153,5.23521 0,2.88755 -2.33879,5.23475 -5.2202,5.32535 h -0.0951 c -2.88144,0 -5.31533,-2.4378 -5.31533,-5.32535 3e-5,-2.88789 2.41409,-5.23521 5.31533,-5.23521 z m -56.8788,0.0175 c 2.72656,0 5.31529,2.10841 5.31529,5.23271 0,2.88755 -2.33877,5.23725 -5.22019,5.32785 h -0.0951 c -2.88144,0 -5.31283,-2.4403 -5.31283,-5.32785 2e-5,-2.8879 2.41159,-5.23271 5.31283,-5.23271 z m -59.53021,0.015 c 2.86805,-0.22117 5.84611,1.84726 5.84611,5.23271 0,3.57903 -3.19436,5.32785 -5.31529,5.32785 -2.88147,4e-5 -5.31533,-2.44031 -5.31533,-5.32785 3e-5,-2.70741 2.12889,-4.96449 4.78455,-5.23271 z"
       transform="matrix(0.78009892,0,0,0.78009892,-139.76634,8.105739)"
       sodipodi:nodetypes="ccsscsccscccscscssssscsccscscsccssssccscscscccccscccsscssssscssssscsscs" />
    <path
       d="m 94.999335,5.0240299 c -49.57443,0 -89.9752201,40.4007891 -89.9752201,89.9752201 0,49.57443 40.4007901,89.97523 89.9752201,89.97522 49.574425,0 89.975205,-40.40079 89.975215,-89.97522 0,-49.574431 -40.40079,-89.9752201 -89.975215,-89.9752201 z m 0,18.0091141 c 39.830375,0 71.966105,32.135732 71.966105,71.966106 -1e-5,39.83037 -32.13573,71.9661 -71.966105,71.9661 -39.830362,1e-5 -71.966106,-32.13573 -71.966106,-71.9661 0,-39.830374 32.135732,-71.966106 71.966106,-71.966106 z"
       id="path2385"
       style="fill:#ff0000;fill-opacity:1;fill-rule:evenodd;stroke:none;stroke-width:16;stroke-miterlimit:4;stroke-dasharray:none;stroke-opacity:1"
       inkscape:label="red" />
  </g>
</svg>
