<?xml version="1.0" encoding="UTF-8" standalone="no"?>
<!-- Created with Inkscape (http://www.inkscape.org/) -->

<svg
   height="200"
   id="svg118"
   inkscape:output_extension="org.inkscape.output.svg.inkscape"
   inkscape:version="1.3 (0e150ed6c4, 2023-07-21)"
   sodipodi:docname="3.44.svg"
   sodipodi:version="0.32"
   version="1.0"
   width="200"
   xmlns:inkscape="http://www.inkscape.org/namespaces/inkscape"
   xmlns:sodipodi="http://sodipodi.sourceforge.net/DTD/sodipodi-0.dtd"
   xmlns="http://www.w3.org/2000/svg"
   xmlns:svg="http://www.w3.org/2000/svg"
   xmlns:rdf="http://www.w3.org/1999/02/22-rdf-syntax-ns#"
   xmlns:cc="http://creativecommons.org/ns#"
   xmlns:dc="http://purl.org/dc/elements/1.1/">
  <title
     id="title1">Заборонні знаки » Дорожні знаки » ПДР Тест Центр</title>
  <metadata
     id="metadata118">
    <rdf:RDF>
      <cc:Work
         rdf:about="">
        <dc:format>&#10;					image/svg+xml&#10;				</dc:format>
        <dc:type
           rdf:resource="http://purl.org/dc/dcmitype/StillImage" />
        <cc:license
           rdf:resource="http://creativecommons.org/licenses/by-nc-sa/4.0/" />
        <dc:language>uk-UA</dc:language>
        <dc:date>2023-09-01</dc:date>
        <dc:title>Заборонні знаки » Дорожні знаки » ПДР Тест Центр</dc:title>
        <dc:creator>
          <cc:Agent>
            <dc:title>ПДР Тест Центр | PDR Test Center</dc:title>
          </cc:Agent>
        </dc:creator>
        <dc:rights>
          <cc:Agent>
            <dc:title>ПДР Тест Центр | PDR Test Center</dc:title>
          </cc:Agent>
        </dc:rights>
        <dc:publisher>
          <cc:Agent>
            <dc:title>https://pdrtest.com/</dc:title>
          </cc:Agent>
        </dc:publisher>
        <dc:source>https://pdrtest.com/driver/rules/section/33.3</dc:source>
      </cc:Work>
      <cc:License
         rdf:about="http://creativecommons.org/licenses/by-nc-sa/4.0/">
        <cc:permits
           rdf:resource="http://creativecommons.org/ns#Reproduction" />
        <cc:permits
           rdf:resource="http://creativecommons.org/ns#Distribution" />
        <cc:requires
           rdf:resource="http://creativecommons.org/ns#Notice" />
        <cc:requires
           rdf:resource="http://creativecommons.org/ns#Attribution" />
        <cc:prohibits
           rdf:resource="http://creativecommons.org/ns#CommercialUse" />
        <cc:permits
           rdf:resource="http://creativecommons.org/ns#DerivativeWorks" />
        <cc:requires
           rdf:resource="http://creativecommons.org/ns#ShareAlike" />
      </cc:License>
    </rdf:RDF>
  </metadata>
  <defs
     id="defs118">
    <inkscape:path-effect
       effect="fillet_chamfer"
       id="path-effect1"
       is_visible="true"
       lpeversion="1"
       nodesatellites_param="F,0,0,1,0,0,0,1 @ F,0,0,1,0,0,0,1 @ F,0,0,1,0,0,0,1 @ F,0,0,1,0,0,0,1 @ F,0,0,1,0,0,0,1 @ F,0,0,1,0,0,0,1 @ F,0,0,1,0,0,0,1 @ F,0,0,1,0,0,0,1 @ F,0,0,1,0,0,0,1 @ F,0,0,1,0,0,0,1 @ F,0,0,1,0,0,0,1 @ F,0,0,1,0,0,0,1 @ F,0,0,1,0,0,0,1 @ F,0,0,1,0,0,0,1 @ F,0,0,1,0,0,0,1 @ F,0,0,1,0,0,0,1 @ F,0,0,1,0,0,0,1 @ F,0,0,1,0,0,0,1 @ F,0,0,1,0,0,0,1 @ F,0,0,1,0,0,0,1 @ F,0,0,1,0,0,0,1 @ F,0,0,1,0,0,0,1 @ F,0,0,1,0,0,0,1 @ F,0,0,1,0,0,0,1 @ F,0,0,1,0,0,0,1 @ F,0,0,1,0,0,0,1 @ F,0,0,1,0,0,0,1 @ F,0,0,1,0,0,0,1 @ F,0,0,1,0,0,0,1 @ F,0,0,1,0,0,0,1 @ F,0,0,1,0,0,0,1 @ F,0,0,1,0,0,0,1 @ F,0,0,1,0,0,0,1 @ F,0,0,1,0,0,0,1 @ F,0,0,1,0,0,0,1 @ F,0,0,1,0,0,0,1 @ F,0,0,1,0,0,0,1 @ F,0,0,1,0,0,0,1 @ F,0,0,1,0,0,0,1 @ F,0,0,1,0,0,0,1 @ F,0,0,1,0,0,0,1 @ F,0,0,1,0,0,0,1 | F,0,0,1,0,0,0,1 @ F,0,0,1,0,0,0,1 @ F,0,0,1,0,0,0,1 @ F,0,0,1,0,0,0,1 @ F,0,0,1,0,0,0,1 @ F,0,1,1,0,3.07588,0,1 @ F,0,0,1,0,3.07588,0,1 | F,0,0,1,0,0,0,1 @ F,0,0,1,0,0,0,1 @ F,0,0,1,0,0,0,1 @ F,0,0,1,0,0,0,1 | F,0,0,1,0,0,0,1 @ F,0,0,1,0,0,0,1 @ F,0,0,1,0,0,0,1 @ F,0,0,1,0,0,0,1"
       radius="0"
       unit="px"
       method="auto"
       mode="F"
       chamfer_steps="1"
       flexible="false"
       use_knot_distance="true"
       apply_no_radius="true"
       apply_with_radius="true"
       only_selected="false"
       hide_knots="false" />
    <inkscape:perspective
       id="perspective118"
       inkscape:persp3d-origin="372.04724 : 360.78739 : 1"
       inkscape:vp_x="0 : 536.18109 : 1"
       inkscape:vp_y="0 : 1000 : 0"
       inkscape:vp_z="744.09448 : 536.18109 : 1"
       sodipodi:type="inkscape:persp3d" />
    <inkscape:perspective
       id="perspective102"
       inkscape:persp3d-origin="372.04724 : 360.78739 : 1"
       inkscape:vp_x="0 : 536.18109 : 1"
       inkscape:vp_y="0 : 1000 : 0"
       inkscape:vp_z="744.09448 : 536.18109 : 1"
       sodipodi:type="inkscape:persp3d" />
    <inkscape:perspective
       id="perspective3360"
       inkscape:persp3d-origin="372.04724 : 360.78739 : 1"
       inkscape:vp_x="0 : 536.18109 : 1"
       inkscape:vp_y="0 : 1000 : 0"
       inkscape:vp_z="744.09448 : 536.18109 : 1"
       sodipodi:type="inkscape:persp3d" />
    <inkscape:perspective
       id="perspective103"
       inkscape:persp3d-origin="372.04724 : 360.78739 : 1"
       inkscape:vp_x="0 : 536.18109 : 1"
       inkscape:vp_y="0 : 1000 : 0"
       inkscape:vp_z="744.09448 : 536.18109 : 1"
       sodipodi:type="inkscape:persp3d" />
    <inkscape:perspective
       id="perspective4652"
       inkscape:persp3d-origin="372.04724 : 360.78739 : 1"
       inkscape:vp_x="0 : 536.18109 : 1"
       inkscape:vp_y="0 : 1000 : 0"
       inkscape:vp_z="744.09448 : 536.18109 : 1"
       sodipodi:type="inkscape:persp3d" />
    <inkscape:perspective
       id="perspective104"
       inkscape:persp3d-origin="372.04724 : 360.78739 : 1"
       inkscape:vp_x="0 : 536.18109 : 1"
       inkscape:vp_y="0 : 1000 : 0"
       inkscape:vp_z="744.09448 : 536.18109 : 1"
       sodipodi:type="inkscape:persp3d" />
  </defs>
  <sodipodi:namedview
     bordercolor="#666666"
     borderopacity="1.0"
     gridtolerance="10.0"
     guidetolerance="10.0"
     id="base"
     inkscape:current-layer="svg118"
     inkscape:cx="125.25"
     inkscape:cy="100.375"
     inkscape:guide-bbox="true"
     inkscape:pageopacity="0.0"
     inkscape:pageshadow="2"
     inkscape:window-height="1009"
     inkscape:window-width="1920"
     inkscape:zoom="4"
     objecttolerance="10.0"
     pagecolor="#ffffff"
     showgrid="false"
     showguides="false"
     inkscape:showpageshadow="2"
     inkscape:pagecheckerboard="0"
     inkscape:deskcolor="#d1d1d1"
     inkscape:window-x="1912"
     inkscape:window-y="-8"
     inkscape:window-maximized="1" />
  <g
     id="g4301"
     transform="translate(4.999995,5)"
     inkscape:label="sign_3_44"
     style="opacity:1">
    <path
       d="m 94.999538,0.52549345 c -52.053159,0 -94.47398704,42.42082755 -94.47398704,94.47398055 0,52.053156 42.42082804,94.473996 94.47398704,94.473986 52.053142,0 94.473962,-42.42083 94.473972,-94.473986 0,-52.053153 -42.42083,-94.47398055 -94.473972,-94.47398055 z"
       id="path3157"
       sodipodi:nodetypes="csssc"
       style="fill:#ffffff;fill-opacity:1;fill-rule:evenodd;stroke:#000000;stroke-width:2;stroke-miterlimit:4;stroke-dasharray:none;stroke-opacity:1"
       inkscape:label="bg" />
    <path
       id="path2385"
       style="fill:#ff0000;fill-opacity:1;fill-rule:evenodd;stroke:none;stroke-width:16;stroke-miterlimit:4;stroke-dasharray:none;stroke-opacity:1"
       inkscape:label="red"
       d="M 95.000005 5.0234375 C 45.425625 5.0234375 5.0234425 45.425619 5.0234425 95 C 5.0234425 144.57438 45.425625 184.97462 95.000005 184.97461 C 144.57438 184.97461 184.9746 144.57438 184.97461 95 C 184.97461 45.425619 144.57438 5.0234375 95.000005 5.0234375 z M 95.000005 23.033203 C 132.46772 23.033203 163.11769 51.471881 166.62305 88 L 23.376958 88 C 26.882324 51.471889 57.532297 23.033203 95.000005 23.033203 z M 23.376958 102 L 166.62305 102 C 163.11688 138.52728 132.46713 166.96484 95.000005 166.96484 C 57.532901 166.96485 26.883129 138.52727 23.376958 102 z " />
    <g
       id="g3"
       inkscape:label="sign">
      <path
         id="_147526664"
         style="display:inline;fill:#000000;fill-rule:evenodd;stroke:#000000;stroke-width:0.0105538"
         class="fil2 str0"
         inkscape:label="sign2"
         d="m 58.884938,105.76182 c -0.291604,0.0211 -0.520069,0.094 -0.667756,0.22699 0.93933,1.70058 0.420353,1.41541 2.143785,3.35198 -1.213044,3.38567 -5.19259,8.12288 -6.366498,10.47151 -0.939286,2.1132 1.355505,3.1493 2.582149,3.40484 1.232774,0.25682 4.39499,-3.59424 6.223577,-2.70104 3.481428,1.70054 2.770855,12.45002 3.227086,12.5048 l -2.935243,-0.3519 c -2.120584,0 -2.333131,2.72604 -0.235396,3.05295 l 1.291075,0.11769 -2.934041,2.69985 c -1.526239,1.29164 -1.997056,2.93577 -0.470793,5.1667 l 6.105881,8.57034 c 1.52624,2.23091 4.695679,-1.0562 3.287134,-3.40484 l -3.990919,-7.04507 4.461712,-5.04779 c 1.677575,5.02691 3.163279,10.35045 4.695907,15.4977 0.469251,1.17472 1.526699,1.76109 2.935242,1.40877 v -0.11771 c 1.173908,-0.35233 1.878802,-1.29131 1.52647,-2.81754 l -3.992122,-13.26743 c 6.222693,0.70468 12.679388,1.05687 19.372119,1.05687 l -2.701046,11.85868 c -0.234621,1.40852 0.470261,2.58292 1.644171,2.81753 h 0.23539 c 1.174727,0.23545 2.348738,-0.46906 2.583352,-1.64297 l 3.051736,-12.91554 0.70499,0.1177 2.58334,12.91434 c 0.35234,2.34864 4.93055,1.52631 4.57822,-0.70379 l -2.11255,-11.85865 7.74883,0.58728 c 1.79541,0.22343 2.60449,-2.47875 0.2342,-3.05294 l -8.45383,-0.58729 c -0.23462,-2.81705 2.34916,-5.51858 2.34916,-8.92342 0.11688,-4.2264 -3.75715,-7.63041 -6.92737,-7.39576 -9.494975,0.95974 -15.935986,1.3373 -21.702059,0.51763 -0.953309,-0.13551 -2.214314,-0.89164 -2.716661,-1.71262 -1.53654,-2.51117 -1.704217,-4.70211 -1.704217,-7.90619 0,-3.0663 -4.695907,-3.06591 -4.695907,0 v 0.5873 l -1.408772,-1.29227 c -2.363342,-1.95206 -7.50912,-4.33424 -9.550346,-4.18669 z m 62.206952,20.9202 c -2.11317,0 -3.75672,1.64274 -3.75672,3.75673 v 6.10468 c 1.0562,-0.47006 2.23011,-0.58609 3.40484,-0.58609 4.81331,0 8.45341,3.40388 8.68802,8.21723 h 2.09678 a 3.07588,3.07588 135 0 0 3.07588,-3.07588 V 129.7579 a 3.07588,3.07588 45 0 0 -3.07588,-3.07588 z m -0.58727,10.8006 c -4.2264,0 -7.39696,3.17052 -7.39696,7.39695 0,4.22722 3.17056,7.39696 7.39696,7.39696 4.22718,0 7.39815,-3.16974 7.39815,-7.39696 0,-4.22643 -3.17097,-7.39695 -7.39815,-7.39695 z m 0,3.87442 c 1.99627,0 3.52252,1.52701 3.52252,3.52253 0,1.9963 -1.52625,3.52253 -3.52252,3.52253 -1.99549,0 -3.52134,-1.52623 -3.52134,-3.52253 0,-1.99552 1.52585,-3.52253 3.52134,-3.52253 z"
         inkscape:path-effect="#path-effect1"
         inkscape:original-d="m 58.884938,105.76182 c -0.291604,0.0211 -0.520069,0.094 -0.667756,0.22699 0.93933,1.70058 0.420353,1.41541 2.143785,3.35198 -1.213044,3.38567 -5.19259,8.12288 -6.366498,10.47151 -0.939286,2.1132 1.355505,3.1493 2.582149,3.40484 1.232774,0.25682 4.39499,-3.59424 6.223577,-2.70104 3.481428,1.70054 2.770855,12.45002 3.227086,12.5048 l -2.935243,-0.3519 c -2.120584,0 -2.333131,2.72604 -0.235396,3.05295 l 1.291075,0.11769 -2.934041,2.69985 c -1.526239,1.29164 -1.997056,2.93577 -0.470793,5.1667 l 6.105881,8.57034 c 1.52624,2.23091 4.695679,-1.0562 3.287134,-3.40484 l -3.990919,-7.04507 4.461712,-5.04779 c 1.677575,5.02691 3.163279,10.35045 4.695907,15.4977 0.469251,1.17472 1.526699,1.76109 2.935242,1.40877 v -0.11771 c 1.173908,-0.35233 1.878802,-1.29131 1.52647,-2.81754 l -3.992122,-13.26743 c 6.222693,0.70468 12.679388,1.05687 19.372119,1.05687 l -2.701046,11.85868 c -0.234621,1.40852 0.470261,2.58292 1.644171,2.81753 h 0.23539 c 1.174727,0.23545 2.348738,-0.46906 2.583352,-1.64297 l 3.051736,-12.91554 0.70499,0.1177 2.58334,12.91434 c 0.35234,2.34864 4.93055,1.52631 4.57822,-0.70379 l -2.11255,-11.85865 7.74883,0.58728 c 1.79541,0.22343 2.60449,-2.47875 0.2342,-3.05294 l -8.45383,-0.58729 c -0.23462,-2.81705 2.34916,-5.51858 2.34916,-8.92342 0.11688,-4.2264 -3.75715,-7.63041 -6.92737,-7.39576 -9.494975,0.95974 -15.935986,1.3373 -21.702059,0.51763 -0.953309,-0.13551 -2.214314,-0.89164 -2.716661,-1.71262 -1.53654,-2.51117 -1.704217,-4.70211 -1.704217,-7.90619 0,-3.0663 -4.695907,-3.06591 -4.695907,0 v 0.5873 l -1.408772,-1.29227 c -2.363342,-1.95206 -7.50912,-4.33424 -9.550346,-4.18669 z m 62.206952,20.9202 c -2.11317,0 -3.75672,1.64274 -3.75672,3.75673 v 6.10468 c 1.0562,-0.47006 2.23011,-0.58609 3.40484,-0.58609 4.81331,0 8.45341,3.40388 8.68802,8.21723 h 5.17266 v -17.49255 z m -0.58727,10.8006 c -4.2264,0 -7.39696,3.17052 -7.39696,7.39695 0,4.22722 3.17056,7.39696 7.39696,7.39696 4.22718,0 7.39815,-3.16974 7.39815,-7.39696 0,-4.22643 -3.17097,-7.39695 -7.39815,-7.39695 z m 0,3.87442 c 1.99627,0 3.52252,1.52701 3.52252,3.52253 0,1.9963 -1.52625,3.52253 -3.52252,3.52253 -1.99549,0 -3.52134,-1.52623 -3.52134,-3.52253 0,-1.99552 1.52585,-3.52253 3.52134,-3.52253 z"
         sodipodi:nodetypes="scccssccccccccccccccccccccccccccccccssssccssscscccsssssssssss"
         transform="translate(0.81249949)" />
      <path
         class="fil2 str0"
         d="m 75.349806,81.02227 c -1.806493,0 -3.312461,-1.50522 -3.312461,-3.31163 0,-1.80641 1.751149,-3.31172 3.312461,-3.31163 1.561132,9e-5 3.311695,1.50522 3.311695,3.31163 0,1.80641 -1.505365,3.31163 -3.311695,3.31163 z m 0,4.39576 c -4.215242,0 -7.708248,-3.4922 -7.708248,-7.70739 0,-4.215197 3.493007,-7.707398 7.708248,-7.707398 4.214421,0 7.707262,3.492201 7.707262,7.707398 0,4.21519 -3.492841,7.70739 -7.707262,7.70739 z m 43.941964,-5.93924 c -3.25157,0 -5.90154,-2.65001 -5.90154,-5.901698 0,-3.250986 2.64997,-5.900989 5.90154,-5.900989 3.25112,0 5.90109,2.650003 5.90109,5.900989 0,3.251688 -2.64997,5.901698 -5.90109,5.901698 z m 0,7.16498 c -7.22636,0 -13.06656,-5.84033 -13.06656,-13.066678 0,-7.225644 6.9069,-13.066659 13.06656,-13.06667 6.15968,-1.7e-5 13.06667,5.841026 13.06667,13.06667 0,7.226348 -5.84098,13.066678 -13.06667,13.066678 z M 84.908602,43.951538 h 3.612877 v 11.862625 h 8.384481 l 5.82624,-13.006702 c 0.66233,-1.867087 1.56588,-3.552876 3.55297,-3.552876 h 13.38782 c 1.98687,0 3.55291,1.625833 3.55291,3.552876 v 13.126621 c 1.38451,0.421798 2.40793,1.746454 2.40793,3.372311 v 1.806405 c -2.04678,-1.084137 -3.63279,-1.806405 -6.28199,-1.806405 -7.9487,0 -14.63681,6.273533 -14.21073,14.210753 0.0445,0.829984 0.28697,1.518634 0.48173,2.241314 H 84.03876 C 82.323078,70.777315 79.102882,68.356557 73.106735,69.521619 V 59.306393 c 0,-1.927045 1.565054,-3.49223 3.612877,-3.49223 h 8.18899 z m 18.475238,11.862625 h 13.55914 c 0.66228,0 1.20413,-0.542414 1.20413,-1.204726 v -9.453864 c 0,-0.662317 -1.08349,-1.204035 -1.20413,-1.204035 h -9.21263 c -0.54246,0 -1.08409,0.722274 -1.20473,1.204035 l -4.34651,9.453864 c 0,0.12061 0.54185,1.204726 1.20473,1.204726 z"
         id="_147550744"
         style="opacity:1;fill:#000000;fill-rule:evenodd;stroke:#000000;stroke-width:0.00916962"
         inkscape:label="sign1"
         sodipodi:nodetypes="ssassssssssssssssasscccccssscscsscccssccssssssccs"
         transform="translate(-4.999995,-5)" />
    </g>
  </g>
</svg>
