<?xml version="1.0" encoding="UTF-8" standalone="no"?>
<!-- Created with Inkscape (http://www.inkscape.org/) -->

<svg
   height="200"
   id="svg118"
   inkscape:output_extension="org.inkscape.output.svg.inkscape"
   inkscape:version="1.3 (0e150ed6c4, 2023-07-21)"
   sodipodi:docname="3.45.svg"
   sodipodi:version="0.32"
   version="1.0"
   width="200"
   xmlns:inkscape="http://www.inkscape.org/namespaces/inkscape"
   xmlns:sodipodi="http://sodipodi.sourceforge.net/DTD/sodipodi-0.dtd"
   xmlns="http://www.w3.org/2000/svg"
   xmlns:svg="http://www.w3.org/2000/svg"
   xmlns:rdf="http://www.w3.org/1999/02/22-rdf-syntax-ns#"
   xmlns:cc="http://creativecommons.org/ns#"
   xmlns:dc="http://purl.org/dc/elements/1.1/">
  <title
     id="title1">Заборонні знаки » Дорожні знаки » ПДР Тест Центр</title>
  <metadata
     id="metadata118">
    <rdf:RDF>
      <cc:Work
         rdf:about="">
        <dc:format>&#10;					image/svg+xml&#10;				</dc:format>
        <dc:type
           rdf:resource="http://purl.org/dc/dcmitype/StillImage" />
        <cc:license
           rdf:resource="http://creativecommons.org/licenses/by-nc-sa/4.0/" />
        <dc:creator>
          <cc:Agent>
            <dc:title>ПДР Тест Центр | PDR Test Center</dc:title>
          </cc:Agent>
        </dc:creator>
        <dc:rights>
          <cc:Agent>
            <dc:title>ПДР Тест Центр | PDR Test Center</dc:title>
          </cc:Agent>
        </dc:rights>
        <dc:language>uk-UA</dc:language>
        <dc:date>2023-09-01</dc:date>
        <dc:title>Заборонні знаки » Дорожні знаки » ПДР Тест Центр</dc:title>
        <dc:publisher>
          <cc:Agent>
            <dc:title>https://pdrtest.com/</dc:title>
          </cc:Agent>
        </dc:publisher>
        <dc:source>https://pdrtest.com/driver/rules/section/33.3</dc:source>
      </cc:Work>
      <cc:License
         rdf:about="http://creativecommons.org/licenses/by-nc-sa/4.0/">
        <cc:permits
           rdf:resource="http://creativecommons.org/ns#Reproduction" />
        <cc:permits
           rdf:resource="http://creativecommons.org/ns#Distribution" />
        <cc:requires
           rdf:resource="http://creativecommons.org/ns#Notice" />
        <cc:requires
           rdf:resource="http://creativecommons.org/ns#Attribution" />
        <cc:prohibits
           rdf:resource="http://creativecommons.org/ns#CommercialUse" />
        <cc:permits
           rdf:resource="http://creativecommons.org/ns#DerivativeWorks" />
        <cc:requires
           rdf:resource="http://creativecommons.org/ns#ShareAlike" />
      </cc:License>
    </rdf:RDF>
  </metadata>
  <defs
     id="defs118">
    <inkscape:perspective
       id="perspective118"
       inkscape:persp3d-origin="372.04724 : 360.78739 : 1"
       inkscape:vp_x="0 : 536.18109 : 1"
       inkscape:vp_y="0 : 1000 : 0"
       inkscape:vp_z="744.09448 : 536.18109 : 1"
       sodipodi:type="inkscape:persp3d" />
    <inkscape:perspective
       id="perspective102"
       inkscape:persp3d-origin="372.04724 : 360.78739 : 1"
       inkscape:vp_x="0 : 536.18109 : 1"
       inkscape:vp_y="0 : 1000 : 0"
       inkscape:vp_z="744.09448 : 536.18109 : 1"
       sodipodi:type="inkscape:persp3d" />
    <inkscape:perspective
       id="perspective3360"
       inkscape:persp3d-origin="372.04724 : 360.78739 : 1"
       inkscape:vp_x="0 : 536.18109 : 1"
       inkscape:vp_y="0 : 1000 : 0"
       inkscape:vp_z="744.09448 : 536.18109 : 1"
       sodipodi:type="inkscape:persp3d" />
    <inkscape:perspective
       id="perspective103"
       inkscape:persp3d-origin="372.04724 : 360.78739 : 1"
       inkscape:vp_x="0 : 536.18109 : 1"
       inkscape:vp_y="0 : 1000 : 0"
       inkscape:vp_z="744.09448 : 536.18109 : 1"
       sodipodi:type="inkscape:persp3d" />
    <inkscape:perspective
       id="perspective4652"
       inkscape:persp3d-origin="372.04724 : 360.78739 : 1"
       inkscape:vp_x="0 : 536.18109 : 1"
       inkscape:vp_y="0 : 1000 : 0"
       inkscape:vp_z="744.09448 : 536.18109 : 1"
       sodipodi:type="inkscape:persp3d" />
    <inkscape:perspective
       id="perspective104"
       inkscape:persp3d-origin="372.04724 : 360.78739 : 1"
       inkscape:vp_x="0 : 536.18109 : 1"
       inkscape:vp_y="0 : 1000 : 0"
       inkscape:vp_z="744.09448 : 536.18109 : 1"
       sodipodi:type="inkscape:persp3d" />
    <inkscape:perspective
       id="perspective105"
       inkscape:persp3d-origin="372.04724 : 360.78739 : 1"
       inkscape:vp_x="0 : 536.18109 : 1"
       inkscape:vp_y="0 : 1000 : 0"
       inkscape:vp_z="744.09448 : 536.18109 : 1"
       sodipodi:type="inkscape:persp3d" />
    <inkscape:perspective
       id="perspective4420"
       inkscape:persp3d-origin="372.04724 : 360.78739 : 1"
       inkscape:vp_x="0 : 536.18109 : 1"
       inkscape:vp_y="0 : 1000 : 0"
       inkscape:vp_z="744.09448 : 536.18109 : 1"
       sodipodi:type="inkscape:persp3d" />
    <inkscape:perspective
       id="perspective107"
       inkscape:persp3d-origin="372.04724 : 360.78739 : 1"
       inkscape:vp_x="0 : 536.18109 : 1"
       inkscape:vp_y="0 : 1000 : 0"
       inkscape:vp_z="744.09448 : 536.18109 : 1"
       sodipodi:type="inkscape:persp3d" />
    <inkscape:perspective
       id="perspective4648"
       inkscape:persp3d-origin="372.04724 : 360.78739 : 1"
       inkscape:vp_x="0 : 536.18109 : 1"
       inkscape:vp_y="0 : 1000 : 0"
       inkscape:vp_z="744.09448 : 536.18109 : 1"
       sodipodi:type="inkscape:persp3d" />
    <inkscape:perspective
       id="perspective108"
       inkscape:persp3d-origin="372.04724 : 360.78739 : 1"
       inkscape:vp_x="0 : 536.18109 : 1"
       inkscape:vp_y="0 : 1000 : 0"
       inkscape:vp_z="744.09448 : 536.18109 : 1"
       sodipodi:type="inkscape:persp3d" />
    <inkscape:perspective
       id="perspective4799"
       inkscape:persp3d-origin="372.04724 : 360.78739 : 1"
       inkscape:vp_x="0 : 536.18109 : 1"
       inkscape:vp_y="0 : 1000 : 0"
       inkscape:vp_z="744.09448 : 536.18109 : 1"
       sodipodi:type="inkscape:persp3d" />
    <inkscape:perspective
       id="perspective106"
       inkscape:persp3d-origin="372.04724 : 360.78739 : 1"
       inkscape:vp_x="0 : 536.18109 : 1"
       inkscape:vp_y="0 : 1000 : 0"
       inkscape:vp_z="744.09448 : 536.18109 : 1"
       sodipodi:type="inkscape:persp3d" />
    <inkscape:path-effect
       effect="fillet_chamfer"
       id="path-effect1"
       is_visible="true"
       lpeversion="1"
       nodesatellites_param="F,0,0,1,0,0,0,1 @ F,0,0,1,0,0,0,1 @ F,0,0,1,0,0,0,1 @ F,0,0,1,0,0,0,1 @ F,0,0,1,0,0,0,1 @ F,0,0,1,0,0,0,1 @ F,0,0,1,0,0,0,1 @ F,0,0,1,0,0,0,1 @ F,0,0,1,0,0,0,1 @ F,0,0,1,0,0,0,1 @ F,0,0,1,0,0,0,1 @ F,0,0,1,0,0,0,1 @ F,0,0,1,0,0,0,1 @ F,0,0,1,0,0,0,1 @ F,0,0,1,0,0,0,1 @ F,0,0,1,0,0,0,1 @ F,0,0,1,0,0,0,1 @ F,0,0,1,0,0,0,1 @ F,0,0,1,0,0,0,1 @ F,0,0,1,0,0,0,1 @ F,0,0,1,0,0,0,1 @ F,0,0,1,0,0,0,1 @ F,0,0,1,0,0,0,1 @ F,0,0,1,0,0,0,1 @ F,0,0,1,0,0,0,1 @ F,0,0,1,0,0,0,1 @ F,0,0,1,0,0,0,1 @ F,0,0,1,0,0,0,1 @ F,0,0,1,0,0,0,1 @ F,0,0,1,0,0,0,1 @ F,0,0,1,0,0,0,1 @ F,0,0,1,0,0,0,1 @ F,0,0,1,0,0,0,1 @ F,0,0,1,0,0,0,1 @ F,0,0,1,0,0,0,1 @ F,0,0,1,0,0,0,1 @ F,0,0,1,0,0,0,1 @ F,0,0,1,0,0,0,1 @ F,0,0,1,0,0,0,1 @ F,0,0,1,0,0,0,1 @ F,0,0,1,0,0,0,1 @ F,0,0,1,0,0,0,1 | F,0,0,1,0,0,0,1 @ F,0,0,1,0,0,0,1 @ F,0,0,1,0,0,0,1 @ F,0,0,1,0,0,0,1 @ F,0,0,1,0,0,0,1 @ F,0,1,1,0,3.07588,0,1 @ F,0,0,1,0,3.07588,0,1 | F,0,0,1,0,0,0,1 @ F,0,0,1,0,0,0,1 @ F,0,0,1,0,0,0,1 @ F,0,0,1,0,0,0,1 | F,0,0,1,0,0,0,1 @ F,0,0,1,0,0,0,1 @ F,0,0,1,0,0,0,1 @ F,0,0,1,0,0,0,1"
       radius="0"
       unit="px"
       method="auto"
       mode="F"
       chamfer_steps="1"
       flexible="false"
       use_knot_distance="true"
       apply_no_radius="true"
       apply_with_radius="true"
       only_selected="false"
       hide_knots="false" />
  </defs>
  <sodipodi:namedview
     bordercolor="#666666"
     borderopacity="1.0"
     gridtolerance="10.0"
     guidetolerance="10.0"
     id="base"
     inkscape:current-layer="svg118"
     inkscape:cx="42.072854"
     inkscape:cy="105.88924"
     inkscape:guide-bbox="true"
     inkscape:pageopacity="0.0"
     inkscape:pageshadow="2"
     inkscape:window-height="1009"
     inkscape:window-width="1920"
     inkscape:zoom="2.8284271"
     objecttolerance="10.0"
     pagecolor="#ffffff"
     showgrid="false"
     showguides="false"
     inkscape:showpageshadow="2"
     inkscape:pagecheckerboard="0"
     inkscape:deskcolor="#d1d1d1"
     inkscape:window-x="1912"
     inkscape:window-y="-8"
     inkscape:window-maximized="1" />
  <g
     id="g4984"
     transform="translate(6.7529704,5.4382438)"
     inkscape:label="sign_3_45"
     style="opacity:1">
    <path
       d="m 94.999538,0.52549345 c -52.053159,0 -94.47398704,42.42082755 -94.47398704,94.47398055 0,52.053156 42.42082804,94.473996 94.47398704,94.473986 52.053142,0 94.473962,-42.42083 94.473972,-94.473986 0,-52.053153 -42.42083,-94.47398055 -94.473972,-94.47398055 z"
       id="path3157"
       sodipodi:nodetypes="csssc"
       style="fill:#ffffff;fill-opacity:1;fill-rule:evenodd;stroke:#000000;stroke-width:2;stroke-miterlimit:4;stroke-dasharray:none;stroke-opacity:1"
       inkscape:label="bg" />
    <path
       id="path2385"
       style="fill:#ff0000;fill-opacity:1;fill-rule:evenodd;stroke:none;stroke-width:16;stroke-miterlimit:4;stroke-dasharray:none;stroke-opacity:1"
       inkscape:label="red"
       d="M 94.998983 5.0246468 C 45.424602 5.0246468 5.0243734 45.424875 5.0243734 94.999256 C 5.0243734 144.57364 45.424602 184.97388 94.998983 184.97387 C 144.57336 184.97387 184.97358 144.57364 184.97359 94.999256 C 184.97359 45.424875 144.57336 5.0246468 94.998983 5.0246468 z M 98.526326 23.122303 C 136.70907 24.953794 166.96578 56.352046 166.96578 94.999256 C 166.96578 105.10713 164.88711 114.7155 161.14742 123.43285 L 98.479451 87.542225 L 98.526326 23.122303 z M 88.008748 23.374256 L 87.961873 88.719959 L 27.77828 120.76097 C 24.722975 112.7649 23.034139 104.08667 23.034139 94.999256 C 23.034139 57.528789 51.476756 26.875881 88.008748 23.374256 z M 94.291951 97.264881 L 156.29586 132.77465 C 143.63995 153.30925 120.95841 166.96605 94.998983 166.96605 C 68.009982 166.96606 44.570158 152.19986 32.250936 130.29418 L 94.291951 97.264881 z " />
    <g
       id="g4"
       inkscape:label="sign">
      <path
         class="fil2 str0"
         d="m 113.40683,150.91923 c -5.52097,0 -9.87082,-4.34993 -9.87082,-9.87091 0,-4.26636 2.63527,-7.86303 6.44129,-9.28535 L 109.60073,129.588 H 96.927652 c -0.460192,0 -0.878654,-0.58552 -0.836761,-0.83681 l 0.836761,-2.46742 c 0.125329,-0.37663 0.418457,-0.83617 0.836717,-0.83617 h 16.437481 c 1.20263,0 1.31614,4.1404 0,4.1404 h -1.29691 l 0.2512,1.58943 h 0.25069 c 5.43752,0 9.87088,4.4335 9.87088,9.87089 0,5.52098 -4.43336,9.87091 -9.87088,9.87091 z m -10.74872,-5.68809 c -0.50194,-1.29699 -0.79507,-2.7187 -0.79507,-4.18282 0,-3.51374 1.58954,-6.65022 4.05679,-8.74162 -0.20875,-0.58551 -0.8779,-1.12927 -1.58878,-1.12927 h -8.658064 c -2.930803,0 -2.544004,6.65024 -6.190659,6.65024 -1.588795,0 -2.258495,-0.96216 -2.467298,-1.67302 l -1.714815,-6.60843 h 6.691997 c 3.456622,0 3.456649,-6.56666 0,-6.56666 h -8.364972 l -0.418456,-1.63125 h 2.216752 c 2.154165,0 2.15417,-3.3042 0,-3.3042 h -6.231851 c -3.646682,0 -4.034767,5.77162 0.209003,5.77162 l -3.722665,7.69594 c -0.836212,-0.25067 -1.672974,-0.33424 -2.592817,-0.33424 -5.521491,0 -9.87086,4.4335 -9.87086,9.87089 0,5.52098 4.349369,9.87091 9.87086,9.87091 5.43683,0 9.870884,-4.34993 9.870884,-9.87091 0,-3.38776 -1.673675,-6.39956 -4.266292,-8.1561 l 1.631234,-3.5131 c 0.532331,0.21465 1.110631,0.1671 1.672975,0.1671 l 4.015048,14.8481 c 0.167063,0.75263 0.795021,0.83682 1.840737,0.83682 z m -25.76536,-8.49096 -1.129296,2.42625 c 0.376715,0.5431 0.585518,1.17104 0.585518,1.92368 0,1.75654 -1.505162,3.26245 -3.261767,3.26245 -1.840737,0 -3.262468,-1.50591 -3.262468,-3.26245 0,-1.71478 1.254668,-3.09535 2.885903,-3.26244 l 1.129146,-2.42563 c -0.251193,-0.0423 -0.501888,-0.0423 -0.752581,-0.0423 -3.178837,0 -5.772175,2.5098 -5.772175,5.68869 0,3.1789 2.593338,5.77228 5.772175,5.77228 3.178336,0 5.688023,-2.59338 5.688023,-5.77228 0,-1.75653 -0.71084,-3.26244 -1.882478,-4.30814 z m 33.79544,-0.75263 0.50188,2.67693 c -0.66895,0.58552 -1.08745,1.46347 -1.08745,2.42563 0,1.79831 1.46422,3.26245 3.26252,3.26245 1.79829,0 3.26246,-1.46414 3.26246,-3.26245 0,-1.38058 -0.92039,-2.59338 -2.13317,-3.05357 l -0.54377,-2.67693 c 2.92764,0.25132 5.14494,2.67693 5.14494,5.68871 0,3.17889 -2.50974,5.77228 -5.68877,5.77228 -3.17883,0 -5.7716,-2.59339 -5.7716,-5.77228 0,-2.21673 1.25466,-4.09926 3.05296,-5.06077 z"
         id="_144348800"
         style="display:inline;fill:#000000;fill-rule:evenodd;stroke:#000000;stroke-width:0.00835536"
         inkscape:label="sign3"
         sodipodi:nodetypes="ssccsccsssccssscscsssccssccsssccssssccccscccsssccssssscccsssccsssc" />
      <path
         id="_147526664"
         style="opacity:1;display:inline;fill:#000000;fill-rule:evenodd;stroke:#000000;stroke-width:0.0105538"
         class="fil2 str0"
         inkscape:label="sign2"
         d="m 58.884938,105.76182 c -0.291604,0.0211 -0.520069,0.094 -0.667756,0.22699 0.93933,1.70058 0.420353,1.41541 2.143785,3.35198 -1.213044,3.38567 -5.19259,8.12288 -6.366498,10.47151 -0.939286,2.1132 1.355505,3.1493 2.582149,3.40484 1.232774,0.25682 4.39499,-3.59424 6.223577,-2.70104 3.481428,1.70054 2.770855,12.45002 3.227086,12.5048 l -2.935243,-0.3519 c -2.120584,0 -2.333131,2.72604 -0.235396,3.05295 l 1.291075,0.11769 -2.934041,2.69985 c -1.526239,1.29164 -1.997056,2.93577 -0.470793,5.1667 l 6.105881,8.57034 c 1.52624,2.23091 4.695679,-1.0562 3.287134,-3.40484 l -3.990919,-7.04507 4.461712,-5.04779 c 1.677575,5.02691 3.163279,10.35045 4.695907,15.4977 0.469251,1.17472 1.526699,1.76109 2.935242,1.40877 v -0.11771 c 1.173908,-0.35233 1.878802,-1.29131 1.52647,-2.81754 l -3.992122,-13.26743 c 6.222693,0.70468 12.679388,1.05687 19.372119,1.05687 l -2.701046,11.85868 c -0.234621,1.40852 0.470261,2.58292 1.644171,2.81753 h 0.23539 c 1.174727,0.23545 2.348738,-0.46906 2.583352,-1.64297 l 3.051736,-12.91554 0.70499,0.1177 2.58334,12.91434 c 0.35234,2.34864 4.93055,1.52631 4.57822,-0.70379 l -2.11255,-11.85865 7.74883,0.58728 c 1.79541,0.22343 2.60449,-2.47875 0.2342,-3.05294 l -8.45383,-0.58729 c -0.23462,-2.81705 2.34916,-5.51858 2.34916,-8.92342 0.11688,-4.2264 -3.75715,-7.63041 -6.92737,-7.39576 -9.494975,0.95974 -15.935986,1.3373 -21.702059,0.51763 -0.953309,-0.13551 -2.214314,-0.89164 -2.716661,-1.71262 -1.53654,-2.51117 -1.704217,-4.70211 -1.704217,-7.90619 0,-3.0663 -4.695907,-3.06591 -4.695907,0 v 0.5873 l -1.408772,-1.29227 c -2.363342,-1.95206 -7.50912,-4.33424 -9.550346,-4.18669 z m 62.206952,20.9202 c -2.11317,0 -3.75672,1.64274 -3.75672,3.75673 v 6.10468 c 1.0562,-0.47006 2.23011,-0.58609 3.40484,-0.58609 4.81331,0 8.45341,3.40388 8.68802,8.21723 h 2.09678 a 3.07588,3.07588 135 0 0 3.07588,-3.07588 V 129.7579 a 3.07588,3.07588 45 0 0 -3.07588,-3.07588 z m -0.58727,10.8006 c -4.2264,0 -7.39696,3.17052 -7.39696,7.39695 0,4.22722 3.17056,7.39696 7.39696,7.39696 4.22718,0 7.39815,-3.16974 7.39815,-7.39696 0,-4.22643 -3.17097,-7.39695 -7.39815,-7.39695 z m 0,3.87442 c 1.99627,0 3.52252,1.52701 3.52252,3.52253 0,1.9963 -1.52625,3.52253 -3.52252,3.52253 -1.99549,0 -3.52134,-1.52623 -3.52134,-3.52253 0,-1.99552 1.52585,-3.52253 3.52134,-3.52253 z"
         inkscape:path-effect="#path-effect1"
         inkscape:original-d="m 58.884938,105.76182 c -0.291604,0.0211 -0.520069,0.094 -0.667756,0.22699 0.93933,1.70058 0.420353,1.41541 2.143785,3.35198 -1.213044,3.38567 -5.19259,8.12288 -6.366498,10.47151 -0.939286,2.1132 1.355505,3.1493 2.582149,3.40484 1.232774,0.25682 4.39499,-3.59424 6.223577,-2.70104 3.481428,1.70054 2.770855,12.45002 3.227086,12.5048 l -2.935243,-0.3519 c -2.120584,0 -2.333131,2.72604 -0.235396,3.05295 l 1.291075,0.11769 -2.934041,2.69985 c -1.526239,1.29164 -1.997056,2.93577 -0.470793,5.1667 l 6.105881,8.57034 c 1.52624,2.23091 4.695679,-1.0562 3.287134,-3.40484 l -3.990919,-7.04507 4.461712,-5.04779 c 1.677575,5.02691 3.163279,10.35045 4.695907,15.4977 0.469251,1.17472 1.526699,1.76109 2.935242,1.40877 v -0.11771 c 1.173908,-0.35233 1.878802,-1.29131 1.52647,-2.81754 l -3.992122,-13.26743 c 6.222693,0.70468 12.679388,1.05687 19.372119,1.05687 l -2.701046,11.85868 c -0.234621,1.40852 0.470261,2.58292 1.644171,2.81753 h 0.23539 c 1.174727,0.23545 2.348738,-0.46906 2.583352,-1.64297 l 3.051736,-12.91554 0.70499,0.1177 2.58334,12.91434 c 0.35234,2.34864 4.93055,1.52631 4.57822,-0.70379 l -2.11255,-11.85865 7.74883,0.58728 c 1.79541,0.22343 2.60449,-2.47875 0.2342,-3.05294 l -8.45383,-0.58729 c -0.23462,-2.81705 2.34916,-5.51858 2.34916,-8.92342 0.11688,-4.2264 -3.75715,-7.63041 -6.92737,-7.39576 -9.494975,0.95974 -15.935986,1.3373 -21.702059,0.51763 -0.953309,-0.13551 -2.214314,-0.89164 -2.716661,-1.71262 -1.53654,-2.51117 -1.704217,-4.70211 -1.704217,-7.90619 0,-3.0663 -4.695907,-3.06591 -4.695907,0 v 0.5873 l -1.408772,-1.29227 c -2.363342,-1.95206 -7.50912,-4.33424 -9.550346,-4.18669 z m 62.206952,20.9202 c -2.11317,0 -3.75672,1.64274 -3.75672,3.75673 v 6.10468 c 1.0562,-0.47006 2.23011,-0.58609 3.40484,-0.58609 4.81331,0 8.45341,3.40388 8.68802,8.21723 h 5.17266 v -17.49255 z m -0.58727,10.8006 c -4.2264,0 -7.39696,3.17052 -7.39696,7.39695 0,4.22722 3.17056,7.39696 7.39696,7.39696 4.22718,0 7.39815,-3.16974 7.39815,-7.39696 0,-4.22643 -3.17097,-7.39695 -7.39815,-7.39695 z m 0,3.87442 c 1.99627,0 3.52252,1.52701 3.52252,3.52253 0,1.9963 -1.52625,3.52253 -3.52252,3.52253 -1.99549,0 -3.52134,-1.52623 -3.52134,-3.52253 0,-1.99552 1.52585,-3.52253 3.52134,-3.52253 z"
         sodipodi:nodetypes="scccssccccccccccccccccccccccccccccccssssccssscscccsssssssssss"
         transform="matrix(0.64743834,0,0,0.64743834,-0.5651063,-10.654843)" />
      <path
         class="fil2 str0"
         d="m 113.21121,84.892545 c -1.33484,0 -2.44762,-1.112229 -2.44762,-2.447013 0,-1.334783 1.29395,-2.447079 2.44762,-2.447013 1.15355,6.7e-5 2.44706,1.11223 2.44706,2.447013 0,1.334784 -1.11233,2.447013 -2.44706,2.447013 z m 0,3.248093 c -3.1147,0 -5.69574,-2.580439 -5.69574,-5.695106 0,-3.114674 2.58104,-5.695113 5.69574,-5.695113 3.1141,0 5.69501,2.580439 5.69501,5.695113 0,3.114667 -2.58091,5.695106 -5.69501,5.695106 z m 32.46938,-4.388593 c -2.40264,0 -4.36074,-1.958132 -4.36074,-4.360855 0,-2.402198 1.9581,-4.36033 4.36074,-4.36033 2.4023,0 4.3604,1.958132 4.3604,4.36033 0,2.402723 -1.9581,4.360855 -4.3604,4.360855 z m 0,5.294311 c -5.33967,0 -9.65508,-4.315507 -9.65508,-9.655166 0,-5.339133 5.10361,-9.655148 9.65508,-9.655156 4.55148,-1.3e-5 9.65516,4.316023 9.65516,9.655156 0,5.339659 -4.31599,9.655166 -9.65516,9.655166 z m -25.40624,-31.54593 h 2.66961 v 8.765471 h 6.19542 l 4.30509,-9.610847 c 0.48941,-1.379618 1.15705,-2.625273 2.62535,-2.625273 h 9.89246 c 1.46812,0 2.62529,1.201352 2.62529,2.625273 v 9.699457 c 1.02304,0.311673 1.77926,1.290481 1.77926,2.491851 v 1.33478 c -1.5124,-0.801085 -2.68432,-1.33478 -4.64186,-1.33478 -5.87341,0 -10.81535,4.635611 -10.50052,10.500542 0.0329,0.613284 0.21205,1.122138 0.35596,1.656137 h -15.9488 c -1.26774,-3.680639 -3.6472,-5.469375 -8.07783,-4.608494 v -7.548185 c 0,-1.423922 1.15644,-2.580461 2.6696,-2.580461 h 6.05097 z m 13.65163,8.765471 h 10.01905 c 0.48937,0 0.88975,-0.400797 0.88975,-0.89019 v -6.985602 c 0,-0.489396 -0.80061,-0.889679 -0.88975,-0.889679 h -6.80735 c -0.40083,0 -0.80105,0.533699 -0.89019,0.889679 l -3.2117,6.985602 c 0,0.08912 0.40038,0.89019 0.89019,0.89019 z"
         id="_147550744"
         style="opacity:1;fill:#000000;fill-rule:evenodd;stroke:#000000;stroke-width:0.00677557"
         inkscape:label="sign1"
         sodipodi:nodetypes="ssassssssssssssssasscccccssscscsscccssccssssssccs" />
    </g>
  </g>
</svg>
