<?xml version="1.0" encoding="UTF-8" standalone="no"?>
<!-- Created with Inkscape (http://www.inkscape.org/) -->

<svg
   height="200"
   id="svg118"
   inkscape:output_extension="org.inkscape.output.svg.inkscape"
   inkscape:version="1.3 (0e150ed6c4, 2023-07-21)"
   sodipodi:docname="3.5.svg"
   sodipodi:version="0.32"
   version="1.0"
   width="200"
   xmlns:inkscape="http://www.inkscape.org/namespaces/inkscape"
   xmlns:sodipodi="http://sodipodi.sourceforge.net/DTD/sodipodi-0.dtd"
   xmlns="http://www.w3.org/2000/svg"
   xmlns:svg="http://www.w3.org/2000/svg"
   xmlns:rdf="http://www.w3.org/1999/02/22-rdf-syntax-ns#"
   xmlns:cc="http://creativecommons.org/ns#"
   xmlns:dc="http://purl.org/dc/elements/1.1/">
  <title
     id="title1">Заборонні знаки » Дорожні знаки » ПДР Тест Центр</title>
  <metadata
     id="metadata118">
    <rdf:RDF>
      <cc:Work
         rdf:about="">
        <dc:format>&#10;					image/svg+xml&#10;				</dc:format>
        <dc:type
           rdf:resource="http://purl.org/dc/dcmitype/StillImage" />
        <dc:title>Заборонні знаки » Дорожні знаки » ПДР Тест Центр</dc:title>
        <cc:license
           rdf:resource="http://creativecommons.org/licenses/by-nc-sa/4.0/" />
        <dc:language>uk-UA</dc:language>
        <dc:date>2023-09-01</dc:date>
        <dc:creator>
          <cc:Agent>
            <dc:title>ПДР Тест Центр | PDR Test Center</dc:title>
          </cc:Agent>
        </dc:creator>
        <dc:rights>
          <cc:Agent>
            <dc:title>ПДР Тест Центр | PDR Test Center</dc:title>
          </cc:Agent>
        </dc:rights>
        <dc:publisher>
          <cc:Agent>
            <dc:title>https://pdrtest.com/</dc:title>
          </cc:Agent>
        </dc:publisher>
        <dc:source>https://pdrtest.com/driver/rules/section/33.3</dc:source>
      </cc:Work>
      <cc:License
         rdf:about="http://creativecommons.org/licenses/by-nc-sa/4.0/">
        <cc:permits
           rdf:resource="http://creativecommons.org/ns#Reproduction" />
        <cc:permits
           rdf:resource="http://creativecommons.org/ns#Distribution" />
        <cc:requires
           rdf:resource="http://creativecommons.org/ns#Notice" />
        <cc:requires
           rdf:resource="http://creativecommons.org/ns#Attribution" />
        <cc:prohibits
           rdf:resource="http://creativecommons.org/ns#CommercialUse" />
        <cc:permits
           rdf:resource="http://creativecommons.org/ns#DerivativeWorks" />
        <cc:requires
           rdf:resource="http://creativecommons.org/ns#ShareAlike" />
      </cc:License>
    </rdf:RDF>
  </metadata>
  <defs
     id="defs118">
    <inkscape:perspective
       id="perspective118"
       inkscape:persp3d-origin="372.04724 : 360.78739 : 1"
       inkscape:vp_x="0 : 536.18109 : 1"
       inkscape:vp_y="0 : 1000 : 0"
       inkscape:vp_z="744.09448 : 536.18109 : 1"
       sodipodi:type="inkscape:persp3d" />
    <inkscape:perspective
       id="perspective102"
       inkscape:persp3d-origin="372.04724 : 360.78739 : 1"
       inkscape:vp_x="0 : 536.18109 : 1"
       inkscape:vp_y="0 : 1000 : 0"
       inkscape:vp_z="744.09448 : 536.18109 : 1"
       sodipodi:type="inkscape:persp3d" />
    <inkscape:perspective
       id="perspective3360"
       inkscape:persp3d-origin="372.04724 : 360.78739 : 1"
       inkscape:vp_x="0 : 536.18109 : 1"
       inkscape:vp_y="0 : 1000 : 0"
       inkscape:vp_z="744.09448 : 536.18109 : 1"
       sodipodi:type="inkscape:persp3d" />
    <inkscape:perspective
       id="perspective103"
       inkscape:persp3d-origin="372.04724 : 360.78739 : 1"
       inkscape:vp_x="0 : 536.18109 : 1"
       inkscape:vp_y="0 : 1000 : 0"
       inkscape:vp_z="744.09448 : 536.18109 : 1"
       sodipodi:type="inkscape:persp3d" />
    <inkscape:perspective
       id="perspective4652"
       inkscape:persp3d-origin="372.04724 : 360.78739 : 1"
       inkscape:vp_x="0 : 536.18109 : 1"
       inkscape:vp_y="0 : 1000 : 0"
       inkscape:vp_z="744.09448 : 536.18109 : 1"
       sodipodi:type="inkscape:persp3d" />
    <inkscape:perspective
       id="perspective104"
       inkscape:persp3d-origin="372.04724 : 360.78739 : 1"
       inkscape:vp_x="0 : 536.18109 : 1"
       inkscape:vp_y="0 : 1000 : 0"
       inkscape:vp_z="744.09448 : 536.18109 : 1"
       sodipodi:type="inkscape:persp3d" />
  </defs>
  <sodipodi:namedview
     bordercolor="#666666"
     borderopacity="1.0"
     gridtolerance="10.0"
     guidetolerance="10.0"
     id="base"
     inkscape:current-layer="svg118"
     inkscape:cx="80.25"
     inkscape:cy="119.125"
     inkscape:guide-bbox="true"
     inkscape:pageopacity="0.0"
     inkscape:pageshadow="2"
     inkscape:window-height="1009"
     inkscape:window-width="1920"
     inkscape:zoom="4"
     objecttolerance="10.0"
     pagecolor="#ffffff"
     showgrid="false"
     showguides="false"
     inkscape:showpageshadow="2"
     inkscape:pagecheckerboard="0"
     inkscape:deskcolor="#d1d1d1"
     inkscape:window-x="1912"
     inkscape:window-y="-8"
     inkscape:window-maximized="1" />
  <g
     id="g4301"
     transform="translate(4.999995,5)"
     inkscape:label="sign_3_5"
     style="opacity:1">
    <path
       d="m 94.999538,0.52549345 c -52.053159,0 -94.47398704,42.42082755 -94.47398704,94.47398055 0,52.053156 42.42082804,94.473996 94.47398704,94.473986 52.053142,0 94.473962,-42.42083 94.473972,-94.473986 0,-52.053153 -42.42083,-94.47398055 -94.473972,-94.47398055 z"
       id="path3157"
       sodipodi:nodetypes="csssc"
       style="fill:#ffffff;fill-opacity:1;fill-rule:evenodd;stroke:#000000;stroke-width:2;stroke-miterlimit:4;stroke-dasharray:none;stroke-opacity:1"
       inkscape:label="bg" />
    <path
       d="m 94.999335,5.0240299 c -49.57443,0 -89.9752201,40.4007891 -89.9752201,89.9752201 0,49.57443 40.4007901,89.97523 89.9752201,89.97522 49.574425,0 89.975205,-40.40079 89.975215,-89.97522 0,-49.574431 -40.40079,-89.9752201 -89.975215,-89.9752201 z m 0,18.0091141 c 39.830375,0 71.966105,32.135732 71.966105,71.966106 -1e-5,39.83037 -32.13573,71.9661 -71.966105,71.9661 -39.830362,1e-5 -71.966106,-32.13573 -71.966106,-71.9661 0,-39.830374 32.135732,-71.966106 71.966106,-71.966106 z"
       id="path2385"
       style="fill:#ff0000;fill-opacity:1;fill-rule:evenodd;stroke:none;stroke-width:16;stroke-miterlimit:4;stroke-dasharray:none;stroke-opacity:1"
       inkscape:label="red" />
    <path
       class="fil2 str0"
       d="m 50.067305,124.00958 c -3.2929,0 -6.038,-2.74374 -6.038,-6.03649 0,-3.29275 3.192018,-6.03664 6.038,-6.03648 2.845652,1.6e-4 6.0366,2.74373 6.0366,6.03648 0,3.29275 -2.744,6.03649 -6.0366,6.03649 z m 0,8.01265 c -7.6836,0 -14.0507,-6.36562 -14.0507,-14.04914 0,-7.68351 6.3671,-14.04914 14.0507,-14.04914 7.6821,0 14.0489,6.36563 14.0489,14.04914 0,7.68352 -6.3668,14.04914 -14.0489,14.04914 z M 130.1653,121.19611 c -5.927,0 -10.7574,-4.83048 -10.7574,-10.7577 0,-5.92594 4.8304,-10.756399 10.7574,-10.756399 5.9262,0 10.7566,4.830459 10.7566,10.756399 0,5.92722 -4.8304,10.7577 -10.7566,10.7577 z m 0,13.06042 c -13.1723,0 -23.8179,-10.64584 -23.8179,-23.81812 0,-13.170999 12.58999,-23.818075 23.8179,-23.818099 11.22796,-2.4e-5 23.8181,10.6471 23.8181,23.818099 0,13.17228 -10.647,23.81812 -23.8181,23.81812 z M 67.491205,56.436561 h 6.5856 v 21.62335 h 15.283344 l 10.620156,-23.70879 c 1.207295,-3.40335 2.854295,-6.47623 6.476395,-6.47623 h 24.4035 c 3.6217,0 6.4763,2.96359 6.4763,6.47623 v 23.92738 c 2.5237,0.76886 4.3892,3.18346 4.3892,6.14709 v 3.29274 c -3.7309,-1.97618 -6.6219,-3.29274 -11.4509,-3.29274 -14.489,0 -26.68016,11.435481 -25.9035,25.903549 0.0812,1.5129 0.52308,2.76818 0.8781,4.0855 H 65.905645 c -3.127367,-9.0797 -8.997184,-13.49229 -19.92704,-11.3686 V 84.425591 c 0,-3.51264 2.8528,-6.36568 6.5856,-6.36568 h 14.927 z m 33.676915,21.62335 h 24.71579 c 1.2072,0 2.19489,-0.98872 2.19489,-2.19599 v -17.23263 c 0,-1.20728 -1.975,-2.19473 -2.1949,-2.19473 H 109.091 c -0.9888,0 -1.9761,1.31657 -2.196,2.19473 l -7.922887,17.23263 c 0,0.21985 0.987702,2.19599 2.196007,2.19599 z"
       id="_147550744"
       style="fill:#000000;fill-rule:evenodd;stroke:#000000;stroke-width:0.0167145"
       inkscape:label="sign"
       sodipodi:nodetypes="ssassssssssssssssasscccccssscscsscccssccssssssccs" />
  </g>
</svg>
