<?xml version="1.0" encoding="UTF-8" standalone="no"?>
<!-- Created with Inkscape (http://www.inkscape.org/) -->

<svg
   height="200"
   id="svg118"
   inkscape:output_extension="org.inkscape.output.svg.inkscape"
   inkscape:version="1.3 (0e150ed6c4, 2023-07-21)"
   sodipodi:docname="3.6.svg"
   sodipodi:version="0.32"
   version="1.0"
   width="200"
   xmlns:inkscape="http://www.inkscape.org/namespaces/inkscape"
   xmlns:sodipodi="http://sodipodi.sourceforge.net/DTD/sodipodi-0.dtd"
   xmlns="http://www.w3.org/2000/svg"
   xmlns:svg="http://www.w3.org/2000/svg"
   xmlns:rdf="http://www.w3.org/1999/02/22-rdf-syntax-ns#"
   xmlns:cc="http://creativecommons.org/ns#"
   xmlns:dc="http://purl.org/dc/elements/1.1/">
  <title
     id="title1">Заборонні знаки » Дорожні знаки » ПДР Тест Центр</title>
  <metadata
     id="metadata118">
    <rdf:RDF>
      <cc:Work
         rdf:about="">
        <dc:format>&#10;					image/svg+xml&#10;				</dc:format>
        <dc:type
           rdf:resource="http://purl.org/dc/dcmitype/StillImage" />
        <dc:title>Заборонні знаки » Дорожні знаки » ПДР Тест Центр</dc:title>
        <cc:license
           rdf:resource="http://creativecommons.org/licenses/by-nc-sa/4.0/" />
        <dc:creator>
          <cc:Agent>
            <dc:title>ПДР Тест Центр | PDR Test Center</dc:title>
          </cc:Agent>
        </dc:creator>
        <dc:rights>
          <cc:Agent>
            <dc:title>ПДР Тест Центр | PDR Test Center</dc:title>
          </cc:Agent>
        </dc:rights>
        <dc:language>uk-UA</dc:language>
        <dc:date>2023-09-01</dc:date>
        <dc:publisher>
          <cc:Agent>
            <dc:title>https://pdrtest.com/</dc:title>
          </cc:Agent>
        </dc:publisher>
        <dc:source>https://pdrtest.com/driver/rules/section/33.3</dc:source>
      </cc:Work>
      <cc:License
         rdf:about="http://creativecommons.org/licenses/by-nc-sa/4.0/">
        <cc:permits
           rdf:resource="http://creativecommons.org/ns#Reproduction" />
        <cc:permits
           rdf:resource="http://creativecommons.org/ns#Distribution" />
        <cc:requires
           rdf:resource="http://creativecommons.org/ns#Notice" />
        <cc:requires
           rdf:resource="http://creativecommons.org/ns#Attribution" />
        <cc:prohibits
           rdf:resource="http://creativecommons.org/ns#CommercialUse" />
        <cc:permits
           rdf:resource="http://creativecommons.org/ns#DerivativeWorks" />
        <cc:requires
           rdf:resource="http://creativecommons.org/ns#ShareAlike" />
      </cc:License>
    </rdf:RDF>
  </metadata>
  <defs
     id="defs118">
    <inkscape:perspective
       id="perspective118"
       inkscape:persp3d-origin="372.04724 : 360.78739 : 1"
       inkscape:vp_x="0 : 536.18109 : 1"
       inkscape:vp_y="0 : 1000 : 0"
       inkscape:vp_z="744.09448 : 536.18109 : 1"
       sodipodi:type="inkscape:persp3d" />
    <inkscape:perspective
       id="perspective102"
       inkscape:persp3d-origin="372.04724 : 360.78739 : 1"
       inkscape:vp_x="0 : 536.18109 : 1"
       inkscape:vp_y="0 : 1000 : 0"
       inkscape:vp_z="744.09448 : 536.18109 : 1"
       sodipodi:type="inkscape:persp3d" />
    <inkscape:perspective
       id="perspective3360"
       inkscape:persp3d-origin="372.04724 : 360.78739 : 1"
       inkscape:vp_x="0 : 536.18109 : 1"
       inkscape:vp_y="0 : 1000 : 0"
       inkscape:vp_z="744.09448 : 536.18109 : 1"
       sodipodi:type="inkscape:persp3d" />
    <inkscape:perspective
       id="perspective103"
       inkscape:persp3d-origin="372.04724 : 360.78739 : 1"
       inkscape:vp_x="0 : 536.18109 : 1"
       inkscape:vp_y="0 : 1000 : 0"
       inkscape:vp_z="744.09448 : 536.18109 : 1"
       sodipodi:type="inkscape:persp3d" />
    <inkscape:perspective
       id="perspective4652"
       inkscape:persp3d-origin="372.04724 : 360.78739 : 1"
       inkscape:vp_x="0 : 536.18109 : 1"
       inkscape:vp_y="0 : 1000 : 0"
       inkscape:vp_z="744.09448 : 536.18109 : 1"
       sodipodi:type="inkscape:persp3d" />
    <inkscape:perspective
       id="perspective104"
       inkscape:persp3d-origin="372.04724 : 360.78739 : 1"
       inkscape:vp_x="0 : 536.18109 : 1"
       inkscape:vp_y="0 : 1000 : 0"
       inkscape:vp_z="744.09448 : 536.18109 : 1"
       sodipodi:type="inkscape:persp3d" />
    <inkscape:perspective
       id="perspective105"
       inkscape:persp3d-origin="372.04724 : 360.78739 : 1"
       inkscape:vp_x="0 : 536.18109 : 1"
       inkscape:vp_y="0 : 1000 : 0"
       inkscape:vp_z="744.09448 : 536.18109 : 1"
       sodipodi:type="inkscape:persp3d" />
  </defs>
  <sodipodi:namedview
     bordercolor="#666666"
     borderopacity="1.0"
     gridtolerance="10.0"
     guidetolerance="10.0"
     id="base"
     inkscape:current-layer="g4389"
     inkscape:cx="2"
     inkscape:cy="187.75"
     inkscape:guide-bbox="true"
     inkscape:pageopacity="0.0"
     inkscape:pageshadow="2"
     inkscape:window-height="1009"
     inkscape:window-width="1920"
     inkscape:zoom="2"
     objecttolerance="10.0"
     pagecolor="#ffffff"
     showgrid="false"
     showguides="false"
     inkscape:showpageshadow="2"
     inkscape:pagecheckerboard="0"
     inkscape:deskcolor="#d1d1d1"
     inkscape:window-x="1912"
     inkscape:window-y="-8"
     inkscape:window-maximized="1" />
  <g
     id="g4389"
     transform="translate(4.999995,5)"
     inkscape:label="sign_3_6"
     style="opacity:1">
    <path
       d="m 94.999538,0.52549345 c -52.053159,0 -94.47398704,42.42082755 -94.47398704,94.47398055 0,52.053156 42.42082804,94.473996 94.47398704,94.473986 52.053142,0 94.473962,-42.42083 94.473972,-94.473986 0,-52.053153 -42.42083,-94.47398055 -94.473972,-94.47398055 z"
       id="path3157"
       sodipodi:nodetypes="csssc"
       style="fill:#ffffff;fill-opacity:1;fill-rule:evenodd;stroke:#000000;stroke-width:2;stroke-miterlimit:4;stroke-dasharray:none;stroke-opacity:1"
       inkscape:label="bg" />
    <path
       d="m 94.999335,5.0240299 c -49.57443,0 -89.9752201,40.4007891 -89.9752201,89.9752201 0,49.57443 40.4007901,89.97523 89.9752201,89.97522 49.574425,0 89.975205,-40.40079 89.975215,-89.97522 0,-49.574431 -40.40079,-89.9752201 -89.975215,-89.9752201 z m 0,18.0091141 c 39.830375,0 71.966105,32.135732 71.966105,71.966106 -1e-5,39.83037 -32.13573,71.9661 -71.966105,71.9661 -39.830362,1e-5 -71.966106,-32.13573 -71.966106,-71.9661 0,-39.830374 32.135732,-71.966106 71.966106,-71.966106 z"
       id="path2385"
       style="fill:#ff0000;fill-opacity:1;fill-rule:evenodd;stroke:none;stroke-width:16;stroke-miterlimit:4;stroke-dasharray:none;stroke-opacity:1"
       inkscape:label="red" />
    <path
       class="fil2 str0"
       d="m 142.70319,136.80372 c -11.50611,0 -20.57154,-9.0656 -20.57154,-20.57176 0,-8.89143 5.49208,-16.387152 13.42413,-19.351389 l -0.78479,-4.53281 H 108.3593 c -0.95909,0 -1.83118,-1.220256 -1.74388,-1.743971 l 1.74388,-5.142287 c 0.26118,-0.784937 0.87209,-1.742647 1.74377,-1.742647 h 34.25701 c 2.50636,0 2.74294,8.628905 0,8.628905 h -2.70286 l 0.52351,3.312502 h 0.52246 c 11.33223,0 20.57169,9.239757 20.57169,20.571697 0,11.50616 -9.23946,20.57176 -20.57169,20.57176 z m -22.40116,-11.8544 c -1.04608,-2.70307 -1.65699,-5.66601 -1.65699,-8.71736 0,-7.3229 3.31273,-13.85957 8.45466,-18.218207 -0.43505,-1.220256 -1.82961,-2.35349 -3.31116,-2.35349 h -18.04407 c -6.108015,0 -5.3019,13.859597 -12.901811,13.859597 -3.311168,0 -4.706874,-2.00519 -5.142036,-3.48667 L 84.126815,92.260697 h 13.946643 c 7.203862,0 7.203912,-13.68543 0,-13.68543 H 80.640206 l -0.872095,-3.399629 h 4.619884 c 4.489446,0 4.489457,-6.886213 0,-6.886213 H 71.400334 c -7.599969,0 -8.408768,12.028493 0.435579,12.028493 l -7.758321,16.03892 c -1.742732,-0.522403 -3.486609,-0.696572 -5.403634,-0.696572 -11.507215,0 -20.571637,9.239754 -20.571637,20.571694 0,11.50616 9.064422,20.57176 20.571637,20.57176 11.330774,0 20.571688,-9.0656 20.571688,-20.57176 0,-7.06035 -3.488067,-13.33717 -8.891284,-16.997938 l 3.399618,-7.321576 c 1.109421,0.447359 2.31464,0.348254 3.486609,0.348254 l 8.367673,30.94461 c 0.348171,1.56853 1.656886,1.74401 3.836238,1.74401 z m -53.69702,-17.69584 -2.353541,5.05649 c 0.785104,1.13186 1.220266,2.44053 1.220266,4.0091 0,3.66076 -3.136875,6.79919 -6.797777,6.79919 -3.836238,0 -6.799236,-3.13843 -6.799236,-6.79919 0,-3.57375 2.614826,-6.45096 6.014444,-6.79921 l 2.353229,-5.05518 c -0.523507,-0.0884 -1.045972,-0.0884 -1.568437,-0.0884 -6.624942,0 -12.029659,5.23065 -12.029659,11.8557 0,6.62506 5.404717,12.02988 12.029659,12.02988 6.6239,0 11.854281,-5.40482 11.854281,-12.02988 0,-3.66077 -1.481446,-6.79918 -3.923229,-8.97849 z m 70.43233,-1.56855 1.04597,5.57892 c -1.39415,1.22029 -2.26635,3.05 -2.26635,5.05522 0,3.74781 3.05156,6.79919 6.79934,6.79919 3.74779,0 6.79924,-3.05138 6.79924,-6.79919 0,-2.87724 -1.91817,-5.40482 -4.44569,-6.36389 l -1.13328,-5.57892 c 6.10144,0.52376 10.72247,5.57892 10.72247,11.8557 0,6.62507 -5.23049,12.02988 -11.85585,12.02988 -6.62494,0 -12.02847,-5.40481 -12.02847,-12.02988 0,-4.61982 2.61483,-8.54318 6.36262,-10.54703 z"
       id="_144348800"
       style="display:inline;opacity:1;fill:#000000;fill-rule:evenodd;stroke:#000000;stroke-width:0.0174132"
       inkscape:label="sign"
       sodipodi:nodetypes="ssccsccsssccssscscsssccssccsssccssssccccscccsssccssssscccsssccsssc"
       transform="translate(-4.999995,-5)" />
  </g>
</svg>
