<?xml version="1.0" encoding="UTF-8" standalone="no"?>
<!-- Created with Inkscape (http://www.inkscape.org/) -->

<svg
   height="200"
   id="svg118"
   inkscape:output_extension="org.inkscape.output.svg.inkscape"
   inkscape:version="1.3 (0e150ed6c4, 2023-07-21)"
   sodipodi:docname="3.7.svg"
   sodipodi:version="0.32"
   version="1.0"
   width="200"
   xmlns:inkscape="http://www.inkscape.org/namespaces/inkscape"
   xmlns:sodipodi="http://sodipodi.sourceforge.net/DTD/sodipodi-0.dtd"
   xmlns="http://www.w3.org/2000/svg"
   xmlns:svg="http://www.w3.org/2000/svg"
   xmlns:rdf="http://www.w3.org/1999/02/22-rdf-syntax-ns#"
   xmlns:cc="http://creativecommons.org/ns#"
   xmlns:dc="http://purl.org/dc/elements/1.1/">
  <title
     id="title1">Заборонні знаки » Дорожні знаки » ПДР Тест Центр</title>
  <metadata
     id="metadata118">
    <rdf:RDF>
      <cc:Work
         rdf:about="">
        <dc:format>&#10;					image/svg+xml&#10;				</dc:format>
        <dc:type
           rdf:resource="http://purl.org/dc/dcmitype/StillImage" />
        <dc:title>Заборонні знаки » Дорожні знаки » ПДР Тест Центр</dc:title>
        <cc:license
           rdf:resource="http://creativecommons.org/licenses/by-nc-sa/4.0/" />
        <dc:creator>
          <cc:Agent>
            <dc:title>ПДР Тест Центр | PDR Test Center</dc:title>
          </cc:Agent>
        </dc:creator>
        <dc:rights>
          <cc:Agent>
            <dc:title>ПДР Тест Центр | PDR Test Center</dc:title>
          </cc:Agent>
        </dc:rights>
        <dc:language>uk-UA</dc:language>
        <dc:date>2023-09-01</dc:date>
        <dc:publisher>
          <cc:Agent>
            <dc:title>https://pdrtest.com/</dc:title>
          </cc:Agent>
        </dc:publisher>
        <dc:source>https://pdrtest.com/driver/rules/section/33.3</dc:source>
      </cc:Work>
      <cc:License
         rdf:about="http://creativecommons.org/licenses/by-nc-sa/4.0/">
        <cc:permits
           rdf:resource="http://creativecommons.org/ns#Reproduction" />
        <cc:permits
           rdf:resource="http://creativecommons.org/ns#Distribution" />
        <cc:requires
           rdf:resource="http://creativecommons.org/ns#Notice" />
        <cc:requires
           rdf:resource="http://creativecommons.org/ns#Attribution" />
        <cc:prohibits
           rdf:resource="http://creativecommons.org/ns#CommercialUse" />
        <cc:permits
           rdf:resource="http://creativecommons.org/ns#DerivativeWorks" />
        <cc:requires
           rdf:resource="http://creativecommons.org/ns#ShareAlike" />
      </cc:License>
    </rdf:RDF>
  </metadata>
  <defs
     id="defs118">
    <inkscape:path-effect
       effect="fillet_chamfer"
       id="path-effect2"
       is_visible="true"
       lpeversion="1"
       nodesatellites_param="F,0,0,1,0,0,0,1 @ F,0,1,1,0,1.3102844,0,1 @ F,0,0,1,0,1.3102844,0,1 @ F,0,0,1,0,1.6706647,0,1 @ F,0,0,1,0,0,0,1 @ F,0,0,1,0,0,0,1"
       radius="0"
       unit="px"
       method="auto"
       mode="F"
       chamfer_steps="1"
       flexible="false"
       use_knot_distance="true"
       apply_no_radius="true"
       apply_with_radius="true"
       only_selected="false"
       hide_knots="false" />
    <inkscape:path-effect
       effect="fillet_chamfer"
       id="path-effect1"
       is_visible="true"
       lpeversion="1"
       nodesatellites_param="F,0,0,1,0,1.1289968,0,1 @ F,0,1,1,0,0.70014258,0,1 @ F,0,0,1,0,0.70014258,0,1 @ F,0,0,1,0,1.2130733,0,1 @ F,0,0,1,0,0.26218236,0,1 @ F,0,0,1,0,0.35096226,0,1 @ F,0,0,1,0,2.8678,0,1 @ F,0,0,1,0,0.42494751,0,1 @ F,0,0,1,0,1.840363,0,1 @ F,0,0,1,0,0,0,1 @ F,0,0,1,0,0,0,1 @ F,0,0,1,0,2.8678,0,1 @ F,0,0,1,0,0,0,1 @ F,0,0,1,0,0,0,1 @ F,0,0,1,0,0,0,1 @ F,0,0,1,0,0,0,1 @ F,0,0,1,0,1.1289968,0,1 @ F,0,0,1,0,1.1289968,0,1"
       radius="0"
       unit="px"
       method="auto"
       mode="F"
       chamfer_steps="1"
       flexible="false"
       use_knot_distance="true"
       apply_no_radius="true"
       apply_with_radius="true"
       only_selected="false"
       hide_knots="false" />
    <inkscape:perspective
       id="perspective118"
       inkscape:persp3d-origin="372.04724 : 360.78739 : 1"
       inkscape:vp_x="0 : 536.18109 : 1"
       inkscape:vp_y="0 : 1000 : 0"
       inkscape:vp_z="744.09448 : 536.18109 : 1"
       sodipodi:type="inkscape:persp3d" />
    <inkscape:perspective
       id="perspective102"
       inkscape:persp3d-origin="372.04724 : 360.78739 : 1"
       inkscape:vp_x="0 : 536.18109 : 1"
       inkscape:vp_y="0 : 1000 : 0"
       inkscape:vp_z="744.09448 : 536.18109 : 1"
       sodipodi:type="inkscape:persp3d" />
    <inkscape:perspective
       id="perspective3360"
       inkscape:persp3d-origin="372.04724 : 360.78739 : 1"
       inkscape:vp_x="0 : 536.18109 : 1"
       inkscape:vp_y="0 : 1000 : 0"
       inkscape:vp_z="744.09448 : 536.18109 : 1"
       sodipodi:type="inkscape:persp3d" />
    <inkscape:perspective
       id="perspective103"
       inkscape:persp3d-origin="372.04724 : 360.78739 : 1"
       inkscape:vp_x="0 : 536.18109 : 1"
       inkscape:vp_y="0 : 1000 : 0"
       inkscape:vp_z="744.09448 : 536.18109 : 1"
       sodipodi:type="inkscape:persp3d" />
    <inkscape:perspective
       id="perspective4652"
       inkscape:persp3d-origin="372.04724 : 360.78739 : 1"
       inkscape:vp_x="0 : 536.18109 : 1"
       inkscape:vp_y="0 : 1000 : 0"
       inkscape:vp_z="744.09448 : 536.18109 : 1"
       sodipodi:type="inkscape:persp3d" />
    <inkscape:perspective
       id="perspective104"
       inkscape:persp3d-origin="372.04724 : 360.78739 : 1"
       inkscape:vp_x="0 : 536.18109 : 1"
       inkscape:vp_y="0 : 1000 : 0"
       inkscape:vp_z="744.09448 : 536.18109 : 1"
       sodipodi:type="inkscape:persp3d" />
    <inkscape:perspective
       id="perspective105"
       inkscape:persp3d-origin="372.04724 : 360.78739 : 1"
       inkscape:vp_x="0 : 536.18109 : 1"
       inkscape:vp_y="0 : 1000 : 0"
       inkscape:vp_z="744.09448 : 536.18109 : 1"
       sodipodi:type="inkscape:persp3d" />
    <inkscape:perspective
       id="perspective4420"
       inkscape:persp3d-origin="372.04724 : 360.78739 : 1"
       inkscape:vp_x="0 : 536.18109 : 1"
       inkscape:vp_y="0 : 1000 : 0"
       inkscape:vp_z="744.09448 : 536.18109 : 1"
       sodipodi:type="inkscape:persp3d" />
    <inkscape:perspective
       id="perspective107"
       inkscape:persp3d-origin="372.04724 : 360.78739 : 1"
       inkscape:vp_x="0 : 536.18109 : 1"
       inkscape:vp_y="0 : 1000 : 0"
       inkscape:vp_z="744.09448 : 536.18109 : 1"
       sodipodi:type="inkscape:persp3d" />
  </defs>
  <sodipodi:namedview
     bordercolor="#666666"
     borderopacity="1.0"
     gridtolerance="10.0"
     guidetolerance="10.0"
     id="base"
     inkscape:current-layer="svg118"
     inkscape:cx="92"
     inkscape:cy="124.375"
     inkscape:guide-bbox="true"
     inkscape:pageopacity="0.0"
     inkscape:pageshadow="2"
     inkscape:window-height="1009"
     inkscape:window-width="1920"
     inkscape:zoom="4"
     objecttolerance="10.0"
     pagecolor="#ffffff"
     showgrid="false"
     showguides="false"
     inkscape:showpageshadow="2"
     inkscape:pagecheckerboard="0"
     inkscape:deskcolor="#d1d1d1"
     inkscape:window-x="1912"
     inkscape:window-y="-8"
     inkscape:window-maximized="1" />
  <g
     id="g4555"
     transform="translate(4.999995,5)"
     inkscape:label="sign_3_7"
     style="display:inline;opacity:1">
    <path
       d="m 94.999538,0.52549345 c -52.053159,0 -94.47398704,42.42082755 -94.47398704,94.47398055 0,52.053156 42.42082804,94.473996 94.47398704,94.473986 52.053142,0 94.473962,-42.42083 94.473972,-94.473986 0,-52.053153 -42.42083,-94.47398055 -94.473972,-94.47398055 z"
       id="path3157"
       sodipodi:nodetypes="csssc"
       style="fill:#ffffff;fill-opacity:1;fill-rule:evenodd;stroke:#000000;stroke-width:2;stroke-miterlimit:4;stroke-dasharray:none;stroke-opacity:1"
       inkscape:label="bg" />
    <path
       d="m 94.999335,5.0240299 c -49.57443,0 -89.9752201,40.4007891 -89.9752201,89.9752201 0,49.57443 40.4007901,89.97523 89.9752201,89.97522 49.574425,0 89.975205,-40.40079 89.975215,-89.97522 0,-49.574431 -40.40079,-89.9752201 -89.975215,-89.9752201 z m 0,18.0091141 c 39.830375,0 71.966105,32.135732 71.966105,71.966106 -1e-5,39.83037 -32.13573,71.9661 -71.966105,71.9661 -39.830362,1e-5 -71.966106,-32.13573 -71.966106,-71.9661 0,-39.830374 32.135732,-71.966106 71.966106,-71.966106 z"
       id="path2385"
       style="fill:#ff0000;fill-opacity:1;fill-rule:evenodd;stroke:none;stroke-width:16;stroke-miterlimit:4;stroke-dasharray:none;stroke-opacity:1"
       inkscape:label="red" />
    <path
       id="path4516"
       style="display:inline;opacity:1;fill:#000000;fill-opacity:1;fill-rule:evenodd;stroke:none;stroke-width:0.27;stroke-miterlimit:4;stroke-dasharray:none;stroke-opacity:1"
       inkscape:label="sign"
       d="M 317.77145 40.350614 A 1.1290069 1.1290069 0 0 0 316.64236 41.479701 L 316.64236 44.831962 A 1.1691461 1.1691461 0 0 0 317.77032 46.000568 L 319.69655 46.067184 A 0.81625386 0.81625386 0 0 1 320.43384 47.165786 L 316.94722 56.607216 C 316.2541 56.482638 315.54175 56.414143 314.81324 56.414143 C 308.17776 56.414143 302.78169 61.810218 302.78169 68.445699 C 302.78169 75.081183 308.17776 80.476127 314.81324 80.476127 C 321.44873 80.476127 326.8448 75.081186 326.8448 68.445699 C 326.8448 64.15308 324.58481 60.38093 321.19372 58.251168 L 322.16473 55.633943 L 331.96747 69.082505 A 5.5102709 5.5102709 0 0 0 336.52447 71.345196 L 349.7235 71.096797 C 350.93428 76.459771 355.73267 80.476127 361.45698 80.476127 C 368.09246 80.476127 373.48741 75.081186 373.48741 68.445699 C 373.48741 61.810216 368.09246 56.414143 361.45698 56.414143 C 355.38003 56.414143 350.34552 60.94065 349.54059 66.79949 L 337.62984 67.042244 A 3.4953784 3.4953784 0 0 1 334.7168 65.583463 L 330.55611 59.779953 C 330.41938 59.589205 330.48605 59.363923 330.69499 59.258314 C 331.60458 58.798566 333.75863 57.416805 333.10672 54.888745 C 332.71423 53.366717 330.98288 51.266709 329.61106 50.494336 C 327.33532 49.213036 325.74087 50.787924 325.1952 51.46761 C 325.0739 51.6187 324.86055 51.660118 324.70179 51.548904 L 324.19822 51.196629 A 0.3363355 0.3363355 0 0 1 324.07741 50.801448 L 326.27687 45.037456 A 1.761337 1.761337 0 0 1 327.92308 43.903852 L 334.09693 43.903852 A 0.70014258 0.70014258 0 0 0 334.79696 43.203818 L 334.79696 41.050648 A 0.70014258 0.70014258 0 0 0 334.09693 40.350614 L 317.77145 40.350614 z M 346.18946 50.74951 C 345.1166 50.74951 344.48298 53.035124 344.77584 54.080319 C 345.51376 56.713875 354.05823 61.050948 351.13599 57.482259 L 349.19735 55.360704 A 0.73621972 0.73621972 0 0 1 349.74044 54.12774 L 362.39073 54.12774 A 1.3102844 1.3102844 0 0 0 363.7016 52.817999 L 363.7016 52.060381 A 1.3102844 1.3102844 0 0 0 362.39073 50.74951 L 346.18946 50.74951 z M 314.81324 59.882699 C 315.11952 59.882699 315.42198 59.898834 315.7199 59.930121 L 312.5212 68.591352 C 312.0751 69.780986 312.35802 70.565247 313.8219 71.234546 C 315.26795 71.895685 316.32001 71.383105 316.60059 70.627097 L 319.95285 61.594396 C 322.03205 63.155868 323.37624 65.642347 323.37624 68.445699 C 323.37623 73.17836 319.54591 77.039185 314.81324 77.039185 C 310.08058 77.039185 306.21976 73.178361 306.21976 68.445699 C 306.21975 63.713038 310.08058 59.882699 314.81324 59.882699 z M 361.45698 59.882699 C 366.18963 59.882699 370.01885 63.713038 370.01885 68.445699 C 370.01884 73.17836 366.18964 77.039185 361.45698 77.039185 C 357.62508 77.039185 354.36552 74.506897 353.26319 71.03131 L 360.80662 70.889045 C 363.53388 70.837719 363.71368 66.510756 360.84953 66.569156 L 353.03624 66.728357 C 353.83605 62.81973 357.31231 59.882699 361.45698 59.882699 z "
       transform="matrix(1.729826,0,0,1.729826,-489.79869,-12.985088)" />
  </g>
</svg>
