<?xml version="1.0" encoding="UTF-8" standalone="no"?>
<!-- Created with Inkscape (http://www.inkscape.org/) -->

<svg
   height="200"
   id="svg118"
   inkscape:output_extension="org.inkscape.output.svg.inkscape"
   inkscape:version="1.3 (0e150ed6c4, 2023-07-21)"
   sodipodi:docname="3.8.svg"
   sodipodi:version="0.32"
   version="1.0"
   width="200"
   xmlns:inkscape="http://www.inkscape.org/namespaces/inkscape"
   xmlns:sodipodi="http://sodipodi.sourceforge.net/DTD/sodipodi-0.dtd"
   xmlns="http://www.w3.org/2000/svg"
   xmlns:svg="http://www.w3.org/2000/svg"
   xmlns:rdf="http://www.w3.org/1999/02/22-rdf-syntax-ns#"
   xmlns:cc="http://creativecommons.org/ns#"
   xmlns:dc="http://purl.org/dc/elements/1.1/">
  <title
     id="title1">Заборонні знаки » Дорожні знаки » ПДР Тест Центр</title>
  <metadata
     id="metadata118">
    <rdf:RDF>
      <cc:Work
         rdf:about="">
        <dc:format>&#10;					image/svg+xml&#10;				</dc:format>
        <dc:type
           rdf:resource="http://purl.org/dc/dcmitype/StillImage" />
        <dc:title>Заборонні знаки » Дорожні знаки » ПДР Тест Центр</dc:title>
        <cc:license
           rdf:resource="http://creativecommons.org/licenses/by-nc-sa/4.0/" />
        <dc:creator>
          <cc:Agent>
            <dc:title>ПДР Тест Центр | PDR Test Center</dc:title>
          </cc:Agent>
        </dc:creator>
        <dc:rights>
          <cc:Agent>
            <dc:title>ПДР Тест Центр | PDR Test Center</dc:title>
          </cc:Agent>
        </dc:rights>
        <dc:language>uk-UA</dc:language>
        <dc:date>2023-09-01</dc:date>
        <dc:publisher>
          <cc:Agent>
            <dc:title>https://pdrtest.com/</dc:title>
          </cc:Agent>
        </dc:publisher>
        <dc:source>https://pdrtest.com/driver/rules/section/33.3</dc:source>
      </cc:Work>
      <cc:License
         rdf:about="http://creativecommons.org/licenses/by-nc-sa/4.0/">
        <cc:permits
           rdf:resource="http://creativecommons.org/ns#Reproduction" />
        <cc:permits
           rdf:resource="http://creativecommons.org/ns#Distribution" />
        <cc:requires
           rdf:resource="http://creativecommons.org/ns#Notice" />
        <cc:requires
           rdf:resource="http://creativecommons.org/ns#Attribution" />
        <cc:prohibits
           rdf:resource="http://creativecommons.org/ns#CommercialUse" />
        <cc:permits
           rdf:resource="http://creativecommons.org/ns#DerivativeWorks" />
        <cc:requires
           rdf:resource="http://creativecommons.org/ns#ShareAlike" />
      </cc:License>
    </rdf:RDF>
  </metadata>
  <defs
     id="defs118">
    <inkscape:perspective
       id="perspective118"
       inkscape:persp3d-origin="372.04724 : 360.78739 : 1"
       inkscape:vp_x="0 : 536.18109 : 1"
       inkscape:vp_y="0 : 1000 : 0"
       inkscape:vp_z="744.09448 : 536.18109 : 1"
       sodipodi:type="inkscape:persp3d" />
    <inkscape:perspective
       id="perspective102"
       inkscape:persp3d-origin="372.04724 : 360.78739 : 1"
       inkscape:vp_x="0 : 536.18109 : 1"
       inkscape:vp_y="0 : 1000 : 0"
       inkscape:vp_z="744.09448 : 536.18109 : 1"
       sodipodi:type="inkscape:persp3d" />
    <inkscape:perspective
       id="perspective3360"
       inkscape:persp3d-origin="372.04724 : 360.78739 : 1"
       inkscape:vp_x="0 : 536.18109 : 1"
       inkscape:vp_y="0 : 1000 : 0"
       inkscape:vp_z="744.09448 : 536.18109 : 1"
       sodipodi:type="inkscape:persp3d" />
    <inkscape:perspective
       id="perspective103"
       inkscape:persp3d-origin="372.04724 : 360.78739 : 1"
       inkscape:vp_x="0 : 536.18109 : 1"
       inkscape:vp_y="0 : 1000 : 0"
       inkscape:vp_z="744.09448 : 536.18109 : 1"
       sodipodi:type="inkscape:persp3d" />
    <inkscape:perspective
       id="perspective4652"
       inkscape:persp3d-origin="372.04724 : 360.78739 : 1"
       inkscape:vp_x="0 : 536.18109 : 1"
       inkscape:vp_y="0 : 1000 : 0"
       inkscape:vp_z="744.09448 : 536.18109 : 1"
       sodipodi:type="inkscape:persp3d" />
    <inkscape:perspective
       id="perspective104"
       inkscape:persp3d-origin="372.04724 : 360.78739 : 1"
       inkscape:vp_x="0 : 536.18109 : 1"
       inkscape:vp_y="0 : 1000 : 0"
       inkscape:vp_z="744.09448 : 536.18109 : 1"
       sodipodi:type="inkscape:persp3d" />
    <inkscape:perspective
       id="perspective105"
       inkscape:persp3d-origin="372.04724 : 360.78739 : 1"
       inkscape:vp_x="0 : 536.18109 : 1"
       inkscape:vp_y="0 : 1000 : 0"
       inkscape:vp_z="744.09448 : 536.18109 : 1"
       sodipodi:type="inkscape:persp3d" />
    <inkscape:perspective
       id="perspective4420"
       inkscape:persp3d-origin="372.04724 : 360.78739 : 1"
       inkscape:vp_x="0 : 536.18109 : 1"
       inkscape:vp_y="0 : 1000 : 0"
       inkscape:vp_z="744.09448 : 536.18109 : 1"
       sodipodi:type="inkscape:persp3d" />
    <inkscape:perspective
       id="perspective107"
       inkscape:persp3d-origin="372.04724 : 360.78739 : 1"
       inkscape:vp_x="0 : 536.18109 : 1"
       inkscape:vp_y="0 : 1000 : 0"
       inkscape:vp_z="744.09448 : 536.18109 : 1"
       sodipodi:type="inkscape:persp3d" />
    <inkscape:perspective
       id="perspective4648"
       inkscape:persp3d-origin="372.04724 : 360.78739 : 1"
       inkscape:vp_x="0 : 536.18109 : 1"
       inkscape:vp_y="0 : 1000 : 0"
       inkscape:vp_z="744.09448 : 536.18109 : 1"
       sodipodi:type="inkscape:persp3d" />
  </defs>
  <sodipodi:namedview
     bordercolor="#666666"
     borderopacity="1.0"
     gridtolerance="10.0"
     guidetolerance="10.0"
     id="base"
     inkscape:current-layer="svg118"
     inkscape:cx="64.700271"
     inkscape:cy="94.221979"
     inkscape:guide-bbox="true"
     inkscape:pageopacity="0.0"
     inkscape:pageshadow="2"
     inkscape:window-height="1009"
     inkscape:window-width="1920"
     inkscape:zoom="2.8284271"
     objecttolerance="10.0"
     pagecolor="#ffffff"
     showgrid="false"
     showguides="false"
     inkscape:showpageshadow="2"
     inkscape:pagecheckerboard="0"
     inkscape:deskcolor="#d1d1d1"
     inkscape:window-x="1912"
     inkscape:window-y="-8"
     inkscape:window-maximized="1" />
  <g
     id="g4652"
     transform="translate(4.999995,5)"
     inkscape:label="sign_3_8"
     style="opacity:1">
    <path
       d="m 94.999538,0.52549345 c -52.053159,0 -94.47398704,42.42082755 -94.47398704,94.47398055 0,52.053156 42.42082804,94.473996 94.47398704,94.473986 52.053142,0 94.473962,-42.42083 94.473972,-94.473986 0,-52.053153 -42.42083,-94.47398055 -94.473972,-94.47398055 z"
       id="path3157"
       sodipodi:nodetypes="csssc"
       style="fill:#ffffff;fill-opacity:1;fill-rule:evenodd;stroke:#000000;stroke-width:2;stroke-miterlimit:4;stroke-dasharray:none;stroke-opacity:1"
       inkscape:label="bg" />
    <path
       d="m 94.999335,5.0240299 c -49.57443,0 -89.9752201,40.4007891 -89.9752201,89.9752201 0,49.57443 40.4007901,89.97523 89.9752201,89.97522 49.574425,0 89.975205,-40.40079 89.975215,-89.97522 0,-49.574431 -40.40079,-89.9752201 -89.975215,-89.9752201 z m 0,18.0091141 c 39.830375,0 71.966105,32.135732 71.966105,71.966106 -1e-5,39.83037 -32.13573,71.9661 -71.966105,71.9661 -39.830362,1e-5 -71.966106,-32.13573 -71.966106,-71.9661 0,-39.830374 32.135732,-71.966106 71.966106,-71.966106 z"
       id="path2385"
       style="fill:#ff0000;fill-opacity:1;fill-rule:evenodd;stroke:none;stroke-width:16;stroke-miterlimit:4;stroke-dasharray:none;stroke-opacity:1"
       inkscape:label="red" />
    <path
       d="m 85.05727,57.280338 c -3.294095,0.133649 -10.102317,0.176492 -13.398274,0.176492 -2.200244,0.458372 -5.118259,2.452756 -5.118259,5.29475 0,3.392026 3.447494,5.179393 5.647738,5.912467 0.825081,0.183326 1.697623,1.452144 1.147186,2.735621 L 67.423202,87.46042 c -2.56729,-0.825117 -5.361487,-1.500197 -8.29511,-1.500197 -12.375955,-2.5e-5 -22.237957,9.774453 -22.237957,22.149707 0,12.46943 9.862002,22.23794 22.237957,22.23794 v -0.0882 c 12.378244,-4e-5 22.149693,-9.96422 22.149693,-22.23793 5e-5,-10.015316 -6.938563,-16.253478 -9.442296,-18.178641 l 0.352986,-0.970685 c 6.477793,5.529558 15.033424,12.518706 27.5327,22.590936 h 9.177545 c 1.4949,10.84366 10.8377,18.79634 22.06146,18.79634 12.37596,-2e-5 22.14969,-9.76851 22.14969,-22.23793 -2e-5,-13.141407 -11.89547,-26.640256 -30.53304,-20.649518 -3.40457,-5.632321 -6.33435,-10.689185 -8.11859,-13.942847 l 0.70595,-1.764915 c 1.97231,0.941971 3.77797,0.806646 5.5595,-0.441229 2.07052,-1.496067 1.67666,-2.158801 1.67666,-4.443504 3e-5,-0.641753 -0.57693,-1.764914 -1.67666,-1.764914 v -0.08824 h -17.20796 c -2.35256,1.070114 -2.09518,2.815042 0,3.737537 2.2089,0.708785 4.46591,1.255618 6.70671,1.853163 l -1.32371,3.176848 H 77.747962 l 1.235439,-3.529833 c 0.183354,-1.467196 0.329904,-3.128843 -1.411932,-4.41229 -0.825105,-0.550061 -1.881026,-0.887495 -2.431462,-1.253835 -0.608046,-1.481436 -0.07398,-1.923013 1.460756,-1.923013 h 8.456507 c 1.650184,0 2.294385,-2.093897 2.294385,-2.735621 2.4e-5,0 -0.460847,-2.559128 -2.294385,-2.559128 z M 75.718298,79.077059 H 107.04557 C 103.89102,87.256034 101.00955,95.537002 98.044495,103.7859 90.052561,97.135055 81.759526,90.814262 74.041633,83.842332 74.521725,82.21368 74.959702,80.59426 75.718298,79.077059 Z m 36.533782,0.705972 c 1.83402,3.418289 3.79221,6.757983 5.82422,10.060014 -4.23843,3.178448 -8.72164,8.406794 -9.35407,16.501965 h -6.08894 c 3.09151,-8.895036 6.38509,-17.718009 9.61879,-26.561979 z m 35.8278,28.238659 c 2e-5,9.53435 -7.67702,17.20793 -17.11969,17.20793 -9.76046,-7e-5 -15.92529,-7.25725 -16.85495,-13.76635 h 16.85495 c 2.01687,-2e-5 3.35335,-1.51532 3.35335,-3.44158 -2.14264,-5.53424 -5.90094,-10.807476 -8.91284,-16.060755 8.35052,-3.713051 22.67918,2.443665 22.67918,16.060755 z M 59.128092,90.990231 c 2.383624,-3.7e-5 4.5133,0.4955 6.530192,1.411931 -0.917006,4.94238 -3.176212,9.017828 -6.794925,12.442668 -1.833538,-4e-5 -3.088609,1.34475 -3.088609,3.17685 -2.5e-5,1.92626 1.519805,3.44158 3.353342,3.44158 1.649847,-2e-5 2.894946,-1.08691 3.353343,-2.73562 4.820785,-3.35161 5.638129,-8.45748 7.500897,-13.766342 3.967263,3.204387 6.177206,8.552222 6.177206,13.060382 0,8.26595 -6.406348,17.20792 -17.031446,17.20792 -9.534359,-2e-5 -17.119697,-7.58531 -17.119697,-17.11969 0,-9.441246 7.585338,-17.119678 17.119697,-17.119679 z m 61.595608,3.35334 v 0.176481 l 6.88317,11.824948 h -13.76636 c 0.45556,-5.91098 4.40256,-9.993717 6.88319,-12.001429 z"
       id="_143373520"
       style="fill:#000000;fill-rule:evenodd;stroke-width:1.24969"
       inkscape:label="sign"
       sodipodi:nodetypes="ccscccssccsccccsscccccccscccccccsssccccccccccccssccscscccssccssscccccc" />
  </g>
</svg>
