<?xml version="1.0" encoding="UTF-8" standalone="no"?>
<!-- Created with Inkscape (http://www.inkscape.org/) -->

<svg
   height="200"
   id="svg118"
   inkscape:output_extension="org.inkscape.output.svg.inkscape"
   inkscape:version="1.3 (0e150ed6c4, 2023-07-21)"
   sodipodi:docname="4.13.svg"
   sodipodi:version="0.32"
   version="1.0"
   width="200"
   xmlns:inkscape="http://www.inkscape.org/namespaces/inkscape"
   xmlns:sodipodi="http://sodipodi.sourceforge.net/DTD/sodipodi-0.dtd"
   xmlns="http://www.w3.org/2000/svg"
   xmlns:svg="http://www.w3.org/2000/svg"
   xmlns:rdf="http://www.w3.org/1999/02/22-rdf-syntax-ns#"
   xmlns:cc="http://creativecommons.org/ns#"
   xmlns:dc="http://purl.org/dc/elements/1.1/">
  <title
     id="title1">Наказові знаки » Дорожні знаки » ПДР Тест Центр</title>
  <metadata
     id="metadata118">
    <rdf:RDF>
      <cc:Work
         rdf:about="">
        <dc:format>&#10;					image/svg+xml&#10;				</dc:format>
        <dc:type
           rdf:resource="http://purl.org/dc/dcmitype/StillImage" />
        <cc:license
           rdf:resource="http://creativecommons.org/licenses/by-nc-sa/4.0/" />
        <dc:creator>
          <cc:Agent>
            <dc:title>ПДР Тест Центр | PDR Test Center</dc:title>
          </cc:Agent>
        </dc:creator>
        <dc:rights>
          <cc:Agent>
            <dc:title>ПДР Тест Центр | PDR Test Center</dc:title>
          </cc:Agent>
        </dc:rights>
        <dc:language>uk-UA</dc:language>
        <dc:date>2023-09-01</dc:date>
        <dc:title>Наказові знаки » Дорожні знаки » ПДР Тест Центр</dc:title>
        <dc:publisher>
          <cc:Agent>
            <dc:title>https://pdrtest.com/</dc:title>
          </cc:Agent>
        </dc:publisher>
        <dc:source>https://pdrtest.com/driver/rules/section/33.4</dc:source>
      </cc:Work>
      <cc:License
         rdf:about="http://creativecommons.org/licenses/by-nc-sa/4.0/">
        <cc:permits
           rdf:resource="http://creativecommons.org/ns#Reproduction" />
        <cc:permits
           rdf:resource="http://creativecommons.org/ns#Distribution" />
        <cc:requires
           rdf:resource="http://creativecommons.org/ns#Notice" />
        <cc:requires
           rdf:resource="http://creativecommons.org/ns#Attribution" />
        <cc:prohibits
           rdf:resource="http://creativecommons.org/ns#CommercialUse" />
        <cc:permits
           rdf:resource="http://creativecommons.org/ns#DerivativeWorks" />
        <cc:requires
           rdf:resource="http://creativecommons.org/ns#ShareAlike" />
      </cc:License>
    </rdf:RDF>
  </metadata>
  <defs
     id="defs118">
    <inkscape:perspective
       id="perspective118"
       inkscape:persp3d-origin="372.04724 : 360.78739 : 1"
       inkscape:vp_x="0 : 536.18109 : 1"
       inkscape:vp_y="0 : 1000 : 0"
       inkscape:vp_z="744.09448 : 536.18109 : 1"
       sodipodi:type="inkscape:persp3d" />
    <inkscape:perspective
       id="perspective109"
       inkscape:persp3d-origin="372.04724 : 360.78739 : 1"
       inkscape:vp_x="0 : 536.18109 : 1"
       inkscape:vp_y="0 : 1000 : 0"
       inkscape:vp_z="744.09448 : 536.18109 : 1"
       sodipodi:type="inkscape:persp3d" />
    <inkscape:perspective
       id="perspective2412"
       inkscape:persp3d-origin="372.04724 : 360.78739 : 1"
       inkscape:vp_x="0 : 536.18109 : 1"
       inkscape:vp_y="0 : 1000 : 0"
       inkscape:vp_z="744.09448 : 536.18109 : 1"
       sodipodi:type="inkscape:persp3d" />
  </defs>
  <sodipodi:namedview
     bordercolor="#666666"
     borderopacity="1.0"
     gridtolerance="10.0"
     guidetolerance="10.0"
     id="base"
     inkscape:current-layer="svg118"
     inkscape:cx="81.317281"
     inkscape:cy="109.42478"
     inkscape:guide-bbox="true"
     inkscape:pageopacity="0.0"
     inkscape:pageshadow="2"
     inkscape:window-height="1009"
     inkscape:window-width="1920"
     inkscape:zoom="2.8284271"
     objecttolerance="10.0"
     pagecolor="#ffffff"
     showgrid="false"
     showguides="false"
     inkscape:showpageshadow="2"
     inkscape:pagecheckerboard="0"
     inkscape:deskcolor="#d1d1d1"
     inkscape:window-x="1912"
     inkscape:window-y="-8"
     inkscape:window-maximized="1" />
  <g
     id="g2594"
     transform="translate(4.9999971,5.0000002)"
     inkscape:label="sign_4_13"
     style="opacity:1">
    <path
       d="m 281.61136,-0.5172025 c -46.24606,0 -83.93438,37.6883205 -83.93438,83.9343745 0,46.246058 37.68832,83.934388 83.93438,83.934378 46.24605,0 83.93436,-37.68832 83.93437,-83.934378 0,-46.246054 -37.68832,-83.9343745 -83.93437,-83.9343745 z"
       id="path3157"
       sodipodi:nodetypes="csssc"
       style="opacity:1;fill:#ffffff;fill-opacity:1;fill-rule:evenodd;stroke:#000000;stroke-width:1.77687812;stroke-miterlimit:4;stroke-dasharray:none;stroke-opacity:1"
       transform="matrix(1.1255696,0,0,1.1255696,-221.97365,1.1076409)"
       inkscape:label="bg" />
    <path
       d="M 95,5.03125 C 45.425567,5.0312502 5.03125,45.425569 5.03125,95 c 1e-7,49.57443 40.39432,89.96876 89.96875,89.96875 49.57442,0 89.96874,-40.39432 89.96875,-89.96875 C 184.96875,45.425567 144.57443,5.03125 95,5.03125 Z"
       id="path2385"
       style="fill:#0000ff;fill-opacity:1;fill-rule:evenodd;stroke:none;stroke-width:16;stroke-miterlimit:4;stroke-dasharray:none;stroke-opacity:1"
       inkscape:label="blue"
       sodipodi:nodetypes="sssss" />
    <g
       id="g1"
       style="opacity:1;fill:#ffffff;fill-opacity:1"
       transform="matrix(1.1841219,0,0,1.1841219,-74.241213,-22.793605)"
       inkscape:label="sign">
      <path
         d="m 145.69986,99.196774 c 0,-13.042729 1.96791,-22.169542 5.90373,-27.380469 3.96207,-5.210803 9.98386,-7.816235 18.06545,-7.816305 3.88332,7e-5 7.07133,0.577321 9.56406,1.731756 2.49264,1.123369 4.52616,2.6055 6.10052,4.446401 1.57428,1.809825 2.8075,3.728796 3.69968,5.756919 0.91831,1.997036 1.65299,4.337245 2.20406,7.020633 1.07574,5.117308 1.61364,10.452984 1.61369,16.007045 -5e-5,12.449946 -1.77117,21.561156 -5.31337,27.333666 -3.54227,5.77252 -9.64281,8.65878 -18.30158,8.65878 -4.85421,0 -8.7769,-0.92049 -11.76812,-2.76145 -2.99124,-1.84097 -5.44457,-4.54001 -7.35999,-8.09713 -1.39066,-2.52742 -2.47958,-5.97532 -3.26674,-10.34374 -0.76093,-4.39956 -1.14139,-9.2516 -1.14139,-14.556106 m 15.90074,0.04681 c -3e-5,8.736806 0.64282,14.712136 1.92855,17.926016 1.31192,3.18269 3.20112,4.77404 5.66759,4.77402 1.62677,2e-5 3.03056,-0.67084 4.21132,-2.01257 1.20697,-1.37291 2.08597,-3.52591 2.63701,-6.45899 0.57722,-2.93304 0.86584,-7.50424 0.86589,-13.71363 -5e-5,-9.111179 -0.65601,-15.226923 -1.96791,-18.347255 -1.28574,-3.151428 -3.22741,-4.727168 -5.82503,-4.727226 -2.65015,5.8e-5 -4.56557,1.607001 -5.74631,4.820835 -1.18076,3.182736 -1.77114,9.095664 -1.77111,17.7388"
         id="path3535"
         style="font-style:normal;font-variant:normal;font-weight:normal;font-stretch:normal;font-size:79.1926px;line-height:125%;font-family:'Arial Black';-inkscape-font-specification:'Arial Black,';text-align:start;writing-mode:lr-tb;text-anchor:start;fill:#ffffff;fill-opacity:1;stroke:none;stroke-width:1.10996"
         inkscape:label="0" />
      <path
         d="m 100.46921,65.170106 h 39.68567 v 15.211372 h -26.88119 l -1.43639,10.296927 c 1.86044,-0.998445 3.69355,-1.747312 5.49935,-2.246601 1.83308,-0.4992 3.63884,-0.748823 5.41727,-0.748869 6.01916,4.6e-5 10.90291,2.075032 14.65127,6.224962 3.74827,4.150011 5.62243,9.376473 5.62247,15.679413 -4e-5,4.43082 -0.97132,8.69 -2.91384,12.77756 -1.91523,4.08757 -4.65124,7.20785 -8.20799,9.36084 -3.52948,2.15299 -8.05755,3.22949 -13.58423,3.22949 -3.96722,0 -7.37352,-0.42124 -10.21894,-1.26371 -2.8181,-0.87368 -5.22578,-2.15299 -7.22304,-3.83795 -1.969931,-1.71615 -3.570484,-3.65072 -4.801683,-5.80373 -1.231198,-2.15298 -2.257197,-4.83642 -3.077984,-8.05032 L 109.9084,113.8933 c 0.41039,3.0891 1.368,5.44491 2.87281,7.06744 1.50477,1.59135 3.29686,2.38703 5.37625,2.38701 2.32556,2e-5 4.24076,-0.99847 5.74557,-2.99547 1.53214,-2.02816 2.2982,-5.03924 2.29824,-9.03322 -4e-5,-4.08753 -0.7661,-7.083 -2.29824,-8.9864 -1.53218,-1.90334 -3.5705,-2.855026 -6.11495,-2.85506 -1.61425,3.4e-5 -3.17378,0.452474 -4.67856,1.35732 -1.12176,0.65529 -2.35297,1.841 -3.69359,3.55712 l -14.240857,-2.34021 5.294137,-36.881724"
         id="path3533"
         style="font-style:normal;font-variant:normal;font-weight:normal;font-stretch:normal;font-size:79.1926px;line-height:125%;font-family:'Arial Black';-inkscape-font-specification:'Arial Black,';text-align:start;writing-mode:lr-tb;text-anchor:start;fill:#ffffff;fill-opacity:1;stroke:none;stroke-width:1.13342"
         inkscape:label="5" />
    </g>
    <path
       d="M 154.67187,28.609375 28.671875,154.60937 c 4.023511,5.2638 8.591697,10.0814 13.65625,14.34375 L 169.01562,42.265625 c -4.26235,-5.06455 -9.07995,-9.63274 -14.34375,-13.65625 z"
       id="rect2623"
       style="fill:#ff1a1a;fill-opacity:1;fill-rule:nonzero;stroke:none;stroke-width:2;stroke-linecap:round;stroke-linejoin:miter;stroke-miterlimit:4;stroke-dasharray:none;stroke-opacity:1"
       inkscape:label="red"
       transform="translate(-4.9999971,-5.0000002)" />
  </g>
</svg>
