<?xml version="1.0" encoding="UTF-8" standalone="no"?>
<!-- Created with Inkscape (http://www.inkscape.org/) -->

<svg
   height="200"
   id="svg118"
   inkscape:output_extension="org.inkscape.output.svg.inkscape"
   inkscape:version="1.3 (0e150ed6c4, 2023-07-21)"
   sodipodi:docname="4.14.svg"
   sodipodi:version="0.32"
   version="1.0"
   width="200"
   xmlns:inkscape="http://www.inkscape.org/namespaces/inkscape"
   xmlns:sodipodi="http://sodipodi.sourceforge.net/DTD/sodipodi-0.dtd"
   xmlns="http://www.w3.org/2000/svg"
   xmlns:svg="http://www.w3.org/2000/svg"
   xmlns:rdf="http://www.w3.org/1999/02/22-rdf-syntax-ns#"
   xmlns:cc="http://creativecommons.org/ns#"
   xmlns:dc="http://purl.org/dc/elements/1.1/">
  <title
     id="title1">Наказові знаки » Дорожні знаки » ПДР Тест Центр</title>
  <metadata
     id="metadata118">
    <rdf:RDF>
      <cc:Work
         rdf:about="">
        <dc:format>&#10;					image/svg+xml&#10;				</dc:format>
        <dc:type
           rdf:resource="http://purl.org/dc/dcmitype/StillImage" />
        <cc:license
           rdf:resource="http://creativecommons.org/licenses/by-nc-sa/4.0/" />
        <dc:creator>
          <cc:Agent>
            <dc:title>ПДР Тест Центр | PDR Test Center</dc:title>
          </cc:Agent>
        </dc:creator>
        <dc:rights>
          <cc:Agent>
            <dc:title>ПДР Тест Центр | PDR Test Center</dc:title>
          </cc:Agent>
        </dc:rights>
        <dc:language>uk-UA</dc:language>
        <dc:date>2023-09-01</dc:date>
        <dc:title>Наказові знаки » Дорожні знаки » ПДР Тест Центр</dc:title>
        <dc:publisher>
          <cc:Agent>
            <dc:title>https://pdrtest.com/</dc:title>
          </cc:Agent>
        </dc:publisher>
        <dc:source>https://pdrtest.com/driver/rules/section/33.4</dc:source>
      </cc:Work>
      <cc:License
         rdf:about="http://creativecommons.org/licenses/by-nc-sa/4.0/">
        <cc:permits
           rdf:resource="http://creativecommons.org/ns#Reproduction" />
        <cc:permits
           rdf:resource="http://creativecommons.org/ns#Distribution" />
        <cc:requires
           rdf:resource="http://creativecommons.org/ns#Notice" />
        <cc:requires
           rdf:resource="http://creativecommons.org/ns#Attribution" />
        <cc:prohibits
           rdf:resource="http://creativecommons.org/ns#CommercialUse" />
        <cc:permits
           rdf:resource="http://creativecommons.org/ns#DerivativeWorks" />
        <cc:requires
           rdf:resource="http://creativecommons.org/ns#ShareAlike" />
      </cc:License>
    </rdf:RDF>
  </metadata>
  <defs
     id="defs118">
    <inkscape:perspective
       id="perspective118"
       inkscape:persp3d-origin="372.04724 : 360.78739 : 1"
       inkscape:vp_x="0 : 536.18109 : 1"
       inkscape:vp_y="0 : 1000 : 0"
       inkscape:vp_z="744.09448 : 536.18109 : 1"
       sodipodi:type="inkscape:persp3d" />
    <inkscape:perspective
       id="perspective109"
       inkscape:persp3d-origin="372.04724 : 360.78739 : 1"
       inkscape:vp_x="0 : 536.18109 : 1"
       inkscape:vp_y="0 : 1000 : 0"
       inkscape:vp_z="744.09448 : 536.18109 : 1"
       sodipodi:type="inkscape:persp3d" />
    <inkscape:perspective
       id="perspective2412"
       inkscape:persp3d-origin="372.04724 : 360.78739 : 1"
       inkscape:vp_x="0 : 536.18109 : 1"
       inkscape:vp_y="0 : 1000 : 0"
       inkscape:vp_z="744.09448 : 536.18109 : 1"
       sodipodi:type="inkscape:persp3d" />
  </defs>
  <sodipodi:namedview
     bordercolor="#666666"
     borderopacity="1.0"
     gridtolerance="10.0"
     guidetolerance="10.0"
     id="base"
     inkscape:current-layer="svg118"
     inkscape:cx="91.923882"
     inkscape:cy="99.878834"
     inkscape:guide-bbox="true"
     inkscape:pageopacity="0.0"
     inkscape:pageshadow="2"
     inkscape:window-height="1009"
     inkscape:window-width="1920"
     inkscape:zoom="2.8284271"
     objecttolerance="10.0"
     pagecolor="#ffffff"
     showgrid="false"
     showguides="false"
     inkscape:showpageshadow="2"
     inkscape:pagecheckerboard="0"
     inkscape:deskcolor="#d1d1d1"
     inkscape:window-x="1912"
     inkscape:window-y="-8"
     inkscape:window-maximized="1" />
  <g
     id="g2594"
     transform="translate(4.9999971,5.0000002)"
     inkscape:label="sign_4_14"
     style="opacity:1">
    <path
       d="m 281.61136,-0.5172025 c -46.24606,0 -83.93438,37.6883205 -83.93438,83.9343745 0,46.246058 37.68832,83.934388 83.93438,83.934378 46.24605,0 83.93436,-37.68832 83.93437,-83.934378 0,-46.246054 -37.68832,-83.9343745 -83.93437,-83.9343745 z"
       id="path3157"
       sodipodi:nodetypes="csssc"
       style="opacity:1;fill:#ffffff;fill-opacity:1;fill-rule:evenodd;stroke:#000000;stroke-width:1.77687812;stroke-miterlimit:4;stroke-dasharray:none;stroke-opacity:1"
       transform="matrix(1.1255696,0,0,1.1255696,-221.97365,1.1076409)"
       inkscape:label="bg" />
    <path
       d="M 95,5.03125 C 45.425567,5.0312502 5.03125,45.425569 5.03125,95 c 1e-7,49.57443 40.39432,89.96876 89.96875,89.96875 49.57442,0 89.96874,-40.39432 89.96875,-89.96875 C 184.96875,45.425567 144.57443,5.03125 95,5.03125 Z"
       id="path2385"
       style="fill:#0000ff;fill-opacity:1;fill-rule:evenodd;stroke:none;stroke-width:16;stroke-miterlimit:4;stroke-dasharray:none;stroke-opacity:1"
       inkscape:label="blue"
       sodipodi:nodetypes="sssss" />
    <path
       d="m 89.262574,54.75 c -3.830621,0.155416 -11.747765,0.205239 -15.580581,0.205239 -2.558606,0.53303 -5.951907,2.852258 -5.951907,6.157157 0,3.944519 4.009006,6.02301 6.567627,6.875489 0.959469,0.213186 1.974131,1.68867 1.334054,3.181199 L 68.756273,89.845807 C 65.770822,88.886295 62.521523,88.101258 59.110072,88.101258 44.718311,88.101229 33.25,99.46777 33.25,113.8587 c 0,14.50045 11.468311,25.86006 25.860072,25.86006 v -0.1026 c 14.394409,-6e-5 25.75743,-11.5872 25.75743,-25.86004 5.8e-5,-11.64661 -8.068716,-18.900843 -10.980269,-21.139578 l 0.41048,-1.128814 c 7.532894,6.43021 17.482065,14.557752 32.017237,26.270542 h 10.67238 c 1.73839,12.60988 12.60295,21.85789 25.65484,21.85789 14.39176,-3e-5 25.75743,-11.3596 25.75743,-25.86004 -3e-5,-15.281885 -13.83301,-30.979419 -35.50628,-24.012911 -3.95908,-6.549714 -7.36607,-12.430236 -9.44096,-16.213854 l 0.82095,-2.052385 c 2.29355,1.095398 4.39333,0.938032 6.46503,-0.513096 2.40777,-1.739747 1.94976,-2.510426 1.94976,-5.167262 3e-5,-0.74628 -0.6709,-2.052384 -1.94976,-2.052384 v -0.102613 h -20.01078 c -2.73576,1.244412 -2.43645,3.273555 0,4.346304 2.56869,0.824232 5.19332,1.460135 7.79908,2.155006 l -1.53931,3.694294 H 80.762728 l 1.436666,-4.104771 c 0.213219,-1.706172 0.383654,-3.638468 -1.641906,-5.130964 -0.959498,-0.639653 -2.187407,-1.03205 -2.827484,-1.458061 -0.7071,-1.722731 -0.08603,-2.236231 1.69867,-2.236231 h 9.8339 c 1.918966,0 2.668108,-2.434951 2.668108,-3.181198 2.9e-5,0 -0.535924,-2.975959 -2.668108,-2.975959 z M 78.402488,80.096966 H 114.83233 C 111.16397,89.60813 107.81316,99.2379 104.36516,108.83037 95.071512,101.09625 85.427709,93.745922 76.452728,85.638405 c 0.558289,-1.893925 1.067589,-3.777116 1.94976,-5.541439 z m 42.484382,0.82096 c 2.13275,3.975058 4.40989,7.858722 6.77288,11.698587 -4.92876,3.696154 -10.1422,9.776087 -10.87766,19.189807 h -7.08072 c 3.59507,-10.34386 7.42511,-20.60392 11.1855,-30.888394 z m 41.66345,32.838164 c 3e-5,11.08731 -8.92745,20.01075 -19.90815,20.01075 -11.35025,-7e-5 -18.51921,-8.43931 -19.60029,-16.0086 h 19.60029 c 2.34535,-3e-5 3.89954,-1.76214 3.89954,-4.00215 -2.49165,-6.43566 -6.86209,-12.5678 -10.36454,-18.676724 9.71062,-4.317833 26.37315,2.841681 26.37315,18.676724 z M 59.110072,93.950552 c 2.771868,-4.4e-5 5.248425,0.576207 7.593813,1.641907 -1.066368,5.747391 -3.693538,10.486651 -7.901681,14.469321 -2.132184,-4e-5 -3.591672,1.56378 -3.591672,3.6943 -3.2e-5,2.24001 1.767356,4.00214 3.89954,4.00214 1.918559,-3e-5 3.366459,-1.26395 3.89952,-3.1812 5.605993,-3.89751 6.556466,-9.83502 8.722641,-16.008601 4.613464,3.726321 7.183348,9.945221 7.183348,15.187661 0,9.61231 -7.449813,20.01074 -19.805509,20.01074 -11.087321,-2e-5 -19.908155,-8.8208 -19.908155,-19.90813 0,-10.97905 8.820834,-19.908138 19.908155,-19.908138 z m 71.628268,3.899534 v 0.205226 l 8.00429,13.750988 h -16.00862 c 0.52977,-6.87375 5.11966,-11.62149 8.00433,-13.956214 z"
       id="_143373520"
       style="fill:#ffffff;fill-rule:evenodd;stroke-width:1.45323;fill-opacity:1"
       inkscape:label="sign"
       sodipodi:nodetypes="ccscccssccsccccsscccccccscccccccsssccccccccccccssccscscccssccssscccccc"
       transform="translate(-4.9999971,-5.0000002)" />
  </g>
</svg>
