<?xml version="1.0" encoding="UTF-8" standalone="no"?>
<!-- Created with Inkscape (http://www.inkscape.org/) -->

<svg
   height="200"
   id="svg118"
   inkscape:output_extension="org.inkscape.output.svg.inkscape"
   inkscape:version="1.3 (0e150ed6c4, 2023-07-21)"
   sodipodi:docname="4.16.svg"
   sodipodi:version="0.32"
   version="1.0"
   width="200"
   xmlns:inkscape="http://www.inkscape.org/namespaces/inkscape"
   xmlns:sodipodi="http://sodipodi.sourceforge.net/DTD/sodipodi-0.dtd"
   xmlns="http://www.w3.org/2000/svg"
   xmlns:svg="http://www.w3.org/2000/svg"
   xmlns:rdf="http://www.w3.org/1999/02/22-rdf-syntax-ns#"
   xmlns:cc="http://creativecommons.org/ns#"
   xmlns:dc="http://purl.org/dc/elements/1.1/">
  <title
     id="title1">Наказові знаки » Дорожні знаки » ПДР Тест Центр</title>
  <metadata
     id="metadata118">
    <rdf:RDF>
      <cc:Work
         rdf:about="">
        <dc:format>&#10;					image/svg+xml&#10;				</dc:format>
        <dc:type
           rdf:resource="http://purl.org/dc/dcmitype/StillImage" />
        <cc:license
           rdf:resource="http://creativecommons.org/licenses/by-nc-sa/4.0/" />
        <dc:creator>
          <cc:Agent>
            <dc:title>ПДР Тест Центр | PDR Test Center</dc:title>
          </cc:Agent>
        </dc:creator>
        <dc:rights>
          <cc:Agent>
            <dc:title>ПДР Тест Центр | PDR Test Center</dc:title>
          </cc:Agent>
        </dc:rights>
        <dc:language>uk-UA</dc:language>
        <dc:date>2023-09-01</dc:date>
        <dc:title>Наказові знаки » Дорожні знаки » ПДР Тест Центр</dc:title>
        <dc:publisher>
          <cc:Agent>
            <dc:title>https://pdrtest.com/</dc:title>
          </cc:Agent>
        </dc:publisher>
        <dc:source>https://pdrtest.com/driver/rules/section/33.4</dc:source>
      </cc:Work>
      <cc:License
         rdf:about="http://creativecommons.org/licenses/by-nc-sa/4.0/">
        <cc:permits
           rdf:resource="http://creativecommons.org/ns#Reproduction" />
        <cc:permits
           rdf:resource="http://creativecommons.org/ns#Distribution" />
        <cc:requires
           rdf:resource="http://creativecommons.org/ns#Notice" />
        <cc:requires
           rdf:resource="http://creativecommons.org/ns#Attribution" />
        <cc:prohibits
           rdf:resource="http://creativecommons.org/ns#CommercialUse" />
        <cc:permits
           rdf:resource="http://creativecommons.org/ns#DerivativeWorks" />
        <cc:requires
           rdf:resource="http://creativecommons.org/ns#ShareAlike" />
      </cc:License>
    </rdf:RDF>
  </metadata>
  <defs
     id="defs118">
    <inkscape:path-effect
       effect="fillet_chamfer"
       id="path-effect2"
       is_visible="true"
       lpeversion="1"
       nodesatellites_param="F,0,0,1,0,0,0,1 @ F,0,0,1,0,0,0,1 @ F,0,0,1,0,0,0,1 @ F,0,0,1,0,0,0,1 | F,0,0,1,0,2.4203172,0,1 @ F,0,0,1,0,1.2581902,0,1 @ F,0,0,1,0,1.2581902,0,1 @ F,0,0,1,0,0,0,1 @ F,0,0,1,0,0,0,1 @ F,0,0,1,0,0,0,1 @ F,0,0,1,0,0,0,1 @ F,0,0,1,0,0,0,1 @ F,0,0,1,0,0,0,1 @ F,0,0,1,0,0,0,1 @ F,0,0,1,0,0,0,1 @ F,0,0,1,0,0,0,1 @ F,0,0,1,0,0,0,1 @ F,0,0,1,0,0,0,1 @ F,0,0,1,0,0,0,1 @ F,0,0,1,0,0,0,1 @ F,0,0,1,0,0,0,1 @ F,0,0,1,0,0,0,1 @ F,0,0,1,0,0,0,1 @ F,0,0,1,0,0,0,1 @ F,0,0,1,0,0,0,1"
       radius="0"
       unit="px"
       method="auto"
       mode="F"
       chamfer_steps="1"
       flexible="false"
       use_knot_distance="true"
       apply_no_radius="true"
       apply_with_radius="true"
       only_selected="false"
       hide_knots="false" />
    <inkscape:path-effect
       effect="fillet_chamfer"
       id="path-effect1"
       is_visible="true"
       lpeversion="1"
       nodesatellites_param="F,0,0,1,0,0,0,1 @ F,0,0,1,0,3.5008755,0,1 @ F,0,0,1,0,3.5008755,0,1 @ F,0,0,1,0,0,0,1 @ F,0,0,1,0,0,0,1 @ F,0,0,1,0,2.6287889,0,1 @ F,0,0,1,0,4.3212318,0,1 @ F,0,0,1,0,1.2917375,0,1 @ F,0,0,1,0,0,0,1 @ F,0,0,1,0,4.6870561,0,1 @ F,0,0,1,0,0,0,1 @ F,0,0,1,0,0,0,1 @ F,0,0,1,0,4.4764033,0,1 @ F,0,0,1,0,2.6287889,0,1 @ F,0,0,1,0,0,0,1"
       radius="0"
       unit="px"
       method="auto"
       mode="F"
       chamfer_steps="1"
       flexible="false"
       use_knot_distance="true"
       apply_no_radius="true"
       apply_with_radius="true"
       only_selected="false"
       hide_knots="false" />
    <inkscape:perspective
       id="perspective118"
       inkscape:persp3d-origin="372.04724 : 360.78739 : 1"
       inkscape:vp_x="0 : 536.18109 : 1"
       inkscape:vp_y="0 : 1000 : 0"
       inkscape:vp_z="744.09448 : 536.18109 : 1"
       sodipodi:type="inkscape:persp3d" />
    <inkscape:perspective
       id="perspective109"
       inkscape:persp3d-origin="372.04724 : 360.78739 : 1"
       inkscape:vp_x="0 : 536.18109 : 1"
       inkscape:vp_y="0 : 1000 : 0"
       inkscape:vp_z="744.09448 : 536.18109 : 1"
       sodipodi:type="inkscape:persp3d" />
    <inkscape:perspective
       id="perspective2412"
       inkscape:persp3d-origin="372.04724 : 360.78739 : 1"
       inkscape:vp_x="0 : 536.18109 : 1"
       inkscape:vp_y="0 : 1000 : 0"
       inkscape:vp_z="744.09448 : 536.18109 : 1"
       sodipodi:type="inkscape:persp3d" />
  </defs>
  <sodipodi:namedview
     bordercolor="#666666"
     borderopacity="1.0"
     gridtolerance="10.0"
     guidetolerance="10.0"
     id="base"
     inkscape:current-layer="g2594"
     inkscape:cx="2"
     inkscape:cy="163.75"
     inkscape:guide-bbox="true"
     inkscape:pageopacity="0.0"
     inkscape:pageshadow="2"
     inkscape:window-height="1009"
     inkscape:window-width="1920"
     inkscape:zoom="2"
     objecttolerance="10.0"
     pagecolor="#ffffff"
     showgrid="false"
     showguides="false"
     inkscape:showpageshadow="2"
     inkscape:pagecheckerboard="0"
     inkscape:deskcolor="#d1d1d1"
     inkscape:window-x="1912"
     inkscape:window-y="-8"
     inkscape:window-maximized="1" />
  <g
     id="g2594"
     transform="translate(4.9999971,5.0000002)"
     inkscape:label="sign_4_16"
     style="opacity:1">
    <path
       d="m 281.61136,-0.5172025 c -46.24606,0 -83.93438,37.6883205 -83.93438,83.9343745 0,46.246058 37.68832,83.934388 83.93438,83.934378 46.24605,0 83.93436,-37.68832 83.93437,-83.934378 0,-46.246054 -37.68832,-83.9343745 -83.93437,-83.9343745 z"
       id="path3157"
       sodipodi:nodetypes="csssc"
       style="opacity:1;fill:#ffffff;fill-opacity:1;fill-rule:evenodd;stroke:#000000;stroke-width:1.77687812;stroke-miterlimit:4;stroke-dasharray:none;stroke-opacity:1"
       transform="matrix(1.1255696,0,0,1.1255696,-221.97365,1.1076409)"
       inkscape:label="bg" />
    <path
       d="M 95,5.03125 C 45.425567,5.0312502 5.03125,45.425569 5.03125,95 c 1e-7,49.57443 40.39432,89.96876 89.96875,89.96875 49.57442,0 89.96874,-40.39432 89.96875,-89.96875 C 184.96875,45.425567 144.57443,5.03125 95,5.03125 Z"
       id="path2385"
       style="fill:#0000ff;fill-opacity:1;fill-rule:evenodd;stroke:none;stroke-width:16;stroke-miterlimit:4;stroke-dasharray:none;stroke-opacity:1"
       inkscape:label="blue"
       sodipodi:nodetypes="sssss" />
    <g
       id="g2523"
       inkscape:label="people"
       transform="matrix(1.5413766,0,0,1.5413766,-54.482739,-1.1007058)">
      <path
         id="path1"
         style="display:inline;fill:#ffffff;fill-opacity:1;fill-rule:nonzero;stroke:none;stroke-width:2.0636;stroke-linecap:round;stroke-linejoin:miter;stroke-miterlimit:4;stroke-dasharray:none;stroke-opacity:1"
         inkscape:label="smaller"
         d="M 114.80728 51.580517 C 112.49261 51.58075 110.61584 53.457521 110.61561 55.772184 C 110.61541 58.087154 112.49232 59.963618 114.80728 59.963851 C 117.12257 59.96405 118.99914 58.08746 118.99895 55.772184 C 118.99871 53.457214 117.12226 51.580318 114.80728 51.580517 z M 114.15344 61.029508 C 112.81674 61.029508 110.85365 61.663126 109.77677 62.45503 C 106.27244 65.032026 102.81916 67.677867 99.352093 70.304902 C 98.798385 70.724454 98.667349 71.529233 99.059386 72.10296 A 1.2006894 1.2006894 0 0 0 100.62049 72.184056 L 110.53452 67.43105 C 110.61282 67.192498 110.96674 67.262989 110.94887 67.513414 L 110.09229 79.873003 C 109.99649 81.399908 109.77498 83.86994 109.57403 85.386287 C 108.84815 90.863738 107.59478 99.165062 107.59478 99.165062 C 107.05681 101.15944 110.65093 102.16508 111.69521 100.29661 L 114.5754 82.879903 C 114.6694 82.318398 115.47313 82.310115 115.5777 82.869766 L 118.75439 99.957018 C 119.76364 102.10925 123.30507 101.5319 122.80921 98.511222 L 120.61327 85.135395 C 120.32459 83.377437 120.1232 81.605299 120.01012 79.827386 L 119.3094 68.809688 C 119.2953 68.599944 119.59616 68.548952 119.65279 68.7514 L 124.46155 79.818516 C 125.95872 80.771843 127.82757 79.461512 127.2505 78.095219 C 125.5592 73.121008 122.74379 67.985512 120.6779 63.0113 C 120.21901 61.906413 118.83076 61.029508 117.63425 61.029508 L 114.15344 61.029508 z " />
      <path
         id="path5772"
         style="display:inline;fill:#ffffff;fill-opacity:1;fill-rule:nonzero;stroke:none;stroke-width:2;stroke-linecap:round;stroke-linejoin:miter;stroke-miterlimit:4;stroke-dasharray:none;stroke-opacity:1"
         inkscape:label="bigger"
         d="m 260.43743,-25.499707 c -2.24334,2.26e-4 -4.06186,1.818752 -4.06209,4.062088 -1.9e-4,2.243633 1.81846,4.062622 4.06209,4.062848 2.24393,1.93e-4 4.06304,-1.818919 4.06285,-4.062848 -2.3e-4,-2.243633 -1.81922,-4.062281 -4.06285,-4.062088 z m -2.97988,9.157747 c -1.25173,-3e-5 -2.36075,0.806946 -2.7458,1.997985 l -4.52872,14.00793499 c -0.77255,1.32423611 1.45437,3.25194551 2.57481,1.55719711 l 3.38115,-10.100882 c 0.0759,-0.2312025 0.41935,-0.1636711 0.40203,0.079038 l -0.67334,10.721785 c -0.0929,1.4798531 -0.30759,3.8737924 -0.50235,5.3434129 -0.70351,5.3086592 -1.91819,13.3535922 -1.91819,13.3535922 -0.52139,1.93292 2.96184,2.907546 3.97394,1.09665 l 2.7914,-16.8798953 c 0.0911,-0.544205 0.87067,-0.5515188 0.97201,-0.00912 l 3.07792,16.5607041 c 0.97816,2.085904 4.41043,1.526185 3.92985,-1.401401 L 266.06432,7.0205575 C 265.78454,5.3167692 265.58949,3.6001447 265.47989,1.8770191 L 264.80123,-8.801447 c -0.0137,-0.2032799 0.27723,-0.2532065 0.33211,-0.056999 l 3.01028,10.5690292 c 1.45103,0.9239492 3.26253,-0.3454848 2.70325,-1.66967408 -1.63918,-4.82092842 -2.71799,-9.64147352 -4.72023,-14.46240162 -0.44475,-1.07084 -1.78985,-1.920468 -2.94948,-1.920468 z"
         transform="matrix(1.6673226,0,0,1.6673226,-350.11203,63.766724)"
         sodipodi:nodetypes="cccccccccccccccccccccccccssc" />
    </g>
  </g>
</svg>
