<?xml version="1.0" encoding="UTF-8" standalone="no"?>
<!-- Created with Inkscape (http://www.inkscape.org/) -->

<svg
   height="200"
   id="svg118"
   inkscape:output_extension="org.inkscape.output.svg.inkscape"
   inkscape:version="1.3 (0e150ed6c4, 2023-07-21)"
   sodipodi:docname="4.19.svg"
   sodipodi:version="0.32"
   version="1.0"
   width="200"
   xmlns:inkscape="http://www.inkscape.org/namespaces/inkscape"
   xmlns:sodipodi="http://sodipodi.sourceforge.net/DTD/sodipodi-0.dtd"
   xmlns="http://www.w3.org/2000/svg"
   xmlns:svg="http://www.w3.org/2000/svg"
   xmlns:rdf="http://www.w3.org/1999/02/22-rdf-syntax-ns#"
   xmlns:cc="http://creativecommons.org/ns#"
   xmlns:dc="http://purl.org/dc/elements/1.1/">
  <title
     id="title1">Наказові знаки » Дорожні знаки » ПДР Тест Центр</title>
  <metadata
     id="metadata118">
    <rdf:RDF>
      <cc:Work
         rdf:about="">
        <dc:format>&#10;					image/svg+xml&#10;				</dc:format>
        <dc:type
           rdf:resource="http://purl.org/dc/dcmitype/StillImage" />
        <dc:title>Наказові знаки » Дорожні знаки » ПДР Тест Центр</dc:title>
        <cc:license
           rdf:resource="http://creativecommons.org/licenses/by-nc-sa/4.0/" />
        <dc:creator>
          <cc:Agent>
            <dc:title>ПДР Тест Центр | PDR Test Center</dc:title>
          </cc:Agent>
        </dc:creator>
        <dc:rights>
          <cc:Agent>
            <dc:title>ПДР Тест Центр | PDR Test Center</dc:title>
          </cc:Agent>
        </dc:rights>
        <dc:language>uk-UA</dc:language>
        <dc:date>2023-09-01</dc:date>
        <dc:publisher>
          <cc:Agent>
            <dc:title>https://pdrtest.com/</dc:title>
          </cc:Agent>
        </dc:publisher>
        <dc:source>https://pdrtest.com/driver/rules/section/33.4</dc:source>
      </cc:Work>
      <cc:License
         rdf:about="http://creativecommons.org/licenses/by-nc-sa/4.0/">
        <cc:permits
           rdf:resource="http://creativecommons.org/ns#Reproduction" />
        <cc:permits
           rdf:resource="http://creativecommons.org/ns#Distribution" />
        <cc:requires
           rdf:resource="http://creativecommons.org/ns#Notice" />
        <cc:requires
           rdf:resource="http://creativecommons.org/ns#Attribution" />
        <cc:prohibits
           rdf:resource="http://creativecommons.org/ns#CommercialUse" />
        <cc:permits
           rdf:resource="http://creativecommons.org/ns#DerivativeWorks" />
        <cc:requires
           rdf:resource="http://creativecommons.org/ns#ShareAlike" />
      </cc:License>
    </rdf:RDF>
  </metadata>
  <defs
     id="defs118">
    <inkscape:perspective
       id="perspective118"
       inkscape:persp3d-origin="372.04724 : 360.78739 : 1"
       inkscape:vp_x="0 : 536.18109 : 1"
       inkscape:vp_y="0 : 1000 : 0"
       inkscape:vp_z="744.09448 : 536.18109 : 1"
       sodipodi:type="inkscape:persp3d" />
    <inkscape:perspective
       id="perspective109"
       inkscape:persp3d-origin="372.04724 : 360.78739 : 1"
       inkscape:vp_x="0 : 536.18109 : 1"
       inkscape:vp_y="0 : 1000 : 0"
       inkscape:vp_z="744.09448 : 536.18109 : 1"
       sodipodi:type="inkscape:persp3d" />
    <inkscape:perspective
       id="perspective2412"
       inkscape:persp3d-origin="372.04724 : 360.78739 : 1"
       inkscape:vp_x="0 : 536.18109 : 1"
       inkscape:vp_y="0 : 1000 : 0"
       inkscape:vp_z="744.09448 : 536.18109 : 1"
       sodipodi:type="inkscape:persp3d" />
  </defs>
  <sodipodi:namedview
     bordercolor="#666666"
     borderopacity="1.0"
     gridtolerance="10.0"
     guidetolerance="10.0"
     id="base"
     inkscape:current-layer="svg118"
     inkscape:cx="100.123"
     inkscape:cy="100"
     inkscape:guide-bbox="true"
     inkscape:pageopacity="0.0"
     inkscape:pageshadow="2"
     inkscape:window-height="1009"
     inkscape:window-width="1920"
     inkscape:zoom="4.065"
     objecttolerance="10.0"
     pagecolor="#ffffff"
     showgrid="false"
     showguides="false"
     inkscape:showpageshadow="2"
     inkscape:pagecheckerboard="0"
     inkscape:deskcolor="#d1d1d1"
     inkscape:window-x="1912"
     inkscape:window-y="-8"
     inkscape:window-maximized="1" />
  <g
     id="g4"
     transform="translate(4.9999971,5.0000002)"
     inkscape:label="sign_4_19"
     style="display:inline;opacity:1">
    <path
       d="m 281.61136,-0.5172025 c -46.24606,0 -83.93438,37.6883205 -83.93438,83.9343745 0,46.246058 37.68832,83.934388 83.93438,83.934378 46.24605,0 83.93436,-37.68832 83.93437,-83.934378 0,-46.246054 -37.68832,-83.9343745 -83.93437,-83.9343745 z"
       id="path1"
       sodipodi:nodetypes="csssc"
       style="opacity:1;fill:#ffffff;fill-opacity:1;fill-rule:evenodd;stroke:#000000;stroke-width:1.77688;stroke-miterlimit:4;stroke-dasharray:none;stroke-opacity:1"
       transform="matrix(1.1255696,0,0,1.1255696,-221.97365,1.1076409)"
       inkscape:label="bg" />
    <path
       d="m 94.999333,5.0240299 c -49.57443,0 -89.9752197,40.4007891 -89.9752197,89.9752201 0,49.57443 40.4007897,89.97523 89.9752197,89.97522 49.574427,0 89.975207,-40.40079 89.975217,-89.97522 0,-49.574431 -40.40079,-89.9752201 -89.975217,-89.9752201 z"
       id="path3"
       sodipodi:nodetypes="csssc"
       style="fill:#0000ff;fill-opacity:1;fill-rule:evenodd;stroke:none;stroke-width:16;stroke-miterlimit:4;stroke-dasharray:none;stroke-opacity:1"
       inkscape:label="blue" />
    <path
       id="path4"
       style="fill:#ffffff;fill-opacity:1;fill-rule:nonzero;stroke:none;stroke-width:2;stroke-linecap:round;stroke-linejoin:miter;stroke-miterlimit:4;stroke-opacity:1"
       inkscape:label="sign"
       d="M 93.244144 34.376953 C 90.520715 34.380953 88.503269 37.645026 89.798831 41.019531 C 91.364403 45.097306 93.021593 42.67968 93.359378 47.041015 C 93.436558 48.037557 92.471932 49.264739 92.437503 50.263672 C 93.191665 54.986915 94.380531 59.669265 95.37305 64.367187 L 84.609378 71.505859 C 80.823824 67.153165 71.414194 52.592167 63.826175 48.546875 C 62.742515 47.969165 63.822149 44.037808 62.595706 43.925781 C 61.454996 43.821588 60.815383 47.853823 58.888675 47.769531 C 56.961985 47.685241 56.4973 44.176012 55.197269 44.255859 C 53.978344 44.330729 55.114838 46.929025 54.380862 49.539062 C 52.646861 59.708821 39.926664 63.727346 40.828128 67.277344 C 41.232593 68.870157 42.46489 72.512759 43.81055 72.476562 C 47.675646 72.373682 57.088694 66.72203 57.816409 68.466797 C 59.730358 73.05568 65.037214 99.442018 64.820315 101.54687 C 64.156576 107.98799 49.432291 115.37055 49.164065 119.46289 C 49.081705 120.71955 58.136953 147.21285 60.052737 147.33789 C 62.335982 147.48694 65.885354 147.65809 65.517581 145.70508 C 61.985978 126.95122 58.164307 124.37916 59.08594 123.56055 L 68.568362 115.13672 C 68.609242 115.3002 74.19569 132.8039 78.181644 147.93945 C 78.778755 149.77031 84.133187 149.51984 84.142581 146.24609 C 84.166011 138.07812 78.271689 115.76064 79.246097 115.97266 C 87.966353 117.87019 98.060698 113.86556 108.09571 116.00391 C 110.86207 116.5934 112.31153 120.15836 113.85157 123.77539 C 113.85157 123.77539 106.54172 138.40551 103.94727 144.43359 C 103.51314 145.44226 104.35113 147.31743 106.00196 148.42578 C 108.10359 149.83678 110.09277 148.87508 110.70508 148.15625 C 113.98133 144.30991 120.88086 130.46484 120.88086 130.46484 C 120.88086 130.46484 129.56451 141.59886 134.16407 147.58008 C 134.73241 148.31915 137.39935 150.0151 139.75977 148.27148 C 142.17255 146.48921 141.47087 145.04592 140.95703 144.19531 C 136.7129 137.16948 125.99805 119.11133 125.99805 119.11133 C 125.99805 119.11133 140.30397 108.64671 135.50782 93.232422 C 136.15818 93.221319 137.77785 93.116528 140.2168 94.992187 C 144.04879 97.939168 146.39848 102.78556 148.08399 105.68164 C 149.76952 108.57771 152.53173 114.46738 155.56836 114.74805 C 156.68866 114.85161 158.65573 114.94409 160.20703 114.3418 C 162.13086 113.59488 163.33849 110.82068 162.34375 109.82227 C 158.77714 106.2425 158.36271 104.09573 153.85938 97.640625 C 151.25323 93.904915 144.45436 88.890642 140.90821 87.912109 C 138.73841 87.313378 133.6543 86.357422 133.6543 86.357422 C 122.83257 77.320866 118.67886 83.30941 109.36133 82.904297 C 111.8059 75.581797 113.22782 76.399883 115.1543 67.177734 C 116.06985 62.794922 103.84185 48.953626 99.115237 45.429687 C 97.277336 44.059442 98.98064 39.675198 98.712894 37.542969 C 98.495547 35.812128 95.479529 34.373616 93.244144 34.376953 z M 99.345706 70.355469 L 96.927737 82.904297 L 91.746097 82.845703 C 91.746097 82.845703 89.859301 79.62259 87.486331 75.880859 L 99.345706 70.355469 z " />
  </g>
</svg>
