<?xml version="1.0" encoding="UTF-8" standalone="no"?>
<!-- Created with Inkscape (http://www.inkscape.org/) -->

<svg
   height="280"
   id="svg2"
   inkscape:output_extension="org.inkscape.output.svg.inkscape"
   inkscape:version="1.3 (0e150ed6c4, 2023-07-21)"
   sodipodi:docname="4.20.3.svg"
   sodipodi:version="0.32"
   version="1.0"
   width="200"
   xmlns:inkscape="http://www.inkscape.org/namespaces/inkscape"
   xmlns:sodipodi="http://sodipodi.sourceforge.net/DTD/sodipodi-0.dtd"
   xmlns="http://www.w3.org/2000/svg"
   xmlns:svg="http://www.w3.org/2000/svg"
   xmlns:rdf="http://www.w3.org/1999/02/22-rdf-syntax-ns#"
   xmlns:cc="http://creativecommons.org/ns#"
   xmlns:dc="http://purl.org/dc/elements/1.1/">
  <title
     id="title1">Наказові знаки » Дорожні знаки » ПДР Тест Центр</title>
  <metadata
     id="metadata7">
    <rdf:RDF>
      <cc:Work
         rdf:about="">
        <dc:format>&#10;					image/svg+xml&#10;				</dc:format>
        <dc:type
           rdf:resource="http://purl.org/dc/dcmitype/StillImage" />
        <cc:license
           rdf:resource="http://creativecommons.org/licenses/by-nc-sa/4.0/" />
        <dc:creator>
          <cc:Agent>
            <dc:title>ПДР Тест Центр | PDR Test Center</dc:title>
          </cc:Agent>
        </dc:creator>
        <dc:rights>
          <cc:Agent>
            <dc:title>ПДР Тест Центр | PDR Test Center</dc:title>
          </cc:Agent>
        </dc:rights>
        <dc:language>uk-UA</dc:language>
        <dc:date>2023-09-01</dc:date>
        <dc:title>Наказові знаки » Дорожні знаки » ПДР Тест Центр</dc:title>
        <dc:publisher>
          <cc:Agent>
            <dc:title>https://pdrtest.com/</dc:title>
          </cc:Agent>
        </dc:publisher>
        <dc:source>https://pdrtest.com/driver/rules/section/33.4</dc:source>
      </cc:Work>
      <cc:License
         rdf:about="http://creativecommons.org/licenses/by-nc-sa/4.0/">
        <cc:permits
           rdf:resource="http://creativecommons.org/ns#Reproduction" />
        <cc:permits
           rdf:resource="http://creativecommons.org/ns#Distribution" />
        <cc:requires
           rdf:resource="http://creativecommons.org/ns#Notice" />
        <cc:requires
           rdf:resource="http://creativecommons.org/ns#Attribution" />
        <cc:prohibits
           rdf:resource="http://creativecommons.org/ns#CommercialUse" />
        <cc:permits
           rdf:resource="http://creativecommons.org/ns#DerivativeWorks" />
        <cc:requires
           rdf:resource="http://creativecommons.org/ns#ShareAlike" />
      </cc:License>
    </rdf:RDF>
  </metadata>
  <defs
     id="defs5">
    <inkscape:perspective
       id="perspective9"
       inkscape:persp3d-origin="372.04724 : 334.10074 : 1"
       inkscape:vp_x="0 : 509.49444 : 1"
       inkscape:vp_y="0 : 1000 : 0"
       inkscape:vp_z="744.09448 : 509.49444 : 1"
       sodipodi:type="inkscape:persp3d" />
    <inkscape:perspective
       id="perspective122"
       inkscape:persp3d-origin="372.04724 : 334.10074 : 1"
       inkscape:vp_x="0 : 509.49444 : 1"
       inkscape:vp_y="0 : 1000 : 0"
       inkscape:vp_z="744.09448 : 509.49444 : 1"
       sodipodi:type="inkscape:persp3d" />
    <inkscape:perspective
       id="perspective121"
       inkscape:persp3d-origin="372.04724 : 334.10074 : 1"
       inkscape:vp_x="0 : 509.49444 : 1"
       inkscape:vp_y="0 : 1000 : 0"
       inkscape:vp_z="744.09448 : 509.49444 : 1"
       sodipodi:type="inkscape:persp3d" />
    <inkscape:perspective
       id="perspective120"
       inkscape:persp3d-origin="372.04724 : 334.10074 : 1"
       inkscape:vp_x="0 : 509.49444 : 1"
       inkscape:vp_y="0 : 1000 : 0"
       inkscape:vp_z="744.09448 : 509.49444 : 1"
       sodipodi:type="inkscape:persp3d" />
    <inkscape:perspective
       id="perspective109"
       inkscape:persp3d-origin="372.04724 : 334.10074 : 1"
       inkscape:vp_x="0 : 509.49444 : 1"
       inkscape:vp_y="0 : 1000 : 0"
       inkscape:vp_z="744.09448 : 509.49444 : 1"
       sodipodi:type="inkscape:persp3d" />
    <inkscape:perspective
       id="perspective118"
       inkscape:persp3d-origin="372.04724 : 334.10074 : 1"
       inkscape:vp_x="0 : 509.49444 : 1"
       inkscape:vp_y="0 : 1000 : 0"
       inkscape:vp_z="744.09448 : 509.49444 : 1"
       sodipodi:type="inkscape:persp3d" />
    <inkscape:perspective
       id="perspective3396"
       inkscape:persp3d-origin="372.04724 : 334.10074 : 1"
       inkscape:vp_x="0 : 509.49444 : 1"
       inkscape:vp_y="0 : 1000 : 0"
       inkscape:vp_z="744.09448 : 509.49444 : 1"
       sodipodi:type="inkscape:persp3d" />
    <inkscape:path-effect
       effect="fillet_chamfer"
       id="path-effect1"
       is_visible="true"
       lpeversion="1"
       nodesatellites_param="F,0,0,1,0,0,0,1 @ F,0,0,1,0,0,0,1 @ F,0,0,1,0,0,0,1 @ F,0,0,1,0,0,0,1 @ F,0,0,1,0,29.576601,0,1 @ F,0,0,1,0,0,0,1 @ F,0,0,1,0,0,0,1 @ F,0,0,1,0,12.774183,0,1 @ F,0,0,1,0,0,0,1"
       radius="0"
       unit="px"
       method="auto"
       mode="F"
       chamfer_steps="1"
       flexible="false"
       use_knot_distance="true"
       apply_no_radius="true"
       apply_with_radius="true"
       only_selected="false"
       hide_knots="false" />
    <inkscape:path-effect
       effect="fillet_chamfer"
       id="path-effect1-5"
       is_visible="true"
       lpeversion="1"
       nodesatellites_param="F,0,0,1,0,0,0,1 @ F,0,0,1,0,0,0,1 @ F,0,0,1,0,0,0,1 @ F,0,0,1,0,0,0,1 @ F,0,0,1,0,29.576601,0,1 @ F,0,0,1,0,0,0,1 @ F,0,0,1,0,0,0,1 @ F,0,0,1,0,12.774183,0,1 @ F,0,0,1,0,0,0,1"
       radius="0"
       unit="px"
       method="auto"
       mode="F"
       chamfer_steps="1"
       flexible="false"
       use_knot_distance="true"
       apply_no_radius="true"
       apply_with_radius="true"
       only_selected="false"
       hide_knots="false" />
  </defs>
  <sodipodi:namedview
     bordercolor="#666666"
     borderopacity="1.0"
     gridtolerance="10.0"
     guidetolerance="10.0"
     id="base"
     inkscape:current-layer="svg2"
     inkscape:cx="159.93597"
     inkscape:cy="235.46129"
     inkscape:pageopacity="0.0"
     inkscape:pageshadow="2"
     inkscape:window-height="1009"
     inkscape:window-maximized="1"
     inkscape:window-width="1920"
     inkscape:window-x="-8"
     inkscape:window-y="-8"
     inkscape:zoom="1.2379954"
     objecttolerance="10.0"
     pagecolor="#ffffff"
     showgrid="false"
     inkscape:showpageshadow="2"
     inkscape:pagecheckerboard="0"
     inkscape:deskcolor="#d1d1d1" />
  <g
     id="g3508"
     transform="matrix(0.91132154,0,0,0.91132154,13.608734,5.1797008)"
     inkscape:label="sign_4_20_3"
     style="opacity:1">
    <path
       d="m 12.077717,0.85495493 c -12.15484586,0 -21.0650945,9.03393497 -21.0650945,20.16410207 V 275.66816 c 0,11.13016 8.91024864,19.35556 21.0650945,19.35555 H 177.96572 c 12.15485,0 20.61723,-8.22539 20.61723,-19.35555 V 21.019057 c 0,-11.1301655 -8.46238,-20.16410207 -20.61723,-20.16410207 z"
       id="path1"
       sodipodi:nodetypes="ccccccccc"
       style="opacity:1;fill:#ffffff;fill-opacity:1;fill-rule:nonzero;stroke:#000000;stroke-width:2.10429;stroke-linecap:round;stroke-linejoin:miter;stroke-miterlimit:4;stroke-dasharray:none;stroke-opacity:1"
       inkscape:label="bg" />
    <path
       d="m 18.961802,8.2010058 c -11.1433013,0 -19.31202606,8.5827402 -19.31202606,19.1570162 V 269.28882 c 0,10.57427 8.16872476,18.38885 19.31202606,18.38884 H 171.04437 c 11.1433,0 18.90143,-7.81457 18.90143,-18.38884 V 27.358022 c 0,-10.574275 -7.75813,-19.1570162 -18.90143,-19.1570162 z"
       id="path3412"
       sodipodi:nodetypes="ccccccccc"
       style="fill:#ffffff;fill-opacity:1;fill-rule:nonzero;stroke:#000000;stroke-width:4.1337;stroke-linecap:round;stroke-linejoin:miter;stroke-miterlimit:4;stroke-dasharray:none;stroke-opacity:1"
       inkscape:label="black" />
    <g
       id="g5474"
       inkscape:label="3.12"
       style="display:inline"
       transform="matrix(1.1668582,0,0,1.1668582,-15.851533,-18.088448)">
      <path
         id="path5385"
         style="display:inline;fill:#000000;fill-rule:evenodd;stroke:none;stroke-width:0.0147217"
         inkscape:label="3"
         d="m 61.472661,41.435547 0.06836,65.718753 H 128.52735 V 41.435547 Z m 4.199219,3.525391 h 58.65625 V 103.83789 H 65.738286 Z" />
      <path
         id="_43331600"
         style="display:inline;fill:#ff6a00;fill-opacity:1;fill-rule:evenodd;stroke:#000000;stroke-width:0.0130335"
         class="fil6 str0"
         inkscape:label="2"
         d="m 65.730474,44.878906 0.05859,58.955074 H 124.26954 V 44.878906 Z" />
      <path
         id="_147376360"
         style="display:inline;fill:#000000;fill-rule:evenodd;stroke:#000000;stroke-width:0.0168259"
         inkscape:label="1"
         d="m 56.451177,110.83789 v 4.9707 h 77.097653 v -4.9707 z m 3.226562,9.2207 c -1.289695,0.13859 -1.951171,0.85244 -1.951171,2.33008 v 22.78125 c -9e-6,1.47764 0.661475,2.23453 1.951171,2.37305 h 5.457032 c 1.110108,0 1.861328,-0.68601 1.861328,-2.37305 v -22.78125 c 2e-6,-1.687 -0.751221,-2.33008 -1.861328,-2.33008 z m 11.591797,0 c -1.289694,0.13859 -1.921875,0.85244 -1.921875,2.33008 v 22.78125 c -6e-6,1.47764 0.632179,2.23453 1.921875,2.37305 h 5.679688 c 1.110107,0 1.859375,-0.68601 1.859375,-2.37305 v -8.19922 h 11.777344 c 0.612963,1.98478 3.36452,3.75391 5.36914,3.75391 2.138145,0 4.756197,-1.76913 5.369137,-3.75391 h 10.77735 v 8.19922 c 0,1.68704 0.78245,2.37305 1.89258,2.37305 h 5.04492 c 1.28971,-0.1386 1.92187,-0.89541 1.92187,-2.37305 v -22.78125 c 0,-1.687 -0.74926,-2.33008 -1.85937,-2.33008 h -5.07617 c -1.28969,0.13859 -1.92382,0.85244 -1.92383,2.33008 v 8.58594 h -10.74805 c 0,-2.65648 -1.904428,-4.82614 -5.32422,-4.82614 -3.286267,1e-5 -5.474607,2.08306 -5.474607,4.82614 H 78.808599 v -8.58594 c 4e-6,-1.687 -0.74927,-2.33008 -1.859375,-2.33008 z m 54.185544,0 c -1.28971,0.13859 -1.92186,0.85244 -1.92187,2.33008 v 22.78125 c 0,1.68704 0.75121,2.37305 1.86133,2.37305 h 5.30859 c 1.28969,-0.1386 1.95117,-0.89541 1.95117,-2.37305 v -22.78125 c 0,-1.687 -0.78052,-2.33008 -1.89062,-2.33008 z"
         sodipodi:nodetypes="ccccccsccssssccsccssccsccsscsssccccsccsscccsscsssc" />
    </g>
    <g
       id="g2694"
       transform="matrix(0.50445959,0,0,0.50445959,47.076576,171.98105)"
       inkscape:label="sign_4_3"
       style="display:inline">
      <path
         d="m 281.61136,-0.5172025 c -46.24606,0 -83.93438,37.6883205 -83.93438,83.9343745 0,46.246058 37.68832,83.934388 83.93438,83.934378 46.24605,0 83.93436,-37.68832 83.93437,-83.934378 0,-46.246054 -37.68832,-83.9343745 -83.93437,-83.9343745 z"
         id="path3157"
         sodipodi:nodetypes="csssc"
         style="opacity:1;fill:#ffffff;fill-opacity:1;fill-rule:evenodd;stroke:#000000;stroke-width:3.52234;stroke-miterlimit:4;stroke-dasharray:none;stroke-opacity:1"
         transform="matrix(1.1255696,0,0,1.1255696,-221.97365,1.1076409)"
         inkscape:label="bg" />
      <path
         d="m 281.61118,3.479473 c -44.04386,0 -79.9375,35.893639 -79.9375,79.9375 0,44.043857 35.89364,79.937507 79.9375,79.937497 44.04386,0 79.93749,-35.89364 79.9375,-79.937497 0,-44.043861 -35.89364,-79.9375 -79.9375,-79.9375 z"
         id="path2385"
         sodipodi:nodetypes="csssc"
         style="opacity:1;fill:#0000ff;fill-opacity:1;fill-rule:evenodd;stroke:none;stroke-width:16;stroke-miterlimit:4;stroke-dasharray:none;stroke-opacity:1"
         transform="matrix(1.1255696,0,0,1.1255696,-221.97365,1.1076409)"
         inkscape:label="blue" />
      <path
         class="fil2 str0"
         d="M 111.6743,89.9922 150.87739,65.479914 111.6743,42.558476 V 55.739901 L 85.520527,55.68004 A 29.508983,29.508983 135.06557 0 0 55.944003,85.188945 l 0,57.592905 H 76.050505 L 75.897018,88.341233 A 12.702589,12.702589 134.99947 0 1 88.635136,75.602881 l 23.039084,0.06453 z"
         id="_143627232-0-7"
         style="display:inline;fill:#ffffff;fill-opacity:1;fill-rule:evenodd;stroke:#000000;stroke-width:0.0362637"
         inkscape:label="arr"
         sodipodi:nodetypes="cccccccccc"
         inkscape:path-effect="#path-effect1-5"
         inkscape:original-d="M 111.6743,89.9922 150.87739,65.479914 111.6743,42.558476 V 55.739901 L 55.944003,55.612344 v 87.169506 h 20.106502 l -0.189502,-67.214749 35.813217,0.100313 z"
         transform="matrix(-1,0,0,1,194.17651,-0.3258611)" />
    </g>
  </g>
</svg>
