<?xml version="1.0" encoding="UTF-8" standalone="no"?>
<!-- Created with Inkscape (http://www.inkscape.org/) -->

<svg
   height="200"
   id="svg118"
   inkscape:output_extension="org.inkscape.output.svg.inkscape"
   inkscape:version="1.3 (0e150ed6c4, 2023-07-21)"
   sodipodi:docname="4.23.svg"
   sodipodi:version="0.32"
   version="1.0"
   width="200"
   xmlns:inkscape="http://www.inkscape.org/namespaces/inkscape"
   xmlns:sodipodi="http://sodipodi.sourceforge.net/DTD/sodipodi-0.dtd"
   xmlns="http://www.w3.org/2000/svg"
   xmlns:svg="http://www.w3.org/2000/svg"
   xmlns:rdf="http://www.w3.org/1999/02/22-rdf-syntax-ns#"
   xmlns:cc="http://creativecommons.org/ns#"
   xmlns:dc="http://purl.org/dc/elements/1.1/">
  <title
     id="title1">Наказові знаки » Дорожні знаки » ПДР Тест Центр</title>
  <metadata
     id="metadata118">
    <rdf:RDF>
      <cc:Work
         rdf:about="">
        <dc:format>&#10;					image/svg+xml&#10;				</dc:format>
        <dc:type
           rdf:resource="http://purl.org/dc/dcmitype/StillImage" />
        <cc:license
           rdf:resource="http://creativecommons.org/licenses/by-nc-sa/4.0/" />
        <dc:creator>
          <cc:Agent>
            <dc:title>ПДР Тест Центр | PDR Test Center</dc:title>
          </cc:Agent>
        </dc:creator>
        <dc:rights>
          <cc:Agent>
            <dc:title>ПДР Тест Центр | PDR Test Center</dc:title>
          </cc:Agent>
        </dc:rights>
        <dc:language>uk-UA</dc:language>
        <dc:date>2023-09-01</dc:date>
        <dc:title>Наказові знаки » Дорожні знаки » ПДР Тест Центр</dc:title>
        <dc:publisher>
          <cc:Agent>
            <dc:title>https://pdrtest.com/</dc:title>
          </cc:Agent>
        </dc:publisher>
        <dc:source>https://pdrtest.com/driver/rules/section/33.4</dc:source>
      </cc:Work>
      <cc:License
         rdf:about="http://creativecommons.org/licenses/by-nc-sa/4.0/">
        <cc:permits
           rdf:resource="http://creativecommons.org/ns#Reproduction" />
        <cc:permits
           rdf:resource="http://creativecommons.org/ns#Distribution" />
        <cc:requires
           rdf:resource="http://creativecommons.org/ns#Notice" />
        <cc:requires
           rdf:resource="http://creativecommons.org/ns#Attribution" />
        <cc:prohibits
           rdf:resource="http://creativecommons.org/ns#CommercialUse" />
        <cc:permits
           rdf:resource="http://creativecommons.org/ns#DerivativeWorks" />
        <cc:requires
           rdf:resource="http://creativecommons.org/ns#ShareAlike" />
      </cc:License>
    </rdf:RDF>
  </metadata>
  <defs
     id="defs118">
    <inkscape:perspective
       id="perspective118"
       inkscape:persp3d-origin="372.04724 : 360.78739 : 1"
       inkscape:vp_x="0 : 536.18109 : 1"
       inkscape:vp_y="0 : 1000 : 0"
       inkscape:vp_z="744.09448 : 536.18109 : 1"
       sodipodi:type="inkscape:persp3d" />
    <inkscape:perspective
       id="perspective109"
       inkscape:persp3d-origin="372.04724 : 360.78739 : 1"
       inkscape:vp_x="0 : 536.18109 : 1"
       inkscape:vp_y="0 : 1000 : 0"
       inkscape:vp_z="744.09448 : 536.18109 : 1"
       sodipodi:type="inkscape:persp3d" />
    <inkscape:perspective
       id="perspective100"
       inkscape:persp3d-origin="372.04724 : 360.78739 : 1"
       inkscape:vp_x="0 : 536.18109 : 1"
       inkscape:vp_y="0 : 1000 : 0"
       inkscape:vp_z="744.09448 : 536.18109 : 1"
       sodipodi:type="inkscape:persp3d" />
    <inkscape:perspective
       id="perspective103"
       inkscape:persp3d-origin="372.04724 : 360.78739 : 1"
       inkscape:vp_x="0 : 536.18109 : 1"
       inkscape:vp_y="0 : 1000 : 0"
       inkscape:vp_z="744.09448 : 536.18109 : 1"
       sodipodi:type="inkscape:persp3d" />
    <inkscape:perspective
       id="perspective106"
       inkscape:persp3d-origin="372.04724 : 360.78739 : 1"
       inkscape:vp_x="0 : 536.18109 : 1"
       inkscape:vp_y="0 : 1000 : 0"
       inkscape:vp_z="744.09448 : 536.18109 : 1"
       sodipodi:type="inkscape:persp3d" />
    <inkscape:perspective
       id="perspective105"
       inkscape:persp3d-origin="372.04724 : 360.78739 : 1"
       inkscape:vp_x="0 : 536.18109 : 1"
       inkscape:vp_y="0 : 1000 : 0"
       inkscape:vp_z="744.09448 : 536.18109 : 1"
       sodipodi:type="inkscape:persp3d" />
    <inkscape:perspective
       id="perspective107"
       inkscape:persp3d-origin="372.04724 : 360.78739 : 1"
       inkscape:vp_x="0 : 536.18109 : 1"
       inkscape:vp_y="0 : 1000 : 0"
       inkscape:vp_z="744.09448 : 536.18109 : 1"
       sodipodi:type="inkscape:persp3d" />
    <inkscape:perspective
       id="perspective3283"
       inkscape:persp3d-origin="372.04724 : 360.78739 : 1"
       inkscape:vp_x="0 : 536.18109 : 1"
       inkscape:vp_y="0 : 1000 : 0"
       inkscape:vp_z="744.09448 : 536.18109 : 1"
       sodipodi:type="inkscape:persp3d" />
    <inkscape:perspective
       id="perspective112"
       inkscape:persp3d-origin="372.04724 : 360.78739 : 1"
       inkscape:vp_x="0 : 536.18109 : 1"
       inkscape:vp_y="0 : 1000 : 0"
       inkscape:vp_z="744.09448 : 536.18109 : 1"
       sodipodi:type="inkscape:persp3d" />
    <inkscape:perspective
       id="perspective113"
       inkscape:persp3d-origin="372.04724 : 360.78739 : 1"
       inkscape:vp_x="0 : 536.18109 : 1"
       inkscape:vp_y="0 : 1000 : 0"
       inkscape:vp_z="744.09448 : 536.18109 : 1"
       sodipodi:type="inkscape:persp3d" />
    <inkscape:perspective
       id="perspective115"
       inkscape:persp3d-origin="372.04724 : 360.78739 : 1"
       inkscape:vp_x="0 : 536.18109 : 1"
       inkscape:vp_y="0 : 1000 : 0"
       inkscape:vp_z="744.09448 : 536.18109 : 1"
       sodipodi:type="inkscape:persp3d" />
    <inkscape:perspective
       id="perspective127"
       inkscape:persp3d-origin="372.04724 : 360.78739 : 1"
       inkscape:vp_x="0 : 536.18109 : 1"
       inkscape:vp_y="0 : 1000 : 0"
       inkscape:vp_z="744.09448 : 536.18109 : 1"
       sodipodi:type="inkscape:persp3d" />
    <inkscape:perspective
       id="perspective128"
       inkscape:persp3d-origin="372.04724 : 360.78739 : 1"
       inkscape:vp_x="0 : 536.18109 : 1"
       inkscape:vp_y="0 : 1000 : 0"
       inkscape:vp_z="744.09448 : 536.18109 : 1"
       sodipodi:type="inkscape:persp3d" />
    <inkscape:perspective
       id="perspective129"
       inkscape:persp3d-origin="372.04724 : 360.78739 : 1"
       inkscape:vp_x="0 : 536.18109 : 1"
       inkscape:vp_y="0 : 1000 : 0"
       inkscape:vp_z="744.09448 : 536.18109 : 1"
       sodipodi:type="inkscape:persp3d" />
    <inkscape:perspective
       id="perspective130"
       inkscape:persp3d-origin="372.04724 : 360.78739 : 1"
       inkscape:vp_x="0 : 536.18109 : 1"
       inkscape:vp_y="0 : 1000 : 0"
       inkscape:vp_z="744.09448 : 536.18109 : 1"
       sodipodi:type="inkscape:persp3d" />
    <inkscape:perspective
       id="perspective131"
       inkscape:persp3d-origin="372.04724 : 360.78739 : 1"
       inkscape:vp_x="0 : 536.18109 : 1"
       inkscape:vp_y="0 : 1000 : 0"
       inkscape:vp_z="744.09448 : 536.18109 : 1"
       sodipodi:type="inkscape:persp3d" />
    <inkscape:perspective
       id="perspective132"
       inkscape:persp3d-origin="372.04724 : 360.78739 : 1"
       inkscape:vp_x="0 : 536.18109 : 1"
       inkscape:vp_y="0 : 1000 : 0"
       inkscape:vp_z="744.09448 : 536.18109 : 1"
       sodipodi:type="inkscape:persp3d" />
    <inkscape:perspective
       id="perspective133"
       inkscape:persp3d-origin="372.04724 : 360.78739 : 1"
       inkscape:vp_x="0 : 536.18109 : 1"
       inkscape:vp_y="0 : 1000 : 0"
       inkscape:vp_z="744.09448 : 536.18109 : 1"
       sodipodi:type="inkscape:persp3d" />
    <inkscape:perspective
       id="perspective134"
       inkscape:persp3d-origin="372.04724 : 360.78739 : 1"
       inkscape:vp_x="0 : 536.18109 : 1"
       inkscape:vp_y="0 : 1000 : 0"
       inkscape:vp_z="744.09448 : 536.18109 : 1"
       sodipodi:type="inkscape:persp3d" />
    <inkscape:perspective
       id="perspective135"
       inkscape:persp3d-origin="372.04724 : 360.78739 : 1"
       inkscape:vp_x="0 : 536.18109 : 1"
       inkscape:vp_y="0 : 1000 : 0"
       inkscape:vp_z="744.09448 : 536.18109 : 1"
       sodipodi:type="inkscape:persp3d" />
    <inkscape:perspective
       id="perspective136"
       inkscape:persp3d-origin="372.04724 : 360.78739 : 1"
       inkscape:vp_x="0 : 536.18109 : 1"
       inkscape:vp_y="0 : 1000 : 0"
       inkscape:vp_z="744.09448 : 536.18109 : 1"
       sodipodi:type="inkscape:persp3d" />
    <inkscape:perspective
       id="perspective138"
       inkscape:persp3d-origin="372.04724 : 360.78739 : 1"
       inkscape:vp_x="0 : 536.18109 : 1"
       inkscape:vp_y="0 : 1000 : 0"
       inkscape:vp_z="744.09448 : 536.18109 : 1"
       sodipodi:type="inkscape:persp3d" />
    <inkscape:perspective
       id="perspective142"
       inkscape:persp3d-origin="372.04724 : 360.78739 : 1"
       inkscape:vp_x="0 : 536.18109 : 1"
       inkscape:vp_y="0 : 1000 : 0"
       inkscape:vp_z="744.09448 : 536.18109 : 1"
       sodipodi:type="inkscape:persp3d" />
    <inkscape:perspective
       id="perspective108"
       inkscape:persp3d-origin="372.04724 : 360.78739 : 1"
       inkscape:vp_x="0 : 536.18109 : 1"
       inkscape:vp_y="0 : 1000 : 0"
       inkscape:vp_z="744.09448 : 536.18109 : 1"
       sodipodi:type="inkscape:persp3d" />
    <inkscape:perspective
       id="perspective123"
       inkscape:persp3d-origin="372.04724 : 360.78739 : 1"
       inkscape:vp_x="0 : 536.18109 : 1"
       inkscape:vp_y="0 : 1000 : 0"
       inkscape:vp_z="744.09448 : 536.18109 : 1"
       sodipodi:type="inkscape:persp3d" />
    <inkscape:perspective
       id="perspective122"
       inkscape:persp3d-origin="372.04724 : 360.78739 : 1"
       inkscape:vp_x="0 : 536.18109 : 1"
       inkscape:vp_y="0 : 1000 : 0"
       inkscape:vp_z="744.09448 : 536.18109 : 1"
       sodipodi:type="inkscape:persp3d" />
    <inkscape:perspective
       id="perspective137"
       inkscape:persp3d-origin="372.04724 : 360.78739 : 1"
       inkscape:vp_x="0 : 536.18109 : 1"
       inkscape:vp_y="0 : 1000 : 0"
       inkscape:vp_z="744.09448 : 536.18109 : 1"
       sodipodi:type="inkscape:persp3d" />
    <inkscape:perspective
       id="perspective114"
       inkscape:persp3d-origin="372.04724 : 360.78739 : 1"
       inkscape:vp_x="0 : 536.18109 : 1"
       inkscape:vp_y="0 : 1000 : 0"
       inkscape:vp_z="744.09448 : 536.18109 : 1"
       sodipodi:type="inkscape:persp3d" />
    <inkscape:perspective
       id="perspective120"
       inkscape:persp3d-origin="372.04724 : 360.78739 : 1"
       inkscape:vp_x="0 : 536.18109 : 1"
       inkscape:vp_y="0 : 1000 : 0"
       inkscape:vp_z="744.09448 : 536.18109 : 1"
       sodipodi:type="inkscape:persp3d" />
    <inkscape:perspective
       id="perspective124"
       inkscape:persp3d-origin="372.04724 : 360.78739 : 1"
       inkscape:vp_x="0 : 536.18109 : 1"
       inkscape:vp_y="0 : 1000 : 0"
       inkscape:vp_z="744.09448 : 536.18109 : 1"
       sodipodi:type="inkscape:persp3d" />
    <inkscape:perspective
       id="perspective126"
       inkscape:persp3d-origin="372.04724 : 360.78739 : 1"
       inkscape:vp_x="0 : 536.18109 : 1"
       inkscape:vp_y="0 : 1000 : 0"
       inkscape:vp_z="744.09448 : 536.18109 : 1"
       sodipodi:type="inkscape:persp3d" />
    <inkscape:perspective
       id="perspective3425"
       inkscape:persp3d-origin="372.04724 : 360.78739 : 1"
       inkscape:vp_x="0 : 536.18109 : 1"
       inkscape:vp_y="0 : 1000 : 0"
       inkscape:vp_z="744.09448 : 536.18109 : 1"
       sodipodi:type="inkscape:persp3d" />
    <inkscape:perspective
       id="perspective4470"
       inkscape:persp3d-origin="372.04724 : 360.78739 : 1"
       inkscape:vp_x="0 : 536.18109 : 1"
       inkscape:vp_y="0 : 1000 : 0"
       inkscape:vp_z="744.09448 : 536.18109 : 1"
       sodipodi:type="inkscape:persp3d" />
  </defs>
  <sodipodi:namedview
     bordercolor="#666666"
     borderopacity="1.0"
     gridtolerance="10.0"
     guidetolerance="10.0"
     id="base"
     inkscape:current-layer="svg118"
     inkscape:cx="80.963724"
     inkscape:cy="120.38493"
     inkscape:guide-bbox="true"
     inkscape:pageopacity="0.0"
     inkscape:pageshadow="2"
     inkscape:window-height="1009"
     inkscape:window-width="1920"
     inkscape:zoom="2.8284272"
     objecttolerance="10.0"
     pagecolor="#ffffff"
     showgrid="false"
     showguides="false"
     inkscape:showpageshadow="2"
     inkscape:pagecheckerboard="0"
     inkscape:deskcolor="#d1d1d1"
     inkscape:window-x="1912"
     inkscape:window-y="-8"
     inkscape:window-maximized="1" />
  <g
     id="g4142"
     transform="translate(4.9999971,5.0000029)"
     inkscape:label="sign_4_23"
     style="opacity:1">
    <path
       d="m 281.61136,-0.5172025 c -46.24606,0 -83.93438,37.6883205 -83.93438,83.9343745 0,46.246058 37.68832,83.934388 83.93438,83.934378 46.24605,0 83.93436,-37.68832 83.93437,-83.934378 0,-46.246054 -37.68832,-83.9343745 -83.93437,-83.9343745 z"
       id="path3157"
       sodipodi:nodetypes="csssc"
       style="opacity:1;fill:#ffffff;fill-opacity:1;fill-rule:evenodd;stroke:#000000;stroke-width:1.77687812;stroke-miterlimit:4;stroke-dasharray:none;stroke-opacity:1"
       transform="matrix(1.1255696,0,0,1.1255696,-221.97365,1.1076382)"
       inkscape:label="bg" />
    <path
       d="m 281.61118,3.479473 c -44.04386,0 -79.9375,35.893639 -79.9375,79.9375 0,44.043857 35.89364,79.937507 79.9375,79.937497 44.04386,0 79.93749,-35.89364 79.9375,-79.937497 0,-44.043861 -35.89364,-79.9375 -79.9375,-79.9375 z"
       id="path2385"
       sodipodi:nodetypes="csssc"
       style="opacity:1;fill:#0000ff;fill-opacity:1;fill-rule:evenodd;stroke:none;stroke-width:16;stroke-miterlimit:4;stroke-dasharray:none;stroke-opacity:1"
       transform="matrix(1.1255696,0,0,1.1255696,-221.97365,1.1076382)"
       inkscape:label="blue" />
    <path
       id="path4258"
       style="fill:#ffffff;fill-opacity:1;fill-rule:evenodd;stroke-width:4.55723;stroke-dasharray:none"
       inkscape:label="car"
       d="m 94.706651,39.500002 c 13.901319,0.260911 27.802619,0.21697 41.705799,0.247026 9.45896,4.774717 16.12709,16.235248 22.95076,24.355735 2.6425,5.376171 -1.06787,12.004115 -2.73282,17.292183 -1.61806,3.256342 -3.89245,3.337169 -7.10213,3.593528 -2.73918,-11.611639 -22.40772,-18.253443 -26.64848,3.029997 -16.61217,0.151968 -33.218175,-0.08 -49.826971,-0.351249 C 73.305215,71.34452 49.42066,68.83353 46.192041,84.714435 43.636177,84.139657 41.74967,83.534629 40.757336,80.931759 L 39.807847,70.290123 c -0.607756,-3.252413 1.907376,-4.766084 3.350354,-4.967642 10.603489,-3.513687 23.851495,-1.629478 33.515157,-7.877988 5.69458,-5.059092 9.244243,-17.612709 18.033293,-17.944491 z m 2.188558,4.77465 c -7.935925,1.198674 -17.252458,18.412239 -9.093845,18.284165 14.727916,0.377807 29.463826,0.317332 44.195406,0.366686 12.61083,0.702979 4.0773,-15.935276 0.8916,-18.114341 -1.63313,-0.64053 -11.90691,-0.04755 -35.993161,-0.53651 z m -37.87298,31.739637 c 7.287361,-0.134178 13.745169,7.004106 11.456042,14.848893 -1.786135,6.121058 -8.372737,9.610078 -14.493755,7.823945 -6.121077,-1.78615 -9.652556,-8.226057 -7.866421,-14.347109 1.451238,-4.973358 5.975901,-8.235037 10.904134,-8.325729 z m 77.239701,0.07731 c 7.30173,-0.134381 13.74707,7.014695 11.4599,14.852746 -1.78613,6.121024 -8.37273,9.606205 -14.49376,7.820065 -6.12109,-1.786149 -9.65257,-8.226056 -7.86641,-14.347116 1.45124,-4.973342 5.97198,-8.235029 10.90027,-8.325695 z m -77.143201,5.079573 c -2.696613,0.05674 -5.090404,1.891713 -5.897879,4.658851 -0.993798,3.40573 0.801507,6.911179 4.207257,7.904999 3.40571,0.993795 6.953651,-0.952061 7.947468,-4.35779 1.303968,-4.468632 -2.329959,-8.288548 -6.256846,-8.206077 z m 77.243561,0.08102 c -2.69662,0.05674 -5.09043,1.887826 -5.89788,4.654965 -0.9938,3.405738 0.80149,6.911212 4.20724,7.904998 3.40571,0.993804 6.95366,-0.952061 7.94747,-4.357781 1.30464,-4.470909 -2.33385,-8.284594 -6.25683,-8.202207 z"
       sodipodi:nodetypes="ccccccccccccccccccssssssssssssssssssssss"
       transform="translate(-4.9999971,-5.0000029)" />
    <path
       d="m 92.438697,112.66727 c -2.505093,0.10168 -7.682632,0.13422 -10.189164,0.13422 -1.673238,0.34859 -3.892339,1.86528 -3.892339,4.02657 0,2.57959 2.621749,3.93884 4.294998,4.49633 0.62746,0.13942 1.291013,1.10433 0.87243,2.0804 l -4.496342,12.21393 c -1.952381,-0.62749 -4.077312,-1.14087 -6.308282,-1.14087 -9.411718,-2e-5 -16.911599,7.43331 -16.911599,16.84448 0,9.4828 7.499881,16.9116 16.911599,16.9116 v -0.0671 c 9.413449,-3e-5 16.844476,-7.57762 16.844476,-16.91157 3.2e-5,-7.61648 -5.276662,-12.3605 -7.180721,-13.82457 l 0.268439,-0.7382 c 4.926261,4.20514 11.432677,9.52028 20.938168,17.18004 h 6.97938 c 1.13684,8.24642 8.2419,14.2943 16.77738,14.2943 9.41172,-2e-5 16.84448,-7.42879 16.84448,-16.91157 -2e-5,-9.99382 -9.04631,-20.25948 -23.21989,-15.70362 -2.5891,-4.28329 -4.81716,-8.12895 -6.17407,-10.60331 l 0.53688,-1.34219 c 1.49991,0.71636 2.87308,0.61344 4.22791,-0.33555 1.5746,-1.13773 1.27507,-1.64172 1.27507,-3.3792 2e-5,-0.48804 -0.43874,-1.34219 -1.27507,-1.34219 v -0.0671 h -13.08637 c -1.78909,0.81381 -1.59335,2.14079 0,2.84233 1.67984,0.53902 3.39626,0.95488 5.10034,1.40931 l -1.00666,2.41593 H 86.880095 l 0.939524,-2.68438 c 0.139437,-1.11577 0.250901,-2.37942 -1.073746,-3.35547 -0.627479,-0.41831 -1.430491,-0.67493 -1.849081,-0.95352 -0.46242,-1.12661 -0.05624,-1.46242 1.110871,-1.46242 h 6.431034 c 1.254938,0 1.744855,-1.59238 1.744855,-2.0804 2.2e-5,0 -0.350479,-1.94617 -1.744855,-1.94617 z m -7.10212,16.57605 h 23.823863 c -2.39898,6.21997 -4.59029,12.51751 -6.84517,18.79066 -6.077726,-5.05785 -12.384437,-9.86472 -18.253769,-15.16676 0.365103,-1.23856 0.698167,-2.47009 1.275076,-3.6239 z m 27.783323,0.53687 c 1.39475,2.59955 2.88392,5.13934 4.42924,7.65047 -3.22324,2.41717 -6.63265,6.39324 -7.11362,12.54948 h -4.63055 c 2.35105,-6.76452 4.85577,-13.47425 7.31493,-20.19995 z m 27.24647,21.47504 c 2e-5,7.25072 -5.83825,13.08634 -13.01925,13.08634 -7.42267,-4e-5 -12.11093,-5.51902 -12.81791,-10.46907 h 12.81791 c 1.53378,-2e-5 2.55017,-1.15238 2.55017,-2.61727 -1.62945,-4.2087 -4.48758,-8.21891 -6.77806,-12.21393 6.35042,-2.82372 17.24714,1.85835 17.24714,12.21393 z M 72.719998,138.30308 c 1.812707,-2e-5 3.432292,0.37682 4.966097,1.07376 -0.69737,3.7586 -2.415449,6.85791 -5.167432,9.46244 -1.394375,-3e-5 -2.34883,1.02265 -2.34883,2.41595 -2.1e-5,1.46488 1.15579,2.61725 2.550165,2.61725 1.254672,-1e-5 2.201548,-0.82658 2.550152,-2.0804 3.66613,-2.54883 4.287705,-6.43175 5.704306,-10.46907 3.017051,2.43689 4.697665,6.50384 4.697665,9.93222 0,6.28611 -4.87192,13.08633 -12.952123,13.08633 -7.250727,-10e-6 -13.01925,-5.76851 -13.01925,-13.01924 0,-7.17992 5.768523,-13.01924 13.01925,-13.01924 z m 46.842432,2.55017 v 0.13421 l 5.23453,8.99267 h -10.46909 c 0.34645,-4.49519 3.34808,-7.60005 5.23456,-9.12688 z"
       id="_143373520"
       style="fill:#ffffff;fill-opacity:1;fill-rule:evenodd;stroke-width:0.950363"
       inkscape:label="bike"
       sodipodi:nodetypes="ccscccssccsccccsscccccccscccccccsssccccccccccccssccscscccssccssscccccc"
       transform="translate(-4.9999971,-5.0000029)" />
  </g>
</svg>
