<?xml version="1.0" encoding="UTF-8" standalone="no"?>
<!-- Created with Inkscape (http://www.inkscape.org/) -->

<svg
   height="200"
   id="svg2"
   inkscape:output_extension="org.inkscape.output.svg.inkscape"
   inkscape:version="1.3 (0e150ed6c4, 2023-07-21)"
   sodipodi:docname="5.19.2.svg"
   sodipodi:version="0.32"
   version="1.0"
   width="300"
   xmlns:inkscape="http://www.inkscape.org/namespaces/inkscape"
   xmlns:sodipodi="http://sodipodi.sourceforge.net/DTD/sodipodi-0.dtd"
   xmlns="http://www.w3.org/2000/svg"
   xmlns:svg="http://www.w3.org/2000/svg"
   xmlns:rdf="http://www.w3.org/1999/02/22-rdf-syntax-ns#"
   xmlns:cc="http://creativecommons.org/ns#"
   xmlns:dc="http://purl.org/dc/elements/1.1/">
  <title
     id="title1">Інформаційно-вказівні знаки » Дорожні знаки » ПДР Тест Центр</title>
  <metadata
     id="metadata7">
    <rdf:RDF>
      <cc:Work
         rdf:about="">
        <dc:format>&#10;					image/svg+xml&#10;				</dc:format>
        <dc:type
           rdf:resource="http://purl.org/dc/dcmitype/StillImage" />
        <cc:license
           rdf:resource="http://creativecommons.org/licenses/by-nc-sa/4.0/" />
        <dc:creator>
          <cc:Agent>
            <dc:title>ПДР Тест Центр | PDR Test Center</dc:title>
          </cc:Agent>
        </dc:creator>
        <dc:rights>
          <cc:Agent>
            <dc:title>ПДР Тест Центр | PDR Test Center</dc:title>
          </cc:Agent>
        </dc:rights>
        <dc:language>uk-UA</dc:language>
        <dc:date>2023-09-01</dc:date>
        <dc:title>Інформаційно-вказівні знаки » Дорожні знаки » ПДР Тест Центр</dc:title>
        <dc:publisher>
          <cc:Agent>
            <dc:title>https://pdrtest.com/</dc:title>
          </cc:Agent>
        </dc:publisher>
        <dc:source>https://pdrtest.com/driver/rules/section/33.5</dc:source>
      </cc:Work>
      <cc:License
         rdf:about="http://creativecommons.org/licenses/by-nc-sa/4.0/">
        <cc:permits
           rdf:resource="http://creativecommons.org/ns#Reproduction" />
        <cc:permits
           rdf:resource="http://creativecommons.org/ns#Distribution" />
        <cc:requires
           rdf:resource="http://creativecommons.org/ns#Notice" />
        <cc:requires
           rdf:resource="http://creativecommons.org/ns#Attribution" />
        <cc:prohibits
           rdf:resource="http://creativecommons.org/ns#CommercialUse" />
        <cc:permits
           rdf:resource="http://creativecommons.org/ns#DerivativeWorks" />
        <cc:requires
           rdf:resource="http://creativecommons.org/ns#ShareAlike" />
      </cc:License>
    </rdf:RDF>
  </metadata>
  <defs
     id="defs5">
    <inkscape:perspective
       id="perspective9"
       inkscape:persp3d-origin="372.04724 : 360.78739 : 1"
       inkscape:vp_x="0 : 536.18109 : 1"
       inkscape:vp_y="0 : 1000 : 0"
       inkscape:vp_z="744.09448 : 536.18109 : 1"
       sodipodi:type="inkscape:persp3d" />
    <inkscape:perspective
       id="perspective2411"
       inkscape:persp3d-origin="372.04724 : 360.78739 : 1"
       inkscape:vp_x="0 : 536.18109 : 1"
       inkscape:vp_y="0 : 1000 : 0"
       inkscape:vp_z="744.09448 : 536.18109 : 1"
       sodipodi:type="inkscape:persp3d" />
    <inkscape:perspective
       id="perspective109"
       inkscape:persp3d-origin="372.04724 : 360.78739 : 1"
       inkscape:vp_x="0 : 536.18109 : 1"
       inkscape:vp_y="0 : 1000 : 0"
       inkscape:vp_z="744.09448 : 536.18109 : 1"
       sodipodi:type="inkscape:persp3d" />
    <inkscape:perspective
       id="perspective118"
       inkscape:persp3d-origin="372.04724 : 360.78739 : 1"
       inkscape:vp_x="0 : 536.18109 : 1"
       inkscape:vp_y="0 : 1000 : 0"
       inkscape:vp_z="744.09448 : 536.18109 : 1"
       sodipodi:type="inkscape:persp3d" />
    <inkscape:perspective
       id="perspective3489"
       inkscape:persp3d-origin="372.04724 : 360.78739 : 1"
       inkscape:vp_x="0 : 536.18109 : 1"
       inkscape:vp_y="0 : 1000 : 0"
       inkscape:vp_z="744.09448 : 536.18109 : 1"
       sodipodi:type="inkscape:persp3d" />
    <inkscape:perspective
       id="perspective3491"
       inkscape:persp3d-origin="372.04724 : 360.78739 : 1"
       inkscape:vp_x="0 : 536.18109 : 1"
       inkscape:vp_y="0 : 1000 : 0"
       inkscape:vp_z="744.09448 : 536.18109 : 1"
       sodipodi:type="inkscape:persp3d" />
    <inkscape:perspective
       id="perspective3493"
       inkscape:persp3d-origin="372.04724 : 360.78739 : 1"
       inkscape:vp_x="0 : 536.18109 : 1"
       inkscape:vp_y="0 : 1000 : 0"
       inkscape:vp_z="744.09448 : 536.18109 : 1"
       sodipodi:type="inkscape:persp3d" />
    <inkscape:perspective
       id="perspective3495"
       inkscape:persp3d-origin="372.04724 : 360.78739 : 1"
       inkscape:vp_x="0 : 536.18109 : 1"
       inkscape:vp_y="0 : 1000 : 0"
       inkscape:vp_z="744.09448 : 536.18109 : 1"
       sodipodi:type="inkscape:persp3d" />
    <inkscape:perspective
       id="perspective3497"
       inkscape:persp3d-origin="372.04724 : 360.78739 : 1"
       inkscape:vp_x="0 : 536.18109 : 1"
       inkscape:vp_y="0 : 1000 : 0"
       inkscape:vp_z="744.09448 : 536.18109 : 1"
       sodipodi:type="inkscape:persp3d" />
    <inkscape:perspective
       id="perspective3499"
       inkscape:persp3d-origin="372.04724 : 360.78739 : 1"
       inkscape:vp_x="0 : 536.18109 : 1"
       inkscape:vp_y="0 : 1000 : 0"
       inkscape:vp_z="744.09448 : 536.18109 : 1"
       sodipodi:type="inkscape:persp3d" />
    <inkscape:perspective
       id="perspective3501"
       inkscape:persp3d-origin="372.04724 : 360.78739 : 1"
       inkscape:vp_x="0 : 536.18109 : 1"
       inkscape:vp_y="0 : 1000 : 0"
       inkscape:vp_z="744.09448 : 536.18109 : 1"
       sodipodi:type="inkscape:persp3d" />
    <inkscape:perspective
       id="perspective3306"
       inkscape:persp3d-origin="372.04724 : 360.78739 : 1"
       inkscape:vp_x="0 : 536.18109 : 1"
       inkscape:vp_y="0 : 1000 : 0"
       inkscape:vp_z="744.09448 : 536.18109 : 1"
       sodipodi:type="inkscape:persp3d" />
    <inkscape:perspective
       id="perspective2426"
       inkscape:persp3d-origin="372.04724 : 360.78739 : 1"
       inkscape:vp_x="0 : 536.18109 : 1"
       inkscape:vp_y="0 : 1000 : 0"
       inkscape:vp_z="744.09448 : 536.18109 : 1"
       sodipodi:type="inkscape:persp3d" />
    <inkscape:perspective
       id="perspective2573"
       inkscape:persp3d-origin="372.04724 : 360.78739 : 1"
       inkscape:vp_x="0 : 536.18109 : 1"
       inkscape:vp_y="0 : 1000 : 0"
       inkscape:vp_z="744.09448 : 536.18109 : 1"
       sodipodi:type="inkscape:persp3d" />
    <inkscape:perspective
       id="perspective179"
       inkscape:persp3d-origin="372.04724 : 360.78739 : 1"
       inkscape:vp_x="0 : 536.18109 : 1"
       inkscape:vp_y="0 : 1000 : 0"
       inkscape:vp_z="744.09448 : 536.18109 : 1"
       sodipodi:type="inkscape:persp3d" />
    <inkscape:perspective
       id="perspective3311"
       inkscape:persp3d-origin="372.04724 : 360.78739 : 1"
       inkscape:vp_x="0 : 536.18109 : 1"
       inkscape:vp_y="0 : 1000 : 0"
       inkscape:vp_z="744.09448 : 536.18109 : 1"
       sodipodi:type="inkscape:persp3d" />
    <inkscape:perspective
       id="perspective3309"
       inkscape:persp3d-origin="372.04724 : 360.78739 : 1"
       inkscape:vp_x="0 : 536.18109 : 1"
       inkscape:vp_y="0 : 1000 : 0"
       inkscape:vp_z="744.09448 : 536.18109 : 1"
       sodipodi:type="inkscape:persp3d" />
    <inkscape:perspective
       id="perspective3307"
       inkscape:persp3d-origin="372.04724 : 360.78739 : 1"
       inkscape:vp_x="0 : 536.18109 : 1"
       inkscape:vp_y="0 : 1000 : 0"
       inkscape:vp_z="744.09448 : 536.18109 : 1"
       sodipodi:type="inkscape:persp3d" />
    <inkscape:perspective
       id="perspective3305"
       inkscape:persp3d-origin="372.04724 : 360.78739 : 1"
       inkscape:vp_x="0 : 536.18109 : 1"
       inkscape:vp_y="0 : 1000 : 0"
       inkscape:vp_z="744.09448 : 536.18109 : 1"
       sodipodi:type="inkscape:persp3d" />
    <inkscape:perspective
       id="perspective168"
       inkscape:persp3d-origin="372.04724 : 360.78739 : 1"
       inkscape:vp_x="0 : 536.18109 : 1"
       inkscape:vp_y="0 : 1000 : 0"
       inkscape:vp_z="744.09448 : 536.18109 : 1"
       sodipodi:type="inkscape:persp3d" />
    <inkscape:path-effect
       effect="fillet_chamfer"
       id="path-effect1-7"
       is_visible="true"
       lpeversion="1"
       nodesatellites_param="F,0,0,1,0,0,0,1 @ F,0,0,1,0,0,0,1 @ F,0,0,1,0,0,0,1 @ F,0,0,1,0,0,0,1 @ F,0,0,1,0,0,0,1 @ F,0,0,1,0,0,0,1 @ F,0,0,1,0,0,0,1 @ F,0,0,1,0,0,0,1 | F,0,0,1,0,0,0,1 @ F,0,0,1,0,0,0,1 @ F,0,0,1,0,0,0,1 @ F,0,0,1,0,0,0,1 | F,0,0,1,0,0,0,1 @ F,0,0,1,0,0,0,1 @ F,0,0,1,0,0,0,1 @ F,0,0,1,0,0,0,1 | F,0,0,1,0,0,0,1 @ F,0,0,1,0,0,0,1 @ F,0,0,1,0,0,0,1 @ F,0,0,1,0,0,0,1 | F,0,0,1,0,0,0,1 @ F,0,0,1,0,0,0,1 @ F,0,0,1,0,0,0,1 @ F,0,0,1,0,0,0,1 | F,0,0,1,0,0,0,1 @ F,0,0,1,0,0,0,1 @ F,0,0,1,0,0,0,1 @ F,0,0,1,0,0,0,1 @ F,0,0,1,0,0,0,1 @ F,0,0,1,0,0,0,1 @ F,0,0,1,0,1.2368237,0,1 @ F,0,0,1,0,1.3025606,0,1 @ F,0,0,1,0,0,0,1 @ F,0,0,1,0,0,0,1 @ F,0,0,1,0,0,0,1 @ F,0,0,1,0,0,0,1 @ F,0,0,1,0,0,0,1 @ F,0,0,1,0,0,0,1 @ F,0,0,1,0,0,0,1 @ F,0,0,1,0,0,0,1 | F,0,0,1,0,0,0,1 @ F,0,0,1,0,0,0,1 @ F,0,0,1,0,0,0,1 @ F,0,0,1,0,0,0,1 @ F,0,0,1,0,0,0,1 @ F,0,0,1,0,0,0,1 @ F,0,0,1,0,0,0,1 @ F,0,0,1,0,0,0,1 | F,0,0,1,0,0,0,1 @ F,0,0,1,0,0,0,1 @ F,0,0,1,0,0,0,1 @ F,0,0,1,0,0,0,1 @ F,0,0,1,0,0,0,1 @ F,0,0,1,0,0,0,1 @ F,0,0,1,0,0,0,1 @ F,0,0,1,0,0,0,1"
       radius="0"
       unit="px"
       method="auto"
       mode="F"
       chamfer_steps="1"
       flexible="false"
       use_knot_distance="true"
       apply_no_radius="true"
       apply_with_radius="true"
       only_selected="false"
       hide_knots="false" />
  </defs>
  <sodipodi:namedview
     bordercolor="#666666"
     borderopacity="1.0"
     gridtolerance="10.0"
     guidetolerance="10.0"
     id="base"
     inkscape:current-layer="svg2"
     inkscape:cx="103"
     inkscape:cy="137.75"
     inkscape:guide-bbox="true"
     inkscape:pageopacity="0.0"
     inkscape:pageshadow="2"
     inkscape:window-height="1009"
     inkscape:window-width="1920"
     inkscape:zoom="2"
     objecttolerance="10.0"
     pagecolor="#ffffff"
     showgrid="false"
     showguides="false"
     inkscape:showpageshadow="2"
     inkscape:pagecheckerboard="0"
     inkscape:deskcolor="#d1d1d1"
     inkscape:window-x="-8"
     inkscape:window-y="-8"
     inkscape:window-maximized="1" />
  <g
     id="g2433"
     transform="translate(7.9999989,4.9998881)"
     inkscape:label="sign_5_17_1">
    <path
       d="m 20.39267,0.49749381 h 243.21466 c 11.02199,0 19.89529,8.87329849 19.89529,19.89528819 V 169.60744 c 0,11.02199 -8.8733,19.89529 -19.89529,19.89529 H 20.39267 c -11.0219894,0 -19.8952878,-8.8733 -19.8952878,-19.89529 V 20.392782 c 0,-11.0219897 8.8732984,-19.89528819 19.8952878,-19.89528819 z"
       id="rect2410"
       sodipodi:nodetypes="ccccccccc"
       style="fill:#ffffff;fill-opacity:1;fill-rule:nonzero;stroke:#000000;stroke-width:2;stroke-linecap:round;stroke-linejoin:miter;stroke-miterlimit:4;stroke-dasharray:none;stroke-opacity:1"
       inkscape:label="bg" />
    <path
       d="m 25.09375,6.46875 c -10.325864,0 -18.625,8.299136 -18.625,18.625 v 139.8125 c 0,10.32586 8.299136,18.625 18.625,18.625 H 91.75 V 6.46875 Z m 73.5625,0 v 177.0625 h 85.9375 v -18.625 H 191.5 v 18.625 h 67.40625 c 10.32587,0 18.62501,-8.29915 18.625,-18.625 V 25.09375 c 0,-10.325865 -8.29913,-18.625 -18.625,-18.625 h -67.0625 v 18.9375 h -6.875 V 6.46875 Z m 86.125,31.5 h 6.875 v 19.1875 h -6.875 z m -0.1875,31.75 H 191.5 v 19.1875 h -6.90625 z m 0.375,31.6875 h 6.875 v 19.1875 h -6.875 z m -0.1875,31.75 h 6.875 v 19.1875 h -6.875 z"
       id="rect3347"
       style="fill:#0000ff;fill-opacity:1;fill-rule:nonzero;stroke:none;stroke-width:1.8;stroke-linecap:round;stroke-linejoin:miter;stroke-miterlimit:4;stroke-opacity:1"
       inkscape:label="blue"
       sodipodi:nodetypes="ssssccsccccccscssccccccccccccccccccccccccc" />
    <path
       id="path1"
       style="display:inline;fill:#ffffff;fill-rule:evenodd;stroke-width:0.685954"
       class="fil0"
       inkscape:label="arr_right"
       d="m 244.4974,82.75749 -16.99024,29.62109 h 9.72657 l -0.0371,126.25391 h 14.56445 V 112.37858 h 9.72656 z"
       transform="translate(-8,-55)" />
    <path
       id="_44337248-3"
       style="display:inline;fill:#ffffff;fill-rule:evenodd;stroke-width:0.685954"
       class="fil0"
       inkscape:label="arr_center"
       d="m 150,82.75749 -16.99024,29.62109 h 9.72657 l -0.0371,126.25391 h 14.56445 V 112.37858 h 9.72656 z"
       transform="translate(-8,-55)" />
    <path
       id="path2"
       style="display:inline;fill:#ffffff;fill-rule:evenodd;stroke-width:0.685954"
       class="fil0"
       inkscape:label="arr_left"
       d="M 59.0224,216.88249 42.03216,187.2614 h 9.72657 L 51.72163,61.00749 H 66.28608 V 187.2614 h 9.72656 z"
       transform="translate(-8,-55)" />
    <g
       id="g3447"
       transform="matrix(0.26356207,0,0,0.26356207,116.96173,95.301499)"
       inkscape:label="sign_3_3"
       style="display:inline;stroke-width:1;stroke-dasharray:none">
      <path
         d="m 94.999536,0.52549349 c -52.053159,0 -94.47398669,42.42082751 -94.47398669,94.47398051 0,52.053156 42.42082769,94.473996 94.47398669,94.473986 52.053144,0 94.473964,-42.42083 94.473974,-94.473986 0,-52.053153 -42.42083,-94.47398051 -94.473974,-94.47398051 z"
         id="path3157"
         sodipodi:nodetypes="csssc"
         style="fill:#ffffff;fill-opacity:1;fill-rule:evenodd;stroke:#000000;stroke-width:3.79417;stroke-miterlimit:4;stroke-dasharray:none;stroke-opacity:1"
         transform="translate(1.6e-6)"
         inkscape:label="bg" />
      <path
         d="m 94.999333,5.0240299 c -49.57443,0 -89.9752197,40.4007891 -89.9752197,89.9752201 0,49.57443 40.4007897,89.97523 89.9752197,89.97522 49.574427,0 89.975207,-40.40079 89.975217,-89.97522 0,-49.574431 -40.40079,-89.9752201 -89.975217,-89.9752201 z m 0,18.0091141 c 39.830377,0 71.966107,32.135732 71.966107,71.966106 -1e-5,39.83037 -32.13573,71.9661 -71.966107,71.9661 -39.830362,1e-5 -71.966106,-32.13573 -71.966106,-71.9661 0,-39.830374 32.135732,-71.966106 71.966106,-71.966106 z"
         id="path2385"
         style="fill:#ff0000;fill-opacity:1;fill-rule:evenodd;stroke:none;stroke-width:1;stroke-miterlimit:4;stroke-dasharray:none;stroke-opacity:1"
         transform="translate(1.6e-6)"
         inkscape:label="red" />
      <path
         class="fil2 str0"
         d="m 87.539642,58.388301 h 58.874678 c 2.54087,0 4.44653,2.065282 4.44653,4.606108 v 32.293285 c 0,2.540834 -1.90566,4.446484 -4.44653,4.446484 H 87.539642 c -2.540886,0 -4.446534,-1.90565 -4.446534,-4.446484 V 62.994409 c 0,-2.540826 1.905648,-4.606108 4.446534,-4.606108 z m 37.591328,57.863559 c -2.38224,0 -4.44654,-2.06416 -4.44654,-4.44645 0,-2.54199 2.0643,-4.44762 4.44654,-4.44762 2.54182,0 4.60614,1.90563 4.60614,4.44762 0,2.38229 -2.06432,4.44645 -4.60614,4.44645 z m 0,6.19472 c -5.55834,0 -10.64136,-4.76466 -10.64136,-10.64117 0,-5.87654 5.08302,-10.48264 10.64136,-10.48264 5.71793,0 10.64231,4.6061 10.64231,10.48264 0,5.87651 -4.92438,10.64117 -10.64231,10.64117 z m -63.21292,-6.19472 c -2.382242,0 -4.446544,-2.06416 -4.446544,-4.44645 0,-2.54199 2.064302,-4.44762 4.446544,-4.44762 2.541822,0 4.447479,1.90563 4.447479,4.44762 0,2.38229 -1.905657,4.44645 -4.447479,4.44645 z m 0,6.19472 c -5.716979,0 -10.641042,-4.76466 -10.641042,-10.64117 0,-5.87654 4.924063,-10.48264 10.641042,-10.48264 5.877522,0 10.482711,4.6061 10.482711,10.48264 0,5.87651 -4.605189,10.64117 -10.482711,10.64117 z m -11.911487,-9.21224 c 0,-0.4767 -0.158636,-1.11189 -0.158636,-1.42893 0,-6.51177 5.558323,-12.071232 12.070123,-12.071232 6.671389,0 12.071067,5.559462 12.071067,12.071232 0,0.47667 0,0.95223 -0.158323,1.42893 h 36.148096 c 0.45713,-3.07332 0.13405,-5.47343 2.48674,-8.78604 0.39533,-0.55664 0.9943,-1.5977 0.63901,-2.12445 -0.0968,-0.14358 -0.21491,-0.28215 -0.34465,-0.40806 -0.5055,-0.49056 -1.71237,-0.59302 -2.43175,-0.59302 l -33.321354,0 V 70.730598 c 0,-1.2704 -1.270435,-2.859001 -3.017769,-2.859001 H 52.865363 c -1.746993,0 -2.540869,1.428932 -3.176082,2.859001 l -5.876578,19.950989 v 19.535223 c 0,1.5886 1.429081,3.01753 3.176101,3.01753 z m 89.886117,-11.91157 h 9.53909 c 0.79387,0 1.42908,0.47667 1.42908,1.42892 v 11.25584 c 0,0.95338 -0.63521,1.5886 -1.42908,1.5886 h -9.53909 c -0.95346,0 -1.58868,-0.63522 -1.58868,-1.5886 v -11.25584 c 0,-0.95225 0.63522,-1.42892 1.58868,-1.42892 z M 72.130726,72.31919 h -16.2479 c -0.635221,0 -1.270434,0.793737 -1.588382,1.428958 l -3.017436,13.914786 c -0.158638,0.636324 0.794811,1.430061 1.588355,1.430061 h 19.265363 c 0.793553,0 1.58742,-0.635213 1.58742,-1.430061 V 73.748148 c 0,-0.793745 -1.110852,-1.428958 -1.58742,-1.428958 z"
         id="_146527632"
         style="fill:#000000;fill-rule:evenodd;stroke:#000000;stroke-width:1;stroke-dasharray:none"
         inkscape:label="sign"
         sodipodi:nodetypes="ssssssssssssssssssssssssssssscsssccsscsssccsscsssssssssssccsssss"
         inkscape:path-effect="#path-effect1-7"
         inkscape:original-d="m 87.539642,58.388301 h 58.874678 c 2.54087,0 4.44653,2.065282 4.44653,4.606108 v 32.293285 c 0,2.540834 -1.90566,4.446484 -4.44653,4.446484 H 87.539642 c -2.540886,0 -4.446534,-1.90565 -4.446534,-4.446484 V 62.994409 c 0,-2.540826 1.905648,-4.606108 4.446534,-4.606108 z m 37.591328,57.863559 c -2.38224,0 -4.44654,-2.06416 -4.44654,-4.44645 0,-2.54199 2.0643,-4.44762 4.44654,-4.44762 2.54182,0 4.60614,1.90563 4.60614,4.44762 0,2.38229 -2.06432,4.44645 -4.60614,4.44645 z m 0,6.19472 c -5.55834,0 -10.64136,-4.76466 -10.64136,-10.64117 0,-5.87654 5.08302,-10.48264 10.64136,-10.48264 5.71793,0 10.64231,4.6061 10.64231,10.48264 0,5.87651 -4.92438,10.64117 -10.64231,10.64117 z m -63.21292,-6.19472 c -2.382242,0 -4.446544,-2.06416 -4.446544,-4.44645 0,-2.54199 2.064302,-4.44762 4.446544,-4.44762 2.541822,0 4.447479,1.90563 4.447479,4.44762 0,2.38229 -1.905657,4.44645 -4.447479,4.44645 z m 0,6.19472 c -5.716979,0 -10.641042,-4.76466 -10.641042,-10.64117 0,-5.87654 4.924063,-10.48264 10.641042,-10.48264 5.877522,0 10.482711,4.6061 10.482711,10.48264 0,5.87651 -4.605189,10.64117 -10.482711,10.64117 z m -11.911487,-9.21224 c 0,-0.4767 -0.158636,-1.11189 -0.158636,-1.42893 0,-6.51177 5.558323,-12.071232 12.070123,-12.071232 6.671389,0 12.071067,5.559462 12.071067,12.071232 0,0.47667 0,0.95223 -0.158323,1.42893 h 36.148096 c 0.50097,-3.36809 0.0649,-5.92764 3.24059,-9.76579 0.60704,-0.73367 -0.79385,-2.14578 -1.58868,-2.14578 H 77.006886 V 70.730598 c 0,-1.2704 -1.270435,-2.859001 -3.017769,-2.859001 H 52.865363 c -1.746993,0 -2.540869,1.428932 -3.176082,2.859001 l -5.876578,19.950989 v 19.535223 c 0,1.5886 1.429081,3.01753 3.176101,3.01753 z m 89.886117,-11.91157 h 9.53909 c 0.79387,0 1.42908,0.47667 1.42908,1.42892 v 11.25584 c 0,0.95338 -0.63521,1.5886 -1.42908,1.5886 h -9.53909 c -0.95346,0 -1.58868,-0.63522 -1.58868,-1.5886 v -11.25584 c 0,-0.95225 0.63522,-1.42892 1.58868,-1.42892 z M 72.130726,72.31919 h -16.2479 c -0.635221,0 -1.270434,0.793737 -1.588382,1.428958 l -3.017436,13.914786 c -0.158638,0.636324 0.794811,1.430061 1.588355,1.430061 h 19.265363 c 0.793553,0 1.58742,-0.635213 1.58742,-1.430061 V 73.748148 c 0,-0.793745 -1.110852,-1.428958 -1.58742,-1.428958 z" />
    </g>
  </g>
</svg>
