<?xml version="1.0" encoding="UTF-8" standalone="no"?>
<!-- Created with Inkscape (http://www.inkscape.org/) -->

<svg
   height="200"
   id="svg2"
   inkscape:output_extension="org.inkscape.output.svg.inkscape"
   inkscape:version="1.3 (0e150ed6c4, 2023-07-21)"
   sodipodi:docname="5.25.svg"
   sodipodi:version="0.32"
   version="1.0"
   width="200"
   xmlns:inkscape="http://www.inkscape.org/namespaces/inkscape"
   xmlns:sodipodi="http://sodipodi.sourceforge.net/DTD/sodipodi-0.dtd"
   xmlns="http://www.w3.org/2000/svg"
   xmlns:svg="http://www.w3.org/2000/svg"
   xmlns:rdf="http://www.w3.org/1999/02/22-rdf-syntax-ns#"
   xmlns:cc="http://creativecommons.org/ns#"
   xmlns:dc="http://purl.org/dc/elements/1.1/">
  <title
     id="title1">Інформаційно-вказівні знаки » Дорожні знаки » ПДР Тест Центр</title>
  <metadata
     id="metadata7">
    <rdf:RDF>
      <cc:Work
         rdf:about="">
        <dc:title>Інформаційно-вказівні знаки » Дорожні знаки » ПДР Тест Центр</dc:title>
      </cc:Work>
    </rdf:RDF>
  </metadata>
  <defs
     id="defs5">
    <inkscape:path-effect
       effect="fillet_chamfer"
       id="path-effect1"
       is_visible="true"
       lpeversion="1"
       nodesatellites_param="F,0,0,1,0,0,0,1 @ F,0,0,1,0,0,0,1 @ F,0,0,1,0,0,0,1 @ F,0,0,1,0,0,0,1 | F,0,0,1,0,0,0,1 @ F,0,0,1,0,0,0,1 @ F,0,0,1,0,0,0,1 @ F,0,0,1,0,0,0,1 @ F,0,0,1,0,0,0,1 @ F,0,0,1,0,0,0,1 @ F,0,0,1,0,0,0,1 @ F,0,0,1,0,0,0,1 @ F,0,0,1,0,0,0,1 @ F,0,0,1,0,0,0,1 @ F,0,0,1,0,0,0,1 @ F,0,0,1,0,0,0,1 @ F,0,0,1,0,0,0,1 @ F,0,0,1,0,0,0,1 @ F,0,0,1,0,0,0,1 @ F,0,0,1,0,0,0,1 @ F,0,0,1,0,0,0,1 @ F,0,0,1,0,0,0,1 @ F,0,0,1,0,0,0,1 @ F,0,0,1,0,0,0,1 @ F,0,0,1,0,0,0,1 @ F,0,0,1,0,0,0,1 @ F,0,0,1,0,0,0,1 @ F,0,0,1,0,0,0,1 @ F,0,0,1,0,0,0,1 @ F,0,0,1,0,0,0,1 @ F,0,0,1,0,0,0,1 @ F,0,0,1,0,0,0,1 @ F,0,0,1,0,0,0,1 @ F,0,0,1,0,0,0,1 @ F,0,0,1,0,0,0,1 @ F,0,0,1,0,0,0,1 @ F,0,0,1,0,0,0,1 @ F,0,0,1,0,0,0,1 | F,0,0,1,0,0,0,1 @ F,0,0,1,0,0,0,1 @ F,0,0,1,0,0,0,1 @ F,0,0,1,0,7.0080793,0,1 @ F,0,0,1,0,0,0,1 @ F,0,0,1,0,0,0,1 @ F,0,0,1,0,5.1299217,0,1 @ F,0,0,1,0,0,0,1 @ F,0,0,1,0,0,0,1 | F,0,0,1,0,0,0,1 @ F,0,0,1,0,0,0,1 @ F,0,0,1,0,0,0,1 @ F,0,0,1,0,0,0,1 | F,0,0,1,0,0,0,1 @ F,0,0,1,0,0,0,1 @ F,0,0,1,0,0,0,1 @ F,0,0,1,0,0,0,1 | F,0,0,1,0,0,0,1 @ F,0,0,1,0,0,0,1 @ F,0,0,1,0,0,0,1 @ F,0,0,1,0,0,0,1 | F,0,0,1,0,0,0,1 @ F,0,0,1,0,0,0,1 @ F,0,0,1,0,0,0,1 @ F,0,0,1,0,0,0,1 | F,0,0,1,0,0,0,1 @ F,0,0,1,0,0,0,1 @ F,0,0,1,0,0,0,1 @ F,0,0,1,0,0,0,1 | F,0,0,1,0,0,0,1 @ F,0,0,1,0,0,0,1 @ F,0,0,1,0,0,0,1 @ F,0,0,1,0,0,0,1 | F,0,0,1,0,0,0,1 @ F,0,0,1,0,0,0,1 @ F,0,0,1,0,0,0,1 @ F,0,0,1,0,0,0,1"
       radius="0"
       unit="px"
       method="auto"
       mode="F"
       chamfer_steps="1"
       flexible="false"
       use_knot_distance="true"
       apply_no_radius="true"
       apply_with_radius="true"
       only_selected="false"
       hide_knots="false" />
    <inkscape:perspective
       id="perspective9"
       inkscape:persp3d-origin="372.04724 : 360.78739 : 1"
       inkscape:vp_x="0 : 536.18109 : 1"
       inkscape:vp_y="0 : 1000 : 0"
       inkscape:vp_z="744.09448 : 536.18109 : 1"
       sodipodi:type="inkscape:persp3d" />
    <inkscape:perspective
       id="perspective2411"
       inkscape:persp3d-origin="372.04724 : 360.78739 : 1"
       inkscape:vp_x="0 : 536.18109 : 1"
       inkscape:vp_y="0 : 1000 : 0"
       inkscape:vp_z="744.09448 : 536.18109 : 1"
       sodipodi:type="inkscape:persp3d" />
    <inkscape:perspective
       id="perspective109"
       inkscape:persp3d-origin="372.04724 : 360.78739 : 1"
       inkscape:vp_x="0 : 536.18109 : 1"
       inkscape:vp_y="0 : 1000 : 0"
       inkscape:vp_z="744.09448 : 536.18109 : 1"
       sodipodi:type="inkscape:persp3d" />
    <inkscape:perspective
       id="perspective118"
       inkscape:persp3d-origin="372.04724 : 360.78739 : 1"
       inkscape:vp_x="0 : 536.18109 : 1"
       inkscape:vp_y="0 : 1000 : 0"
       inkscape:vp_z="744.09448 : 536.18109 : 1"
       sodipodi:type="inkscape:persp3d" />
    <inkscape:perspective
       id="perspective3489"
       inkscape:persp3d-origin="372.04724 : 360.78739 : 1"
       inkscape:vp_x="0 : 536.18109 : 1"
       inkscape:vp_y="0 : 1000 : 0"
       inkscape:vp_z="744.09448 : 536.18109 : 1"
       sodipodi:type="inkscape:persp3d" />
    <inkscape:perspective
       id="perspective3491"
       inkscape:persp3d-origin="372.04724 : 360.78739 : 1"
       inkscape:vp_x="0 : 536.18109 : 1"
       inkscape:vp_y="0 : 1000 : 0"
       inkscape:vp_z="744.09448 : 536.18109 : 1"
       sodipodi:type="inkscape:persp3d" />
    <inkscape:perspective
       id="perspective3493"
       inkscape:persp3d-origin="372.04724 : 360.78739 : 1"
       inkscape:vp_x="0 : 536.18109 : 1"
       inkscape:vp_y="0 : 1000 : 0"
       inkscape:vp_z="744.09448 : 536.18109 : 1"
       sodipodi:type="inkscape:persp3d" />
    <inkscape:perspective
       id="perspective3495"
       inkscape:persp3d-origin="372.04724 : 360.78739 : 1"
       inkscape:vp_x="0 : 536.18109 : 1"
       inkscape:vp_y="0 : 1000 : 0"
       inkscape:vp_z="744.09448 : 536.18109 : 1"
       sodipodi:type="inkscape:persp3d" />
    <inkscape:perspective
       id="perspective3497"
       inkscape:persp3d-origin="372.04724 : 360.78739 : 1"
       inkscape:vp_x="0 : 536.18109 : 1"
       inkscape:vp_y="0 : 1000 : 0"
       inkscape:vp_z="744.09448 : 536.18109 : 1"
       sodipodi:type="inkscape:persp3d" />
    <inkscape:perspective
       id="perspective3499"
       inkscape:persp3d-origin="372.04724 : 360.78739 : 1"
       inkscape:vp_x="0 : 536.18109 : 1"
       inkscape:vp_y="0 : 1000 : 0"
       inkscape:vp_z="744.09448 : 536.18109 : 1"
       sodipodi:type="inkscape:persp3d" />
    <inkscape:perspective
       id="perspective3501"
       inkscape:persp3d-origin="372.04724 : 360.78739 : 1"
       inkscape:vp_x="0 : 536.18109 : 1"
       inkscape:vp_y="0 : 1000 : 0"
       inkscape:vp_z="744.09448 : 536.18109 : 1"
       sodipodi:type="inkscape:persp3d" />
    <inkscape:perspective
       id="perspective3306"
       inkscape:persp3d-origin="372.04724 : 360.78739 : 1"
       inkscape:vp_x="0 : 536.18109 : 1"
       inkscape:vp_y="0 : 1000 : 0"
       inkscape:vp_z="744.09448 : 536.18109 : 1"
       sodipodi:type="inkscape:persp3d" />
    <inkscape:perspective
       id="perspective2426"
       inkscape:persp3d-origin="372.04724 : 360.78739 : 1"
       inkscape:vp_x="0 : 536.18109 : 1"
       inkscape:vp_y="0 : 1000 : 0"
       inkscape:vp_z="744.09448 : 536.18109 : 1"
       sodipodi:type="inkscape:persp3d" />
    <inkscape:perspective
       id="perspective2573"
       inkscape:persp3d-origin="372.04724 : 360.78739 : 1"
       inkscape:vp_x="0 : 536.18109 : 1"
       inkscape:vp_y="0 : 1000 : 0"
       inkscape:vp_z="744.09448 : 536.18109 : 1"
       sodipodi:type="inkscape:persp3d" />
    <inkscape:perspective
       id="perspective179"
       inkscape:persp3d-origin="372.04724 : 360.78739 : 1"
       inkscape:vp_x="0 : 536.18109 : 1"
       inkscape:vp_y="0 : 1000 : 0"
       inkscape:vp_z="744.09448 : 536.18109 : 1"
       sodipodi:type="inkscape:persp3d" />
    <inkscape:perspective
       id="perspective3311"
       inkscape:persp3d-origin="372.04724 : 360.78739 : 1"
       inkscape:vp_x="0 : 536.18109 : 1"
       inkscape:vp_y="0 : 1000 : 0"
       inkscape:vp_z="744.09448 : 536.18109 : 1"
       sodipodi:type="inkscape:persp3d" />
    <inkscape:perspective
       id="perspective3309"
       inkscape:persp3d-origin="372.04724 : 360.78739 : 1"
       inkscape:vp_x="0 : 536.18109 : 1"
       inkscape:vp_y="0 : 1000 : 0"
       inkscape:vp_z="744.09448 : 536.18109 : 1"
       sodipodi:type="inkscape:persp3d" />
    <inkscape:perspective
       id="perspective3307"
       inkscape:persp3d-origin="372.04724 : 360.78739 : 1"
       inkscape:vp_x="0 : 536.18109 : 1"
       inkscape:vp_y="0 : 1000 : 0"
       inkscape:vp_z="744.09448 : 536.18109 : 1"
       sodipodi:type="inkscape:persp3d" />
    <inkscape:perspective
       id="perspective3305"
       inkscape:persp3d-origin="372.04724 : 360.78739 : 1"
       inkscape:vp_x="0 : 536.18109 : 1"
       inkscape:vp_y="0 : 1000 : 0"
       inkscape:vp_z="744.09448 : 536.18109 : 1"
       sodipodi:type="inkscape:persp3d" />
    <inkscape:perspective
       id="perspective167"
       inkscape:persp3d-origin="372.04724 : 360.78739 : 1"
       inkscape:vp_x="0 : 536.18109 : 1"
       inkscape:vp_y="0 : 1000 : 0"
       inkscape:vp_z="744.09448 : 536.18109 : 1"
       sodipodi:type="inkscape:persp3d" />
    <inkscape:path-effect
       effect="fillet_chamfer"
       id="path-effect1-4"
       is_visible="true"
       lpeversion="1"
       nodesatellites_param="F,0,0,1,0,0,0,1 @ F,0,0,1,0,0,0,1 @ F,0,0,1,0,0,0,1 @ F,0,0,1,0,0,0,1 @ F,0,0,1,0,0,0,1 @ F,0,0,1,0,0,0,1 @ F,0,0,1,0,0,0,1 @ F,0,0,1,0,0,0,1 @ F,0,0,1,0,0,0,1 @ F,0,0,1,0,0,0,1 @ F,0,0,1,0,0,0,1 @ F,0,0,1,0,0,0,1 @ F,0,0,1,0,9.3331706,0,1 @ F,0,0,1,0,0,0,1 @ F,0,0,1,0,0,0,1 @ F,0,0,1,0,0,0,1 @ F,0,0,1,0,0,0,1 @ F,0,0,1,0,0,0,1 @ F,0,0,1,0,8.6484706,0,1 @ F,0,0,1,0,0,0,1 @ F,0,0,1,0,0,0,1 @ F,0,0,1,0,0,0,1 @ F,0,0,1,0,0,0,1 @ F,0,0,1,0,0,0,1"
       radius="0"
       unit="px"
       method="auto"
       mode="F"
       chamfer_steps="1"
       flexible="false"
       use_knot_distance="true"
       apply_no_radius="true"
       apply_with_radius="true"
       only_selected="false"
       hide_knots="false" />
  </defs>
  <sodipodi:namedview
     bordercolor="#666666"
     borderopacity="1.0"
     gridtolerance="10.0"
     guidetolerance="10.0"
     id="base"
     inkscape:current-layer="svg2"
     inkscape:cx="133.28962"
     inkscape:cy="123.56691"
     inkscape:guide-bbox="true"
     inkscape:pageopacity="0.0"
     inkscape:pageshadow="2"
     inkscape:window-height="1009"
     inkscape:window-width="1920"
     inkscape:zoom="2.8284272"
     objecttolerance="10.0"
     pagecolor="#ffffff"
     showgrid="false"
     showguides="true"
     inkscape:showpageshadow="2"
     inkscape:pagecheckerboard="0"
     inkscape:deskcolor="#d1d1d1"
     inkscape:window-x="-8"
     inkscape:window-y="-8"
     inkscape:window-maximized="1" />
  <g
     id="g2433"
     transform="matrix(0.92452898,0,0,1.0004308,4.962183,5.0002202)"
     inkscape:label="sign_5_25">
    <path
       d="M 20.400504,0.49747305 H 185.19135 c 11.02635,0 19.90315,8.86942825 19.90315,19.88660995 V 169.53366 c 0,11.01718 -8.8768,19.88661 -19.90315,19.88661 H 20.400504 c -11.0263408,0 -19.90314256,-8.86943 -19.90314256,-19.88661 V 20.384083 c 0,-11.0171817 8.87680176,-19.88660995 19.90314256,-19.88660995 z"
       id="rect2410"
       sodipodi:nodetypes="ccccccccc"
       style="fill:#ffffff;fill-opacity:1;fill-rule:nonzero;stroke:#000000;stroke-width:1.99996;stroke-linecap:round;stroke-linejoin:miter;stroke-miterlimit:4;stroke-dasharray:none;stroke-opacity:1"
       inkscape:label="bg" />
    <path
       id="rect3347"
       style="fill:#0000ff;fill-opacity:1;fill-rule:nonzero;stroke:none;stroke-width:1.80295;stroke-linecap:round;stroke-linejoin:miter;stroke-miterlimit:4;stroke-opacity:1"
       inkscape:label="blue"
       d="M 25.162685,6.468862 C 14.798506,6.4676525 6.4684666,14.764461 6.4684666,25.085789 V 164.83769 c 0,10.32132 8.3300394,18.61693 18.6942184,18.61693 h 22.189582 c -0.02949,-41.87746 0.03137,-83.755598 0.03137,-125.633025 H 37.754232 L 54.284187,27.865834 71.378732,57.821595 H 61.812056 V 183.45462 h 37.170835 v -15.36834 h 6.053659 v 15.36834 h 37.82757 l 0.0313,-125.633025 h -9.6294 l 16.56132,-30.115848 17.06318,29.955761 h -9.53531 c 0.003,41.927007 -0.009,83.854392 0.008,125.781392 5.96311,-11.55449 5.96953,-11.56986 0,0.0117 h 21.9269 c 10.36418,0 18.69423,-8.29562 18.69422,-18.61693 V 25.085789 c 0,-10.321329 -8.33004,-18.616927 -18.69422,-18.616927 l -73.94959,0.00781 V 21.681016 H 99.28871 V 6.4766711 Z M 157.36311,183.45462 c 0,-0.004 1e-5,-0.008 0,-0.0117 -0.004,0.008 -0.002,0.004 -0.006,0.0117 z M 99.110316,33.941325 h 6.053664 v 15.305863 h -6.053664 z m 0.09214,28.339274 h 6.053664 v 15.305863 h -6.053664 z m 0.250929,29.807387 h 6.053665 v 15.305864 h -6.053665 z m -0.156831,25.332764 h 6.053656 v 15.30586 h -6.053656 z m -0.15683,25.33276 h 6.053656 v 15.30587 h -6.053656 z"
       sodipodi:nodetypes="cssscccccccccccccccccccscsccccccccccccccccccccccccccccccccccc" />
    <g
       id="g2594"
       transform="matrix(0.22428287,0,0,0.20709365,32.888788,99.476)"
       inkscape:label="sign_4_12">
      <path
         d="m 281.61136,-0.5172025 c -46.24606,0 -83.93438,37.6883205 -83.93438,83.9343745 0,46.246058 37.68832,83.934388 83.93438,83.934378 46.24605,0 83.93436,-37.68832 83.93437,-83.934378 0,-46.246054 -37.68832,-83.9343745 -83.93437,-83.9343745 z"
         id="path3157"
         sodipodi:nodetypes="csssc"
         style="opacity:1;fill:#ffffff;fill-opacity:1;fill-rule:evenodd;stroke:#000000;stroke-width:1.77688;stroke-miterlimit:4;stroke-dasharray:none;stroke-opacity:1"
         transform="matrix(1.1255696,0,0,1.1255696,-221.97365,1.1076409)"
         inkscape:label="bg" />
      <path
         d="M 95,5.03125 C 45.425567,5.0312502 5.03125,45.425569 5.03125,95 c 1e-7,49.57443 40.39432,89.96876 89.96875,89.96875 49.57442,0 89.96874,-40.39432 89.96875,-89.96875 C 184.96875,45.425567 144.57443,5.03125 95,5.03125 Z m 25.5625,53.5625 c 3.7743,6.9e-5 6.88975,0.575026 9.3125,1.71875 2.42267,1.112944 4.40732,2.551179 5.9375,4.375 1.53009,1.793035 2.72663,3.709444 3.59375,5.71875 0.89253,1.97851 1.58941,4.310258 2.125,6.96875 1.04555,5.069829 1.56245,10.34122 1.5625,15.84375 -4e-5,12.33444 -1.71349,21.3748 -5.15625,27.09375 -3.44285,5.71896 -9.36553,8.5625 -17.78125,8.5625 -4.71794,0 -8.53026,-0.89486 -11.4375,-2.71875 -2.90727,-1.82388 -5.29459,-4.50713 -7.15625,-8.03125 -1.35163,-2.50397 -2.422437,-5.92212 -3.1875,-10.25 -0.73957,-4.35876 -1.093753,-9.182207 -1.09375,-14.4375 -10e-7,-12.921716 1.893402,-21.96242 5.71875,-27.125 3.85083,-5.162454 9.70778,-7.718681 17.5625,-7.71875 z M 51.25,59.75 h 37 V 74.8125 H 63.1875 L 61.84375,85 c 1.734132,-0.989183 3.441826,-1.724093 5.125,-2.21875 1.708629,-0.494566 3.404823,-0.749954 5.0625,-0.75 5.610468,4.8e-5 10.162397,2.076073 13.65625,6.1875 3.493768,4.111509 5.249951,9.286791 5.25,15.53125 -5e-5,4.38971 -0.908136,8.60662 -2.71875,12.65625 -1.785202,4.04965 -4.340995,7.14824 -7.65625,9.28125 -3.289832,2.13302 -7.50482,3.1875 -12.65625,3.1875 -3.697851,0 -6.879032,-0.41534 -9.53125,-1.25 -2.626749,-0.86557 -4.888345,-2.14318 -6.75,-3.8125 -1.836174,-1.70023 -3.321154,-3.61697 -4.46875,-5.75 -1.147608,-2.13301 -2.109935,-4.78466 -2.875,-7.96875 L 60.0625,108 c 0.382515,3.06044 1.253605,5.39252 2.65625,7 1.402605,1.57659 3.093052,2.37501 5.03125,2.375 2.167662,1e-5 3.941094,-0.99029 5.34375,-2.96875 1.428094,-2.00935 2.156216,-4.98058 2.15625,-8.9375 -3.1e-5,-4.04962 -0.728155,-7.020509 -2.15625,-8.90625 -1.428158,-1.885677 -3.315816,-2.843716 -5.6875,-2.84375 -1.504659,3.6e-5 -2.972397,0.447297 -4.375,1.34375 -1.045615,0.649208 -2.187907,1.831048 -3.4375,3.53125 L 46.3125,96.28125 Z m 68.78125,11.40625 c -2.57575,5.8e-5 -4.44617,1.597234 -5.59375,4.78125 -1.14762,3.153207 -1.71877,8.999555 -1.71875,17.5625 -2e-5,8.65576 0.62537,14.56595 1.875,17.75 1.27509,3.15317 3.13401,4.75001 5.53125,4.75 1.58112,1e-5 2.94612,-0.67072 4.09375,-2 1.17307,-1.36017 2.02692,-3.50038 2.5625,-6.40625 0.56102,-2.90583 0.84372,-7.44197 0.84375,-13.59375 -3e-5,-9.026645 -0.66242,-15.06487 -1.9375,-18.15625 -1.24964,-3.122186 -3.13155,-4.687443 -5.65625,-4.6875 z"
         id="path2385"
         style="fill:#0000ff;fill-opacity:1;fill-rule:evenodd;stroke:none;stroke-width:16;stroke-miterlimit:4;stroke-dasharray:none;stroke-opacity:1"
         inkscape:label="blue" />
    </g>
  </g>
</svg>
