<?xml version="1.0" encoding="UTF-8" standalone="no"?>
<!-- Created with Inkscape (http://www.inkscape.org/) -->

<svg
   height="280"
   id="svg2"
   inkscape:output_extension="org.inkscape.output.svg.inkscape"
   inkscape:version="1.3 (0e150ed6c4, 2023-07-21)"
   sodipodi:docname="5.3.svg"
   sodipodi:version="0.32"
   version="1.0"
   width="200"
   xml:space="preserve"
   xmlns:inkscape="http://www.inkscape.org/namespaces/inkscape"
   xmlns:sodipodi="http://sodipodi.sourceforge.net/DTD/sodipodi-0.dtd"
   xmlns="http://www.w3.org/2000/svg"
   xmlns:svg="http://www.w3.org/2000/svg"
   xmlns:rdf="http://www.w3.org/1999/02/22-rdf-syntax-ns#"
   xmlns:cc="http://creativecommons.org/ns#"
   xmlns:dc="http://purl.org/dc/elements/1.1/"><title
     id="title1">Інформаційно-вказівні знаки » Дорожні знаки » ПДР Тест Центр</title><metadata
     id="metadata7"><rdf:RDF><cc:Work
         rdf:about=""><dc:format>&#10;					image/svg+xml&#10;				</dc:format><dc:type
           rdf:resource="http://purl.org/dc/dcmitype/StillImage" /><cc:license
           rdf:resource="http://creativecommons.org/licenses/by-nc-sa/4.0/" /><dc:creator><cc:Agent><dc:title>ПДР Тест Центр | PDR Test Center</dc:title></cc:Agent></dc:creator><dc:rights><cc:Agent><dc:title>ПДР Тест Центр | PDR Test Center</dc:title></cc:Agent></dc:rights><dc:language>uk-UA</dc:language><dc:date>2023-09-01</dc:date><dc:title>Інформаційно-вказівні знаки » Дорожні знаки » ПДР Тест Центр</dc:title><dc:publisher><cc:Agent><dc:title>https://pdrtest.com/</dc:title></cc:Agent></dc:publisher><dc:source>https://pdrtest.com/driver/rules/section/33.5</dc:source></cc:Work><cc:License
         rdf:about="http://creativecommons.org/licenses/by-nc-sa/4.0/"><cc:permits
           rdf:resource="http://creativecommons.org/ns#Reproduction" /><cc:permits
           rdf:resource="http://creativecommons.org/ns#Distribution" /><cc:requires
           rdf:resource="http://creativecommons.org/ns#Notice" /><cc:requires
           rdf:resource="http://creativecommons.org/ns#Attribution" /><cc:prohibits
           rdf:resource="http://creativecommons.org/ns#CommercialUse" /><cc:permits
           rdf:resource="http://creativecommons.org/ns#DerivativeWorks" /><cc:requires
           rdf:resource="http://creativecommons.org/ns#ShareAlike" /></cc:License></rdf:RDF></metadata><defs
     id="defs5"><inkscape:perspective
       id="perspective9"
       inkscape:persp3d-origin="372.04724 : 361.15442 : 1"
       inkscape:vp_x="0 : 536.54812 : 1"
       inkscape:vp_y="0 : 1000 : 0"
       inkscape:vp_z="744.09448 : 536.54812 : 1"
       sodipodi:type="inkscape:persp3d" /><inkscape:perspective
       id="perspective2411"
       inkscape:persp3d-origin="372.04724 : 361.15442 : 1"
       inkscape:vp_x="0 : 536.54812 : 1"
       inkscape:vp_y="0 : 1000 : 0"
       inkscape:vp_z="744.09448 : 536.54812 : 1"
       sodipodi:type="inkscape:persp3d" /><inkscape:perspective
       id="perspective109"
       inkscape:persp3d-origin="372.04724 : 361.15442 : 1"
       inkscape:vp_x="0 : 536.54812 : 1"
       inkscape:vp_y="0 : 1000 : 0"
       inkscape:vp_z="744.09448 : 536.54812 : 1"
       sodipodi:type="inkscape:persp3d" /><inkscape:perspective
       id="perspective118"
       inkscape:persp3d-origin="372.04724 : 361.15442 : 1"
       inkscape:vp_x="0 : 536.54812 : 1"
       inkscape:vp_y="0 : 1000 : 0"
       inkscape:vp_z="744.09448 : 536.54812 : 1"
       sodipodi:type="inkscape:persp3d" /><inkscape:perspective
       id="perspective154"
       inkscape:persp3d-origin="372.04724 : 361.15442 : 1"
       inkscape:vp_x="0 : 536.54812 : 1"
       inkscape:vp_y="0 : 1000 : 0"
       inkscape:vp_z="744.09448 : 536.54812 : 1"
       sodipodi:type="inkscape:persp3d" /><inkscape:perspective
       id="perspective151"
       inkscape:persp3d-origin="372.04724 : 361.15442 : 1"
       inkscape:vp_x="0 : 536.54812 : 1"
       inkscape:vp_y="0 : 1000 : 0"
       inkscape:vp_z="744.09448 : 536.54812 : 1"
       sodipodi:type="inkscape:persp3d" /><inkscape:perspective
       id="perspective2415"
       inkscape:persp3d-origin="372.04724 : 361.15442 : 1"
       inkscape:vp_x="0 : 536.54812 : 1"
       inkscape:vp_y="0 : 1000 : 0"
       inkscape:vp_z="744.09448 : 536.54812 : 1"
       sodipodi:type="inkscape:persp3d" /><inkscape:perspective
       id="perspective2764"
       inkscape:persp3d-origin="372.04724 : 361.15442 : 1"
       inkscape:vp_x="0 : 536.54812 : 1"
       inkscape:vp_y="0 : 1000 : 0"
       inkscape:vp_z="744.09448 : 536.54812 : 1"
       sodipodi:type="inkscape:persp3d" /><inkscape:perspective
       id="perspective2762"
       inkscape:persp3d-origin="372.04724 : 361.15442 : 1"
       inkscape:vp_x="0 : 536.54812 : 1"
       inkscape:vp_y="0 : 1000 : 0"
       inkscape:vp_z="744.09448 : 536.54812 : 1"
       sodipodi:type="inkscape:persp3d" /><inkscape:perspective
       id="perspective2760"
       inkscape:persp3d-origin="372.04724 : 361.15442 : 1"
       inkscape:vp_x="0 : 536.54812 : 1"
       inkscape:vp_y="0 : 1000 : 0"
       inkscape:vp_z="744.09448 : 536.54812 : 1"
       sodipodi:type="inkscape:persp3d" /><inkscape:perspective
       id="perspective2758"
       inkscape:persp3d-origin="372.04724 : 361.15442 : 1"
       inkscape:vp_x="0 : 536.54812 : 1"
       inkscape:vp_y="0 : 1000 : 0"
       inkscape:vp_z="744.09448 : 536.54812 : 1"
       sodipodi:type="inkscape:persp3d" /></defs><sodipodi:namedview
     bordercolor="#666666"
     borderopacity="1.0"
     gridtolerance="10.0"
     guidetolerance="10.0"
     id="base"
     inkscape:current-layer="svg2"
     inkscape:cx="169.99999"
     inkscape:cy="185.24999"
     inkscape:pageopacity="0.0"
     inkscape:pageshadow="2"
     inkscape:window-height="1009"
     inkscape:window-width="1920"
     inkscape:zoom="2.0000001"
     objecttolerance="10.0"
     pagecolor="#ffffff"
     showgrid="false"
     inkscape:showpageshadow="2"
     inkscape:pagecheckerboard="0"
     inkscape:deskcolor="#d1d1d1"
     inkscape:window-x="-8"
     inkscape:window-y="-8"
     inkscape:window-maximized="1" /><g
     id="g5"
     transform="matrix(0.99476153,0,0,0.99476153,5.4998581,5.9005198)"
     inkscape:label="sign_5_3"><path
       d="M 21.592991,0.45978113 H 168.40258 c 11.69555,0 21.1111,8.77560447 21.1111,19.67624287 V 249.47529 c 0,10.90064 -9.41555,19.67624 -21.1111,19.67624 H 21.592991 c -11.6955496,0 -21.11110105,-8.7756 -21.11110105,-19.67624 V 20.136024 c 0,-10.9006384 9.41555145,-19.67624287 21.11110105,-19.67624287 z"
       id="path1"
       style="fill:#ffffff;fill-opacity:1;fill-rule:nonzero;stroke:#000000;stroke-width:2.01053;stroke-linecap:round;stroke-linejoin:miter;stroke-miterlimit:4;stroke-dasharray:none;stroke-opacity:1"
       inkscape:label="bg" /><path
       d="M 25.409315,8.3852024 H 164.49215 c 11.08,0 20,8.9199996 20,19.9999996 V 261.49806 c 0,11.08 -8.92,20 -20,20 H 25.409315 c -11.08,0 -20.0000004,-8.92 -20.0000004,-20 V 28.385202 c 0,-11.08 8.9200004,-19.9999996 20.0000004,-19.9999996 z"
       id="path2"
       style="fill:#1a1aff;fill-opacity:1;fill-rule:nonzero;stroke:none;stroke-width:2;stroke-linecap:round;stroke-linejoin:miter;stroke-miterlimit:4;stroke-opacity:1"
       transform="matrix(0.9894239,0,0,0.9424637,1.051263,-1.7965713)"
       inkscape:label="blue" /><path
       id="_146946152"
       style="display:inline;fill:#ffffff;fill-opacity:1;fill-rule:evenodd;stroke:#1f1a17;stroke-width:0.0136721"
       class="fil2 str0"
       inkscape:label="sign"
       d="m 73.38538,96.207734 c -4.94612,-0.01488 -7.194569,4.269746 -8.99297,8.765786 l -7.120289,17.29009 c -3.708296,0 -8.247978,1.25576 -8.247978,4.96516 v 19.89341 c 0,3.70936 2.922832,8.57136 6.631128,8.57136 h 2.247222 17.488604 l 41.262443,-0.004 h 17.35763 l 1.33441,0.004 c 3.70831,0 6.63114,-4.862 6.63114,-8.57136 v -19.89341 c 0,-3.48431 -4.26842,-5.1392 -7.7527,-5.36427 l -7.32291,-17.99821 c -1.57336,-4.046996 -2.57429,-7.506529 -7.51938,-7.521427 z m 60.62579,59.485806 h -17.35763 v 13.80463 c 0,6.43074 17.35763,6.43074 17.35763,0 z m -58.620073,0 H 57.902493 v 14.32858 c 0,6.43074 17.488604,6.43074 17.488604,0 z m 0.945553,-52.85467 h 38.215 c 4.38349,0 5.50563,3.03255 6.0683,4.38187 l 2.69748,7.30654 c 0.56269,1.46079 0.45103,8.25821 -3.4834,8.25821 H 71.166818 c -4.04696,0 -5.058016,-5.44788 -4.158786,-7.69539 l 3.03517,-7.86936 c 0.899231,-2.36001 3.033179,-4.38187 6.293448,-4.38187 z m -8.344181,30.66082 c 3.034155,0 5.505481,2.47134 5.505481,5.61805 0,3.0352 -2.471326,5.50753 -5.505481,5.50753 -3.147749,0 -5.620101,-2.47233 -5.620101,-5.50753 0,-3.14671 2.472352,-5.61805 5.620101,-5.61805 z m 55.369991,0 c 3.03417,0 5.50753,2.47134 5.50753,5.61805 0,3.0352 -2.47336,5.50753 -5.50753,5.50753 -3.14671,0 -5.62009,-2.47233 -5.62009,-5.50753 0,-3.14671 2.47338,-5.61805 5.62009,-5.61805 z"
       sodipodi:nodetypes="cccsssccccsssccccccsscccsscssccssccsssssssssss" /></g></svg>
