<?xml version="1.0" encoding="UTF-8" standalone="no"?>
<!-- Created with Inkscape (http://www.inkscape.org/) -->

<svg
   height="280"
   id="svg2"
   inkscape:output_extension="org.inkscape.output.svg.inkscape"
   inkscape:version="1.3 (0e150ed6c4, 2023-07-21)"
   sodipodi:docname="5.34.svg"
   sodipodi:version="0.32"
   version="1.0"
   width="200"
   xmlns:inkscape="http://www.inkscape.org/namespaces/inkscape"
   xmlns:sodipodi="http://sodipodi.sourceforge.net/DTD/sodipodi-0.dtd"
   xmlns="http://www.w3.org/2000/svg"
   xmlns:svg="http://www.w3.org/2000/svg"
   xmlns:rdf="http://www.w3.org/1999/02/22-rdf-syntax-ns#"
   xmlns:cc="http://creativecommons.org/ns#"
   xmlns:dc="http://purl.org/dc/elements/1.1/">
  <title
     id="title1">Інформаційно-вказівні знаки » Дорожні знаки » ПДР Тест Центр</title>
  <metadata
     id="metadata7">
    <rdf:RDF>
      <cc:Work
         rdf:about="">
        <dc:title>Інформаційно-вказівні знаки » Дорожні знаки » ПДР Тест Центр</dc:title>
      </cc:Work>
    </rdf:RDF>
  </metadata>
  <defs
     id="defs5">
    <inkscape:path-effect
       effect="fillet_chamfer"
       id="path-effect1"
       is_visible="true"
       lpeversion="1"
       nodesatellites_param="F,0,0,1,0,0,0,1 @ F,0,0,1,0,0,0,1 @ F,0,0,1,0,0,0,1 @ F,0,0,1,0,1.2578995,0,1 @ F,0,0,1,0,0,0,1 @ F,0,0,1,0,0,0,1 @ F,0,0,1,0,0,0,1 @ F,0,0,1,0,1.9521494,0,1 @ F,0,0,1,0,0,0,1 @ F,0,0,1,0,0,0,1 @ F,0,0,1,0,0,0,1 @ F,0,0,1,0,0,0,1 | F,0,0,1,0,0,0,1 @ F,0,0,1,0,0,0,1 @ F,0,0,1,0,0,0,1 | F,0,0,1,0,0,0,1 @ F,0,0,1,0,0,0,1 @ F,0,0,1,0,0,0,1 @ F,0,0,1,0,0,0,1 @ F,0,0,1,0,0,0,1 @ F,0,0,1,0,0,0,1 @ F,0,0,1,0,0,0,1 | F,0,0,1,0,0,0,1 @ F,0,0,1,0,0,0,1 @ F,0,0,1,0,0,0,1 @ F,0,0,1,0,0,0,1 @ F,0,0,1,0,0,0,1 @ F,0,0,1,0,1.2523203,0,1"
       radius="0"
       unit="px"
       method="auto"
       mode="F"
       chamfer_steps="1"
       flexible="false"
       use_knot_distance="true"
       apply_no_radius="true"
       apply_with_radius="true"
       only_selected="false"
       hide_knots="false" />
    <inkscape:perspective
       id="perspective9"
       inkscape:persp3d-origin="372.04724 : -303.72748 : 1"
       inkscape:vp_x="0 : -128.33378 : 1"
       inkscape:vp_y="0 : 1000 : 0"
       inkscape:vp_z="744.09448 : -128.33378 : 1"
       sodipodi:type="inkscape:persp3d" />
    <inkscape:perspective
       id="perspective2411"
       inkscape:persp3d-origin="372.04724 : -303.72748 : 1"
       inkscape:vp_x="0 : -128.33378 : 1"
       inkscape:vp_y="0 : 1000 : 0"
       inkscape:vp_z="744.09448 : -128.33378 : 1"
       sodipodi:type="inkscape:persp3d" />
    <inkscape:perspective
       id="perspective109"
       inkscape:persp3d-origin="372.04724 : -303.72748 : 1"
       inkscape:vp_x="0 : -128.33378 : 1"
       inkscape:vp_y="0 : 1000 : 0"
       inkscape:vp_z="744.09448 : -128.33378 : 1"
       sodipodi:type="inkscape:persp3d" />
    <inkscape:perspective
       id="perspective118"
       inkscape:persp3d-origin="372.04724 : -303.72748 : 1"
       inkscape:vp_x="0 : -128.33378 : 1"
       inkscape:vp_y="0 : 1000 : 0"
       inkscape:vp_z="744.09448 : -128.33378 : 1"
       sodipodi:type="inkscape:persp3d" />
    <inkscape:perspective
       id="perspective187"
       inkscape:persp3d-origin="372.04724 : -303.72748 : 1"
       inkscape:vp_x="0 : -128.33378 : 1"
       inkscape:vp_y="0 : 1000 : 0"
       inkscape:vp_z="744.09448 : -128.33378 : 1"
       sodipodi:type="inkscape:persp3d" />
    <inkscape:perspective
       id="perspective154"
       inkscape:persp3d-origin="372.04724 : -303.72748 : 1"
       inkscape:vp_x="0 : -128.33378 : 1"
       inkscape:vp_y="0 : 1000 : 0"
       inkscape:vp_z="744.09448 : -128.33378 : 1"
       sodipodi:type="inkscape:persp3d" />
    <inkscape:perspective
       id="perspective2676"
       inkscape:persp3d-origin="372.04724 : -303.72748 : 1"
       inkscape:vp_x="0 : -128.33378 : 1"
       inkscape:vp_y="0 : 1000 : 0"
       inkscape:vp_z="744.09448 : -128.33378 : 1"
       sodipodi:type="inkscape:persp3d" />
    <inkscape:perspective
       id="perspective2674"
       inkscape:persp3d-origin="372.04724 : -303.72748 : 1"
       inkscape:vp_x="0 : -128.33378 : 1"
       inkscape:vp_y="0 : 1000 : 0"
       inkscape:vp_z="744.09448 : -128.33378 : 1"
       sodipodi:type="inkscape:persp3d" />
    <inkscape:perspective
       id="perspective2672"
       inkscape:persp3d-origin="372.04724 : -303.72748 : 1"
       inkscape:vp_x="0 : -128.33378 : 1"
       inkscape:vp_y="0 : 1000 : 0"
       inkscape:vp_z="744.09448 : -128.33378 : 1"
       sodipodi:type="inkscape:persp3d" />
    <inkscape:perspective
       id="perspective2670"
       inkscape:persp3d-origin="372.04724 : -303.72748 : 1"
       inkscape:vp_x="0 : -128.33378 : 1"
       inkscape:vp_y="0 : 1000 : 0"
       inkscape:vp_z="744.09448 : -128.33378 : 1"
       sodipodi:type="inkscape:persp3d" />
  </defs>
  <sodipodi:namedview
     bordercolor="#666666"
     borderopacity="1.0"
     gridtolerance="10.0"
     guidetolerance="10.0"
     id="base"
     inkscape:current-layer="svg2"
     inkscape:cx="-14.849242"
     inkscape:cy="224.5064"
     inkscape:guide-bbox="true"
     inkscape:pageopacity="0.0"
     inkscape:pageshadow="2"
     inkscape:window-height="1009"
     inkscape:window-width="1920"
     inkscape:zoom="1.4142136"
     objecttolerance="10.0"
     pagecolor="#ffffff"
     showgrid="false"
     showguides="false"
     inkscape:showpageshadow="2"
     inkscape:pagecheckerboard="0"
     inkscape:deskcolor="#d1d1d1"
     inkscape:window-x="-8"
     inkscape:window-y="-8"
     inkscape:window-maximized="1" />
  <g
     id="g1"
     transform="translate(5.002215,5.194346)"
     inkscape:label="sign_5_34">
    <path
       d="M 20.761302,2.3941002 H 169.14016 c 11.82057,0 21.33676,9.3113448 21.33676,20.8774548 V 266.61171 c 0,11.56611 -9.51619,20.87745 -21.33676,20.87745 H 20.761302 c -11.8205654,0 -21.33676106,-9.31134 -21.33676106,-20.87745 V 23.271555 c 0,-11.56611 9.51619566,-20.8774548 21.33676106,-20.8774548 z"
       id="rect3292"
       style="fill:#ffffff;fill-opacity:1;fill-rule:nonzero;stroke:#000000;stroke-width:2.07113;stroke-linecap:round;stroke-linejoin:miter;stroke-miterlimit:4;stroke-dasharray:none;stroke-opacity:1"
       transform="matrix(0.9894239,0,0,0.9424637,1.051263,-1.796571)"
       inkscape:label="bg" />
    <path
       d="M 25.409315,8.3852024 H 164.49215 c 11.08,0 20,8.9199996 20,19.9999996 V 261.49806 c 0,11.08 -8.92,20 -20,20 H 25.409315 c -11.08,0 -20.0000004,-8.92 -20.0000004,-20 V 28.385202 c 0,-11.08 8.9200004,-19.9999996 20.0000004,-19.9999996 z"
       id="rect3280"
       style="fill:#0000ff;fill-opacity:1;fill-rule:nonzero;stroke:none;stroke-width:2;stroke-linecap:round;stroke-linejoin:miter;stroke-miterlimit:4;stroke-opacity:1"
       transform="matrix(0.9894239,0,0,0.9424637,1.051263,-1.796571)"
       inkscape:label="blue" />
    <g
       id="g2"
       inkscape:label="sign">
      <path
         id="rect1"
         style="display:inline;fill:#ffffff;fill-opacity:1;stroke-width:1.68395;paint-order:stroke fill markers"
         d="m 50.596811,159.61546 c -3.879356,0.13117 -6.68923,2.41606 -7.178176,6.5763 -0.559718,4.75345 1.949649,9.11753 6.702922,9.67614 4.754495,0.5597 7.84196,-1.85076 8.401663,-6.60425 0.558501,-4.75456 -1.44808,-9.01393 -6.201344,-9.57254 -0.594198,-0.0699 -1.170877,-0.0944 -1.725065,-0.0756 z m -6.551626,17.97422 c -1.122192,-0.091 -2.242412,0.19792 -3.180433,0.82059 l -13.764334,9.1384 c -1.433505,0.64844 -2.412309,1.8994 -2.77589,3.32187 l -0.223649,15.97615 c -0.01929,1.3755 1.064027,2.51433 2.43877,2.56377 l 0.335473,0.0116 c 1.356401,0.0478 2.486099,-1.03063 2.501262,-2.38779 l 0.113469,-10.38985 c 0.02533,-2.30472 1.290436,-4.41701 3.310347,-5.52711 l 5.377464,-2.95514 c 1.531557,-0.8413 3.404484,0.26708 3.404082,2.01449 l -0.01151,14.93521 c -0.0027,3.70436 1.661003,7.21346 4.530556,9.55609 l 13.932068,11.37655 c 2.251788,1.83877 3.951224,4.26443 4.910429,7.0088 l 6.712788,19.21086 c 0.595825,1.70471 2.28131,2.77989 4.078327,2.60158 l 2.66242,-0.26478 c 1.872288,-0.18683 3.074505,-2.07856 2.448633,-3.85302 l -8.319444,-23.5671 c -0.680225,-1.92667 -2.343171,-4.71833 -3.785605,-6.16517 -4.216508,-4.22938 -8.834114,-8.08732 -12.882889,-12.45696 -1.107804,-1.19561 -1.941192,-3.53195 -1.92405,-5.16204 L 54.102851,187.233 c 0.362655,-3.08527 -2.418282,-6.87203 -4.596331,-7.53996 l -3.846451,-1.69381 c -0.51171,-0.22555 -1.057529,-0.36395 -1.614883,-0.40948 z m 13.063778,13.54398 -0.01314,10.30104 8.380287,7.02195 c 1.684778,1.41132 4.159318,1.33781 5.757341,-0.17103 1.224605,-1.4489 0.961463,-3.63276 -0.57227,-4.74927 z M 41.73436,215.69617 23.840307,250.0835 c -2.453227,4.82746 3.45476,8.36718 6.295346,3.70578 L 49.155337,222.394 Z"
         inkscape:label="man2"
         sodipodi:nodetypes="sccccsscccccccccccccccccccccsscccccccccccccccc" />
      <path
         id="_146865904"
         style="fill:#ffffff;fill-rule:evenodd"
         class="fil4"
         inkscape:label="man1"
         d="m 145.38191,174.77712 c -1.47406,-0.11847 -3.11485,0.656 -4.22852,2.7168 -4.25949,8.88138 -8.5229,17.7612 -12.78515,26.64258 -1.83138,3.24801 -1.49478,6.30074 0.99804,9.16015 1.95298,2.65824 4.83975,5.81831 3.20118,8.95899 -0.32057,0.61443 -1.18022,1.34648 -1.75391,1.73828 -2.7867,1.90317 -5.32946,3.85944 -6.92773,6.95508 -2.15798,5.16207 -5.55352,12.97658 -7.7129,18.13867 -1.40183,4.46656 4.84876,6.70675 7.14063,1.83008 2.09609,-4.00888 5.1524,-10.07488 7.47656,-14.57422 0.49474,-0.95777 1.64206,-2.19473 2.55664,-2.76563 4.42811,-2.76407 8.85572,-5.52801 13.28516,-8.29101 2.18693,-1.87552 2.41003,-4.54082 0.66406,-7.99414 -2.8073,-6.60543 -10.34517,-13.98321 -5.97656,-21.31446 2.54519,-4.99671 4.29517,-9.99431 6.8418,-14.98828 1.67275,-3.33752 -0.32254,-6.01543 -2.7793,-6.21289 z m -20.16406,6.83203 c -4.63321,-0.16562 -9.85572,3.41035 -8.33789,12.21289 0.85436,4.96783 9.49586,7.74303 12.47656,1.25391 1.35424,-2.64437 2.33422,-5.37191 2.19726,-8.34766 -0.27212,-3.14092 -3.16584,-5.00582 -6.33593,-5.11914 z m -14.55274,22.68164 c -2.25774,-0.0989 -4.44447,2.45291 -3.17187,5.25196 1.49517,2.74639 2.98861,5.49442 4.48242,8.24218 1.74458,2.99586 3.40337,3.7481 6.10156,2.625 2.94623,-1.16718 7.03674,-3.67149 9.98438,-4.83593 l -3.44727,-6 c -2.11665,0.87505 -4.99077,3.0312 -7.10742,3.90625 -1.53373,-2.04085 -2.502,-5.14466 -4.03711,-7.18555 -0.73693,-1.36563 -1.77844,-1.95892 -2.80469,-2.00391 z m 37.30274,22.83399 -6.24414,4.17187 c 5.80828,9.91346 6.98623,12.12293 10.01171,11.76172 1.72256,-0.20671 4.87314,-1.08049 7.9668,-1.65234 5.54933,-0.95361 4.61086,-7.59342 -1.0625,-6.84375 -1.68463,0.17828 -3.2334,0.54034 -4.73633,0.79492 -0.67827,0.1149 -1.52951,-0.29623 -1.87304,-0.89648 -1.26883,-2.21704 -2.6129,-4.88093 -4.0625,-7.33594 z"
         transform="translate(9.899495,2.828427)"
         sodipodi:nodetypes="scccsscccssccccsscccsscccccccscccccssc" />
      <path
         id="_146854032"
         style="fill:#ffffff;fill-rule:evenodd;stroke-width:1.10625"
         inkscape:label="houses"
         d="m 114.68179,6.095784 v 111.344306 3.18695 h 3.18695 65.77855 v -3.18695 H 117.86874 V 6.095784 Z m 10.18958,8.936411 v 35.269567 h 22.57478 V 15.032195 Z m 0,45.579887 v 36.269566 h 22.57441 l 3.7e-4,-36.269566 z m 29.81776,23.258416 v 33.576362 l 24.98702,-0.0442 V 83.870488 Z"
         sodipodi:nodetypes="cccccccccccccccccccccccc" />
      <path
         class="fil4"
         d="m 102.98279,236.81655 c 4.83276,0 8.77391,3.97424 8.77391,8.84698 0,4.87407 -3.94115,8.84831 -8.77391,8.84831 -4.83277,0 -8.775308,-3.97424 -8.775308,-8.84831 0,-4.87274 3.942538,-8.84698 8.775308,-8.84698 z"
         id="_146852280"
         sodipodi:nodetypes="cssss"
         style="fill:#ffffff;fill-rule:evenodd"
         inkscape:label="ball" />
      <path
         id="_146946152"
         style="display:inline;fill:#ffffff;fill-opacity:1;fill-rule:evenodd;stroke:#1f1a17;stroke-width:0.0100868"
         class="fil2 str0"
         inkscape:label="car"
         d="m 39.945022,59.24618 c -3.649067,-0.01099 -5.307893,3.150065 -6.634682,6.467079 l -5.253086,12.755983 c -2.735852,0 -6.085063,0.926469 -6.085063,3.663117 v 14.676624 c 0,2.73663 2.156359,6.323637 4.89221,6.323637 h 1.657915 12.902451 l 30.44192,-0.003 h 12.805811 l 0.984486,0.003 c 2.735849,0 4.892211,-3.587007 4.892211,-6.323637 V 82.132359 c 0,-2.570594 -3.149091,-3.791509 -5.719661,-3.957555 L 79.426958,64.89638 c -1.160764,-2.985722 -1.899221,-5.538041 -5.547524,-5.549034 z m 44.727476,43.88644 H 71.866687 v 10.18455 c 0,4.74436 12.805811,4.74436 12.805811,0 z m -43.247731,0 H 28.522316 v 10.5711 c 0,4.74435 12.902451,4.74435 12.902451,0 z m 0.69759,-38.99423 h 28.193625 c 3.233984,0 4.061851,2.237304 4.476975,3.232784 l 1.990097,5.39049 c 0.415124,1.077723 0.332754,6.092614 -2.56992,6.092614 H 38.308245 c -2.985692,0 -3.731616,-4.01925 -3.0682,-5.67738 l 2.239243,-5.805724 c 0.663421,-1.741131 2.23776,-3.232784 4.643069,-3.232784 z m -6.15603,22.62043 c 2.23849,0 4.061742,1.823262 4.061742,4.144788 0,2.239254 -1.823252,4.063251 -4.061742,4.063251 -2.322293,0 -4.1463,-1.823997 -4.1463,-4.063251 0,-2.321526 1.824007,-4.144788 4.1463,-4.144788 z m 40.849949,0 c 2.238498,0 4.063255,1.823262 4.063255,4.144788 0,2.239254 -1.824757,4.063251 -4.063255,4.063251 -2.321528,0 -4.146296,-1.823997 -4.146296,-4.063251 0,-2.321526 1.824768,-4.144788 4.146296,-4.144788 z"
         sodipodi:nodetypes="cccsssccccsssccccccsscccsscssccssccsssssssssss" />
    </g>
  </g>
</svg>
