<?xml version="1.0" encoding="UTF-8" standalone="no"?>
<!-- Created with Inkscape (http://www.inkscape.org/) -->

<svg
   height="280"
   id="svg2"
   inkscape:output_extension="org.inkscape.output.svg.inkscape"
   inkscape:version="1.3 (0e150ed6c4, 2023-07-21)"
   sodipodi:docname="5.45.2.svg"
   sodipodi:version="0.32"
   version="1.0"
   width="200"
   xmlns:inkscape="http://www.inkscape.org/namespaces/inkscape"
   xmlns:sodipodi="http://sodipodi.sourceforge.net/DTD/sodipodi-0.dtd"
   xmlns="http://www.w3.org/2000/svg"
   xmlns:svg="http://www.w3.org/2000/svg"
   xmlns:rdf="http://www.w3.org/1999/02/22-rdf-syntax-ns#"
   xmlns:cc="http://creativecommons.org/ns#"
   xmlns:dc="http://purl.org/dc/elements/1.1/">
  <title
     id="title1">Інформаційно-вказівні знаки » Дорожні знаки » ПДР Тест Центр</title>
  <metadata
     id="metadata7">
    <rdf:RDF>
      <cc:Work
         rdf:about="">
        <dc:format>&#10;					image/svg+xml&#10;				</dc:format>
        <dc:type
           rdf:resource="http://purl.org/dc/dcmitype/StillImage" />
        <cc:license
           rdf:resource="http://creativecommons.org/licenses/by-nc-sa/4.0/" />
        <dc:creator>
          <cc:Agent>
            <dc:title>ПДР Тест Центр | PDR Test Center</dc:title>
          </cc:Agent>
        </dc:creator>
        <dc:rights>
          <cc:Agent>
            <dc:title>ПДР Тест Центр | PDR Test Center</dc:title>
          </cc:Agent>
        </dc:rights>
        <dc:language>uk-UA</dc:language>
        <dc:date>2023-09-01</dc:date>
        <dc:title>Інформаційно-вказівні знаки » Дорожні знаки » ПДР Тест Центр</dc:title>
        <dc:publisher>
          <cc:Agent>
            <dc:title>https://pdrtest.com/</dc:title>
          </cc:Agent>
        </dc:publisher>
        <dc:source>https://pdrtest.com/driver/rules/section/33.5</dc:source>
      </cc:Work>
      <cc:License
         rdf:about="http://creativecommons.org/licenses/by-nc-sa/4.0/">
        <cc:permits
           rdf:resource="http://creativecommons.org/ns#Reproduction" />
        <cc:permits
           rdf:resource="http://creativecommons.org/ns#Distribution" />
        <cc:requires
           rdf:resource="http://creativecommons.org/ns#Notice" />
        <cc:requires
           rdf:resource="http://creativecommons.org/ns#Attribution" />
        <cc:prohibits
           rdf:resource="http://creativecommons.org/ns#CommercialUse" />
        <cc:permits
           rdf:resource="http://creativecommons.org/ns#DerivativeWorks" />
        <cc:requires
           rdf:resource="http://creativecommons.org/ns#ShareAlike" />
      </cc:License>
    </rdf:RDF>
  </metadata>
  <defs
     id="defs5">
    <inkscape:perspective
       id="perspective9"
       inkscape:persp3d-origin="372.04724 : 361.15442 : 1"
       inkscape:vp_x="0 : 536.54812 : 1"
       inkscape:vp_y="0 : 1000 : 0"
       inkscape:vp_z="744.09448 : 536.54812 : 1"
       sodipodi:type="inkscape:persp3d" />
    <inkscape:perspective
       id="perspective2411"
       inkscape:persp3d-origin="372.04724 : 361.15442 : 1"
       inkscape:vp_x="0 : 536.54812 : 1"
       inkscape:vp_y="0 : 1000 : 0"
       inkscape:vp_z="744.09448 : 536.54812 : 1"
       sodipodi:type="inkscape:persp3d" />
    <inkscape:perspective
       id="perspective109"
       inkscape:persp3d-origin="372.04724 : 361.15442 : 1"
       inkscape:vp_x="0 : 536.54812 : 1"
       inkscape:vp_y="0 : 1000 : 0"
       inkscape:vp_z="744.09448 : 536.54812 : 1"
       sodipodi:type="inkscape:persp3d" />
    <inkscape:perspective
       id="perspective118"
       inkscape:persp3d-origin="372.04724 : 361.15442 : 1"
       inkscape:vp_x="0 : 536.54812 : 1"
       inkscape:vp_y="0 : 1000 : 0"
       inkscape:vp_z="744.09448 : 536.54812 : 1"
       sodipodi:type="inkscape:persp3d" />
    <inkscape:perspective
       id="perspective179"
       inkscape:persp3d-origin="372.04724 : 361.15442 : 1"
       inkscape:vp_x="0 : 536.54812 : 1"
       inkscape:vp_y="0 : 1000 : 0"
       inkscape:vp_z="744.09448 : 536.54812 : 1"
       sodipodi:type="inkscape:persp3d" />
    <inkscape:perspective
       id="perspective2573"
       inkscape:persp3d-origin="372.04724 : 361.15442 : 1"
       inkscape:vp_x="0 : 536.54812 : 1"
       inkscape:vp_y="0 : 1000 : 0"
       inkscape:vp_z="744.09448 : 536.54812 : 1"
       sodipodi:type="inkscape:persp3d" />
    <inkscape:perspective
       id="perspective2426"
       inkscape:persp3d-origin="372.04724 : 361.15442 : 1"
       inkscape:vp_x="0 : 536.54812 : 1"
       inkscape:vp_y="0 : 1000 : 0"
       inkscape:vp_z="744.09448 : 536.54812 : 1"
       sodipodi:type="inkscape:persp3d" />
  </defs>
  <sodipodi:namedview
     bordercolor="#666666"
     borderopacity="1.0"
     gridtolerance="10.0"
     guidetolerance="10.0"
     id="base"
     inkscape:current-layer="svg2"
     inkscape:cx="30.999998"
     inkscape:cy="138.24999"
     inkscape:guide-bbox="true"
     inkscape:pageopacity="0.0"
     inkscape:pageshadow="2"
     inkscape:window-height="1009"
     inkscape:window-width="1920"
     inkscape:zoom="2.0000001"
     objecttolerance="10.0"
     pagecolor="#ffffff"
     showgrid="false"
     showguides="false"
     inkscape:showpageshadow="2"
     inkscape:pagecheckerboard="0"
     inkscape:deskcolor="#d1d1d1"
     inkscape:window-x="-8"
     inkscape:window-y="-8"
     inkscape:window-maximized="1" />
  <g
     id="g3286"
     transform="translate(4.9998452,5.183515)"
     inkscape:label="sign_5_45_2">
    <path
       d="m 19.616478,0.4544665 c -11.0768387,0 -19.1968417,8.2525263 -19.1968417,18.4199675 V 251.49715 c 0,10.16744 8.120002,17.68136 19.1968417,17.68135 H 170.79197 c 11.07683,0 18.7887,-7.51391 18.7887,-17.68135 V 18.874434 c 0,-10.1674393 -7.71187,-18.4199675 -18.7887,-18.4199675 z"
       id="path1"
       sodipodi:nodetypes="ccccccccc"
       style="fill:#ffffff;fill-opacity:1;fill-rule:nonzero;stroke:#000000;stroke-width:1.91996;stroke-linecap:round;stroke-linejoin:miter;stroke-miterlimit:4;stroke-dasharray:none;stroke-opacity:1"
       inkscape:label="bg" />
    <path
       d="m 6.3851548,178.40048 177.2299952,-7e-5 c 0.11837,21.89947 0.0739,43.79933 0.0739,65.69902 0,10.22861 -8.83508,18.46319 -19.80958,18.46319 H 26.120804 c -10.974512,0 -19.8095889,-8.23458 -19.8095889,-18.46319 -0.022451,-21.89984 -0.013762,-43.79932 0.07394,-65.69895 z"
       id="rect3292-4"
       style="fill:#ffffff;fill-opacity:1;fill-rule:nonzero;stroke:#000000;stroke-width:2.95312;stroke-linecap:round;stroke-linejoin:miter;stroke-miterlimit:4;stroke-dasharray:none;stroke-opacity:1"
       inkscape:label="bg2"
       sodipodi:nodetypes="ccssssc" />
    <path
       d="M 26.178438,7.667945 H 163.82236 c 10.96536,0 19.79308,9.809827 19.79308,21.995128 l -2.9e-4,148.737407 H 6.3851548 L 6.3853553,29.663073 C 6.3853717,17.477772 15.21307,7.667945 26.178438,7.667945 Z"
       id="rect3292-8"
       style="fill:#ffffff;fill-opacity:1;fill-rule:nonzero;stroke:#000000;stroke-width:3.10092;stroke-linecap:round;stroke-linejoin:miter;stroke-miterlimit:4;stroke-dasharray:none;stroke-opacity:1"
       inkscape:label="bg1"
       sodipodi:nodetypes="sssccss" />
    <path
       id="path2459-6"
       style="fill:#000000;fill-opacity:1;fill-rule:nonzero;stroke:none;stroke-width:4.64826;stroke-linecap:round;stroke-linejoin:miter;stroke-miterlimit:4;stroke-dasharray:none;stroke-opacity:1"
       inkscape:label="sign"
       d="m 52.910482,64.320346 c -1.73298,10e-7 -4.54815,0.360726 -5.8789,1.429688 -4.53246,3.640823 -11.79843,13.315544 -14.21875,18.097653 -0.6061,1.19755 -0.81446,3.385191 -0.81446,4.736331 v 20.417972 c 9e-5,1.80847 1.46693,3.2753 3.27539,3.27539 h 13.79883 c -0.0536,-0.45423 -0.0644,-0.92996 -0.0644,-1.39844 0,-6.49525 5.27038,-11.767571 11.76563,-11.767571 6.49522,0 11.76756,5.272321 11.76758,11.767571 0,0.46848 -0.009,0.94421 -0.0625,1.39844 h 22.51952 V 64.320346 Z m 42.0918,0 v 47.957034 h 22.519538 c -0.0533,-0.45423 -0.0625,-0.92996 -0.0625,-1.39844 2e-5,-6.49525 5.27235,-11.767571 11.76757,-11.767571 6.49524,0 11.76562,5.272321 11.76562,11.767571 0,0.46848 -0.0109,0.94421 -0.0645,1.39844 h 13.79883 c 1.80847,-9e-5 3.27529,-1.46692 3.27538,-3.27539 V 88.584018 c 0,-1.35114 -0.20835,-3.538781 -0.81445,-4.736331 -2.42033,-4.78211 -9.68628,-14.45683 -14.21875,-18.097653 -1.33075,-1.068962 -4.14591,-1.429687 -5.8789,-1.429688 z m -40.69922,3.847657 h 11.02344 c 1.27187,0 2.28906,1.170373 2.28906,2.451172 v 11.636723 c 0,1.285079 -3.55813,2.72656 -2.28906,2.72656 h -21.90625 c -1.26484,0 -2.7191,-1.51358 -2.28906,-2.72656 0,-2.83353 5.41206,-10.510407 8.96679,-13.167973 0.96751,-0.723338 2.97911,-0.919922 4.20508,-0.919922 z m 19.10352,0 h 17.44531 c 1.27179,0 2.28711,1.163266 2.28711,2.451172 v 11.636723 c 0,1.28789 -1.01529,2.72656 -2.28711,2.72656 h -17.44531 c -1.2704,0 -2.29297,-1.43867 -2.29297,-2.72656 V 70.619175 c 0,-1.287906 1.02257,-2.451172 2.29297,-2.451172 z m 25.74218,0 h 17.445318 c 1.2704,0 2.29297,1.163266 2.29297,2.451172 v 11.636723 c 0,1.28789 -1.02257,2.72656 -2.29297,2.72656 H 99.148762 c -1.27182,0 -2.28711,-1.43867 -2.28711,-2.72656 V 70.619175 c 0,-1.287906 1.01532,-2.451172 2.28711,-2.451172 z m 25.525398,0 h 11.02343 c 1.22597,0 3.23758,0.196584 4.20508,0.919922 3.55473,2.657566 8.9668,10.334442 8.9668,13.167973 0.43004,1.21298 -1.02423,2.72656 -2.28906,2.72656 h -21.90625 c 1.26907,0 -2.28906,-1.44148 -2.28906,-2.72656 V 70.619175 c 0,-1.280799 1.01719,-2.451172 2.28906,-2.451172 z M 60.773762,101.14457 c -5.66768,0 -10.32421,4.60769 -10.32421,10.27539 0,5.66766 4.65653,10.32812 10.32421,10.32812 5.66767,0 10.32813,-4.66046 10.32813,-10.32812 0,-5.6677 -4.66046,-10.27539 -10.32813,-10.27539 z m 68.453128,0 c -5.66766,0 -10.32812,4.60769 -10.32812,10.27539 0,5.66766 4.66046,10.32812 10.32812,10.32812 5.66768,0 10.32421,-4.66046 10.32421,-10.32812 0,-5.6677 -4.65653,-10.27539 -10.32421,-10.27539 z m -68.453128,3.6582 c 3.68544,0 6.6211,2.93172 6.6211,6.61719 0,3.68545 -2.93566,6.66797 -6.6211,6.66797 -3.68545,0 -6.61718,-2.98252 -6.61718,-6.66797 0,-3.68547 2.93173,-6.61719 6.61718,-6.61719 z m 68.453128,0 c 3.68546,0 6.61718,2.93172 6.61718,6.61719 0,3.68545 -2.93172,6.66797 -6.61718,6.66797 -3.68543,0 -6.62109,-2.98252 -6.62109,-6.66797 0,-3.68547 2.93566,-6.61719 6.62109,-6.61719 z" />
    <path
       id="text1-2"
       style="font-weight:bold;font-size:21.3333px;line-height:0.3;font-family:Arial;-inkscape-font-specification:'Arial Bold';letter-spacing:0px;word-spacing:4.15px;fill:#000000;fill-opacity:1;stroke:none;stroke-width:2;stroke-dasharray:none;stroke-opacity:1;paint-order:stroke fill markers"
       inkscape:label="text"
       d="m 52.541169,200.28032 v 15.27149 h 3.083984 v -5.75977 h 2.009766 c 1.395829,0 2.463109,-0.0729 3.199218,-0.21875 0.541666,-0.11805 1.072918,-0.35764 1.59375,-0.71875 0.527777,-0.36805 0.960505,-0.87283 1.300782,-1.51172 0.340277,-0.63888 0.511718,-1.42578 0.511718,-2.36328 0,-1.21527 -0.296442,-2.20486 -0.886718,-2.96875 -0.590277,-0.77083 -1.322268,-1.27083 -2.197266,-1.5 -0.569443,-0.15278 -1.79102,-0.23047 -3.666016,-0.23047 z m 3.083984,2.58399 h 1.490234 c 1.111109,0 1.850696,0.0341 2.21875,0.10351 0.499999,0.0903 0.911894,0.31663 1.238282,0.67774 0.326388,0.36111 0.490234,0.81944 0.490234,1.375 0,0.45138 -0.117405,0.84722 -0.353516,1.1875 -0.229166,0.34027 -0.549263,0.59028 -0.958984,0.75 -0.409721,0.15972 -1.222225,0.24023 -2.4375,0.24023 h -1.6875 z m 15.615234,1.375 c -1.08333,0 -2.067276,0.23958 -2.949218,0.71875 -0.874998,0.47916 -1.552085,1.17426 -2.03125,2.08398 -0.479166,0.90972 -0.71875,1.85005 -0.71875,2.82227 0,1.27083 0.239584,2.35134 0.71875,3.24023 0.479165,0.88194 1.177085,1.55143 2.09375,2.00977 0.923608,0.45833 1.892363,0.6875 2.90625,0.6875 1.638884,0 2.997832,-0.54927 4.074218,-1.64649 1.083331,-1.10416 1.625,-2.49241 1.625,-4.16601 0,-1.65972 -0.536027,-3.03191 -1.605468,-4.11524 -1.069442,-1.09027 -2.439675,-1.63476 -4.113282,-1.63476 z m 11.300782,0 c -1.048609,0 -1.981339,0.2424 -2.800782,0.72851 -0.819442,0.48611 -1.355469,1.21528 -1.605468,2.1875 l 2.480468,0.53125 c 0.25,-0.625 0.526477,-1.02083 0.832032,-1.1875 0.305554,-0.16666 0.65408,-0.25 1.042968,-0.25 0.506944,0 0.884767,0.15061 1.134766,0.44922 0.256944,0.29167 0.384766,0.60981 0.384766,0.95703 0,0.32639 -0.104168,0.61806 -0.3125,0.875 -0.201389,0.25 -0.415366,0.41103 -0.644532,0.48047 -0.229166,0.0625 -0.598525,0.0937 -1.105468,0.0937 v 1.90625 h 0.5 c 0.555554,0 1.003473,0.125 1.34375,0.375 0.347221,0.24306 0.521484,0.57921 0.521484,1.00977 0,0.38888 -0.166668,0.72982 -0.5,1.02148 -0.326388,0.28472 -0.76389,0.42578 -1.3125,0.42578 -0.993053,0 -1.704211,-0.54167 -2.134766,-1.625 l -2.677734,0.49024 c 0.590276,2.06249 2.204868,3.09375 4.84375,3.09375 1.513885,0 2.672962,-0.30968 3.478516,-0.92774 0.805553,-0.625 1.208984,-1.3674 1.208984,-2.22851 0,-0.67361 -0.205513,-1.23612 -0.615234,-1.6875 -0.402777,-0.45139 -1.012589,-0.78755 -1.832032,-1.00977 0.680554,-0.32639 1.175782,-0.67773 1.488282,-1.05273 0.319443,-0.38195 0.480468,-0.86112 0.480468,-1.4375 0,-0.92361 -0.369359,-1.69163 -1.105468,-2.30274 -0.729165,-0.61111 -1.76042,-0.91601 -3.09375,-0.91601 z m 35.843751,0 c -1.4375,0 -2.52084,0.25759 -3.25,0.77148 -0.72917,0.51389 -1.24241,1.30556 -1.54102,2.375 l 2.65625,0.47852 c 0.18056,-0.51389 0.41732,-0.87088 0.70899,-1.07227 0.29166,-0.20833 0.69792,-0.3125 1.21875,-0.3125 0.77083,0 1.29449,0.12023 1.57226,0.36328 0.27778,0.23611 0.41602,0.63672 0.41602,1.19922 v 0.29102 c -0.52778,0.22222 -1.4757,0.4618 -2.84375,0.71875 -1.01389,0.19444 -1.79037,0.42361 -2.33203,0.6875 -0.53472,0.25694 -0.95139,0.63194 -1.25,1.125 -0.29861,0.48611 -0.44922,1.04101 -0.44922,1.66601 0,0.94444 0.32769,1.7257 0.98047,2.34375 0.65972,0.61806 1.55838,0.92774 2.69726,0.92774 0.64584,0 1.25283,-0.12218 1.82227,-0.36524 0.56944,-0.24305 1.10547,-0.60764 1.60547,-1.09375 0.0208,0.0556 0.0549,0.17014 0.10351,0.34375 0.11111,0.38195 0.20487,0.67079 0.28125,0.86524 h 2.89649 c -0.25695,-0.52778 -0.43403,-1.02019 -0.53125,-1.47852 -0.0903,-0.46528 -0.13672,-1.18403 -0.13672,-2.15625 l 0.0312,-3.41797 c 0,-1.27083 -0.13064,-2.14106 -0.39453,-2.61328 -0.25695,-0.47916 -0.70486,-0.87218 -1.34375,-1.17773 -0.63889,-0.3125 -1.61242,-0.46875 -2.91797,-0.46875 z m -21.269533,0.17773 c -0.72222,0 -1.305556,0.15148 -1.75,0.45703 -0.444443,0.30556 -0.855469,1.00348 -1.230468,2.09375 -0.284722,0.81944 -0.527128,1.3507 -0.728516,1.59375 -0.201388,0.24306 -0.54514,0.39367 -1.03125,0.44922 v -4.52148 h -2.916016 v 11.0625 h 2.916016 v -4.71875 c 0.430554,0 0.753473,0.0937 0.96875,0.28125 0.222222,0.18055 0.48264,0.5944 0.78125,1.24023 l 1.458984,3.19727 h 3.144532 l -1.634766,-3.05274 c -0.04167,-0.0764 -0.08051,-0.1493 -0.115234,-0.21875 -0.638888,-1.34722 -1.420142,-2.1493 -2.34375,-2.40625 0.638887,-0.23611 1.128473,-0.86393 1.46875,-1.88476 0.249999,-0.75695 0.483941,-1.21246 0.699218,-1.36524 0.215278,-0.14583 0.707685,-0.21875 1.478516,-0.21875 l -0.0098,-1.9375 c -0.548609,-0.0347 -0.934028,-0.0508 -1.15625,-0.0508 z m 4.187503,0.0723 v 6.39648 c 0,1.1875 -0.0464,1.91189 -0.13672,2.17578 -0.0903,0.25695 -0.33268,0.38672 -0.72852,0.38672 -0.16666,0 -0.40343,-0.0104 -0.708981,-0.0312 -0.263889,-0.0139 -0.425782,-0.0215 -0.488282,-0.0215 v 2.15625 c 0.763893,0.125 1.378473,0.1875 1.843753,0.1875 0.78472,0 1.35286,-0.0805 1.70703,-0.24024 0.35417,-0.15972 0.67708,-0.49305 0.96875,-1 0.29167,-0.51388 0.4375,-1.40213 0.4375,-2.66601 v -4.96875 h 3.99023 v 8.6875 h 2.91602 v -11.0625 z m 26.04101,0 c -0.0625,2.8611 -0.25759,4.88194 -0.58398,6.0625 -0.32639,1.18055 -0.73828,2.04796 -1.23828,2.60351 h -1.19922 v 5.3125 h 2.375 v -2.91601 h 8.375 v 2.91601 h 2.38672 v -5.3125 h -1.1875 v -8.66601 z m -56.093747,2.13476 c 0.763887,0 1.402128,0.29167 1.916016,0.875 0.520832,0.58333 0.78125,1.41667 0.78125,2.5 0,1.11111 -0.260418,1.95964 -0.78125,2.54297 -0.513888,0.58333 -1.152129,0.875 -1.916016,0.875 -0.763887,0 -1.406902,-0.29167 -1.927734,-0.875 -0.520832,-0.58333 -0.78125,-1.42426 -0.78125,-2.52148 0,-1.09722 0.260418,-1.93816 0.78125,-2.52149 0.520832,-0.58333 1.163847,-0.875 1.927734,-0.875 z m 58.593747,0.27149 h 3.54102 l -0.01,6.25976 h -4.99023 c 0.85416,-1.11805 1.34093,-3.20422 1.45898,-6.25976 z m -9.67773,3.34375 v 0.58398 c 0,0.70139 -0.0369,1.17578 -0.11328,1.42578 -0.11111,0.38195 -0.34505,0.70486 -0.69922,0.96875 -0.47917,0.34722 -0.98199,0.52149 -1.50977,0.52149 -0.47222,0 -0.86046,-0.14866 -1.16601,-0.44727 -0.30556,-0.29861 -0.45899,-0.65278 -0.45899,-1.0625 0,-0.41666 0.19033,-0.76042 0.57227,-1.03125 0.25,-0.16666 0.78125,-0.33811 1.59375,-0.51172 0.8125,-0.17361 1.40625,-0.32226 1.78125,-0.44726 z m -42.525392,14.64258 c -0.736109,0 -1.405601,0.17231 -2.009766,0.51953 -0.604165,0.34722 -1.083334,0.79991 -1.4375,1.35547 v -1.625 h -2.730468 v 15.26953 h 2.927734 v -5.57227 c 0.54861,0.59028 1.069446,1.00695 1.5625,1.25 0.499999,0.24306 1.054906,0.36524 1.666016,0.36524 1.284719,0 2.378474,-0.51042 3.28125,-1.53125 0.902775,-1.02778 1.355468,-2.46529 1.355468,-4.3125 0,-1.79861 -0.447919,-3.20205 -1.34375,-4.20899 -0.895831,-1.00694 -1.986765,-1.50976 -3.271484,-1.50976 z m 5.271484,0.25 4.207032,11.09375 c -0.173611,0.61805 -0.423612,1.12369 -0.75,1.51953 -0.326388,0.40277 -0.829212,0.60547 -1.509766,0.60547 -0.368055,0 -0.781902,-0.0464 -1.240234,-0.13672 l 0.261718,2.29297 c 0.541666,0.11805 1.093752,0.17578 1.65625,0.17578 0.555554,0 1.050783,-0.0577 1.488282,-0.17578 0.444443,-0.11806 0.816624,-0.28473 1.115234,-0.5 0.305555,-0.20834 0.573568,-0.48395 0.802734,-0.82422 0.236111,-0.34028 0.481338,-0.83269 0.738282,-1.47852 l 0.699218,-1.92773 3.90625,-10.64453 h -3.03125 l -2.583984,7.85351 -2.646484,-7.85351 z m 12.269532,0 3.824218,5.36328 -3.990234,5.69922 h 3.427734 l 2.269528,-3.42774 2.25,3.42774 h 3.59375 l -4.09375,-5.82422 3.75,-5.23828 h -3.4375 l -2.0625,3.04101 -1.957028,-3.04101 z m 11.980466,0 4.20703,11.09375 c -0.17361,0.61805 -0.42361,1.12369 -0.75,1.51953 -0.32638,0.40277 -0.82921,0.60547 -1.50976,0.60547 -0.36806,0 -0.7819,-0.0464 -1.24024,-0.13672 l 0.26172,2.29297 c 0.54167,0.11805 1.09375,0.17578 1.65625,0.17578 0.55556,0 1.05079,-0.0577 1.48828,-0.17578 0.44445,-0.11806 0.81663,-0.28473 1.11524,-0.5 0.30555,-0.20834 0.57357,-0.48395 0.80273,-0.82422 0.23611,-0.34028 0.48134,-0.83269 0.73828,-1.47852 l 0.69922,-1.92773 3.90625,-10.64453 h -3.03125 l -2.58398,7.85351 -2.64649,-7.85351 z m -30.312498,2.0625 c 0.687499,0 1.263239,0.28125 1.728516,0.84375 0.465277,0.56249 0.697266,1.42231 0.697266,2.58203 0,1.24305 -0.224394,2.13889 -0.675782,2.6875 -0.451387,0.54166 -1.018665,0.8125 -1.699218,0.8125 -0.708332,0 -1.307727,-0.29449 -1.800782,-0.88477 -0.493054,-0.59722 -0.740234,-1.51671 -0.740234,-2.75976 0,-1.08334 0.236763,-1.90061 0.708984,-2.44922 0.472221,-0.55556 1.065974,-0.83203 1.78125,-0.83203 z" />
  </g>
</svg>
