<?xml version="1.0" encoding="UTF-8" standalone="no"?>
<!-- Created with Inkscape (http://www.inkscape.org/) -->

<svg
   height="280"
   id="svg2"
   inkscape:output_extension="org.inkscape.output.svg.inkscape"
   inkscape:version="1.3 (0e150ed6c4, 2023-07-21)"
   sodipodi:docname="5.45.1.svg"
   sodipodi:version="0.32"
   version="1.0"
   width="200"
   xml:space="preserve"
   xmlns:inkscape="http://www.inkscape.org/namespaces/inkscape"
   xmlns:sodipodi="http://sodipodi.sourceforge.net/DTD/sodipodi-0.dtd"
   xmlns="http://www.w3.org/2000/svg"
   xmlns:svg="http://www.w3.org/2000/svg"
   xmlns:rdf="http://www.w3.org/1999/02/22-rdf-syntax-ns#"
   xmlns:cc="http://creativecommons.org/ns#"
   xmlns:dc="http://purl.org/dc/elements/1.1/"><title
     id="title1">Інформаційно-вказівні знаки » Дорожні знаки » ПДР Тест Центр</title><metadata
     id="metadata7"><rdf:RDF><cc:Work
         rdf:about=""><dc:format>&#10;					image/svg+xml&#10;				</dc:format><dc:type
           rdf:resource="http://purl.org/dc/dcmitype/StillImage" /><dc:title>Інформаційно-вказівні знаки » Дорожні знаки » ПДР Тест Центр</dc:title><cc:license
           rdf:resource="http://creativecommons.org/licenses/by-nc-sa/4.0/" /><dc:creator><cc:Agent><dc:title>ПДР Тест Центр | PDR Test Center</dc:title></cc:Agent></dc:creator><dc:rights><cc:Agent><dc:title>ПДР Тест Центр | PDR Test Center</dc:title></cc:Agent></dc:rights><dc:language>uk-UA</dc:language><dc:date>2023-09-01</dc:date><dc:publisher><cc:Agent><dc:title>https://pdrtest.com/</dc:title></cc:Agent></dc:publisher><dc:source>https://pdrtest.com/driver/rules/section/33.5</dc:source></cc:Work><cc:License
         rdf:about="http://creativecommons.org/licenses/by-nc-sa/4.0/"><cc:permits
           rdf:resource="http://creativecommons.org/ns#Reproduction" /><cc:permits
           rdf:resource="http://creativecommons.org/ns#Distribution" /><cc:requires
           rdf:resource="http://creativecommons.org/ns#Notice" /><cc:requires
           rdf:resource="http://creativecommons.org/ns#Attribution" /><cc:prohibits
           rdf:resource="http://creativecommons.org/ns#CommercialUse" /><cc:permits
           rdf:resource="http://creativecommons.org/ns#DerivativeWorks" /><cc:requires
           rdf:resource="http://creativecommons.org/ns#ShareAlike" /></cc:License></rdf:RDF></metadata><defs
     id="defs5"><inkscape:path-effect
       effect="fillet_chamfer"
       id="path-effect1"
       is_visible="true"
       lpeversion="1"
       nodesatellites_param="F,0,0,1,0,2.1827315,0,1 @ F,0,0,1,0,0,0,1 @ F,0,0,1,0,1.9991989,0,1 @ F,0,0,1,0,0,0,1 @ F,0,0,1,0,0,0,1 @ F,0,0,1,0,0,0,1 @ F,0,0,1,0,0,0,1 @ F,0,0,1,0,0,0,1 @ F,0,0,1,0,0,0,1 @ F,0,0,1,0,0,0,1 @ F,0,0,1,0,0,0,1 @ F,0,0,1,0,0,0,1 @ F,0,0,1,0,0,0,1 @ F,0,0,1,0,3.2853256,0,1 @ F,0,0,1,0,2.4543327,0,1 @ F,0,0,1,0,3.1479765,0,1 | F,0,0,1,0,1.481013,0,1 @ F,0,0,1,0,0,0,1 @ F,0,0,1,0,0,0,1 @ F,0,0,1,0,0,0,1 @ F,0,0,1,0,0,0,1 @ F,0,0,1,0,0,0,1 @ F,0,0,1,0,0,0,1 | F,0,0,1,0,0,0,1 @ F,0,0,1,0,0,0,1 @ F,0,0,1,0,0,0,1 @ F,0,0,1,0,0,0,1 @ F,0,0,1,0,0,0,1 @ F,0,0,1,0,0,0,1 @ F,0,0,1,0,0,0,1 @ F,0,0,1,0,0,0,1 | F,0,0,1,0,0,0,1 @ F,0,0,1,0,0,0,1 @ F,0,0,1,0,0,0,1 @ F,0,0,1,0,0,0,1 @ F,0,0,1,0,0,0,1 @ F,0,0,1,0,0,0,1 @ F,0,0,1,0,0,0,1 @ F,0,0,1,0,0,0,1 | F,0,0,1,0,0,0,1 @ F,0,0,1,0,2.226972,0,1 @ F,0,0,1,0,0,0,1 @ F,0,0,1,0,0,0,1 @ F,0,0,1,0,0,0,1 @ F,0,0,1,0,0,0,1 @ F,0,0,1,0,0,0,1 | F,0,0,1,0,0,0,1 @ F,0,0,1,0,0,0,1 @ F,0,0,1,0,0,0,1 @ F,0,0,1,0,0,0,1 | F,0,0,1,0,0,0,1 @ F,0,0,1,0,0,0,1 @ F,0,0,1,0,0,0,1 @ F,0,0,1,0,0,0,1 | F,0,0,1,0,0,0,1 @ F,0,0,1,0,0,0,1 @ F,0,0,1,0,0,0,1 @ F,0,0,1,0,0,0,1 | F,0,0,1,0,0,0,1 @ F,0,0,1,0,0,0,1 @ F,0,0,1,0,0,0,1 @ F,0,0,1,0,0,0,1"
       radius="0"
       unit="px"
       method="auto"
       mode="F"
       chamfer_steps="1"
       flexible="false"
       use_knot_distance="true"
       apply_no_radius="true"
       apply_with_radius="true"
       only_selected="false"
       hide_knots="false" /><inkscape:perspective
       id="perspective9"
       inkscape:persp3d-origin="372.04724 : 361.15442 : 1"
       inkscape:vp_x="0 : 536.54812 : 1"
       inkscape:vp_y="0 : 1000 : 0"
       inkscape:vp_z="744.09448 : 536.54812 : 1"
       sodipodi:type="inkscape:persp3d" /><inkscape:perspective
       id="perspective2411"
       inkscape:persp3d-origin="372.04724 : 361.15442 : 1"
       inkscape:vp_x="0 : 536.54812 : 1"
       inkscape:vp_y="0 : 1000 : 0"
       inkscape:vp_z="744.09448 : 536.54812 : 1"
       sodipodi:type="inkscape:persp3d" /><inkscape:perspective
       id="perspective109"
       inkscape:persp3d-origin="372.04724 : 361.15442 : 1"
       inkscape:vp_x="0 : 536.54812 : 1"
       inkscape:vp_y="0 : 1000 : 0"
       inkscape:vp_z="744.09448 : 536.54812 : 1"
       sodipodi:type="inkscape:persp3d" /><inkscape:perspective
       id="perspective118"
       inkscape:persp3d-origin="372.04724 : 361.15442 : 1"
       inkscape:vp_x="0 : 536.54812 : 1"
       inkscape:vp_y="0 : 1000 : 0"
       inkscape:vp_z="744.09448 : 536.54812 : 1"
       sodipodi:type="inkscape:persp3d" /><inkscape:perspective
       id="perspective179"
       inkscape:persp3d-origin="372.04724 : 361.15442 : 1"
       inkscape:vp_x="0 : 536.54812 : 1"
       inkscape:vp_y="0 : 1000 : 0"
       inkscape:vp_z="744.09448 : 536.54812 : 1"
       sodipodi:type="inkscape:persp3d" /><inkscape:perspective
       id="perspective2573"
       inkscape:persp3d-origin="372.04724 : 361.15442 : 1"
       inkscape:vp_x="0 : 536.54812 : 1"
       inkscape:vp_y="0 : 1000 : 0"
       inkscape:vp_z="744.09448 : 536.54812 : 1"
       sodipodi:type="inkscape:persp3d" /><inkscape:perspective
       id="perspective2426"
       inkscape:persp3d-origin="372.04724 : 361.15442 : 1"
       inkscape:vp_x="0 : 536.54812 : 1"
       inkscape:vp_y="0 : 1000 : 0"
       inkscape:vp_z="744.09448 : 536.54812 : 1"
       sodipodi:type="inkscape:persp3d" /></defs><sodipodi:namedview
     bordercolor="#666666"
     borderopacity="1.0"
     gridtolerance="10.0"
     guidetolerance="10.0"
     id="base"
     inkscape:current-layer="svg2"
     inkscape:cx="193.04015"
     inkscape:cy="95.105859"
     inkscape:guide-bbox="true"
     inkscape:pageopacity="0.0"
     inkscape:pageshadow="2"
     inkscape:window-height="1009"
     inkscape:window-width="1920"
     inkscape:zoom="1.4142136"
     objecttolerance="10.0"
     pagecolor="#ffffff"
     showgrid="false"
     showguides="false"
     inkscape:showpageshadow="2"
     inkscape:pagecheckerboard="0"
     inkscape:deskcolor="#d1d1d1"
     inkscape:window-x="-8"
     inkscape:window-y="-8"
     inkscape:window-maximized="1" /><g
     id="g3286"
     transform="translate(5.002215,5.194346)"
     inkscape:label="sign_5_45_1"><path
       d="M 20.761302,2.3941002 H 169.14016 c 11.82057,0 21.33676,9.3113448 21.33676,20.8774548 V 266.61171 c 0,11.56611 -9.51619,20.87745 -21.33676,20.87745 H 20.761302 c -11.8205654,0 -21.33676106,-9.31134 -21.33676106,-20.87745 V 23.271555 c 0,-11.56611 9.51619566,-20.8774548 21.33676106,-20.8774548 z"
       id="rect3292"
       style="fill:#ffffff;fill-opacity:1;fill-rule:nonzero;stroke:#000000;stroke-width:2.07113;stroke-linecap:round;stroke-linejoin:miter;stroke-miterlimit:4;stroke-dasharray:none;stroke-opacity:1"
       transform="matrix(0.9894239,0,0,0.9424637,1.051263,-1.796571)"
       inkscape:label="bg" /><path
       d="M 25.409315,8.3852024 H 164.49215 c 11.08,0 20,8.9199996 20,19.9999996 V 261.49806 c 0,11.08 -8.92,20 -20,20 H 25.409315 c -11.08,0 -20.0000004,-8.92 -20.0000004,-20 V 28.385202 c 0,-11.08 8.9200004,-19.9999996 20.0000004,-19.9999996 z"
       id="rect3280"
       style="fill:#0000ff;fill-opacity:1;fill-rule:nonzero;stroke:none;stroke-width:2;stroke-linecap:round;stroke-linejoin:miter;stroke-miterlimit:4;stroke-opacity:1"
       transform="matrix(0.9894239,0,0,0.9424637,1.051263,-1.796571)"
       inkscape:label="blue" /><path
       d="M 37.323893,45.67495 H 152.57757 c 8.864,0 16,7.136 16,16 v 129.70399 c 0,8.864 -7.136,16 -16,16 H 37.323893 c -8.864,0 -16,-7.136 -16,-16 V 61.67495 c 0,-8.864 7.136,-16 16,-16 z"
       id="rect3286"
       style="fill:#ffffff;fill-opacity:1;fill-rule:nonzero;stroke:none;stroke-width:2;stroke-linecap:round;stroke-linejoin:miter;stroke-miterlimit:4;stroke-opacity:1"
       inkscape:label="white"
       transform="matrix(0.9894239,0,0,0.9424637,1.051263,-1.796571)" /><path
       id="path2459"
       style="opacity:1;fill:#000000;fill-opacity:1;fill-rule:nonzero;stroke:none;stroke-width:4.64826;stroke-linecap:round;stroke-linejoin:miter;stroke-miterlimit:4;stroke-dasharray:none;stroke-opacity:1"
       inkscape:label="sign"
       d="m 52.910339,90.261799 c -1.732988,10e-7 -4.548157,0.360726 -5.878906,1.429688 -4.532456,3.640823 -11.798423,13.315543 -14.21875,18.097653 -0.6061,1.19755 -0.814453,3.38519 -0.814453,4.73633 v 20.41797 c 9e-5,1.80847 1.466922,3.2753 3.27539,3.27539 h 13.798829 c -0.0536,-0.45423 -0.06445,-0.92996 -0.06445,-1.39844 0,-6.49525 5.270382,-11.76757 11.765625,-11.76757 6.495224,0 11.767559,5.27232 11.767579,11.76757 0,0.46848 -0.0092,0.94421 -0.0625,1.39844 H 94.99823 V 90.261799 Z m 42.091797,0 v 47.957031 h 22.519544 c -0.0533,-0.45423 -0.0625,-0.92996 -0.0625,-1.39844 2e-5,-6.49525 5.27235,-11.76757 11.76757,-11.76757 6.49524,0 11.76562,5.27232 11.76562,11.76757 0,0.46848 -0.0109,0.94421 -0.0645,1.39844 h 13.79883 c 1.80847,-9e-5 3.27529,-1.46692 3.27538,-3.27539 v -20.41797 c 0,-1.35114 -0.20835,-3.53878 -0.81445,-4.73633 -2.42033,-4.78211 -9.68628,-14.45683 -14.21875,-18.097653 -1.33075,-1.068962 -4.14591,-1.429687 -5.8789,-1.429688 z m -40.699219,3.847657 h 11.023438 c 1.271868,0 2.289062,1.170373 2.289062,2.451172 v 11.636722 c 0,1.28508 -3.558131,2.72656 -2.289062,2.72656 h -21.90625 c -1.264839,0 -2.719102,-1.51358 -2.289063,-2.72656 0,-2.83353 5.412061,-10.510407 8.966797,-13.167972 0.967509,-0.723338 2.979109,-0.919922 4.205078,-0.919922 z m 19.103516,0 h 17.445312 c 1.271789,0 2.28711,1.163266 2.28711,2.451172 v 11.636722 c 0,1.28789 -1.015291,2.72656 -2.28711,2.72656 H 73.406433 c -1.270399,0 -2.292969,-1.43867 -2.292969,-2.72656 V 96.560628 c 0,-1.287906 1.02257,-2.451172 2.292969,-2.451172 z m 25.742187,0 h 17.44532 c 1.2704,0 2.29297,1.163266 2.29297,2.451172 v 11.636722 c 0,1.28789 -1.02257,2.72656 -2.29297,2.72656 H 99.14862 c -1.271825,0 -2.287109,-1.43867 -2.287109,-2.72656 V 96.560628 c 0,-1.287906 1.015313,-2.451172 2.287109,-2.451172 z m 25.5254,0 h 11.02343 c 1.22597,0 3.23758,0.196584 4.20508,0.919922 3.55473,2.657565 8.9668,10.334442 8.9668,13.167972 0.43004,1.21298 -1.02423,2.72656 -2.28906,2.72656 h -21.90625 c 1.26907,0 -2.28906,-1.44148 -2.28906,-2.72656 V 96.560628 c 0,-1.280799 1.01719,-2.451172 2.28906,-2.451172 z m -63.9004,32.976564 c -5.667684,0 -10.324218,4.60769 -10.324218,10.27539 0,5.66766 4.656534,10.32812 10.324218,10.32812 5.667665,0 10.328125,-4.66046 10.328125,-10.32812 0,-5.6677 -4.66046,-10.27539 -10.328125,-10.27539 z m 68.45313,0 c -5.66766,0 -10.32812,4.60769 -10.32812,10.27539 0,5.66766 4.66046,10.32812 10.32812,10.32812 5.66768,0 10.32421,-4.66046 10.32421,-10.32812 0,-5.6677 -4.65653,-10.27539 -10.32421,-10.27539 z m -68.45313,3.6582 c 3.685437,0 6.621094,2.93172 6.621094,6.61719 0,3.68545 -2.935657,6.66797 -6.621094,6.66797 -3.685456,0 -6.617187,-2.98252 -6.617187,-6.66797 0,-3.68547 2.931731,-6.61719 6.617187,-6.61719 z m 68.45313,0 c 3.68546,0 6.61718,2.93172 6.61718,6.61719 0,3.68545 -2.93172,6.66797 -6.61718,6.66797 -3.68543,0 -6.62109,-2.98252 -6.62109,-6.66797 0,-3.68547 2.93566,-6.61719 6.62109,-6.61719 z" /></g></svg>
