<?xml version="1.0" encoding="UTF-8" standalone="no"?>
<!-- Created with Inkscape (http://www.inkscape.org/) -->

<svg
   height="280"
   id="svg2"
   inkscape:output_extension="org.inkscape.output.svg.inkscape"
   inkscape:version="1.3 (0e150ed6c4, 2023-07-21)"
   sodipodi:docname="5.46.1.svg"
   sodipodi:version="0.32"
   version="1.0"
   width="200"
   xml:space="preserve"
   xmlns:inkscape="http://www.inkscape.org/namespaces/inkscape"
   xmlns:sodipodi="http://sodipodi.sourceforge.net/DTD/sodipodi-0.dtd"
   xmlns="http://www.w3.org/2000/svg"
   xmlns:svg="http://www.w3.org/2000/svg"
   xmlns:rdf="http://www.w3.org/1999/02/22-rdf-syntax-ns#"
   xmlns:cc="http://creativecommons.org/ns#"
   xmlns:dc="http://purl.org/dc/elements/1.1/"><title
     id="title1">Інформаційно-вказівні знаки » Дорожні знаки » ПДР Тест Центр</title><metadata
     id="metadata7"><rdf:RDF><cc:Work
         rdf:about=""><dc:format>&#10;					image/svg+xml&#10;				</dc:format><dc:type
           rdf:resource="http://purl.org/dc/dcmitype/StillImage" /><dc:title>Інформаційно-вказівні знаки » Дорожні знаки » ПДР Тест Центр</dc:title><cc:license
           rdf:resource="http://creativecommons.org/licenses/by-nc-sa/4.0/" /><dc:creator><cc:Agent><dc:title>ПДР Тест Центр | PDR Test Center</dc:title></cc:Agent></dc:creator><dc:rights><cc:Agent><dc:title>ПДР Тест Центр | PDR Test Center</dc:title></cc:Agent></dc:rights><dc:language>uk-UA</dc:language><dc:date>2023-09-01</dc:date><dc:publisher><cc:Agent><dc:title>https://pdrtest.com/</dc:title></cc:Agent></dc:publisher><dc:source>https://pdrtest.com/driver/rules/section/33.5</dc:source></cc:Work><cc:License
         rdf:about="http://creativecommons.org/licenses/by-nc-sa/4.0/"><cc:permits
           rdf:resource="http://creativecommons.org/ns#Reproduction" /><cc:permits
           rdf:resource="http://creativecommons.org/ns#Distribution" /><cc:requires
           rdf:resource="http://creativecommons.org/ns#Notice" /><cc:requires
           rdf:resource="http://creativecommons.org/ns#Attribution" /><cc:prohibits
           rdf:resource="http://creativecommons.org/ns#CommercialUse" /><cc:permits
           rdf:resource="http://creativecommons.org/ns#DerivativeWorks" /><cc:requires
           rdf:resource="http://creativecommons.org/ns#ShareAlike" /></cc:License></rdf:RDF></metadata><defs
     id="defs5"><inkscape:path-effect
       effect="fillet_chamfer"
       id="path-effect1"
       is_visible="true"
       lpeversion="1"
       nodesatellites_param="F,0,0,1,0,2.5770435,0,1 @ F,0,0,1,0,3.8888028,0,1 @ F,0,0,1,0,3.041531,0,1 @ F,0,0,1,0,3.041531,0,1 @ F,0,0,1,0,3.7430994,0,1 @ F,0,0,1,0,3.7430994,0,1 @ F,0,0,1,0,3.041531,0,1 @ F,0,0,1,0,3.041531,0,1 @ F,0,0,1,0,2.7373957,0,1 @ F,0,0,1,0,2.6241113,0,1 | F,0,0,1,0,0,0,1 @ F,0,0,1,0,0,0,1 @ F,0,0,1,0,0,0,1 @ F,0,0,1,0,0,0,1 @ F,0,0,1,0,0,0,1 @ F,0,0,1,0,0,0,1 @ F,0,0,1,0,0,0,1 | F,0,0,1,0,0,0,1 @ F,0,0,1,0,0,0,1 @ F,0,0,1,0,0,0,1 @ F,0,0,1,0,0,0,1 @ F,0,0,1,0,0,0,1 @ F,0,0,1,0,0,0,1 @ F,0,0,1,0,0,0,1 @ F,0,0,1,0,0,0,1 | F,0,0,1,0,0,0,1 @ F,0,0,1,0,0,0,1 @ F,0,0,1,0,0,0,1 @ F,0,0,1,0,0,0,1 @ F,0,0,1,0,0,0,1 @ F,0,0,1,0,0,0,1 @ F,0,0,1,0,0,0,1 @ F,0,0,1,0,0,0,1 @ F,0,0,1,0,0,0,1 | F,0,0,1,0,0,0,1 @ F,0,0,1,0,0,0,1 @ F,0,0,1,0,0,0,1 @ F,0,0,1,0,0,0,1 @ F,0,0,1,0,0,0,1 @ F,0,0,1,0,0,0,1 @ F,0,0,1,0,0,0,1 | F,0,0,1,0,0,0,1 @ F,0,0,1,0,0,0,1 @ F,0,0,1,0,0,0,1 @ F,0,0,1,0,0,0,1 @ F,0,0,1,0,0,0,1 @ F,0,0,1,0,0,0,1 @ F,0,0,1,0,0,0,1 @ F,0,0,1,0,0,0,1"
       radius="0"
       unit="px"
       method="auto"
       mode="F"
       chamfer_steps="1"
       flexible="false"
       use_knot_distance="true"
       apply_no_radius="true"
       apply_with_radius="true"
       only_selected="false"
       hide_knots="false" /><inkscape:perspective
       id="perspective9"
       inkscape:persp3d-origin="372.04724 : 361.15442 : 1"
       inkscape:vp_x="0 : 536.54812 : 1"
       inkscape:vp_y="0 : 1000 : 0"
       inkscape:vp_z="744.09448 : 536.54812 : 1"
       sodipodi:type="inkscape:persp3d" /><inkscape:perspective
       id="perspective2411"
       inkscape:persp3d-origin="372.04724 : 361.15442 : 1"
       inkscape:vp_x="0 : 536.54812 : 1"
       inkscape:vp_y="0 : 1000 : 0"
       inkscape:vp_z="744.09448 : 536.54812 : 1"
       sodipodi:type="inkscape:persp3d" /><inkscape:perspective
       id="perspective109"
       inkscape:persp3d-origin="372.04724 : 361.15442 : 1"
       inkscape:vp_x="0 : 536.54812 : 1"
       inkscape:vp_y="0 : 1000 : 0"
       inkscape:vp_z="744.09448 : 536.54812 : 1"
       sodipodi:type="inkscape:persp3d" /><inkscape:perspective
       id="perspective118"
       inkscape:persp3d-origin="372.04724 : 361.15442 : 1"
       inkscape:vp_x="0 : 536.54812 : 1"
       inkscape:vp_y="0 : 1000 : 0"
       inkscape:vp_z="744.09448 : 536.54812 : 1"
       sodipodi:type="inkscape:persp3d" /><inkscape:perspective
       id="perspective179"
       inkscape:persp3d-origin="372.04724 : 361.15442 : 1"
       inkscape:vp_x="0 : 536.54812 : 1"
       inkscape:vp_y="0 : 1000 : 0"
       inkscape:vp_z="744.09448 : 536.54812 : 1"
       sodipodi:type="inkscape:persp3d" /><inkscape:perspective
       id="perspective2573"
       inkscape:persp3d-origin="372.04724 : 361.15442 : 1"
       inkscape:vp_x="0 : 536.54812 : 1"
       inkscape:vp_y="0 : 1000 : 0"
       inkscape:vp_z="744.09448 : 536.54812 : 1"
       sodipodi:type="inkscape:persp3d" /></defs><sodipodi:namedview
     bordercolor="#666666"
     borderopacity="1.0"
     gridtolerance="10.0"
     guidetolerance="10.0"
     id="base"
     inkscape:current-layer="svg2"
     inkscape:cx="84.999996"
     inkscape:cy="145.74999"
     inkscape:guide-bbox="true"
     inkscape:pageopacity="0.0"
     inkscape:pageshadow="2"
     inkscape:window-height="1009"
     inkscape:window-width="1920"
     inkscape:zoom="2.0000001"
     objecttolerance="10.0"
     pagecolor="#ffffff"
     showgrid="false"
     showguides="false"
     inkscape:showpageshadow="2"
     inkscape:pagecheckerboard="0"
     inkscape:deskcolor="#d1d1d1"
     inkscape:window-x="-8"
     inkscape:window-y="-8"
     inkscape:window-maximized="1" /><g
     id="g3440"
     transform="translate(5.002215,5.194346)"
     inkscape:label="sign_5_46_1"><path
       d="M 20.761302,2.3941002 H 169.14016 c 11.82057,0 21.33676,9.3113448 21.33676,20.8774548 V 266.61171 c 0,11.56611 -9.51619,20.87745 -21.33676,20.87745 H 20.761302 c -11.8205654,0 -21.33676106,-9.31134 -21.33676106,-20.87745 V 23.271555 c 0,-11.56611 9.51619566,-20.8774548 21.33676106,-20.8774548 z"
       id="rect3292"
       style="fill:#ffffff;fill-opacity:1;fill-rule:nonzero;stroke:#000000;stroke-width:2.07113;stroke-linecap:round;stroke-linejoin:miter;stroke-miterlimit:4;stroke-dasharray:none;stroke-opacity:1"
       transform="matrix(0.9894239,0,0,0.9424637,1.051263,-1.796571)"
       inkscape:label="bg" /><path
       d="M 25.409315,8.3852024 H 164.49215 c 11.08,0 20,8.9199996 20,19.9999996 V 261.49806 c 0,11.08 -8.92,20 -20,20 H 25.409315 c -11.08,0 -20.0000004,-8.92 -20.0000004,-20 V 28.385202 c 0,-11.08 8.9200004,-19.9999996 20.0000004,-19.9999996 z"
       id="rect3280"
       style="fill:#0000ff;fill-opacity:1;fill-rule:nonzero;stroke:none;stroke-width:2;stroke-linecap:round;stroke-linejoin:miter;stroke-miterlimit:4;stroke-opacity:1"
       transform="matrix(0.9894239,0,0,0.9424637,1.051263,-1.796571)"
       inkscape:label="blue" /><path
       d="M 37.323893,45.67495 H 152.57757 c 8.864,0 16,7.136 16,16 v 129.70399 c 0,8.864 -7.136,16 -16,16 H 37.323893 c -8.864,0 -16,-7.136 -16,-16 V 61.67495 c 0,-8.864 7.136,-16 16,-16 z"
       id="rect3286"
       style="fill:#ffffff;fill-opacity:1;fill-rule:nonzero;stroke:none;stroke-width:2;stroke-linecap:round;stroke-linejoin:miter;stroke-miterlimit:4;stroke-opacity:1"
       transform="matrix(0.9894239,0,0,0.9424637,1.051263,-1.796571)"
       inkscape:label="white" /><path
       id="path2622"
       style="fill:#000000;fill-opacity:1;fill-rule:nonzero;stroke:none;stroke-width:6.7163;stroke-linecap:round;stroke-linejoin:miter;stroke-miterlimit:4;stroke-opacity:1"
       inkscape:label="sign"
       d="m 95.952865,68.348918 v 2.839844 c -7.01255,6.02517 -14.13929,12.258363 -20.99219,18.425781 l 9.5625,9.374997 h 24.562505 l 10.625,-9.374997 c -7.33693,-6.12421 -14.37527,-12.2164 -21.585945,-18.451172 v -2.814453 z m 1.1582,5.177734 C 103.16383,78.75938 109.037,83.848714 115.17943,88.975873 l -8.47266,7.47656 H 87.116925 l -7.625,-7.47656 c 5.75066,-5.175447 11.74572,-10.412612 17.61914,-15.449221 z m -44.09375,29.800788 c -1.42326,0 -3.68174,0.41184 -4.74609,1.32813 -3.796769,3.26857 -10.790645,11.80706 -13.937503,16.88476 -1.122561,1.81134 -1.609375,5.24681 -1.609375,7.39453 v 22.23633 a 3.041531,3.041531 0 0 0 3.042969,3.04102 h 2.390625 a 4.9136514,4.9136514 0 0 0 4.398437,-2.72266 l 3.679687,-7.38672 a 6.0470485,6.0470485 0 0 1 5.41211,-3.34961 H 138.2849 a 6.0716023,6.0716023 0 0 1 5.42578,3.34375 l 3.71875,7.39844 a 4.933603,4.933603 0 0 0 4.4082,2.7168 h 2.39063 a 3.041531,3.041531 0 0 0 3.04297,-3.04102 v -23.38672 c 0,-1.51182 -0.2515,-3.95484 -0.9375,-5.29101 -2.48726,-4.8446 -9.32713,-14.19137 -13.11719,-17.7461 -1.04114,-0.97649 -3.33395,-1.41992 -4.7832,-1.41992 z m -1.78516,3.70508 h 2.23047 c 1.25694,-0.001 2.31446,1.20296 2.31446,2.46875 v 14.3125 c 2e-5,1.27001 -1.06027,2.77539 -2.31446,2.77539 H 38.822003 c -1.25002,0 -2.680862,-1.57665 -2.255859,-2.77539 1.635139,-4.29074 10.853541,-14.34934 14.666011,-16.78125 z m 26.19336,0 c 1.25694,10e-6 2.31446,1.19593 2.31446,2.46875 v 14.3125 c -2e-5,1.2728 -1.05752,2.77539 -2.31446,2.77539 l -14.82812,0.18555 c -1.25551,0 -2.25781,-1.56704 -2.25781,-2.83985 v -14.43359 c 0,-1.27282 1.0023,-2.28516 2.25781,-2.28516 z m 10.71094,0 15.328135,0.18359 c 1.25549,0 2.2539,1.01235 2.2539,2.28516 v 14.43359 c 0,1.27279 -0.99841,2.83985 -2.2539,2.83985 l -15.328135,-0.18555 c -1.25692,0 -2.25588,-1.50259 -2.25586,-2.77539 v -14.3125 c 0,-1.27281 0.99896,-2.46875 2.25586,-2.46875 z m 48.212895,0 h 3.85352 c 3.8125,2.43191 11.53086,12.49051 13.16601,16.78125 0.425,1.19874 -1.00585,2.77539 -2.25586,2.77539 h -14.76367 c -1.25419,0 -2.25586,-1.50538 -2.25586,-2.77539 v -14.3125 c 0,-1.26579 0.9989,-2.46875 2.25586,-2.46875 z m -8.53515,0.14844 c 1.25693,1e-5 2.31445,1.19593 2.31445,2.46875 v 14.3125 c -2e-5,1.27279 -1.05752,2.77539 -2.31445,2.77539 l -14.82813,0.18554 c -1.25551,0 -2.25586,-1.56703 -2.25586,-2.83984 v -14.43359 c 0,-1.27282 1.00035,-2.28321 2.25586,-2.28321 z m -71.572275,37.99609 a 7.1874995,7.1874995 0 0 0 -7.1875,7.1875 7.1874995,7.1874995 0 0 0 7.1875,7.1875 7.1874995,7.1874995 0 0 0 7.1875,-7.1875 7.1874995,7.1874995 0 0 0 -7.1875,-7.1875 z m 16.625,0 a 7.1874995,7.1874995 0 0 0 -7.1875,7.1875 7.1874995,7.1874995 0 0 0 7.1875,7.1875 7.1874995,7.1874995 0 0 0 7.1875,-7.1875 7.1874995,7.1874995 0 0 0 -7.1875,-7.1875 z m 45.125005,0 a 7.1874995,7.1874995 0 0 0 -7.1875,7.1875 7.1874995,7.1874995 0 0 0 7.1875,7.1875 7.1874995,7.1874995 0 0 0 7.1875,-7.1875 7.1874995,7.1874995 0 0 0 -7.1875,-7.1875 z m 16.625,0 a 7.1874995,7.1874995 0 0 0 -7.1875,7.1875 7.1874995,7.1874995 0 0 0 7.1875,7.1875 7.1874995,7.1874995 0 0 0 7.1875,-7.1875 7.1874995,7.1874995 0 0 0 -7.1875,-7.1875 z m -49.728525,0.75 c -0.80794,0 -1.45898,0.65104 -1.45898,1.45898 v 2.95704 c 0,0.80794 0.65104,1.45898 1.45898,1.45898 h 20.707045 c 0.80794,0 1.45898,-0.65104 1.45898,-1.45898 v -2.95704 c 0,-0.80794 -0.65104,-1.45898 -1.45898,-1.45898 z" /></g></svg>
