<?xml version="1.0" encoding="UTF-8" standalone="no"?>
<!-- Created with Inkscape (http://www.inkscape.org/) -->

<svg
   height="280"
   id="svg2"
   inkscape:output_extension="org.inkscape.output.svg.inkscape"
   inkscape:version="1.3 (0e150ed6c4, 2023-07-21)"
   sodipodi:docname="5.47.1.svg"
   sodipodi:version="0.32"
   version="1.0"
   width="200"
   xml:space="preserve"
   xmlns:inkscape="http://www.inkscape.org/namespaces/inkscape"
   xmlns:sodipodi="http://sodipodi.sourceforge.net/DTD/sodipodi-0.dtd"
   xmlns="http://www.w3.org/2000/svg"
   xmlns:svg="http://www.w3.org/2000/svg"
   xmlns:rdf="http://www.w3.org/1999/02/22-rdf-syntax-ns#"
   xmlns:cc="http://creativecommons.org/ns#"
   xmlns:dc="http://purl.org/dc/elements/1.1/"><title
     id="title1">Інформаційно-вказівні знаки » Дорожні знаки » ПДР Тест Центр</title><metadata
     id="metadata7"><rdf:RDF><cc:Work
         rdf:about=""><dc:format>&#10;					image/svg+xml&#10;				</dc:format><dc:type
           rdf:resource="http://purl.org/dc/dcmitype/StillImage" /><dc:title>Інформаційно-вказівні знаки » Дорожні знаки » ПДР Тест Центр</dc:title><cc:license
           rdf:resource="http://creativecommons.org/licenses/by-nc-sa/4.0/" /><dc:creator><cc:Agent><dc:title>ПДР Тест Центр | PDR Test Center</dc:title></cc:Agent></dc:creator><dc:rights><cc:Agent><dc:title>ПДР Тест Центр | PDR Test Center</dc:title></cc:Agent></dc:rights><dc:language>uk-UA</dc:language><dc:date>2023-09-01</dc:date><dc:publisher><cc:Agent><dc:title>https://pdrtest.com/</dc:title></cc:Agent></dc:publisher><dc:source>https://pdrtest.com/driver/rules/section/33.5</dc:source></cc:Work><cc:License
         rdf:about="http://creativecommons.org/licenses/by-nc-sa/4.0/"><cc:permits
           rdf:resource="http://creativecommons.org/ns#Reproduction" /><cc:permits
           rdf:resource="http://creativecommons.org/ns#Distribution" /><cc:requires
           rdf:resource="http://creativecommons.org/ns#Notice" /><cc:requires
           rdf:resource="http://creativecommons.org/ns#Attribution" /><cc:prohibits
           rdf:resource="http://creativecommons.org/ns#CommercialUse" /><cc:permits
           rdf:resource="http://creativecommons.org/ns#DerivativeWorks" /><cc:requires
           rdf:resource="http://creativecommons.org/ns#ShareAlike" /></cc:License></rdf:RDF></metadata><defs
     id="defs5"><inkscape:perspective
       id="perspective9"
       inkscape:persp3d-origin="372.04724 : 361.15442 : 1"
       inkscape:vp_x="0 : 536.54812 : 1"
       inkscape:vp_y="0 : 1000 : 0"
       inkscape:vp_z="744.09448 : 536.54812 : 1"
       sodipodi:type="inkscape:persp3d" /><inkscape:perspective
       id="perspective2411"
       inkscape:persp3d-origin="372.04724 : 361.15442 : 1"
       inkscape:vp_x="0 : 536.54812 : 1"
       inkscape:vp_y="0 : 1000 : 0"
       inkscape:vp_z="744.09448 : 536.54812 : 1"
       sodipodi:type="inkscape:persp3d" /><inkscape:perspective
       id="perspective109"
       inkscape:persp3d-origin="372.04724 : 361.15442 : 1"
       inkscape:vp_x="0 : 536.54812 : 1"
       inkscape:vp_y="0 : 1000 : 0"
       inkscape:vp_z="744.09448 : 536.54812 : 1"
       sodipodi:type="inkscape:persp3d" /><inkscape:perspective
       id="perspective118"
       inkscape:persp3d-origin="372.04724 : 361.15442 : 1"
       inkscape:vp_x="0 : 536.54812 : 1"
       inkscape:vp_y="0 : 1000 : 0"
       inkscape:vp_z="744.09448 : 536.54812 : 1"
       sodipodi:type="inkscape:persp3d" /><inkscape:perspective
       id="perspective179"
       inkscape:persp3d-origin="372.04724 : 361.15442 : 1"
       inkscape:vp_x="0 : 536.54812 : 1"
       inkscape:vp_y="0 : 1000 : 0"
       inkscape:vp_z="744.09448 : 536.54812 : 1"
       sodipodi:type="inkscape:persp3d" /><inkscape:perspective
       id="perspective2573"
       inkscape:persp3d-origin="372.04724 : 361.15442 : 1"
       inkscape:vp_x="0 : 536.54812 : 1"
       inkscape:vp_y="0 : 1000 : 0"
       inkscape:vp_z="744.09448 : 536.54812 : 1"
       sodipodi:type="inkscape:persp3d" /><inkscape:perspective
       id="perspective2426"
       inkscape:persp3d-origin="372.04724 : 361.15442 : 1"
       inkscape:vp_x="0 : 536.54812 : 1"
       inkscape:vp_y="0 : 1000 : 0"
       inkscape:vp_z="744.09448 : 536.54812 : 1"
       sodipodi:type="inkscape:persp3d" /><inkscape:perspective
       id="perspective3306"
       inkscape:persp3d-origin="372.04724 : 361.15442 : 1"
       inkscape:vp_x="0 : 536.54812 : 1"
       inkscape:vp_y="0 : 1000 : 0"
       inkscape:vp_z="744.09448 : 536.54812 : 1"
       sodipodi:type="inkscape:persp3d" /><inkscape:perspective
       id="perspective3501"
       inkscape:persp3d-origin="372.04724 : 361.15442 : 1"
       inkscape:vp_x="0 : 536.54812 : 1"
       inkscape:vp_y="0 : 1000 : 0"
       inkscape:vp_z="744.09448 : 536.54812 : 1"
       sodipodi:type="inkscape:persp3d" /><inkscape:perspective
       id="perspective3499"
       inkscape:persp3d-origin="372.04724 : 361.15442 : 1"
       inkscape:vp_x="0 : 536.54812 : 1"
       inkscape:vp_y="0 : 1000 : 0"
       inkscape:vp_z="744.09448 : 536.54812 : 1"
       sodipodi:type="inkscape:persp3d" /><inkscape:perspective
       id="perspective3497"
       inkscape:persp3d-origin="372.04724 : 361.15442 : 1"
       inkscape:vp_x="0 : 536.54812 : 1"
       inkscape:vp_y="0 : 1000 : 0"
       inkscape:vp_z="744.09448 : 536.54812 : 1"
       sodipodi:type="inkscape:persp3d" /><inkscape:perspective
       id="perspective3495"
       inkscape:persp3d-origin="372.04724 : 361.15442 : 1"
       inkscape:vp_x="0 : 536.54812 : 1"
       inkscape:vp_y="0 : 1000 : 0"
       inkscape:vp_z="744.09448 : 536.54812 : 1"
       sodipodi:type="inkscape:persp3d" /><inkscape:perspective
       id="perspective3493"
       inkscape:persp3d-origin="372.04724 : 361.15442 : 1"
       inkscape:vp_x="0 : 536.54812 : 1"
       inkscape:vp_y="0 : 1000 : 0"
       inkscape:vp_z="744.09448 : 536.54812 : 1"
       sodipodi:type="inkscape:persp3d" /><inkscape:perspective
       id="perspective3491"
       inkscape:persp3d-origin="372.04724 : 361.15442 : 1"
       inkscape:vp_x="0 : 536.54812 : 1"
       inkscape:vp_y="0 : 1000 : 0"
       inkscape:vp_z="744.09448 : 536.54812 : 1"
       sodipodi:type="inkscape:persp3d" /><inkscape:perspective
       id="perspective3489"
       inkscape:persp3d-origin="372.04724 : 361.15442 : 1"
       inkscape:vp_x="0 : 536.54812 : 1"
       inkscape:vp_y="0 : 1000 : 0"
       inkscape:vp_z="744.09448 : 536.54812 : 1"
       sodipodi:type="inkscape:persp3d" /></defs><sodipodi:namedview
     bordercolor="#666666"
     borderopacity="1.0"
     gridtolerance="10.0"
     guidetolerance="10.0"
     id="base"
     inkscape:current-layer="svg2"
     inkscape:cx="165.10942"
     inkscape:cy="111.89964"
     inkscape:guide-bbox="true"
     inkscape:pageopacity="0.0"
     inkscape:pageshadow="2"
     inkscape:window-height="1009"
     inkscape:window-width="1920"
     inkscape:zoom="2.8284274"
     objecttolerance="10.0"
     pagecolor="#ffffff"
     showgrid="false"
     showguides="false"
     inkscape:showpageshadow="2"
     inkscape:pagecheckerboard="0"
     inkscape:deskcolor="#d1d1d1"
     inkscape:window-x="-8"
     inkscape:window-y="-8"
     inkscape:window-maximized="1" /><g
     id="g3530"
     transform="translate(5.002215,5.194346)"
     inkscape:label="sign_5_47_1"><path
       d="M 20.761302,2.3941002 H 169.14016 c 11.82057,0 21.33676,9.3113448 21.33676,20.8774548 V 266.61171 c 0,11.56611 -9.51619,20.87745 -21.33676,20.87745 H 20.761302 c -11.8205654,0 -21.33676106,-9.31134 -21.33676106,-20.87745 V 23.271555 c 0,-11.56611 9.51619566,-20.8774548 21.33676106,-20.8774548 z"
       id="rect3292"
       style="fill:#ffffff;fill-opacity:1;fill-rule:nonzero;stroke:#000000;stroke-width:2.07113;stroke-linecap:round;stroke-linejoin:miter;stroke-miterlimit:4;stroke-dasharray:none;stroke-opacity:1"
       transform="matrix(0.9894239,0,0,0.9424637,1.051263,-1.796571)"
       inkscape:label="bg" /><path
       d="M 25.409315,8.3852024 H 164.49215 c 11.08,0 20,8.9199996 20,19.9999996 V 261.49806 c 0,11.08 -8.92,20 -20,20 H 25.409315 c -11.08,0 -20.0000004,-8.92 -20.0000004,-20 V 28.385202 c 0,-11.08 8.9200004,-19.9999996 20.0000004,-19.9999996 z"
       id="rect3280"
       style="fill:#0000ff;fill-opacity:1;fill-rule:nonzero;stroke:none;stroke-width:2;stroke-linecap:round;stroke-linejoin:miter;stroke-miterlimit:4;stroke-opacity:1"
       transform="matrix(0.9894239,0,0,0.9424637,1.051263,-1.796571)"
       inkscape:label="blue" /><path
       d="M 37.323893,45.67495 H 152.57757 c 8.864,0 16,7.136 16,16 v 129.70399 c 0,8.864 -7.136,16 -16,16 H 37.323893 c -8.864,0 -16,-7.136 -16,-16 V 61.67495 c 0,-8.864 7.136,-16 16,-16 z"
       id="rect3286"
       style="fill:#ffffff;fill-opacity:1;fill-rule:nonzero;stroke:none;stroke-width:2;stroke-linecap:round;stroke-linejoin:miter;stroke-miterlimit:4;stroke-opacity:1"
       transform="matrix(0.9894239,0,0,0.9424637,1.051263,-1.796571)"
       inkscape:label="white" /><path
       id="path2459"
       style="fill:#000000;fill-opacity:1;fill-rule:nonzero;stroke:none;stroke-width:4.64826;stroke-linecap:round;stroke-linejoin:miter;stroke-miterlimit:4;stroke-dasharray:none;stroke-opacity:1"
       inkscape:label="sign"
       d="m 94.713045,63.836018 -35.63086,24.900391 h -5.998047 c -1.732986,0 -4.548158,0.360718 -5.878906,1.429687 -4.532451,3.640817 -11.798425,13.315554 -14.21875,18.097654 -0.606099,1.19755 -0.814453,3.38519 -0.814453,4.73633 v 20.41797 c 9e-5,1.80847 1.466924,3.2753 3.275391,3.27539 h 13.798828 c -0.0536,-0.45423 -0.06445,-0.92996 -0.06445,-1.39844 0,-6.49524 5.270388,-11.76758 11.765625,-11.76758 6.495217,0 11.767558,5.27234 11.767578,11.76758 0,0.46848 -0.0092,0.94421 -0.0625,1.39844 H 95.172029 V 88.736409 H 66.29117 l 35.63086,-24.900391 z m 0.46289,24.900391 v 47.957031 h 22.519535 c -0.0533,-0.45423 -0.0625,-0.92996 -0.0625,-1.39844 2e-5,-6.49524 5.27236,-11.76758 11.76757,-11.76758 6.49524,0 11.76563,5.27234 11.76563,11.76758 0,0.46848 -0.0109,0.94421 -0.0644,1.39844 h 13.79882 c 1.80847,-9e-5 3.27531,-1.46692 3.2754,-3.27539 v -20.41797 c 0,-1.35114 -0.20836,-3.53878 -0.81446,-4.73633 -2.42033,-4.7821 -9.68628,-14.456837 -14.21875,-18.097654 -1.33075,-1.068959 -4.14592,-1.429687 -5.8789,-1.429687 z m -40.699218,3.847656 h 11.023437 c 1.271867,0 2.289063,1.170373 2.289063,2.451172 v 11.636723 c 0,1.28507 -3.558131,2.72656 -2.289063,2.72656 h -21.90625 c -1.264838,0 -2.719101,-1.51359 -2.289062,-2.72656 0,-2.83353 5.412064,-10.510416 8.966796,-13.167973 0.967508,-0.723339 2.979111,-0.919922 4.205079,-0.919922 z m 19.103515,0 h 17.445313 c 1.271787,0 2.287109,1.163263 2.287109,2.451172 v 11.636723 c 0,1.28788 -1.015292,2.72656 -2.287109,2.72656 H 73.580232 c -1.270398,0 -2.292969,-1.43868 -2.292969,-2.72656 V 95.035237 c 0,-1.287909 1.022571,-2.451172 2.292969,-2.451172 z m 25.742188,0 h 17.44531 c 1.2704,0 2.29297,1.163263 2.29297,2.451172 v 11.636723 c 0,1.28788 -1.02257,2.72656 -2.29297,2.72656 H 99.32242 c -1.271824,0 -2.28711,-1.43868 -2.28711,-2.72656 V 95.035237 c 0,-1.287909 1.015315,-2.451172 2.28711,-2.451172 z m 25.52539,0 h 11.02344 c 1.22597,0 3.23758,0.196583 4.20508,0.919922 3.55472,2.657557 8.96679,10.334443 8.96679,13.167973 0.43004,1.21297 -1.02423,2.72656 -2.28906,2.72656 h -21.90625 c 1.26907,0 -2.28906,-1.44149 -2.28906,-2.72656 V 95.035237 c 0,-1.280799 1.01719,-2.451172 2.28906,-2.451172 z M 60.94742,125.56063 c -5.667679,0 -10.324219,4.60769 -10.324219,10.27539 0,5.66765 4.65654,10.32812 10.324219,10.32812 5.667659,0 10.328125,-4.66047 10.328125,-10.32812 0,-5.6677 -4.660466,-10.27539 -10.328125,-10.27539 z m 68.45312,0 c -5.66765,0 -10.32812,4.60769 -10.32812,10.27539 0,5.66765 4.66047,10.32812 10.32812,10.32812 5.66768,0 10.32422,-4.66047 10.32422,-10.32812 0,-5.6677 -4.65654,-10.27539 -10.32422,-10.27539 z m -68.45312,3.6582 c 3.685433,0 6.621093,2.93172 6.621093,6.61719 0,3.68544 -2.93566,6.66797 -6.621093,6.66797 -3.685453,0 -6.617188,-2.98253 -6.617188,-6.66797 0,-3.68547 2.931735,-6.61719 6.617188,-6.61719 z m 68.45312,0 c 3.68546,0 6.61719,2.93172 6.61719,6.61719 0,3.68544 -2.93173,6.66797 -6.61719,6.66797 -3.68542,0 -6.62109,-2.98253 -6.62109,-6.66797 0,-3.68547 2.93567,-6.61719 6.62109,-6.61719 z" /></g></svg>
