<?xml version="1.0" encoding="UTF-8" standalone="no"?>
<!-- Created with Inkscape (http://www.inkscape.org/) -->

<svg
   height="300"
   id="svg2"
   inkscape:output_extension="org.inkscape.output.svg.inkscape"
   inkscape:version="1.3 (0e150ed6c4, 2023-07-21)"
   sodipodi:docname="5.56.svg"
   sodipodi:version="0.32"
   version="1.0"
   width="205"
   xmlns:inkscape="http://www.inkscape.org/namespaces/inkscape"
   xmlns:sodipodi="http://sodipodi.sourceforge.net/DTD/sodipodi-0.dtd"
   xmlns="http://www.w3.org/2000/svg"
   xmlns:svg="http://www.w3.org/2000/svg"
   xmlns:rdf="http://www.w3.org/1999/02/22-rdf-syntax-ns#"
   xmlns:cc="http://creativecommons.org/ns#"
   xmlns:dc="http://purl.org/dc/elements/1.1/">
  <title
     id="title1">Інформаційно-вказівні знаки » Дорожні знаки » ПДР Тест Центр</title>
  <metadata
     id="metadata7">
    <rdf:RDF>
      <cc:Work
         rdf:about="">
        <dc:format>&#10;					image/svg+xml&#10;				</dc:format>
        <dc:type
           rdf:resource="http://purl.org/dc/dcmitype/StillImage" />
        <dc:title>Інформаційно-вказівні знаки » Дорожні знаки » ПДР Тест Центр</dc:title>
        <cc:license
           rdf:resource="http://creativecommons.org/licenses/by-nc-sa/4.0/" />
        <dc:creator>
          <cc:Agent>
            <dc:title>ПДР Тест Центр | PDR Test Center</dc:title>
          </cc:Agent>
        </dc:creator>
        <dc:rights>
          <cc:Agent>
            <dc:title>ПДР Тест Центр | PDR Test Center</dc:title>
          </cc:Agent>
        </dc:rights>
        <dc:language>uk-UA</dc:language>
        <dc:date>2023-09-01</dc:date>
        <dc:publisher>
          <cc:Agent>
            <dc:title>https://pdrtest.com/</dc:title>
          </cc:Agent>
        </dc:publisher>
        <dc:source>https://pdrtest.com/driver/rules/section/33.5</dc:source>
      </cc:Work>
      <cc:License
         rdf:about="http://creativecommons.org/licenses/by-nc-sa/4.0/">
        <cc:permits
           rdf:resource="http://creativecommons.org/ns#Reproduction" />
        <cc:permits
           rdf:resource="http://creativecommons.org/ns#Distribution" />
        <cc:requires
           rdf:resource="http://creativecommons.org/ns#Notice" />
        <cc:requires
           rdf:resource="http://creativecommons.org/ns#Attribution" />
        <cc:prohibits
           rdf:resource="http://creativecommons.org/ns#CommercialUse" />
        <cc:permits
           rdf:resource="http://creativecommons.org/ns#DerivativeWorks" />
        <cc:requires
           rdf:resource="http://creativecommons.org/ns#ShareAlike" />
      </cc:License>
    </rdf:RDF>
  </metadata>
  <defs
     id="defs5">
    <inkscape:perspective
       id="perspective9"
       inkscape:persp3d-origin="372.04724 : 101.15439 : 1"
       inkscape:vp_x="0 : 276.54809 : 1"
       inkscape:vp_y="0 : 1000 : 0"
       inkscape:vp_z="744.09448 : 276.54809 : 1"
       sodipodi:type="inkscape:persp3d" />
    <inkscape:perspective
       id="perspective2411"
       inkscape:persp3d-origin="372.04724 : 101.15439 : 1"
       inkscape:vp_x="0 : 276.54809 : 1"
       inkscape:vp_y="0 : 1000 : 0"
       inkscape:vp_z="744.09448 : 276.54809 : 1"
       sodipodi:type="inkscape:persp3d" />
    <inkscape:perspective
       id="perspective109"
       inkscape:persp3d-origin="372.04724 : 101.15439 : 1"
       inkscape:vp_x="0 : 276.54809 : 1"
       inkscape:vp_y="0 : 1000 : 0"
       inkscape:vp_z="744.09448 : 276.54809 : 1"
       sodipodi:type="inkscape:persp3d" />
    <inkscape:perspective
       id="perspective118"
       inkscape:persp3d-origin="372.04724 : 101.15439 : 1"
       inkscape:vp_x="0 : 276.54809 : 1"
       inkscape:vp_y="0 : 1000 : 0"
       inkscape:vp_z="744.09448 : 276.54809 : 1"
       sodipodi:type="inkscape:persp3d" />
    <inkscape:perspective
       id="perspective3489"
       inkscape:persp3d-origin="372.04724 : 101.15439 : 1"
       inkscape:vp_x="0 : 276.54809 : 1"
       inkscape:vp_y="0 : 1000 : 0"
       inkscape:vp_z="744.09448 : 276.54809 : 1"
       sodipodi:type="inkscape:persp3d" />
    <inkscape:perspective
       id="perspective3491"
       inkscape:persp3d-origin="372.04724 : 101.15439 : 1"
       inkscape:vp_x="0 : 276.54809 : 1"
       inkscape:vp_y="0 : 1000 : 0"
       inkscape:vp_z="744.09448 : 276.54809 : 1"
       sodipodi:type="inkscape:persp3d" />
    <inkscape:perspective
       id="perspective3493"
       inkscape:persp3d-origin="372.04724 : 101.15439 : 1"
       inkscape:vp_x="0 : 276.54809 : 1"
       inkscape:vp_y="0 : 1000 : 0"
       inkscape:vp_z="744.09448 : 276.54809 : 1"
       sodipodi:type="inkscape:persp3d" />
    <inkscape:perspective
       id="perspective3495"
       inkscape:persp3d-origin="372.04724 : 101.15439 : 1"
       inkscape:vp_x="0 : 276.54809 : 1"
       inkscape:vp_y="0 : 1000 : 0"
       inkscape:vp_z="744.09448 : 276.54809 : 1"
       sodipodi:type="inkscape:persp3d" />
    <inkscape:perspective
       id="perspective3497"
       inkscape:persp3d-origin="372.04724 : 101.15439 : 1"
       inkscape:vp_x="0 : 276.54809 : 1"
       inkscape:vp_y="0 : 1000 : 0"
       inkscape:vp_z="744.09448 : 276.54809 : 1"
       sodipodi:type="inkscape:persp3d" />
    <inkscape:perspective
       id="perspective3499"
       inkscape:persp3d-origin="372.04724 : 101.15439 : 1"
       inkscape:vp_x="0 : 276.54809 : 1"
       inkscape:vp_y="0 : 1000 : 0"
       inkscape:vp_z="744.09448 : 276.54809 : 1"
       sodipodi:type="inkscape:persp3d" />
    <inkscape:perspective
       id="perspective3501"
       inkscape:persp3d-origin="372.04724 : 101.15439 : 1"
       inkscape:vp_x="0 : 276.54809 : 1"
       inkscape:vp_y="0 : 1000 : 0"
       inkscape:vp_z="744.09448 : 276.54809 : 1"
       sodipodi:type="inkscape:persp3d" />
    <inkscape:perspective
       id="perspective3306"
       inkscape:persp3d-origin="372.04724 : 101.15439 : 1"
       inkscape:vp_x="0 : 276.54809 : 1"
       inkscape:vp_y="0 : 1000 : 0"
       inkscape:vp_z="744.09448 : 276.54809 : 1"
       sodipodi:type="inkscape:persp3d" />
    <inkscape:perspective
       id="perspective2426"
       inkscape:persp3d-origin="372.04724 : 101.15439 : 1"
       inkscape:vp_x="0 : 276.54809 : 1"
       inkscape:vp_y="0 : 1000 : 0"
       inkscape:vp_z="744.09448 : 276.54809 : 1"
       sodipodi:type="inkscape:persp3d" />
    <inkscape:perspective
       id="perspective2573"
       inkscape:persp3d-origin="372.04724 : 101.15439 : 1"
       inkscape:vp_x="0 : 276.54809 : 1"
       inkscape:vp_y="0 : 1000 : 0"
       inkscape:vp_z="744.09448 : 276.54809 : 1"
       sodipodi:type="inkscape:persp3d" />
    <inkscape:perspective
       id="perspective179"
       inkscape:persp3d-origin="372.04724 : 101.15439 : 1"
       inkscape:vp_x="0 : 276.54809 : 1"
       inkscape:vp_y="0 : 1000 : 0"
       inkscape:vp_z="744.09448 : 276.54809 : 1"
       sodipodi:type="inkscape:persp3d" />
    <inkscape:perspective
       id="perspective2562"
       inkscape:persp3d-origin="372.04724 : 101.15439 : 1"
       inkscape:vp_x="0 : 276.54809 : 1"
       inkscape:vp_y="0 : 1000 : 0"
       inkscape:vp_z="744.09448 : 276.54809 : 1"
       sodipodi:type="inkscape:persp3d" />
    <inkscape:perspective
       id="perspective2560"
       inkscape:persp3d-origin="372.04724 : 101.15439 : 1"
       inkscape:vp_x="0 : 276.54809 : 1"
       inkscape:vp_y="0 : 1000 : 0"
       inkscape:vp_z="744.09448 : 276.54809 : 1"
       sodipodi:type="inkscape:persp3d" />
    <inkscape:perspective
       id="perspective2558"
       inkscape:persp3d-origin="372.04724 : 101.15439 : 1"
       inkscape:vp_x="0 : 276.54809 : 1"
       inkscape:vp_y="0 : 1000 : 0"
       inkscape:vp_z="744.09448 : 276.54809 : 1"
       sodipodi:type="inkscape:persp3d" />
    <inkscape:perspective
       id="perspective2556"
       inkscape:persp3d-origin="372.04724 : 101.15439 : 1"
       inkscape:vp_x="0 : 276.54809 : 1"
       inkscape:vp_y="0 : 1000 : 0"
       inkscape:vp_z="744.09448 : 276.54809 : 1"
       sodipodi:type="inkscape:persp3d" />
    <inkscape:perspective
       id="perspective2674"
       inkscape:persp3d-origin="372.04724 : 101.15439 : 1"
       inkscape:vp_x="0 : 276.54809 : 1"
       inkscape:vp_y="0 : 1000 : 0"
       inkscape:vp_z="744.09448 : 276.54809 : 1"
       sodipodi:type="inkscape:persp3d" />
    <inkscape:perspective
       id="perspective2741"
       inkscape:persp3d-origin="372.04724 : 101.15439 : 1"
       inkscape:vp_x="0 : 276.54809 : 1"
       inkscape:vp_y="0 : 1000 : 0"
       inkscape:vp_z="744.09448 : 276.54809 : 1"
       sodipodi:type="inkscape:persp3d" />
    <inkscape:perspective
       id="perspective2739"
       inkscape:persp3d-origin="372.04724 : 101.15439 : 1"
       inkscape:vp_x="0 : 276.54809 : 1"
       inkscape:vp_y="0 : 1000 : 0"
       inkscape:vp_z="744.09448 : 276.54809 : 1"
       sodipodi:type="inkscape:persp3d" />
    <inkscape:perspective
       id="perspective151"
       inkscape:persp3d-origin="372.04724 : 101.15439 : 1"
       inkscape:vp_x="0 : 276.54809 : 1"
       inkscape:vp_y="0 : 1000 : 0"
       inkscape:vp_z="744.09448 : 276.54809 : 1"
       sodipodi:type="inkscape:persp3d" />
    <inkscape:perspective
       id="perspective2415"
       inkscape:persp3d-origin="372.04724 : 101.15439 : 1"
       inkscape:vp_x="0 : 276.54809 : 1"
       inkscape:vp_y="0 : 1000 : 0"
       inkscape:vp_z="744.09448 : 276.54809 : 1"
       sodipodi:type="inkscape:persp3d" />
    <inkscape:perspective
       id="perspective3150"
       inkscape:persp3d-origin="372.04724 : 101.15439 : 1"
       inkscape:vp_x="0 : 276.54809 : 1"
       inkscape:vp_y="0 : 1000 : 0"
       inkscape:vp_z="744.09448 : 276.54809 : 1"
       sodipodi:type="inkscape:persp3d" />
    <inkscape:perspective
       id="perspective3148"
       inkscape:persp3d-origin="372.04724 : 101.15439 : 1"
       inkscape:vp_x="0 : 276.54809 : 1"
       inkscape:vp_y="0 : 1000 : 0"
       inkscape:vp_z="744.09448 : 276.54809 : 1"
       sodipodi:type="inkscape:persp3d" />
    <inkscape:perspective
       id="perspective3146"
       inkscape:persp3d-origin="372.04724 : 101.15439 : 1"
       inkscape:vp_x="0 : 276.54809 : 1"
       inkscape:vp_y="0 : 1000 : 0"
       inkscape:vp_z="744.09448 : 276.54809 : 1"
       sodipodi:type="inkscape:persp3d" />
    <inkscape:perspective
       id="perspective3144"
       inkscape:persp3d-origin="372.04724 : 101.15439 : 1"
       inkscape:vp_x="0 : 276.54809 : 1"
       inkscape:vp_y="0 : 1000 : 0"
       inkscape:vp_z="744.09448 : 276.54809 : 1"
       sodipodi:type="inkscape:persp3d" />
  </defs>
  <sodipodi:namedview
     bordercolor="#666666"
     borderopacity="1.0"
     gridtolerance="10.0"
     guidetolerance="10.0"
     id="base"
     inkscape:current-layer="svg2"
     inkscape:cx="13.435028"
     inkscape:cy="121.26881"
     inkscape:guide-bbox="true"
     inkscape:pageopacity="0.0"
     inkscape:pageshadow="2"
     inkscape:window-height="1009"
     inkscape:window-width="1920"
     inkscape:window-x="-8"
     inkscape:window-y="-8"
     inkscape:zoom="1.4142136"
     objecttolerance="10.0"
     pagecolor="#ffffff"
     showgrid="false"
     showguides="false"
     inkscape:showpageshadow="2"
     inkscape:pagecheckerboard="0"
     inkscape:deskcolor="#d1d1d1"
     inkscape:window-maximized="1" />
  <g
     id="g1"
     transform="matrix(0.9582979,0,0,0.9582979,5.7356138,8.1775769)"
     inkscape:label="sign_5_56">
    <path
       d="M 20.761302,2.3941002 H 351.06421 c 11.82057,0 21.33676,9.3113448 21.33676,20.8774548 V 563.70538 c 0,11.56611 -9.51619,20.87745 -21.33676,20.87745 H 20.761302 c -11.8205654,0 -21.33676106,-9.31134 -21.33676106,-20.87745 V 23.271555 c 0,-11.56611 9.51619566,-20.8774548 21.33676106,-20.8774548 z"
       id="rect3292"
       sodipodi:nodetypes="ccccccccc"
       style="fill:#ffffff;fill-opacity:1;fill-rule:nonzero;stroke:#000000;stroke-width:3.79453;stroke-linecap:round;stroke-linejoin:miter;stroke-miterlimit:4;stroke-dasharray:none;stroke-opacity:1"
       transform="matrix(0.54004615,0,0,0.51441439,0.573799,-2.9806024)"
       inkscape:label="bg" />
    <path
       d="M 27.430693,10.5073 H 344.39482 c 11.08,0 20,8.92 20,20 v 525.96233 c 0,11.08 -8.92,20 -20,20 H 27.430693 c -11.08,0 -20.0000001,-8.92 -20.0000001,-20 V 30.5073 c 0,-11.08 8.9200001,-20 20.0000001,-20 z"
       id="rect3280"
       sodipodi:nodetypes="ccccccccc"
       style="fill:#0000ff;fill-opacity:1;fill-rule:nonzero;stroke:none;stroke-width:2;stroke-linecap:round;stroke-linejoin:miter;stroke-miterlimit:4;stroke-opacity:1"
       transform="matrix(0.54004615,0,0,0.51441439,0.573799,-2.9806024)"
       inkscape:label="blue" />
    <path
       d="M 21.33058,138.91417 V 265.17898 H 350.49939 V 138.91417 Z m 0,131.57005 V 396.74903 H 350.49939 V 270.48422 Z m 0,131.57005 V 528.31908 H 350.49939 V 402.05427 Z"
       id="rect3286"
       style="fill:#ffffff;fill-opacity:1;fill-rule:nonzero;stroke:none;stroke-width:2;stroke-linecap:round;stroke-linejoin:miter;stroke-miterlimit:4;stroke-opacity:1"
       transform="matrix(0.54004615,0,0,0.51441439,0.573799,-2.9806024)"
       inkscape:label="white" />
    <g
       id="g2470"
       transform="matrix(0.54581878,0,0,0.54581878,0,-0.90836242)"
       inkscape:label="sign">
      <path
         d="m 170.3476,441.12234 8.93201,-1.19094 c 1.02552,5.06149 2.7623,8.717 5.21035,10.96653 2.48109,2.21647 5.49151,3.3247 9.03126,3.3247 4.20132,0 7.74104,-1.45558 10.61917,-4.36677 2.91114,-2.91116 4.36673,-6.51704 4.36677,-10.81766 -4e-5,-4.10209 -1.33985,-7.4764 -4.01941,-10.12295 -2.67964,-2.67958 -6.08704,-4.01938 -10.2222,-4.01941 -1.68718,3e-5 -3.78786,0.33085 -6.30203,0.99244 l 0.99245,-7.84032 c 0.59544,0.0662 1.07512,0.0993 1.43904,0.0992 3.80435,5e-5 7.22829,-0.9924 10.27182,-2.97734 3.04347,-1.98484 4.56522,-5.04488 4.56526,-9.18012 -4e-5,-3.27502 -1.10827,-5.9877 -3.3247,-8.13806 -2.2165,-2.15024 -5.07805,-3.22539 -8.58466,-3.22545 -3.47359,6e-5 -6.36822,1.09175 -8.68391,3.27507 -2.31572,2.18344 -3.80439,5.45851 -4.466,9.82522 l -8.93202,-1.58792 c 1.09168,-5.9877 3.5728,-10.61911 7.44335,-13.89425 3.87052,-3.30808 8.68388,-4.96215 14.44009,-4.96223 3.96975,8e-5 7.62526,0.8602 10.96653,2.58036 3.3412,1.68723 5.88847,4.00294 7.64184,6.94713 1.78635,2.94432 2.67956,6.07052 2.6796,9.37862 -4e-5,3.14279 -0.84362,6.00434 -2.53073,8.58466 -1.68721,2.5804 -4.18486,4.63145 -7.49297,6.15316 4.30055,0.99249 7.64179,3.06008 10.0237,6.20279 2.38182,3.1097 3.57276,7.01332 3.57281,11.71087 -5e-5,6.35167 -2.31576,11.74396 -6.94712,16.17687 -4.63146,4.39985 -10.48689,6.59977 -17.5663,6.59977 -6.38476,0 -11.69434,-1.90219 -15.92877,-5.70656 -4.20136,-3.80437 -6.59977,-8.73352 -7.19523,-14.78745"
         id="text2463"
         style="font-style:normal;font-variant:normal;font-weight:normal;font-stretch:normal;font-size:101.627px;font-family:Arial;-inkscape-font-specification:Arial;fill:#000000;fill-opacity:1;stroke:none;stroke-width:1px;stroke-linecap:butt;stroke-linejoin:miter;stroke-opacity:1"
         transform="scale(0.972994,1.0277556)"
         inkscape:label="3" />
      <path
         d="m 217.24069,333.03613 v 8.58466 h -48.08403 c -0.0662,-2.1503 0.28119,-4.21789 1.04207,-6.20279 1.22401,-3.27506 3.17582,-6.50051 5.85543,-9.67635 2.71268,-3.17581 6.6163,-6.84786 11.71087,-11.01616 7.90646,-6.48395 13.24912,-11.61158 16.02801,-15.38291 2.77881,-3.80434 4.16823,-7.39368 4.16827,-10.76805 -4e-5,-3.53967 -1.27368,-6.517 -3.82092,-8.93201 -2.51423,-2.44797 -5.80584,-3.67199 -9.87484,-3.67206 -4.30062,7e-5 -7.7411,1.29025 -10.32144,3.87055 -2.58037,2.58041 -3.88709,6.15322 -3.92016,10.71842 l -9.18013,-0.94283 c 0.62854,-6.84782 2.99387,-12.05816 7.09599,-15.63103 4.1021,-3.60582 9.61017,-5.40876 16.52423,-5.40883 6.98017,7e-5 12.50479,1.93534 16.57386,5.80581 4.06898,3.8706 6.10349,8.66742 6.10354,14.39047 -5e-5,2.91123 -0.59552,5.77278 -1.7864,8.58466 -1.19099,2.81198 -3.17588,5.77277 -5.95468,8.8824 -2.74581,3.10969 -7.3276,7.37721 -13.74538,12.80255 -5.35924,4.49911 -8.79971,7.55915 -10.32144,9.18013 -1.52177,1.58793 -2.77887,3.19238 -3.7713,4.81337 h 35.67845"
         id="text2459"
         style="font-style:normal;font-variant:normal;font-weight:normal;font-stretch:normal;font-size:101.627px;font-family:Arial;-inkscape-font-specification:Arial;fill:#000000;fill-opacity:1;stroke:none;stroke-width:1px;stroke-linecap:butt;stroke-linejoin:miter;stroke-opacity:1"
         transform="scale(0.972994,1.0277556)"
         inkscape:label="2" />
      <path
         d="m 203.94191,220.96954 h -8.93202 v -56.91679 c -2.15033,2.05111 -4.9788,4.10216 -8.48542,6.15316 -3.47358,2.05111 -6.59978,3.5894 -9.37862,4.61488 v -8.63428 c 4.9953,-2.34874 9.36206,-5.19375 13.1003,-8.53504 3.73818,-3.34117 6.3847,-6.58316 7.93957,-9.72598 h 5.75619 v 73.04405"
         id="text2453"
         style="font-style:normal;font-variant:normal;font-weight:normal;font-stretch:normal;font-size:101.627px;font-family:Arial;-inkscape-font-specification:Arial;fill:#000000;fill-opacity:1;stroke:none;stroke-width:1px;stroke-linecap:butt;stroke-linejoin:miter;stroke-opacity:1"
         transform="scale(0.972994,1.0277556)"
         inkscape:label="1" />
      <path
         d="m 36.057436,41.519404 4.456874,1.916853 c -0.683304,3.370298 -1.82211,5.876949 -3.416419,7.519963 -1.583993,1.628974 -3.597608,2.44346 -6.040852,2.443461 -3.023023,-1e-6 -5.507689,-1.397266 -7.454006,-4.1918 -1.946327,-2.80857 -2.919488,-6.642273 -2.919486,-11.501119 -2e-6,-5.139675 0.978335,-9.127849 2.935015,-11.964535 1.95667,-2.850674 4.529335,-4.276025 7.718003,-4.276057 2.784885,3.2e-5 5.046966,1.116439 6.786252,3.349227 1.035259,1.320058 1.811717,3.215845 2.329377,5.687367 l -4.55005,1.474503 c -0.269189,-1.600867 -0.833416,-2.864724 -1.692681,-3.791579 -0.848942,-0.926804 -1.88422,-1.390219 -3.105836,-1.390245 -1.687515,2.6e-5 -3.059258,0.821534 -4.115233,2.464526 -1.045638,1.643039 -1.568453,4.304162 -1.568447,7.983378 -6e-6,3.903932 0.517632,6.68442 1.552918,8.341471 1.03527,1.657065 2.381131,2.485594 4.037587,2.48559 1.221615,4e-6 2.272423,-0.526603 3.152423,-1.579824 0.879972,-1.053209 1.511491,-2.710267 1.894561,-4.97118 m 8.416816,11.353669 V 21.992779 H 61.354473 V 27.21673 H 49.070892 v 6.845904 h 11.429474 v 5.202887 H 49.070892 v 8.404664 h 12.718394 v 5.202888 H 44.474252 m 21.243918,0 V 21.992779 h 7.376361 c 2.795242,3e-5 4.617332,0.154502 5.466273,0.463415 1.304433,0.463444 2.396651,1.474531 3.276659,3.033262 0.879966,1.544743 1.319959,3.545851 1.319977,6.003331 -1.8e-5,1.895809 -0.253661,3.489674 -0.760929,4.781601 -0.507304,1.29196 -1.154351,2.310068 -1.941145,3.054326 -0.776479,0.730243 -1.568465,1.214722 -2.375969,1.453439 -1.097406,0.294912 -2.686557,0.442362 -4.767454,0.44235 h -2.997132 v 11.64857 H 65.71817 M 70.314811,27.21673 v 8.762758 h 2.515725 c 1.811727,1.6e-5 3.023001,-0.161477 3.633826,-0.48448 0.610802,-0.322968 1.08703,-0.828511 1.428686,-1.516631 0.35198,-0.688082 0.527977,-1.488525 0.527995,-2.401332 -1.8e-5,-1.123409 -0.243309,-2.050238 -0.729871,-2.780491 -0.486595,-0.730205 -1.102589,-1.186598 -1.847973,-1.369181 -0.54871,-0.140403 -1.65128,-0.210617 -3.307716,-0.210643 H 70.314811 M 86.962094,52.873073 V 21.992779 H 103.84231 V 27.21673 H 91.55873 v 6.845904 h 11.42948 v 5.202887 H 91.55873 v 8.404664 h 12.7184 v 5.202888 H 86.962094 M 110.03846,21.992779 h 15.73105 V 47.69125 h 2.00327 v 11.922406 h -3.82018 v -6.740583 h -14.33344 v 6.740583 h -3.82017 V 47.69125 h 1.92562 c 0.9421,-2.640054 1.56326,-5.701399 1.8635,-9.184044 0.30022,-3.496659 0.45034,-7.913141 0.45035,-13.249458 v -3.264969 m 4.37922,5.181822 c 0,9.380661 -0.62635,16.219537 -1.87903,20.516649 h 8.64975 V 27.174601 h -6.77072 m 16.47646,25.698472 V 21.992779 h 4.59664 v 12.154112 h 9.00692 V 21.992779 h 4.59664 v 30.880294 h -4.59664 v -13.50223 h -9.00692 v 13.50223 h -4.59664 m 22.8279,0 V 21.992779 h 4.59663 v 30.880294 h -4.59663 m 9.02245,-30.880294 h 4.30158 v 20.558777 l 9.22434,-20.558777 h 4.58111 v 30.880294 h -4.30159 V 32.714518 l -9.2088,20.158555 h -4.59664 V 21.992779 m 11.80218,-7.688478 h 2.1275 c -0.12425,1.909868 -0.62118,3.412455 -1.4908,4.507765 -0.8593,1.081335 -1.9774,1.621985 -3.35431,1.621953 -1.37693,3.2e-5 -2.5002,-0.540618 -3.36983,-1.621953 -0.85929,-1.09531 -1.35105,-2.597897 -1.47527,-4.507765 h 2.1275 c 0.0725,0.997082 0.33128,1.755397 0.77645,2.274946 0.44517,0.50558 1.09221,0.758352 1.94115,0.758316 0.84892,3.6e-5 1.49597,-0.252736 1.94115,-0.758316 0.44516,-0.519549 0.70398,-1.277864 0.77646,-2.274946"
         id="text2448"
         style="font-style:normal;font-weight:bold;font-size:67.8624px;font-family:'Bitstream Vera Sans';-inkscape-font-specification:'Arial Bold';fill:#ffffff;fill-opacity:1;stroke:none;stroke-width:0.545819px;stroke-linecap:butt;stroke-linejoin:miter;stroke-opacity:1"
         inkscape:label="text"
         transform="matrix(1.8321099,0,0,1.8321099,0,1.6642198)" />
    </g>
  </g>
</svg>
