<?xml version="1.0" encoding="UTF-8" standalone="no"?>
<!-- Created with Inkscape (http://www.inkscape.org/) -->

<svg
   height="160"
   id="svg2"
   inkscape:output_extension="org.inkscape.output.svg.inkscape"
   inkscape:version="1.3 (0e150ed6c4, 2023-07-21)"
   sodipodi:docname="5.65.2.svg"
   sodipodi:version="0.32"
   version="1.0"
   width="280"
   xml:space="preserve"
   xmlns:inkscape="http://www.inkscape.org/namespaces/inkscape"
   xmlns:sodipodi="http://sodipodi.sourceforge.net/DTD/sodipodi-0.dtd"
   xmlns="http://www.w3.org/2000/svg"
   xmlns:svg="http://www.w3.org/2000/svg"
   xmlns:rdf="http://www.w3.org/1999/02/22-rdf-syntax-ns#"
   xmlns:cc="http://creativecommons.org/ns#"
   xmlns:dc="http://purl.org/dc/elements/1.1/"><title
     id="title1">Інформаційно-вказівні знаки » Дорожні знаки » ПДР Тест Центр</title><metadata
     id="metadata7"><rdf:RDF><cc:Work
         rdf:about=""><dc:format>&#10;					image/svg+xml&#10;				</dc:format><dc:type
           rdf:resource="http://purl.org/dc/dcmitype/StillImage" /><cc:license
           rdf:resource="http://creativecommons.org/licenses/by-nc-sa/4.0/" /><dc:creator><cc:Agent><dc:title>ПДР Тест Центр | PDR Test Center</dc:title></cc:Agent></dc:creator><dc:rights><cc:Agent><dc:title>ПДР Тест Центр | PDR Test Center</dc:title></cc:Agent></dc:rights><dc:language>uk-UA</dc:language><dc:date>2023-09-01</dc:date><dc:title>Інформаційно-вказівні знаки » Дорожні знаки » ПДР Тест Центр</dc:title><dc:publisher><cc:Agent><dc:title>https://pdrtest.com/</dc:title></cc:Agent></dc:publisher><dc:source>https://pdrtest.com/driver/rules/section/33.5</dc:source></cc:Work><cc:License
         rdf:about="http://creativecommons.org/licenses/by-nc-sa/4.0/"><cc:permits
           rdf:resource="http://creativecommons.org/ns#Reproduction" /><cc:permits
           rdf:resource="http://creativecommons.org/ns#Distribution" /><cc:requires
           rdf:resource="http://creativecommons.org/ns#Notice" /><cc:requires
           rdf:resource="http://creativecommons.org/ns#Attribution" /><cc:prohibits
           rdf:resource="http://creativecommons.org/ns#CommercialUse" /><cc:permits
           rdf:resource="http://creativecommons.org/ns#DerivativeWorks" /><cc:requires
           rdf:resource="http://creativecommons.org/ns#ShareAlike" /></cc:License></rdf:RDF></metadata><defs
     id="defs5"><inkscape:path-effect
       effect="spiro"
       id="path-effect2"
       is_visible="true"
       lpeversion="1" /><inkscape:path-effect
       effect="bspline"
       id="path-effect1"
       is_visible="true"
       lpeversion="1.3"
       weight="33.333333"
       steps="2"
       helper_size="0"
       apply_no_weight="true"
       apply_with_weight="true"
       only_selected="false"
       uniform="false" /><inkscape:perspective
       id="perspective9"
       inkscape:persp3d-origin="372.04724 : 380.78739 : 1"
       inkscape:vp_x="0 : 556.18109 : 1"
       inkscape:vp_y="0 : 1000 : 0"
       inkscape:vp_z="744.09448 : 556.18109 : 1"
       sodipodi:type="inkscape:persp3d" /><inkscape:perspective
       id="perspective2411"
       inkscape:persp3d-origin="372.04724 : 380.78739 : 1"
       inkscape:vp_x="0 : 556.18109 : 1"
       inkscape:vp_y="0 : 1000 : 0"
       inkscape:vp_z="744.09448 : 556.18109 : 1"
       sodipodi:type="inkscape:persp3d" /><inkscape:perspective
       id="perspective109"
       inkscape:persp3d-origin="372.04724 : 380.78739 : 1"
       inkscape:vp_x="0 : 556.18109 : 1"
       inkscape:vp_y="0 : 1000 : 0"
       inkscape:vp_z="744.09448 : 556.18109 : 1"
       sodipodi:type="inkscape:persp3d" /><inkscape:perspective
       id="perspective118"
       inkscape:persp3d-origin="372.04724 : 380.78739 : 1"
       inkscape:vp_x="0 : 556.18109 : 1"
       inkscape:vp_y="0 : 1000 : 0"
       inkscape:vp_z="744.09448 : 556.18109 : 1"
       sodipodi:type="inkscape:persp3d" /><inkscape:perspective
       id="perspective3489"
       inkscape:persp3d-origin="372.04724 : 380.78739 : 1"
       inkscape:vp_x="0 : 556.18109 : 1"
       inkscape:vp_y="0 : 1000 : 0"
       inkscape:vp_z="744.09448 : 556.18109 : 1"
       sodipodi:type="inkscape:persp3d" /><inkscape:perspective
       id="perspective3491"
       inkscape:persp3d-origin="372.04724 : 380.78739 : 1"
       inkscape:vp_x="0 : 556.18109 : 1"
       inkscape:vp_y="0 : 1000 : 0"
       inkscape:vp_z="744.09448 : 556.18109 : 1"
       sodipodi:type="inkscape:persp3d" /><inkscape:perspective
       id="perspective3493"
       inkscape:persp3d-origin="372.04724 : 380.78739 : 1"
       inkscape:vp_x="0 : 556.18109 : 1"
       inkscape:vp_y="0 : 1000 : 0"
       inkscape:vp_z="744.09448 : 556.18109 : 1"
       sodipodi:type="inkscape:persp3d" /><inkscape:perspective
       id="perspective3495"
       inkscape:persp3d-origin="372.04724 : 380.78739 : 1"
       inkscape:vp_x="0 : 556.18109 : 1"
       inkscape:vp_y="0 : 1000 : 0"
       inkscape:vp_z="744.09448 : 556.18109 : 1"
       sodipodi:type="inkscape:persp3d" /><inkscape:perspective
       id="perspective3497"
       inkscape:persp3d-origin="372.04724 : 380.78739 : 1"
       inkscape:vp_x="0 : 556.18109 : 1"
       inkscape:vp_y="0 : 1000 : 0"
       inkscape:vp_z="744.09448 : 556.18109 : 1"
       sodipodi:type="inkscape:persp3d" /><inkscape:perspective
       id="perspective3499"
       inkscape:persp3d-origin="372.04724 : 380.78739 : 1"
       inkscape:vp_x="0 : 556.18109 : 1"
       inkscape:vp_y="0 : 1000 : 0"
       inkscape:vp_z="744.09448 : 556.18109 : 1"
       sodipodi:type="inkscape:persp3d" /><inkscape:perspective
       id="perspective3501"
       inkscape:persp3d-origin="372.04724 : 380.78739 : 1"
       inkscape:vp_x="0 : 556.18109 : 1"
       inkscape:vp_y="0 : 1000 : 0"
       inkscape:vp_z="744.09448 : 556.18109 : 1"
       sodipodi:type="inkscape:persp3d" /><inkscape:perspective
       id="perspective3306"
       inkscape:persp3d-origin="372.04724 : 380.78739 : 1"
       inkscape:vp_x="0 : 556.18109 : 1"
       inkscape:vp_y="0 : 1000 : 0"
       inkscape:vp_z="744.09448 : 556.18109 : 1"
       sodipodi:type="inkscape:persp3d" /><inkscape:perspective
       id="perspective2426"
       inkscape:persp3d-origin="372.04724 : 380.78739 : 1"
       inkscape:vp_x="0 : 556.18109 : 1"
       inkscape:vp_y="0 : 1000 : 0"
       inkscape:vp_z="744.09448 : 556.18109 : 1"
       sodipodi:type="inkscape:persp3d" /><inkscape:perspective
       id="perspective2573"
       inkscape:persp3d-origin="372.04724 : 380.78739 : 1"
       inkscape:vp_x="0 : 556.18109 : 1"
       inkscape:vp_y="0 : 1000 : 0"
       inkscape:vp_z="744.09448 : 556.18109 : 1"
       sodipodi:type="inkscape:persp3d" /><inkscape:perspective
       id="perspective179"
       inkscape:persp3d-origin="372.04724 : 380.78739 : 1"
       inkscape:vp_x="0 : 556.18109 : 1"
       inkscape:vp_y="0 : 1000 : 0"
       inkscape:vp_z="744.09448 : 556.18109 : 1"
       sodipodi:type="inkscape:persp3d" /><inkscape:perspective
       id="perspective3311"
       inkscape:persp3d-origin="372.04724 : 380.78739 : 1"
       inkscape:vp_x="0 : 556.18109 : 1"
       inkscape:vp_y="0 : 1000 : 0"
       inkscape:vp_z="744.09448 : 556.18109 : 1"
       sodipodi:type="inkscape:persp3d" /><inkscape:perspective
       id="perspective3309"
       inkscape:persp3d-origin="372.04724 : 380.78739 : 1"
       inkscape:vp_x="0 : 556.18109 : 1"
       inkscape:vp_y="0 : 1000 : 0"
       inkscape:vp_z="744.09448 : 556.18109 : 1"
       sodipodi:type="inkscape:persp3d" /><inkscape:perspective
       id="perspective3307"
       inkscape:persp3d-origin="372.04724 : 380.78739 : 1"
       inkscape:vp_x="0 : 556.18109 : 1"
       inkscape:vp_y="0 : 1000 : 0"
       inkscape:vp_z="744.09448 : 556.18109 : 1"
       sodipodi:type="inkscape:persp3d" /><inkscape:perspective
       id="perspective3305"
       inkscape:persp3d-origin="372.04724 : 380.78739 : 1"
       inkscape:vp_x="0 : 556.18109 : 1"
       inkscape:vp_y="0 : 1000 : 0"
       inkscape:vp_z="744.09448 : 556.18109 : 1"
       sodipodi:type="inkscape:persp3d" /></defs><sodipodi:namedview
     bordercolor="#666666"
     borderopacity="1.0"
     gridtolerance="10.0"
     guidetolerance="10.0"
     id="base"
     inkscape:current-layer="svg2"
     inkscape:cx="124.99999"
     inkscape:cy="194.74999"
     inkscape:guide-bbox="true"
     inkscape:pageopacity="0.0"
     inkscape:pageshadow="2"
     inkscape:window-height="1009"
     inkscape:window-width="1920"
     inkscape:window-x="-8"
     inkscape:window-y="-8"
     inkscape:zoom="2.0000001"
     objecttolerance="10.0"
     pagecolor="#ffffff"
     showgrid="false"
     showguides="false"
     inkscape:showpageshadow="2"
     inkscape:pagecheckerboard="0"
     inkscape:deskcolor="#d1d1d1"
     inkscape:window-maximized="1" /><g
     id="g2423"
     transform="matrix(0.55529058,0,0,0.55529058,5.8958707,5.740662)"
     inkscape:label="sign_5_51"><path
       d="m 20.39267,60.497494 h 443.21466 c 11.02199,0 19.89529,8.873298 19.89529,19.895288 V 308.06339 c 0,11.02199 -8.8733,19.89529 -19.89529,19.89529 H 20.39267 c -11.0219894,0 -19.8952878,-8.8733 -19.8952878,-19.89529 V 80.392782 c 0,-11.02199 8.8732984,-19.895288 19.8952878,-19.895288 z"
       id="rect2410"
       sodipodi:nodetypes="ccccccccc"
       style="fill:#ffffff;fill-opacity:1;fill-rule:nonzero;stroke:#000000;stroke-width:3.22667;stroke-linecap:round;stroke-linejoin:miter;stroke-miterlimit:4;stroke-dasharray:none;stroke-opacity:1"
       inkscape:label="bg"
       transform="translate(-0.4973822,-60.497495)" /><path
       d="M 25.948476,6.5528775 H 457.03673 c 10.35162,0 18.68523,8.3336145 18.68523,18.6852325 v 216.37534 c 0,10.35163 -8.33361,18.68524 -18.68523,18.68524 H 25.948476 c -10.351619,0 -18.6852328,-8.33361 -18.6852328,-18.68524 V 25.23811 c 0,-10.351618 8.3336138,-18.6852325 18.6852328,-18.6852325 z"
       id="rect2410-1"
       sodipodi:nodetypes="ccccccccc"
       style="fill:#0000ff;fill-opacity:1;fill-rule:nonzero;stroke:none;stroke-width:3.03042;stroke-linecap:round;stroke-linejoin:miter;stroke-miterlimit:4;stroke-dasharray:none;stroke-opacity:1"
       inkscape:label="blue" /><path
       id="path2"
       style="display:inline;opacity:1;fill:#ffffff;fill-opacity:1;stroke:none;stroke-width:6.70213;stroke-dasharray:none;stroke-opacity:1;paint-order:stroke fill markers"
       d="m 48.144531,206.82812 a 20.25,20.25 0 0 1 0.06641,1.04688 20.25,20.25 0 0 1 -20.25,20.25 20.25,20.25 0 0 1 -0.0293,-0.004 v 6.0918 A 26.25,26.25 0 0 0 28.210938,234.25 26.25,26.25 0 0 0 52.386719,218.20117 26.25,26.25 0 0 0 76.560547,234.25 26.25,26.25 0 0 0 101.04297,217.36328 26.25,26.25 0 0 0 125.52734,234.25 26.25,26.25 0 0 0 149.52344,218.5625 26.25,26.25 0 0 0 173.52148,234.25 26.25,26.25 0 0 0 198.13672,216.97852 26.25,26.25 0 0 0 222.75,234.25 26.25,26.25 0 0 0 247.23438,217.36328 26.25,26.25 0 0 0 271.7168,234.25 a 26.25,26.25 0 0 0 0.4082,-0.0547 v -6.17383 a 20.25,20.25 0 0 1 -0.6582,0.10352 20.25,20.25 0 0 1 -20.25,-20.25 20.25,20.25 0 0 1 0.082,-1.04688 h -8.61524 a 20.25,20.25 0 0 1 0.0664,1.04688 20.25,20.25 0 0 1 -20.25,20.25 20.25,20.25 0 0 1 -20.25,-20.25 20.25,20.25 0 0 1 0.082,-1.04688 h -8.87695 a 20.25,20.25 0 0 1 0.0664,1.04688 20.25,20.25 0 0 1 -20.25,20.25 20.25,20.25 0 0 1 -20.25,-20.25 20.25,20.25 0 0 1 0.082,-1.04688 h -7.64258 a 20.25,20.25 0 0 1 0.0664,1.04688 20.25,20.25 0 0 1 -20.25,20.25 20.25,20.25 0 0 1 -20.25,-20.25 20.25,20.25 0 0 1 0.082,-1.04688 h -8.615239 a 20.25,20.25 0 0 1 0.06641,1.04688 20.25,20.25 0 0 1 -20.25,20.25 20.25,20.25 0 0 1 -20.25,-20.25 20.25,20.25 0 0 1 0.08203,-1.04688 z"
       inkscape:label="waves"
       transform="matrix(1.6133333,0,0,1.6133333,-0.49738249,-133.93738)" /><text
       xml:space="preserve"
       style="font-style:normal;font-variant:normal;font-weight:bold;font-stretch:normal;font-size:36.3542px;line-height:0.3;font-family:Arial;-inkscape-font-specification:'Arial Bold';letter-spacing:0px;word-spacing:2.82881px;fill:#ffffff;fill-opacity:1;stroke:none;stroke-width:1.36328;stroke-dasharray:none;stroke-opacity:1;paint-order:stroke fill markers"
       x="41.214344"
       y="187.14433"
       id="text3"
       inkscape:label="text_en"
       transform="matrix(1.6133333,0,0,1.6133333,-0.49738249,-133.93738)"><tspan
         sodipodi:role="line"
         id="tspan3"
         style="fill:#ffffff;fill-opacity:1;stroke-width:1.36328"
         x="41.214344"
         y="187.14433">Dnipro riv</tspan></text><text
       xml:space="preserve"
       style="font-size:43.9119px;line-height:0.3;font-family:'Microsoft Himalaya';-inkscape-font-specification:'Microsoft Himalaya';letter-spacing:0px;word-spacing:8.54225px;fill:#ffffff;fill-opacity:1;stroke:#000000;stroke-width:4.11675;stroke-dasharray:none;stroke-opacity:1;paint-order:stroke fill markers"
       x="41.326752"
       y="140.92174"
       id="text1"
       inkscape:label="text_ua"
       transform="matrix(1.6133333,0,0,1.6133333,-0.49738249,-133.93738)"><tspan
         sodipodi:role="line"
         id="tspan1"
         style="font-style:normal;font-variant:normal;font-weight:bold;font-stretch:normal;font-family:Arial;-inkscape-font-specification:'Arial Bold';fill:#ffffff;fill-opacity:1;stroke:none;stroke-width:4.11675"
         x="41.326752"
         y="140.92174">р. Дніпро</tspan></text></g></svg>
