<?xml version="1.0" encoding="UTF-8" standalone="no"?>
<!-- Created with Inkscape (http://www.inkscape.org/) -->

<svg
   height="280"
   id="svg2"
   inkscape:output_extension="org.inkscape.output.svg.inkscape"
   inkscape:version="1.3 (0e150ed6c4, 2023-07-21)"
   sodipodi:docname="5.71.svg"
   sodipodi:version="0.32"
   version="1.0"
   width="200"
   xmlns:inkscape="http://www.inkscape.org/namespaces/inkscape"
   xmlns:sodipodi="http://sodipodi.sourceforge.net/DTD/sodipodi-0.dtd"
   xmlns="http://www.w3.org/2000/svg"
   xmlns:svg="http://www.w3.org/2000/svg"
   xmlns:rdf="http://www.w3.org/1999/02/22-rdf-syntax-ns#"
   xmlns:cc="http://creativecommons.org/ns#"
   xmlns:dc="http://purl.org/dc/elements/1.1/">
  <title
     id="title1">Інформаційно-вказівні знаки » Дорожні знаки » ПДР Тест Центр</title>
  <metadata
     id="metadata7">
    <rdf:RDF>
      <cc:Work
         rdf:about="">
        <dc:format>&#10;					image/svg+xml&#10;				</dc:format>
        <dc:type
           rdf:resource="http://purl.org/dc/dcmitype/StillImage" />
        <dc:title>Інформаційно-вказівні знаки » Дорожні знаки » ПДР Тест Центр</dc:title>
        <cc:license
           rdf:resource="http://creativecommons.org/licenses/by-nc-sa/4.0/" />
        <dc:creator>
          <cc:Agent>
            <dc:title>ПДР Тест Центр | PDR Test Center</dc:title>
          </cc:Agent>
        </dc:creator>
        <dc:rights>
          <cc:Agent>
            <dc:title>ПДР Тест Центр | PDR Test Center</dc:title>
          </cc:Agent>
        </dc:rights>
        <dc:language>uk-UA</dc:language>
        <dc:date>2023-09-01</dc:date>
        <dc:publisher>
          <cc:Agent>
            <dc:title>https://pdrtest.com/</dc:title>
          </cc:Agent>
        </dc:publisher>
        <dc:source>https://pdrtest.com/driver/rules/section/33.5</dc:source>
      </cc:Work>
      <cc:License
         rdf:about="http://creativecommons.org/licenses/by-nc-sa/4.0/">
        <cc:permits
           rdf:resource="http://creativecommons.org/ns#Reproduction" />
        <cc:permits
           rdf:resource="http://creativecommons.org/ns#Distribution" />
        <cc:requires
           rdf:resource="http://creativecommons.org/ns#Notice" />
        <cc:requires
           rdf:resource="http://creativecommons.org/ns#Attribution" />
        <cc:prohibits
           rdf:resource="http://creativecommons.org/ns#CommercialUse" />
        <cc:permits
           rdf:resource="http://creativecommons.org/ns#DerivativeWorks" />
        <cc:requires
           rdf:resource="http://creativecommons.org/ns#ShareAlike" />
      </cc:License>
    </rdf:RDF>
  </metadata>
  <defs
     id="defs5">
    <inkscape:perspective
       id="perspective9"
       inkscape:persp3d-origin="372.04724 : 361.15442 : 1"
       inkscape:vp_x="0 : 536.54812 : 1"
       inkscape:vp_y="0 : 1000 : 0"
       inkscape:vp_z="744.09448 : 536.54812 : 1"
       sodipodi:type="inkscape:persp3d" />
    <inkscape:perspective
       id="perspective2411"
       inkscape:persp3d-origin="372.04724 : 361.15442 : 1"
       inkscape:vp_x="0 : 536.54812 : 1"
       inkscape:vp_y="0 : 1000 : 0"
       inkscape:vp_z="744.09448 : 536.54812 : 1"
       sodipodi:type="inkscape:persp3d" />
    <inkscape:perspective
       id="perspective109"
       inkscape:persp3d-origin="372.04724 : 361.15442 : 1"
       inkscape:vp_x="0 : 536.54812 : 1"
       inkscape:vp_y="0 : 1000 : 0"
       inkscape:vp_z="744.09448 : 536.54812 : 1"
       sodipodi:type="inkscape:persp3d" />
    <inkscape:perspective
       id="perspective118"
       inkscape:persp3d-origin="372.04724 : 361.15442 : 1"
       inkscape:vp_x="0 : 536.54812 : 1"
       inkscape:vp_y="0 : 1000 : 0"
       inkscape:vp_z="744.09448 : 536.54812 : 1"
       sodipodi:type="inkscape:persp3d" />
    <inkscape:perspective
       id="perspective179"
       inkscape:persp3d-origin="372.04724 : 361.15442 : 1"
       inkscape:vp_x="0 : 536.54812 : 1"
       inkscape:vp_y="0 : 1000 : 0"
       inkscape:vp_z="744.09448 : 536.54812 : 1"
       sodipodi:type="inkscape:persp3d" />
    <inkscape:perspective
       id="perspective2573"
       inkscape:persp3d-origin="372.04724 : 361.15442 : 1"
       inkscape:vp_x="0 : 536.54812 : 1"
       inkscape:vp_y="0 : 1000 : 0"
       inkscape:vp_z="744.09448 : 536.54812 : 1"
       sodipodi:type="inkscape:persp3d" />
    <inkscape:perspective
       id="perspective2426"
       inkscape:persp3d-origin="372.04724 : 361.15442 : 1"
       inkscape:vp_x="0 : 536.54812 : 1"
       inkscape:vp_y="0 : 1000 : 0"
       inkscape:vp_z="744.09448 : 536.54812 : 1"
       sodipodi:type="inkscape:persp3d" />
    <inkscape:path-effect
       effect="fillet_chamfer"
       id="path-effect1"
       is_visible="true"
       lpeversion="1"
       nodesatellites_param="F,0,0,1,0,0.98482575,0,1 @ F,0,0,1,0,1.6497025,0,1 @ F,0,0,1,0,1.3191505,0,1 @ F,0,0,1,0,1.5655248,0,1 @ F,0,0,1,0,1.4421256,0,1 @ F,0,0,1,0,3.8535214,0,1 @ F,0,0,1,0,1.3748119,0,1 @ F,0,0,1,0,3.5189348,0,1 @ F,0,0,1,0,3.0187049,0,1 @ F,0,0,1,0,3.8535214,0,1 @ F,0,0,1,0,0,0,1 @ F,0,0,1,0,0,0,1 @ F,0,0,1,0,0,0,1 @ F,0,0,1,0,3.8535214,0,1 @ F,0,0,1,0,2.0833203,0,1 @ F,0,0,1,0,3.6134381,0,1 @ F,0,0,1,0,1.1332962,0,1 @ F,0,0,1,0,3.8535214,0,1 @ F,0,0,1,0,1.3263892,0,1 @ F,0,0,1,0,1.2454848,0,1 @ F,0,0,1,0,1.4421256,0,1"
       radius="0"
       unit="px"
       method="auto"
       mode="F"
       chamfer_steps="1"
       flexible="false"
       use_knot_distance="true"
       apply_no_radius="true"
       apply_with_radius="true"
       only_selected="false"
       hide_knots="false" />
  </defs>
  <sodipodi:namedview
     bordercolor="#666666"
     borderopacity="1.0"
     gridtolerance="10.0"
     guidetolerance="10.0"
     id="base"
     inkscape:current-layer="svg2"
     inkscape:cx="30.405591"
     inkscape:cy="215.31401"
     inkscape:guide-bbox="true"
     inkscape:pageopacity="0.0"
     inkscape:pageshadow="2"
     inkscape:window-height="1009"
     inkscape:window-width="1920"
     inkscape:zoom="1.4142136"
     objecttolerance="10.0"
     pagecolor="#ffffff"
     showgrid="false"
     showguides="false"
     inkscape:showpageshadow="2"
     inkscape:pagecheckerboard="0"
     inkscape:deskcolor="#d1d1d1"
     inkscape:window-x="-8"
     inkscape:window-y="-8"
     inkscape:window-maximized="1" />
  <g
     id="g3286"
     transform="translate(5.002215,5.194346)"
     inkscape:label="sign_5_71">
    <path
       d="M 20.761302,2.3941002 H 169.14016 c 11.82057,0 21.33676,9.3113448 21.33676,20.8774548 V 266.61171 c 0,11.56611 -9.51619,20.87745 -21.33676,20.87745 H 20.761302 c -11.8205654,0 -21.33676106,-9.31134 -21.33676106,-20.87745 V 23.271555 c 0,-11.56611 9.51619566,-20.8774548 21.33676106,-20.8774548 z"
       id="rect3292"
       style="fill:#ffffff;fill-opacity:1;fill-rule:nonzero;stroke:#000000;stroke-width:2.07113;stroke-linecap:round;stroke-linejoin:miter;stroke-miterlimit:4;stroke-dasharray:none;stroke-opacity:1"
       transform="matrix(0.9894239,0,0,0.9424637,1.051263,-1.796571)"
       inkscape:label="bg" />
    <path
       d="M 25.409315,8.3852024 H 164.49215 c 11.08,0 20,8.9199996 20,19.9999996 V 261.49806 c 0,11.08 -8.92,20 -20,20 H 25.409315 c -11.08,0 -20.0000004,-8.92 -20.0000004,-20 V 28.385202 c 0,-11.08 8.9200004,-19.9999996 20.0000004,-19.9999996 z"
       id="rect3280"
       style="fill:#0000ff;fill-opacity:1;fill-rule:nonzero;stroke:none;stroke-width:2;stroke-linecap:round;stroke-linejoin:miter;stroke-miterlimit:4;stroke-opacity:1"
       transform="matrix(0.9894239,0,0,0.9424637,1.051263,-1.796571)"
       inkscape:label="blue" />
    <path
       d="M 37.323893,45.67495 H 152.57757 c 8.864,0 16,7.136 16,16 v 129.70399 c 0,8.864 -7.136,16 -16,16 H 37.323893 c -8.864,0 -16,-7.136 -16,-16 V 61.67495 c 0,-8.864 7.136,-16 16,-16 z"
       id="rect3286"
       style="fill:#ffffff;fill-opacity:1;fill-rule:nonzero;stroke:none;stroke-width:2;stroke-linecap:round;stroke-linejoin:miter;stroke-miterlimit:4;stroke-opacity:1"
       transform="matrix(0.9894239,0,0,0.9424637,1.051263,-1.796571)"
       inkscape:label="white" />
    <path
       class="fil2"
       d="m 70.56271,93.197945 -1.277268,1.791398 a 10.914735,10.914735 134.08379 0 1 -2.269649,2.343423 l -5.533724,4.218824 a 0.93531594,0.93531594 88.016421 0 0 0.05282,1.52507 l 5.280709,3.47592 a 3.0105811,3.0105811 5.8793966 0 0 2.763299,0.28456 l 6.255127,-2.476 a 2.9580286,2.9580286 4.3952159 0 1 2.584931,0.19869 l 9.260714,5.43014 a 2.1168506,2.1168506 91.604543 0 1 -0.103902,3.70923 l -32.812724,16.8466 a 1.9698492,1.9698492 117.91103 0 0 -1.055459,1.99249 l 0.15063,1.22656 a 4.4043208,4.4043208 44.374864 0 0 3.930148,3.84531 l 2.231919,0.22478 a 13.018597,13.018597 172.69611 0 0 5.833646,-0.74771 L 103.915,122.96366 a 8.0689154,8.0689154 5.1693117 0 1 6.92635,0.6266 l 23.953,14.22075 c 2.01173,1.19432 4.71491,0.44026 5.84612,-1.63409 1.13146,-1.94886 0.44,-4.52582 -1.50861,-5.78301 l -23.25283,-13.90814 a 8.4686844,8.4686844 55.351814 0 1 -3.98825,-5.7709 l -7.55815,-42.085924 a 7.3248944,7.3248944 63.942239 0 0 -1.76049,-3.60032 l -1.50945,-1.680285 a 5.6450598,5.6450598 15.442055 0 0 -5.866973,-1.620666 l -0.909075,0.281084 a 1.4556674,1.4556674 124.91629 0 0 -1.023687,1.466533 l 1.94031,37.198238 a 2.0991718,2.0991718 148.43513 0 1 -3.141341,1.92991 l -9.525111,-5.467491 a 2.7441005,2.7441005 55.653461 0 1 -1.347529,-1.97196 L 80.12587,88.090128 a 2.5964347,2.5964347 55.824152 0 0 -1.261621,-1.858103 l -4.748866,-2.763636 a 1.0095801,1.0095801 155.19204 0 0 -1.501469,0.694029 l -1.305298,7.264352 a 4.3874411,4.3874411 112.83771 0 1 -0.745906,1.771175 z"
       id="_44913272-9"
       style="display:inline;fill:#000000;fill-rule:evenodd"
       inkscape:label="plane"
       sodipodi:nodetypes="cccccccccccccccccccccc"
       inkscape:path-effect="#path-effect1"
       inkscape:original-d="m 71.134446,92.396072 -2.806731,3.936505 -7.894698,6.018793 7.690244,5.06196 9.051659,-3.58296 13.828946,8.10879 -37.463859,19.23457 0.74713,6.08382 8.736654,0.87988 44.504009,-16.5144 27.26655,16.18798 c 2.01173,1.19432 4.71491,0.44026 5.84612,-1.63409 1.13146,-1.94886 0.44,-4.52582 -1.50861,-5.78301 l -26.55993,-15.8862 -8.60755,-47.92928 -5.316479,-5.918164 -5.44398,1.683268 2.200076,42.178286 -14.017532,-8.04618 -1.445748,-9.617157 -7.071758,-4.115459 z"
       transform="matrix(-0.9650042,0.55714543,-0.55714543,-0.9650042,258.70741,170.22327)" />
  </g>
</svg>
