<?xml version="1.0" encoding="UTF-8" standalone="no"?>
<!-- Created with Inkscape (http://www.inkscape.org/) -->

<svg
   height="280"
   id="svg2"
   inkscape:output_extension="org.inkscape.output.svg.inkscape"
   inkscape:version="1.3 (0e150ed6c4, 2023-07-21)"
   sodipodi:docname="5.72.svg"
   sodipodi:version="0.32"
   version="1.0"
   width="200"
   xml:space="preserve"
   xmlns:inkscape="http://www.inkscape.org/namespaces/inkscape"
   xmlns:sodipodi="http://sodipodi.sourceforge.net/DTD/sodipodi-0.dtd"
   xmlns="http://www.w3.org/2000/svg"
   xmlns:svg="http://www.w3.org/2000/svg"
   xmlns:rdf="http://www.w3.org/1999/02/22-rdf-syntax-ns#"
   xmlns:cc="http://creativecommons.org/ns#"
   xmlns:dc="http://purl.org/dc/elements/1.1/"><title
     id="title1">Інформаційно-вказівні знаки » Дорожні знаки » ПДР Тест Центр</title><metadata
     id="metadata7"><rdf:RDF><cc:Work
         rdf:about=""><dc:format>&#10;					image/svg+xml&#10;				</dc:format><dc:type
           rdf:resource="http://purl.org/dc/dcmitype/StillImage" /><cc:license
           rdf:resource="http://creativecommons.org/licenses/by-nc-sa/4.0/" /><dc:creator><cc:Agent><dc:title>ПДР Тест Центр | PDR Test Center</dc:title></cc:Agent></dc:creator><dc:rights><cc:Agent><dc:title>ПДР Тест Центр | PDR Test Center</dc:title></cc:Agent></dc:rights><dc:language>uk-UA</dc:language><dc:date>2023-09-01</dc:date><dc:title>Інформаційно-вказівні знаки » Дорожні знаки » ПДР Тест Центр</dc:title><dc:publisher><cc:Agent><dc:title>https://pdrtest.com/</dc:title></cc:Agent></dc:publisher><dc:source>https://pdrtest.com/driver/rules/section/33.5</dc:source></cc:Work><cc:License
         rdf:about="http://creativecommons.org/licenses/by-nc-sa/4.0/"><cc:permits
           rdf:resource="http://creativecommons.org/ns#Reproduction" /><cc:permits
           rdf:resource="http://creativecommons.org/ns#Distribution" /><cc:requires
           rdf:resource="http://creativecommons.org/ns#Notice" /><cc:requires
           rdf:resource="http://creativecommons.org/ns#Attribution" /><cc:prohibits
           rdf:resource="http://creativecommons.org/ns#CommercialUse" /><cc:permits
           rdf:resource="http://creativecommons.org/ns#DerivativeWorks" /><cc:requires
           rdf:resource="http://creativecommons.org/ns#ShareAlike" /></cc:License></rdf:RDF></metadata><defs
     id="defs5"><inkscape:path-effect
       effect="fillet_chamfer"
       id="path-effect13"
       is_visible="true"
       lpeversion="1"
       nodesatellites_param="F,0,0,1,0,1.4231004,0,1 @ F,0,0,1,0,1.5015625,0,1 @ F,0,0,1,0,1.5664062,0,1 @ F,0,0,1,0,1.4097639,0,1"
       radius="0"
       unit="px"
       method="auto"
       mode="F"
       chamfer_steps="1"
       flexible="false"
       use_knot_distance="true"
       apply_no_radius="true"
       apply_with_radius="true"
       only_selected="false"
       hide_knots="false" /><inkscape:path-effect
       effect="fillet_chamfer"
       id="path-effect11"
       is_visible="true"
       lpeversion="1"
       nodesatellites_param="F,0,0,1,0,1.4231004,0,1 @ F,0,0,1,0,1.5015625,0,1 @ F,0,0,1,0,1.5664062,0,1 @ F,0,0,1,0,1.4097639,0,1"
       radius="0"
       unit="px"
       method="auto"
       mode="F"
       chamfer_steps="1"
       flexible="false"
       use_knot_distance="true"
       apply_no_radius="true"
       apply_with_radius="true"
       only_selected="false"
       hide_knots="false" /><inkscape:path-effect
       effect="fillet_chamfer"
       id="path-effect10"
       is_visible="true"
       lpeversion="1"
       nodesatellites_param="F,0,0,1,0,0,0,1 @ F,0,0,1,0,0,0,1 @ F,0,0,1,0,0,0,1 @ F,0,0,1,0,2.7029551,0,1 @ F,0,0,1,0,2.2656291,0,1 @ F,0,0,1,0,0,0,1 @ F,0,0,1,0,0,0,1 @ F,0,0,1,0,0,0,1 @ F,0,0,1,0,0,0,1 @ F,0,0,1,0,0,0,1 @ F,0,0,1,0,0,0,1 @ F,0,0,1,0,0,0,1 @ F,0,0,1,0,0,0,1 @ F,0,0,1,0,0,0,1 @ F,0,0,1,0,0,0,1 @ F,0,0,1,0,0,0,1 @ F,0,0,1,0,0,0,1 @ F,0,0,1,0,0,0,1 @ F,0,0,1,0,0,0,1 @ F,0,0,1,0,0,0,1 @ F,0,0,1,0,0,0,1 @ F,0,0,1,0,0,0,1 @ F,0,0,1,0,0,0,1 | F,0,0,1,0,0,0,1 @ F,0,0,1,0,0,0,1 @ F,0,0,1,0,0,0,1 @ F,0,0,1,0,0,0,1 @ F,0,0,1,0,0,0,1 @ F,0,0,1,0,0,0,1 @ F,0,0,1,0,0,0,1 @ F,0,0,1,0,0,0,1 @ F,0,0,1,0,0,0,1 | F,0,0,1,0,0,0,1 @ F,0,0,1,0,0,0,1 @ F,0,0,1,0,0,0,1 @ F,0,0,1,0,0,0,1 | F,0,0,1,0,0,0,1 @ F,0,0,1,0,0,0,1 @ F,0,0,1,0,0,0,1 @ F,0,0,1,0,0,0,1 | F,0,0,1,0,0,0,1 @ F,0,0,1,0,0,0,1 @ F,0,0,1,0,0,0,1 @ F,0,0,1,0,0,0,1 | F,0,0,1,0,0,0,1 @ F,0,0,1,0,0,0,1 @ F,0,0,1,0,0,0,1 @ F,0,0,1,0,0,0,1 @ F,0,0,1,0,0,0,1"
       radius="0"
       unit="px"
       method="auto"
       mode="F"
       chamfer_steps="1"
       flexible="false"
       use_knot_distance="true"
       apply_no_radius="true"
       apply_with_radius="true"
       only_selected="false"
       hide_knots="false" /><inkscape:path-effect
       effect="fillet_chamfer"
       id="path-effect8"
       is_visible="true"
       lpeversion="1"
       nodesatellites_param="F,0,0,1,0,2.1028389,0,1 @ F,0,0,1,0,1.0802863,0,1 @ F,0,0,1,0,1.6567872,0,1 @ F,0,0,1,0,0,0,1"
       radius="0"
       unit="px"
       method="auto"
       mode="F"
       chamfer_steps="1"
       flexible="false"
       use_knot_distance="true"
       apply_no_radius="true"
       apply_with_radius="true"
       only_selected="false"
       hide_knots="false" /><inkscape:path-effect
       effect="fillet_chamfer"
       id="path-effect6"
       is_visible="true"
       lpeversion="1"
       nodesatellites_param="F,0,0,1,0,3.1717733,0,1 @ F,0,0,1,0,1.6260162,0,1 @ F,0,0,1,0,0,0,1 @ F,0,0,1,0,0,0,1 @ F,0,0,1,0,0,0,1"
       radius="0"
       unit="px"
       method="auto"
       mode="F"
       chamfer_steps="1"
       flexible="false"
       use_knot_distance="true"
       apply_no_radius="true"
       apply_with_radius="true"
       only_selected="false"
       hide_knots="false" /><inkscape:path-effect
       effect="fillet_chamfer"
       id="path-effect4"
       is_visible="true"
       lpeversion="1"
       nodesatellites_param="F,0,0,1,0,0.6712885,0,1 @ F,0,0,1,0,0.715039,0,1 @ F,0,0,1,0,0.7650385,0,1 @ F,0,0,1,0,0.699414,0,1"
       radius="0"
       unit="px"
       method="auto"
       mode="F"
       chamfer_steps="1"
       flexible="false"
       use_knot_distance="true"
       apply_no_radius="true"
       apply_with_radius="true"
       only_selected="false"
       hide_knots="false" /><inkscape:path-effect
       effect="fillet_chamfer"
       id="path-effect3"
       is_visible="true"
       lpeversion="1"
       nodesatellites_param="F,0,0,1,0,0.39003708,0,1 @ F,0,0,1,0,0.3873068,0,1 @ F,0,0,1,0,0.36794501,0,1 @ F,0,0,1,0,0.35346807,0,1"
       radius="0"
       unit="px"
       method="auto"
       mode="F"
       chamfer_steps="1"
       flexible="false"
       use_knot_distance="true"
       apply_no_radius="true"
       apply_with_radius="true"
       only_selected="false"
       hide_knots="false" /><inkscape:path-effect
       effect="fillet_chamfer"
       id="path-effect1"
       is_visible="true"
       lpeversion="1"
       nodesatellites_param="F,0,0,1,0,2.4160104,0,1 @ F,0,0,1,0,2.9548761,0,1 @ F,0,0,1,0,0,0,1 @ F,0,0,1,0,0,0,1"
       radius="0"
       unit="px"
       method="auto"
       mode="F"
       chamfer_steps="1"
       flexible="false"
       use_knot_distance="true"
       apply_no_radius="true"
       apply_with_radius="true"
       only_selected="false"
       hide_knots="false" /><inkscape:perspective
       id="perspective9"
       inkscape:persp3d-origin="372.04724 : 361.15442 : 1"
       inkscape:vp_x="0 : 536.54812 : 1"
       inkscape:vp_y="0 : 1000 : 0"
       inkscape:vp_z="744.09448 : 536.54812 : 1"
       sodipodi:type="inkscape:persp3d" /><inkscape:perspective
       id="perspective2411"
       inkscape:persp3d-origin="372.04724 : 361.15442 : 1"
       inkscape:vp_x="0 : 536.54812 : 1"
       inkscape:vp_y="0 : 1000 : 0"
       inkscape:vp_z="744.09448 : 536.54812 : 1"
       sodipodi:type="inkscape:persp3d" /><inkscape:perspective
       id="perspective109"
       inkscape:persp3d-origin="372.04724 : 361.15442 : 1"
       inkscape:vp_x="0 : 536.54812 : 1"
       inkscape:vp_y="0 : 1000 : 0"
       inkscape:vp_z="744.09448 : 536.54812 : 1"
       sodipodi:type="inkscape:persp3d" /><inkscape:perspective
       id="perspective118"
       inkscape:persp3d-origin="372.04724 : 361.15442 : 1"
       inkscape:vp_x="0 : 536.54812 : 1"
       inkscape:vp_y="0 : 1000 : 0"
       inkscape:vp_z="744.09448 : 536.54812 : 1"
       sodipodi:type="inkscape:persp3d" /><inkscape:perspective
       id="perspective179"
       inkscape:persp3d-origin="372.04724 : 361.15442 : 1"
       inkscape:vp_x="0 : 536.54812 : 1"
       inkscape:vp_y="0 : 1000 : 0"
       inkscape:vp_z="744.09448 : 536.54812 : 1"
       sodipodi:type="inkscape:persp3d" /><inkscape:perspective
       id="perspective2573"
       inkscape:persp3d-origin="372.04724 : 361.15442 : 1"
       inkscape:vp_x="0 : 536.54812 : 1"
       inkscape:vp_y="0 : 1000 : 0"
       inkscape:vp_z="744.09448 : 536.54812 : 1"
       sodipodi:type="inkscape:persp3d" /><inkscape:perspective
       id="perspective2426"
       inkscape:persp3d-origin="372.04724 : 361.15442 : 1"
       inkscape:vp_x="0 : 536.54812 : 1"
       inkscape:vp_y="0 : 1000 : 0"
       inkscape:vp_z="744.09448 : 536.54812 : 1"
       sodipodi:type="inkscape:persp3d" /></defs><sodipodi:namedview
     bordercolor="#666666"
     borderopacity="1.0"
     gridtolerance="10.0"
     guidetolerance="10.0"
     id="base"
     inkscape:current-layer="svg2"
     inkscape:cx="43.133514"
     inkscape:cy="245.0125"
     inkscape:guide-bbox="true"
     inkscape:pageopacity="0.0"
     inkscape:pageshadow="2"
     inkscape:window-height="1009"
     inkscape:window-width="1920"
     inkscape:zoom="1.4142136"
     objecttolerance="10.0"
     pagecolor="#ffffff"
     showgrid="false"
     showguides="false"
     inkscape:showpageshadow="2"
     inkscape:pagecheckerboard="0"
     inkscape:deskcolor="#d1d1d1"
     inkscape:window-x="-8"
     inkscape:window-y="-8"
     inkscape:window-maximized="1" /><g
     id="g3286"
     transform="translate(5.002215,5.194346)"
     inkscape:label="sign_5_72"><path
       d="M 20.761302,2.3941002 H 169.14016 c 11.82057,0 21.33676,9.3113448 21.33676,20.8774548 V 266.61171 c 0,11.56611 -9.51619,20.87745 -21.33676,20.87745 H 20.761302 c -11.8205654,0 -21.33676106,-9.31134 -21.33676106,-20.87745 V 23.271555 c 0,-11.56611 9.51619566,-20.8774548 21.33676106,-20.8774548 z"
       id="rect3292"
       style="fill:#ffffff;fill-opacity:1;fill-rule:nonzero;stroke:#000000;stroke-width:2.07113;stroke-linecap:round;stroke-linejoin:miter;stroke-miterlimit:4;stroke-dasharray:none;stroke-opacity:1"
       transform="matrix(0.9894239,0,0,0.9424637,1.051263,-1.796571)"
       inkscape:label="bg" /><path
       d="M 25.409315,8.3852024 H 164.49215 c 11.08,0 20,8.9199996 20,19.9999996 V 261.49806 c 0,11.08 -8.92,20 -20,20 H 25.409315 c -11.08,0 -20.0000004,-8.92 -20.0000004,-20 V 28.385202 c 0,-11.08 8.9200004,-19.9999996 20.0000004,-19.9999996 z"
       id="rect3280"
       style="fill:#0000ff;fill-opacity:1;fill-rule:nonzero;stroke:none;stroke-width:2;stroke-linecap:round;stroke-linejoin:miter;stroke-miterlimit:4;stroke-opacity:1"
       transform="matrix(0.9894239,0,0,0.9424637,1.051263,-1.796571)"
       inkscape:label="blue" /><path
       d="M 39.703988,40.27814 H 153.73873 c 8.77025,0 15.83078,6.725421 15.83078,15.079419 V 177.59886 c 0,8.354 -7.06053,15.07942 -15.83078,15.07942 H 39.703988 c -8.770254,0 -15.830783,-6.72542 -15.830783,-15.07942 V 55.357559 c 0,-8.353998 7.060529,-15.079419 15.830783,-15.079419 z"
       id="rect3286"
       style="fill:#ffffff;fill-opacity:1;fill-rule:nonzero;stroke:none;stroke-width:1.93132;stroke-linecap:round;stroke-linejoin:miter;stroke-miterlimit:4;stroke-opacity:1"
       inkscape:label="white" /><g
       id="g10"
       inkscape:label="sign"
       transform="matrix(1.3068124,0,0,1.3068124,646.34833,-47.483623)"><path
         id="rect6"
         style="opacity:1;fill:#000000;fill-opacity:1;stroke:none;stroke-width:3;stroke-dasharray:none;stroke-opacity:1;paint-order:stroke fill markers"
         d="m -410.12485,108.00008 -15.15625,8.25391 14.34375,9.5625 h -30.10954 c -1.49281,0 -3.70032,0.68644 -4.89049,1.58734 -6.67579,5.05323 -13.54382,12.19768 -16.82379,20.00083 -0.48474,1.15321 -0.51758,3.1081 0.0672,4.21225 1.9432,3.6693 5.41227,5.37632 8.69416,7.32458 1.83561,1.3132 0.73687,1.364 0.0156,2.4375 l 0.0137,0.90039 29.77149,0.0957 1.80859,-3.58984 c 1.25244,-0.0128 2.50531,-0.01 3.75781,-0.0176 0.28794,2.15306 1.68383,3.99744 3.67774,4.85937 h -53.61329 v 2.29688 h 91.7461 v -2.29688 H -391.66 c 1.96476,-0.84583 3.35329,-2.64648 3.67187,-4.76171 3.41284,0.0278 6.82576,0.0568 10.23828,0.0762 v -33.125 h -27.1875 l -15.25195,-9.24805 14.70703,-8.54297 z m -31.68945,19.16211 c 0.15636,-0.003 0.30537,0.008 0.44531,0.0391 1.50415,0.33425 2.31442,1.76389 2.4961,3.05469 0.92702,6.9309 -2.13312,8.59888 -5.16407,10.1582 -0.81356,0.41857 -2.20191,0.84786 -3.11523,0.90235 -3.73887,0.22306 -5.60161,-0.12368 -6.87891,-0.64844 -0.55148,-0.22657 -0.75078,-0.9091 -0.46289,-1.43164 2.26638,-4.1136 5.38904,-7.64876 9.34571,-10.63477 0.81104,-0.61207 2.23948,-1.41503 3.33398,-1.43945 z m 31.05078,4.03516 c 2.44117,-2.8e-4 4.4202,1.97875 4.41992,4.41992 2.8e-4,2.44117 -1.97875,4.4202 -4.41992,4.41992 -2.44041,-8e-4 -4.41825,-1.97951 -4.41797,-4.41992 -2.8e-4,-2.44041 1.97756,-4.41912 4.41797,-4.41992 z m 11.55664,0 c 2.44041,8e-4 4.41825,1.97951 4.41797,4.41992 2.8e-4,2.44041 -1.97756,4.41912 -4.41797,4.41992 -2.44117,2.8e-4 -4.4202,-1.97875 -4.41992,-4.41992 -2.8e-4,-2.44117 1.97875,-4.4202 4.41992,-4.41992 z m 11.62696,0 c 2.4404,8e-4 4.41824,1.97952 4.41796,4.41992 2.8e-4,2.4404 -1.97756,4.41912 -4.41796,4.41992 -2.44117,2.8e-4 -4.42021,-1.97875 -4.41993,-4.41992 -2.8e-4,-2.44117 1.97876,-4.4202 4.41993,-4.41992 z m -18.78516,27.55468 c 2.03912,0.007 4.07803,0.0106 6.11719,0.0234 0.29051,2.15014 1.686,3.99103 3.67773,4.85156 h -13.47461 c 1.99902,-0.86419 3.39653,-2.71567 3.67969,-4.875 z"
         inkscape:path-effect="#path-effect10"
         inkscape:original-d="m -410.12485,108.00008 -15.15625,8.25391 14.34375,9.5625 h -32.8125 c -7.90413,5.49094 -16.6826,14.21862 -19.80664,23.70898 1.60005,5.17746 5.70711,7.13079 9.55664,9.41602 1.83561,1.3132 0.73687,1.364 0.0156,2.4375 l 0.0137,0.90039 29.77149,0.0957 1.80859,-3.58984 c 1.25244,-0.0128 2.50531,-0.01 3.75781,-0.0176 a 6.1875,6.1875 0 0 0 3.67774,4.85937 h -53.61329 v 2.29688 h 91.7461 v -2.29688 H -391.66 a 6.1875,6.1875 0 0 0 3.67187,-4.76171 c 3.41284,0.0278 6.82576,0.0568 10.23828,0.0762 v -33.125 h -27.1875 l -15.25195,-9.24805 14.70703,-8.54297 z m -31.68945,19.16211 c 0.15636,-0.003 0.30537,0.008 0.44531,0.0391 1.50415,0.33425 2.31442,1.76389 2.4961,3.05469 0.92702,6.9309 -2.13312,8.59888 -5.16407,10.1582 -0.81356,0.41857 -2.20191,0.84786 -3.11523,0.90235 -3.73887,0.22306 -5.60161,-0.12368 -6.87891,-0.64844 -0.55148,-0.22657 -0.75078,-0.9091 -0.46289,-1.43164 2.26638,-4.1136 5.38904,-7.64876 9.34571,-10.63477 0.81104,-0.61207 2.23948,-1.41503 3.33398,-1.43945 z m 31.05078,4.03516 a 4.4194174,4.4194174 0 0 1 4.41992,4.41992 4.4194174,4.4194174 0 0 1 -4.41992,4.41992 4.4194174,4.4194174 0 0 1 -4.41797,-4.41992 4.4194174,4.4194174 0 0 1 4.41797,-4.41992 z m 11.55664,0 a 4.4194174,4.4194174 0 0 1 4.41797,4.41992 4.4194174,4.4194174 0 0 1 -4.41797,4.41992 4.4194174,4.4194174 0 0 1 -4.41992,-4.41992 4.4194174,4.4194174 0 0 1 4.41992,-4.41992 z m 11.62696,0 a 4.4194174,4.4194174 0 0 1 4.41796,4.41992 4.4194174,4.4194174 0 0 1 -4.41796,4.41992 4.4194174,4.4194174 0 0 1 -4.41993,-4.41992 4.4194174,4.4194174 0 0 1 4.41993,-4.41992 z m -18.78516,27.55468 c 2.03912,0.007 4.07803,0.0106 6.11719,0.0234 a 6.1875,6.1875 0 0 0 3.67773,4.85156 h -13.47461 a 6.1875,6.1875 0 0 0 3.67969,-4.875 z"
         inkscape:label="train"
         transform="translate(3.060883e-6)" /><path
         id="rect1"
         style="display:inline;opacity:1;fill:#000000;stroke-width:1.019;paint-order:stroke fill markers"
         d="m -468.51156,84.916091 v 1.995432 a 3.3066854,3.3066854 48.215814 0 0 2.93628,3.285874 l 89.19457,10.054633 V 82.500081 h -89.71484 a 2.4160104,2.4160104 135 0 0 -2.41601,2.41601 z"
         sodipodi:nodetypes="ccccc"
         inkscape:path-effect="#path-effect1"
         inkscape:original-d="m -468.51156,82.500081 v 7.366318 l 92.13085,10.385631 V 82.500081 Z"
         inkscape:label="roof" /><g
         id="g13"
         inkscape:label="arr"><path
           id="path1"
           style="opacity:1;fill:none;stroke:#000000;stroke-width:2.08073;stroke-dasharray:none;stroke-opacity:1;paint-order:stroke fill markers"
           d="m -456.62485,97.420003 a 10.772133,10.772133 0 0 0 -10.77148,10.771487 10.772133,10.772133 0 0 0 10.77148,10.77148 10.772133,10.772133 0 0 0 10.77149,-10.77148 10.772133,10.772133 0 0 0 -10.77149,-10.771487 z"
           inkscape:label="clock" /><path
           id="rect10"
           style="opacity:1;fill:#000000;fill-opacity:1;stroke:none;stroke-width:1;stroke-dasharray:none;stroke-opacity:1;paint-order:stroke fill markers"
           d="m 49.920074,83.103596 a 1.4207327,1.4207327 0 0 0 -1.417969,1.423828 v 8.056641 l -3.498047,-3.72461 a 1.0688994,1.0688994 0 0 0 -1.509765,-0.04687 1.0772161,1.0772161 0 0 0 -0.04687,1.521485 l 5.103515,5.435546 a 1.5015625,1.5015625 0 0 0 1.453125,1.123047 1.4514469,1.4514469 0 0 0 1.326172,-1.566406 v -10.8125 a 1.4097639,1.4097639 0 0 0 -1.410156,-1.410156 z"
           transform="matrix(0.76522078,0,0,0.76522078,-494.59917,36.335455)"
           inkscape:label="arr" /></g></g></g></svg>
