<?xml version="1.0" encoding="UTF-8" standalone="no"?>
<!-- Created with Inkscape (http://www.inkscape.org/) -->

<svg
   height="200"
   id="svg2"
   inkscape:output_extension="org.inkscape.output.svg.inkscape"
   inkscape:version="1.3 (0e150ed6c4, 2023-07-21)"
   sodipodi:docname="5.79.1.svg"
   sodipodi:version="0.32"
   version="1.0"
   width="200"
   xmlns:inkscape="http://www.inkscape.org/namespaces/inkscape"
   xmlns:sodipodi="http://sodipodi.sourceforge.net/DTD/sodipodi-0.dtd"
   xmlns="http://www.w3.org/2000/svg"
   xmlns:svg="http://www.w3.org/2000/svg"
   xmlns:rdf="http://www.w3.org/1999/02/22-rdf-syntax-ns#"
   xmlns:cc="http://creativecommons.org/ns#"
   xmlns:dc="http://purl.org/dc/elements/1.1/">
  <title
     id="title1">Інформаційно-вказівні знаки » Дорожні знаки » ПДР Тест Центр</title>
  <metadata
     id="metadata7">
    <rdf:RDF>
      <cc:Work
         rdf:about="">
        <dc:format>&#10;					image/svg+xml&#10;				</dc:format>
        <dc:type
           rdf:resource="http://purl.org/dc/dcmitype/StillImage" />
        <cc:license
           rdf:resource="http://creativecommons.org/licenses/by-nc-sa/4.0/" />
        <dc:creator>
          <cc:Agent>
            <dc:title>ПДР Тест Центр | PDR Test Center</dc:title>
          </cc:Agent>
        </dc:creator>
        <dc:rights>
          <cc:Agent>
            <dc:title>ПДР Тест Центр | PDR Test Center</dc:title>
          </cc:Agent>
        </dc:rights>
        <dc:language>uk-UA</dc:language>
        <dc:date>2023-09-01</dc:date>
        <dc:title>Інформаційно-вказівні знаки » Дорожні знаки » ПДР Тест Центр</dc:title>
        <dc:publisher>
          <cc:Agent>
            <dc:title>https://pdrtest.com/</dc:title>
          </cc:Agent>
        </dc:publisher>
        <dc:source>https://pdrtest.com/driver/rules/section/33.5</dc:source>
      </cc:Work>
      <cc:License
         rdf:about="http://creativecommons.org/licenses/by-nc-sa/4.0/">
        <cc:permits
           rdf:resource="http://creativecommons.org/ns#Reproduction" />
        <cc:permits
           rdf:resource="http://creativecommons.org/ns#Distribution" />
        <cc:requires
           rdf:resource="http://creativecommons.org/ns#Notice" />
        <cc:requires
           rdf:resource="http://creativecommons.org/ns#Attribution" />
        <cc:prohibits
           rdf:resource="http://creativecommons.org/ns#CommercialUse" />
        <cc:permits
           rdf:resource="http://creativecommons.org/ns#DerivativeWorks" />
        <cc:requires
           rdf:resource="http://creativecommons.org/ns#ShareAlike" />
      </cc:License>
    </rdf:RDF>
  </metadata>
  <defs
     id="defs5">
    <inkscape:perspective
       id="perspective9"
       inkscape:persp3d-origin="372.04724 : 360.78739 : 1"
       inkscape:vp_x="0 : 536.18109 : 1"
       inkscape:vp_y="0 : 1000 : 0"
       inkscape:vp_z="744.09448 : 536.18109 : 1"
       sodipodi:type="inkscape:persp3d" />
    <inkscape:perspective
       id="perspective2411"
       inkscape:persp3d-origin="372.04724 : 360.78739 : 1"
       inkscape:vp_x="0 : 536.18109 : 1"
       inkscape:vp_y="0 : 1000 : 0"
       inkscape:vp_z="744.09448 : 536.18109 : 1"
       sodipodi:type="inkscape:persp3d" />
    <inkscape:perspective
       id="perspective109"
       inkscape:persp3d-origin="372.04724 : 360.78739 : 1"
       inkscape:vp_x="0 : 536.18109 : 1"
       inkscape:vp_y="0 : 1000 : 0"
       inkscape:vp_z="744.09448 : 536.18109 : 1"
       sodipodi:type="inkscape:persp3d" />
    <inkscape:perspective
       id="perspective118"
       inkscape:persp3d-origin="372.04724 : 360.78739 : 1"
       inkscape:vp_x="0 : 536.18109 : 1"
       inkscape:vp_y="0 : 1000 : 0"
       inkscape:vp_z="744.09448 : 536.18109 : 1"
       sodipodi:type="inkscape:persp3d" />
    <inkscape:perspective
       id="perspective3489"
       inkscape:persp3d-origin="372.04724 : 360.78739 : 1"
       inkscape:vp_x="0 : 536.18109 : 1"
       inkscape:vp_y="0 : 1000 : 0"
       inkscape:vp_z="744.09448 : 536.18109 : 1"
       sodipodi:type="inkscape:persp3d" />
    <inkscape:perspective
       id="perspective3491"
       inkscape:persp3d-origin="372.04724 : 360.78739 : 1"
       inkscape:vp_x="0 : 536.18109 : 1"
       inkscape:vp_y="0 : 1000 : 0"
       inkscape:vp_z="744.09448 : 536.18109 : 1"
       sodipodi:type="inkscape:persp3d" />
    <inkscape:perspective
       id="perspective3493"
       inkscape:persp3d-origin="372.04724 : 360.78739 : 1"
       inkscape:vp_x="0 : 536.18109 : 1"
       inkscape:vp_y="0 : 1000 : 0"
       inkscape:vp_z="744.09448 : 536.18109 : 1"
       sodipodi:type="inkscape:persp3d" />
    <inkscape:perspective
       id="perspective3495"
       inkscape:persp3d-origin="372.04724 : 360.78739 : 1"
       inkscape:vp_x="0 : 536.18109 : 1"
       inkscape:vp_y="0 : 1000 : 0"
       inkscape:vp_z="744.09448 : 536.18109 : 1"
       sodipodi:type="inkscape:persp3d" />
    <inkscape:perspective
       id="perspective3497"
       inkscape:persp3d-origin="372.04724 : 360.78739 : 1"
       inkscape:vp_x="0 : 536.18109 : 1"
       inkscape:vp_y="0 : 1000 : 0"
       inkscape:vp_z="744.09448 : 536.18109 : 1"
       sodipodi:type="inkscape:persp3d" />
    <inkscape:perspective
       id="perspective3499"
       inkscape:persp3d-origin="372.04724 : 360.78739 : 1"
       inkscape:vp_x="0 : 536.18109 : 1"
       inkscape:vp_y="0 : 1000 : 0"
       inkscape:vp_z="744.09448 : 536.18109 : 1"
       sodipodi:type="inkscape:persp3d" />
    <inkscape:perspective
       id="perspective3501"
       inkscape:persp3d-origin="372.04724 : 360.78739 : 1"
       inkscape:vp_x="0 : 536.18109 : 1"
       inkscape:vp_y="0 : 1000 : 0"
       inkscape:vp_z="744.09448 : 536.18109 : 1"
       sodipodi:type="inkscape:persp3d" />
    <inkscape:perspective
       id="perspective3306"
       inkscape:persp3d-origin="372.04724 : 360.78739 : 1"
       inkscape:vp_x="0 : 536.18109 : 1"
       inkscape:vp_y="0 : 1000 : 0"
       inkscape:vp_z="744.09448 : 536.18109 : 1"
       sodipodi:type="inkscape:persp3d" />
    <inkscape:perspective
       id="perspective2426"
       inkscape:persp3d-origin="372.04724 : 360.78739 : 1"
       inkscape:vp_x="0 : 536.18109 : 1"
       inkscape:vp_y="0 : 1000 : 0"
       inkscape:vp_z="744.09448 : 536.18109 : 1"
       sodipodi:type="inkscape:persp3d" />
    <inkscape:perspective
       id="perspective2573"
       inkscape:persp3d-origin="372.04724 : 360.78739 : 1"
       inkscape:vp_x="0 : 536.18109 : 1"
       inkscape:vp_y="0 : 1000 : 0"
       inkscape:vp_z="744.09448 : 536.18109 : 1"
       sodipodi:type="inkscape:persp3d" />
    <inkscape:perspective
       id="perspective179"
       inkscape:persp3d-origin="372.04724 : 360.78739 : 1"
       inkscape:vp_x="0 : 536.18109 : 1"
       inkscape:vp_y="0 : 1000 : 0"
       inkscape:vp_z="744.09448 : 536.18109 : 1"
       sodipodi:type="inkscape:persp3d" />
    <inkscape:perspective
       id="perspective3311"
       inkscape:persp3d-origin="372.04724 : 360.78739 : 1"
       inkscape:vp_x="0 : 536.18109 : 1"
       inkscape:vp_y="0 : 1000 : 0"
       inkscape:vp_z="744.09448 : 536.18109 : 1"
       sodipodi:type="inkscape:persp3d" />
    <inkscape:perspective
       id="perspective3309"
       inkscape:persp3d-origin="372.04724 : 360.78739 : 1"
       inkscape:vp_x="0 : 536.18109 : 1"
       inkscape:vp_y="0 : 1000 : 0"
       inkscape:vp_z="744.09448 : 536.18109 : 1"
       sodipodi:type="inkscape:persp3d" />
    <inkscape:perspective
       id="perspective3307"
       inkscape:persp3d-origin="372.04724 : 360.78739 : 1"
       inkscape:vp_x="0 : 536.18109 : 1"
       inkscape:vp_y="0 : 1000 : 0"
       inkscape:vp_z="744.09448 : 536.18109 : 1"
       sodipodi:type="inkscape:persp3d" />
    <inkscape:perspective
       id="perspective3305"
       inkscape:persp3d-origin="372.04724 : 360.78739 : 1"
       inkscape:vp_x="0 : 536.18109 : 1"
       inkscape:vp_y="0 : 1000 : 0"
       inkscape:vp_z="744.09448 : 536.18109 : 1"
       sodipodi:type="inkscape:persp3d" />
    <inkscape:perspective
       id="perspective182"
       inkscape:persp3d-origin="372.04724 : 360.78739 : 1"
       inkscape:vp_x="0 : 536.18109 : 1"
       inkscape:vp_y="0 : 1000 : 0"
       inkscape:vp_z="744.09448 : 536.18109 : 1"
       sodipodi:type="inkscape:persp3d" />
  </defs>
  <sodipodi:namedview
     bordercolor="#666666"
     borderopacity="1.0"
     gridtolerance="10.0"
     guidetolerance="10.0"
     id="base"
     inkscape:current-layer="svg2"
     inkscape:cx="154.14928"
     inkscape:cy="139.12326"
     inkscape:guide-bbox="true"
     inkscape:pageopacity="0.0"
     inkscape:pageshadow="2"
     inkscape:window-height="1009"
     inkscape:window-width="1920"
     inkscape:zoom="2.8284271"
     objecttolerance="10.0"
     pagecolor="#ffffff"
     showgrid="false"
     showguides="false"
     inkscape:showpageshadow="2"
     inkscape:pagecheckerboard="0"
     inkscape:deskcolor="#d1d1d1"
     inkscape:window-x="1912"
     inkscape:window-y="-8"
     inkscape:window-maximized="1" />
  <g
     id="g3494"
     transform="translate(4.9999998,4.9999998)"
     inkscape:label="sign_5_79_1">
    <path
       d="m 20,1.121968e-4 h 150 c 11.08,0 20,8.9200000032 20,19.9999998032 V 170.00011 c 0,11.08 -8.92,20 -20,20 H 20 c -11.08,0 -20,-8.92 -20,-20 V 20.000112 C 0,8.9201122 8.92,1.121968e-4 20,1.121968e-4 Z"
       id="rect2410"
       style="fill:#ffffff;fill-opacity:1;fill-rule:nonzero;stroke:#000000;stroke-width:2.01052631;stroke-linecap:round;stroke-linejoin:miter;stroke-miterlimit:4;stroke-opacity:1;stroke-dasharray:none"
       transform="matrix(0.9947644,0,0,0.9947644,0.4973822,0.4973822)"
       inkscape:label="bg" />
    <path
       d="M 24.736843,6.0001121 H 165.26316 C 175.64337,6.0001121 184,14.356744 184,24.736955 V 165.26327 c 0,10.38021 -8.35663,18.73684 -18.73684,18.73684 H 24.736843 C 14.356632,184.00011 6,175.64348 6,165.26327 V 24.736955 C 6,14.356744 14.356632,6.0001121 24.736843,6.0001121 Z"
       id="rect3347"
       style="fill:#009900;fill-opacity:1;fill-rule:nonzero;stroke:none;stroke-width:1.8;stroke-linecap:round;stroke-linejoin:miter;stroke-miterlimit:4;stroke-opacity:1"
       transform="matrix(0.9947644,0,0,0.9947644,0.4973822,0.4973822)"
       inkscape:label="green" />
    <path
       id="_43777400"
       style="fill:#ffffff;fill-opacity:1;fill-rule:evenodd;stroke-width:3.91305"
       inkscape:label="man"
       d="m 101.09902,45.548132 c -0.57286,-0.01058 -1.243869,0.05811 -1.831302,0.121614 -2.287171,0.254074 -4.813002,1.170725 -6.971126,2.568126 -6.607369,4.318743 -8.4519,12.50889 -4.767845,18.098502 2.54074,3.811096 7.038621,5.772937 11.738971,5.136253 2.286172,-0.379096 4.442612,-1.165297 6.602722,-2.689738 6.60589,-4.319245 8.69315,-12.502963 5.01109,-18.220113 -2.22312,-3.11196 -5.77237,-4.941704 -9.78251,-5.014644 z m 13.77777,19.886891 c -0.39268,2.55e-4 -0.75096,0.01577 -1.05875,0.0465 -1.84685,0.184501 -2.59177,1.000703 -3.54457,2.811349 l -5.38305,7.947602 c -0.76273,1.270366 -0.005,3.609964 0.24679,5.261443 l 12.59383,25.920923 c 0.38074,1.3974 0.42229,3.86045 -1.10163,5.25787 l -15.40521,9.78607 c -0.63465,0.50813 -1.321783,1.19477 -1.956482,1.95649 -1.649975,2.16012 -2.693305,5.63197 -2.693305,8.68084 l 0.246794,7.58277 0.243186,12.10383 v 9.04925 c 0,1.77801 0.805901,3.62317 2.203325,4.89303 1.523982,1.27087 3.479332,1.96328 5.257842,1.7097 3.42944,-0.25407 6.23436,-4.15463 6.23436,-7.45758 v -22.62312 c 0,-2.03259 0.80045,-5.35099 2.32488,-6.11272 l 24.21124,-16.38882 c 3.30097,-2.03307 3.89153,-7.62179 1.22325,-13.08387 l -12.84065,-23.967981 6.2379,0.490019 c 0.75976,0 2.80069,1.568611 3.17978,2.203296 l 8.92406,18.463338 1.22325,2.324898 c 1.77658,2.92134 5.41046,3.20466 7.95116,2.44295 2.41114,-0.88977 4.08127,-4.927708 2.81137,-7.214369 L 144.02038,73.797534 v -0.368411 c -0.8892,-1.269865 -1.94354,-4.265122 -5.50109,-4.646234 l -22.37631,-3.301367 c -0.44488,-0.03176 -0.87352,-0.04675 -1.26619,-0.0465 z m -11.69606,22.912846 -3.913012,5.747886 -3.912995,6.237895 -11.127336,-5.01464 c -3.30351,-0.764219 -5.573782,0.183436 -6.971171,1.83489 -0.381129,0.381603 -0.725949,0.836712 -0.980022,1.344872 -1.653458,2.287148 -0.926022,5.316078 0.980022,6.967568 0.50811,0.3816 0.952905,0.73089 1.58811,0.85841 l 14.675525,5.74791 c 2.033103,0.76221 4.097892,0.39924 5.747867,-0.49003 1.650492,-0.76173 3.156042,-1.80542 3.666182,-2.56814 l 5.74791,-9.049238 z m 39.98481,27.881001 -11.73899,7.58278 12.22897,16.38522 c 0.1264,0.25408 0.23847,0.48509 0.36486,0.61163 3.68413,3.81159 10.0336,3.97773 13.20903,2.19972 l 11.8606,-6.35951 c 3.80858,-1.77853 5.31244,-6.74089 3.91302,-9.5357 -0.88925,-2.7948 -4.45188,-4.85478 -9.6609,-2.56812 l -6.35951,3.54458 c -2.28667,1.14333 -4.34556,1.42639 -5.86949,-0.73324 l -7.09275,-9.53927 z" />
    <rect
       style="fill:#ffffff;fill-opacity:1;stroke-width:3.73989;paint-order:stroke fill markers"
       id="rect1"
       width="46.669048"
       height="145.664"
       x="20.102291"
       y="22.167999"
       inkscape:label="door" />
  </g>
</svg>
