<?xml version="1.0" encoding="UTF-8" standalone="no"?>
<!-- Created with Inkscape (http://www.inkscape.org/) -->

<svg
   height="280"
   id="svg2"
   inkscape:output_extension="org.inkscape.output.svg.inkscape"
   inkscape:version="1.3 (0e150ed6c4, 2023-07-21)"
   sodipodi:docname="5.82.2.svg"
   sodipodi:version="0.32"
   version="1.0"
   width="200"
   xmlns:inkscape="http://www.inkscape.org/namespaces/inkscape"
   xmlns:sodipodi="http://sodipodi.sourceforge.net/DTD/sodipodi-0.dtd"
   xmlns="http://www.w3.org/2000/svg"
   xmlns:svg="http://www.w3.org/2000/svg"
   xmlns:rdf="http://www.w3.org/1999/02/22-rdf-syntax-ns#"
   xmlns:cc="http://creativecommons.org/ns#"
   xmlns:dc="http://purl.org/dc/elements/1.1/">
  <title
     id="title1">Інформаційно-вказівні знаки » Дорожні знаки » ПДР Тест Центр</title>
  <metadata
     id="metadata7">
    <rdf:RDF>
      <cc:Work
         rdf:about="">
        <dc:format>&#10;					image/svg+xml&#10;				</dc:format>
        <dc:type
           rdf:resource="http://purl.org/dc/dcmitype/StillImage" />
        <cc:license
           rdf:resource="http://creativecommons.org/licenses/by-nc-sa/4.0/" />
        <dc:creator>
          <cc:Agent>
            <dc:title>ПДР Тест Центр | PDR Test Center</dc:title>
          </cc:Agent>
        </dc:creator>
        <dc:rights>
          <cc:Agent>
            <dc:title>ПДР Тест Центр | PDR Test Center</dc:title>
          </cc:Agent>
        </dc:rights>
        <dc:language>uk-UA</dc:language>
        <dc:date>2023-09-01</dc:date>
        <dc:title>Інформаційно-вказівні знаки » Дорожні знаки » ПДР Тест Центр</dc:title>
        <dc:publisher>
          <cc:Agent>
            <dc:title>https://pdrtest.com/</dc:title>
          </cc:Agent>
        </dc:publisher>
        <dc:source>https://pdrtest.com/driver/rules/section/33.5</dc:source>
      </cc:Work>
      <cc:License
         rdf:about="http://creativecommons.org/licenses/by-nc-sa/4.0/">
        <cc:permits
           rdf:resource="http://creativecommons.org/ns#Reproduction" />
        <cc:permits
           rdf:resource="http://creativecommons.org/ns#Distribution" />
        <cc:requires
           rdf:resource="http://creativecommons.org/ns#Notice" />
        <cc:requires
           rdf:resource="http://creativecommons.org/ns#Attribution" />
        <cc:prohibits
           rdf:resource="http://creativecommons.org/ns#CommercialUse" />
        <cc:permits
           rdf:resource="http://creativecommons.org/ns#DerivativeWorks" />
        <cc:requires
           rdf:resource="http://creativecommons.org/ns#ShareAlike" />
      </cc:License>
    </rdf:RDF>
  </metadata>
  <defs
     id="defs5">
    <inkscape:perspective
       id="perspective9"
       inkscape:persp3d-origin="372.04724 : 361.15442 : 1"
       inkscape:vp_x="0 : 536.54812 : 1"
       inkscape:vp_y="0 : 1000 : 0"
       inkscape:vp_z="744.09448 : 536.54812 : 1"
       sodipodi:type="inkscape:persp3d" />
    <inkscape:perspective
       id="perspective2411"
       inkscape:persp3d-origin="372.04724 : 361.15442 : 1"
       inkscape:vp_x="0 : 536.54812 : 1"
       inkscape:vp_y="0 : 1000 : 0"
       inkscape:vp_z="744.09448 : 536.54812 : 1"
       sodipodi:type="inkscape:persp3d" />
    <inkscape:perspective
       id="perspective109"
       inkscape:persp3d-origin="372.04724 : 361.15442 : 1"
       inkscape:vp_x="0 : 536.54812 : 1"
       inkscape:vp_y="0 : 1000 : 0"
       inkscape:vp_z="744.09448 : 536.54812 : 1"
       sodipodi:type="inkscape:persp3d" />
    <inkscape:perspective
       id="perspective118"
       inkscape:persp3d-origin="372.04724 : 361.15442 : 1"
       inkscape:vp_x="0 : 536.54812 : 1"
       inkscape:vp_y="0 : 1000 : 0"
       inkscape:vp_z="744.09448 : 536.54812 : 1"
       sodipodi:type="inkscape:persp3d" />
    <inkscape:perspective
       id="perspective2415"
       inkscape:persp3d-origin="372.04724 : 361.15442 : 1"
       inkscape:vp_x="0 : 536.54812 : 1"
       inkscape:vp_y="0 : 1000 : 0"
       inkscape:vp_z="744.09448 : 536.54812 : 1"
       sodipodi:type="inkscape:persp3d" />
    <inkscape:perspective
       id="perspective151"
       inkscape:persp3d-origin="372.04724 : 361.15442 : 1"
       inkscape:vp_x="0 : 536.54812 : 1"
       inkscape:vp_y="0 : 1000 : 0"
       inkscape:vp_z="744.09448 : 536.54812 : 1"
       sodipodi:type="inkscape:persp3d" />
  </defs>
  <sodipodi:namedview
     bordercolor="#666666"
     borderopacity="1.0"
     gridtolerance="10.0"
     guidetolerance="10.0"
     id="base"
     inkscape:current-layer="svg2"
     inkscape:cx="71.999996"
     inkscape:cy="156.74999"
     inkscape:pageopacity="0.0"
     inkscape:pageshadow="2"
     inkscape:window-height="1009"
     inkscape:window-width="1920"
     inkscape:zoom="2.0000001"
     objecttolerance="10.0"
     pagecolor="#ffffff"
     showgrid="false"
     inkscape:showpageshadow="2"
     inkscape:pagecheckerboard="0"
     inkscape:deskcolor="#d1d1d1"
     inkscape:window-x="-8"
     inkscape:window-y="-8"
     inkscape:window-maximized="1" />
  <g
     id="g2527"
     transform="translate(5.002215,5.194346)"
     inkscape:label="sign_5_82_2">
    <path
       d="M 20.761302,2.3941002 H 169.14016 c 11.82057,0 21.33676,9.3113448 21.33676,20.8774548 V 266.61171 c 0,11.56611 -9.51619,20.87745 -21.33676,20.87745 H 20.761302 c -11.8205654,0 -21.33676106,-9.31134 -21.33676106,-20.87745 V 23.271555 c 0,-11.56611 9.51619566,-20.8774548 21.33676106,-20.8774548 z"
       id="rect3292"
       style="fill:#ffffff;fill-opacity:1;fill-rule:nonzero;stroke:#000000;stroke-width:2.07113;stroke-linecap:round;stroke-linejoin:miter;stroke-miterlimit:4;stroke-dasharray:none;stroke-opacity:1"
       transform="matrix(0.9894239,0,0,0.9424637,1.051263,-1.796571)"
       inkscape:label="bg" />
    <path
       d="m 26.187654,6.1133605 c -10.962817,0 -19.78125,8.4325015 -19.78125,18.8750005 V 72.73836 H 183.5939 V 24.988361 c 0,-10.442498 -8.81843,-18.8750005 -19.78125,-18.8750005 h -55.375 L 124.75015,65.51961 H 102.9689 L 99.968904,6.1133605 h -7.9375 l -2.9375,59.4062495 h -21.875 L 83.531404,6.1133605 Z M 6.406404,84.64461 v 160.03125 c 0,6.02271 2.942896,11.36641 7.53125,14.8125 l 45.9375,-167.15625 h 27.84375 l -8.46875,171.1875 H 112.8439 l -8.59375,-171.1875 h 27.9375 l 45.5625,165.71875 c 3.60554,-3.41056 5.84375,-8.13001 5.84375,-13.375 V 84.64461 h -20.06146 l 0.5625,19.64852 H 152.50015 L 146.35843,84.64461 H 44.13461 l -6.510724,19.14171 h -9.916853 l 0.5625,-19.14171 z"
       id="rect3280"
       sodipodi:nodetypes="cccccccccccccccccccccccccccccccccccc"
       style="fill:#009600;fill-opacity:1;fill-rule:nonzero;stroke:none;stroke-width:2;stroke-linecap:round;stroke-linejoin:miter;stroke-miterlimit:4;stroke-opacity:1"
       inkscape:label="green" />
    <g
       id="g2855"
       inkscape:label="sign_7_14"
       transform="matrix(0.60270807,0,0,0.60270807,37.742881,194.83699)">
      <path
         class="fil2 str0"
         d="m 128.288,156.489 h 17.7778 c 0.4113,0 0.7477,0.4292 0.7477,0.9537 v 7.7292 c 0,0.5245 -0.3364,0.9537 -0.7477,0.9537 H 128.288 c -0.4112,0 -0.7477,-0.4292 -0.7477,-0.9537 v -7.7292 c 0,-0.5245 0.3365,-0.9537 0.7477,-0.9537 z"
         id="path2448"
         sodipodi:nodetypes="ccccccccc"
         style="fill:#ffffff;fill-rule:evenodd;stroke:#000000;stroke-width:0.202876;stroke-dasharray:none"
         inkscape:label="bg"
         transform="matrix(9.8582488,0,0,9.8582488,-1257.324,-1542.7075)" />
      <path
         class="fil2 str0"
         d="m 142.315,157.621 c 2.0538,0 3.7288,1.675 3.7288,3.7288 0,2.0538 -1.675,3.7288 -3.7288,3.7288 -1.4507,0 -2.7121,-0.8359 -3.328,-2.0504 -0.5327,0.7817 -1.43,1.2967 -2.4437,1.2967 -1.2313,0 -2.2906,-0.7597 -2.7337,-1.8343 -0.4298,0.7399 -1.2312,1.2393 -2.1455,1.2393 -1.3656,0 -2.4793,-1.1137 -2.4793,-2.4793 0,-1.3655 1.1137,-2.4792 2.4793,-2.4792 0.9574,0 1.791,0.5474 2.2037,1.3453 0.4729,-1.0043 1.4952,-1.7023 2.6755,-1.7023 1.0065,0 1.8981,0.5077 2.4322,1.28 0.6116,-1.227 1.8797,-2.0734 3.3395,-2.0734 z m -8.3997,4.6664 c 0.3823,1.0258 1.3725,1.7598 2.5288,1.7598 1.4857,0 2.6974,-1.2117 2.6974,-2.6974 0,-1.4857 -1.2117,-2.6974 -2.6974,-2.6974 -1.1168,0 -2.0787,0.6846 -2.4875,1.6557 0.1202,0.2908 0.1867,0.6091 0.1867,0.9425 0,0.3698 -0.0818,0.7211 -0.228,1.0368 z m -2.2512,-3.3177 c 1.2344,0 2.2412,1.0068 2.2412,2.2413 0,1.2344 -1.0068,2.2412 -2.2412,2.2412 -1.2345,0 -2.2413,-1.0068 -2.2413,-2.2412 0,-1.2345 1.0068,-2.2413 2.2413,-2.2413 z m 7.4561,3.8438 c 0.5465,1.1274 1.703,1.9081 3.0361,1.9081 1.8571,0 3.3718,-1.5147 3.3718,-3.3718 0,-1.8571 -1.5147,-3.3718 -3.3718,-3.3718 -1.3416,0 -2.5041,0.7905 -3.0464,1.9295 0.2472,0.4316 0.3886,0.9309 0.3886,1.4622 0,0.5238 -0.1376,1.0164 -0.3783,1.4438 z"
         id="_144267496"
         sodipodi:nodetypes="csscscssscsccccssscscccsssccssscscc"
         style="display:inline;fill:#000000;fill-rule:evenodd;stroke:#000000;stroke-width:0.00046725"
         inkscape:label="circles"
         transform="matrix(9.8582488,0,0,9.8582488,-1257.324,-1542.7075)" />
      <g
         id="g3">
        <path
           d="m 143.61795,55.554234 v 5.097656 h -19.23828 c 0.20833,-1.927082 0.83333,-3.749996 1.875,-5.46875 1.04166,-1.731764 3.09895,-4.023428 6.17187,-6.875 2.47395,-2.304673 3.99088,-3.867171 4.55079,-4.6875 0.75519,-1.132795 1.13279,-2.252585 1.13281,-3.359375 -2e-5,-1.223937 -0.33205,-2.161436 -0.9961,-2.8125 -0.65105,-0.664039 -1.556,-0.99607 -2.71484,-0.996094 -1.14584,2.4e-5 -2.0573,0.345076 -2.73437,1.035156 -0.6771,0.690127 -1.06772,1.835959 -1.17188,3.4375 l -5.46875,-0.546875 c 0.32552,-3.02081 1.34765,-5.188776 3.06641,-6.503906 1.71874,-1.315076 3.86718,-1.972627 6.44531,-1.972656 2.82551,2.9e-5 5.04556,0.761747 6.66016,2.285156 1.61456,1.523462 2.42185,3.417992 2.42187,5.683594 -2e-5,1.289082 -0.23439,2.519549 -0.70312,3.691406 -0.45575,1.15887 -1.18492,2.376317 -2.1875,3.652344 -0.66408,0.846367 -1.862,2.063813 -3.59375,3.652344 -1.73179,1.588549 -2.83205,2.643236 -3.30079,3.164062 -0.45573,0.520839 -0.82683,1.028651 -1.11328,1.523438 h 10.89844"
           id="path2851"
           style="font-style:normal;font-variant:normal;font-weight:bold;font-stretch:normal;font-size:40px;line-height:125%;font-family:Arial;-inkscape-font-specification:'Arial Bold';text-align:start;writing-mode:lr-tb;text-anchor:start;fill:#000000;fill-opacity:1;stroke:none" />
        <path
           d="m 156.62576,31.90189 c 2.77343,2.9e-5 4.94139,0.989611 6.50391,2.96875 1.86196,2.343773 2.79295,6.230488 2.79297,11.660156 -2e-5,5.416675 -0.93752,9.309901 -2.8125,11.679688 -1.5495,1.953125 -3.71095,2.929687 -6.48438,2.929687 -2.78646,0 -5.03256,-1.067708 -6.73828,-3.203125 -1.70573,-2.148433 -2.55859,-5.970043 -2.55859,-11.464844 0,-5.390605 0.9375,-9.27081 2.8125,-11.640625 1.54947,-1.953097 3.71093,-2.929658 6.48437,-2.929687 m 0,4.550781 c -0.66407,2.4e-5 -1.25652,0.214868 -1.77734,0.644531 -0.52084,0.41669 -0.92449,1.171898 -1.21094,2.265625 -0.37761,1.419291 -0.56641,3.808612 -0.5664,7.167969 -1e-5,3.359386 0.16926,5.670581 0.50781,6.933594 0.33853,1.250006 0.76171,2.083338 1.26953,2.5 0.52082,0.416671 1.11327,0.625004 1.77734,0.625 0.66405,4e-6 1.2565,-0.208329 1.77735,-0.625 0.52082,-0.429683 0.92446,-1.191401 1.21093,-2.285156 0.37759,-1.406242 0.5664,-3.789052 0.56641,-7.148438 -1e-5,-3.359357 -0.16928,-5.664043 -0.50781,-6.914062 -0.33856,-1.262999 -0.76824,-2.102842 -1.28906,-2.519532 -0.50783,-0.429663 -1.09377,-0.644507 -1.75782,-0.644531"
           id="path2853"
           style="font-style:normal;font-variant:normal;font-weight:bold;font-stretch:normal;font-size:40px;line-height:125%;font-family:Arial;-inkscape-font-specification:'Arial Bold';text-align:start;writing-mode:lr-tb;text-anchor:start;fill:#000000;fill-opacity:1;stroke:none" />
      </g>
      <g
         id="g2">
        <path
           d="M 81.369171,58.959732 H 76.978546 V 42.412857 c -1.604173,1.500015 -3.494796,2.609389 -5.671875,3.328125 v -3.984375 c 1.14583,-0.374982 2.39062,-1.083315 3.734375,-2.125 1.343743,-1.052063 2.265617,-2.27602 2.765625,-3.671875 h 3.5625 v 23"
           id="path2846"
           style="font-style:normal;font-variant:normal;font-weight:bold;font-stretch:normal;font-size:32px;line-height:125%;font-family:Arial;-inkscape-font-specification:'Arial Bold';text-align:start;writing-mode:lr-tb;text-anchor:start;fill:#000000;fill-opacity:1;stroke:none" />
        <path
           d="m 88.009796,53.069107 4.375,-0.453125 c 0.124994,0.989589 0.494786,1.776046 1.109375,2.359375 0.614576,0.57292 1.322909,0.859378 2.125,0.859375 0.916657,3e-6 1.692698,-0.369788 2.328125,-1.109375 0.635405,-0.749995 0.953113,-1.874994 0.953125,-3.375 -1.2e-5,-1.406241 -0.31772,-2.458323 -0.953125,-3.15625 -0.625011,-0.708322 -1.442718,-1.062488 -2.453125,-1.0625 -1.260424,1.2e-5 -2.390631,0.557303 -3.390625,1.671875 l -3.5625,-0.515625 2.25,-11.921875 h 11.609374 v 4.109375 h -8.281249 l -0.6875,3.890625 c 0.979159,-0.489568 1.979158,-0.73436 3,-0.734375 1.947905,1.5e-5 3.598949,0.708348 4.953129,2.125 1.35415,1.416679 2.03123,3.255218 2.03125,5.515625 -2e-5,1.885423 -0.5469,3.567713 -1.64063,5.046875 -1.4896,2.020834 -3.557302,3.03125 -6.203124,3.03125 -2.11459,0 -3.838547,-0.567708 -5.171875,-1.703125 -1.333336,-1.135414 -2.13021,-2.661454 -2.390625,-4.578125"
           id="path2848"
           style="font-style:normal;font-variant:normal;font-weight:bold;font-stretch:normal;font-size:32px;line-height:125%;font-family:Arial;-inkscape-font-specification:'Arial Bold';text-align:start;writing-mode:lr-tb;text-anchor:start;fill:#000000;fill-opacity:1;stroke:none" />
      </g>
      <g
         id="g4">
        <path
           d="M 34.452698,56.979637 H 30.610901 V 42.501122 c -1.403652,1.312513 -3.057947,2.283215 -4.962891,2.912109 v -3.486328 c 1.002601,-0.32811 2.091793,-0.947901 3.267578,-1.859375 1.175775,-0.920555 1.982415,-1.991518 2.419922,-3.212891 h 3.117188 v 20.125"
           id="path2841"
           style="font-style:normal;font-variant:normal;font-weight:bold;font-stretch:normal;font-size:28px;line-height:125%;font-family:Arial;-inkscape-font-specification:'Arial Bold';text-align:start;writing-mode:lr-tb;text-anchor:start;fill:#000000;fill-opacity:1;stroke:none"
           inkscape:label="1" />
        <path
           d="m 46.702698,36.854637 c 1.941396,2e-5 3.458973,0.692728 4.552734,2.078125 1.303372,1.640642 1.955064,4.361342 1.955078,8.16211 -1.4e-5,3.791672 -0.656263,6.51693 -1.96875,8.175781 -1.084646,1.367188 -2.597666,2.050781 -4.539062,2.050781 -1.950527,0 -3.522791,-0.747395 -4.716797,-2.242187 -1.194012,-1.503903 -1.791017,-4.179031 -1.791016,-8.025391 -10e-7,-3.773424 0.656248,-6.489567 1.96875,-8.148438 1.084631,-1.367168 2.597651,-2.050761 4.539063,-2.050781 m 0,3.185547 c -0.464851,1.7e-5 -0.879564,0.150407 -1.244141,0.451172 -0.364589,0.291683 -0.647141,0.820328 -0.847656,1.585937 -0.264328,0.993504 -0.39649,2.666028 -0.396484,5.017579 -6e-6,2.35157 0.118484,3.969406 0.355468,4.853515 0.236974,0.875004 0.533197,1.458337 0.888672,1.75 0.364577,0.29167 0.77929,0.437503 1.244141,0.4375 0.464835,3e-6 0.879548,-0.14583 1.24414,-0.4375 0.364574,-0.300778 0.647126,-0.83398 0.847657,-1.599609 0.264313,-0.984369 0.396474,-2.652336 0.396484,-5.003906 -10e-6,-2.351551 -0.1185,-3.96483 -0.355469,-4.839844 -0.236988,-0.884099 -0.537769,-1.471989 -0.902343,-1.763672 -0.355478,-0.300765 -0.765634,-0.451155 -1.230469,-0.451172"
           id="path2843"
           style="font-style:normal;font-variant:normal;font-weight:bold;font-stretch:normal;font-size:28px;line-height:125%;font-family:Arial;-inkscape-font-specification:'Arial Bold';text-align:start;writing-mode:lr-tb;text-anchor:start;fill:#000000;fill-opacity:1;stroke:none"
           inkscape:label="0" />
      </g>
    </g>
    <path
       d="M 230.96875,16.15625 55.125,267.4375 c 1.334274,8.01918 7.71543,14.4608 16.03125,16.40625 L 244.875,35.53125 v -0.5625 c 0,-8.620295 -5.76954,-15.923316 -13.90625,-18.8125 z"
       id="rect2389"
       style="fill:#ff0000;fill-opacity:1;fill-rule:nonzero;stroke:none;stroke-width:3.4;stroke-linecap:round;stroke-linejoin:miter;stroke-miterlimit:4;stroke-dasharray:none;stroke-opacity:1"
       inkscape:label="red"
       transform="translate(-54.999846,-15.183513)" />
  </g>
</svg>
