<?xml version="1.0" encoding="UTF-8" standalone="no"?>
<!-- Created with Inkscape (http://www.inkscape.org/) -->

<svg
   height="200"
   id="svg2"
   inkscape:output_extension="org.inkscape.output.svg.inkscape"
   inkscape:version="1.3 (0e150ed6c4, 2023-07-21)"
   sodipodi:docname="5.89.svg"
   sodipodi:version="0.32"
   version="1.0"
   width="200"
   xmlns:inkscape="http://www.inkscape.org/namespaces/inkscape"
   xmlns:sodipodi="http://sodipodi.sourceforge.net/DTD/sodipodi-0.dtd"
   xmlns="http://www.w3.org/2000/svg"
   xmlns:svg="http://www.w3.org/2000/svg"
   xmlns:rdf="http://www.w3.org/1999/02/22-rdf-syntax-ns#"
   xmlns:cc="http://creativecommons.org/ns#"
   xmlns:dc="http://purl.org/dc/elements/1.1/">
  <title
     id="title1">Інформаційно-вказівні знаки » Дорожні знаки » ПДР Тест Центр</title>
  <metadata
     id="metadata7">
    <rdf:RDF>
      <cc:Work
         rdf:about="">
        <dc:format>&#10;					image/svg+xml&#10;				</dc:format>
        <dc:type
           rdf:resource="http://purl.org/dc/dcmitype/StillImage" />
        <cc:license
           rdf:resource="http://creativecommons.org/licenses/by-nc-sa/4.0/" />
        <dc:creator>
          <cc:Agent>
            <dc:title>ПДР Тест Центр | PDR Test Center</dc:title>
          </cc:Agent>
        </dc:creator>
        <dc:rights>
          <cc:Agent>
            <dc:title>ПДР Тест Центр | PDR Test Center</dc:title>
          </cc:Agent>
        </dc:rights>
        <dc:language>uk-UA</dc:language>
        <dc:date>2023-09-01</dc:date>
        <dc:title>Інформаційно-вказівні знаки » Дорожні знаки » ПДР Тест Центр</dc:title>
        <dc:publisher>
          <cc:Agent>
            <dc:title>https://pdrtest.com/</dc:title>
          </cc:Agent>
        </dc:publisher>
        <dc:source>https://pdrtest.com/driver/rules/section/33.5</dc:source>
      </cc:Work>
      <cc:License
         rdf:about="http://creativecommons.org/licenses/by-nc-sa/4.0/">
        <cc:permits
           rdf:resource="http://creativecommons.org/ns#Reproduction" />
        <cc:permits
           rdf:resource="http://creativecommons.org/ns#Distribution" />
        <cc:requires
           rdf:resource="http://creativecommons.org/ns#Notice" />
        <cc:requires
           rdf:resource="http://creativecommons.org/ns#Attribution" />
        <cc:prohibits
           rdf:resource="http://creativecommons.org/ns#CommercialUse" />
        <cc:permits
           rdf:resource="http://creativecommons.org/ns#DerivativeWorks" />
        <cc:requires
           rdf:resource="http://creativecommons.org/ns#ShareAlike" />
      </cc:License>
    </rdf:RDF>
  </metadata>
  <defs
     id="defs5">
    <inkscape:perspective
       id="perspective9"
       inkscape:persp3d-origin="372.04724 : 360.78739 : 1"
       inkscape:vp_x="0 : 536.18109 : 1"
       inkscape:vp_y="0 : 1000 : 0"
       inkscape:vp_z="744.09448 : 536.18109 : 1"
       sodipodi:type="inkscape:persp3d" />
    <inkscape:perspective
       id="perspective2411"
       inkscape:persp3d-origin="372.04724 : 360.78739 : 1"
       inkscape:vp_x="0 : 536.18109 : 1"
       inkscape:vp_y="0 : 1000 : 0"
       inkscape:vp_z="744.09448 : 536.18109 : 1"
       sodipodi:type="inkscape:persp3d" />
    <inkscape:perspective
       id="perspective109"
       inkscape:persp3d-origin="372.04724 : 360.78739 : 1"
       inkscape:vp_x="0 : 536.18109 : 1"
       inkscape:vp_y="0 : 1000 : 0"
       inkscape:vp_z="744.09448 : 536.18109 : 1"
       sodipodi:type="inkscape:persp3d" />
    <inkscape:perspective
       id="perspective118"
       inkscape:persp3d-origin="372.04724 : 360.78739 : 1"
       inkscape:vp_x="0 : 536.18109 : 1"
       inkscape:vp_y="0 : 1000 : 0"
       inkscape:vp_z="744.09448 : 536.18109 : 1"
       sodipodi:type="inkscape:persp3d" />
    <inkscape:perspective
       id="perspective3489"
       inkscape:persp3d-origin="372.04724 : 360.78739 : 1"
       inkscape:vp_x="0 : 536.18109 : 1"
       inkscape:vp_y="0 : 1000 : 0"
       inkscape:vp_z="744.09448 : 536.18109 : 1"
       sodipodi:type="inkscape:persp3d" />
    <inkscape:perspective
       id="perspective3491"
       inkscape:persp3d-origin="372.04724 : 360.78739 : 1"
       inkscape:vp_x="0 : 536.18109 : 1"
       inkscape:vp_y="0 : 1000 : 0"
       inkscape:vp_z="744.09448 : 536.18109 : 1"
       sodipodi:type="inkscape:persp3d" />
    <inkscape:perspective
       id="perspective3493"
       inkscape:persp3d-origin="372.04724 : 360.78739 : 1"
       inkscape:vp_x="0 : 536.18109 : 1"
       inkscape:vp_y="0 : 1000 : 0"
       inkscape:vp_z="744.09448 : 536.18109 : 1"
       sodipodi:type="inkscape:persp3d" />
    <inkscape:perspective
       id="perspective3495"
       inkscape:persp3d-origin="372.04724 : 360.78739 : 1"
       inkscape:vp_x="0 : 536.18109 : 1"
       inkscape:vp_y="0 : 1000 : 0"
       inkscape:vp_z="744.09448 : 536.18109 : 1"
       sodipodi:type="inkscape:persp3d" />
    <inkscape:perspective
       id="perspective3497"
       inkscape:persp3d-origin="372.04724 : 360.78739 : 1"
       inkscape:vp_x="0 : 536.18109 : 1"
       inkscape:vp_y="0 : 1000 : 0"
       inkscape:vp_z="744.09448 : 536.18109 : 1"
       sodipodi:type="inkscape:persp3d" />
    <inkscape:perspective
       id="perspective3499"
       inkscape:persp3d-origin="372.04724 : 360.78739 : 1"
       inkscape:vp_x="0 : 536.18109 : 1"
       inkscape:vp_y="0 : 1000 : 0"
       inkscape:vp_z="744.09448 : 536.18109 : 1"
       sodipodi:type="inkscape:persp3d" />
    <inkscape:perspective
       id="perspective3501"
       inkscape:persp3d-origin="372.04724 : 360.78739 : 1"
       inkscape:vp_x="0 : 536.18109 : 1"
       inkscape:vp_y="0 : 1000 : 0"
       inkscape:vp_z="744.09448 : 536.18109 : 1"
       sodipodi:type="inkscape:persp3d" />
    <inkscape:perspective
       id="perspective3306"
       inkscape:persp3d-origin="372.04724 : 360.78739 : 1"
       inkscape:vp_x="0 : 536.18109 : 1"
       inkscape:vp_y="0 : 1000 : 0"
       inkscape:vp_z="744.09448 : 536.18109 : 1"
       sodipodi:type="inkscape:persp3d" />
    <inkscape:perspective
       id="perspective2426"
       inkscape:persp3d-origin="372.04724 : 360.78739 : 1"
       inkscape:vp_x="0 : 536.18109 : 1"
       inkscape:vp_y="0 : 1000 : 0"
       inkscape:vp_z="744.09448 : 536.18109 : 1"
       sodipodi:type="inkscape:persp3d" />
    <inkscape:perspective
       id="perspective2573"
       inkscape:persp3d-origin="372.04724 : 360.78739 : 1"
       inkscape:vp_x="0 : 536.18109 : 1"
       inkscape:vp_y="0 : 1000 : 0"
       inkscape:vp_z="744.09448 : 536.18109 : 1"
       sodipodi:type="inkscape:persp3d" />
    <inkscape:perspective
       id="perspective179"
       inkscape:persp3d-origin="372.04724 : 360.78739 : 1"
       inkscape:vp_x="0 : 536.18109 : 1"
       inkscape:vp_y="0 : 1000 : 0"
       inkscape:vp_z="744.09448 : 536.18109 : 1"
       sodipodi:type="inkscape:persp3d" />
    <inkscape:perspective
       id="perspective3311"
       inkscape:persp3d-origin="372.04724 : 360.78739 : 1"
       inkscape:vp_x="0 : 536.18109 : 1"
       inkscape:vp_y="0 : 1000 : 0"
       inkscape:vp_z="744.09448 : 536.18109 : 1"
       sodipodi:type="inkscape:persp3d" />
    <inkscape:perspective
       id="perspective3309"
       inkscape:persp3d-origin="372.04724 : 360.78739 : 1"
       inkscape:vp_x="0 : 536.18109 : 1"
       inkscape:vp_y="0 : 1000 : 0"
       inkscape:vp_z="744.09448 : 536.18109 : 1"
       sodipodi:type="inkscape:persp3d" />
    <inkscape:perspective
       id="perspective3307"
       inkscape:persp3d-origin="372.04724 : 360.78739 : 1"
       inkscape:vp_x="0 : 536.18109 : 1"
       inkscape:vp_y="0 : 1000 : 0"
       inkscape:vp_z="744.09448 : 536.18109 : 1"
       sodipodi:type="inkscape:persp3d" />
    <inkscape:perspective
       id="perspective3305"
       inkscape:persp3d-origin="372.04724 : 360.78739 : 1"
       inkscape:vp_x="0 : 536.18109 : 1"
       inkscape:vp_y="0 : 1000 : 0"
       inkscape:vp_z="744.09448 : 536.18109 : 1"
       sodipodi:type="inkscape:persp3d" />
    <inkscape:perspective
       id="perspective182"
       inkscape:persp3d-origin="372.04724 : 360.78739 : 1"
       inkscape:vp_x="0 : 536.18109 : 1"
       inkscape:vp_y="0 : 1000 : 0"
       inkscape:vp_z="744.09448 : 536.18109 : 1"
       sodipodi:type="inkscape:persp3d" />
  </defs>
  <sodipodi:namedview
     bordercolor="#666666"
     borderopacity="1.0"
     gridtolerance="10.0"
     guidetolerance="10.0"
     id="base"
     inkscape:current-layer="g3494"
     inkscape:cx="-151"
     inkscape:cy="156.5"
     inkscape:guide-bbox="true"
     inkscape:pageopacity="0.0"
     inkscape:pageshadow="2"
     inkscape:window-height="1009"
     inkscape:window-width="1920"
     inkscape:zoom="1"
     objecttolerance="10.0"
     pagecolor="#ffffff"
     showgrid="false"
     showguides="false"
     inkscape:showpageshadow="2"
     inkscape:pagecheckerboard="0"
     inkscape:deskcolor="#d1d1d1"
     inkscape:window-x="1912"
     inkscape:window-y="-8"
     inkscape:window-maximized="1" />
  <g
     id="g3494"
     transform="translate(4.9999998,4.9999998)"
     inkscape:label="sign_5_89">
    <path
       d="m 20,1.121968e-4 h 150 c 11.08,0 20,8.9200000032 20,19.9999998032 V 170.00011 c 0,11.08 -8.92,20 -20,20 H 20 c -11.08,0 -20,-8.92 -20,-20 V 20.000112 C 0,8.9201122 8.92,1.121968e-4 20,1.121968e-4 Z"
       id="rect2410"
       style="fill:#ffffff;fill-opacity:1;fill-rule:nonzero;stroke:#000000;stroke-width:2.01052631;stroke-linecap:round;stroke-linejoin:miter;stroke-miterlimit:4;stroke-opacity:1;stroke-dasharray:none"
       transform="matrix(0.9947644,0,0,0.9947644,0.4973822,0.4973822)"
       inkscape:label="bg" />
    <path
       d="M 24.736843,6.0001121 H 165.26316 C 175.64337,6.0001121 184,14.356744 184,24.736955 V 165.26327 c 0,10.38021 -8.35663,18.73684 -18.73684,18.73684 H 24.736843 C 14.356632,184.00011 6,175.64348 6,165.26327 V 24.736955 C 6,14.356744 14.356632,6.0001121 24.736843,6.0001121 Z"
       id="rect3347"
       style="fill:#0000ff;fill-opacity:1;fill-rule:nonzero;stroke:none;stroke-width:1.8;stroke-linecap:round;stroke-linejoin:miter;stroke-miterlimit:4;stroke-opacity:1"
       transform="matrix(0.9947644,0,0,0.9947644,0.4973822,0.4973822)"
       inkscape:label="blue" />
    <path
       d="m 84.04271,54.738415 c -3.6302,0.147288 -11.13311,0.194502 -14.7654,0.194502 -2.42473,0.505141 -5.64049,2.703029 -5.64049,5.835015 0,3.738132 3.79925,5.707885 6.224,6.515753 0.90927,0.202036 1.87084,1.600318 1.26426,3.014758 l -6.51577,17.69956 c -2.82925,-0.90931 -5.90855,-1.65328 -9.14151,-1.65328 -13.63878,-3e-5 -24.50706,10.77181 -24.50706,24.409807 0,13.74178 10.86828,24.50706 24.50706,24.50706 v -0.0972 c 13.64129,-6e-5 24.4098,-10.98097 24.4098,-24.50705 5e-5,-11.037247 -7.64656,-17.911937 -10.40578,-20.033547 l 0.389,-1.06975 c 7.13878,6.09378 16.5674,13.796087 30.34208,24.896057 h 10.114 c 1.64743,11.95013 11.94356,20.71429 24.31257,20.71429 13.63878,-3e-5 24.40979,-10.76528 24.40979,-24.50705 -3e-5,-14.482327 -13.10926,-29.358567 -33.64858,-22.756547 -3.75194,-6.20702 -6.98067,-11.77988 -8.947,-15.36554 l 0.77799,-1.945 c 2.17355,1.03809 4.16347,0.88895 6.12678,-0.48625 2.2818,-1.64872 1.84775,-2.379079 1.84775,-4.89691 3e-5,-0.707234 -0.6358,-1.944999 -1.84775,-1.944999 v -0.09725 h -18.96381 c -2.59262,1.179312 -2.30897,3.102287 0,4.11891 2.4343,0.781104 4.9216,1.383729 7.39103,2.042249 l -1.45877,3.50101 H 75.98759 l 1.36149,-3.89001 c 0.20206,-1.616896 0.36359,-3.448097 -1.55599,-4.862509 -0.9093,-0.606184 -2.07297,-0.978053 -2.67956,-1.381774 -0.6701,-1.632597 -0.0815,-2.11923 1.6098,-2.11923 h 9.31938 c 1.81857,0 2.52852,-2.307553 2.52852,-3.014759 3e-5,0 -0.50788,-2.820257 -2.52852,-2.820257 z M 73.75084,78.759223 h 34.52381 c -3.47643,9.01353 -6.65193,18.13947 -9.91952,27.230057 -8.8074,-7.329467 -17.94664,-14.295227 -26.45204,-21.978557 0.52908,-1.79483 1.01173,-3.57949 1.84775,-5.2515 z m 40.26157,0.77801 c 2.02117,3.76707 4.17917,7.44755 6.41852,11.0865 -4.67088,3.50278 -9.61155,9.2646 -10.30853,18.185797 h -6.71026 c 3.40698,-9.802667 7.03663,-19.525917 10.60027,-29.272297 z m 39.48361,31.120047 c 3e-5,10.50722 -8.46036,18.9638 -18.86655,18.9638 -10.7564,-7e-5 -17.55028,-7.99778 -18.5748,-15.17104 h 18.5748 c 2.22264,-3e-5 3.69551,-1.66994 3.69551,-3.79276 -2.36128,-6.09894 -6.50306,-11.910247 -9.82226,-17.699537 9.20256,-4.09193 24.9933,2.693 24.9933,17.699537 z M 55.4678,91.887983 c 2.62685,-4e-5 4.97383,0.54606 7.19651,1.556 -1.01058,5.44669 -3.50029,9.937987 -7.48827,13.712277 -2.02062,-4e-5 -3.40375,1.48196 -3.40375,3.50101 -3e-5,2.12282 1.67489,3.79275 3.69551,3.79275 1.81818,-3e-5 3.19033,-1.19782 3.6955,-3.01476 5.31269,-3.69359 6.21343,-9.32045 8.26627,-15.171017 4.37209,3.53135 6.80751,9.424877 6.80751,14.393027 0,9.1094 -7.06003,18.96379 -18.76928,18.96379 -10.50723,-2e-5 -18.86655,-8.35931 -18.86655,-18.86654 0,-10.40463 8.35932,-18.866537 18.86655,-18.866537 z m 67.88065,3.69551 v 0.19448 l 7.5855,13.031537 h -15.17104 c 0.50205,-6.51412 4.8518,-11.013447 7.58554,-13.226017 z"
       id="_143373520"
       style="fill:#ffffff;fill-opacity:1;fill-rule:evenodd;stroke-width:1.3772"
       inkscape:label="sign"
       sodipodi:nodetypes="ccscccssccsccccsscccccccscccccccsssccccccccccccssccscscccssccssscccccc" />
    <path
       id="rect2"
       style="display:inline;fill:#ff0000;fill-opacity:1;stroke-width:3.13236;paint-order:stroke fill markers"
       d="M 202.69495 149.165 L -39.884298 149.1645 L -40.579492 151.35458 C -42.21904 156.5197 -40.620311 163.24702 -36.775317 169.66968 L 209.99154 169.66861 C 210.84177 163.58206 207.99267 155.93418 202.69495 149.165 z "
       transform="matrix(0.73654201,-0.6763918,0.23379898,0.97228496,-4.9999998,-4.9999998)"
       inkscape:label="red" />
  </g>
</svg>
