<?xml version="1.0" encoding="UTF-8" standalone="no"?>
<!-- Created with Inkscape (http://www.inkscape.org/) -->

<svg
   height="200"
   id="svg2"
   inkscape:output_extension="org.inkscape.output.svg.inkscape"
   inkscape:version="1.3 (0e150ed6c4, 2023-07-21)"
   sodipodi:docname="5.92.2.svg"
   sodipodi:version="0.32"
   version="1.0"
   width="200"
   xmlns:inkscape="http://www.inkscape.org/namespaces/inkscape"
   xmlns:sodipodi="http://sodipodi.sourceforge.net/DTD/sodipodi-0.dtd"
   xmlns="http://www.w3.org/2000/svg"
   xmlns:svg="http://www.w3.org/2000/svg"
   xmlns:rdf="http://www.w3.org/1999/02/22-rdf-syntax-ns#"
   xmlns:cc="http://creativecommons.org/ns#"
   xmlns:dc="http://purl.org/dc/elements/1.1/">
  <title
     id="title1">Інформаційно-вказівні знаки » Дорожні знаки » ПДР Тест Центр</title>
  <metadata
     id="metadata7">
    <rdf:RDF>
      <cc:Work
         rdf:about="">
        <dc:format>&#10;					image/svg+xml&#10;				</dc:format>
        <dc:type
           rdf:resource="http://purl.org/dc/dcmitype/StillImage" />
        <cc:license
           rdf:resource="http://creativecommons.org/licenses/by-nc-sa/4.0/" />
        <dc:creator>
          <cc:Agent>
            <dc:title>ПДР Тест Центр | PDR Test Center</dc:title>
          </cc:Agent>
        </dc:creator>
        <dc:rights>
          <cc:Agent>
            <dc:title>ПДР Тест Центр | PDR Test Center</dc:title>
          </cc:Agent>
        </dc:rights>
        <dc:language>uk-UA</dc:language>
        <dc:date>2023-09-01</dc:date>
        <dc:title>Інформаційно-вказівні знаки » Дорожні знаки » ПДР Тест Центр</dc:title>
        <dc:publisher>
          <cc:Agent>
            <dc:title>https://pdrtest.com/</dc:title>
          </cc:Agent>
        </dc:publisher>
        <dc:source>https://pdrtest.com/driver/rules/section/33.5</dc:source>
      </cc:Work>
      <cc:License
         rdf:about="http://creativecommons.org/licenses/by-nc-sa/4.0/">
        <cc:permits
           rdf:resource="http://creativecommons.org/ns#Reproduction" />
        <cc:permits
           rdf:resource="http://creativecommons.org/ns#Distribution" />
        <cc:requires
           rdf:resource="http://creativecommons.org/ns#Notice" />
        <cc:requires
           rdf:resource="http://creativecommons.org/ns#Attribution" />
        <cc:prohibits
           rdf:resource="http://creativecommons.org/ns#CommercialUse" />
        <cc:permits
           rdf:resource="http://creativecommons.org/ns#DerivativeWorks" />
        <cc:requires
           rdf:resource="http://creativecommons.org/ns#ShareAlike" />
      </cc:License>
    </rdf:RDF>
  </metadata>
  <defs
     id="defs5">
    <inkscape:path-effect
       effect="fillet_chamfer"
       id="path-effect4"
       is_visible="true"
       lpeversion="1"
       nodesatellites_param="F,0,0,1,0,2.5630439,0,1 @ F,0,0,1,0,3.493936,0,1 @ F,0,0,1,0,0,0,1 @ F,0,0,1,0,0,0,1"
       radius="0"
       unit="px"
       method="auto"
       mode="F"
       chamfer_steps="1"
       flexible="false"
       use_knot_distance="true"
       apply_no_radius="true"
       apply_with_radius="true"
       only_selected="false"
       hide_knots="false" />
    <inkscape:path-effect
       effect="fillet_chamfer"
       id="path-effect3"
       is_visible="true"
       lpeversion="1"
       nodesatellites_param="F,0,0,1,0,0,0,1 @ F,0,0,1,0,0,0,1 @ F,0,0,1,0,0,0,1 @ F,0,0,1,0,0,0,1 | F,0,0,1,0,4.1785577,0,1 @ F,0,0,1,0,0,0,1 @ F,0,0,1,0,0,0,1 @ F,0,0,1,0,0,0,1 @ F,0,0,1,0,0,0,1 @ F,0,0,1,0,0,0,1 @ F,0,0,1,0,0,0,1 @ F,0,0,1,0,0,0,1 @ F,0,0,1,0,0,0,1 @ F,0,0,1,0,0,0,1 @ F,0,0,1,0,0,0,1 | F,0,0,1,0,0,0,1 @ F,0,0,1,0,0,0,1 @ F,0,0,1,0,0,0,1 @ F,0,0,1,0,0,0,1"
       radius="0"
       unit="px"
       method="auto"
       mode="F"
       chamfer_steps="1"
       flexible="false"
       use_knot_distance="true"
       apply_no_radius="true"
       apply_with_radius="true"
       only_selected="false"
       hide_knots="false" />
    <inkscape:perspective
       id="perspective9"
       inkscape:persp3d-origin="372.04724 : 360.78739 : 1"
       inkscape:vp_x="0 : 536.18109 : 1"
       inkscape:vp_y="0 : 1000 : 0"
       inkscape:vp_z="744.09448 : 536.18109 : 1"
       sodipodi:type="inkscape:persp3d" />
    <inkscape:perspective
       id="perspective2411"
       inkscape:persp3d-origin="372.04724 : 360.78739 : 1"
       inkscape:vp_x="0 : 536.18109 : 1"
       inkscape:vp_y="0 : 1000 : 0"
       inkscape:vp_z="744.09448 : 536.18109 : 1"
       sodipodi:type="inkscape:persp3d" />
    <inkscape:perspective
       id="perspective109"
       inkscape:persp3d-origin="372.04724 : 360.78739 : 1"
       inkscape:vp_x="0 : 536.18109 : 1"
       inkscape:vp_y="0 : 1000 : 0"
       inkscape:vp_z="744.09448 : 536.18109 : 1"
       sodipodi:type="inkscape:persp3d" />
    <inkscape:perspective
       id="perspective118"
       inkscape:persp3d-origin="372.04724 : 360.78739 : 1"
       inkscape:vp_x="0 : 536.18109 : 1"
       inkscape:vp_y="0 : 1000 : 0"
       inkscape:vp_z="744.09448 : 536.18109 : 1"
       sodipodi:type="inkscape:persp3d" />
    <inkscape:perspective
       id="perspective3489"
       inkscape:persp3d-origin="372.04724 : 360.78739 : 1"
       inkscape:vp_x="0 : 536.18109 : 1"
       inkscape:vp_y="0 : 1000 : 0"
       inkscape:vp_z="744.09448 : 536.18109 : 1"
       sodipodi:type="inkscape:persp3d" />
    <inkscape:perspective
       id="perspective3491"
       inkscape:persp3d-origin="372.04724 : 360.78739 : 1"
       inkscape:vp_x="0 : 536.18109 : 1"
       inkscape:vp_y="0 : 1000 : 0"
       inkscape:vp_z="744.09448 : 536.18109 : 1"
       sodipodi:type="inkscape:persp3d" />
    <inkscape:perspective
       id="perspective3493"
       inkscape:persp3d-origin="372.04724 : 360.78739 : 1"
       inkscape:vp_x="0 : 536.18109 : 1"
       inkscape:vp_y="0 : 1000 : 0"
       inkscape:vp_z="744.09448 : 536.18109 : 1"
       sodipodi:type="inkscape:persp3d" />
    <inkscape:perspective
       id="perspective3495"
       inkscape:persp3d-origin="372.04724 : 360.78739 : 1"
       inkscape:vp_x="0 : 536.18109 : 1"
       inkscape:vp_y="0 : 1000 : 0"
       inkscape:vp_z="744.09448 : 536.18109 : 1"
       sodipodi:type="inkscape:persp3d" />
    <inkscape:perspective
       id="perspective3497"
       inkscape:persp3d-origin="372.04724 : 360.78739 : 1"
       inkscape:vp_x="0 : 536.18109 : 1"
       inkscape:vp_y="0 : 1000 : 0"
       inkscape:vp_z="744.09448 : 536.18109 : 1"
       sodipodi:type="inkscape:persp3d" />
    <inkscape:perspective
       id="perspective3499"
       inkscape:persp3d-origin="372.04724 : 360.78739 : 1"
       inkscape:vp_x="0 : 536.18109 : 1"
       inkscape:vp_y="0 : 1000 : 0"
       inkscape:vp_z="744.09448 : 536.18109 : 1"
       sodipodi:type="inkscape:persp3d" />
    <inkscape:perspective
       id="perspective3501"
       inkscape:persp3d-origin="372.04724 : 360.78739 : 1"
       inkscape:vp_x="0 : 536.18109 : 1"
       inkscape:vp_y="0 : 1000 : 0"
       inkscape:vp_z="744.09448 : 536.18109 : 1"
       sodipodi:type="inkscape:persp3d" />
    <inkscape:perspective
       id="perspective3306"
       inkscape:persp3d-origin="372.04724 : 360.78739 : 1"
       inkscape:vp_x="0 : 536.18109 : 1"
       inkscape:vp_y="0 : 1000 : 0"
       inkscape:vp_z="744.09448 : 536.18109 : 1"
       sodipodi:type="inkscape:persp3d" />
    <inkscape:perspective
       id="perspective2426"
       inkscape:persp3d-origin="372.04724 : 360.78739 : 1"
       inkscape:vp_x="0 : 536.18109 : 1"
       inkscape:vp_y="0 : 1000 : 0"
       inkscape:vp_z="744.09448 : 536.18109 : 1"
       sodipodi:type="inkscape:persp3d" />
    <inkscape:perspective
       id="perspective2573"
       inkscape:persp3d-origin="372.04724 : 360.78739 : 1"
       inkscape:vp_x="0 : 536.18109 : 1"
       inkscape:vp_y="0 : 1000 : 0"
       inkscape:vp_z="744.09448 : 536.18109 : 1"
       sodipodi:type="inkscape:persp3d" />
    <inkscape:perspective
       id="perspective179"
       inkscape:persp3d-origin="372.04724 : 360.78739 : 1"
       inkscape:vp_x="0 : 536.18109 : 1"
       inkscape:vp_y="0 : 1000 : 0"
       inkscape:vp_z="744.09448 : 536.18109 : 1"
       sodipodi:type="inkscape:persp3d" />
    <inkscape:perspective
       id="perspective3311"
       inkscape:persp3d-origin="372.04724 : 360.78739 : 1"
       inkscape:vp_x="0 : 536.18109 : 1"
       inkscape:vp_y="0 : 1000 : 0"
       inkscape:vp_z="744.09448 : 536.18109 : 1"
       sodipodi:type="inkscape:persp3d" />
    <inkscape:perspective
       id="perspective3309"
       inkscape:persp3d-origin="372.04724 : 360.78739 : 1"
       inkscape:vp_x="0 : 536.18109 : 1"
       inkscape:vp_y="0 : 1000 : 0"
       inkscape:vp_z="744.09448 : 536.18109 : 1"
       sodipodi:type="inkscape:persp3d" />
    <inkscape:perspective
       id="perspective3307"
       inkscape:persp3d-origin="372.04724 : 360.78739 : 1"
       inkscape:vp_x="0 : 536.18109 : 1"
       inkscape:vp_y="0 : 1000 : 0"
       inkscape:vp_z="744.09448 : 536.18109 : 1"
       sodipodi:type="inkscape:persp3d" />
    <inkscape:perspective
       id="perspective3305"
       inkscape:persp3d-origin="372.04724 : 360.78739 : 1"
       inkscape:vp_x="0 : 536.18109 : 1"
       inkscape:vp_y="0 : 1000 : 0"
       inkscape:vp_z="744.09448 : 536.18109 : 1"
       sodipodi:type="inkscape:persp3d" />
    <inkscape:perspective
       id="perspective182"
       inkscape:persp3d-origin="372.04724 : 360.78739 : 1"
       inkscape:vp_x="0 : 536.18109 : 1"
       inkscape:vp_y="0 : 1000 : 0"
       inkscape:vp_z="744.09448 : 536.18109 : 1"
       sodipodi:type="inkscape:persp3d" />
  </defs>
  <sodipodi:namedview
     bordercolor="#666666"
     borderopacity="1.0"
     gridtolerance="10.0"
     guidetolerance="10.0"
     id="base"
     inkscape:current-layer="svg2"
     inkscape:cx="27.577164"
     inkscape:cy="253.49777"
     inkscape:guide-bbox="true"
     inkscape:pageopacity="0.0"
     inkscape:pageshadow="2"
     inkscape:window-height="1009"
     inkscape:window-width="1920"
     inkscape:zoom="1.4142136"
     objecttolerance="10.0"
     pagecolor="#ffffff"
     showgrid="false"
     showguides="false"
     inkscape:showpageshadow="2"
     inkscape:pagecheckerboard="0"
     inkscape:deskcolor="#d1d1d1"
     inkscape:window-x="1912"
     inkscape:window-y="-8"
     inkscape:window-maximized="1" />
  <g
     id="g3494"
     transform="translate(4.9999998,4.9999998)"
     inkscape:label="sign_5_92_2">
    <path
       d="m 20,1.121968e-4 h 150 c 11.08,0 20,8.9200000032 20,19.9999998032 V 170.00011 c 0,11.08 -8.92,20 -20,20 H 20 c -11.08,0 -20,-8.92 -20,-20 V 20.000112 C 0,8.9201122 8.92,1.121968e-4 20,1.121968e-4 Z"
       id="rect2410"
       style="fill:#ffffff;fill-opacity:1;fill-rule:nonzero;stroke:#000000;stroke-width:2.01052631;stroke-linecap:round;stroke-linejoin:miter;stroke-miterlimit:4;stroke-opacity:1;stroke-dasharray:none"
       transform="matrix(0.9947644,0,0,0.9947644,0.4973822,0.4973822)"
       inkscape:label="bg" />
    <path
       d="M 24.736843,6.0001121 H 165.26316 C 175.64337,6.0001121 184,14.356744 184,24.736955 V 165.26327 c 0,10.38021 -8.35663,18.73684 -18.73684,18.73684 H 24.736843 C 14.356632,184.00011 6,175.64348 6,165.26327 V 24.736955 C 6,14.356744 14.356632,6.0001121 24.736843,6.0001121 Z"
       id="rect3347"
       style="fill:#0000ff;fill-opacity:1;fill-rule:nonzero;stroke:none;stroke-width:1.8;stroke-linecap:round;stroke-linejoin:miter;stroke-miterlimit:4;stroke-opacity:1"
       transform="matrix(0.9947644,0,0,0.9947644,0.4973822,0.4973822)"
       inkscape:label="blue" />
    <g
       id="g3404"
       transform="translate(-1.9626905e-6)"
       inkscape:label="sign">
      <path
         d="m 164.93199,164.89454 -135.144589,-1e-5 c -11.19212,1e-5 -15.01916,-6.98077 -9.42308,-17.18839 L 87.936601,24.449412 c 5.48493,-10.004926 13.361249,-10.004926 18.846189,0 l 67.57228,123.256738 c 5.5558,10.13416 1.68849,17.18839 -9.42308,17.18839 z"
         id="path3317"
         inkscape:transform-center-y="-8.5380042"
         sodipodi:nodetypes="czzzzss"
         style="display:inline;fill:#ffffff;fill-opacity:1;fill-rule:nonzero;stroke:none;stroke-width:8.3;stroke-linecap:round;stroke-linejoin:miter;stroke-miterlimit:4;stroke-opacity:1"
         inkscape:label="bg" />
      <path
         id="path1"
         style="display:inline;fill:#000000;fill-rule:evenodd;stroke-width:1.18061"
         inkscape:label="line3"
         d="M 50.285158 129.65625 L 46.638674 136.77539 L 62.603518 136.77539 L 64.724612 129.65625 L 50.285158 129.65625 z M 43.744143 142.43164 L 35.787112 157.96875 L 56.287112 157.96875 L 60.917971 142.43164 L 43.744143 142.43164 z " />
      <path
         id="path1-7"
         style="display:inline;fill:#000000;fill-rule:evenodd;stroke-width:1.19615"
         inkscape:label="line2"
         d="M 91.439455 129.65625 L 90.427737 136.77539 L 106.17188 136.77539 L 104.72071 129.65625 L 91.439455 129.65625 z M 89.623049 142.43164 L 87.408205 158 L 110.50196 158 L 107.32617 142.43164 L 89.623049 142.43164 z " />
      <path
         id="path1-2"
         style="display:inline;fill:#000000;fill-rule:evenodd;stroke-width:1.21148"
         inkscape:label="line1"
         d="M 128.53516 129.65625 L 131.37696 136.77539 L 148.24024 136.77539 L 144.66016 129.65625 L 128.53516 129.65625 z M 133.63477 142.43164 L 139.84766 158 L 158.91016 158 L 151.08399 142.43164 L 133.63477 142.43164 z " />
      <path
         class="fil2 str0"
         d="m 77.740505,115.54397 -5.22115,9.00769 h 10.37743 c -0.39137,-3.65562 -2.34946,-6.91878 -5.15628,-9.00769 z m 12.79397,-23.10699 h -12.79397 c -0.78278,0 -1.30503,0.717951 -1.30503,1.435869 v 2.415483 c 0,1.240184 2.08891,3.067454 3.85128,2.611174 l 1.63154,-0.39141 0.45627,1.30504 -6.13478,10.508484 c -1.89319,-0.71796 -3.98209,-1.17424 -6.20074,-1.17424 -9.2692,0 -16.71011,7.44104 -16.71011,16.70934 0,9.2694 7.44091,16.71042 16.71011,16.71042 8.4194,0 15.33805,-6.07003 16.57821,-14.16412 h 6.85378 l 20.691105,-16.97097 0.26166,0.71791 c -4.30861,3.06747 -7.18032,8.02816 -7.18032,13.70676 0,9.2694 7.4409,16.71042 16.7101,16.71042 9.26816,0 16.70903,-7.44102 16.70903,-16.71042 0,-9.2683 -7.44087,-16.70934 -16.70903,-16.70934 -2.21972,0 -4.3086,0.45628 -6.26669,1.24019 l -4.3724,-12.076274 c -0.39248,-0.913642 0.12974,-1.958093 0.84765,-2.087834 1.63263,-0.457362 4.24268,-1.893224 4.24268,-4.373579 0,-2.219764 -2.28459,-3.590755 -3.91615,-4.047051 l -7.37601,-0.06484 c -1.43584,0 -1.82724,1.827287 -1.82724,1.827287 0,0.522218 0.58709,2.153807 1.82724,2.088936 l 3.65557,0.0649 c 1.04444,0 1.30503,0.195699 1.30503,0.979601 0,0.913623 -1.10934,0.782815 -1.95807,1.369912 -1.36989,0.914716 -1.17421,2.154893 -1.10934,3.395063 l 0.9796,2.676049 H 86.552385 l -0.91363,-2.546294 4.89572,-1.305054 c 0.32544,-0.130821 1.30501,-0.587103 1.30501,-1.435876 l 0.0648,-0.717945 c 0,-0.848773 -0.58708,-1.697532 -1.36987,-1.697532 z m -6.4624,12.14113 -4.37351,7.63674 c 3.91616,2.74199 6.6581,7.2453 7.04951,12.33681 h 4.56919 z m -15.59969,19.12478 5.80934,-9.98621 c -1.30609,-0.45737 -2.74197,-0.71794 -4.24268,-0.71794 -7.11544,0 -12.85882,5.74351 -12.85882,12.85798 0,7.11557 5.74338,12.85908 12.85882,12.85908 6.26562,0 11.48787,-4.37357 12.66206,-10.31278 l -12.728,-0.0659 c -1.43585,0 -2.48031,-1.0445 -2.48031,-2.48036 0,-0.91364 0.32652,-1.69643 0.97959,-2.15382 z m 26.30475,-1.04445 17.949165,-15.07774 -1.305,-3.58969 H 87.988225 Z m 21.017635,-6.65713 2.74087,7.57076 2.93766,2.80687 c 0.26056,1.17531 1.24015,2.02408 2.48028,2.02408 1.43584,0 2.54519,-1.11044 2.54519,-2.5463 0,-1.36993 -0.9785,-2.41438 -2.34947,-2.48033 l -2.676,-2.34952 -2.48032,-6.98368 c 1.50075,-0.65305 3.19822,-1.04445 4.9606,-1.04445 7.11437,0 12.85885,5.74351 12.85885,12.85798 0,7.11557 -5.74448,12.85908 -12.85885,12.85908 -7.11434,0 -12.85882,-5.74351 -12.85882,-12.85908 0,-3.98107 1.82725,-7.50589 4.70001,-9.85541 z"
         id="_143707696"
         style="display:inline;fill:#000000;fill-opacity:1;fill-rule:evenodd;stroke:#000000;stroke-width:0.0114195"
         inkscape:label="sign" />
      <path
         id="_146971400"
         style="display:inline;fill:#000000;fill-opacity:1;fill-rule:evenodd;stroke-width:0.630771"
         inkscape:label="man"
         d="m 103.42709,55.79308 c 0.81769,0.02909 1.63432,0.222206 2.40039,0.595609 3.06356,1.493261 4.21125,5.324576 2.55469,8.530106 -1.65616,3.204763 -5.50676,4.600291 -8.570315,3.107031 -3.064282,-1.493615 -4.210849,-5.325344 -2.554688,-8.530107 1.242419,-2.404148 3.716853,-3.789901 6.169923,-3.702639 z m -8.404297,11.49677 c 0.562948,0.05439 1.059568,0.327473 1.355469,0.870652 1.524183,2.797907 2.921069,7.625592 0.845703,10.929613 -3.29588,6.480802 -4.42568,9.342206 -5.78516,12.257405 1.08014,2.69927 7.285481,8.74554 8.365237,11.44366 0.787888,1.92999 0.838508,1.67961 0.810548,3.4295 -0.616721,2.15203 -2.971679,14.47328 -3.283205,16.68653 -0.868187,6.16808 -7.60362,5.87408 -7.27343,-1.24623 0.52626,-5.11073 2.80431,-7.2715 3.24413,-15.1425 -1.62698,-4.39485 -9.98979,-9.875863 -11.61718,-14.271856 -1.18534,-3.034245 -0.74705,-4.86321 0.77343,-7.81879 l 6.86915,-11.955806 2.95507,-3.865768 c 0.68024,-0.889552 1.801992,-1.407061 2.740238,-1.31641 z m 3.330078,11.92356 c 1.810689,4.100342 2.463429,5.271465 4.332029,9.512672 l 3.38867,-1.513681 a 2.9821952,2.8962603 0 0 1 3.73829,1.037573 2.4954571,2.423548 0 0 1 -2.03516,3.099443 l -5.29102,2.365365 c -1.33938,1.136545 -3.762184,0.727496 -5.294918,-2.391921 l -2.773438,-5.455323 c 0.875818,-1.35101 3.060521,-5.302737 3.935547,-6.654128 z" />
    </g>
  </g>
</svg>
