<?xml version="1.0" encoding="UTF-8" standalone="no"?>
<!-- Created with Inkscape (http://www.inkscape.org/) -->

<svg
   height="200"
   id="svg2"
   inkscape:output_extension="org.inkscape.output.svg.inkscape"
   inkscape:version="1.3 (0e150ed6c4, 2023-07-21)"
   sodipodi:docname="5.93.1.svg"
   sodipodi:version="0.32"
   version="1.0"
   width="200"
   xmlns:inkscape="http://www.inkscape.org/namespaces/inkscape"
   xmlns:sodipodi="http://sodipodi.sourceforge.net/DTD/sodipodi-0.dtd"
   xmlns="http://www.w3.org/2000/svg"
   xmlns:svg="http://www.w3.org/2000/svg"
   xmlns:rdf="http://www.w3.org/1999/02/22-rdf-syntax-ns#"
   xmlns:cc="http://creativecommons.org/ns#"
   xmlns:dc="http://purl.org/dc/elements/1.1/">
  <title
     id="title1">Інформаційно-вказівні знаки » Дорожні знаки » ПДР Тест Центр</title>
  <metadata
     id="metadata7">
    <rdf:RDF>
      <cc:Work
         rdf:about="">
        <dc:format>&#10;					image/svg+xml&#10;				</dc:format>
        <dc:type
           rdf:resource="http://purl.org/dc/dcmitype/StillImage" />
        <cc:license
           rdf:resource="http://creativecommons.org/licenses/by-nc-sa/4.0/" />
        <dc:creator>
          <cc:Agent>
            <dc:title>ПДР Тест Центр | PDR Test Center</dc:title>
          </cc:Agent>
        </dc:creator>
        <dc:rights>
          <cc:Agent>
            <dc:title>ПДР Тест Центр | PDR Test Center</dc:title>
          </cc:Agent>
        </dc:rights>
        <dc:language>uk-UA</dc:language>
        <dc:date>2023-09-01</dc:date>
        <dc:title>Інформаційно-вказівні знаки » Дорожні знаки » ПДР Тест Центр</dc:title>
        <dc:publisher>
          <cc:Agent>
            <dc:title>https://pdrtest.com/</dc:title>
          </cc:Agent>
        </dc:publisher>
        <dc:source>https://pdrtest.com/driver/rules/section/33.5</dc:source>
      </cc:Work>
      <cc:License
         rdf:about="http://creativecommons.org/licenses/by-nc-sa/4.0/">
        <cc:permits
           rdf:resource="http://creativecommons.org/ns#Reproduction" />
        <cc:permits
           rdf:resource="http://creativecommons.org/ns#Distribution" />
        <cc:requires
           rdf:resource="http://creativecommons.org/ns#Notice" />
        <cc:requires
           rdf:resource="http://creativecommons.org/ns#Attribution" />
        <cc:prohibits
           rdf:resource="http://creativecommons.org/ns#CommercialUse" />
        <cc:permits
           rdf:resource="http://creativecommons.org/ns#DerivativeWorks" />
        <cc:requires
           rdf:resource="http://creativecommons.org/ns#ShareAlike" />
      </cc:License>
    </rdf:RDF>
  </metadata>
  <defs
     id="defs5">
    <inkscape:path-effect
       effect="fillet_chamfer"
       id="path-effect4"
       is_visible="true"
       lpeversion="1"
       nodesatellites_param="F,0,0,1,0,2.5630439,0,1 @ F,0,0,1,0,3.493936,0,1 @ F,0,0,1,0,0,0,1 @ F,0,0,1,0,0,0,1"
       radius="0"
       unit="px"
       method="auto"
       mode="F"
       chamfer_steps="1"
       flexible="false"
       use_knot_distance="true"
       apply_no_radius="true"
       apply_with_radius="true"
       only_selected="false"
       hide_knots="false" />
    <inkscape:path-effect
       effect="fillet_chamfer"
       id="path-effect3"
       is_visible="true"
       lpeversion="1"
       nodesatellites_param="F,0,0,1,0,0,0,1 @ F,0,0,1,0,0,0,1 @ F,0,0,1,0,0,0,1 @ F,0,0,1,0,0,0,1 | F,0,0,1,0,4.1785577,0,1 @ F,0,0,1,0,0,0,1 @ F,0,0,1,0,0,0,1 @ F,0,0,1,0,0,0,1 @ F,0,0,1,0,0,0,1 @ F,0,0,1,0,0,0,1 @ F,0,0,1,0,0,0,1 @ F,0,0,1,0,0,0,1 @ F,0,0,1,0,0,0,1 @ F,0,0,1,0,0,0,1 @ F,0,0,1,0,0,0,1 | F,0,0,1,0,0,0,1 @ F,0,0,1,0,0,0,1 @ F,0,0,1,0,0,0,1 @ F,0,0,1,0,0,0,1"
       radius="0"
       unit="px"
       method="auto"
       mode="F"
       chamfer_steps="1"
       flexible="false"
       use_knot_distance="true"
       apply_no_radius="true"
       apply_with_radius="true"
       only_selected="false"
       hide_knots="false" />
    <inkscape:perspective
       id="perspective9"
       inkscape:persp3d-origin="372.04724 : 360.78739 : 1"
       inkscape:vp_x="0 : 536.18109 : 1"
       inkscape:vp_y="0 : 1000 : 0"
       inkscape:vp_z="744.09448 : 536.18109 : 1"
       sodipodi:type="inkscape:persp3d" />
    <inkscape:perspective
       id="perspective2411"
       inkscape:persp3d-origin="372.04724 : 360.78739 : 1"
       inkscape:vp_x="0 : 536.18109 : 1"
       inkscape:vp_y="0 : 1000 : 0"
       inkscape:vp_z="744.09448 : 536.18109 : 1"
       sodipodi:type="inkscape:persp3d" />
    <inkscape:perspective
       id="perspective109"
       inkscape:persp3d-origin="372.04724 : 360.78739 : 1"
       inkscape:vp_x="0 : 536.18109 : 1"
       inkscape:vp_y="0 : 1000 : 0"
       inkscape:vp_z="744.09448 : 536.18109 : 1"
       sodipodi:type="inkscape:persp3d" />
    <inkscape:perspective
       id="perspective118"
       inkscape:persp3d-origin="372.04724 : 360.78739 : 1"
       inkscape:vp_x="0 : 536.18109 : 1"
       inkscape:vp_y="0 : 1000 : 0"
       inkscape:vp_z="744.09448 : 536.18109 : 1"
       sodipodi:type="inkscape:persp3d" />
    <inkscape:perspective
       id="perspective3489"
       inkscape:persp3d-origin="372.04724 : 360.78739 : 1"
       inkscape:vp_x="0 : 536.18109 : 1"
       inkscape:vp_y="0 : 1000 : 0"
       inkscape:vp_z="744.09448 : 536.18109 : 1"
       sodipodi:type="inkscape:persp3d" />
    <inkscape:perspective
       id="perspective3491"
       inkscape:persp3d-origin="372.04724 : 360.78739 : 1"
       inkscape:vp_x="0 : 536.18109 : 1"
       inkscape:vp_y="0 : 1000 : 0"
       inkscape:vp_z="744.09448 : 536.18109 : 1"
       sodipodi:type="inkscape:persp3d" />
    <inkscape:perspective
       id="perspective3493"
       inkscape:persp3d-origin="372.04724 : 360.78739 : 1"
       inkscape:vp_x="0 : 536.18109 : 1"
       inkscape:vp_y="0 : 1000 : 0"
       inkscape:vp_z="744.09448 : 536.18109 : 1"
       sodipodi:type="inkscape:persp3d" />
    <inkscape:perspective
       id="perspective3495"
       inkscape:persp3d-origin="372.04724 : 360.78739 : 1"
       inkscape:vp_x="0 : 536.18109 : 1"
       inkscape:vp_y="0 : 1000 : 0"
       inkscape:vp_z="744.09448 : 536.18109 : 1"
       sodipodi:type="inkscape:persp3d" />
    <inkscape:perspective
       id="perspective3497"
       inkscape:persp3d-origin="372.04724 : 360.78739 : 1"
       inkscape:vp_x="0 : 536.18109 : 1"
       inkscape:vp_y="0 : 1000 : 0"
       inkscape:vp_z="744.09448 : 536.18109 : 1"
       sodipodi:type="inkscape:persp3d" />
    <inkscape:perspective
       id="perspective3499"
       inkscape:persp3d-origin="372.04724 : 360.78739 : 1"
       inkscape:vp_x="0 : 536.18109 : 1"
       inkscape:vp_y="0 : 1000 : 0"
       inkscape:vp_z="744.09448 : 536.18109 : 1"
       sodipodi:type="inkscape:persp3d" />
    <inkscape:perspective
       id="perspective3501"
       inkscape:persp3d-origin="372.04724 : 360.78739 : 1"
       inkscape:vp_x="0 : 536.18109 : 1"
       inkscape:vp_y="0 : 1000 : 0"
       inkscape:vp_z="744.09448 : 536.18109 : 1"
       sodipodi:type="inkscape:persp3d" />
    <inkscape:perspective
       id="perspective3306"
       inkscape:persp3d-origin="372.04724 : 360.78739 : 1"
       inkscape:vp_x="0 : 536.18109 : 1"
       inkscape:vp_y="0 : 1000 : 0"
       inkscape:vp_z="744.09448 : 536.18109 : 1"
       sodipodi:type="inkscape:persp3d" />
    <inkscape:perspective
       id="perspective2426"
       inkscape:persp3d-origin="372.04724 : 360.78739 : 1"
       inkscape:vp_x="0 : 536.18109 : 1"
       inkscape:vp_y="0 : 1000 : 0"
       inkscape:vp_z="744.09448 : 536.18109 : 1"
       sodipodi:type="inkscape:persp3d" />
    <inkscape:perspective
       id="perspective2573"
       inkscape:persp3d-origin="372.04724 : 360.78739 : 1"
       inkscape:vp_x="0 : 536.18109 : 1"
       inkscape:vp_y="0 : 1000 : 0"
       inkscape:vp_z="744.09448 : 536.18109 : 1"
       sodipodi:type="inkscape:persp3d" />
    <inkscape:perspective
       id="perspective179"
       inkscape:persp3d-origin="372.04724 : 360.78739 : 1"
       inkscape:vp_x="0 : 536.18109 : 1"
       inkscape:vp_y="0 : 1000 : 0"
       inkscape:vp_z="744.09448 : 536.18109 : 1"
       sodipodi:type="inkscape:persp3d" />
    <inkscape:perspective
       id="perspective3311"
       inkscape:persp3d-origin="372.04724 : 360.78739 : 1"
       inkscape:vp_x="0 : 536.18109 : 1"
       inkscape:vp_y="0 : 1000 : 0"
       inkscape:vp_z="744.09448 : 536.18109 : 1"
       sodipodi:type="inkscape:persp3d" />
    <inkscape:perspective
       id="perspective3309"
       inkscape:persp3d-origin="372.04724 : 360.78739 : 1"
       inkscape:vp_x="0 : 536.18109 : 1"
       inkscape:vp_y="0 : 1000 : 0"
       inkscape:vp_z="744.09448 : 536.18109 : 1"
       sodipodi:type="inkscape:persp3d" />
    <inkscape:perspective
       id="perspective3307"
       inkscape:persp3d-origin="372.04724 : 360.78739 : 1"
       inkscape:vp_x="0 : 536.18109 : 1"
       inkscape:vp_y="0 : 1000 : 0"
       inkscape:vp_z="744.09448 : 536.18109 : 1"
       sodipodi:type="inkscape:persp3d" />
    <inkscape:perspective
       id="perspective3305"
       inkscape:persp3d-origin="372.04724 : 360.78739 : 1"
       inkscape:vp_x="0 : 536.18109 : 1"
       inkscape:vp_y="0 : 1000 : 0"
       inkscape:vp_z="744.09448 : 536.18109 : 1"
       sodipodi:type="inkscape:persp3d" />
    <inkscape:perspective
       id="perspective182"
       inkscape:persp3d-origin="372.04724 : 360.78739 : 1"
       inkscape:vp_x="0 : 536.18109 : 1"
       inkscape:vp_y="0 : 1000 : 0"
       inkscape:vp_z="744.09448 : 536.18109 : 1"
       sodipodi:type="inkscape:persp3d" />
  </defs>
  <sodipodi:namedview
     bordercolor="#666666"
     borderopacity="1.0"
     gridtolerance="10.0"
     guidetolerance="10.0"
     id="base"
     inkscape:current-layer="g3494"
     inkscape:cx="71.771339"
     inkscape:cy="140.89103"
     inkscape:guide-bbox="true"
     inkscape:pageopacity="0.0"
     inkscape:pageshadow="2"
     inkscape:window-height="1009"
     inkscape:window-width="1920"
     inkscape:zoom="2.8284271"
     objecttolerance="10.0"
     pagecolor="#ffffff"
     showgrid="false"
     showguides="false"
     inkscape:showpageshadow="2"
     inkscape:pagecheckerboard="0"
     inkscape:deskcolor="#d1d1d1"
     inkscape:window-x="1912"
     inkscape:window-y="-8"
     inkscape:window-maximized="1" />
  <g
     id="g3494"
     transform="translate(4.9999998,4.9999998)"
     inkscape:label="sign_5_93_1">
    <path
       d="m 20,1.121968e-4 h 150 c 11.08,0 20,8.9200000032 20,19.9999998032 V 170.00011 c 0,11.08 -8.92,20 -20,20 H 20 c -11.08,0 -20,-8.92 -20,-20 V 20.000112 C 0,8.9201122 8.92,1.121968e-4 20,1.121968e-4 Z"
       id="rect2410"
       style="fill:#ffffff;fill-opacity:1;fill-rule:nonzero;stroke:#000000;stroke-width:2.01052631;stroke-linecap:round;stroke-linejoin:miter;stroke-miterlimit:4;stroke-opacity:1;stroke-dasharray:none"
       transform="matrix(0.9947644,0,0,0.9947644,0.4973822,0.4973822)"
       inkscape:label="bg" />
    <path
       d="M 24.736843,6.0001121 H 165.26316 C 175.64337,6.0001121 184,14.356744 184,24.736955 V 165.26327 c 0,10.38021 -8.35663,18.73684 -18.73684,18.73684 H 24.736843 C 14.356632,184.00011 6,175.64348 6,165.26327 V 24.736955 C 6,14.356744 14.356632,6.0001121 24.736843,6.0001121 Z"
       id="rect3347"
       style="fill:#0000ff;fill-opacity:1;fill-rule:nonzero;stroke:none;stroke-width:1.8;stroke-linecap:round;stroke-linejoin:miter;stroke-miterlimit:4;stroke-opacity:1"
       transform="matrix(0.9947644,0,0,0.9947644,0.4973822,0.4973822)"
       inkscape:label="blue" />
    <g
       id="g3404"
       transform="translate(-1.9626905e-6)"
       inkscape:label="sign">
      <path
         d="m 164.93199,164.89454 -135.144589,-1e-5 c -11.19212,1e-5 -15.01916,-6.98077 -9.42308,-17.18839 L 87.936601,24.449412 c 5.48493,-10.004926 13.361249,-10.004926 18.846189,0 l 67.57228,123.256738 c 5.5558,10.13416 1.68849,17.18839 -9.42308,17.18839 z"
         id="path3317"
         inkscape:transform-center-y="-8.5380042"
         sodipodi:nodetypes="czzzzss"
         style="display:inline;fill:#ffffff;fill-opacity:1;fill-rule:nonzero;stroke:none;stroke-width:8.3;stroke-linecap:round;stroke-linejoin:miter;stroke-miterlimit:4;stroke-opacity:1"
         inkscape:label="bg" />
      <path
         id="path1-7"
         style="display:inline;fill:#000000;fill-rule:evenodd;stroke-width:0.978962"
         inkscape:label="line"
         d="M 50.628906 133.72266 L 48.005859 141.31055 L 60.359375 141.31055 L 62.439453 133.72266 L 50.628906 133.72266 z M 76.261719 133.72266 L 74.615234 141.31055 L 86.96875 141.31055 L 88.072266 133.72266 L 76.261719 133.72266 z M 120.26953 133.72266 L 121.375 141.31055 L 133.72656 141.31055 L 132.08203 133.72266 L 120.26953 133.72266 z M 141.66016 133.72266 L 143.74219 141.31055 L 156.09375 141.31055 L 153.47266 133.72266 L 141.66016 133.72266 z M 99.746094 134.65625 L 99.068359 141.77539 L 109.61328 141.77539 L 108.64258 134.65625 L 99.746094 134.65625 z M 45.923828 147.33984 L 40.189453 163.93359 L 54.154297 163.93359 L 58.705078 147.33984 L 45.923828 147.33984 z M 73.308594 147.33984 L 69.712891 163.93359 L 83.675781 163.93359 L 86.089844 147.33984 L 73.308594 147.33984 z M 122.25195 147.33984 L 124.66797 163.93359 L 138.63086 163.93359 L 135.03516 147.33984 L 122.25195 147.33984 z M 145.39648 147.33984 L 149.94727 163.93359 L 163.91016 163.93359 L 158.17773 147.33984 L 145.39648 147.33984 z M 98.529297 147.43164 L 97.044922 163 L 112.51367 163 L 110.38672 147.43164 L 98.529297 147.43164 z "
         transform="translate(-4.9999978,-4.9999998)" />
      <path
         id="_146971400-8"
         style="fill:#000000;fill-rule:evenodd;stroke-width:0.577926"
         d="m 122.13031,76.928932 c -3.095,0 -5.6201,2.719027 -5.6201,6.053547 0,3.333725 2.5251,6.052421 5.6201,6.052421 3.09574,0 5.62011,-2.718696 5.62011,-6.052421 0,-3.33452 -2.52437,-6.053547 -5.62011,-6.053547 z m 5.31872,12.697435 c -1.3352,0 -8.31204,3.994895 -7.84375,9.650912 -0.0429,6.720001 0.31507,11.126401 0.19639,14.099351 -1.99735,1.80544 -3.99376,3.61005 -5.99033,5.41467 -1.44068,1.28458 -2.3777,2.69638 -3.0849,4.16174 -0.39979,2.03799 -5.19436,12.8707 -5.59414,14.90869 -2.13515,5.37967 3.68582,7.95898 6.38879,1.90873 1.70667,-4.45982 3.19822,-8.45891 6.12579,-15.17732 3.14576,-2.99286 6.22327,-5.9879 9.36984,-8.98156 2.22195,-2.04117 2.27227,-2.8475 2.27784,-5.91921 l -0.55648,-12.716636 c 3.64193,2.245047 5.16689,3.357546 7.32114,4.643726 0.0692,0.54155 0.73778,8.73718 0.79353,9.21182 0.46032,4.93927 5.35703,4.16907 5.22166,-0.14899 -0.11868,-4.06642 -0.61772,-11.76967 -1.06669,-12.547317 -0.4386,-0.759672 -12.18738,-8.508606 -13.55869,-8.508606 z m -9.49062,12.970603 c -3.22381,2.7181 -4.19509,3.38345 -7.60447,6.26801 -4.19383,3.08286 -0.98815,7.74584 3.4924,4.26558 l 4.51391,-3.40998 c -0.14336,-1.47732 -0.25928,-5.6463 -0.40184,-7.12361 z m 12.12515,12.79789 c -1.81418,1.80145 -2.825,2.52363 -4.63921,4.32429 3.69052,5.97218 9.3704,14.40274 13.0609,20.37413 3.24294,4.49567 7.87305,0.0854 4.92479,-3.84569 -3.82032,-6.14261 -9.27449,-14.70135 -13.34648,-20.85273 z"
         inkscape:label="man2"
         sodipodi:nodetypes="sssssscccccccccccccsscccccccccc" />
      <path
         class="fil2 str0"
         d="m 87.480326,115.2693 3.127376,5.39545 h -6.215895 c 0.234423,-2.18965 1.407284,-4.14422 3.088519,-5.39545 z m -7.663359,-13.84067 h 7.663359 c 0.468871,0 0.781689,0.43005 0.781689,0.86006 v 1.44684 c 0,0.74284 -1.251219,1.83734 -2.306847,1.56404 l -0.977263,-0.23445 -0.273298,0.7817 3.674624,6.2944 c 1.133986,-0.43005 2.3852,-0.70335 3.714132,-0.70335 5.552085,0 10.009067,4.45705 10.009067,10.00858 0,5.55221 -4.456982,10.00925 -10.009067,10.00925 -5.04307,0 -9.187218,-3.63584 -9.930051,-8.48406 H 78.05802 l -12.393601,-10.1653 -0.15673,0.43002 c 2.58078,1.83736 4.300883,4.80872 4.300883,8.21009 0,5.55221 -4.456966,10.00925 -10.009051,10.00925 -5.551462,0 -10.00841,-4.45704 -10.00841,-10.00925 0,-5.55153 4.456948,-10.00858 10.00841,-10.00858 1.329573,0 2.580775,0.2733 3.753636,0.74285 l 2.618989,-7.23348 c 0.235088,-0.54725 -0.07772,-1.17286 -0.507727,-1.25057 -0.977916,-0.27395 -2.541289,-1.13401 -2.541289,-2.6197 0,-1.329591 1.368428,-2.15079 2.345703,-2.424103 l 4.418098,-0.03884 c 0.860042,0 1.094484,1.094512 1.094484,1.094512 0,0.312801 -0.351656,1.290091 -1.094484,1.251241 l -2.189621,0.0389 c -0.625601,0 -0.781689,0.11722 -0.781689,0.58676 0,0.54724 0.664474,0.46889 1.172848,0.82055 0.82054,0.5479 0.703331,1.29074 0.664475,2.03358 l -0.586763,1.60291 h 14.035986 l 0.547248,-1.52519 -2.932448,-0.7817 c -0.194933,-0.0783 -0.781678,-0.35167 -0.781678,-0.86006 l -0.03882,-0.43004 c 0,-0.5084 0.351651,-1.01679 0.820529,-1.01679 z m 3.870862,7.27232 2.619654,4.57427 c -2.34571,1.64241 -3.988082,4.33981 -4.22253,7.38953 H 79.34809 Z m 9.343936,11.4554 -3.479692,-5.98156 c 0.782325,-0.27395 1.642392,-0.43003 2.54129,-0.43003 4.262023,0 7.702205,3.44026 7.702205,7.70169 0,4.26211 -3.440182,7.70237 -7.702205,7.70237 -3.752995,0 -6.881029,-2.61969 -7.584347,-6.17718 l 7.623843,-0.0394 c 0.86005,0 1.485659,-0.62565 1.485659,-1.4857 0,-0.54726 -0.195578,-1.01613 -0.586753,-1.2901 z m -15.756075,-0.6256 -10.751229,-9.03129 0.781672,-2.15017 h 14.035993 z m -12.589187,-3.9875 -1.641733,4.53475 -1.759606,1.68126 c -0.15607,0.70399 -0.742827,1.21238 -1.485643,1.21238 -0.860042,0 -1.524523,-0.66512 -1.524523,-1.52519 0,-0.82056 0.586104,-1.44616 1.40729,-1.48567 l 1.602876,-1.40731 1.485668,-4.1831 c -0.898923,-0.39117 -1.915677,-0.62561 -2.971311,-0.62561 -4.26138,0 -7.702221,3.44026 -7.702221,7.70169 0,4.26211 3.440841,7.70237 7.702221,7.70237 4.261362,0 7.702203,-3.44026 7.702203,-7.70237 0,-2.38458 -1.09449,-4.49588 -2.815221,-5.9032 z"
         id="_143707696"
         style="display:inline;fill:#000000;fill-opacity:1;fill-rule:evenodd;stroke:#000000;stroke-width:0.00684008"
         inkscape:label="sign" />
      <path
         id="_146971400"
         style="display:inline;fill:#000000;fill-opacity:1;fill-rule:evenodd;stroke-width:0.377821"
         inkscape:label="man"
         d="m 72.094522,79.479599 c -0.489782,0.01743 -0.978929,0.133097 -1.437791,0.356758 -1.835018,0.894437 -2.522464,3.189326 -1.530213,5.109382 0.992009,1.919595 3.29845,2.755491 5.133465,1.861055 1.835449,-0.894648 2.522223,-3.189786 1.530212,-5.109381 -0.744187,-1.440041 -2.226328,-2.270083 -3.695673,-2.217814 z m 5.034023,6.886359 c -0.337195,0.03258 -0.634662,0.196151 -0.811902,0.521505 -0.912958,1.675896 -1.749668,4.567593 -0.506561,6.546643 1.974173,3.881884 2.650904,5.595814 3.465207,7.341964 -0.646984,1.61681 -4.363872,5.23841 -5.010626,6.85454 -0.471931,1.15603 -0.502252,1.00606 -0.485505,2.05421 0.369406,1.28903 1.779983,8.66924 1.966581,9.99494 0.52003,3.69457 4.554433,3.51846 4.356655,-0.74647 -0.31522,-3.06124 -1.679731,-4.3555 -1.943176,-9.07009 0.974532,-2.63243 5.983705,-5.91547 6.958483,-8.54858 0.709998,-1.817459 0.44747,-2.912977 -0.463271,-4.683316 L 80.539933,89.46999 78.769899,87.154464 C 78.362447,86.621638 77.690538,86.31166 77.128545,86.365958 Z m -1.994657,7.141999 c -1.084571,2.456032 -1.47555,3.157513 -2.594808,5.697921 l -2.029753,-0.906669 a 1.7862815,1.7348081 0 0 0 -2.239169,0.621489 1.4947341,1.4516619 0 0 0 1.219025,1.856512 l 3.169227,1.41681 c 0.802264,0.68077 2.25348,0.43576 3.17156,-1.43272 l 1.66124,-3.26764 c -0.524599,-0.80923 -1.833197,-3.176244 -2.357322,-3.985703 z" />
    </g>
  </g>
</svg>
