<?xml version="1.0" encoding="UTF-8" standalone="no"?>
<!-- Created with Inkscape (http://www.inkscape.org/) -->

<svg
   height="200"
   id="svg2"
   inkscape:output_extension="org.inkscape.output.svg.inkscape"
   inkscape:version="1.3 (0e150ed6c4, 2023-07-21)"
   sodipodi:docname="5.93.2.svg"
   sodipodi:version="0.32"
   version="1.0"
   width="200"
   xmlns:inkscape="http://www.inkscape.org/namespaces/inkscape"
   xmlns:sodipodi="http://sodipodi.sourceforge.net/DTD/sodipodi-0.dtd"
   xmlns="http://www.w3.org/2000/svg"
   xmlns:svg="http://www.w3.org/2000/svg"
   xmlns:rdf="http://www.w3.org/1999/02/22-rdf-syntax-ns#"
   xmlns:cc="http://creativecommons.org/ns#"
   xmlns:dc="http://purl.org/dc/elements/1.1/">
  <title
     id="title1">Інформаційно-вказівні знаки » Дорожні знаки » ПДР Тест Центр</title>
  <metadata
     id="metadata7">
    <rdf:RDF>
      <cc:Work
         rdf:about="">
        <dc:format>&#10;					image/svg+xml&#10;				</dc:format>
        <dc:type
           rdf:resource="http://purl.org/dc/dcmitype/StillImage" />
        <cc:license
           rdf:resource="http://creativecommons.org/licenses/by-nc-sa/4.0/" />
        <dc:creator>
          <cc:Agent>
            <dc:title>ПДР Тест Центр | PDR Test Center</dc:title>
          </cc:Agent>
        </dc:creator>
        <dc:rights>
          <cc:Agent>
            <dc:title>ПДР Тест Центр | PDR Test Center</dc:title>
          </cc:Agent>
        </dc:rights>
        <dc:language>uk-UA</dc:language>
        <dc:date>2023-09-01</dc:date>
        <dc:title>Інформаційно-вказівні знаки » Дорожні знаки » ПДР Тест Центр</dc:title>
        <dc:publisher>
          <cc:Agent>
            <dc:title>https://pdrtest.com/</dc:title>
          </cc:Agent>
        </dc:publisher>
        <dc:source>https://pdrtest.com/driver/rules/section/33.5</dc:source>
      </cc:Work>
      <cc:License
         rdf:about="http://creativecommons.org/licenses/by-nc-sa/4.0/">
        <cc:permits
           rdf:resource="http://creativecommons.org/ns#Reproduction" />
        <cc:permits
           rdf:resource="http://creativecommons.org/ns#Distribution" />
        <cc:requires
           rdf:resource="http://creativecommons.org/ns#Notice" />
        <cc:requires
           rdf:resource="http://creativecommons.org/ns#Attribution" />
        <cc:prohibits
           rdf:resource="http://creativecommons.org/ns#CommercialUse" />
        <cc:permits
           rdf:resource="http://creativecommons.org/ns#DerivativeWorks" />
        <cc:requires
           rdf:resource="http://creativecommons.org/ns#ShareAlike" />
      </cc:License>
    </rdf:RDF>
  </metadata>
  <defs
     id="defs5">
    <inkscape:path-effect
       effect="fillet_chamfer"
       id="path-effect4"
       is_visible="true"
       lpeversion="1"
       nodesatellites_param="F,0,0,1,0,2.5630439,0,1 @ F,0,0,1,0,3.493936,0,1 @ F,0,0,1,0,0,0,1 @ F,0,0,1,0,0,0,1"
       radius="0"
       unit="px"
       method="auto"
       mode="F"
       chamfer_steps="1"
       flexible="false"
       use_knot_distance="true"
       apply_no_radius="true"
       apply_with_radius="true"
       only_selected="false"
       hide_knots="false" />
    <inkscape:path-effect
       effect="fillet_chamfer"
       id="path-effect3"
       is_visible="true"
       lpeversion="1"
       nodesatellites_param="F,0,0,1,0,0,0,1 @ F,0,0,1,0,0,0,1 @ F,0,0,1,0,0,0,1 @ F,0,0,1,0,0,0,1 | F,0,0,1,0,4.1785577,0,1 @ F,0,0,1,0,0,0,1 @ F,0,0,1,0,0,0,1 @ F,0,0,1,0,0,0,1 @ F,0,0,1,0,0,0,1 @ F,0,0,1,0,0,0,1 @ F,0,0,1,0,0,0,1 @ F,0,0,1,0,0,0,1 @ F,0,0,1,0,0,0,1 @ F,0,0,1,0,0,0,1 @ F,0,0,1,0,0,0,1 | F,0,0,1,0,0,0,1 @ F,0,0,1,0,0,0,1 @ F,0,0,1,0,0,0,1 @ F,0,0,1,0,0,0,1"
       radius="0"
       unit="px"
       method="auto"
       mode="F"
       chamfer_steps="1"
       flexible="false"
       use_knot_distance="true"
       apply_no_radius="true"
       apply_with_radius="true"
       only_selected="false"
       hide_knots="false" />
    <inkscape:perspective
       id="perspective9"
       inkscape:persp3d-origin="372.04724 : 360.78739 : 1"
       inkscape:vp_x="0 : 536.18109 : 1"
       inkscape:vp_y="0 : 1000 : 0"
       inkscape:vp_z="744.09448 : 536.18109 : 1"
       sodipodi:type="inkscape:persp3d" />
    <inkscape:perspective
       id="perspective2411"
       inkscape:persp3d-origin="372.04724 : 360.78739 : 1"
       inkscape:vp_x="0 : 536.18109 : 1"
       inkscape:vp_y="0 : 1000 : 0"
       inkscape:vp_z="744.09448 : 536.18109 : 1"
       sodipodi:type="inkscape:persp3d" />
    <inkscape:perspective
       id="perspective109"
       inkscape:persp3d-origin="372.04724 : 360.78739 : 1"
       inkscape:vp_x="0 : 536.18109 : 1"
       inkscape:vp_y="0 : 1000 : 0"
       inkscape:vp_z="744.09448 : 536.18109 : 1"
       sodipodi:type="inkscape:persp3d" />
    <inkscape:perspective
       id="perspective118"
       inkscape:persp3d-origin="372.04724 : 360.78739 : 1"
       inkscape:vp_x="0 : 536.18109 : 1"
       inkscape:vp_y="0 : 1000 : 0"
       inkscape:vp_z="744.09448 : 536.18109 : 1"
       sodipodi:type="inkscape:persp3d" />
    <inkscape:perspective
       id="perspective3489"
       inkscape:persp3d-origin="372.04724 : 360.78739 : 1"
       inkscape:vp_x="0 : 536.18109 : 1"
       inkscape:vp_y="0 : 1000 : 0"
       inkscape:vp_z="744.09448 : 536.18109 : 1"
       sodipodi:type="inkscape:persp3d" />
    <inkscape:perspective
       id="perspective3491"
       inkscape:persp3d-origin="372.04724 : 360.78739 : 1"
       inkscape:vp_x="0 : 536.18109 : 1"
       inkscape:vp_y="0 : 1000 : 0"
       inkscape:vp_z="744.09448 : 536.18109 : 1"
       sodipodi:type="inkscape:persp3d" />
    <inkscape:perspective
       id="perspective3493"
       inkscape:persp3d-origin="372.04724 : 360.78739 : 1"
       inkscape:vp_x="0 : 536.18109 : 1"
       inkscape:vp_y="0 : 1000 : 0"
       inkscape:vp_z="744.09448 : 536.18109 : 1"
       sodipodi:type="inkscape:persp3d" />
    <inkscape:perspective
       id="perspective3495"
       inkscape:persp3d-origin="372.04724 : 360.78739 : 1"
       inkscape:vp_x="0 : 536.18109 : 1"
       inkscape:vp_y="0 : 1000 : 0"
       inkscape:vp_z="744.09448 : 536.18109 : 1"
       sodipodi:type="inkscape:persp3d" />
    <inkscape:perspective
       id="perspective3497"
       inkscape:persp3d-origin="372.04724 : 360.78739 : 1"
       inkscape:vp_x="0 : 536.18109 : 1"
       inkscape:vp_y="0 : 1000 : 0"
       inkscape:vp_z="744.09448 : 536.18109 : 1"
       sodipodi:type="inkscape:persp3d" />
    <inkscape:perspective
       id="perspective3499"
       inkscape:persp3d-origin="372.04724 : 360.78739 : 1"
       inkscape:vp_x="0 : 536.18109 : 1"
       inkscape:vp_y="0 : 1000 : 0"
       inkscape:vp_z="744.09448 : 536.18109 : 1"
       sodipodi:type="inkscape:persp3d" />
    <inkscape:perspective
       id="perspective3501"
       inkscape:persp3d-origin="372.04724 : 360.78739 : 1"
       inkscape:vp_x="0 : 536.18109 : 1"
       inkscape:vp_y="0 : 1000 : 0"
       inkscape:vp_z="744.09448 : 536.18109 : 1"
       sodipodi:type="inkscape:persp3d" />
    <inkscape:perspective
       id="perspective3306"
       inkscape:persp3d-origin="372.04724 : 360.78739 : 1"
       inkscape:vp_x="0 : 536.18109 : 1"
       inkscape:vp_y="0 : 1000 : 0"
       inkscape:vp_z="744.09448 : 536.18109 : 1"
       sodipodi:type="inkscape:persp3d" />
    <inkscape:perspective
       id="perspective2426"
       inkscape:persp3d-origin="372.04724 : 360.78739 : 1"
       inkscape:vp_x="0 : 536.18109 : 1"
       inkscape:vp_y="0 : 1000 : 0"
       inkscape:vp_z="744.09448 : 536.18109 : 1"
       sodipodi:type="inkscape:persp3d" />
    <inkscape:perspective
       id="perspective2573"
       inkscape:persp3d-origin="372.04724 : 360.78739 : 1"
       inkscape:vp_x="0 : 536.18109 : 1"
       inkscape:vp_y="0 : 1000 : 0"
       inkscape:vp_z="744.09448 : 536.18109 : 1"
       sodipodi:type="inkscape:persp3d" />
    <inkscape:perspective
       id="perspective179"
       inkscape:persp3d-origin="372.04724 : 360.78739 : 1"
       inkscape:vp_x="0 : 536.18109 : 1"
       inkscape:vp_y="0 : 1000 : 0"
       inkscape:vp_z="744.09448 : 536.18109 : 1"
       sodipodi:type="inkscape:persp3d" />
    <inkscape:perspective
       id="perspective3311"
       inkscape:persp3d-origin="372.04724 : 360.78739 : 1"
       inkscape:vp_x="0 : 536.18109 : 1"
       inkscape:vp_y="0 : 1000 : 0"
       inkscape:vp_z="744.09448 : 536.18109 : 1"
       sodipodi:type="inkscape:persp3d" />
    <inkscape:perspective
       id="perspective3309"
       inkscape:persp3d-origin="372.04724 : 360.78739 : 1"
       inkscape:vp_x="0 : 536.18109 : 1"
       inkscape:vp_y="0 : 1000 : 0"
       inkscape:vp_z="744.09448 : 536.18109 : 1"
       sodipodi:type="inkscape:persp3d" />
    <inkscape:perspective
       id="perspective3307"
       inkscape:persp3d-origin="372.04724 : 360.78739 : 1"
       inkscape:vp_x="0 : 536.18109 : 1"
       inkscape:vp_y="0 : 1000 : 0"
       inkscape:vp_z="744.09448 : 536.18109 : 1"
       sodipodi:type="inkscape:persp3d" />
    <inkscape:perspective
       id="perspective3305"
       inkscape:persp3d-origin="372.04724 : 360.78739 : 1"
       inkscape:vp_x="0 : 536.18109 : 1"
       inkscape:vp_y="0 : 1000 : 0"
       inkscape:vp_z="744.09448 : 536.18109 : 1"
       sodipodi:type="inkscape:persp3d" />
    <inkscape:perspective
       id="perspective182"
       inkscape:persp3d-origin="372.04724 : 360.78739 : 1"
       inkscape:vp_x="0 : 536.18109 : 1"
       inkscape:vp_y="0 : 1000 : 0"
       inkscape:vp_z="744.09448 : 536.18109 : 1"
       sodipodi:type="inkscape:persp3d" />
  </defs>
  <sodipodi:namedview
     bordercolor="#666666"
     borderopacity="1.0"
     gridtolerance="10.0"
     guidetolerance="10.0"
     id="base"
     inkscape:current-layer="svg2"
     inkscape:cx="71.771339"
     inkscape:cy="140.89103"
     inkscape:guide-bbox="true"
     inkscape:pageopacity="0.0"
     inkscape:pageshadow="2"
     inkscape:window-height="1009"
     inkscape:window-width="1920"
     inkscape:zoom="2.8284271"
     objecttolerance="10.0"
     pagecolor="#ffffff"
     showgrid="false"
     showguides="false"
     inkscape:showpageshadow="2"
     inkscape:pagecheckerboard="0"
     inkscape:deskcolor="#d1d1d1"
     inkscape:window-x="1912"
     inkscape:window-y="-8"
     inkscape:window-maximized="1" />
  <g
     id="g3494"
     transform="translate(4.9999998,4.9999998)"
     inkscape:label="sign_5_93_2">
    <path
       d="m 20,1.121968e-4 h 150 c 11.08,0 20,8.9200000032 20,19.9999998032 V 170.00011 c 0,11.08 -8.92,20 -20,20 H 20 c -11.08,0 -20,-8.92 -20,-20 V 20.000112 C 0,8.9201122 8.92,1.121968e-4 20,1.121968e-4 Z"
       id="rect2410"
       style="fill:#ffffff;fill-opacity:1;fill-rule:nonzero;stroke:#000000;stroke-width:2.01052631;stroke-linecap:round;stroke-linejoin:miter;stroke-miterlimit:4;stroke-opacity:1;stroke-dasharray:none"
       transform="matrix(0.9947644,0,0,0.9947644,0.4973822,0.4973822)"
       inkscape:label="bg" />
    <path
       d="M 24.736843,6.0001121 H 165.26316 C 175.64337,6.0001121 184,14.356744 184,24.736955 V 165.26327 c 0,10.38021 -8.35663,18.73684 -18.73684,18.73684 H 24.736843 C 14.356632,184.00011 6,175.64348 6,165.26327 V 24.736955 C 6,14.356744 14.356632,6.0001121 24.736843,6.0001121 Z"
       id="rect3347"
       style="fill:#0000ff;fill-opacity:1;fill-rule:nonzero;stroke:none;stroke-width:1.8;stroke-linecap:round;stroke-linejoin:miter;stroke-miterlimit:4;stroke-opacity:1"
       transform="matrix(0.9947644,0,0,0.9947644,0.4973822,0.4973822)"
       inkscape:label="blue" />
    <g
       id="g3404"
       transform="translate(-1.9626905e-6)"
       inkscape:label="sign">
      <path
         d="m 164.93199,164.89454 -135.144589,-1e-5 c -11.19212,1e-5 -15.01916,-6.98077 -9.42308,-17.18839 L 87.936601,24.449412 c 5.48493,-10.004926 13.361249,-10.004926 18.846189,0 l 67.57228,123.256738 c 5.5558,10.13416 1.68849,17.18839 -9.42308,17.18839 z"
         id="path3317"
         inkscape:transform-center-y="-8.5380042"
         sodipodi:nodetypes="czzzzss"
         style="display:inline;fill:#ffffff;fill-opacity:1;fill-rule:nonzero;stroke:none;stroke-width:8.3;stroke-linecap:round;stroke-linejoin:miter;stroke-miterlimit:4;stroke-opacity:1"
         inkscape:label="bg" />
      <path
         id="path1-7"
         style="display:inline;fill:#000000;fill-rule:evenodd;stroke-width:0.978962"
         inkscape:label="line"
         d="M 50.628906 133.72266 L 48.005859 141.31055 L 60.359375 141.31055 L 62.439453 133.72266 L 50.628906 133.72266 z M 76.261719 133.72266 L 74.615234 141.31055 L 86.96875 141.31055 L 88.072266 133.72266 L 76.261719 133.72266 z M 120.26953 133.72266 L 121.375 141.31055 L 133.72656 141.31055 L 132.08203 133.72266 L 120.26953 133.72266 z M 141.66016 133.72266 L 143.74219 141.31055 L 156.09375 141.31055 L 153.47266 133.72266 L 141.66016 133.72266 z M 99.746094 134.65625 L 99.068359 141.77539 L 109.61328 141.77539 L 108.64258 134.65625 L 99.746094 134.65625 z M 45.923828 147.33984 L 40.189453 163.93359 L 54.154297 163.93359 L 58.705078 147.33984 L 45.923828 147.33984 z M 73.308594 147.33984 L 69.712891 163.93359 L 83.675781 163.93359 L 86.089844 147.33984 L 73.308594 147.33984 z M 122.25195 147.33984 L 124.66797 163.93359 L 138.63086 163.93359 L 135.03516 147.33984 L 122.25195 147.33984 z M 145.39648 147.33984 L 149.94727 163.93359 L 163.91016 163.93359 L 158.17773 147.33984 L 145.39648 147.33984 z M 98.529297 147.43164 L 97.044922 163 L 112.51367 163 L 110.38672 147.43164 L 98.529297 147.43164 z "
         transform="translate(-4.9999978,-4.9999998)" />
      <path
         id="_146971400-8"
         style="fill:#000000;fill-rule:evenodd;stroke-width:0.577926"
         d="m 72.028664,76.928932 c 3.095,0 5.6201,2.719027 5.6201,6.053547 0,3.333725 -2.5251,6.052421 -5.6201,6.052421 -3.09574,0 -5.62011,-2.718696 -5.62011,-6.052421 0,-3.33452 2.52437,-6.053547 5.62011,-6.053547 z m -5.31872,12.697435 c 1.3352,0 8.31204,3.994895 7.84375,9.650912 0.0429,6.720001 -0.31507,11.126401 -0.19639,14.099351 1.99735,1.80544 3.99376,3.61005 5.99033,5.41467 1.44068,1.28458 2.3777,2.69638 3.0849,4.16174 0.39979,2.03799 5.19436,12.8707 5.59414,14.90869 2.13515,5.37967 -3.68582,7.95898 -6.38879,1.90873 -1.70667,-4.45982 -3.19822,-8.45891 -6.12579,-15.17732 -3.14576,-2.99286 -6.22327,-5.9879 -9.36984,-8.98156 -2.22195,-2.04117 -2.27227,-2.8475 -2.27784,-5.91921 l 0.55648,-12.716636 c -3.64193,2.245047 -5.16689,3.357546 -7.32114,4.643726 -0.0692,0.54155 -0.73778,8.73718 -0.79353,9.21182 -0.46032,4.93927 -5.35703,4.16907 -5.22166,-0.14899 0.11868,-4.06642 0.61772,-11.76967 1.06669,-12.547317 0.4386,-0.759672 12.18738,-8.508606 13.55869,-8.508606 z m 9.49062,12.970603 c 3.22381,2.7181 4.19509,3.38345 7.60447,6.26801 4.19383,3.08286 0.98815,7.74584 -3.4924,4.26558 l -4.51391,-3.40998 c 0.14336,-1.47732 0.25928,-5.6463 0.40184,-7.12361 z m -12.12515,12.79789 c 1.81418,1.80145 2.825,2.52363 4.63921,4.32429 -3.69052,5.97218 -9.3704,14.40274 -13.0609,20.37413 -3.24294,4.49567 -7.87305,0.0854 -4.92479,-3.84569 3.82032,-6.14261 9.27449,-14.70135 13.34648,-20.85273 z"
         inkscape:label="man2"
         sodipodi:nodetypes="sssssscccccccccccccsscccccccccc" />
      <path
         class="fil2 str0"
         d="m 106.67865,115.2693 -3.12738,5.39545 h 6.2159 c -0.23443,-2.18965 -1.40729,-4.14422 -3.08852,-5.39545 z m 7.66336,-13.84067 h -7.66336 c -0.46887,0 -0.78169,0.43005 -0.78169,0.86006 v 1.44684 c 0,0.74284 1.25122,1.83734 2.30685,1.56404 l 0.97726,-0.23445 0.2733,0.7817 -3.67463,6.2944 c -1.13398,-0.43005 -2.3852,-0.70335 -3.71413,-0.70335 -5.552084,0 -10.009066,4.45705 -10.009066,10.00858 0,5.55221 4.456982,10.00925 10.009066,10.00925 5.04307,0 9.18722,-3.63584 9.93005,-8.48406 h 4.10529 l 12.3936,-10.1653 0.15673,0.43002 c -2.58078,1.83736 -4.30088,4.80872 -4.30088,8.21009 0,5.55221 4.45697,10.00925 10.00905,10.00925 5.55146,0 10.00841,-4.45704 10.00841,-10.00925 0,-5.55153 -4.45695,-10.00858 -10.00841,-10.00858 -1.32957,0 -2.58077,0.2733 -3.75363,0.74285 l -2.61899,-7.23348 c -0.23509,-0.54725 0.0777,-1.17286 0.50772,-1.25057 0.97792,-0.27395 2.54129,-1.13401 2.54129,-2.6197 0,-1.329591 -1.36842,-2.15079 -2.3457,-2.424103 l -4.4181,-0.03884 c -0.86004,0 -1.09448,1.094512 -1.09448,1.094512 0,0.312801 0.35165,1.290091 1.09448,1.251241 l 2.18962,0.0389 c 0.6256,0 0.78169,0.11722 0.78169,0.58676 0,0.54724 -0.66447,0.46889 -1.17285,0.82055 -0.82054,0.5479 -0.70333,1.29074 -0.66447,2.03358 l 0.58676,1.60291 h -14.03598 l -0.54725,-1.52519 2.93245,-0.7817 c 0.19493,-0.0783 0.78167,-0.35167 0.78167,-0.86006 l 0.0388,-0.43004 c 0,-0.5084 -0.35165,-1.01679 -0.82052,-1.01679 z m -3.87087,7.27232 -2.61965,4.57427 c 2.34571,1.64241 3.98808,4.33981 4.22253,7.38953 h 2.73686 z m -9.34393,11.4554 3.47969,-5.98156 c -0.78232,-0.27395 -1.64239,-0.43003 -2.54129,-0.43003 -4.262022,0 -7.702204,3.44026 -7.702204,7.70169 0,4.26211 3.440182,7.70237 7.702204,7.70237 3.753,0 6.88103,-2.61969 7.58435,-6.17718 l -7.62385,-0.0394 c -0.86005,0 -1.48565,-0.62565 -1.48565,-1.4857 0,-0.54726 0.19557,-1.01613 0.58675,-1.2901 z m 15.75607,-0.6256 10.75123,-9.03129 -0.78167,-2.15017 h -14.03599 z m 12.58919,-3.9875 1.64173,4.53475 1.75961,1.68126 c 0.15607,0.70399 0.74283,1.21238 1.48564,1.21238 0.86004,0 1.52453,-0.66512 1.52453,-1.52519 0,-0.82056 -0.58611,-1.44616 -1.40729,-1.48567 l -1.60288,-1.40731 -1.48567,-4.1831 c 0.89892,-0.39117 1.91568,-0.62561 2.97131,-0.62561 4.26138,0 7.70222,3.44026 7.70222,7.70169 0,4.26211 -3.44084,7.70237 -7.70222,7.70237 -4.26136,0 -7.7022,-3.44026 -7.7022,-7.70237 0,-2.38458 1.09449,-4.49588 2.81522,-5.9032 z"
         id="_143707696"
         style="display:inline;fill:#000000;fill-opacity:1;fill-rule:evenodd;stroke:#000000;stroke-width:0.00684008"
         inkscape:label="sign" />
      <path
         id="_146971400"
         style="display:inline;fill:#000000;fill-opacity:1;fill-rule:evenodd;stroke-width:0.377821"
         inkscape:label="man"
         d="m 122.06445,79.479599 c 0.48978,0.01743 0.97893,0.133097 1.43779,0.356758 1.83502,0.894437 2.52247,3.189326 1.53022,5.109382 -0.99201,1.919595 -3.29845,2.755491 -5.13347,1.861055 -1.83545,-0.894648 -2.52222,-3.189786 -1.53021,-5.109381 0.74419,-1.440041 2.22633,-2.270083 3.69567,-2.217814 z m -5.03402,6.886359 c 0.33719,0.03258 0.63466,0.196151 0.8119,0.521505 0.91296,1.675896 1.74967,4.567593 0.50656,6.546643 -1.97417,3.881884 -2.6509,5.595814 -3.46521,7.341964 0.64699,1.61681 4.36388,5.23841 5.01063,6.85454 0.47193,1.15603 0.50225,1.00606 0.48551,2.05421 -0.36941,1.28903 -1.77999,8.66924 -1.96659,9.99494 -0.52003,3.69457 -4.55443,3.51846 -4.35665,-0.74647 0.31522,-3.06124 1.67973,-4.3555 1.94318,-9.07009 -0.97454,-2.63243 -5.98371,-5.91547 -6.95849,-8.54858 -0.71,-1.817459 -0.44747,-2.912977 0.46327,-4.683316 l 4.1145,-7.161314 1.77003,-2.315526 c 0.40746,-0.532826 1.07937,-0.842804 1.64136,-0.788506 z m 1.99466,7.141999 c 1.08457,2.456032 1.47555,3.157513 2.5948,5.697921 l 2.02976,-0.906669 a 1.7862815,1.7348081 0 0 1 2.23917,0.621489 1.4947341,1.4516619 0 0 1 -1.21903,1.856512 l -3.16923,1.41681 c -0.80226,0.68077 -2.25348,0.43576 -3.17156,-1.43272 l -1.66124,-3.26764 c 0.5246,-0.80923 1.8332,-3.176244 2.35733,-3.985703 z" />
    </g>
  </g>
</svg>
