<?xml version="1.0" encoding="UTF-8" standalone="no"?>
<!-- Created with Inkscape (http://www.inkscape.org/) -->

<svg
   height="280"
   id="svg2"
   inkscape:output_extension="org.inkscape.output.svg.inkscape"
   inkscape:version="1.3 (0e150ed6c4, 2023-07-21)"
   sodipodi:docname="5.96.2.svg"
   sodipodi:version="0.32"
   version="1.0"
   width="200"
   xml:space="preserve"
   xmlns:inkscape="http://www.inkscape.org/namespaces/inkscape"
   xmlns:sodipodi="http://sodipodi.sourceforge.net/DTD/sodipodi-0.dtd"
   xmlns="http://www.w3.org/2000/svg"
   xmlns:svg="http://www.w3.org/2000/svg"
   xmlns:rdf="http://www.w3.org/1999/02/22-rdf-syntax-ns#"
   xmlns:cc="http://creativecommons.org/ns#"
   xmlns:dc="http://purl.org/dc/elements/1.1/"><title
     id="title1">Інформаційно-вказівні знаки » Дорожні знаки » ПДР Тест Центр</title><metadata
     id="metadata7"><rdf:RDF><cc:Work
         rdf:about=""><dc:format>&#10;					image/svg+xml&#10;				</dc:format><dc:type
           rdf:resource="http://purl.org/dc/dcmitype/StillImage" /><cc:license
           rdf:resource="http://creativecommons.org/licenses/by-nc-sa/4.0/" /><dc:creator><cc:Agent><dc:title>ПДР Тест Центр | PDR Test Center</dc:title></cc:Agent></dc:creator><dc:rights><cc:Agent><dc:title>ПДР Тест Центр | PDR Test Center</dc:title></cc:Agent></dc:rights><dc:language>uk-UA</dc:language><dc:date>2023-09-01</dc:date><dc:title>Інформаційно-вказівні знаки » Дорожні знаки » ПДР Тест Центр</dc:title><dc:publisher><cc:Agent><dc:title>https://pdrtest.com/</dc:title></cc:Agent></dc:publisher><dc:source>https://pdrtest.com/driver/rules/section/33.5</dc:source></cc:Work><cc:License
         rdf:about="http://creativecommons.org/licenses/by-nc-sa/4.0/"><cc:permits
           rdf:resource="http://creativecommons.org/ns#Reproduction" /><cc:permits
           rdf:resource="http://creativecommons.org/ns#Distribution" /><cc:requires
           rdf:resource="http://creativecommons.org/ns#Notice" /><cc:requires
           rdf:resource="http://creativecommons.org/ns#Attribution" /><cc:prohibits
           rdf:resource="http://creativecommons.org/ns#CommercialUse" /><cc:permits
           rdf:resource="http://creativecommons.org/ns#DerivativeWorks" /><cc:requires
           rdf:resource="http://creativecommons.org/ns#ShareAlike" /></cc:License></rdf:RDF></metadata><defs
     id="defs5"><inkscape:perspective
       id="perspective9"
       inkscape:persp3d-origin="372.04724 : 361.15442 : 1"
       inkscape:vp_x="0 : 536.54812 : 1"
       inkscape:vp_y="0 : 1000 : 0"
       inkscape:vp_z="744.09448 : 536.54812 : 1"
       sodipodi:type="inkscape:persp3d" /><inkscape:perspective
       id="perspective2411"
       inkscape:persp3d-origin="372.04724 : 361.15442 : 1"
       inkscape:vp_x="0 : 536.54812 : 1"
       inkscape:vp_y="0 : 1000 : 0"
       inkscape:vp_z="744.09448 : 536.54812 : 1"
       sodipodi:type="inkscape:persp3d" /><inkscape:perspective
       id="perspective109"
       inkscape:persp3d-origin="372.04724 : 361.15442 : 1"
       inkscape:vp_x="0 : 536.54812 : 1"
       inkscape:vp_y="0 : 1000 : 0"
       inkscape:vp_z="744.09448 : 536.54812 : 1"
       sodipodi:type="inkscape:persp3d" /><inkscape:perspective
       id="perspective118"
       inkscape:persp3d-origin="372.04724 : 361.15442 : 1"
       inkscape:vp_x="0 : 536.54812 : 1"
       inkscape:vp_y="0 : 1000 : 0"
       inkscape:vp_z="744.09448 : 536.54812 : 1"
       sodipodi:type="inkscape:persp3d" /><inkscape:perspective
       id="perspective3489"
       inkscape:persp3d-origin="372.04724 : 361.15442 : 1"
       inkscape:vp_x="0 : 536.54812 : 1"
       inkscape:vp_y="0 : 1000 : 0"
       inkscape:vp_z="744.09448 : 536.54812 : 1"
       sodipodi:type="inkscape:persp3d" /><inkscape:perspective
       id="perspective3491"
       inkscape:persp3d-origin="372.04724 : 361.15442 : 1"
       inkscape:vp_x="0 : 536.54812 : 1"
       inkscape:vp_y="0 : 1000 : 0"
       inkscape:vp_z="744.09448 : 536.54812 : 1"
       sodipodi:type="inkscape:persp3d" /><inkscape:perspective
       id="perspective3493"
       inkscape:persp3d-origin="372.04724 : 361.15442 : 1"
       inkscape:vp_x="0 : 536.54812 : 1"
       inkscape:vp_y="0 : 1000 : 0"
       inkscape:vp_z="744.09448 : 536.54812 : 1"
       sodipodi:type="inkscape:persp3d" /><inkscape:perspective
       id="perspective3495"
       inkscape:persp3d-origin="372.04724 : 361.15442 : 1"
       inkscape:vp_x="0 : 536.54812 : 1"
       inkscape:vp_y="0 : 1000 : 0"
       inkscape:vp_z="744.09448 : 536.54812 : 1"
       sodipodi:type="inkscape:persp3d" /><inkscape:perspective
       id="perspective3497"
       inkscape:persp3d-origin="372.04724 : 361.15442 : 1"
       inkscape:vp_x="0 : 536.54812 : 1"
       inkscape:vp_y="0 : 1000 : 0"
       inkscape:vp_z="744.09448 : 536.54812 : 1"
       sodipodi:type="inkscape:persp3d" /><inkscape:perspective
       id="perspective3499"
       inkscape:persp3d-origin="372.04724 : 361.15442 : 1"
       inkscape:vp_x="0 : 536.54812 : 1"
       inkscape:vp_y="0 : 1000 : 0"
       inkscape:vp_z="744.09448 : 536.54812 : 1"
       sodipodi:type="inkscape:persp3d" /><inkscape:perspective
       id="perspective3501"
       inkscape:persp3d-origin="372.04724 : 361.15442 : 1"
       inkscape:vp_x="0 : 536.54812 : 1"
       inkscape:vp_y="0 : 1000 : 0"
       inkscape:vp_z="744.09448 : 536.54812 : 1"
       sodipodi:type="inkscape:persp3d" /><inkscape:perspective
       id="perspective3306"
       inkscape:persp3d-origin="372.04724 : 361.15442 : 1"
       inkscape:vp_x="0 : 536.54812 : 1"
       inkscape:vp_y="0 : 1000 : 0"
       inkscape:vp_z="744.09448 : 536.54812 : 1"
       sodipodi:type="inkscape:persp3d" /><inkscape:perspective
       id="perspective2426"
       inkscape:persp3d-origin="372.04724 : 361.15442 : 1"
       inkscape:vp_x="0 : 536.54812 : 1"
       inkscape:vp_y="0 : 1000 : 0"
       inkscape:vp_z="744.09448 : 536.54812 : 1"
       sodipodi:type="inkscape:persp3d" /><inkscape:perspective
       id="perspective2573"
       inkscape:persp3d-origin="372.04724 : 361.15442 : 1"
       inkscape:vp_x="0 : 536.54812 : 1"
       inkscape:vp_y="0 : 1000 : 0"
       inkscape:vp_z="744.09448 : 536.54812 : 1"
       sodipodi:type="inkscape:persp3d" /><inkscape:perspective
       id="perspective179"
       inkscape:persp3d-origin="372.04724 : 361.15442 : 1"
       inkscape:vp_x="0 : 536.54812 : 1"
       inkscape:vp_y="0 : 1000 : 0"
       inkscape:vp_z="744.09448 : 536.54812 : 1"
       sodipodi:type="inkscape:persp3d" /><inkscape:perspective
       id="perspective3311"
       inkscape:persp3d-origin="372.04724 : 361.15442 : 1"
       inkscape:vp_x="0 : 536.54812 : 1"
       inkscape:vp_y="0 : 1000 : 0"
       inkscape:vp_z="744.09448 : 536.54812 : 1"
       sodipodi:type="inkscape:persp3d" /><inkscape:perspective
       id="perspective3309"
       inkscape:persp3d-origin="372.04724 : 361.15442 : 1"
       inkscape:vp_x="0 : 536.54812 : 1"
       inkscape:vp_y="0 : 1000 : 0"
       inkscape:vp_z="744.09448 : 536.54812 : 1"
       sodipodi:type="inkscape:persp3d" /><inkscape:perspective
       id="perspective3307"
       inkscape:persp3d-origin="372.04724 : 361.15442 : 1"
       inkscape:vp_x="0 : 536.54812 : 1"
       inkscape:vp_y="0 : 1000 : 0"
       inkscape:vp_z="744.09448 : 536.54812 : 1"
       sodipodi:type="inkscape:persp3d" /><inkscape:perspective
       id="perspective3305"
       inkscape:persp3d-origin="372.04724 : 361.15442 : 1"
       inkscape:vp_x="0 : 536.54812 : 1"
       inkscape:vp_y="0 : 1000 : 0"
       inkscape:vp_z="744.09448 : 536.54812 : 1"
       sodipodi:type="inkscape:persp3d" /><inkscape:perspective
       id="perspective3571"
       inkscape:persp3d-origin="372.04724 : 361.15442 : 1"
       inkscape:vp_x="0 : 536.54812 : 1"
       inkscape:vp_y="0 : 1000 : 0"
       inkscape:vp_z="744.09448 : 536.54812 : 1"
       sodipodi:type="inkscape:persp3d" /><inkscape:perspective
       id="perspective3569"
       inkscape:persp3d-origin="372.04724 : 361.15442 : 1"
       inkscape:vp_x="0 : 536.54812 : 1"
       inkscape:vp_y="0 : 1000 : 0"
       inkscape:vp_z="744.09448 : 536.54812 : 1"
       sodipodi:type="inkscape:persp3d" /><inkscape:perspective
       id="perspective3567"
       inkscape:persp3d-origin="372.04724 : 361.15442 : 1"
       inkscape:vp_x="0 : 536.54812 : 1"
       inkscape:vp_y="0 : 1000 : 0"
       inkscape:vp_z="744.09448 : 536.54812 : 1"
       sodipodi:type="inkscape:persp3d" /><inkscape:perspective
       id="perspective3565"
       inkscape:persp3d-origin="372.04724 : 361.15442 : 1"
       inkscape:vp_x="0 : 536.54812 : 1"
       inkscape:vp_y="0 : 1000 : 0"
       inkscape:vp_z="744.09448 : 536.54812 : 1"
       sodipodi:type="inkscape:persp3d" /></defs><sodipodi:namedview
     bordercolor="#666666"
     borderopacity="1.0"
     gridtolerance="10.0"
     guidetolerance="10.0"
     id="base"
     inkscape:current-layer="svg2"
     inkscape:cx="116.67262"
     inkscape:cy="53.386561"
     inkscape:guide-bbox="true"
     inkscape:pageopacity="0.0"
     inkscape:pageshadow="2"
     inkscape:window-height="1009"
     inkscape:window-width="1920"
     inkscape:zoom="1.4142136"
     objecttolerance="10.0"
     pagecolor="#ffffff"
     showgrid="false"
     showguides="false"
     inkscape:showpageshadow="2"
     inkscape:pagecheckerboard="0"
     inkscape:deskcolor="#d1d1d1"
     inkscape:window-x="-8"
     inkscape:window-y="-8"
     inkscape:window-maximized="1" /><g
     id="g3596"
     transform="translate(5.002215,5.194346)"
     inkscape:label="sign_5_96_2"><path
       d="M 20.761302,2.3941002 H 169.14016 c 11.82057,0 21.33676,9.3113448 21.33676,20.8774548 V 266.61171 c 0,11.56611 -9.51619,20.87745 -21.33676,20.87745 H 20.761302 c -11.8205654,0 -21.33676106,-9.31134 -21.33676106,-20.87745 V 23.271555 c 0,-11.56611 9.51619566,-20.8774548 21.33676106,-20.8774548 z"
       id="rect3292"
       style="fill:#ffffff;fill-opacity:1;fill-rule:nonzero;stroke:#000000;stroke-width:2.07113;stroke-linecap:round;stroke-linejoin:miter;stroke-miterlimit:4;stroke-dasharray:none;stroke-opacity:1"
       transform="matrix(0.9894239,0,0,0.9424637,1.051263,-1.796571)"
       inkscape:label="bg" /><path
       d="m 32.600121,86.200494 c -9.253713,0 -16.691127,7.437419 -16.691127,16.691126 v 125.29547 c 0,9.2537 7.437414,16.69111 16.691127,16.69112 H 157.89559 c 9.2537,0 16.69112,-7.43742 16.69112,-16.69112 V 102.89162 c 0,-9.253707 -7.43742,-16.691126 -16.69112,-16.691126 z"
       id="rect3347"
       style="fill:#585858;fill-opacity:1;fill-rule:nonzero;stroke:none;stroke-width:1.8;stroke-linecap:round;stroke-linejoin:miter;stroke-miterlimit:4;stroke-dasharray:none;stroke-opacity:1"
       inkscape:label="blue"
       sodipodi:nodetypes="ssscsssss" /><path
       d="m 32.914651,31.517803 -7.774827,-1.808727 c 1.673744,-6.442991 6.434021,-9.664502 14.280846,-9.664543 4.643279,4.1e-5 8.143748,1.025885 10.501417,3.077536 2.375612,2.033729 3.563432,4.427365 3.563462,7.180917 -3e-5,1.889744 -0.539948,3.599484 -1.619756,5.129227 -1.079864,1.511795 -2.699618,2.843593 -4.859267,3.995397 2.627578,0.899885 4.598278,2.177691 5.912109,3.833422 1.313771,1.637769 1.970671,3.662461 1.970702,6.074084 -3.1e-5,3.473484 -1.277837,6.281058 -3.833421,8.42273 -2.537643,2.141678 -6.344065,3.212515 -11.419278,3.212516 -4.139388,-1e-6 -7.405893,-0.683897 -9.799523,-2.051691 -2.393643,-1.385788 -4.19337,-3.968396 -5.399185,-7.747831 l 7.315896,-2.402638 c 0.755877,2.375651 1.754725,3.914417 2.996548,4.616304 1.259798,0.7019 2.807563,1.052847 4.6433,1.052841 2.519602,6e-6 4.355323,-0.539912 5.50717,-1.619756 1.151803,-1.097826 1.727716,-2.348636 1.727739,-3.752434 -2.3e-5,-1.619743 -0.656923,-2.924545 -1.970703,-3.91441 -1.295824,-0.989834 -3.257527,-1.484759 -5.885112,-1.484776 h -1.808727 v -5.9661 h 0.917861 c 2.447614,2.3e-5 4.31933,-0.548894 5.615153,-1.646752 1.295783,-1.097809 1.943685,-2.555587 1.943707,-4.37334 -2.2e-5,-1.439753 -0.530941,-2.654569 -1.592759,-3.644451 -1.043863,-0.989817 -2.546635,-1.484742 -4.508321,-1.484776 -3.347508,3.4e-5 -5.489182,1.655783 -6.425031,4.967251 m 26.644982,9.232608 c -2e-6,-4.031368 0.602907,-7.414855 1.808728,-10.150469 0.899859,-2.015665 2.123673,-3.82439 3.671446,-5.426182 1.565754,-1.601722 3.275495,-2.789541 5.129227,-3.563463 2.465612,-1.043802 5.309181,-1.565723 8.530713,-1.565764 5.831093,4.1e-5 10.492386,1.808766 13.983891,5.426182 3.509432,3.617486 5.264166,8.647722 5.264206,15.090724 -4e-5,6.38905 -1.736777,11.392291 -5.210214,15.009737 -3.473508,3.599458 -8.116803,5.399185 -13.929899,5.399186 -5.885128,-1e-6 -10.564418,-1.790729 -14.037883,-5.37219 -3.473481,-3.599449 -5.210217,-8.548698 -5.210215,-14.847761 m 8.233759,-0.269959 c -1.1e-5,4.481339 1.034832,7.882823 3.104532,10.204461 2.069672,2.30366 4.697273,3.455485 7.882811,3.455479 3.185495,6e-6 5.795099,-1.142821 7.828819,-3.428483 2.051659,-2.303641 3.077504,-5.750118 3.077536,-10.339441 -3.2e-5,-4.535292 -0.998881,-7.918778 -2.996548,-10.150469 -1.979729,-2.231631 -4.616329,-3.347462 -7.909807,-3.347495 -3.293522,3.3e-5 -5.948119,1.133861 -7.963799,3.401487 -2.015708,2.249688 -3.023555,5.651172 -3.023544,10.204461 M 104.18391,60.295464 V 20.719432 h 7.99079 v 15.576651 h 15.65764 V 20.719432 h 7.99079 v 39.576032 h -7.99079 V 42.991073 H 112.1747 v 17.304391 h -7.99079 m 75.61559,0 h -8.69269 l -3.45548,-8.989645 h -15.81961 l -3.26651,8.989645 h -8.47672 l 15.41467,-39.576032 h 8.44973 l 15.84661,39.576032 m -14.71278,-15.657639 -5.45318,-14.685786 -5.34519,14.685786 h 10.79837"
       id="text3590"
       style="font-style:normal;font-variant:normal;font-weight:bold;font-stretch:normal;font-size:55.2877px;line-height:125%;font-family:Arial;-inkscape-font-specification:'Arial Bold';text-align:start;writing-mode:lr-tb;text-anchor:start;fill:#000000;fill-opacity:1;stroke:none;stroke-width:1px;stroke-linecap:butt;stroke-linejoin:miter;stroke-opacity:1"
       transform="scale(0.9243157,1.0818814)"
       inkscape:label="zona" /><g
       id="g3"
       inkscape:label="sign"
       transform="translate(-54.999846,-15.183513)"><path
         class="fil2 str0"
         d="m 155.69001,158.75689 h 58.19197 c 2.39316,0 4.18803,1.94521 4.18803,4.33833 v 28.42312 c 0,2.39312 -1.79487,4.18798 -4.18803,4.18798 h -58.19197 c -2.39317,0 -4.18803,-1.79486 -4.18803,-4.18798 v -28.42312 c 0,-2.39312 1.79486,-4.33833 4.18803,-4.33833 z m 38.14596,52.50684 c -2.24375,0 -4.18804,-1.94416 -4.18804,-4.18795 0,-2.39421 1.94429,-4.18906 4.18804,-4.18906 2.39405,0 4.33835,1.79485 4.33835,4.18906 0,2.24379 -1.9443,4.18795 -4.33835,4.18795 z m 0,5.83458 c -5.2352,0 -10.02272,-4.48766 -10.02272,-10.02253 0,-5.53491 4.78752,-9.87323 10.02272,-9.87323 5.3855,0 10.02361,4.33832 10.02361,9.87323 0,5.53487 -4.63811,10.02253 -10.02361,10.02253 z m -59.53798,-5.83458 c -2.24375,0 -4.18804,-1.94416 -4.18804,-4.18795 0,-2.39421 1.94429,-4.18906 4.18804,-4.18906 2.39405,0 4.18892,1.79485 4.18892,4.18906 0,2.24379 -1.79487,4.18795 -4.18892,4.18795 z m 0,5.83458 c -5.38462,0 -10.02241,-4.48766 -10.02241,-10.02253 0,-5.53491 4.63779,-9.87323 10.02241,-9.87323 5.53582,0 9.87328,4.33832 9.87328,9.87323 0,5.53487 -4.33746,10.02253 -9.87328,10.02253 z m -11.219,-8.67668 c 0,-0.44898 -0.14942,-1.04725 -0.14942,-1.34585 0,-6.1332 5.23519,-11.36946 11.36842,-11.36946 6.28354,0 11.3693,5.23626 11.3693,11.36946 0,0.44895 0,0.89687 -0.14912,1.34585 h 35.60247 c 0.74861,0 1.49632,-0.59829 1.49632,-1.34585 v -8.52738 c 0,-0.89688 -0.74771,-1.34585 -1.49632,-1.34585 h -32.61102 v -24.23411 c 0,-1.19655 -1.19657,-2.69279 -2.84233,-2.69279 h -19.8957 c -1.64543,0 -2.39315,1.34585 -2.99144,2.69279 l -5.53493,14.21158 v 18.39952 c 0,1.49624 1.34599,2.84209 2.99145,2.84209 z m 83.62261,-11.21908 h 10.02242 c 0.7477,0 1.34599,0.44897 1.34599,1.34585 v 7.03114 c 0,0.89795 -0.59829,1.49624 -1.34599,1.49624 H 206.7016 c -0.89803,0 -1.49632,-0.59829 -1.49632,-1.49624 v -7.03114 c 0,-0.89688 0.59829,-1.34585 1.49632,-1.34585 z m -66.71837,-22.73787 h -11.3696 c -0.59829,0 -1.19658,0.74759 -1.49604,1.34588 l -2.84201,8.5263 c -0.14942,0.59933 0.7486,1.34692 1.49601,1.34692 h 14.21164 c 0.74742,0 1.49514,-0.59828 1.49514,-1.34692 v -8.5263 c 0,-0.7476 -1.04627,-1.34588 -1.49514,-1.34588 z"
         id="_146527632"
         style="fill:#ffffff;fill-opacity:1;fill-rule:evenodd;stroke:#000000;stroke-width:0.0137658"
         inkscape:label="sign"
         sodipodi:nodetypes="ssssssssssssssssssssssssssssscssscsssscsssccsscsssssssssssccsssss" /><path
         id="rect1"
         style="opacity:1;fill:#ffffff;fill-opacity:1;stroke-width:2.04572;paint-order:stroke fill markers"
         d="m 97.625,183 v 34.08203 h -0.07813 v 3.53516 h 120.77149 v -3.53516 H 101.375 V 183 Z" /><path
         id="rect3"
         style="opacity:1;fill:#ffffff;fill-opacity:1;stroke-width:2;paint-order:stroke fill markers"
         d="m 90.977437,163.66909 9.774193,-1.86062 -0.72616,-2.26126 z"
         sodipodi:nodetypes="cccc" /><path
         id="path3"
         style="opacity:1;fill:none;fill-opacity:1;stroke:#ffffff;stroke-width:4;stroke-dasharray:none;stroke-opacity:1;paint-order:stroke fill markers"
         d="m 99.625,141.4375 a 20.25,20.25 0 0 0 -20.25,20.25 20.25,20.25 0 0 0 20.25,20.25 20.25,20.25 0 0 0 20.25,-20.25 20.25,20.25 0 0 0 -20.25,-20.25 z"
         inkscape:label="path3" /></g><path
       d="M 171.22214,0.7539855 0.81588783,249.41024 c -0.04448,1.26352 0.148129,2.50778 0.34374997,3.75 L 173.84714,1.2539855 c -0.85827,-0.210688 -1.72588,-0.392445 -2.625,-0.5 z m 7.28125,2.21875 L 3.2221378,258.69149 c 0.427224,0.74929 0.911457,1.47074 1.4375,2.15625 L 180.59714,4.2227355 c -0.67498,-0.452103 -1.36054,-0.875194 -2.09375,-1.25 z m 5.78125,4.375 L 8.0971378,264.31649 c 0.633594,0.49973 1.3035279,0.98001 2.0000002,1.40625 L 185.84714,9.3164855 c -0.47824,-0.682736 -0.99738,-1.350341 -1.5625,-1.96875 z M 188.31589,14.222736 14.534638,267.75399 c 0.804744,0.26443 1.620612,0.48502 2.46875,0.65625 L 189.03464,17.472736 c -0.14507,-1.120354 -0.37766,-2.198603 -0.71875,-3.25 z m 0.875,11.5625 L 22.534638,268.87899 h 2.90625 L 189.19089,30.003986 Z"
       id="path3258"
       sodipodi:nodetypes="ccccccccccccccccccccccccc"
       style="display:inline;fill:#000000;fill-rule:evenodd"
       inkscape:label="black" /></g></svg>
