<?xml version="1.0" encoding="UTF-8" standalone="no"?>
<!-- Created with Inkscape (http://www.inkscape.org/) -->

<svg
   height="280"
   id="svg2"
   inkscape:output_extension="org.inkscape.output.svg.inkscape"
   inkscape:version="1.3 (0e150ed6c4, 2023-07-21)"
   sodipodi:docname="6.3.svg"
   sodipodi:version="0.32"
   version="1.0"
   width="200"
   xml:space="preserve"
   xmlns:inkscape="http://www.inkscape.org/namespaces/inkscape"
   xmlns:sodipodi="http://sodipodi.sourceforge.net/DTD/sodipodi-0.dtd"
   xmlns="http://www.w3.org/2000/svg"
   xmlns:svg="http://www.w3.org/2000/svg"
   xmlns:rdf="http://www.w3.org/1999/02/22-rdf-syntax-ns#"
   xmlns:cc="http://creativecommons.org/ns#"
   xmlns:dc="http://purl.org/dc/elements/1.1/"><title
     id="title1">Знаки сервісу » Дорожні знаки » ПДР Тест Центр</title><metadata
     id="metadata7"><rdf:RDF><cc:Work
         rdf:about=""><dc:format>&#10;					image/svg+xml&#10;				</dc:format><dc:type
           rdf:resource="http://purl.org/dc/dcmitype/StillImage" /><cc:license
           rdf:resource="http://creativecommons.org/licenses/by-nc-sa/4.0/" /><dc:creator><cc:Agent><dc:title>ПДР Тест Центр | PDR Test Center</dc:title></cc:Agent></dc:creator><dc:rights><cc:Agent><dc:title>ПДР Тест Центр | PDR Test Center</dc:title></cc:Agent></dc:rights><dc:language>uk-UA</dc:language><dc:date>2023-09-01</dc:date><dc:title>Знаки сервісу » Дорожні знаки » ПДР Тест Центр</dc:title><dc:publisher><cc:Agent><dc:title>https://pdrtest.com/</dc:title></cc:Agent></dc:publisher><dc:source>https://pdrtest.com/driver/rules/section/33.6</dc:source></cc:Work><cc:License
         rdf:about="http://creativecommons.org/licenses/by-nc-sa/4.0/"><cc:permits
           rdf:resource="http://creativecommons.org/ns#Reproduction" /><cc:permits
           rdf:resource="http://creativecommons.org/ns#Distribution" /><cc:requires
           rdf:resource="http://creativecommons.org/ns#Notice" /><cc:requires
           rdf:resource="http://creativecommons.org/ns#Attribution" /><cc:prohibits
           rdf:resource="http://creativecommons.org/ns#CommercialUse" /><cc:permits
           rdf:resource="http://creativecommons.org/ns#DerivativeWorks" /><cc:requires
           rdf:resource="http://creativecommons.org/ns#ShareAlike" /></cc:License></rdf:RDF></metadata><defs
     id="defs5"><inkscape:path-effect
       effect="fillet_chamfer"
       id="path-effect1"
       is_visible="true"
       lpeversion="1"
       nodesatellites_param="F,0,0,1,0,0,0,1 @ F,0,0,1,0,0,0,1 @ F,0,0,1,0,0,0,1 @ F,0,0,1,0,0,0,1 @ F,0,0,1,0,0,0,1 @ F,0,0,1,0,0,0,1 @ F,0,0,1,0,0,0,1 @ F,0,0,1,0,0,0,1 @ F,0,0,1,0,0,0,1 @ F,0,0,1,0,0,0,1 @ F,0,0,1,0,0,0,1 @ F,0,0,1,0,0,0,1 @ F,0,0,1,0,0,0,1 @ F,0,0,1,0,0,0,1 | F,0,0,1,0,2.7725275,0,1 @ F,0,0,1,0,0,0,1 @ F,0,0,1,0,0,0,1 @ F,0,0,1,0,3.3173688,0,1"
       radius="0"
       unit="px"
       method="auto"
       mode="F"
       chamfer_steps="1"
       flexible="false"
       use_knot_distance="true"
       apply_no_radius="true"
       apply_with_radius="true"
       only_selected="false"
       hide_knots="false" /><inkscape:perspective
       id="perspective9"
       inkscape:persp3d-origin="372.04724 : 430.78739 : 1"
       inkscape:vp_x="0 : 606.18109 : 1"
       inkscape:vp_y="0 : 1000 : 0"
       inkscape:vp_z="744.09448 : 606.18109 : 1"
       sodipodi:type="inkscape:persp3d" /><inkscape:perspective
       id="perspective2411"
       inkscape:persp3d-origin="372.04724 : 430.78739 : 1"
       inkscape:vp_x="0 : 606.18109 : 1"
       inkscape:vp_y="0 : 1000 : 0"
       inkscape:vp_z="744.09448 : 606.18109 : 1"
       sodipodi:type="inkscape:persp3d" /><inkscape:perspective
       id="perspective109"
       inkscape:persp3d-origin="372.04724 : 430.78739 : 1"
       inkscape:vp_x="0 : 606.18109 : 1"
       inkscape:vp_y="0 : 1000 : 0"
       inkscape:vp_z="744.09448 : 606.18109 : 1"
       sodipodi:type="inkscape:persp3d" /><inkscape:perspective
       id="perspective118"
       inkscape:persp3d-origin="372.04724 : 430.78739 : 1"
       inkscape:vp_x="0 : 606.18109 : 1"
       inkscape:vp_y="0 : 1000 : 0"
       inkscape:vp_z="744.09448 : 606.18109 : 1"
       sodipodi:type="inkscape:persp3d" /></defs><sodipodi:namedview
     bordercolor="#666666"
     borderopacity="1.0"
     gridtolerance="10.0"
     guidetolerance="10.0"
     id="base"
     inkscape:current-layer="svg2"
     inkscape:cx="70.003569"
     inkscape:cy="150.26019"
     inkscape:pageopacity="0.0"
     inkscape:pageshadow="2"
     inkscape:window-height="1009"
     inkscape:window-width="1920"
     inkscape:zoom="1.4142136"
     objecttolerance="10.0"
     pagecolor="#ffffff"
     showgrid="false"
     inkscape:showpageshadow="2"
     inkscape:pagecheckerboard="0"
     inkscape:deskcolor="#d1d1d1"
     inkscape:window-x="-8"
     inkscape:window-y="-8"
     inkscape:window-maximized="1" /><g
     id="g2399"
     inkscape:label="sign_6_3"
     transform="matrix(0.99815052,0,0,0.99815052,5.1779116,5.4436668)"
     style="opacity:1"><path
       d="M 20.761302,2.3941002 H 169.14016 c 11.82057,0 21.33676,9.3113448 21.33676,20.8774548 V 266.61171 c 0,11.56611 -9.51619,20.87745 -21.33676,20.87745 H 20.761302 c -11.8205654,0 -21.33676106,-9.31134 -21.33676106,-20.87745 V 23.271555 c 0,-11.56611 9.51619566,-20.8774548 21.33676106,-20.8774548 z"
       id="rect3292"
       style="fill:#ffffff;fill-opacity:1;fill-rule:nonzero;stroke:#000000;stroke-width:1.91895;stroke-linecap:round;stroke-linejoin:miter;stroke-miterlimit:4;stroke-dasharray:none;stroke-opacity:1"
       transform="matrix(0.9894239,0,0,0.9424637,1.0512629,-1.7965714)"
       inkscape:label="bg" /><path
       d="M 25.409315,8.3852024 H 164.49215 c 11.08,0 20,8.9199996 20,19.9999996 V 261.49806 c 0,11.08 -8.92,20 -20,20 H 25.409315 c -11.08,0 -20.0000004,-8.92 -20.0000004,-20 V 28.385202 c 0,-11.08 8.9200004,-19.9999996 20.0000004,-19.9999996 z"
       id="rect3280"
       style="fill:#0000ff;fill-opacity:1;fill-rule:nonzero;stroke:none;stroke-width:2;stroke-linecap:round;stroke-linejoin:miter;stroke-miterlimit:4;stroke-opacity:1"
       transform="matrix(0.9894239,0,0,0.9424637,1.0512629,-1.7965714)"
       inkscape:label="blue" /><path
       d="M 37.980414,41.250411 H 152.01516 c 8.77025,0 15.83078,6.725421 15.83078,15.079419 v 122.2413 c 0,8.354 -7.06053,15.07942 -15.83078,15.07942 H 37.980414 c -8.770254,0 -15.830783,-6.72542 -15.830783,-15.07942 V 56.32983 c 0,-8.353998 7.060529,-15.079419 15.830783,-15.079419 z"
       id="rect3286"
       style="fill:#ffffff;fill-opacity:1;fill-rule:nonzero;stroke:none;stroke-width:1.93132;stroke-linecap:round;stroke-linejoin:miter;stroke-miterlimit:4;stroke-opacity:1"
       inkscape:label="white" /><path
       id="_43514832"
       style="fill:#000000;stroke-width:1.09535"
       inkscape:label="phone"
       d="M 90.793142,53.490569 C 46.10996,53.124531 40.153173,81.737343 44.966432,89.015136 c 0.95895,1.449909 3.200698,2.204578 4.220024,1.518268 L 66.866402,78.282305 c -0.999496,-1.101279 0.974329,-3.400521 2.949674,-5.13569 6.035407,-5.301588 16.511624,-1.418262 25.115657,-1.719135 0.01943,-6.79e-4 0.0375,-0.0027 0.0561,-0.0036 0.0069,2.35e-4 0.01333,-3.24e-4 0.01991,0 0.01859,9.17e-4 0.03666,0.0029 0.0561,0.0036 8.604027,0.300873 19.080247,-3.582453 25.115657,1.719135 1.97535,1.735169 3.94917,4.034411 2.94967,5.13569 l 17.67995,12.251099 c 1.01933,0.68631 3.26107,-0.06836 4.22002,-1.518268 4.81327,-7.277793 -1.14353,-35.890605 -45.826707,-35.524567 -1.35992,0.01114 -2.76217,0.05316 -4.194688,0.119434 -0.0067,-3.11e-4 -0.01321,3.1e-4 -0.01991,0 -1.432528,-0.06627 -2.834753,-0.108294 -4.194689,-0.119434 z m -23.1287,26.876413 c -0.406602,0.01392 -0.820862,0.143226 -1.194346,0.396306 L 50.06231,91.881567 c -0.996562,0.675237 -1.273974,1.956187 -0.646033,2.882718 l 1.118343,1.831332 c 1.883566,2.779165 5.755571,3.131031 8.744063,1.105675 l 9.967364,-7.437521 c 2.988707,-2.025046 3.637003,-4.268931 1.753517,-7.048453 l -1.610558,-1.994197 c -0.39268,-0.579111 -1.046891,-0.877329 -1.724564,-0.854139 z m 54.666678,0 c -0.67767,-0.02319 -1.33187,0.275028 -1.72456,0.854139 l -1.61056,1.994197 c -1.88349,2.779522 -1.23519,5.023407 1.75352,7.048453 l 9.96736,7.437521 c 2.98849,2.025356 6.8605,1.67349 8.74406,-1.105675 l 1.11835,-1.831332 c 0.62795,-0.926531 0.35052,-2.207481 -0.64604,-2.882718 L 123.52547,80.763288 c -0.37348,-0.25308 -0.78775,-0.382386 -1.19435,-0.396306 z" /><text
       xml:space="preserve"
       style="font-weight:bold;font-size:57.3941px;line-height:0.3;font-family:Arial;-inkscape-font-specification:'Arial Bold';letter-spacing:0px;word-spacing:6.68708px;opacity:1;fill:#000000;fill-opacity:1;stroke:none;stroke-width:5.66704;stroke-dasharray:none;stroke-opacity:1;paint-order:stroke fill markers"
       x="34.759197"
       y="171.03419"
       id="text1"><tspan
         sodipodi:role="line"
         id="tspan1"
         style="fill:#000000;fill-opacity:1;stroke:none;stroke-width:5.66704"
         x="34.759197"
         y="171.03419">SOS</tspan></text></g></svg>
