<?xml version="1.0" encoding="UTF-8" standalone="no"?>
<!-- Created with Inkscape (http://www.inkscape.org/) -->

<svg
   height="280"
   id="svg2"
   inkscape:output_extension="org.inkscape.output.svg.inkscape"
   inkscape:version="1.3 (0e150ed6c4, 2023-07-21)"
   sodipodi:docname="6.6.svg"
   sodipodi:version="0.32"
   version="1.0"
   width="200"
   xml:space="preserve"
   xmlns:inkscape="http://www.inkscape.org/namespaces/inkscape"
   xmlns:sodipodi="http://sodipodi.sourceforge.net/DTD/sodipodi-0.dtd"
   xmlns="http://www.w3.org/2000/svg"
   xmlns:svg="http://www.w3.org/2000/svg"
   xmlns:rdf="http://www.w3.org/1999/02/22-rdf-syntax-ns#"
   xmlns:cc="http://creativecommons.org/ns#"
   xmlns:dc="http://purl.org/dc/elements/1.1/"><title
     id="title1">Знаки сервісу » Дорожні знаки » ПДР Тест Центр</title><metadata
     id="metadata7"><rdf:RDF><cc:Work
         rdf:about=""><dc:format>&#10;					image/svg+xml&#10;				</dc:format><dc:type
           rdf:resource="http://purl.org/dc/dcmitype/StillImage" /><cc:license
           rdf:resource="http://creativecommons.org/licenses/by-nc-sa/4.0/" /><dc:creator><cc:Agent><dc:title>ПДР Тест Центр | PDR Test Center</dc:title></cc:Agent></dc:creator><dc:rights><cc:Agent><dc:title>ПДР Тест Центр | PDR Test Center</dc:title></cc:Agent></dc:rights><dc:language>uk-UA</dc:language><dc:date>2023-09-01</dc:date><dc:title>Знаки сервісу » Дорожні знаки » ПДР Тест Центр</dc:title><dc:publisher><cc:Agent><dc:title>https://pdrtest.com/</dc:title></cc:Agent></dc:publisher><dc:source>https://pdrtest.com/driver/rules/section/33.6</dc:source></cc:Work><cc:License
         rdf:about="http://creativecommons.org/licenses/by-nc-sa/4.0/"><cc:permits
           rdf:resource="http://creativecommons.org/ns#Reproduction" /><cc:permits
           rdf:resource="http://creativecommons.org/ns#Distribution" /><cc:requires
           rdf:resource="http://creativecommons.org/ns#Notice" /><cc:requires
           rdf:resource="http://creativecommons.org/ns#Attribution" /><cc:prohibits
           rdf:resource="http://creativecommons.org/ns#CommercialUse" /><cc:permits
           rdf:resource="http://creativecommons.org/ns#DerivativeWorks" /><cc:requires
           rdf:resource="http://creativecommons.org/ns#ShareAlike" /></cc:License></rdf:RDF></metadata><defs
     id="defs5"><inkscape:path-effect
       effect="fillet_chamfer"
       id="path-effect5"
       is_visible="true"
       lpeversion="1"
       nodesatellites_param="F,0,0,1,0,2.8952821,0,1 @ F,0,0,1,0,2.3683555,0,1 @ F,0,0,1,0,1.085221,0,1 @ F,0,0,1,0,1.7008544,0,1 @ F,0,0,1,0,2.1415803,0,1 @ F,0,0,1,0,2.745312,0,1 @ F,0,0,1,0,1.2216797,0,1 @ F,0,0,1,0,1.292187,0,1"
       radius="0"
       unit="px"
       method="auto"
       mode="F"
       chamfer_steps="1"
       flexible="false"
       use_knot_distance="true"
       apply_no_radius="true"
       apply_with_radius="true"
       only_selected="false"
       hide_knots="false" /><inkscape:path-effect
       effect="fillet_chamfer"
       id="path-effect4"
       is_visible="true"
       lpeversion="1"
       nodesatellites_param="F,0,0,1,0,0,0,1 @ F,0,0,1,0,0,0,1 @ F,0,0,1,0,0,0,1 @ F,0,0,1,0,0,0,1 @ F,0,0,1,0,0,0,1 @ F,0,0,1,0,0,0,1 @ F,0,0,1,0,0,0,1 @ F,0,0,1,0,0,0,1"
       radius="0"
       unit="px"
       method="auto"
       mode="F"
       chamfer_steps="1"
       flexible="false"
       use_knot_distance="true"
       apply_no_radius="true"
       apply_with_radius="true"
       only_selected="false"
       hide_knots="false" /><inkscape:path-effect
       effect="fillet_chamfer"
       id="path-effect3"
       is_visible="true"
       lpeversion="1"
       nodesatellites_param="F,0,0,1,0,0,0,1 @ F,0,0,1,0,0,0,1 @ F,0,0,1,0,2.6748047,0,1 @ F,0,0,1,0,2.448437,0,1"
       radius="0"
       unit="px"
       method="auto"
       mode="F"
       chamfer_steps="1"
       flexible="false"
       use_knot_distance="true"
       apply_no_radius="true"
       apply_with_radius="true"
       only_selected="false"
       hide_knots="false" /><inkscape:path-effect
       effect="fillet_chamfer"
       id="path-effect1"
       is_visible="true"
       lpeversion="1"
       nodesatellites_param="F,0,0,1,0,0,0,1 @ F,0,0,1,0,0,0,1 @ F,0,0,1,0,0,0,1 @ F,0,0,1,0,0,0,1 @ F,0,0,1,0,0,0,1 @ F,0,0,1,0,0,0,1 @ F,0,0,1,0,0,0,1 @ F,0,0,1,0,0,0,1 @ F,0,0,1,0,0,0,1 @ F,0,0,1,0,0,0,1 @ F,0,0,1,0,0,0,1 @ F,0,0,1,0,0,0,1 @ F,0,0,1,0,0,0,1 @ F,0,0,1,0,0,0,1 | F,0,0,1,0,2.7725275,0,1 @ F,0,0,1,0,0,0,1 @ F,0,0,1,0,0,0,1 @ F,0,0,1,0,3.3173688,0,1"
       radius="0"
       unit="px"
       method="auto"
       mode="F"
       chamfer_steps="1"
       flexible="false"
       use_knot_distance="true"
       apply_no_radius="true"
       apply_with_radius="true"
       only_selected="false"
       hide_knots="false" /><inkscape:perspective
       id="perspective9"
       inkscape:persp3d-origin="372.04724 : 430.78739 : 1"
       inkscape:vp_x="0 : 606.18109 : 1"
       inkscape:vp_y="0 : 1000 : 0"
       inkscape:vp_z="744.09448 : 606.18109 : 1"
       sodipodi:type="inkscape:persp3d" /><inkscape:perspective
       id="perspective2411"
       inkscape:persp3d-origin="372.04724 : 430.78739 : 1"
       inkscape:vp_x="0 : 606.18109 : 1"
       inkscape:vp_y="0 : 1000 : 0"
       inkscape:vp_z="744.09448 : 606.18109 : 1"
       sodipodi:type="inkscape:persp3d" /><inkscape:perspective
       id="perspective109"
       inkscape:persp3d-origin="372.04724 : 430.78739 : 1"
       inkscape:vp_x="0 : 606.18109 : 1"
       inkscape:vp_y="0 : 1000 : 0"
       inkscape:vp_z="744.09448 : 606.18109 : 1"
       sodipodi:type="inkscape:persp3d" /><inkscape:perspective
       id="perspective118"
       inkscape:persp3d-origin="372.04724 : 430.78739 : 1"
       inkscape:vp_x="0 : 606.18109 : 1"
       inkscape:vp_y="0 : 1000 : 0"
       inkscape:vp_z="744.09448 : 606.18109 : 1"
       sodipodi:type="inkscape:persp3d" /></defs><sodipodi:namedview
     bordercolor="#666666"
     borderopacity="1.0"
     gridtolerance="10.0"
     guidetolerance="10.0"
     id="base"
     inkscape:current-layer="svg2"
     inkscape:cx="46.669046"
     inkscape:cy="172.1805"
     inkscape:pageopacity="0.0"
     inkscape:pageshadow="2"
     inkscape:window-height="1009"
     inkscape:window-width="1920"
     inkscape:zoom="1.4142136"
     objecttolerance="10.0"
     pagecolor="#ffffff"
     showgrid="false"
     inkscape:showpageshadow="2"
     inkscape:pagecheckerboard="0"
     inkscape:deskcolor="#d1d1d1"
     inkscape:window-x="-8"
     inkscape:window-y="-8"
     inkscape:window-maximized="1" /><g
     id="g2399"
     inkscape:label="sign_6_6"
     transform="matrix(0.99815052,0,0,0.99815052,5.1779116,5.4436668)"
     style="opacity:1"><path
       d="M 20.761302,2.3941002 H 169.14016 c 11.82057,0 21.33676,9.3113448 21.33676,20.8774548 V 266.61171 c 0,11.56611 -9.51619,20.87745 -21.33676,20.87745 H 20.761302 c -11.8205654,0 -21.33676106,-9.31134 -21.33676106,-20.87745 V 23.271555 c 0,-11.56611 9.51619566,-20.8774548 21.33676106,-20.8774548 z"
       id="rect3292"
       style="fill:#ffffff;fill-opacity:1;fill-rule:nonzero;stroke:#000000;stroke-width:1.91895;stroke-linecap:round;stroke-linejoin:miter;stroke-miterlimit:4;stroke-dasharray:none;stroke-opacity:1"
       transform="matrix(0.9894239,0,0,0.9424637,1.0512629,-1.7965714)"
       inkscape:label="bg" /><path
       d="M 25.409315,8.3852024 H 164.49215 c 11.08,0 20,8.9199996 20,19.9999996 V 261.49806 c 0,11.08 -8.92,20 -20,20 H 25.409315 c -11.08,0 -20.0000004,-8.92 -20.0000004,-20 V 28.385202 c 0,-11.08 8.9200004,-19.9999996 20.0000004,-19.9999996 z"
       id="rect3280"
       style="fill:#0000ff;fill-opacity:1;fill-rule:nonzero;stroke:none;stroke-width:2;stroke-linecap:round;stroke-linejoin:miter;stroke-miterlimit:4;stroke-opacity:1"
       transform="matrix(0.9894239,0,0,0.9424637,1.0512629,-1.7965714)"
       inkscape:label="blue" /><path
       d="M 37.980414,41.250411 H 152.01516 c 8.77025,0 15.83078,6.725421 15.83078,15.079419 v 122.2413 c 0,8.354 -7.06053,15.07942 -15.83078,15.07942 H 37.980414 c -8.770254,0 -15.830783,-6.72542 -15.830783,-15.07942 V 56.32983 c 0,-8.353998 7.060529,-15.079419 15.830783,-15.079419 z"
       id="rect3286"
       style="fill:#ffffff;fill-opacity:1;fill-rule:nonzero;stroke:none;stroke-width:1.93132;stroke-linecap:round;stroke-linejoin:miter;stroke-miterlimit:4;stroke-opacity:1"
       inkscape:label="white" /><path
       class="fil2 str0"
       d="m 182.94219,174.28818 v 14.28327 c 0,1.22117 -0.99955,2.22073 -2.22074,2.22073 h -6.81174 c -1.22229,0 -2.22184,-0.99956 -2.22184,-2.22073 v -14.28327 m -54.63695,-1.10652 c -2.34472,-0.13934 -4.95776,-1.69189 -4.95776,-3.57139 v -17.91179 c 0,-1.91791 2.68985,-3.49568 5.10259,-3.57907 l 4.6675,-14.14511 c 1.00613,-3.04911 1.83232,-5.8382 4.0717,-5.8382 h 47.38259 c 2.2405,0 3.12703,2.76933 4.07172,5.8382 l 4.36685,14.17583 c 2.21196,0.24029 5.42908,1.74455 5.42908,3.54835 v 17.91179 c 0,1.46477 -2.63231,2.73093 -4.243,3.28502 v 0 m -54.50199,1.39289 v 14.34577 c 0,1.22117 -0.99955,2.22073 -2.22183,2.22073 h -6.94671 c -1.22119,0 -2.22074,-0.99956 -2.22074,-2.22073 V 174.28818 M 129.209,131.09744 h 40.52509 c 1.91462,0 2.67388,2.11321 3.48142,4.45573 l 4.89825,12.84054 c 0.80864,2.34252 -6.46505,1.32059 -8.37967,1.32059 H 129.209 c -1.91571,0 -9.09249,1.00614 -8.23229,-1.32059 l 4.74978,-12.84054 c 0.8602,-2.32716 1.5668,-4.45573 3.48251,-4.45573 z"
       id="_144352464"
       sodipodi:nodetypes="cccccccccccccccccccccccccccccccccc"
       style="fill:#000000;fill-rule:evenodd;stroke:#000000;stroke-width:0.00440954"
       inkscape:label="car"
       transform="matrix(0.92652328,0,0,0.92652328,-43.980706,-4.1728378)" /><path
       d="m 150.38052,62.902515 c -4.11981,0 -7.43884,3.380058 -7.43614,7.71361 H 132.2896 c -3.7672,0 -6.82571,3.002751 -6.82571,6.77022 V 83.7875 h 49.88874 v -6.401155 c 0,-3.767469 -3.05928,-6.77022 -6.8257,-6.77022 l -10.65478,-0.221974 c 0,-4.120483 -3.37218,-7.491636 -7.49163,-7.491636 z M 125.07544,85.693826 82.456345,192.74098 88.782617,195.2382 131.4017,88.246533 Z m 50.66565,0 -6.32626,2.552707 42.61907,106.991667 6.32628,-2.49722 z m -37.56917,0.277469 -10.21082,32.352765 6.49276,2.05327 10.26631,-32.352772 z m 24.41719,0 -6.49276,2.053263 10.21084,32.352772 6.54824,-2.05327 z m -15.5937,0.998885 v 31.96431 h 6.82571 V 86.97018 Z"
       id="_143608184"
       style="opacity:1;fill:#000000;stroke-width:1.7758"
       sodipodi:nodetypes="scssccsccsccccccccccccccccccccccccc"
       inkscape:label="sign"
       transform="matrix(0.92652328,0,0,0.92652328,-43.980706,-4.1728378)" /></g></svg>
