<?xml version="1.0" encoding="UTF-8" standalone="no"?>
<!-- Created with Inkscape (http://www.inkscape.org/) -->

<svg
   height="110"
   id="svg3264"
   inkscape:output_extension="org.inkscape.output.svg.inkscape"
   inkscape:version="1.3 (0e150ed6c4, 2023-07-21)"
   sodipodi:docname="7.11.svg"
   sodipodi:version="0.32"
   version="1.0"
   width="200"
   xml:space="preserve"
   xmlns:inkscape="http://www.inkscape.org/namespaces/inkscape"
   xmlns:sodipodi="http://sodipodi.sourceforge.net/DTD/sodipodi-0.dtd"
   xmlns="http://www.w3.org/2000/svg"
   xmlns:svg="http://www.w3.org/2000/svg"
   xmlns:rdf="http://www.w3.org/1999/02/22-rdf-syntax-ns#"
   xmlns:cc="http://creativecommons.org/ns#"
   xmlns:dc="http://purl.org/dc/elements/1.1/"><title
     id="title1">Таблички до дорожніх знаків » ПДР Тест Центр</title><sodipodi:namedview
     bordercolor="#666666"
     borderopacity="1.0"
     gridtolerance="10000"
     guidetolerance="10"
     id="base"
     inkscape:current-layer="layer1"
     inkscape:cx="71.064232"
     inkscape:cy="127.456"
     inkscape:document-units="px"
     inkscape:pageopacity="0.0"
     inkscape:pageshadow="2"
     inkscape:window-height="1009"
     inkscape:window-maximized="1"
     inkscape:window-width="1920"
     inkscape:window-x="-8"
     inkscape:window-y="-8"
     inkscape:zoom="2.8284271"
     objecttolerance="10"
     pagecolor="#ffffff"
     showgrid="false"
     inkscape:showpageshadow="2"
     inkscape:pagecheckerboard="0"
     inkscape:deskcolor="#d1d1d1" /><defs
     id="defs3266"><inkscape:path-effect
       effect="powerstroke"
       id="path-effect5"
       is_visible="true"
       lpeversion="1.3"
       scale_width="1"
       interpolator_type="CentripetalCatmullRom"
       interpolator_beta="0.75"
       start_linecap_type="peak"
       end_linecap_type="peak"
       offset_points="8.3370146,5.2185002"
       linejoin_type="spiro"
       miter_limit="4"
       not_jump="true"
       sort_points="true"
       message="&lt;b&gt;Ctrl + click&lt;/b&gt; on existing node and move it" /><inkscape:path-effect
       effect="simplify"
       id="path-effect4"
       is_visible="true"
       lpeversion="1.3"
       threshold="0.012"
       steps="1"
       smooth_angles="0"
       helper_size="0"
       simplify_individual_paths="false"
       simplify_just_coalesce="false"
       step="1" /><inkscape:path-effect
       effect="fillet_chamfer"
       id="path-effect11"
       is_visible="true"
       lpeversion="1"
       nodesatellites_param="F,0,1,1,0,1.9286022,0,1 @ F,0,1,1,0,1.9286022,0,1 @ F,0,0,1,0,1.9286022,0,1 @ F,0,1,1,0,1.9286022,0,1 | F,0,1,1,0,1.9286022,0,1 @ F,0,1,1,0,1.9286022,0,1 @ F,0,1,1,0,1.9286022,0,1 @ F,0,1,1,0,1.9286022,0,1 | F,0,1,1,0,1.9286022,0,1 @ F,0,1,1,0,1.9286022,0,1 @ F,0,1,1,0,1.9286022,0,1 @ F,0,1,1,0,1.9286022,0,1"
       radius="0"
       unit="px"
       method="auto"
       mode="F"
       chamfer_steps="1"
       flexible="false"
       use_knot_distance="true"
       apply_no_radius="true"
       apply_with_radius="true"
       only_selected="false"
       hide_knots="false" /><inkscape:path-effect
       effect="fillet_chamfer"
       id="path-effect9"
       is_visible="true"
       lpeversion="1"
       nodesatellites_param="F,0,1,1,0,1.9286022,0,1 @ F,0,1,1,0,1.9286022,0,1 @ F,0,0,1,0,1.9286022,0,1 @ F,0,1,1,0,1.9286022,0,1 | F,0,1,1,0,1.9286022,0,1 @ F,0,1,1,0,1.9286022,0,1 @ F,0,1,1,0,1.9286022,0,1 @ F,0,1,1,0,1.9286022,0,1 | F,0,1,1,0,1.9286022,0,1 @ F,0,1,1,0,1.9286022,0,1 @ F,0,1,1,0,1.9286022,0,1 @ F,0,1,1,0,1.9286022,0,1"
       radius="0"
       unit="px"
       method="auto"
       mode="F"
       chamfer_steps="1"
       flexible="false"
       use_knot_distance="true"
       apply_no_radius="true"
       apply_with_radius="true"
       only_selected="false"
       hide_knots="false" /><inkscape:path-effect
       effect="fillet_chamfer"
       id="path-effect7"
       is_visible="true"
       lpeversion="1"
       nodesatellites_param="F,0,1,1,0,1.9286022,0,1 @ F,0,1,1,0,1.9286022,0,1 @ F,0,0,1,0,1.9286022,0,1 @ F,0,1,1,0,1.9286022,0,1 | F,0,1,1,0,1.9286022,0,1 @ F,0,1,1,0,1.9286022,0,1 @ F,0,1,1,0,1.9286022,0,1 @ F,0,1,1,0,1.9286022,0,1 | F,0,1,1,0,1.9286022,0,1 @ F,0,1,1,0,1.9286022,0,1 @ F,0,1,1,0,1.9286022,0,1 @ F,0,1,1,0,1.9286022,0,1"
       radius="0"
       unit="px"
       method="auto"
       mode="F"
       chamfer_steps="1"
       flexible="false"
       use_knot_distance="true"
       apply_no_radius="true"
       apply_with_radius="true"
       only_selected="false"
       hide_knots="false" /><inkscape:path-effect
       effect="fillet_chamfer"
       id="path-effect2"
       is_visible="true"
       lpeversion="1"
       nodesatellites_param="F,0,0,1,0,0,0,1 @ F,0,0,1,0,0,0,1 @ F,0,0,1,0,0,0,1 @ F,0,1,1,0,9.4016857,0,1 @ F,0,0,1,0,9.4016857,0,1 @ F,0,0,1,0,0,0,1"
       radius="0"
       unit="px"
       method="auto"
       mode="F"
       chamfer_steps="1"
       flexible="false"
       use_knot_distance="true"
       apply_no_radius="true"
       apply_with_radius="true"
       only_selected="false"
       hide_knots="false" /><inkscape:perspective
       id="perspective3272"
       inkscape:persp3d-origin="372.04724 : 365.78244 : 1"
       inkscape:vp_x="0 : 541.17614 : 1"
       inkscape:vp_y="0 : 1000 : 0"
       inkscape:vp_z="744.09448 : 541.17614 : 1"
       sodipodi:type="inkscape:persp3d" /><inkscape:path-effect
       effect="fillet_chamfer"
       id="path-effect1"
       is_visible="true"
       lpeversion="1"
       nodesatellites_param="F,0,0,1,0,0,0,1 @ F,0,0,1,0,0,0,1 @ F,0,0,1,0,0,0,1 @ F,0,0,1,0,0,0,1 @ F,0,0,1,0,0,0,1 @ F,0,0,1,0,0,0,1 @ F,0,0,1,0,0,0,1 @ F,0,0,1,0,0,0,1 | F,0,0,1,0,0,0,1 @ F,0,0,1,0,0,0,1 @ F,0,0,1,0,0,0,1 @ F,0,0,1,0,0,0,1 | F,0,0,1,0,0,0,1 @ F,0,0,1,0,0,0,1 @ F,0,0,1,0,0,0,1 @ F,0,0,1,0,0,0,1 | F,0,0,1,0,0,0,1 @ F,0,0,1,0,0,0,1 @ F,0,0,1,0,0,0,1 @ F,0,0,1,0,0,0,1 | F,0,0,1,0,0,0,1 @ F,0,0,1,0,0,0,1 @ F,0,0,1,0,0,0,1 @ F,0,0,1,0,0,0,1 | F,0,0,1,0,0,0,1 @ F,0,0,1,0,0,0,1 @ F,0,0,1,0,0,0,1 @ F,0,0,1,0,0,0,1 @ F,0,0,1,0,0,0,1 @ F,0,0,1,0,0,0,1 @ F,0,0,1,0,1.2368237,0,1 @ F,0,0,1,0,1.3025606,0,1 @ F,0,0,1,0,0,0,1 @ F,0,0,1,0,0,0,1 @ F,0,0,1,0,0,0,1 @ F,0,0,1,0,0,0,1 @ F,0,0,1,0,0,0,1 @ F,0,0,1,0,0,0,1 @ F,0,0,1,0,0,0,1 @ F,0,0,1,0,0,0,1 | F,0,0,1,0,0,0,1 @ F,0,0,1,0,0,0,1 @ F,0,0,1,0,0,0,1 @ F,0,0,1,0,0,0,1 @ F,0,0,1,0,0,0,1 @ F,0,0,1,0,0,0,1 @ F,0,0,1,0,0,0,1 @ F,0,0,1,0,0,0,1 | F,0,0,1,0,0,0,1 @ F,0,0,1,0,0,0,1 @ F,0,0,1,0,0,0,1 @ F,0,0,1,0,0,0,1 @ F,0,0,1,0,0,0,1 @ F,0,0,1,0,0,0,1 @ F,0,0,1,0,0,0,1 @ F,0,0,1,0,0,0,1"
       radius="0"
       unit="px"
       method="auto"
       mode="F"
       chamfer_steps="1"
       flexible="false"
       use_knot_distance="true"
       apply_no_radius="true"
       apply_with_radius="true"
       only_selected="false"
       hide_knots="false" /></defs><metadata
     id="metadata3269"><rdf:RDF><cc:Work
         rdf:about=""><dc:format>&#10;					image/svg+xml&#10;				</dc:format><dc:type
           rdf:resource="http://purl.org/dc/dcmitype/StillImage" /><cc:license
           rdf:resource="http://creativecommons.org/licenses/by-nc-sa/4.0/" /><dc:creator><cc:Agent><dc:title>ПДР Тест Центр | PDR Test Center</dc:title></cc:Agent></dc:creator><dc:rights><cc:Agent><dc:title>ПДР Тест Центр | PDR Test Center</dc:title></cc:Agent></dc:rights><dc:language>uk-UA</dc:language><dc:date>2023-09-01</dc:date><dc:title>Таблички до дорожніх знаків » ПДР Тест Центр</dc:title><dc:publisher><cc:Agent><dc:title>https://pdrtest.com/</dc:title></cc:Agent></dc:publisher><dc:source>https://pdrtest.com/driver/rules/section/33.7</dc:source></cc:Work><cc:License
         rdf:about="http://creativecommons.org/licenses/by-nc-sa/4.0/"><cc:permits
           rdf:resource="http://creativecommons.org/ns#Reproduction" /><cc:permits
           rdf:resource="http://creativecommons.org/ns#Distribution" /><cc:requires
           rdf:resource="http://creativecommons.org/ns#Notice" /><cc:requires
           rdf:resource="http://creativecommons.org/ns#Attribution" /><cc:prohibits
           rdf:resource="http://creativecommons.org/ns#CommercialUse" /><cc:permits
           rdf:resource="http://creativecommons.org/ns#DerivativeWorks" /><cc:requires
           rdf:resource="http://creativecommons.org/ns#ShareAlike" /></cc:License></rdf:RDF></metadata><g
     id="layer1"
     inkscape:groupmode="layer"
     inkscape:label="sign_7_11"
     transform="rotate(-90,-20.008512,502.38541)"><path
       class="fil2 str0"
       d="M 476.36678,535.69749 V 709.0914 c 0,4.01068 -4.36369,7.2924 -9.69667,7.2924 h -78.58538 c -5.33406,0 -9.69771,-3.28172 -9.69771,-7.2924 V 535.69749 c 0,-4.01171 4.36365,-7.29344 9.69771,-7.29344 h 78.58538 c 5.33298,0 9.69667,3.28173 9.69667,7.29344 z"
       id="path2394"
       sodipodi:nodetypes="cccccccccc"
       style="fill:#ffffff;fill-rule:evenodd;stroke:#000000;stroke-width:2;stroke-dasharray:none"
       inkscape:label="bg" /><path
       class="fil2 str0"
       d="m 471.4443,540.238 v 164.31284 c 0,3.80063 -3.92524,6.91049 -8.72236,6.91049 h -70.68915 c -4.79809,0 -8.72329,-3.10986 -8.72329,-6.91049 V 540.238 c 0,-3.80161 3.9252,-6.91147 8.72329,-6.91147 h 70.68915 c 4.79712,0 8.72236,3.10986 8.72236,6.91147 z"
       id="path2394-4"
       sodipodi:nodetypes="cccccccccc"
       style="fill:#ffffff;fill-rule:evenodd;stroke:#000000;stroke-width:3;stroke-dasharray:none"
       inkscape:label="black" /><path
       id="rect12"
       style="opacity:1;fill:#000000;fill-opacity:1;stroke:none;stroke-width:3;stroke-linecap:square;stroke-miterlimit:0;paint-order:markers fill stroke"
       d="m 21.92,98.465 13.435469,36.76938 H 166.34766 l 14.1875,-36.769536 H 168.375 V 91.128 h -7.75 c -2.5329,-5.052505 -2.5243,-10.691758 -3,-16.219 h -24.2509 l -9.04486,5.17 H 99.523931 L 90.0613,61.926 H 73.963 l 7.261315,11.528 H 43.998 v 6.625 l 2.971,2.26775 V 91.128 H 37.90625 L 25.970022,77.191 H 24.313 l 9.094,13.937 v 7.337 z"
       sodipodi:nodetypes="cccccccccccccccccccccccc"
       inkscape:label="sign"
       transform="rotate(90,2.491485,524.88541)" /><path
       id="path4258"
       style="fill:#ffffff;fill-opacity:1;fill-rule:evenodd;stroke-width:1.52389;stroke-dasharray:none"
       inkscape:label="car"
       d="m 144.61711,111.5 c -4.64845,0.0872 -9.2982,0.0719 -13.94727,0.082 -3.16297,1.59662 -5.39207,5.42914 -7.67383,8.14453 -0.88362,1.79773 0.35733,4.01494 0.91407,5.78321 0.54106,1.08887 1.30172,1.11544 2.375,1.20117 0.91594,-3.88281 7.49209,-6.10327 8.91015,1.01367 5.55493,0.0509 11.10832,-0.0264 16.66211,-0.11719 -0.0844,-5.45812 7.9028,-6.29867 8.98242,-0.98828 0.85465,-0.1922 1.48459,-0.39525 1.81641,-1.26562 l 0.31836,-3.55664 c 0.20323,-1.08757 -0.63858,-1.59472 -1.12109,-1.66211 -3.54569,-1.17494 -7.97562,-0.54534 -11.20704,-2.63477 -1.9042,-1.69171 -3.09033,-5.88906 -6.02929,-6 z m -85.693366,0.25 c -4.648449,0.0872 -9.298202,0.0719 -13.947266,0.082 -3.16297,1.59662 -5.392073,5.42914 -7.673828,8.14453 -0.883626,1.79773 0.357322,4.01494 0.914062,5.78321 0.541059,1.08887 1.301724,1.11544 2.375,1.20117 0.915952,-3.88281 7.492097,-6.10327 8.910156,1.01367 5.554925,0.0509 11.108316,-0.0264 16.66211,-0.11719 -0.08441,-5.45812 7.902808,-6.29867 8.982422,-0.98828 0.854652,-0.1922 1.484581,-0.39525 1.816406,-1.26562 l 0.318359,-3.55664 c 0.203225,-1.08757 -0.638578,-1.59472 -1.121093,-1.66211 -3.545687,-1.17494 -7.975612,-0.54534 -11.207032,-2.63477 -1.904204,-1.69171 -3.090337,-5.88906 -6.029296,-6 z m 42.779296,0 c -4.648444,0.0872 -9.296248,0.0719 -13.945312,0.082 -3.16297,1.59662 -5.394026,5.42914 -7.675781,8.14453 -0.883626,1.79773 0.357322,4.01494 0.914062,5.78321 0.541059,1.08887 1.301724,1.11544 2.375,1.20117 0.915952,-3.88281 7.492097,-6.10327 8.910156,1.01367 5.554925,0.0509 11.108315,-0.0264 16.662115,-0.11719 -0.0844,-5.45812 7.9028,-6.29867 8.98242,-0.98828 0.85465,-0.1922 1.48459,-0.39525 1.81641,-1.26562 l 0.31836,-3.55664 c 0.20323,-1.08757 -0.63858,-1.59472 -1.1211,-1.66211 -3.54568,-1.17494 -7.97561,-0.54534 -11.20703,-2.63477 -1.90421,-1.69171 -3.09033,-5.88906 -6.0293,-6 z m 42.18164,1.3457 c 2.65369,0.40082 5.76917,6.15807 3.04102,6.11524 -4.92484,0.12634 -9.85322,0.10654 -14.7793,0.12304 -4.21691,0.23507 -1.36214,-5.32994 -0.29687,-6.05859 0.5461,-0.21419 3.98099,-0.0162 12.03515,-0.17969 z m -85.693358,0.25 c 2.653683,0.40082 5.769162,6.15807 3.041015,6.11524 -4.924851,0.12634 -9.853227,0.10654 -14.779297,0.12304 -4.21692,0.23507 -1.362137,-5.32994 -0.296875,-6.05859 0.5461,-0.21419 3.980985,-0.0162 12.035157,-0.17969 z m 42.779298,0 c 2.65369,0.40082 5.76917,6.15807 3.04102,6.11524 -4.924859,0.12634 -9.85128,0.10654 -14.77735,0.12304 -4.21692,0.23507 -1.36409,-5.32994 -0.298828,-6.05859 0.5461,-0.21419 3.980989,-0.0162 12.035158,-0.17969 z m 55.57813,10.36524 c -2.43681,-0.0448 -4.59554,2.34163 -3.83008,4.96484 0.59726,2.04682 2.7989,3.2125 4.8457,2.61524 2.04682,-0.59726 3.22812,-2.75006 2.63086,-4.79688 -0.48528,-1.66303 -1.99853,-2.75288 -3.64648,-2.7832 z m -25.82813,0.0254 c -2.44162,-0.0449 -4.59683,2.34584 -3.83203,4.96679 0.59726,2.04681 2.80085,3.21056 4.84766,2.61329 2.04682,-0.59726 3.22617,-2.75006 2.6289,-4.79688 -0.48528,-1.66303 -1.99657,-2.75288 -3.64453,-2.7832 z m -59.865236,0.22461 c -2.43681,-0.0448 -4.595536,2.34163 -3.830078,4.96484 0.597263,2.04682 2.798903,3.2125 4.845703,2.61524 2.046818,-0.59726 3.228122,-2.75006 2.630859,-4.79688 -0.485278,-1.66303 -1.998539,-2.75288 -3.646484,-2.7832 z m 42.779296,0 c -2.4368,-0.0448 -4.59553,2.34163 -3.83007,4.96484 0.59726,2.04682 2.7989,3.2125 4.8457,2.61524 2.04682,-0.59726 3.22812,-2.75006 2.63086,-4.79688 -0.48528,-1.66303 -1.99854,-2.75288 -3.64649,-2.7832 z m -68.607421,0.0254 c -2.441614,-0.0449 -4.596835,2.34584 -3.832031,4.96679 0.597263,2.04681 2.798901,3.21056 4.845703,2.61329 2.046822,-0.59726 3.228132,-2.75006 2.630859,-4.79688 -0.485278,-1.66303 -1.996568,-2.75288 -3.644531,-2.7832 z m 42.779297,0 c -2.441615,-0.0449 -4.596835,2.34584 -3.832031,4.96679 0.597263,2.04681 2.800854,3.21056 4.847656,2.61329 2.046822,-0.59726 3.226179,-2.75006 2.628906,-4.79688 -0.485278,-1.66303 -1.996568,-2.75288 -3.644531,-2.7832 z m 68.710944,1.44726 c 0.90171,0.019 1.70069,0.6333 1.9707,1.5586 0.33232,1.13884 -0.2674,2.31026 -1.40625,2.64258 -1.13883,0.33231 -2.32587,-0.3182 -2.6582,-1.45704 -0.43603,-1.49425 0.78064,-2.77172 2.09375,-2.74414 z m -25.83008,0.0273 c 0.90172,0.019 1.70266,0.63133 1.97266,1.55664 0.33232,1.13884 -0.26936,2.31222 -1.40821,2.64453 -1.13883,0.33231 -2.32393,-0.3182 -2.65625,-1.45703 -0.43626,-1.49502 0.78,-2.77169 2.0918,-2.74414 z m -59.865239,0.22265 c 0.901717,0.019 1.702646,0.6333 1.972656,1.5586 0.332315,1.13884 -0.267404,2.31026 -1.40625,2.64258 -1.13883,0.33231 -2.32588,-0.3182 -2.658203,-1.45704 -0.436031,-1.49425 0.77869,-2.77172 2.091797,-2.74414 z m 42.781259,0 c 0.9017,0.019 1.70264,0.6333 1.97265,1.5586 0.33232,1.13884 -0.26935,2.31026 -1.4082,2.64258 -1.13883,0.33231 -2.32392,-0.3182 -2.65625,-1.45704 -0.43603,-1.49425 0.77869,-2.77172 2.0918,-2.74414 z m -68.609384,0.0273 c 0.901717,0.019 1.702652,0.63133 1.972656,1.55664 0.332314,1.13884 -0.269356,2.31222 -1.408203,2.64453 -1.138832,0.33231 -2.323934,-0.3182 -2.65625,-1.45703 -0.436258,-1.49502 0.779996,-2.77169 2.091797,-2.74414 z m 42.779297,0 c 0.901717,0.019 1.702651,0.63133 1.972656,1.55664 0.332314,1.13884 -0.267403,2.31222 -1.40625,2.64453 -1.138832,0.33231 -2.325887,-0.3182 -2.658203,-1.45703 -0.436259,-1.49502 0.779996,-2.77169 2.091797,-2.74414 z"
       transform="rotate(90,2.491485,524.88541)" /></g></svg>
