<?xml version="1.0" encoding="UTF-8" standalone="no"?>
<!-- Created with Inkscape (http://www.inkscape.org/) -->

<svg
   height="110"
   id="svg3264"
   inkscape:output_extension="org.inkscape.output.svg.inkscape"
   inkscape:version="1.3 (0e150ed6c4, 2023-07-21)"
   sodipodi:docname="7.16.svg"
   sodipodi:version="0.32"
   version="1.0"
   width="200"
   xml:space="preserve"
   xmlns:inkscape="http://www.inkscape.org/namespaces/inkscape"
   xmlns:sodipodi="http://sodipodi.sourceforge.net/DTD/sodipodi-0.dtd"
   xmlns="http://www.w3.org/2000/svg"
   xmlns:svg="http://www.w3.org/2000/svg"
   xmlns:rdf="http://www.w3.org/1999/02/22-rdf-syntax-ns#"
   xmlns:cc="http://creativecommons.org/ns#"
   xmlns:dc="http://purl.org/dc/elements/1.1/"><title
     id="title1">Таблички до дорожніх знаків » ПДР Тест Центр</title><sodipodi:namedview
     bordercolor="#666666"
     borderopacity="1.0"
     gridtolerance="10000"
     guidetolerance="10"
     id="base"
     inkscape:current-layer="layer1"
     inkscape:cx="168"
     inkscape:cy="132.25"
     inkscape:document-units="px"
     inkscape:pageopacity="0.0"
     inkscape:pageshadow="2"
     inkscape:window-height="1009"
     inkscape:window-maximized="1"
     inkscape:window-width="1920"
     inkscape:window-x="-8"
     inkscape:window-y="-8"
     inkscape:zoom="2"
     objecttolerance="10"
     pagecolor="#ffffff"
     showgrid="false"
     inkscape:showpageshadow="2"
     inkscape:pagecheckerboard="0"
     inkscape:deskcolor="#d1d1d1" /><defs
     id="defs3266"><inkscape:path-effect
       effect="fillet_chamfer"
       id="path-effect16"
       is_visible="true"
       lpeversion="1"
       nodesatellites_param="F,0,0,1,0,2.5078125,0,1 @ F,0,0,1,0,2.5108349,0,1 @ F,0,1,1,0,2.5108349,0,1 @ F,0,0,1,0,2.5078125,0,1"
       radius="0"
       unit="px"
       method="auto"
       mode="F"
       chamfer_steps="1"
       flexible="false"
       use_knot_distance="true"
       apply_no_radius="true"
       apply_with_radius="true"
       only_selected="false"
       hide_knots="false" /><inkscape:path-effect
       effect="powerstroke"
       id="path-effect5"
       is_visible="true"
       lpeversion="1.3"
       scale_width="1"
       interpolator_type="CentripetalCatmullRom"
       interpolator_beta="0.75"
       start_linecap_type="peak"
       end_linecap_type="peak"
       offset_points="8.3370146,5.2185002"
       linejoin_type="spiro"
       miter_limit="4"
       not_jump="true"
       sort_points="true"
       message="&lt;b&gt;Ctrl + click&lt;/b&gt; on existing node and move it" /><inkscape:path-effect
       effect="simplify"
       id="path-effect4"
       is_visible="true"
       lpeversion="1.3"
       threshold="0.012"
       steps="1"
       smooth_angles="0"
       helper_size="0"
       simplify_individual_paths="false"
       simplify_just_coalesce="false"
       step="1" /><inkscape:path-effect
       effect="fillet_chamfer"
       id="path-effect11"
       is_visible="true"
       lpeversion="1"
       nodesatellites_param="F,0,1,1,0,1.9286022,0,1 @ F,0,1,1,0,1.9286022,0,1 @ F,0,0,1,0,1.9286022,0,1 @ F,0,1,1,0,1.9286022,0,1 | F,0,1,1,0,1.9286022,0,1 @ F,0,1,1,0,1.9286022,0,1 @ F,0,1,1,0,1.9286022,0,1 @ F,0,1,1,0,1.9286022,0,1 | F,0,1,1,0,1.9286022,0,1 @ F,0,1,1,0,1.9286022,0,1 @ F,0,1,1,0,1.9286022,0,1 @ F,0,1,1,0,1.9286022,0,1"
       radius="0"
       unit="px"
       method="auto"
       mode="F"
       chamfer_steps="1"
       flexible="false"
       use_knot_distance="true"
       apply_no_radius="true"
       apply_with_radius="true"
       only_selected="false"
       hide_knots="false" /><inkscape:path-effect
       effect="fillet_chamfer"
       id="path-effect9"
       is_visible="true"
       lpeversion="1"
       nodesatellites_param="F,0,1,1,0,1.9286022,0,1 @ F,0,1,1,0,1.9286022,0,1 @ F,0,0,1,0,1.9286022,0,1 @ F,0,1,1,0,1.9286022,0,1 | F,0,1,1,0,1.9286022,0,1 @ F,0,1,1,0,1.9286022,0,1 @ F,0,1,1,0,1.9286022,0,1 @ F,0,1,1,0,1.9286022,0,1 | F,0,1,1,0,1.9286022,0,1 @ F,0,1,1,0,1.9286022,0,1 @ F,0,1,1,0,1.9286022,0,1 @ F,0,1,1,0,1.9286022,0,1"
       radius="0"
       unit="px"
       method="auto"
       mode="F"
       chamfer_steps="1"
       flexible="false"
       use_knot_distance="true"
       apply_no_radius="true"
       apply_with_radius="true"
       only_selected="false"
       hide_knots="false" /><inkscape:path-effect
       effect="fillet_chamfer"
       id="path-effect7"
       is_visible="true"
       lpeversion="1"
       nodesatellites_param="F,0,1,1,0,1.9286022,0,1 @ F,0,1,1,0,1.9286022,0,1 @ F,0,0,1,0,1.9286022,0,1 @ F,0,1,1,0,1.9286022,0,1 | F,0,1,1,0,1.9286022,0,1 @ F,0,1,1,0,1.9286022,0,1 @ F,0,1,1,0,1.9286022,0,1 @ F,0,1,1,0,1.9286022,0,1 | F,0,1,1,0,1.9286022,0,1 @ F,0,1,1,0,1.9286022,0,1 @ F,0,1,1,0,1.9286022,0,1 @ F,0,1,1,0,1.9286022,0,1"
       radius="0"
       unit="px"
       method="auto"
       mode="F"
       chamfer_steps="1"
       flexible="false"
       use_knot_distance="true"
       apply_no_radius="true"
       apply_with_radius="true"
       only_selected="false"
       hide_knots="false" /><inkscape:path-effect
       effect="fillet_chamfer"
       id="path-effect2"
       is_visible="true"
       lpeversion="1"
       nodesatellites_param="F,0,0,1,0,0,0,1 @ F,0,0,1,0,0,0,1 @ F,0,0,1,0,0,0,1 @ F,0,1,1,0,9.4016857,0,1 @ F,0,0,1,0,9.4016857,0,1 @ F,0,0,1,0,0,0,1"
       radius="0"
       unit="px"
       method="auto"
       mode="F"
       chamfer_steps="1"
       flexible="false"
       use_knot_distance="true"
       apply_no_radius="true"
       apply_with_radius="true"
       only_selected="false"
       hide_knots="false" /><inkscape:perspective
       id="perspective3272"
       inkscape:persp3d-origin="372.04724 : 365.78244 : 1"
       inkscape:vp_x="0 : 541.17614 : 1"
       inkscape:vp_y="0 : 1000 : 0"
       inkscape:vp_z="744.09448 : 541.17614 : 1"
       sodipodi:type="inkscape:persp3d" /><inkscape:path-effect
       effect="fillet_chamfer"
       id="path-effect1"
       is_visible="true"
       lpeversion="1"
       nodesatellites_param="F,0,0,1,0,0,0,1 @ F,0,0,1,0,0,0,1 @ F,0,0,1,0,0,0,1 @ F,0,0,1,0,0,0,1 @ F,0,0,1,0,0,0,1 @ F,0,0,1,0,0,0,1 @ F,0,0,1,0,0,0,1 @ F,0,0,1,0,0,0,1 | F,0,0,1,0,0,0,1 @ F,0,0,1,0,0,0,1 @ F,0,0,1,0,0,0,1 @ F,0,0,1,0,0,0,1 | F,0,0,1,0,0,0,1 @ F,0,0,1,0,0,0,1 @ F,0,0,1,0,0,0,1 @ F,0,0,1,0,0,0,1 | F,0,0,1,0,0,0,1 @ F,0,0,1,0,0,0,1 @ F,0,0,1,0,0,0,1 @ F,0,0,1,0,0,0,1 | F,0,0,1,0,0,0,1 @ F,0,0,1,0,0,0,1 @ F,0,0,1,0,0,0,1 @ F,0,0,1,0,0,0,1 | F,0,0,1,0,0,0,1 @ F,0,0,1,0,0,0,1 @ F,0,0,1,0,0,0,1 @ F,0,0,1,0,0,0,1 @ F,0,0,1,0,0,0,1 @ F,0,0,1,0,0,0,1 @ F,0,0,1,0,1.2368237,0,1 @ F,0,0,1,0,1.3025606,0,1 @ F,0,0,1,0,0,0,1 @ F,0,0,1,0,0,0,1 @ F,0,0,1,0,0,0,1 @ F,0,0,1,0,0,0,1 @ F,0,0,1,0,0,0,1 @ F,0,0,1,0,0,0,1 @ F,0,0,1,0,0,0,1 @ F,0,0,1,0,0,0,1 | F,0,0,1,0,0,0,1 @ F,0,0,1,0,0,0,1 @ F,0,0,1,0,0,0,1 @ F,0,0,1,0,0,0,1 @ F,0,0,1,0,0,0,1 @ F,0,0,1,0,0,0,1 @ F,0,0,1,0,0,0,1 @ F,0,0,1,0,0,0,1 | F,0,0,1,0,0,0,1 @ F,0,0,1,0,0,0,1 @ F,0,0,1,0,0,0,1 @ F,0,0,1,0,0,0,1 @ F,0,0,1,0,0,0,1 @ F,0,0,1,0,0,0,1 @ F,0,0,1,0,0,0,1 @ F,0,0,1,0,0,0,1"
       radius="0"
       unit="px"
       method="auto"
       mode="F"
       chamfer_steps="1"
       flexible="false"
       use_knot_distance="true"
       apply_no_radius="true"
       apply_with_radius="true"
       only_selected="false"
       hide_knots="false" /></defs><metadata
     id="metadata3269"><rdf:RDF><cc:Work
         rdf:about=""><dc:format>&#10;					image/svg+xml&#10;				</dc:format><dc:type
           rdf:resource="http://purl.org/dc/dcmitype/StillImage" /><cc:license
           rdf:resource="http://creativecommons.org/licenses/by-nc-sa/4.0/" /><dc:creator><cc:Agent><dc:title>ПДР Тест Центр | PDR Test Center</dc:title></cc:Agent></dc:creator><dc:rights><cc:Agent><dc:title>ПДР Тест Центр | PDR Test Center</dc:title></cc:Agent></dc:rights><dc:language>uk-UA</dc:language><dc:date>2023-09-01</dc:date><dc:title>Таблички до дорожніх знаків » ПДР Тест Центр</dc:title><dc:publisher><cc:Agent><dc:title>https://pdrtest.com/</dc:title></cc:Agent></dc:publisher><dc:source>https://pdrtest.com/driver/rules/section/33.7</dc:source></cc:Work><cc:License
         rdf:about="http://creativecommons.org/licenses/by-nc-sa/4.0/"><cc:permits
           rdf:resource="http://creativecommons.org/ns#Reproduction" /><cc:permits
           rdf:resource="http://creativecommons.org/ns#Distribution" /><cc:requires
           rdf:resource="http://creativecommons.org/ns#Notice" /><cc:requires
           rdf:resource="http://creativecommons.org/ns#Attribution" /><cc:prohibits
           rdf:resource="http://creativecommons.org/ns#CommercialUse" /><cc:permits
           rdf:resource="http://creativecommons.org/ns#DerivativeWorks" /><cc:requires
           rdf:resource="http://creativecommons.org/ns#ShareAlike" /></cc:License></rdf:RDF></metadata><g
     id="layer1"
     inkscape:groupmode="layer"
     inkscape:label="sign_7_16"
     transform="rotate(-90,-20.008512,502.38541)"><path
       class="fil2 str0"
       d="M 476.36678,535.69749 V 709.0914 c 0,4.01068 -4.36369,7.2924 -9.69667,7.2924 h -78.58538 c -5.33406,0 -9.69771,-3.28172 -9.69771,-7.2924 V 535.69749 c 0,-4.01171 4.36365,-7.29344 9.69771,-7.29344 h 78.58538 c 5.33298,0 9.69667,3.28173 9.69667,7.29344 z"
       id="path2394"
       sodipodi:nodetypes="cccccccccc"
       style="fill:#ffffff;fill-rule:evenodd;stroke:#000000;stroke-width:2;stroke-dasharray:none"
       inkscape:label="bg" /><path
       class="fil2 str0"
       d="m 471.4443,540.238 v 164.31284 c 0,3.80063 -3.92524,6.91049 -8.72236,6.91049 h -70.68915 c -4.79809,0 -8.72329,-3.10986 -8.72329,-6.91049 V 540.238 c 0,-3.80161 3.9252,-6.91147 8.72329,-6.91147 h 70.68915 c 4.79712,0 8.72236,3.10986 8.72236,6.91147 z"
       id="path2394-4"
       sodipodi:nodetypes="cccccccccc"
       style="fill:#ffffff;fill-rule:evenodd;stroke:#000000;stroke-width:3;stroke-dasharray:none"
       inkscape:label="black" /><path
       id="path23"
       style="display:inline;opacity:0.857461;fill:#000000;fill-opacity:1;stroke-width:3;stroke-linecap:square;stroke-miterlimit:0;paint-order:markers fill stroke"
       d="m 54.900391,67.667969 c -4.253336,0 -7.868874,2.770042 -9.201172,6.632812 L 36.970703,93.097656 A 23,23 0 0 0 32.375,106.75 a 23,23 0 0 0 23,23 23,23 0 0 0 23,-23 23,23 0 0 0 -0.853516,-6.18164 c 6.391521,-1.819478 11.519798,-1.185656 16.332032,0.0606 A 23,23 0 0 0 93,106.75 a 23,23 0 0 0 23,23 23,23 0 0 0 22.90625,-22.05078 l 14.06836,-32.322267 -0.041,-0.01563 c 0.91025,-2.729318 3.45005,-4.693708 6.44141,-4.693359 3.68652,0.0016 6.7004,2.990344 6.79492,6.738281 h -0.0469 V 82.5 h 3 v -4.835938 c 7.6e-4,-0.02669 9e-4,-0.05338 0.002,-0.08008 -5.4e-4,-0.0267 -9e-4,-0.05339 -0.002,-0.08008 v -0.09766 h -0.002 c -0.0951,-5.405322 -4.43027,-9.736979 -9.74609,-9.738281 -4.25334,0 -7.86887,2.770042 -9.20117,6.632812 l -11.8398,26.998057 A 23,23 0 0 0 116,83.75 23,23 0 0 0 94.611328,98.449219 c -5.835616,-1.620648 -11.75649,-1.899387 -17.8125,-0.04883 A 23,23 0 0 0 55.375,83.75 23,23 0 0 0 43.068359,87.375 L 48.5,75.376953 48.45898,75.361323 c 0.910249,-2.729318 3.45005,-4.693708 6.441407,-4.693359 3.686516,0.0016 6.700402,2.990344 6.794921,6.738281 h -0.04687 v 3.591797 h 3 v -3.333985 c 7.59e-4,-0.02669 8.53e-4,-0.05338 0.002,-0.08008 -5.4e-4,-0.0267 -8.54e-4,-0.05339 -0.002,-0.08008 v -0.09766 h -0.002 c -0.0951,-5.405322 -4.430269,-9.736979 -9.746093,-9.738281 z M 55.375,86.25 a 20.5,20.5 0 0 1 20.5,20.5 20.5,20.5 0 0 1 -20.5,20.5 20.5,20.5 0 0 1 -20.5,-20.5 20.5,20.5 0 0 1 20.5,-20.5 z m 60.625,0 a 20.5,20.5 0 0 1 20.46094,19.32031 l -0.0215,0.0488 0.0234,0.0195 A 20.5,20.5 0 0 1 136.5,106.75 20.5,20.5 0 0 1 116,127.25 20.5,20.5 0 0 1 95.5,106.75 20.5,20.5 0 0 1 116,86.25 Z m -60.625,2.5 a 18,18 0 0 0 -18,18 18,18 0 0 0 18,18 18,18 0 0 0 18,-18 18,18 0 0 0 -18,-18 z m 60.625,0 a 18,18 0 0 0 -18,18 18,18 0 0 0 18,18 18,18 0 0 0 18,-18 18,18 0 0 0 -18,-18 z"
       transform="rotate(90,2.491485,524.88541)"
       inkscape:label="sign" /></g></svg>
