<?xml version="1.0" encoding="UTF-8" standalone="no"?>
<!-- Created with Inkscape (http://www.inkscape.org/) -->

<svg
   height="110"
   id="svg3264"
   inkscape:output_extension="org.inkscape.output.svg.inkscape"
   inkscape:version="1.3 (0e150ed6c4, 2023-07-21)"
   sodipodi:docname="7.20.svg"
   sodipodi:version="0.32"
   version="1.0"
   width="200"
   xml:space="preserve"
   xmlns:inkscape="http://www.inkscape.org/namespaces/inkscape"
   xmlns:sodipodi="http://sodipodi.sourceforge.net/DTD/sodipodi-0.dtd"
   xmlns="http://www.w3.org/2000/svg"
   xmlns:svg="http://www.w3.org/2000/svg"
   xmlns:rdf="http://www.w3.org/1999/02/22-rdf-syntax-ns#"
   xmlns:cc="http://creativecommons.org/ns#"
   xmlns:dc="http://purl.org/dc/elements/1.1/"><title
     id="title1">Таблички до дорожніх знаків » ПДР Тест Центр</title><sodipodi:namedview
     bordercolor="#666666"
     borderopacity="1.0"
     gridtolerance="10000"
     guidetolerance="10"
     id="base"
     inkscape:current-layer="layer1"
     inkscape:cx="115.25841"
     inkscape:cy="122.8598"
     inkscape:document-units="px"
     inkscape:pageopacity="0.0"
     inkscape:pageshadow="2"
     inkscape:window-height="1009"
     inkscape:window-maximized="1"
     inkscape:window-width="1920"
     inkscape:window-x="-8"
     inkscape:window-y="-8"
     inkscape:zoom="2.8284271"
     objecttolerance="10"
     pagecolor="#ffffff"
     showgrid="false"
     inkscape:showpageshadow="2"
     inkscape:pagecheckerboard="0"
     inkscape:deskcolor="#d1d1d1" /><defs
     id="defs3266"><inkscape:path-effect
       effect="fillet_chamfer"
       id="path-effect28"
       is_visible="true"
       lpeversion="1"
       nodesatellites_param="F,0,0,1,0,5.5923202,0,1 @ F,0,0,1,0,4.413169,0,1 @ F,0,0,1,0,2.7881175,0,1 @ F,0,0,1,0,1.8660715,0,1 @ F,0,0,1,0,1.5183065,0,1 @ F,0,0,1,0,1.5183065,0,1 @ F,0,0,1,0,0.94980642,0,1 @ F,0,0,1,0,4.1266826,0,1 @ F,0,0,1,0,2.5027668,0,1 @ F,0,1,1,0,5.5923202,0,1"
       radius="0"
       unit="px"
       method="auto"
       mode="F"
       chamfer_steps="1"
       flexible="false"
       use_knot_distance="true"
       apply_no_radius="true"
       apply_with_radius="true"
       only_selected="false"
       hide_knots="false" /><inkscape:path-effect
       effect="fillet_chamfer"
       id="path-effect24"
       is_visible="true"
       lpeversion="1"
       nodesatellites_param="F,0,0,1,0,0,0,1 @ F,0,0,1,0,0,0,1 @ F,0,1,1,0,3.1997635,0,1 @ F,0,0,1,0,3.1997635,0,1"
       radius="0"
       unit="px"
       method="auto"
       mode="F"
       chamfer_steps="1"
       flexible="false"
       use_knot_distance="true"
       apply_no_radius="true"
       apply_with_radius="true"
       only_selected="false"
       hide_knots="false" /><inkscape:path-effect
       effect="fillet_chamfer"
       id="path-effect16"
       is_visible="true"
       lpeversion="1"
       nodesatellites_param="F,0,0,1,0,2.5078125,0,1 @ F,0,0,1,0,2.5108349,0,1 @ F,0,1,1,0,2.5108349,0,1 @ F,0,0,1,0,2.5078125,0,1"
       radius="0"
       unit="px"
       method="auto"
       mode="F"
       chamfer_steps="1"
       flexible="false"
       use_knot_distance="true"
       apply_no_radius="true"
       apply_with_radius="true"
       only_selected="false"
       hide_knots="false" /><inkscape:path-effect
       effect="powerstroke"
       id="path-effect5"
       is_visible="true"
       lpeversion="1.3"
       scale_width="1"
       interpolator_type="CentripetalCatmullRom"
       interpolator_beta="0.75"
       start_linecap_type="peak"
       end_linecap_type="peak"
       offset_points="8.3370146,5.2185002"
       linejoin_type="spiro"
       miter_limit="4"
       not_jump="true"
       sort_points="true"
       message="&lt;b&gt;Ctrl + click&lt;/b&gt; on existing node and move it" /><inkscape:path-effect
       effect="simplify"
       id="path-effect4"
       is_visible="true"
       lpeversion="1.3"
       threshold="0.012"
       steps="1"
       smooth_angles="0"
       helper_size="0"
       simplify_individual_paths="false"
       simplify_just_coalesce="false"
       step="1" /><inkscape:path-effect
       effect="fillet_chamfer"
       id="path-effect11"
       is_visible="true"
       lpeversion="1"
       nodesatellites_param="F,0,1,1,0,1.9286022,0,1 @ F,0,1,1,0,1.9286022,0,1 @ F,0,0,1,0,1.9286022,0,1 @ F,0,1,1,0,1.9286022,0,1 | F,0,1,1,0,1.9286022,0,1 @ F,0,1,1,0,1.9286022,0,1 @ F,0,1,1,0,1.9286022,0,1 @ F,0,1,1,0,1.9286022,0,1 | F,0,1,1,0,1.9286022,0,1 @ F,0,1,1,0,1.9286022,0,1 @ F,0,1,1,0,1.9286022,0,1 @ F,0,1,1,0,1.9286022,0,1"
       radius="0"
       unit="px"
       method="auto"
       mode="F"
       chamfer_steps="1"
       flexible="false"
       use_knot_distance="true"
       apply_no_radius="true"
       apply_with_radius="true"
       only_selected="false"
       hide_knots="false" /><inkscape:path-effect
       effect="fillet_chamfer"
       id="path-effect9"
       is_visible="true"
       lpeversion="1"
       nodesatellites_param="F,0,1,1,0,1.9286022,0,1 @ F,0,1,1,0,1.9286022,0,1 @ F,0,0,1,0,1.9286022,0,1 @ F,0,1,1,0,1.9286022,0,1 | F,0,1,1,0,1.9286022,0,1 @ F,0,1,1,0,1.9286022,0,1 @ F,0,1,1,0,1.9286022,0,1 @ F,0,1,1,0,1.9286022,0,1 | F,0,1,1,0,1.9286022,0,1 @ F,0,1,1,0,1.9286022,0,1 @ F,0,1,1,0,1.9286022,0,1 @ F,0,1,1,0,1.9286022,0,1"
       radius="0"
       unit="px"
       method="auto"
       mode="F"
       chamfer_steps="1"
       flexible="false"
       use_knot_distance="true"
       apply_no_radius="true"
       apply_with_radius="true"
       only_selected="false"
       hide_knots="false" /><inkscape:path-effect
       effect="fillet_chamfer"
       id="path-effect7"
       is_visible="true"
       lpeversion="1"
       nodesatellites_param="F,0,1,1,0,1.9286022,0,1 @ F,0,1,1,0,1.9286022,0,1 @ F,0,0,1,0,1.9286022,0,1 @ F,0,1,1,0,1.9286022,0,1 | F,0,1,1,0,1.9286022,0,1 @ F,0,1,1,0,1.9286022,0,1 @ F,0,1,1,0,1.9286022,0,1 @ F,0,1,1,0,1.9286022,0,1 | F,0,1,1,0,1.9286022,0,1 @ F,0,1,1,0,1.9286022,0,1 @ F,0,1,1,0,1.9286022,0,1 @ F,0,1,1,0,1.9286022,0,1"
       radius="0"
       unit="px"
       method="auto"
       mode="F"
       chamfer_steps="1"
       flexible="false"
       use_knot_distance="true"
       apply_no_radius="true"
       apply_with_radius="true"
       only_selected="false"
       hide_knots="false" /><inkscape:path-effect
       effect="fillet_chamfer"
       id="path-effect2"
       is_visible="true"
       lpeversion="1"
       nodesatellites_param="F,0,0,1,0,0,0,1 @ F,0,0,1,0,0,0,1 @ F,0,0,1,0,0,0,1 @ F,0,1,1,0,9.4016857,0,1 @ F,0,0,1,0,9.4016857,0,1 @ F,0,0,1,0,0,0,1"
       radius="0"
       unit="px"
       method="auto"
       mode="F"
       chamfer_steps="1"
       flexible="false"
       use_knot_distance="true"
       apply_no_radius="true"
       apply_with_radius="true"
       only_selected="false"
       hide_knots="false" /><inkscape:perspective
       id="perspective3272"
       inkscape:persp3d-origin="372.04724 : 365.78244 : 1"
       inkscape:vp_x="0 : 541.17614 : 1"
       inkscape:vp_y="0 : 1000 : 0"
       inkscape:vp_z="744.09448 : 541.17614 : 1"
       sodipodi:type="inkscape:persp3d" /><inkscape:path-effect
       effect="fillet_chamfer"
       id="path-effect1"
       is_visible="true"
       lpeversion="1"
       nodesatellites_param="F,0,0,1,0,0,0,1 @ F,0,0,1,0,0,0,1 @ F,0,0,1,0,0,0,1 @ F,0,0,1,0,0,0,1 @ F,0,0,1,0,0,0,1 @ F,0,0,1,0,0,0,1 @ F,0,0,1,0,0,0,1 @ F,0,0,1,0,0,0,1 | F,0,0,1,0,0,0,1 @ F,0,0,1,0,0,0,1 @ F,0,0,1,0,0,0,1 @ F,0,0,1,0,0,0,1 | F,0,0,1,0,0,0,1 @ F,0,0,1,0,0,0,1 @ F,0,0,1,0,0,0,1 @ F,0,0,1,0,0,0,1 | F,0,0,1,0,0,0,1 @ F,0,0,1,0,0,0,1 @ F,0,0,1,0,0,0,1 @ F,0,0,1,0,0,0,1 | F,0,0,1,0,0,0,1 @ F,0,0,1,0,0,0,1 @ F,0,0,1,0,0,0,1 @ F,0,0,1,0,0,0,1 | F,0,0,1,0,0,0,1 @ F,0,0,1,0,0,0,1 @ F,0,0,1,0,0,0,1 @ F,0,0,1,0,0,0,1 @ F,0,0,1,0,0,0,1 @ F,0,0,1,0,0,0,1 @ F,0,0,1,0,1.2368237,0,1 @ F,0,0,1,0,1.3025606,0,1 @ F,0,0,1,0,0,0,1 @ F,0,0,1,0,0,0,1 @ F,0,0,1,0,0,0,1 @ F,0,0,1,0,0,0,1 @ F,0,0,1,0,0,0,1 @ F,0,0,1,0,0,0,1 @ F,0,0,1,0,0,0,1 @ F,0,0,1,0,0,0,1 | F,0,0,1,0,0,0,1 @ F,0,0,1,0,0,0,1 @ F,0,0,1,0,0,0,1 @ F,0,0,1,0,0,0,1 @ F,0,0,1,0,0,0,1 @ F,0,0,1,0,0,0,1 @ F,0,0,1,0,0,0,1 @ F,0,0,1,0,0,0,1 | F,0,0,1,0,0,0,1 @ F,0,0,1,0,0,0,1 @ F,0,0,1,0,0,0,1 @ F,0,0,1,0,0,0,1 @ F,0,0,1,0,0,0,1 @ F,0,0,1,0,0,0,1 @ F,0,0,1,0,0,0,1 @ F,0,0,1,0,0,0,1"
       radius="0"
       unit="px"
       method="auto"
       mode="F"
       chamfer_steps="1"
       flexible="false"
       use_knot_distance="true"
       apply_no_radius="true"
       apply_with_radius="true"
       only_selected="false"
       hide_knots="false" /></defs><metadata
     id="metadata3269"><rdf:RDF><cc:Work
         rdf:about=""><dc:format>&#10;					image/svg+xml&#10;				</dc:format><dc:type
           rdf:resource="http://purl.org/dc/dcmitype/StillImage" /><cc:license
           rdf:resource="http://creativecommons.org/licenses/by-nc-sa/4.0/" /><dc:creator><cc:Agent><dc:title>ПДР Тест Центр | PDR Test Center</dc:title></cc:Agent></dc:creator><dc:rights><cc:Agent><dc:title>ПДР Тест Центр | PDR Test Center</dc:title></cc:Agent></dc:rights><dc:language>uk-UA</dc:language><dc:date>2023-09-01</dc:date><dc:title>Таблички до дорожніх знаків » ПДР Тест Центр</dc:title><dc:publisher><cc:Agent><dc:title>https://pdrtest.com/</dc:title></cc:Agent></dc:publisher><dc:source>https://pdrtest.com/driver/rules/section/33.7</dc:source></cc:Work><cc:License
         rdf:about="http://creativecommons.org/licenses/by-nc-sa/4.0/"><cc:permits
           rdf:resource="http://creativecommons.org/ns#Reproduction" /><cc:permits
           rdf:resource="http://creativecommons.org/ns#Distribution" /><cc:requires
           rdf:resource="http://creativecommons.org/ns#Notice" /><cc:requires
           rdf:resource="http://creativecommons.org/ns#Attribution" /><cc:prohibits
           rdf:resource="http://creativecommons.org/ns#CommercialUse" /><cc:permits
           rdf:resource="http://creativecommons.org/ns#DerivativeWorks" /><cc:requires
           rdf:resource="http://creativecommons.org/ns#ShareAlike" /></cc:License></rdf:RDF></metadata><g
     id="layer1"
     inkscape:groupmode="layer"
     inkscape:label="sign_7_20"
     transform="rotate(-90,-20.008512,502.38541)"><path
       class="fil2 str0"
       d="M 476.36678,535.69749 V 709.0914 c 0,4.01068 -4.36369,7.2924 -9.69667,7.2924 h -78.58538 c -5.33406,0 -9.69771,-3.28172 -9.69771,-7.2924 V 535.69749 c 0,-4.01171 4.36365,-7.29344 9.69771,-7.29344 h 78.58538 c 5.33298,0 9.69667,3.28173 9.69667,7.29344 z"
       id="path2394"
       sodipodi:nodetypes="cccccccccc"
       style="fill:#ffffff;fill-rule:evenodd;stroke:#000000;stroke-width:2;stroke-dasharray:none"
       inkscape:label="bg" /><path
       class="fil2 str0"
       d="m 471.4443,540.238 v 164.31284 c 0,3.80063 -3.92524,6.91049 -8.72236,6.91049 h -70.68915 c -4.79809,0 -8.72329,-3.10986 -8.72329,-6.91049 V 540.238 c 0,-3.80161 3.9252,-6.91147 8.72329,-6.91147 h 70.68915 c 4.79712,0 8.72236,3.10986 8.72236,6.91147 z"
       id="path2394-4"
       sodipodi:nodetypes="cccccccccc"
       style="fill:#ffffff;fill-rule:evenodd;stroke:#000000;stroke-width:3;stroke-dasharray:none"
       inkscape:label="black" /><path
       id="rect3"
       style="opacity:1;fill:#000000;fill-opacity:1;stroke-width:3;stroke-linecap:square;stroke-miterlimit:0;paint-order:markers fill stroke"
       d="m 126.62109,73.875 a 7.0580583,7.0580583 0 0 0 -7.05859,7.058594 7.0580583,7.0580583 0 0 0 7.05859,7.05664 7.0580583,7.0580583 0 0 0 7.05664,-7.05664 7.0580583,7.0580583 0 0 0 -7.05664,-7.058594 z m 0,2.353516 a 4.7053722,4.7053722 0 0 1 4.70508,4.705078 4.7053722,4.7053722 0 0 1 -4.70508,4.705078 4.7053722,4.7053722 0 0 1 -4.70507,-4.705078 4.7053722,4.7053722 0 0 1 4.70507,-4.705078 z m -59.791012,1.226562 c -3.973041,0 -7.282946,1.014363 -9.93164,3.041016 -2.648695,2.026652 -4.224916,5.368157 -4.726563,10.023437 l 8.427734,0.841797 c 0.160527,-2.468101 0.763216,-4.233384 1.806641,-5.296875 1.043425,-1.063491 2.447095,-1.595703 4.212891,-1.595703 1.785862,0 3.1803,0.511797 4.183593,1.535156 1.023359,1.003293 1.535157,2.447793 1.535157,4.333985 0,1.705598 -0.580321,3.432004 -1.744141,5.177734 -0.862832,1.264149 -3.201158,3.670998 -7.013672,7.222655 -4.735544,4.39443 -7.906449,7.92694 -9.511719,10.5957 -1.605269,2.6487 -2.567618,5.45799 -2.888671,8.42774 h 29.646484 v -7.85547 H 64.03125 c 0.441449,-0.7625 1.012538,-1.54502 1.714844,-2.34766 0.722371,-0.80263 2.41913,-2.42891 5.08789,-4.87695 2.66876,-2.44803 4.513751,-4.32462 5.53711,-5.62891 1.545071,-1.96645 2.668788,-3.841087 3.371094,-5.626949 0.722371,-1.805928 1.083984,-3.702932 1.083984,-5.689453 0,-3.49146 -1.244255,-6.410106 -3.732422,-8.757812 -2.488167,-2.347707 -5.909379,-3.523438 -10.263672,-3.523438 z m 33.951172,0 c -4.233898,0 -7.502972,1.073656 -9.810547,3.220703 -2.287508,2.147048 -3.431641,4.867402 -3.431641,8.158203 0,1.926323 0.491382,3.700837 1.47461,5.326172 1.003293,1.605269 2.597977,2.869939 4.785156,3.792969 -2.548365,1.083557 -4.41377,2.628175 -5.597656,4.634765 -1.183886,1.98652 -1.775391,4.17466 -1.775391,6.5625 0,4.33423 1.574269,7.74426 4.72461,10.23242 2.66876,2.10692 6.010264,3.16211 10.023439,3.16211 4.31416,0 7.76502,-1.27585 10.35351,-3.82422 2.60857,-2.54836 3.91211,-5.85827 3.91211,-9.93164 0,-2.4681 -0.64156,-4.64506 -1.92578,-6.53125 -1.26415,-1.88619 -3.12032,-3.321458 -5.56836,-4.304685 1.92633,-0.842766 3.42089,-2.057375 4.48438,-3.642578 1.06349,-1.605269 1.5957,-3.429844 1.5957,-5.476563 0,-3.290801 -1.16455,-6.011155 -3.49219,-8.158203 -2.30757,-2.147047 -5.55818,-3.220703 -9.75195,-3.220703 z m 55.75,0.242188 c -6.04157,0 -10.91768,1.990714 -14.625,5.972656 -3.70732,3.962326 -5.56055,9.533627 -5.56055,16.712888 0,6.78696 1.84354,12.14136 5.53125,16.06446 3.68771,3.90348 8.39533,5.85546 14.12305,5.85546 4.62925,0 8.4461,-1.13671 11.44727,-3.41211 3.02078,-2.29501 5.17803,-5.79814 6.47265,-10.50585 l -8.44531,-2.67579 c -0.72577,3.1581 -1.92253,5.4722 -3.58984,6.94336 -1.66732,1.47116 -3.65803,2.20704 -5.97266,2.20704 -3.13848,0 -5.68884,-1.15804 -7.65039,-3.47266 -1.96155,-2.31463 -2.94141,-6.19924 -2.94141,-11.652345 0,-5.139255 0.98954,-8.85538 2.97071,-11.150391 2.00077,-2.29501 4.6015,-3.443359 7.79882,-3.443359 2.31463,0 4.2763,0.648738 5.88477,1.943359 1.62808,1.294622 2.69703,3.058758 3.20703,5.294922 l 8.62109,-2.058594 c -0.98077,-3.452323 -2.45251,-6.101457 -4.41406,-7.945312 -3.2954,-3.118861 -7.58086,-4.677734 -12.85742,-4.677734 z m -55.6582,6.470703 c 1.56513,0 2.81862,0.482151 3.76172,1.445312 0.96316,0.943096 1.44531,2.205813 1.44531,3.791016 0,1.685533 -0.48215,3.011448 -1.44531,3.974609 -0.96317,0.943096 -2.24825,1.414063 -3.85352,1.414063 -1.585203,0 -2.859104,-0.470967 -3.822266,-1.414063 -0.943095,-0.943095 -1.414062,-2.257826 -1.414062,-3.943359 0,-1.585203 0.482151,-2.859104 1.445312,-3.822266 0.963162,-0.963161 2.257478,-1.445312 3.882816,-1.445312 z M 31.289062,87.890625 36.769531,100 31.289062,112.10938 h 7.513672 L 44.283203,100 38.802734,87.890625 Z m 69.613278,13.673825 c 1.78587,0 3.26001,0.63234 4.42383,1.89649 1.16382,1.24408 1.7461,2.90001 1.7461,4.96679 0,2.36778 -0.57109,4.18312 -1.71485,5.44727 -1.14375,1.24408 -2.58825,1.86719 -4.33398,1.86719 -1.785864,0 -3.280426,-0.65275 -4.484378,-1.95703 -1.183886,-1.30428 -1.777343,-3.11963 -1.777343,-5.44727 0,-1.66547 0.502566,-3.21009 1.505859,-4.63477 1.023359,-1.42467 2.567982,-2.13867 4.634762,-2.13867 z"
       transform="rotate(90,2.491485,524.88541)"
       inkscape:label="sign" /></g></svg>
