<?xml version="1.0" encoding="UTF-8" standalone="no"?>
<!-- Created with Inkscape (http://www.inkscape.org/) -->

<svg
   height="110"
   id="svg3264"
   inkscape:output_extension="org.inkscape.output.svg.inkscape"
   inkscape:version="1.3 (0e150ed6c4, 2023-07-21)"
   sodipodi:docname="7.21.2.svg"
   sodipodi:version="0.32"
   version="1.0"
   width="200"
   xml:space="preserve"
   xmlns:inkscape="http://www.inkscape.org/namespaces/inkscape"
   xmlns:sodipodi="http://sodipodi.sourceforge.net/DTD/sodipodi-0.dtd"
   xmlns="http://www.w3.org/2000/svg"
   xmlns:svg="http://www.w3.org/2000/svg"
   xmlns:rdf="http://www.w3.org/1999/02/22-rdf-syntax-ns#"
   xmlns:cc="http://creativecommons.org/ns#"
   xmlns:dc="http://purl.org/dc/elements/1.1/"><title
     id="title1">Таблички до дорожніх знаків » ПДР Тест Центр</title><sodipodi:namedview
     bordercolor="#666666"
     borderopacity="1.0"
     gridtolerance="10000"
     guidetolerance="10"
     id="base"
     inkscape:current-layer="layer1"
     inkscape:cx="101.5"
     inkscape:cy="143.75"
     inkscape:document-units="px"
     inkscape:pageopacity="0.0"
     inkscape:pageshadow="2"
     inkscape:window-height="1009"
     inkscape:window-maximized="1"
     inkscape:window-width="1920"
     inkscape:window-x="-8"
     inkscape:window-y="-8"
     inkscape:zoom="2"
     objecttolerance="10"
     pagecolor="#ffffff"
     showgrid="false"
     inkscape:showpageshadow="2"
     inkscape:pagecheckerboard="0"
     inkscape:deskcolor="#d1d1d1" /><defs
     id="defs3266"><inkscape:path-effect
       effect="fillet_chamfer"
       id="path-effect28"
       is_visible="true"
       lpeversion="1"
       nodesatellites_param="F,0,0,1,0,5.5923202,0,1 @ F,0,0,1,0,4.413169,0,1 @ F,0,0,1,0,2.7881175,0,1 @ F,0,0,1,0,1.8660715,0,1 @ F,0,0,1,0,1.5183065,0,1 @ F,0,0,1,0,1.5183065,0,1 @ F,0,0,1,0,0.94980642,0,1 @ F,0,0,1,0,4.1266826,0,1 @ F,0,0,1,0,2.5027668,0,1 @ F,0,1,1,0,5.5923202,0,1"
       radius="0"
       unit="px"
       method="auto"
       mode="F"
       chamfer_steps="1"
       flexible="false"
       use_knot_distance="true"
       apply_no_radius="true"
       apply_with_radius="true"
       only_selected="false"
       hide_knots="false" /><inkscape:path-effect
       effect="fillet_chamfer"
       id="path-effect24"
       is_visible="true"
       lpeversion="1"
       nodesatellites_param="F,0,0,1,0,0,0,1 @ F,0,0,1,0,0,0,1 @ F,0,1,1,0,3.1997635,0,1 @ F,0,0,1,0,3.1997635,0,1"
       radius="0"
       unit="px"
       method="auto"
       mode="F"
       chamfer_steps="1"
       flexible="false"
       use_knot_distance="true"
       apply_no_radius="true"
       apply_with_radius="true"
       only_selected="false"
       hide_knots="false" /><inkscape:path-effect
       effect="fillet_chamfer"
       id="path-effect16"
       is_visible="true"
       lpeversion="1"
       nodesatellites_param="F,0,0,1,0,2.5078125,0,1 @ F,0,0,1,0,2.5108349,0,1 @ F,0,1,1,0,2.5108349,0,1 @ F,0,0,1,0,2.5078125,0,1"
       radius="0"
       unit="px"
       method="auto"
       mode="F"
       chamfer_steps="1"
       flexible="false"
       use_knot_distance="true"
       apply_no_radius="true"
       apply_with_radius="true"
       only_selected="false"
       hide_knots="false" /><inkscape:path-effect
       effect="powerstroke"
       id="path-effect5"
       is_visible="true"
       lpeversion="1.3"
       scale_width="1"
       interpolator_type="CentripetalCatmullRom"
       interpolator_beta="0.75"
       start_linecap_type="peak"
       end_linecap_type="peak"
       offset_points="8.3370146,5.2185002"
       linejoin_type="spiro"
       miter_limit="4"
       not_jump="true"
       sort_points="true"
       message="&lt;b&gt;Ctrl + click&lt;/b&gt; on existing node and move it" /><inkscape:path-effect
       effect="simplify"
       id="path-effect4"
       is_visible="true"
       lpeversion="1.3"
       threshold="0.012"
       steps="1"
       smooth_angles="0"
       helper_size="0"
       simplify_individual_paths="false"
       simplify_just_coalesce="false"
       step="1" /><inkscape:path-effect
       effect="fillet_chamfer"
       id="path-effect11"
       is_visible="true"
       lpeversion="1"
       nodesatellites_param="F,0,1,1,0,1.9286022,0,1 @ F,0,1,1,0,1.9286022,0,1 @ F,0,0,1,0,1.9286022,0,1 @ F,0,1,1,0,1.9286022,0,1 | F,0,1,1,0,1.9286022,0,1 @ F,0,1,1,0,1.9286022,0,1 @ F,0,1,1,0,1.9286022,0,1 @ F,0,1,1,0,1.9286022,0,1 | F,0,1,1,0,1.9286022,0,1 @ F,0,1,1,0,1.9286022,0,1 @ F,0,1,1,0,1.9286022,0,1 @ F,0,1,1,0,1.9286022,0,1"
       radius="0"
       unit="px"
       method="auto"
       mode="F"
       chamfer_steps="1"
       flexible="false"
       use_knot_distance="true"
       apply_no_radius="true"
       apply_with_radius="true"
       only_selected="false"
       hide_knots="false" /><inkscape:path-effect
       effect="fillet_chamfer"
       id="path-effect9"
       is_visible="true"
       lpeversion="1"
       nodesatellites_param="F,0,1,1,0,1.9286022,0,1 @ F,0,1,1,0,1.9286022,0,1 @ F,0,0,1,0,1.9286022,0,1 @ F,0,1,1,0,1.9286022,0,1 | F,0,1,1,0,1.9286022,0,1 @ F,0,1,1,0,1.9286022,0,1 @ F,0,1,1,0,1.9286022,0,1 @ F,0,1,1,0,1.9286022,0,1 | F,0,1,1,0,1.9286022,0,1 @ F,0,1,1,0,1.9286022,0,1 @ F,0,1,1,0,1.9286022,0,1 @ F,0,1,1,0,1.9286022,0,1"
       radius="0"
       unit="px"
       method="auto"
       mode="F"
       chamfer_steps="1"
       flexible="false"
       use_knot_distance="true"
       apply_no_radius="true"
       apply_with_radius="true"
       only_selected="false"
       hide_knots="false" /><inkscape:path-effect
       effect="fillet_chamfer"
       id="path-effect7"
       is_visible="true"
       lpeversion="1"
       nodesatellites_param="F,0,1,1,0,1.9286022,0,1 @ F,0,1,1,0,1.9286022,0,1 @ F,0,0,1,0,1.9286022,0,1 @ F,0,1,1,0,1.9286022,0,1 | F,0,1,1,0,1.9286022,0,1 @ F,0,1,1,0,1.9286022,0,1 @ F,0,1,1,0,1.9286022,0,1 @ F,0,1,1,0,1.9286022,0,1 | F,0,1,1,0,1.9286022,0,1 @ F,0,1,1,0,1.9286022,0,1 @ F,0,1,1,0,1.9286022,0,1 @ F,0,1,1,0,1.9286022,0,1"
       radius="0"
       unit="px"
       method="auto"
       mode="F"
       chamfer_steps="1"
       flexible="false"
       use_knot_distance="true"
       apply_no_radius="true"
       apply_with_radius="true"
       only_selected="false"
       hide_knots="false" /><inkscape:path-effect
       effect="fillet_chamfer"
       id="path-effect2"
       is_visible="true"
       lpeversion="1"
       nodesatellites_param="F,0,0,1,0,0,0,1 @ F,0,0,1,0,0,0,1 @ F,0,0,1,0,0,0,1 @ F,0,1,1,0,9.4016857,0,1 @ F,0,0,1,0,9.4016857,0,1 @ F,0,0,1,0,0,0,1"
       radius="0"
       unit="px"
       method="auto"
       mode="F"
       chamfer_steps="1"
       flexible="false"
       use_knot_distance="true"
       apply_no_radius="true"
       apply_with_radius="true"
       only_selected="false"
       hide_knots="false" /><inkscape:perspective
       id="perspective3272"
       inkscape:persp3d-origin="372.04724 : 365.78244 : 1"
       inkscape:vp_x="0 : 541.17614 : 1"
       inkscape:vp_y="0 : 1000 : 0"
       inkscape:vp_z="744.09448 : 541.17614 : 1"
       sodipodi:type="inkscape:persp3d" /><inkscape:path-effect
       effect="fillet_chamfer"
       id="path-effect1"
       is_visible="true"
       lpeversion="1"
       nodesatellites_param="F,0,0,1,0,0,0,1 @ F,0,0,1,0,0,0,1 @ F,0,0,1,0,0,0,1 @ F,0,0,1,0,0,0,1 @ F,0,0,1,0,0,0,1 @ F,0,0,1,0,0,0,1 @ F,0,0,1,0,0,0,1 @ F,0,0,1,0,0,0,1 | F,0,0,1,0,0,0,1 @ F,0,0,1,0,0,0,1 @ F,0,0,1,0,0,0,1 @ F,0,0,1,0,0,0,1 | F,0,0,1,0,0,0,1 @ F,0,0,1,0,0,0,1 @ F,0,0,1,0,0,0,1 @ F,0,0,1,0,0,0,1 | F,0,0,1,0,0,0,1 @ F,0,0,1,0,0,0,1 @ F,0,0,1,0,0,0,1 @ F,0,0,1,0,0,0,1 | F,0,0,1,0,0,0,1 @ F,0,0,1,0,0,0,1 @ F,0,0,1,0,0,0,1 @ F,0,0,1,0,0,0,1 | F,0,0,1,0,0,0,1 @ F,0,0,1,0,0,0,1 @ F,0,0,1,0,0,0,1 @ F,0,0,1,0,0,0,1 @ F,0,0,1,0,0,0,1 @ F,0,0,1,0,0,0,1 @ F,0,0,1,0,1.2368237,0,1 @ F,0,0,1,0,1.3025606,0,1 @ F,0,0,1,0,0,0,1 @ F,0,0,1,0,0,0,1 @ F,0,0,1,0,0,0,1 @ F,0,0,1,0,0,0,1 @ F,0,0,1,0,0,0,1 @ F,0,0,1,0,0,0,1 @ F,0,0,1,0,0,0,1 @ F,0,0,1,0,0,0,1 | F,0,0,1,0,0,0,1 @ F,0,0,1,0,0,0,1 @ F,0,0,1,0,0,0,1 @ F,0,0,1,0,0,0,1 @ F,0,0,1,0,0,0,1 @ F,0,0,1,0,0,0,1 @ F,0,0,1,0,0,0,1 @ F,0,0,1,0,0,0,1 | F,0,0,1,0,0,0,1 @ F,0,0,1,0,0,0,1 @ F,0,0,1,0,0,0,1 @ F,0,0,1,0,0,0,1 @ F,0,0,1,0,0,0,1 @ F,0,0,1,0,0,0,1 @ F,0,0,1,0,0,0,1 @ F,0,0,1,0,0,0,1"
       radius="0"
       unit="px"
       method="auto"
       mode="F"
       chamfer_steps="1"
       flexible="false"
       use_knot_distance="true"
       apply_no_radius="true"
       apply_with_radius="true"
       only_selected="false"
       hide_knots="false" /></defs><metadata
     id="metadata3269"><rdf:RDF><cc:Work
         rdf:about=""><dc:format>&#10;					image/svg+xml&#10;				</dc:format><dc:type
           rdf:resource="http://purl.org/dc/dcmitype/StillImage" /><cc:license
           rdf:resource="http://creativecommons.org/licenses/by-nc-sa/4.0/" /><dc:creator><cc:Agent><dc:title>ПДР Тест Центр | PDR Test Center</dc:title></cc:Agent></dc:creator><dc:rights><cc:Agent><dc:title>ПДР Тест Центр | PDR Test Center</dc:title></cc:Agent></dc:rights><dc:language>uk-UA</dc:language><dc:date>2023-09-01</dc:date><dc:title>Таблички до дорожніх знаків » ПДР Тест Центр</dc:title><dc:publisher><cc:Agent><dc:title>https://pdrtest.com/</dc:title></cc:Agent></dc:publisher><dc:source>https://pdrtest.com/driver/rules/section/33.7</dc:source></cc:Work><cc:License
         rdf:about="http://creativecommons.org/licenses/by-nc-sa/4.0/"><cc:permits
           rdf:resource="http://creativecommons.org/ns#Reproduction" /><cc:permits
           rdf:resource="http://creativecommons.org/ns#Distribution" /><cc:requires
           rdf:resource="http://creativecommons.org/ns#Notice" /><cc:requires
           rdf:resource="http://creativecommons.org/ns#Attribution" /><cc:prohibits
           rdf:resource="http://creativecommons.org/ns#CommercialUse" /><cc:permits
           rdf:resource="http://creativecommons.org/ns#DerivativeWorks" /><cc:requires
           rdf:resource="http://creativecommons.org/ns#ShareAlike" /></cc:License></rdf:RDF></metadata><g
     id="layer1"
     inkscape:groupmode="layer"
     inkscape:label="sign_7_21.2"
     transform="rotate(-90,-20.008512,502.38541)"><path
       class="fil2 str0"
       d="M 476.36678,535.69749 V 709.0914 c 0,4.01068 -4.36369,7.2924 -9.69667,7.2924 h -78.58538 c -5.33406,0 -9.69771,-3.28172 -9.69771,-7.2924 V 535.69749 c 0,-4.01171 4.36365,-7.29344 9.69771,-7.29344 h 78.58538 c 5.33298,0 9.69667,3.28173 9.69667,7.29344 z"
       id="path2394"
       sodipodi:nodetypes="cccccccccc"
       style="fill:#ffffff;fill-rule:evenodd;stroke:#000000;stroke-width:2;stroke-dasharray:none"
       inkscape:label="bg" /><path
       class="fil2 str0"
       d="m 471.4443,540.238 v 164.31284 c 0,3.80063 -3.92524,6.91049 -8.72236,6.91049 h -70.68915 c -4.79809,0 -8.72329,-3.10986 -8.72329,-6.91049 V 540.238 c 0,-3.80161 3.9252,-6.91147 8.72329,-6.91147 h 70.68915 c 4.79712,0 8.72236,3.10986 8.72236,6.91147 z"
       id="path2394-4"
       sodipodi:nodetypes="cccccccccc"
       style="fill:#ffffff;fill-rule:evenodd;stroke:#000000;stroke-width:3;stroke-dasharray:none"
       inkscape:label="black" /><g
       id="g6"
       transform="rotate(90,2.491485,524.88541)"
       inkscape:label="sign"><rect
         style="fill:#000000;fill-opacity:1;stroke-width:3;stroke-linecap:square;stroke-miterlimit:0;paint-order:markers fill stroke"
         id="rect6"
         width="160.33646"
         height="7.0710678"
         x="542.22571"
         y="-404.87088"
         transform="translate(-522.39392,527.37689)"
         inkscape:label="road" /><path
         id="path4258"
         style="fill:#000000;fill-opacity:1;fill-rule:evenodd;stroke-width:2.90967;stroke-dasharray:none"
         inkscape:label="car"
         d="m 54.67861,84.065679 c 8.87561,0.16658 17.7512,0.13852 26.62799,0.15772 6.03928,3.04851 10.2967,10.365751 14.65341,15.550461 1.68717,3.43253 -0.6818,7.66429 -1.74482,11.04057 -1.03308,2.07909 -2.48522,2.13069 -4.53451,2.29437 -1.74889,-7.41371 -14.3067,-11.65431 -17.01431,1.93457 -10.60641,0.097 -21.208881,-0.0511 -31.813131,-0.22426 0.16115,-10.4216 -15.08847,-12.02479 -17.14986,-1.88528 -1.63184,-0.36698 -2.83633,-0.75327 -3.4699,-2.41513 l -0.60623,-6.79439 c -0.38803,-2.07658 1.21781,-3.04301 2.13911,-3.1717 6.77003,-2.24339 15.22852,-1.04038 21.3985,-5.02987 3.63583,-3.2301 5.90219,-11.245231 11.513751,-11.457061 z m 1.39734,3.04847 c -5.066881,0.76533 -11.015231,11.755711 -5.806181,11.673941 9.403371,0.24121 18.811841,0.2026 28.217531,0.23412 8.05167,0.44883 2.60326,-10.174231 0.56928,-11.565501 -1.04271,-0.40896 -7.60224,-0.0304 -22.98063,-0.34256 z M 31.895109,107.37904 c 4.65277,-0.0856 8.7759,4.47192 7.31436,9.48059 -1.1404,3.90813 -5.34577,6.13577 -9.25387,4.99537 -3.90814,-1.1404 -6.16289,-5.2521 -5.02249,-9.16022 0.92658,-3.17536 3.81545,-5.25784 6.962,-5.31574 z m 49.315391,0.0494 c 4.66195,-0.0858 8.77712,4.47869 7.31683,9.48307 -1.1404,3.9081 -5.34577,6.13329 -9.25387,4.99289 -3.90815,-1.14041 -6.16289,-5.25211 -5.02248,-9.16024 0.92658,-3.17534 3.81295,-5.25783 6.95952,-5.31572 z m -49.253791,3.24316 c -1.72171,0.0362 -3.25008,1.20781 -3.76563,2.97455 -0.63451,2.17446 0.51174,4.41259 2.68621,5.04712 2.17446,0.63451 4.43972,-0.60786 5.07424,-2.78233 0.83255,-2.85309 -1.48761,-5.29201 -3.99482,-5.23935 z m 49.317861,0.0517 c -1.72171,0.0363 -3.25009,1.20534 -3.76563,2.97207 -0.6345,2.17447 0.51172,4.41262 2.6862,5.04712 2.17446,0.63452 4.43972,-0.60786 5.07424,-2.78232 0.83298,-2.85455 -1.49009,-5.28948 -3.99481,-5.23687 z"
         sodipodi:nodetypes="ccccccccccccccccccssssssssssssssssssssss" /><path
         id="path4"
         style="fill:#000000;fill-opacity:1;fill-rule:evenodd;stroke-width:2.90967;stroke-dasharray:none"
         inkscape:label="car"
         d="m 139.42861,84.065679 c 8.87561,0.16658 17.7512,0.13852 26.62799,0.15772 6.03928,3.04851 10.2967,10.365751 14.65341,15.550461 1.68717,3.43253 -0.6818,7.66429 -1.74482,11.04057 -1.03308,2.07909 -2.48522,2.13069 -4.53451,2.29437 -1.74889,-7.41371 -14.3067,-11.65431 -17.01431,1.93457 -10.60641,0.097 -21.20888,-0.0511 -31.81313,-0.22426 0.16115,-10.4216 -15.08847,-12.02479 -17.14986,-1.88528 -1.63184,-0.36698 -2.83633,-0.75327 -3.4699,-2.41513 l -0.60623,-6.79439 c -0.38803,-2.07658 1.21781,-3.04301 2.13911,-3.1717 6.77003,-2.24339 15.22852,-1.04038 21.3985,-5.02987 3.63583,-3.2301 5.90219,-11.245231 11.51375,-11.457061 z m 1.39734,3.04847 c -5.06688,0.76533 -11.01523,11.755711 -5.80618,11.673941 9.40337,0.24121 18.81184,0.2026 28.21753,0.23412 8.05167,0.44883 2.60326,-10.174231 0.56928,-11.565501 -1.04271,-0.40896 -7.60224,-0.0304 -22.98063,-0.34256 z m -24.18084,20.264891 c 4.65277,-0.0856 8.7759,4.47192 7.31436,9.48059 -1.1404,3.90813 -5.34577,6.13577 -9.25387,4.99537 -3.90814,-1.1404 -6.16289,-5.2521 -5.02249,-9.16022 0.92658,-3.17536 3.81545,-5.25784 6.962,-5.31574 z m 49.31539,0.0494 c 4.66195,-0.0858 8.77712,4.47869 7.31683,9.48307 -1.1404,3.9081 -5.34577,6.13329 -9.25387,4.99289 -3.90815,-1.14041 -6.16289,-5.25211 -5.02248,-9.16024 0.92658,-3.17534 3.81295,-5.25783 6.95952,-5.31572 z m -49.25379,3.24316 c -1.72171,0.0362 -3.25008,1.20781 -3.76563,2.97455 -0.63451,2.17446 0.51174,4.41259 2.68621,5.04712 2.17446,0.63451 4.43972,-0.60786 5.07424,-2.78233 0.83255,-2.85309 -1.48761,-5.29201 -3.99482,-5.23935 z m 49.31786,0.0517 c -1.72171,0.0363 -3.25009,1.20534 -3.76563,2.97207 -0.6345,2.17447 0.51172,4.41262 2.6862,5.04712 2.17446,0.63452 4.43972,-0.60786 5.07424,-2.78232 0.83298,-2.85455 -1.49009,-5.28948 -3.99481,-5.23687 z"
         sodipodi:nodetypes="ccccccccccccccccccssssssssssssssssssssss" /><path
         id="rect4"
         style="opacity:0.857461;fill:#000000;fill-opacity:1;stroke-width:3;stroke-linecap:square;stroke-miterlimit:0;paint-order:markers fill stroke"
         d="m 449.56132,628.28408 -19.89392,-5.33056 -0.73703,2.75062 19.89392,5.33056 z m -1.06976,-16.84297 -17.46587,6.44319 -0.6243,2.32991 16.94824,-4.51135 z m -7.77619,29.02117 -12.42194,-12.38105 -0.61621,2.29973 11.89622,14.34309 z"
         sodipodi:nodetypes="ccccccccccccccc"
         transform="rotate(-90,2.491485,524.88541)"
         inkscape:label="lines" /></g></g></svg>
