<?xml version="1.0" encoding="UTF-8" standalone="no"?>
<!-- Created with Inkscape (http://www.inkscape.org/) -->

<svg
   height="110"
   id="svg3264"
   inkscape:output_extension="org.inkscape.output.svg.inkscape"
   inkscape:version="1.3 (0e150ed6c4, 2023-07-21)"
   sodipodi:docname="7.21.4.svg"
   sodipodi:version="0.32"
   version="1.0"
   width="200"
   xml:space="preserve"
   xmlns:inkscape="http://www.inkscape.org/namespaces/inkscape"
   xmlns:sodipodi="http://sodipodi.sourceforge.net/DTD/sodipodi-0.dtd"
   xmlns="http://www.w3.org/2000/svg"
   xmlns:svg="http://www.w3.org/2000/svg"
   xmlns:rdf="http://www.w3.org/1999/02/22-rdf-syntax-ns#"
   xmlns:cc="http://creativecommons.org/ns#"
   xmlns:dc="http://purl.org/dc/elements/1.1/"><title
     id="title1">Таблички до дорожніх знаків » ПДР Тест Центр</title><sodipodi:namedview
     bordercolor="#666666"
     borderopacity="1.0"
     gridtolerance="10000"
     guidetolerance="10"
     id="base"
     inkscape:current-layer="layer1"
     inkscape:cx="81.847611"
     inkscape:cy="123.30175"
     inkscape:document-units="px"
     inkscape:pageopacity="0.0"
     inkscape:pageshadow="2"
     inkscape:window-height="1009"
     inkscape:window-maximized="1"
     inkscape:window-width="1920"
     inkscape:window-x="-8"
     inkscape:window-y="-8"
     inkscape:zoom="5.6568542"
     objecttolerance="10"
     pagecolor="#ffffff"
     showgrid="false"
     inkscape:showpageshadow="2"
     inkscape:pagecheckerboard="0"
     inkscape:deskcolor="#d1d1d1" /><defs
     id="defs3266"><inkscape:path-effect
       effect="fillet_chamfer"
       id="path-effect28"
       is_visible="true"
       lpeversion="1"
       nodesatellites_param="F,0,0,1,0,5.5923202,0,1 @ F,0,0,1,0,4.413169,0,1 @ F,0,0,1,0,2.7881175,0,1 @ F,0,0,1,0,1.8660715,0,1 @ F,0,0,1,0,1.5183065,0,1 @ F,0,0,1,0,1.5183065,0,1 @ F,0,0,1,0,0.94980642,0,1 @ F,0,0,1,0,4.1266826,0,1 @ F,0,0,1,0,2.5027668,0,1 @ F,0,1,1,0,5.5923202,0,1"
       radius="0"
       unit="px"
       method="auto"
       mode="F"
       chamfer_steps="1"
       flexible="false"
       use_knot_distance="true"
       apply_no_radius="true"
       apply_with_radius="true"
       only_selected="false"
       hide_knots="false" /><inkscape:path-effect
       effect="fillet_chamfer"
       id="path-effect24"
       is_visible="true"
       lpeversion="1"
       nodesatellites_param="F,0,0,1,0,0,0,1 @ F,0,0,1,0,0,0,1 @ F,0,1,1,0,3.1997635,0,1 @ F,0,0,1,0,3.1997635,0,1"
       radius="0"
       unit="px"
       method="auto"
       mode="F"
       chamfer_steps="1"
       flexible="false"
       use_knot_distance="true"
       apply_no_radius="true"
       apply_with_radius="true"
       only_selected="false"
       hide_knots="false" /><inkscape:path-effect
       effect="fillet_chamfer"
       id="path-effect16"
       is_visible="true"
       lpeversion="1"
       nodesatellites_param="F,0,0,1,0,2.5078125,0,1 @ F,0,0,1,0,2.5108349,0,1 @ F,0,1,1,0,2.5108349,0,1 @ F,0,0,1,0,2.5078125,0,1"
       radius="0"
       unit="px"
       method="auto"
       mode="F"
       chamfer_steps="1"
       flexible="false"
       use_knot_distance="true"
       apply_no_radius="true"
       apply_with_radius="true"
       only_selected="false"
       hide_knots="false" /><inkscape:path-effect
       effect="powerstroke"
       id="path-effect5"
       is_visible="true"
       lpeversion="1.3"
       scale_width="1"
       interpolator_type="CentripetalCatmullRom"
       interpolator_beta="0.75"
       start_linecap_type="peak"
       end_linecap_type="peak"
       offset_points="8.3370146,5.2185002"
       linejoin_type="spiro"
       miter_limit="4"
       not_jump="true"
       sort_points="true"
       message="&lt;b&gt;Ctrl + click&lt;/b&gt; on existing node and move it" /><inkscape:path-effect
       effect="simplify"
       id="path-effect4"
       is_visible="true"
       lpeversion="1.3"
       threshold="0.012"
       steps="1"
       smooth_angles="0"
       helper_size="0"
       simplify_individual_paths="false"
       simplify_just_coalesce="false"
       step="1" /><inkscape:path-effect
       effect="fillet_chamfer"
       id="path-effect11"
       is_visible="true"
       lpeversion="1"
       nodesatellites_param="F,0,1,1,0,1.9286022,0,1 @ F,0,1,1,0,1.9286022,0,1 @ F,0,0,1,0,1.9286022,0,1 @ F,0,1,1,0,1.9286022,0,1 | F,0,1,1,0,1.9286022,0,1 @ F,0,1,1,0,1.9286022,0,1 @ F,0,1,1,0,1.9286022,0,1 @ F,0,1,1,0,1.9286022,0,1 | F,0,1,1,0,1.9286022,0,1 @ F,0,1,1,0,1.9286022,0,1 @ F,0,1,1,0,1.9286022,0,1 @ F,0,1,1,0,1.9286022,0,1"
       radius="0"
       unit="px"
       method="auto"
       mode="F"
       chamfer_steps="1"
       flexible="false"
       use_knot_distance="true"
       apply_no_radius="true"
       apply_with_radius="true"
       only_selected="false"
       hide_knots="false" /><inkscape:path-effect
       effect="fillet_chamfer"
       id="path-effect9"
       is_visible="true"
       lpeversion="1"
       nodesatellites_param="F,0,1,1,0,1.9286022,0,1 @ F,0,1,1,0,1.9286022,0,1 @ F,0,0,1,0,1.9286022,0,1 @ F,0,1,1,0,1.9286022,0,1 | F,0,1,1,0,1.9286022,0,1 @ F,0,1,1,0,1.9286022,0,1 @ F,0,1,1,0,1.9286022,0,1 @ F,0,1,1,0,1.9286022,0,1 | F,0,1,1,0,1.9286022,0,1 @ F,0,1,1,0,1.9286022,0,1 @ F,0,1,1,0,1.9286022,0,1 @ F,0,1,1,0,1.9286022,0,1"
       radius="0"
       unit="px"
       method="auto"
       mode="F"
       chamfer_steps="1"
       flexible="false"
       use_knot_distance="true"
       apply_no_radius="true"
       apply_with_radius="true"
       only_selected="false"
       hide_knots="false" /><inkscape:path-effect
       effect="fillet_chamfer"
       id="path-effect7"
       is_visible="true"
       lpeversion="1"
       nodesatellites_param="F,0,1,1,0,1.9286022,0,1 @ F,0,1,1,0,1.9286022,0,1 @ F,0,0,1,0,1.9286022,0,1 @ F,0,1,1,0,1.9286022,0,1 | F,0,1,1,0,1.9286022,0,1 @ F,0,1,1,0,1.9286022,0,1 @ F,0,1,1,0,1.9286022,0,1 @ F,0,1,1,0,1.9286022,0,1 | F,0,1,1,0,1.9286022,0,1 @ F,0,1,1,0,1.9286022,0,1 @ F,0,1,1,0,1.9286022,0,1 @ F,0,1,1,0,1.9286022,0,1"
       radius="0"
       unit="px"
       method="auto"
       mode="F"
       chamfer_steps="1"
       flexible="false"
       use_knot_distance="true"
       apply_no_radius="true"
       apply_with_radius="true"
       only_selected="false"
       hide_knots="false" /><inkscape:path-effect
       effect="fillet_chamfer"
       id="path-effect2"
       is_visible="true"
       lpeversion="1"
       nodesatellites_param="F,0,0,1,0,0,0,1 @ F,0,0,1,0,0,0,1 @ F,0,0,1,0,0,0,1 @ F,0,1,1,0,9.4016857,0,1 @ F,0,0,1,0,9.4016857,0,1 @ F,0,0,1,0,0,0,1"
       radius="0"
       unit="px"
       method="auto"
       mode="F"
       chamfer_steps="1"
       flexible="false"
       use_knot_distance="true"
       apply_no_radius="true"
       apply_with_radius="true"
       only_selected="false"
       hide_knots="false" /><inkscape:perspective
       id="perspective3272"
       inkscape:persp3d-origin="372.04724 : 365.78244 : 1"
       inkscape:vp_x="0 : 541.17614 : 1"
       inkscape:vp_y="0 : 1000 : 0"
       inkscape:vp_z="744.09448 : 541.17614 : 1"
       sodipodi:type="inkscape:persp3d" /><inkscape:path-effect
       effect="fillet_chamfer"
       id="path-effect1"
       is_visible="true"
       lpeversion="1"
       nodesatellites_param="F,0,0,1,0,0,0,1 @ F,0,0,1,0,0,0,1 @ F,0,0,1,0,0,0,1 @ F,0,0,1,0,0,0,1 @ F,0,0,1,0,0,0,1 @ F,0,0,1,0,0,0,1 @ F,0,0,1,0,0,0,1 @ F,0,0,1,0,0,0,1 | F,0,0,1,0,0,0,1 @ F,0,0,1,0,0,0,1 @ F,0,0,1,0,0,0,1 @ F,0,0,1,0,0,0,1 | F,0,0,1,0,0,0,1 @ F,0,0,1,0,0,0,1 @ F,0,0,1,0,0,0,1 @ F,0,0,1,0,0,0,1 | F,0,0,1,0,0,0,1 @ F,0,0,1,0,0,0,1 @ F,0,0,1,0,0,0,1 @ F,0,0,1,0,0,0,1 | F,0,0,1,0,0,0,1 @ F,0,0,1,0,0,0,1 @ F,0,0,1,0,0,0,1 @ F,0,0,1,0,0,0,1 | F,0,0,1,0,0,0,1 @ F,0,0,1,0,0,0,1 @ F,0,0,1,0,0,0,1 @ F,0,0,1,0,0,0,1 @ F,0,0,1,0,0,0,1 @ F,0,0,1,0,0,0,1 @ F,0,0,1,0,1.2368237,0,1 @ F,0,0,1,0,1.3025606,0,1 @ F,0,0,1,0,0,0,1 @ F,0,0,1,0,0,0,1 @ F,0,0,1,0,0,0,1 @ F,0,0,1,0,0,0,1 @ F,0,0,1,0,0,0,1 @ F,0,0,1,0,0,0,1 @ F,0,0,1,0,0,0,1 @ F,0,0,1,0,0,0,1 | F,0,0,1,0,0,0,1 @ F,0,0,1,0,0,0,1 @ F,0,0,1,0,0,0,1 @ F,0,0,1,0,0,0,1 @ F,0,0,1,0,0,0,1 @ F,0,0,1,0,0,0,1 @ F,0,0,1,0,0,0,1 @ F,0,0,1,0,0,0,1 | F,0,0,1,0,0,0,1 @ F,0,0,1,0,0,0,1 @ F,0,0,1,0,0,0,1 @ F,0,0,1,0,0,0,1 @ F,0,0,1,0,0,0,1 @ F,0,0,1,0,0,0,1 @ F,0,0,1,0,0,0,1 @ F,0,0,1,0,0,0,1"
       radius="0"
       unit="px"
       method="auto"
       mode="F"
       chamfer_steps="1"
       flexible="false"
       use_knot_distance="true"
       apply_no_radius="true"
       apply_with_radius="true"
       only_selected="false"
       hide_knots="false" /></defs><metadata
     id="metadata3269"><rdf:RDF><cc:Work
         rdf:about=""><dc:format>&#10;					image/svg+xml&#10;				</dc:format><dc:type
           rdf:resource="http://purl.org/dc/dcmitype/StillImage" /><cc:license
           rdf:resource="http://creativecommons.org/licenses/by-nc-sa/4.0/" /><dc:creator><cc:Agent><dc:title>ПДР Тест Центр | PDR Test Center</dc:title></cc:Agent></dc:creator><dc:rights><cc:Agent><dc:title>ПДР Тест Центр | PDR Test Center</dc:title></cc:Agent></dc:rights><dc:language>uk-UA</dc:language><dc:date>2023-09-01</dc:date><dc:title>Таблички до дорожніх знаків » ПДР Тест Центр</dc:title><dc:publisher><cc:Agent><dc:title>https://pdrtest.com/</dc:title></cc:Agent></dc:publisher><dc:source>https://pdrtest.com/driver/rules/section/33.7</dc:source></cc:Work><cc:License
         rdf:about="http://creativecommons.org/licenses/by-nc-sa/4.0/"><cc:permits
           rdf:resource="http://creativecommons.org/ns#Reproduction" /><cc:permits
           rdf:resource="http://creativecommons.org/ns#Distribution" /><cc:requires
           rdf:resource="http://creativecommons.org/ns#Notice" /><cc:requires
           rdf:resource="http://creativecommons.org/ns#Attribution" /><cc:prohibits
           rdf:resource="http://creativecommons.org/ns#CommercialUse" /><cc:permits
           rdf:resource="http://creativecommons.org/ns#DerivativeWorks" /><cc:requires
           rdf:resource="http://creativecommons.org/ns#ShareAlike" /></cc:License></rdf:RDF></metadata><g
     id="layer1"
     inkscape:groupmode="layer"
     inkscape:label="sign_7_21.4"
     transform="rotate(-90,-20.008512,502.38541)"><path
       class="fil2 str0"
       d="M 476.36678,535.69749 V 709.0914 c 0,4.01068 -4.36369,7.2924 -9.69667,7.2924 h -78.58538 c -5.33406,0 -9.69771,-3.28172 -9.69771,-7.2924 V 535.69749 c 0,-4.01171 4.36365,-7.29344 9.69771,-7.29344 h 78.58538 c 5.33298,0 9.69667,3.28173 9.69667,7.29344 z"
       id="path2394"
       sodipodi:nodetypes="cccccccccc"
       style="fill:#ffffff;fill-rule:evenodd;stroke:#000000;stroke-width:2;stroke-dasharray:none"
       inkscape:label="bg" /><path
       class="fil2 str0"
       d="m 471.4443,540.238 v 164.31284 c 0,3.80063 -3.92524,6.91049 -8.72236,6.91049 h -70.68915 c -4.79809,0 -8.72329,-3.10986 -8.72329,-6.91049 V 540.238 c 0,-3.80161 3.9252,-6.91147 8.72329,-6.91147 h 70.68915 c 4.79712,0 8.72236,3.10986 8.72236,6.91147 z"
       id="path2394-4"
       sodipodi:nodetypes="cccccccccc"
       style="fill:#ffffff;fill-rule:evenodd;stroke:#000000;stroke-width:3;stroke-dasharray:none"
       inkscape:label="black" /><g
       id="g6"
       transform="rotate(90,-10.06671,537.44361)"
       inkscape:label="sign"><rect
         style="opacity:1;fill:#000000;fill-opacity:1;stroke-width:3;stroke-linecap:square;stroke-miterlimit:0;paint-order:markers fill stroke"
         id="rect6"
         width="160.33646"
         height="7.0710678"
         x="542.22571"
         y="-404.87064"
         transform="translate(-547.51032,527.37689)"
         inkscape:label="road" /><path
         id="path4258"
         style="fill:#000000;fill-opacity:1;fill-rule:evenodd;stroke-width:2.90967;stroke-dasharray:none"
         inkscape:label="car"
         d="m 47.118997,84.065679 c -8.87561,0.16658 -17.7512,0.13852 -26.62799,0.15772 -6.03928,3.04851 -10.2967,10.365751 -14.6534104,15.550461 -1.68717,3.43253 0.6818,7.66429 1.74482,11.04057 1.03308,2.07909 2.4852204,2.13069 4.5345104,2.29437 1.74889,-7.41371 14.3067,-11.65431 17.01431,1.93457 10.60641,0.097 21.208881,-0.0511 31.813131,-0.22426 -0.16115,-10.4216 15.08847,-12.02479 17.14986,-1.88528 1.63184,-0.36698 2.83633,-0.75327 3.4699,-2.41513 l 0.60623,-6.79439 c 0.38803,-2.07658 -1.21781,-3.04301 -2.13911,-3.1717 -6.77003,-2.24339 -15.22852,-1.04038 -21.3985,-5.02987 -3.63583,-3.2301 -5.90219,-11.245231 -11.513751,-11.457061 z m -1.39734,3.04847 c 5.066881,0.76533 11.015231,11.755711 5.806181,11.673941 -9.403371,0.24121 -18.811841,0.2026 -28.217531,0.23412 -8.05167,0.44883 -2.60326,-10.174231 -0.56928,-11.565501 1.04271,-0.40896 7.60224,-0.0304 22.98063,-0.34256 z m 24.180841,20.264891 c -4.65277,-0.0856 -8.7759,4.47192 -7.31436,9.48059 1.1404,3.90813 5.34577,6.13577 9.25387,4.99537 3.90814,-1.1404 6.16289,-5.2521 5.02249,-9.16022 -0.92658,-3.17536 -3.81545,-5.25784 -6.962,-5.31574 z m -49.315391,0.0494 c -4.66195,-0.0858 -8.77712,4.47869 -7.31683,9.48307 1.1404,3.9081 5.34577,6.13329 9.25387,4.99289 3.90815,-1.14041 6.16289,-5.25211 5.02248,-9.16024 -0.92658,-3.17534 -3.81295,-5.25783 -6.95952,-5.31572 z m 49.253791,3.24316 c 1.72171,0.0362 3.25008,1.20781 3.76563,2.97455 0.63451,2.17446 -0.51174,4.41259 -2.68621,5.04712 -2.17446,0.63451 -4.43972,-0.60786 -5.07424,-2.78233 -0.83255,-2.85309 1.48761,-5.29201 3.99482,-5.23935 z m -49.317861,0.0517 c 1.72171,0.0363 3.25009,1.20534 3.76563,2.97207 0.6345,2.17447 -0.51172,4.41262 -2.6862,5.04712 -2.17446,0.63452 -4.43972,-0.60786 -5.07424,-2.78232 -0.83298,-2.85455 1.49009,-5.28948 3.99481,-5.23687 z"
         sodipodi:nodetypes="ccccccccccccccccccssssssssssssssssssssss" /><path
         id="rect4"
         style="opacity:1;fill:#000000;fill-opacity:1;stroke-width:3;stroke-linecap:square;stroke-miterlimit:0;paint-order:markers fill stroke"
         d="m 84.337859,76.184426 -10e-7,20.5957 2.847659,1.1e-5 V 76.184436 Z m -15.992181,5.392589 10.744145,15.203114 2.412096,9e-6 -8.744155,-15.203119 z m 30.044921,-1e-5 -8.744156,15.203124 2.380856,-3e-6 10.775401,-15.203135 z"
         sodipodi:nodetypes="ccccccccccccccc"
         inkscape:label="lines" /><path
         d="m 120.25292,85.521281 c 1.61557,0.06555 4.95464,0.08656 6.57113,0.08656 1.0791,0.224806 2.51023,1.202944 2.51023,2.59679 0,1.663605 -1.69081,2.540215 -2.76991,2.899746 -0.40466,0.08991 -0.83259,0.712201 -0.56263,1.341684 l 2.89974,7.876929 c 1.25912,-0.404677 2.62952,-0.735761 4.06831,-0.735761 6.06974,-1.7e-5 10.90652,4.793841 10.90652,10.863241 0,6.11559 -4.83678,10.90652 -10.90652,10.90652 v -0.0432 c -6.07087,-3e-5 -10.86324,-4.88692 -10.86324,-10.90652 -2e-5,-4.91197 3.40299,-7.97146 4.63094,-8.91565 l -0.17312,-0.47607 c -3.17701,2.71195 -7.37309,6.13976 -13.50331,11.07964 h -4.5011 c -0.73316,5.31824 -5.31531,9.21861 -10.819961,9.21861 -6.06974,-1e-5 -10.863229,-4.79094 -10.863229,-10.90652 1e-5,-6.44515 5.834089,-13.065622 14.97482,-10.12748 1.66976,-2.762349 3.10665,-5.24248 3.98173,-6.838221 l -0.34623,-0.865594 c -0.96732,0.461989 -1.85289,0.395616 -2.72663,-0.216401 -1.01549,-0.733741 -0.82232,-1.058774 -0.82232,-2.179302 -1e-5,-0.314743 0.28295,-0.865593 0.82232,-0.865593 v -0.04327 h 8.43958 c 1.1538,0.524832 1.02757,1.380626 0,1.833063 -1.08335,0.347618 -2.1903,0.615809 -3.28929,0.908875 l 0.64921,1.558037 h 15.27778 l -0.60592,-1.731197 c -0.0899,-0.719577 -0.1618,-1.534527 0.69248,-2.163991 0.40467,-0.269772 0.92254,-0.435266 1.1925,-0.614936 0.29821,-0.726565 0.0362,-0.943134 -0.71642,-0.943134 h -4.14746 c -0.80933,0 -1.12528,-1.026944 -1.12528,-1.341676 -1e-5,0 0.22602,-1.255115 1.12528,-1.255115 z m 4.58026,10.69012 h -15.36434 c 1.54714,4.011349 2.96034,8.072729 4.41454,12.118369 3.91961,-3.26189 7.9869,-6.3619 11.77212,-9.781253 -0.23547,-0.798766 -0.45027,-1.593009 -0.82232,-2.337116 z m -17.91786,0.346246 c -0.89949,1.676486 -1.85987,3.314425 -2.85647,4.933893 2.07873,1.55886 4.2775,4.12309 4.58768,8.09333 h 2.98629 c -1.51622,-4.36254 -3.13154,-8.68973 -4.7175,-13.027223 z M 89.3437,110.40719 c 0,4.67609 3.765179,8.43957 8.396289,8.43957 4.786991,-3e-5 7.810511,-3.5593 8.266461,-6.75165 h -8.266461 c -0.98916,-1e-5 -1.64463,-0.74319 -1.64463,-1.68792 1.05085,-2.71425 2.8941,-5.30048 4.371271,-7.87694 -4.095481,-1.82105 -11.12293,1.19849 -11.12293,7.87694 z m 43.62609,-8.35302 c -1.16904,-1e-5 -2.21353,0.24302 -3.20271,0.69248 0.44974,2.42397 1.55776,4.42277 3.33254,6.10246 0.89926,-10e-6 1.5148,0.65953 1.5148,1.55808 1e-5,0.94473 -0.74538,1.68791 -1.64463,1.68791 -0.80916,-1e-5 -1.41982,-0.53307 -1.64464,-1.34168 -2.36433,-1.64378 -2.7652,-4.14794 -3.67879,-6.75165 -1.94573,1.57158 -3.02958,4.19441 -3.02958,6.40542 0,4.054 3.14197,8.43956 8.35301,8.43956 4.67609,-1e-5 8.39629,-3.72019 8.39629,-8.39629 0,-4.63042 -3.7202,-8.39629 -8.39629,-8.39629 z m -30.20934,1.64464 v 0.0866 l -3.375831,5.79951 h 6.751661 c -0.22343,-2.89902 -2.15922,-4.90139 -3.37583,-5.88606 z"
         id="_143373520"
         style="fill:#000000;fill-rule:evenodd;stroke-width:0.612906"
         inkscape:label="bike"
         sodipodi:nodetypes="ccscccssccsccccsscccccccscccccccsssccccccccccccssccscscccssccssscccccc" /></g></g></svg>
