<?xml version="1.0" encoding="UTF-8" standalone="no"?>
<!-- Created with Inkscape (http://www.inkscape.org/) -->

<svg
   height="110"
   id="svg3264"
   inkscape:output_extension="org.inkscape.output.svg.inkscape"
   inkscape:version="1.3 (0e150ed6c4, 2023-07-21)"
   sodipodi:docname="7.4.6.svg"
   sodipodi:version="0.32"
   version="1.0"
   width="200"
   xml:space="preserve"
   xmlns:inkscape="http://www.inkscape.org/namespaces/inkscape"
   xmlns:sodipodi="http://sodipodi.sourceforge.net/DTD/sodipodi-0.dtd"
   xmlns="http://www.w3.org/2000/svg"
   xmlns:svg="http://www.w3.org/2000/svg"
   xmlns:rdf="http://www.w3.org/1999/02/22-rdf-syntax-ns#"
   xmlns:cc="http://creativecommons.org/ns#"
   xmlns:dc="http://purl.org/dc/elements/1.1/"><title
     id="title1">Таблички до дорожніх знаків » ПДР Тест Центр</title><sodipodi:namedview
     bordercolor="#666666"
     borderopacity="1.0"
     gridtolerance="10000"
     guidetolerance="10"
     id="base"
     inkscape:current-layer="layer1"
     inkscape:cx="91.149803"
     inkscape:cy="85.061553"
     inkscape:document-units="px"
     inkscape:pageopacity="0.0"
     inkscape:pageshadow="2"
     inkscape:window-height="1009"
     inkscape:window-maximized="1"
     inkscape:window-width="1920"
     inkscape:window-x="-8"
     inkscape:window-y="-8"
     inkscape:zoom="2.8743891"
     objecttolerance="10"
     pagecolor="#ffffff"
     showgrid="false"
     inkscape:showpageshadow="2"
     inkscape:pagecheckerboard="0"
     inkscape:deskcolor="#d1d1d1" /><defs
     id="defs3266"><inkscape:perspective
       id="perspective3272"
       inkscape:persp3d-origin="372.04724 : 365.78244 : 1"
       inkscape:vp_x="0 : 541.17614 : 1"
       inkscape:vp_y="0 : 1000 : 0"
       inkscape:vp_z="744.09448 : 541.17614 : 1"
       sodipodi:type="inkscape:persp3d" /></defs><metadata
     id="metadata3269"><rdf:RDF><cc:Work
         rdf:about=""><dc:format>&#10;					image/svg+xml&#10;				</dc:format><dc:type
           rdf:resource="http://purl.org/dc/dcmitype/StillImage" /><cc:license
           rdf:resource="http://creativecommons.org/licenses/by-nc-sa/4.0/" /><dc:creator><cc:Agent><dc:title>ПДР Тест Центр | PDR Test Center</dc:title></cc:Agent></dc:creator><dc:rights><cc:Agent><dc:title>ПДР Тест Центр | PDR Test Center</dc:title></cc:Agent></dc:rights><dc:language>uk-UA</dc:language><dc:date>2023-09-01</dc:date><dc:title>Таблички до дорожніх знаків » ПДР Тест Центр</dc:title><dc:publisher><cc:Agent><dc:title>https://pdrtest.com/</dc:title></cc:Agent></dc:publisher><dc:source>https://pdrtest.com/driver/rules/section/33.7</dc:source></cc:Work><cc:License
         rdf:about="http://creativecommons.org/licenses/by-nc-sa/4.0/"><cc:permits
           rdf:resource="http://creativecommons.org/ns#Reproduction" /><cc:permits
           rdf:resource="http://creativecommons.org/ns#Distribution" /><cc:requires
           rdf:resource="http://creativecommons.org/ns#Notice" /><cc:requires
           rdf:resource="http://creativecommons.org/ns#Attribution" /><cc:prohibits
           rdf:resource="http://creativecommons.org/ns#CommercialUse" /><cc:permits
           rdf:resource="http://creativecommons.org/ns#DerivativeWorks" /><cc:requires
           rdf:resource="http://creativecommons.org/ns#ShareAlike" /></cc:License></rdf:RDF></metadata><g
     id="layer1"
     inkscape:groupmode="layer"
     inkscape:label="sign_7_4_6"
     transform="rotate(-90,-20.008512,502.38541)"><path
       class="fil2 str0"
       d="M 476.36678,535.69749 V 709.0914 c 0,4.01068 -4.36369,7.2924 -9.69667,7.2924 h -78.58538 c -5.33406,0 -9.69771,-3.28172 -9.69771,-7.2924 V 535.69749 c 0,-4.01171 4.36365,-7.29344 9.69771,-7.29344 h 78.58538 c 5.33298,0 9.69667,3.28173 9.69667,7.29344 z"
       id="path2394"
       sodipodi:nodetypes="cccccccccc"
       style="fill:#ffffff;fill-rule:evenodd;stroke:#000000;stroke-width:2;stroke-dasharray:none"
       inkscape:label="bg" /><path
       class="fil2 str0"
       d="m 471.4443,540.238 v 164.31284 c 0,3.80063 -3.92524,6.91049 -8.72236,6.91049 h -70.68915 c -4.79809,0 -8.72329,-3.10986 -8.72329,-6.91049 V 540.238 c 0,-3.80161 3.9252,-6.91147 8.72329,-6.91147 h 70.68915 c 4.79712,0 8.72236,3.10986 8.72236,6.91147 z"
       id="path2394-4"
       sodipodi:nodetypes="cccccccccc"
       style="fill:#ffffff;fill-rule:evenodd;stroke:#000000;stroke-width:3;stroke-dasharray:none"
       inkscape:label="black" /><text
       xml:space="preserve"
       style="font-weight:bold;font-size:37.3211px;line-height:0.3;font-family:Arial;-inkscape-font-specification:'Arial Bold';letter-spacing:0px;word-spacing:4.34836px;opacity:1;fill:#000000;fill-opacity:1;stroke-width:5.52759;stroke-linecap:square;stroke-miterlimit:0;paint-order:markers fill stroke"
       x="20.864464"
       y="134.52922"
       id="text1"
       transform="rotate(90,2.491485,524.88541)"
       inkscape:label="text"><tspan
         sodipodi:role="line"
         id="tspan1"
         x="20.864464"
         y="134.52922"
         style="fill:#000000;fill-opacity:1;stroke-width:5.52759">8.<tspan
   style="font-size:28.191px;fill:#000000;fill-opacity:1;stroke-width:5.52759"
   id="tspan2">00</tspan>-17.<tspan
   style="font-size:28.191px;fill:#000000;fill-opacity:1;stroke-width:5.52759"
   id="tspan3">00</tspan></tspan></text><path
       id="rect3"
       style="fill:#000000;fill-opacity:1;stroke-width:4.98847;stroke-linecap:square;stroke-miterlimit:0;paint-order:markers fill stroke"
       d="m 463.66811,634.86954 a 1.9808861,1.9808861 0 0 0 0,-2.7998 l -2.53247,-2.53247 a 1.9808861,1.9808861 0 0 0 -2.79979,0 l -1.69172,1.69171 -8.89935,-8.89934 8.77079,-8.77078 1.69172,1.69171 a 1.9808861,1.9808861 0 0 0 2.79979,0 l 2.53247,-2.53247 a 1.9808861,1.9808861 0 0 0 0,-2.7998 l -5.23228,-5.23226 a 4.4603683,4.4603683 0 0 0 -3.37934,-1.30195 l -6.19546,0.31426 a 0.87972772,0.87972772 0 0 0 -0.57751,1.49989 l 5.08942,5.08942 -8.77079,8.77079 -16.59266,-16.59266 -3.27119,3.27119 16.59267,16.59266 -16.72123,16.72122 3.27119,3.27119 16.72122,-16.72123 8.89936,8.89936 -5.08943,5.08942 a 0.87972772,0.87972772 0 0 0 0.57751,1.49988 l 6.19546,0.31427 a 4.4603683,4.4603683 0 0 0 3.37935,-1.30195 z"
       inkscape:label="sign" /></g></svg>
