<?xml version="1.0" encoding="UTF-8" standalone="no"?>
<!-- Created with Inkscape (http://www.inkscape.org/) -->

<svg
   height="110"
   id="svg3264"
   inkscape:output_extension="org.inkscape.output.svg.inkscape"
   inkscape:version="1.3 (0e150ed6c4, 2023-07-21)"
   sodipodi:docname="7.5.7.svg"
   sodipodi:version="0.32"
   version="1.0"
   width="200"
   xml:space="preserve"
   xmlns:inkscape="http://www.inkscape.org/namespaces/inkscape"
   xmlns:sodipodi="http://sodipodi.sourceforge.net/DTD/sodipodi-0.dtd"
   xmlns="http://www.w3.org/2000/svg"
   xmlns:svg="http://www.w3.org/2000/svg"
   xmlns:rdf="http://www.w3.org/1999/02/22-rdf-syntax-ns#"
   xmlns:cc="http://creativecommons.org/ns#"
   xmlns:dc="http://purl.org/dc/elements/1.1/"><title
     id="title1">Таблички до дорожніх знаків » ПДР Тест Центр</title><sodipodi:namedview
     bordercolor="#666666"
     borderopacity="1.0"
     gridtolerance="10000"
     guidetolerance="10"
     id="base"
     inkscape:current-layer="layer1"
     inkscape:cx="118.57319"
     inkscape:cy="84.255843"
     inkscape:document-units="px"
     inkscape:pageopacity="0.0"
     inkscape:pageshadow="2"
     inkscape:window-height="1009"
     inkscape:window-maximized="1"
     inkscape:window-width="1920"
     inkscape:window-x="-8"
     inkscape:window-y="-8"
     inkscape:zoom="4.065"
     objecttolerance="10"
     pagecolor="#ffffff"
     showgrid="false"
     inkscape:showpageshadow="2"
     inkscape:pagecheckerboard="0"
     inkscape:deskcolor="#d1d1d1" /><defs
     id="defs3266"><inkscape:perspective
       id="perspective3272"
       inkscape:persp3d-origin="372.04724 : 365.78244 : 1"
       inkscape:vp_x="0 : 541.17614 : 1"
       inkscape:vp_y="0 : 1000 : 0"
       inkscape:vp_z="744.09448 : 541.17614 : 1"
       sodipodi:type="inkscape:persp3d" /><inkscape:path-effect
       effect="fillet_chamfer"
       id="path-effect1"
       is_visible="true"
       lpeversion="1"
       nodesatellites_param="F,0,0,1,0,0,0,1 @ F,0,0,1,0,0,0,1 @ F,0,0,1,0,0,0,1 @ F,0,0,1,0,0,0,1 @ F,0,0,1,0,0,0,1 @ F,0,0,1,0,0,0,1 @ F,0,0,1,0,0,0,1 @ F,0,0,1,0,0,0,1 | F,0,0,1,0,0,0,1 @ F,0,0,1,0,0,0,1 @ F,0,0,1,0,0,0,1 @ F,0,0,1,0,0,0,1 | F,0,0,1,0,0,0,1 @ F,0,0,1,0,0,0,1 @ F,0,0,1,0,0,0,1 @ F,0,0,1,0,0,0,1 | F,0,0,1,0,0,0,1 @ F,0,0,1,0,0,0,1 @ F,0,0,1,0,0,0,1 @ F,0,0,1,0,0,0,1 | F,0,0,1,0,0,0,1 @ F,0,0,1,0,0,0,1 @ F,0,0,1,0,0,0,1 @ F,0,0,1,0,0,0,1 | F,0,0,1,0,0,0,1 @ F,0,0,1,0,0,0,1 @ F,0,0,1,0,0,0,1 @ F,0,0,1,0,0,0,1 @ F,0,0,1,0,0,0,1 @ F,0,0,1,0,0,0,1 @ F,0,0,1,0,1.2368237,0,1 @ F,0,0,1,0,1.3025606,0,1 @ F,0,0,1,0,0,0,1 @ F,0,0,1,0,0,0,1 @ F,0,0,1,0,0,0,1 @ F,0,0,1,0,0,0,1 @ F,0,0,1,0,0,0,1 @ F,0,0,1,0,0,0,1 @ F,0,0,1,0,0,0,1 @ F,0,0,1,0,0,0,1 | F,0,0,1,0,0,0,1 @ F,0,0,1,0,0,0,1 @ F,0,0,1,0,0,0,1 @ F,0,0,1,0,0,0,1 @ F,0,0,1,0,0,0,1 @ F,0,0,1,0,0,0,1 @ F,0,0,1,0,0,0,1 @ F,0,0,1,0,0,0,1 | F,0,0,1,0,0,0,1 @ F,0,0,1,0,0,0,1 @ F,0,0,1,0,0,0,1 @ F,0,0,1,0,0,0,1 @ F,0,0,1,0,0,0,1 @ F,0,0,1,0,0,0,1 @ F,0,0,1,0,0,0,1 @ F,0,0,1,0,0,0,1"
       radius="0"
       unit="px"
       method="auto"
       mode="F"
       chamfer_steps="1"
       flexible="false"
       use_knot_distance="true"
       apply_no_radius="true"
       apply_with_radius="true"
       only_selected="false"
       hide_knots="false" /></defs><metadata
     id="metadata3269"><rdf:RDF><cc:Work
         rdf:about=""><dc:format>&#10;					image/svg+xml&#10;				</dc:format><dc:type
           rdf:resource="http://purl.org/dc/dcmitype/StillImage" /><cc:license
           rdf:resource="http://creativecommons.org/licenses/by-nc-sa/4.0/" /><dc:creator><cc:Agent><dc:title>ПДР Тест Центр | PDR Test Center</dc:title></cc:Agent></dc:creator><dc:rights><cc:Agent><dc:title>ПДР Тест Центр | PDR Test Center</dc:title></cc:Agent></dc:rights><dc:language>uk-UA</dc:language><dc:date>2023-09-01</dc:date><dc:title>Таблички до дорожніх знаків » ПДР Тест Центр</dc:title><dc:publisher><cc:Agent><dc:title>https://pdrtest.com/</dc:title></cc:Agent></dc:publisher><dc:source>https://pdrtest.com/driver/rules/section/33.7</dc:source></cc:Work><cc:License
         rdf:about="http://creativecommons.org/licenses/by-nc-sa/4.0/"><cc:permits
           rdf:resource="http://creativecommons.org/ns#Reproduction" /><cc:permits
           rdf:resource="http://creativecommons.org/ns#Distribution" /><cc:requires
           rdf:resource="http://creativecommons.org/ns#Notice" /><cc:requires
           rdf:resource="http://creativecommons.org/ns#Attribution" /><cc:prohibits
           rdf:resource="http://creativecommons.org/ns#CommercialUse" /><cc:permits
           rdf:resource="http://creativecommons.org/ns#DerivativeWorks" /><cc:requires
           rdf:resource="http://creativecommons.org/ns#ShareAlike" /></cc:License></rdf:RDF></metadata><g
     id="layer1"
     inkscape:groupmode="layer"
     inkscape:label="sign_7_5_5"
     transform="rotate(-90,-20.008512,502.38541)"><path
       class="fil2 str0"
       d="M 476.36678,535.69749 V 709.0914 c 0,4.01068 -4.36369,7.2924 -9.69667,7.2924 h -78.58538 c -5.33406,0 -9.69771,-3.28172 -9.69771,-7.2924 V 535.69749 c 0,-4.01171 4.36365,-7.29344 9.69771,-7.29344 h 78.58538 c 5.33298,0 9.69667,3.28173 9.69667,7.29344 z"
       id="path2394"
       sodipodi:nodetypes="cccccccccc"
       style="fill:#ffffff;fill-rule:evenodd;stroke:#000000;stroke-width:2;stroke-dasharray:none"
       inkscape:label="bg" /><path
       class="fil2 str0"
       d="m 471.4443,540.238 v 164.31284 c 0,3.80063 -3.92524,6.91049 -8.72236,6.91049 h -70.68915 c -4.79809,0 -8.72329,-3.10986 -8.72329,-6.91049 V 540.238 c 0,-3.80161 3.9252,-6.91147 8.72329,-6.91147 h 70.68915 c 4.79712,0 8.72236,3.10986 8.72236,6.91147 z"
       id="path2394-4"
       sodipodi:nodetypes="cccccccccc"
       style="fill:#ffffff;fill-rule:evenodd;stroke:#000000;stroke-width:3;stroke-dasharray:none"
       inkscape:label="black" /><path
       d="m 458.05315,614.04531 c -0.11223,-2.76594 -0.14819,-8.48259 -0.14819,-11.25011 -0.38489,-1.84747 -2.05951,-4.29763 -4.44584,-4.29763 -2.84819,0 -4.34897,2.89474 -4.96451,4.74222 -0.15395,0.6928 -1.21932,1.42544 -2.29702,0.96326 l -13.48572,-4.96451 c 0.69284,-2.15567 1.25968,-4.50186 1.25968,-6.96513 1e-5,-10.39171 -8.2073,-18.67253 -18.59842,-18.67253 -10.47017,0 -18.6725,8.28082 -18.6725,18.67253 h 0.0741 c 3e-5,10.39361 8.36664,18.5984 18.67247,18.5984 8.40955,4e-5 13.64755,-5.82611 15.26406,-7.92841 l 0.81506,0.29639 c -4.643,5.4392 -10.51157,12.62309 -18.9689,23.11835 v 7.7061 c -9.10508,1.25522 -15.7827,9.10008 -15.7827,18.52433 2e-5,10.39171 8.2023,18.5984 18.67248,18.5984 11.03444,-2e-5 22.36899,-9.98825 17.33876,-25.63765 4.72929,-2.8587 8.97537,-5.31874 11.70737,-6.81694 l 1.48195,0.59277 c -0.79095,1.65609 -0.67732,3.17225 0.37048,4.66814 1.2562,1.73855 1.81268,1.40784 3.73107,1.40784 0.53887,3e-5 1.48195,-0.48443 1.48195,-1.40784 h 0.0741 v -14.44898 c -0.89855,-1.97538 -2.36371,-1.75926 -3.1383,0 -0.59515,1.85475 -1.0543,3.7499 -1.55605,5.6314 l -2.66749,-1.11147 v -26.15633 l 2.96388,1.03737 c 1.23197,0.15395 2.6272,0.27702 3.70486,-1.18557 0.46188,-0.6928 0.74521,-1.57943 1.05281,-2.04161 1.24393,-0.51056 1.6147,-0.0621 1.6147,1.22655 v 7.10066 c 0,1.3856 1.75818,1.92653 2.29702,1.92653 0,2e-5 2.14882,-0.38697 2.14882,-1.92653 z m -18.30204,-7.84163 v 26.30452 c -6.86762,-2.64877 -13.8209,-5.06826 -20.74722,-7.55792 5.5845,-6.71057 10.89187,-13.67398 16.74598,-20.15444 1.36754,0.40312 2.72731,0.77087 4.00124,1.40784 z m -0.59277,30.67626 c -2.87024,1.53998 -5.67447,3.18421 -8.44707,4.89042 -2.66886,-3.55885 -7.05892,-7.32327 -13.8562,-7.85432 v -5.1127 c 7.46889,2.59586 14.87727,5.36137 22.30327,8.0766 z m -23.71112,30.0835 c -8.00569,2e-5 -14.44896,-6.44615 -14.44896,-14.37487 5e-5,-8.19555 6.09369,-13.37198 11.55917,-14.15258 v 14.15258 c 2e-5,1.69349 1.27238,2.8157 2.88979,2.8157 4.64693,-1.79912 9.0747,-4.95484 13.48571,-7.48381 3.11773,7.01164 -2.05187,19.04298 -13.48571,19.04298 z M 429.748,592.27341 c 4e-5,2.00144 -0.41605,3.78966 -1.18555,5.48318 -4.14996,-0.76998 -7.57199,-2.66696 -10.44771,-5.70549 3e-5,-1.53957 -1.12914,-2.5934 -2.66752,-2.5934 -1.6174,-2e-5 -2.88978,1.27614 -2.88978,2.81571 3e-5,1.38531 0.91265,2.43078 2.29701,2.81568 2.81425,4.04786 7.10149,4.73416 11.55918,6.29827 -2.69063,3.3312 -7.18105,5.1868 -10.96641,5.1868 -6.94065,0 -14.44894,-5.37921 -14.44894,-14.30075 10e-6,-8.00571 6.36915,-14.37489 14.37487,-14.37489 7.92752,0 14.37486,6.36918 14.37485,14.37489 z m -2.81569,51.71988 h -0.14819 l -9.92903,5.77958 v -11.55918 c 4.96326,0.38252 8.3914,3.69669 10.07722,5.7796 z"
       id="_143373520"
       style="fill:#000000;fill-opacity:1;fill-rule:evenodd;stroke-width:1.04932"
       inkscape:label="sign"
       sodipodi:nodetypes="ccscccssccsccccsscccccccscccccccsssccccccccccccssccscscccssccssscccccc" /></g></svg>
