<?xml version="1.0" encoding="UTF-8" standalone="no"?>
<!-- Created with Inkscape (http://www.inkscape.org/) -->

<svg
   height="110"
   id="svg3264"
   inkscape:output_extension="org.inkscape.output.svg.inkscape"
   inkscape:version="1.3 (0e150ed6c4, 2023-07-21)"
   sodipodi:docname="7.5.1.svg"
   sodipodi:version="0.32"
   version="1.0"
   width="200"
   xml:space="preserve"
   xmlns:inkscape="http://www.inkscape.org/namespaces/inkscape"
   xmlns:sodipodi="http://sodipodi.sourceforge.net/DTD/sodipodi-0.dtd"
   xmlns="http://www.w3.org/2000/svg"
   xmlns:svg="http://www.w3.org/2000/svg"
   xmlns:rdf="http://www.w3.org/1999/02/22-rdf-syntax-ns#"
   xmlns:cc="http://creativecommons.org/ns#"
   xmlns:dc="http://purl.org/dc/elements/1.1/"><title
     id="title1">Таблички до дорожніх знаків » ПДР Тест Центр</title><sodipodi:namedview
     bordercolor="#666666"
     borderopacity="1.0"
     gridtolerance="10000"
     guidetolerance="10"
     id="base"
     inkscape:current-layer="layer1"
     inkscape:cx="113.0675"
     inkscape:cy="80.538854"
     inkscape:document-units="px"
     inkscape:pageopacity="0.0"
     inkscape:pageshadow="2"
     inkscape:window-height="1009"
     inkscape:window-maximized="1"
     inkscape:window-width="1920"
     inkscape:window-x="-8"
     inkscape:window-y="-8"
     inkscape:zoom="2.8743891"
     objecttolerance="10"
     pagecolor="#ffffff"
     showgrid="false"
     inkscape:showpageshadow="2"
     inkscape:pagecheckerboard="0"
     inkscape:deskcolor="#d1d1d1" /><defs
     id="defs3266"><inkscape:perspective
       id="perspective3272"
       inkscape:persp3d-origin="372.04724 : 365.78244 : 1"
       inkscape:vp_x="0 : 541.17614 : 1"
       inkscape:vp_y="0 : 1000 : 0"
       inkscape:vp_z="744.09448 : 541.17614 : 1"
       sodipodi:type="inkscape:persp3d" /><inkscape:path-effect
       effect="fillet_chamfer"
       id="path-effect1"
       is_visible="true"
       lpeversion="1"
       nodesatellites_param="F,0,0,1,0,0,0,1 @ F,0,0,1,0,0,0,1 @ F,0,0,1,0,0,0,1 @ F,0,0,1,0,0,0,1 @ F,0,0,1,0,0,0,1 @ F,0,0,1,0,0,0,1 @ F,0,0,1,0,0,0,1 @ F,0,0,1,0,0,0,1 | F,0,0,1,0,0,0,1 @ F,0,0,1,0,0,0,1 @ F,0,0,1,0,0,0,1 @ F,0,0,1,0,0,0,1 | F,0,0,1,0,0,0,1 @ F,0,0,1,0,0,0,1 @ F,0,0,1,0,0,0,1 @ F,0,0,1,0,0,0,1 | F,0,0,1,0,0,0,1 @ F,0,0,1,0,0,0,1 @ F,0,0,1,0,0,0,1 @ F,0,0,1,0,0,0,1 | F,0,0,1,0,0,0,1 @ F,0,0,1,0,0,0,1 @ F,0,0,1,0,0,0,1 @ F,0,0,1,0,0,0,1 | F,0,0,1,0,0,0,1 @ F,0,0,1,0,0,0,1 @ F,0,0,1,0,0,0,1 @ F,0,0,1,0,0,0,1 @ F,0,0,1,0,0,0,1 @ F,0,0,1,0,0,0,1 @ F,0,0,1,0,1.2368237,0,1 @ F,0,0,1,0,1.3025606,0,1 @ F,0,0,1,0,0,0,1 @ F,0,0,1,0,0,0,1 @ F,0,0,1,0,0,0,1 @ F,0,0,1,0,0,0,1 @ F,0,0,1,0,0,0,1 @ F,0,0,1,0,0,0,1 @ F,0,0,1,0,0,0,1 @ F,0,0,1,0,0,0,1 | F,0,0,1,0,0,0,1 @ F,0,0,1,0,0,0,1 @ F,0,0,1,0,0,0,1 @ F,0,0,1,0,0,0,1 @ F,0,0,1,0,0,0,1 @ F,0,0,1,0,0,0,1 @ F,0,0,1,0,0,0,1 @ F,0,0,1,0,0,0,1 | F,0,0,1,0,0,0,1 @ F,0,0,1,0,0,0,1 @ F,0,0,1,0,0,0,1 @ F,0,0,1,0,0,0,1 @ F,0,0,1,0,0,0,1 @ F,0,0,1,0,0,0,1 @ F,0,0,1,0,0,0,1 @ F,0,0,1,0,0,0,1"
       radius="0"
       unit="px"
       method="auto"
       mode="F"
       chamfer_steps="1"
       flexible="false"
       use_knot_distance="true"
       apply_no_radius="true"
       apply_with_radius="true"
       only_selected="false"
       hide_knots="false" /></defs><metadata
     id="metadata3269"><rdf:RDF><cc:Work
         rdf:about=""><dc:format>&#10;					image/svg+xml&#10;				</dc:format><dc:type
           rdf:resource="http://purl.org/dc/dcmitype/StillImage" /><cc:license
           rdf:resource="http://creativecommons.org/licenses/by-nc-sa/4.0/" /><dc:creator><cc:Agent><dc:title>ПДР Тест Центр | PDR Test Center</dc:title></cc:Agent></dc:creator><dc:rights><cc:Agent><dc:title>ПДР Тест Центр | PDR Test Center</dc:title></cc:Agent></dc:rights><dc:language>uk-UA</dc:language><dc:date>2023-09-01</dc:date><dc:title>Таблички до дорожніх знаків » ПДР Тест Центр</dc:title><dc:publisher><cc:Agent><dc:title>https://pdrtest.com/</dc:title></cc:Agent></dc:publisher><dc:source>https://pdrtest.com/driver/rules/section/33.7</dc:source></cc:Work><cc:License
         rdf:about="http://creativecommons.org/licenses/by-nc-sa/4.0/"><cc:permits
           rdf:resource="http://creativecommons.org/ns#Reproduction" /><cc:permits
           rdf:resource="http://creativecommons.org/ns#Distribution" /><cc:requires
           rdf:resource="http://creativecommons.org/ns#Notice" /><cc:requires
           rdf:resource="http://creativecommons.org/ns#Attribution" /><cc:prohibits
           rdf:resource="http://creativecommons.org/ns#CommercialUse" /><cc:permits
           rdf:resource="http://creativecommons.org/ns#DerivativeWorks" /><cc:requires
           rdf:resource="http://creativecommons.org/ns#ShareAlike" /></cc:License></rdf:RDF></metadata><g
     id="layer1"
     inkscape:groupmode="layer"
     inkscape:label="sign_7_5_1"
     transform="rotate(-90,-20.008512,502.38541)"><path
       class="fil2 str0"
       d="M 476.36678,535.69749 V 709.0914 c 0,4.01068 -4.36369,7.2924 -9.69667,7.2924 h -78.58538 c -5.33406,0 -9.69771,-3.28172 -9.69771,-7.2924 V 535.69749 c 0,-4.01171 4.36365,-7.29344 9.69771,-7.29344 h 78.58538 c 5.33298,0 9.69667,3.28173 9.69667,7.29344 z"
       id="path2394"
       sodipodi:nodetypes="cccccccccc"
       style="fill:#ffffff;fill-rule:evenodd;stroke:#000000;stroke-width:2;stroke-dasharray:none"
       inkscape:label="bg" /><path
       class="fil2 str0"
       d="m 471.4443,540.238 v 164.31284 c 0,3.80063 -3.92524,6.91049 -8.72236,6.91049 h -70.68915 c -4.79809,0 -8.72329,-3.10986 -8.72329,-6.91049 V 540.238 c 0,-3.80161 3.9252,-6.91147 8.72329,-6.91147 h 70.68915 c 4.79712,0 8.72236,3.10986 8.72236,6.91147 z"
       id="path2394-4"
       sodipodi:nodetypes="cccccccccc"
       style="fill:#ffffff;fill-rule:evenodd;stroke:#000000;stroke-width:3;stroke-dasharray:none"
       inkscape:label="black" /><path
       class="fil2 str0"
       d="m 87.539642,58.388301 h 58.874678 c 2.54087,0 4.44653,2.065282 4.44653,4.606108 v 32.293285 c 0,2.540834 -1.90566,4.446484 -4.44653,4.446484 H 87.539642 c -2.540886,0 -4.446534,-1.90565 -4.446534,-4.446484 V 62.994409 c 0,-2.540826 1.905648,-4.606108 4.446534,-4.606108 z m 37.591328,57.863559 c -2.38224,0 -4.44654,-2.06416 -4.44654,-4.44645 0,-2.54199 2.0643,-4.44762 4.44654,-4.44762 2.54182,0 4.60614,1.90563 4.60614,4.44762 0,2.38229 -2.06432,4.44645 -4.60614,4.44645 z m 0,6.19472 c -5.55834,0 -10.64136,-4.76466 -10.64136,-10.64117 0,-5.87654 5.08302,-10.48264 10.64136,-10.48264 5.71793,0 10.64231,4.6061 10.64231,10.48264 0,5.87651 -4.92438,10.64117 -10.64231,10.64117 z m -63.21292,-6.19472 c -2.382242,0 -4.446544,-2.06416 -4.446544,-4.44645 0,-2.54199 2.064302,-4.44762 4.446544,-4.44762 2.541822,0 4.447479,1.90563 4.447479,4.44762 0,2.38229 -1.905657,4.44645 -4.447479,4.44645 z m 0,6.19472 c -5.716979,0 -10.641042,-4.76466 -10.641042,-10.64117 0,-5.87654 4.924063,-10.48264 10.641042,-10.48264 5.877522,0 10.482711,4.6061 10.482711,10.48264 0,5.87651 -4.605189,10.64117 -10.482711,10.64117 z m -11.911487,-9.21224 c 0,-0.4767 -0.158636,-1.11189 -0.158636,-1.42893 0,-6.51177 5.558323,-12.071232 12.070123,-12.071232 6.671389,0 12.071067,5.559462 12.071067,12.071232 0,0.47667 0,0.95223 -0.158323,1.42893 h 36.148096 c 0.45713,-3.07332 0.13405,-5.47343 2.48674,-8.78604 0.39533,-0.55664 0.9943,-1.5977 0.63901,-2.12445 -0.0968,-0.14358 -0.21491,-0.28215 -0.34465,-0.40806 -0.5055,-0.49056 -1.71237,-0.59302 -2.43175,-0.59302 l -33.321354,0 V 70.730598 c 0,-1.2704 -1.270435,-2.859001 -3.017769,-2.859001 H 52.865363 c -1.746993,0 -2.540869,1.428932 -3.176082,2.859001 l -5.876578,19.950989 v 19.535223 c 0,1.5886 1.429081,3.01753 3.176101,3.01753 z m 89.886117,-11.91157 h 9.53909 c 0.79387,0 1.42908,0.47667 1.42908,1.42892 v 11.25584 c 0,0.95338 -0.63521,1.5886 -1.42908,1.5886 h -9.53909 c -0.95346,0 -1.58868,-0.63522 -1.58868,-1.5886 v -11.25584 c 0,-0.95225 0.63522,-1.42892 1.58868,-1.42892 z M 72.130726,72.31919 h -16.2479 c -0.635221,0 -1.270434,0.793737 -1.588382,1.428958 l -3.017436,13.914786 c -0.158638,0.636324 0.794811,1.430061 1.588355,1.430061 h 19.265363 c 0.793553,0 1.58742,-0.635213 1.58742,-1.430061 V 73.748148 c 0,-0.793745 -1.110852,-1.428958 -1.58742,-1.428958 z"
       id="_146527632"
       style="display:inline;fill:#000000;fill-rule:evenodd;stroke:#000000;stroke-width:0.0146155"
       inkscape:label="sign"
       sodipodi:nodetypes="ssssssssssssssssssssssssssssscsssccsscsssccsscsssssssssssccsssss"
       inkscape:path-effect="#path-effect1"
       inkscape:original-d="m 87.539642,58.388301 h 58.874678 c 2.54087,0 4.44653,2.065282 4.44653,4.606108 v 32.293285 c 0,2.540834 -1.90566,4.446484 -4.44653,4.446484 H 87.539642 c -2.540886,0 -4.446534,-1.90565 -4.446534,-4.446484 V 62.994409 c 0,-2.540826 1.905648,-4.606108 4.446534,-4.606108 z m 37.591328,57.863559 c -2.38224,0 -4.44654,-2.06416 -4.44654,-4.44645 0,-2.54199 2.0643,-4.44762 4.44654,-4.44762 2.54182,0 4.60614,1.90563 4.60614,4.44762 0,2.38229 -2.06432,4.44645 -4.60614,4.44645 z m 0,6.19472 c -5.55834,0 -10.64136,-4.76466 -10.64136,-10.64117 0,-5.87654 5.08302,-10.48264 10.64136,-10.48264 5.71793,0 10.64231,4.6061 10.64231,10.48264 0,5.87651 -4.92438,10.64117 -10.64231,10.64117 z m -63.21292,-6.19472 c -2.382242,0 -4.446544,-2.06416 -4.446544,-4.44645 0,-2.54199 2.064302,-4.44762 4.446544,-4.44762 2.541822,0 4.447479,1.90563 4.447479,4.44762 0,2.38229 -1.905657,4.44645 -4.447479,4.44645 z m 0,6.19472 c -5.716979,0 -10.641042,-4.76466 -10.641042,-10.64117 0,-5.87654 4.924063,-10.48264 10.641042,-10.48264 5.877522,0 10.482711,4.6061 10.482711,10.48264 0,5.87651 -4.605189,10.64117 -10.482711,10.64117 z m -11.911487,-9.21224 c 0,-0.4767 -0.158636,-1.11189 -0.158636,-1.42893 0,-6.51177 5.558323,-12.071232 12.070123,-12.071232 6.671389,0 12.071067,5.559462 12.071067,12.071232 0,0.47667 0,0.95223 -0.158323,1.42893 h 36.148096 c 0.50097,-3.36809 0.0649,-5.92764 3.24059,-9.76579 0.60704,-0.73367 -0.79385,-2.14578 -1.58868,-2.14578 H 77.006886 V 70.730598 c 0,-1.2704 -1.270435,-2.859001 -3.017769,-2.859001 H 52.865363 c -1.746993,0 -2.540869,1.428932 -3.176082,2.859001 l -5.876578,19.950989 v 19.535223 c 0,1.5886 1.429081,3.01753 3.176101,3.01753 z m 89.886117,-11.91157 h 9.53909 c 0.79387,0 1.42908,0.47667 1.42908,1.42892 v 11.25584 c 0,0.95338 -0.63521,1.5886 -1.42908,1.5886 h -9.53909 c -0.95346,0 -1.58868,-0.63522 -1.58868,-1.5886 v -11.25584 c 0,-0.95225 0.63522,-1.42892 1.58868,-1.42892 z M 72.130726,72.31919 h -16.2479 c -0.635221,0 -1.270434,0.793737 -1.588382,1.428958 l -3.017436,13.914786 c -0.158638,0.636324 0.794811,1.430061 1.588355,1.430061 h 19.265363 c 0.793553,0 1.58742,-0.635213 1.58742,-1.430061 V 73.748148 c 0,-0.793745 -1.110852,-1.428958 -1.58742,-1.428958 z"
       transform="rotate(90,-3.6314071,521.42574)" /></g></svg>
