<?xml version="1.0" encoding="UTF-8" standalone="no"?>
<!-- Created with Inkscape (http://www.inkscape.org/) -->

<svg
   height="110"
   id="svg3264"
   inkscape:output_extension="org.inkscape.output.svg.inkscape"
   inkscape:version="1.3 (0e150ed6c4, 2023-07-21)"
   sodipodi:docname="7.5.6.svg"
   sodipodi:version="0.32"
   version="1.0"
   width="200"
   xml:space="preserve"
   xmlns:inkscape="http://www.inkscape.org/namespaces/inkscape"
   xmlns:sodipodi="http://sodipodi.sourceforge.net/DTD/sodipodi-0.dtd"
   xmlns="http://www.w3.org/2000/svg"
   xmlns:svg="http://www.w3.org/2000/svg"
   xmlns:rdf="http://www.w3.org/1999/02/22-rdf-syntax-ns#"
   xmlns:cc="http://creativecommons.org/ns#"
   xmlns:dc="http://purl.org/dc/elements/1.1/"><title
     id="title1">Таблички до дорожніх знаків » ПДР Тест Центр</title><sodipodi:namedview
     bordercolor="#666666"
     borderopacity="1.0"
     gridtolerance="10000"
     guidetolerance="10"
     id="base"
     inkscape:current-layer="layer1"
     inkscape:cx="118.57319"
     inkscape:cy="84.255843"
     inkscape:document-units="px"
     inkscape:pageopacity="0.0"
     inkscape:pageshadow="2"
     inkscape:window-height="1009"
     inkscape:window-maximized="1"
     inkscape:window-width="1920"
     inkscape:window-x="-8"
     inkscape:window-y="-8"
     inkscape:zoom="4.065"
     objecttolerance="10"
     pagecolor="#ffffff"
     showgrid="false"
     inkscape:showpageshadow="2"
     inkscape:pagecheckerboard="0"
     inkscape:deskcolor="#d1d1d1" /><defs
     id="defs3266"><inkscape:perspective
       id="perspective3272"
       inkscape:persp3d-origin="372.04724 : 365.78244 : 1"
       inkscape:vp_x="0 : 541.17614 : 1"
       inkscape:vp_y="0 : 1000 : 0"
       inkscape:vp_z="744.09448 : 541.17614 : 1"
       sodipodi:type="inkscape:persp3d" /><inkscape:path-effect
       effect="fillet_chamfer"
       id="path-effect1"
       is_visible="true"
       lpeversion="1"
       nodesatellites_param="F,0,0,1,0,0,0,1 @ F,0,0,1,0,0,0,1 @ F,0,0,1,0,0,0,1 @ F,0,0,1,0,0,0,1 @ F,0,0,1,0,0,0,1 @ F,0,0,1,0,0,0,1 @ F,0,0,1,0,0,0,1 @ F,0,0,1,0,0,0,1 | F,0,0,1,0,0,0,1 @ F,0,0,1,0,0,0,1 @ F,0,0,1,0,0,0,1 @ F,0,0,1,0,0,0,1 | F,0,0,1,0,0,0,1 @ F,0,0,1,0,0,0,1 @ F,0,0,1,0,0,0,1 @ F,0,0,1,0,0,0,1 | F,0,0,1,0,0,0,1 @ F,0,0,1,0,0,0,1 @ F,0,0,1,0,0,0,1 @ F,0,0,1,0,0,0,1 | F,0,0,1,0,0,0,1 @ F,0,0,1,0,0,0,1 @ F,0,0,1,0,0,0,1 @ F,0,0,1,0,0,0,1 | F,0,0,1,0,0,0,1 @ F,0,0,1,0,0,0,1 @ F,0,0,1,0,0,0,1 @ F,0,0,1,0,0,0,1 @ F,0,0,1,0,0,0,1 @ F,0,0,1,0,0,0,1 @ F,0,0,1,0,1.2368237,0,1 @ F,0,0,1,0,1.3025606,0,1 @ F,0,0,1,0,0,0,1 @ F,0,0,1,0,0,0,1 @ F,0,0,1,0,0,0,1 @ F,0,0,1,0,0,0,1 @ F,0,0,1,0,0,0,1 @ F,0,0,1,0,0,0,1 @ F,0,0,1,0,0,0,1 @ F,0,0,1,0,0,0,1 | F,0,0,1,0,0,0,1 @ F,0,0,1,0,0,0,1 @ F,0,0,1,0,0,0,1 @ F,0,0,1,0,0,0,1 @ F,0,0,1,0,0,0,1 @ F,0,0,1,0,0,0,1 @ F,0,0,1,0,0,0,1 @ F,0,0,1,0,0,0,1 | F,0,0,1,0,0,0,1 @ F,0,0,1,0,0,0,1 @ F,0,0,1,0,0,0,1 @ F,0,0,1,0,0,0,1 @ F,0,0,1,0,0,0,1 @ F,0,0,1,0,0,0,1 @ F,0,0,1,0,0,0,1 @ F,0,0,1,0,0,0,1"
       radius="0"
       unit="px"
       method="auto"
       mode="F"
       chamfer_steps="1"
       flexible="false"
       use_knot_distance="true"
       apply_no_radius="true"
       apply_with_radius="true"
       only_selected="false"
       hide_knots="false" /></defs><metadata
     id="metadata3269"><rdf:RDF><cc:Work
         rdf:about=""><dc:format>&#10;					image/svg+xml&#10;				</dc:format><dc:type
           rdf:resource="http://purl.org/dc/dcmitype/StillImage" /><cc:license
           rdf:resource="http://creativecommons.org/licenses/by-nc-sa/4.0/" /><dc:creator><cc:Agent><dc:title>ПДР Тест Центр | PDR Test Center</dc:title></cc:Agent></dc:creator><dc:rights><cc:Agent><dc:title>ПДР Тест Центр | PDR Test Center</dc:title></cc:Agent></dc:rights><dc:language>uk-UA</dc:language><dc:date>2023-09-01</dc:date><dc:title>Таблички до дорожніх знаків » ПДР Тест Центр</dc:title><dc:publisher><cc:Agent><dc:title>https://pdrtest.com/</dc:title></cc:Agent></dc:publisher><dc:source>https://pdrtest.com/driver/rules/section/33.7</dc:source></cc:Work><cc:License
         rdf:about="http://creativecommons.org/licenses/by-nc-sa/4.0/"><cc:permits
           rdf:resource="http://creativecommons.org/ns#Reproduction" /><cc:permits
           rdf:resource="http://creativecommons.org/ns#Distribution" /><cc:requires
           rdf:resource="http://creativecommons.org/ns#Notice" /><cc:requires
           rdf:resource="http://creativecommons.org/ns#Attribution" /><cc:prohibits
           rdf:resource="http://creativecommons.org/ns#CommercialUse" /><cc:permits
           rdf:resource="http://creativecommons.org/ns#DerivativeWorks" /><cc:requires
           rdf:resource="http://creativecommons.org/ns#ShareAlike" /></cc:License></rdf:RDF></metadata><g
     id="layer1"
     inkscape:groupmode="layer"
     inkscape:label="sign_7_5_5"
     transform="rotate(-90,-20.008512,502.38541)"><path
       class="fil2 str0"
       d="M 476.36678,535.69749 V 709.0914 c 0,4.01068 -4.36369,7.2924 -9.69667,7.2924 h -78.58538 c -5.33406,0 -9.69771,-3.28172 -9.69771,-7.2924 V 535.69749 c 0,-4.01171 4.36365,-7.29344 9.69771,-7.29344 h 78.58538 c 5.33298,0 9.69667,3.28173 9.69667,7.29344 z"
       id="path2394"
       sodipodi:nodetypes="cccccccccc"
       style="fill:#ffffff;fill-rule:evenodd;stroke:#000000;stroke-width:2;stroke-dasharray:none"
       inkscape:label="bg" /><path
       class="fil2 str0"
       d="m 471.4443,540.238 v 164.31284 c 0,3.80063 -3.92524,6.91049 -8.72236,6.91049 h -70.68915 c -4.79809,0 -8.72329,-3.10986 -8.72329,-6.91049 V 540.238 c 0,-3.80161 3.9252,-6.91147 8.72329,-6.91147 h 70.68915 c 4.79712,0 8.72236,3.10986 8.72236,6.91147 z"
       id="path2394-4"
       sodipodi:nodetypes="cccccccccc"
       style="fill:#ffffff;fill-rule:evenodd;stroke:#000000;stroke-width:3;stroke-dasharray:none"
       inkscape:label="black" /><path
       class="fil2 str0"
       d="m 398.6397,657.63858 c 0,-9.6521 7.60482,-17.25679 17.25698,-17.25679 7.45872,0 13.74664,4.60713 16.23324,11.26107 l 3.80243,-0.65834 v -22.1559 c 0,-0.80455 1.02364,-1.53612 1.46296,-1.46289 l 4.3137,1.46289 c 0.65845,0.21909 1.46184,0.73157 1.46184,1.46279 v 28.73708 c 0,2.10251 -7.2385,2.30097 -7.2385,0 v -2.26734 l -2.77875,0.43916 v 0.43827 c 0,9.50624 -7.75093,17.25692 -17.25692,17.25692 -9.65215,0 -17.25698,-7.75068 -17.25698,-17.25692 z m 9.94427,-18.7916 c 2.26751,-0.87752 4.75303,-1.38999 7.31271,-1.38999 6.14294,0 11.62632,2.77894 15.28266,7.09234 1.02362,-0.36495 1.97426,-1.5348 1.97426,-2.77763 v -15.13658 c 0,-5.12382 -11.62636,-4.44759 -11.62636,-10.8229 0,-2.77764 1.68208,-3.94845 2.92485,-4.31349 l 11.55329,-2.99795 v 11.69938 c 0,6.04309 11.48026,6.04313 11.48026,0 v -14.62418 l 2.85184,-0.73158 v 3.87547 c 0,3.76605 5.77662,3.76606 5.77662,0 v -10.89492 c 0,-6.37537 -10.09031,-7.05384 -10.09031,0.36539 l -13.45453,-6.5082 c 0.43824,-1.46192 0.58433,-2.9248 0.58433,-4.53293 0,-9.65303 -7.75092,-17.25687 -17.25691,-17.25687 -9.65215,0 -17.25698,7.60384 -17.25698,17.25687 0,9.50501 7.60483,17.25692 17.25698,17.25692 5.92269,0 11.18811,-2.92603 14.25901,-7.45861 l 6.14183,2.85183 c -0.37527,0.93065 -0.29214,1.94167 -0.29214,2.9248 l -25.95842,7.01937 c -1.31579,0.29206 -1.46299,1.38991 -1.46299,3.21809 z m 14.84446,-45.04467 -4.24173,-1.97431 c -0.94948,0.6586 -2.04728,1.02364 -3.3631,1.02364 -3.07089,0 -5.70362,-2.63142 -5.70362,-5.70243 0,-3.21809 2.63273,-5.70366 5.70362,-5.70366 2.9979,0 5.4115,2.1935 5.70364,5.04533 l 4.24062,1.97404 c 0.0742,-0.43915 0.0742,-0.87743 0.0742,-1.31571 0,-5.55744 -4.38782,-10.09129 -9.94536,-10.09129 -5.55755,0 -10.09147,4.53385 -10.09147,10.09129 0,5.55658 4.53392,9.94417 10.09147,9.94417 3.0709,0 5.70361,-1.24274 7.53176,-3.29107 z m 1.3158,59.08338 -4.67997,0.87743 c -1.02366,-1.16951 -2.55855,-1.90117 -4.24066,-1.90117 -3.14391,0 -5.70362,2.55985 -5.70362,5.70374 0,3.1439 2.55971,5.70366 5.70362,5.70366 2.41362,0 4.53393,-1.60909 5.33846,-3.72934 l 4.67997,-0.95067 c -0.43936,5.1183 -4.67997,8.99473 -9.94535,8.99473 -5.55756,0 -10.09148,-4.38769 -10.09148,-9.94548 0,-5.55745 4.53392,-10.09029 10.09148,-10.09029 3.87541,0 7.16659,2.1935 8.84755,5.33739 z"
       id="_144348800"
       style="display:inline;fill:#000000;fill-rule:evenodd;stroke:#000000;stroke-width:0.0146074"
       inkscape:label="sign"
       sodipodi:nodetypes="ssccsccsssccssscscsssccssccsssccssssccccscccsssccssssscccsssccsssc" /></g></svg>
