<?xml version="1.0" encoding="UTF-8" standalone="no"?>
<!-- Created with Inkscape (http://www.inkscape.org/) -->

<svg
   height="110"
   id="svg3264"
   inkscape:output_extension="org.inkscape.output.svg.inkscape"
   inkscape:version="1.3 (0e150ed6c4, 2023-07-21)"
   sodipodi:docname="7.5.2.svg"
   sodipodi:version="0.32"
   version="1.0"
   width="200"
   xml:space="preserve"
   xmlns:inkscape="http://www.inkscape.org/namespaces/inkscape"
   xmlns:sodipodi="http://sodipodi.sourceforge.net/DTD/sodipodi-0.dtd"
   xmlns="http://www.w3.org/2000/svg"
   xmlns:svg="http://www.w3.org/2000/svg"
   xmlns:rdf="http://www.w3.org/1999/02/22-rdf-syntax-ns#"
   xmlns:cc="http://creativecommons.org/ns#"
   xmlns:dc="http://purl.org/dc/elements/1.1/"><title
     id="title1">Таблички до дорожніх знаків » ПДР Тест Центр</title><sodipodi:namedview
     bordercolor="#666666"
     borderopacity="1.0"
     gridtolerance="10000"
     guidetolerance="10"
     id="base"
     inkscape:current-layer="layer1"
     inkscape:cx="118.57319"
     inkscape:cy="84.255843"
     inkscape:document-units="px"
     inkscape:pageopacity="0.0"
     inkscape:pageshadow="2"
     inkscape:window-height="1009"
     inkscape:window-maximized="1"
     inkscape:window-width="1920"
     inkscape:window-x="-8"
     inkscape:window-y="-8"
     inkscape:zoom="4.065"
     objecttolerance="10"
     pagecolor="#ffffff"
     showgrid="false"
     inkscape:showpageshadow="2"
     inkscape:pagecheckerboard="0"
     inkscape:deskcolor="#d1d1d1" /><defs
     id="defs3266"><inkscape:perspective
       id="perspective3272"
       inkscape:persp3d-origin="372.04724 : 365.78244 : 1"
       inkscape:vp_x="0 : 541.17614 : 1"
       inkscape:vp_y="0 : 1000 : 0"
       inkscape:vp_z="744.09448 : 541.17614 : 1"
       sodipodi:type="inkscape:persp3d" /><inkscape:path-effect
       effect="fillet_chamfer"
       id="path-effect1"
       is_visible="true"
       lpeversion="1"
       nodesatellites_param="F,0,0,1,0,0,0,1 @ F,0,0,1,0,0,0,1 @ F,0,0,1,0,0,0,1 @ F,0,0,1,0,0,0,1 @ F,0,0,1,0,0,0,1 @ F,0,0,1,0,0,0,1 @ F,0,0,1,0,0,0,1 @ F,0,0,1,0,0,0,1 | F,0,0,1,0,0,0,1 @ F,0,0,1,0,0,0,1 @ F,0,0,1,0,0,0,1 @ F,0,0,1,0,0,0,1 | F,0,0,1,0,0,0,1 @ F,0,0,1,0,0,0,1 @ F,0,0,1,0,0,0,1 @ F,0,0,1,0,0,0,1 | F,0,0,1,0,0,0,1 @ F,0,0,1,0,0,0,1 @ F,0,0,1,0,0,0,1 @ F,0,0,1,0,0,0,1 | F,0,0,1,0,0,0,1 @ F,0,0,1,0,0,0,1 @ F,0,0,1,0,0,0,1 @ F,0,0,1,0,0,0,1 | F,0,0,1,0,0,0,1 @ F,0,0,1,0,0,0,1 @ F,0,0,1,0,0,0,1 @ F,0,0,1,0,0,0,1 @ F,0,0,1,0,0,0,1 @ F,0,0,1,0,0,0,1 @ F,0,0,1,0,1.2368237,0,1 @ F,0,0,1,0,1.3025606,0,1 @ F,0,0,1,0,0,0,1 @ F,0,0,1,0,0,0,1 @ F,0,0,1,0,0,0,1 @ F,0,0,1,0,0,0,1 @ F,0,0,1,0,0,0,1 @ F,0,0,1,0,0,0,1 @ F,0,0,1,0,0,0,1 @ F,0,0,1,0,0,0,1 | F,0,0,1,0,0,0,1 @ F,0,0,1,0,0,0,1 @ F,0,0,1,0,0,0,1 @ F,0,0,1,0,0,0,1 @ F,0,0,1,0,0,0,1 @ F,0,0,1,0,0,0,1 @ F,0,0,1,0,0,0,1 @ F,0,0,1,0,0,0,1 | F,0,0,1,0,0,0,1 @ F,0,0,1,0,0,0,1 @ F,0,0,1,0,0,0,1 @ F,0,0,1,0,0,0,1 @ F,0,0,1,0,0,0,1 @ F,0,0,1,0,0,0,1 @ F,0,0,1,0,0,0,1 @ F,0,0,1,0,0,0,1"
       radius="0"
       unit="px"
       method="auto"
       mode="F"
       chamfer_steps="1"
       flexible="false"
       use_knot_distance="true"
       apply_no_radius="true"
       apply_with_radius="true"
       only_selected="false"
       hide_knots="false" /></defs><metadata
     id="metadata3269"><rdf:RDF><cc:Work
         rdf:about=""><dc:format>&#10;					image/svg+xml&#10;				</dc:format><dc:type
           rdf:resource="http://purl.org/dc/dcmitype/StillImage" /><cc:license
           rdf:resource="http://creativecommons.org/licenses/by-nc-sa/4.0/" /><dc:creator><cc:Agent><dc:title>ПДР Тест Центр | PDR Test Center</dc:title></cc:Agent></dc:creator><dc:rights><cc:Agent><dc:title>ПДР Тест Центр | PDR Test Center</dc:title></cc:Agent></dc:rights><dc:language>uk-UA</dc:language><dc:date>2023-09-01</dc:date><dc:title>Таблички до дорожніх знаків » ПДР Тест Центр</dc:title><dc:publisher><cc:Agent><dc:title>https://pdrtest.com/</dc:title></cc:Agent></dc:publisher><dc:source>https://pdrtest.com/driver/rules/section/33.7</dc:source></cc:Work><cc:License
         rdf:about="http://creativecommons.org/licenses/by-nc-sa/4.0/"><cc:permits
           rdf:resource="http://creativecommons.org/ns#Reproduction" /><cc:permits
           rdf:resource="http://creativecommons.org/ns#Distribution" /><cc:requires
           rdf:resource="http://creativecommons.org/ns#Notice" /><cc:requires
           rdf:resource="http://creativecommons.org/ns#Attribution" /><cc:prohibits
           rdf:resource="http://creativecommons.org/ns#CommercialUse" /><cc:permits
           rdf:resource="http://creativecommons.org/ns#DerivativeWorks" /><cc:requires
           rdf:resource="http://creativecommons.org/ns#ShareAlike" /></cc:License></rdf:RDF></metadata><g
     id="layer1"
     inkscape:groupmode="layer"
     inkscape:label="sign_7_5_2"
     transform="rotate(-90,-20.008512,502.38541)"><path
       class="fil2 str0"
       d="M 476.36678,535.69749 V 709.0914 c 0,4.01068 -4.36369,7.2924 -9.69667,7.2924 h -78.58538 c -5.33406,0 -9.69771,-3.28172 -9.69771,-7.2924 V 535.69749 c 0,-4.01171 4.36365,-7.29344 9.69771,-7.29344 h 78.58538 c 5.33298,0 9.69667,3.28173 9.69667,7.29344 z"
       id="path2394"
       sodipodi:nodetypes="cccccccccc"
       style="fill:#ffffff;fill-rule:evenodd;stroke:#000000;stroke-width:2;stroke-dasharray:none"
       inkscape:label="bg" /><path
       class="fil2 str0"
       d="m 471.4443,540.238 v 164.31284 c 0,3.80063 -3.92524,6.91049 -8.72236,6.91049 h -70.68915 c -4.79809,0 -8.72329,-3.10986 -8.72329,-6.91049 V 540.238 c 0,-3.80161 3.9252,-6.91147 8.72329,-6.91147 h 70.68915 c 4.79712,0 8.72236,3.10986 8.72236,6.91147 z"
       id="path2394-4"
       sodipodi:nodetypes="cccccccccc"
       style="fill:#ffffff;fill-rule:evenodd;stroke:#000000;stroke-width:3;stroke-dasharray:none"
       inkscape:label="black" /><path
       id="_43793872"
       style="display:inline;fill:#000000;fill-rule:evenodd;stroke-width:0.780099"
       inkscape:label="sign"
       d="m 458.2841,534.76661 h -41.15821 v 47.63868 c 0,2.31777 1.83105,4.14648 4.1543,4.14648 h 32.84766 c 2.323,2e-5 4.15625,-1.82872 4.15625,-4.14648 z m -24.56055,64.65625 c 6e-5,-1.56714 -1.25923,-2.82812 -2.81055,-2.82812 h -10.97656 c -0.0505,0 -2.81054,0.0129 -2.81054,2.82812 v 61.26953 c 2e-5,1.54518 1.26172,2.80469 2.81054,2.80469 H 430.913 c 1.54884,0 2.81055,-1.25951 2.81055,-2.80469 z m -17.86914,53.20703 c 3e-5,-5.26763 -4.37586,-9.68163 -9.65625,-9.68163 -5.28012,3e-5 -9.70313,4.41402 -9.70313,9.68163 0,4.03638 3.31285,9.68162 9.70313,9.68162 6.29116,0 9.65625,-5.61449 9.65625,-9.68162 z m -19.37302,-44.2969 c 0.0704,5.26763 4.42495,9.60743 9.70508,9.60743 5.20971,0 9.58364,-4.33983 9.65429,-9.60743 0,-13.54302 -19.35937,-11.81973 -19.35937,0 z m 9.69337,-55.78122 c -6.10978,10e-6 -9.70508,5.30536 -9.70508,9.75388 0.0704,5.26763 4.42496,9.60937 9.70508,9.60937 5.20972,0 9.58364,-4.34176 9.6543,-9.60937 0,-4.43359 -3.53688,-9.75388 -9.6543,-9.75388 z m 9.60546,-17.78516 h -14.18359 v 12.10157 c 0,0.77257 0.64159,1.41406 1.41602,1.41406 h 11.34958 c 0.77442,0 1.41797,-0.64148 1.41797,-1.41406 z m 0,41.03907 c 5e-5,-0.77262 -0.56933,-1.3418 -1.34375,-1.3418 h -12.36328 c -0.77443,-2e-5 -1.32031,0.56921 -1.32031,1.3418 v 9.58203 c -3e-5,0.77311 0.5459,1.33984 1.32031,1.33984 h 3.05273 v 7.40234 c 4.87185,-0.7037 10.31683,3.11385 10.58204,4.65235 -0.0304,-9.76319 0.0213,-13.21358 0.0722,-22.97656 z m -0.0722,39.7246 c -1.55941,2.6803 -7.25863,4.45843 -10.16407,5.4629 v 19.18555 c 3.032,0.70411 8.74633,2.82101 10.16407,5.41405 z m -5.42582,37.09961 c 0,2.12748 -1.64703,4.14646 -4.08398,4.14646 -2.25257,0 -4.08362,-1.82448 -4.1543,-4.07227 v -0.0742 c 0,-2.24781 1.90173,-4.14648 4.1543,-4.14648 2.25284,2e-5 4.08398,1.88323 4.08398,4.14648 z m -0.0136,-44.37109 c 0,2.12699 -1.64477,4.14645 -4.08203,4.14645 -2.25256,0 -4.08557,-1.82447 -4.15625,-4.07226 v -0.0742 c 0,-2.24781 1.90369,-4.14453 4.15625,-4.14453 2.25286,2e-5 4.08203,1.88128 4.08203,4.14453 z m -0.0117,-46.43945 c 0.17253,2.23736 -1.44105,4.56054 -4.08203,4.56054 -2.79199,0 -4.15625,-2.49191 -4.15625,-4.14645 -3e-5,-2.24783 1.90368,-4.14648 4.15625,-4.14648 2.11205,2e-5 3.87279,1.66074 4.08203,3.73242 z"
       sodipodi:nodetypes="ccsscsccscccscscssssscsccscscsccssssccscscscccccscccsscssssscssssscsscs" /></g></svg>
