<?xml version="1.0" encoding="UTF-8" standalone="no"?>
<!-- Created with Inkscape (http://www.inkscape.org/) -->

<svg
   height="110"
   id="svg3264"
   inkscape:output_extension="org.inkscape.output.svg.inkscape"
   inkscape:version="1.3 (0e150ed6c4, 2023-07-21)"
   sodipodi:docname="7.5.4.svg"
   sodipodi:version="0.32"
   version="1.0"
   width="200"
   xml:space="preserve"
   xmlns:inkscape="http://www.inkscape.org/namespaces/inkscape"
   xmlns:sodipodi="http://sodipodi.sourceforge.net/DTD/sodipodi-0.dtd"
   xmlns="http://www.w3.org/2000/svg"
   xmlns:svg="http://www.w3.org/2000/svg"
   xmlns:rdf="http://www.w3.org/1999/02/22-rdf-syntax-ns#"
   xmlns:cc="http://creativecommons.org/ns#"
   xmlns:dc="http://purl.org/dc/elements/1.1/"><title
     id="title1">Таблички до дорожніх знаків » ПДР Тест Центр</title><sodipodi:namedview
     bordercolor="#666666"
     borderopacity="1.0"
     gridtolerance="10000"
     guidetolerance="10"
     id="base"
     inkscape:current-layer="layer1"
     inkscape:cx="118.57319"
     inkscape:cy="84.255843"
     inkscape:document-units="px"
     inkscape:pageopacity="0.0"
     inkscape:pageshadow="2"
     inkscape:window-height="1009"
     inkscape:window-maximized="1"
     inkscape:window-width="1920"
     inkscape:window-x="-8"
     inkscape:window-y="-8"
     inkscape:zoom="4.065"
     objecttolerance="10"
     pagecolor="#ffffff"
     showgrid="false"
     inkscape:showpageshadow="2"
     inkscape:pagecheckerboard="0"
     inkscape:deskcolor="#d1d1d1" /><defs
     id="defs3266"><inkscape:perspective
       id="perspective3272"
       inkscape:persp3d-origin="372.04724 : 365.78244 : 1"
       inkscape:vp_x="0 : 541.17614 : 1"
       inkscape:vp_y="0 : 1000 : 0"
       inkscape:vp_z="744.09448 : 541.17614 : 1"
       sodipodi:type="inkscape:persp3d" /><inkscape:path-effect
       effect="fillet_chamfer"
       id="path-effect1"
       is_visible="true"
       lpeversion="1"
       nodesatellites_param="F,0,0,1,0,0,0,1 @ F,0,0,1,0,0,0,1 @ F,0,0,1,0,0,0,1 @ F,0,0,1,0,0,0,1 @ F,0,0,1,0,0,0,1 @ F,0,0,1,0,0,0,1 @ F,0,0,1,0,0,0,1 @ F,0,0,1,0,0,0,1 | F,0,0,1,0,0,0,1 @ F,0,0,1,0,0,0,1 @ F,0,0,1,0,0,0,1 @ F,0,0,1,0,0,0,1 | F,0,0,1,0,0,0,1 @ F,0,0,1,0,0,0,1 @ F,0,0,1,0,0,0,1 @ F,0,0,1,0,0,0,1 | F,0,0,1,0,0,0,1 @ F,0,0,1,0,0,0,1 @ F,0,0,1,0,0,0,1 @ F,0,0,1,0,0,0,1 | F,0,0,1,0,0,0,1 @ F,0,0,1,0,0,0,1 @ F,0,0,1,0,0,0,1 @ F,0,0,1,0,0,0,1 | F,0,0,1,0,0,0,1 @ F,0,0,1,0,0,0,1 @ F,0,0,1,0,0,0,1 @ F,0,0,1,0,0,0,1 @ F,0,0,1,0,0,0,1 @ F,0,0,1,0,0,0,1 @ F,0,0,1,0,1.2368237,0,1 @ F,0,0,1,0,1.3025606,0,1 @ F,0,0,1,0,0,0,1 @ F,0,0,1,0,0,0,1 @ F,0,0,1,0,0,0,1 @ F,0,0,1,0,0,0,1 @ F,0,0,1,0,0,0,1 @ F,0,0,1,0,0,0,1 @ F,0,0,1,0,0,0,1 @ F,0,0,1,0,0,0,1 | F,0,0,1,0,0,0,1 @ F,0,0,1,0,0,0,1 @ F,0,0,1,0,0,0,1 @ F,0,0,1,0,0,0,1 @ F,0,0,1,0,0,0,1 @ F,0,0,1,0,0,0,1 @ F,0,0,1,0,0,0,1 @ F,0,0,1,0,0,0,1 | F,0,0,1,0,0,0,1 @ F,0,0,1,0,0,0,1 @ F,0,0,1,0,0,0,1 @ F,0,0,1,0,0,0,1 @ F,0,0,1,0,0,0,1 @ F,0,0,1,0,0,0,1 @ F,0,0,1,0,0,0,1 @ F,0,0,1,0,0,0,1"
       radius="0"
       unit="px"
       method="auto"
       mode="F"
       chamfer_steps="1"
       flexible="false"
       use_knot_distance="true"
       apply_no_radius="true"
       apply_with_radius="true"
       only_selected="false"
       hide_knots="false" /></defs><metadata
     id="metadata3269"><rdf:RDF><cc:Work
         rdf:about=""><dc:format>&#10;					image/svg+xml&#10;				</dc:format><dc:type
           rdf:resource="http://purl.org/dc/dcmitype/StillImage" /><cc:license
           rdf:resource="http://creativecommons.org/licenses/by-nc-sa/4.0/" /><dc:creator><cc:Agent><dc:title>ПДР Тест Центр | PDR Test Center</dc:title></cc:Agent></dc:creator><dc:rights><cc:Agent><dc:title>ПДР Тест Центр | PDR Test Center</dc:title></cc:Agent></dc:rights><dc:language>uk-UA</dc:language><dc:date>2023-09-01</dc:date><dc:title>Таблички до дорожніх знаків » ПДР Тест Центр</dc:title><dc:publisher><cc:Agent><dc:title>https://pdrtest.com/</dc:title></cc:Agent></dc:publisher><dc:source>https://pdrtest.com/driver/rules/section/33.7</dc:source></cc:Work><cc:License
         rdf:about="http://creativecommons.org/licenses/by-nc-sa/4.0/"><cc:permits
           rdf:resource="http://creativecommons.org/ns#Reproduction" /><cc:permits
           rdf:resource="http://creativecommons.org/ns#Distribution" /><cc:requires
           rdf:resource="http://creativecommons.org/ns#Notice" /><cc:requires
           rdf:resource="http://creativecommons.org/ns#Attribution" /><cc:prohibits
           rdf:resource="http://creativecommons.org/ns#CommercialUse" /><cc:permits
           rdf:resource="http://creativecommons.org/ns#DerivativeWorks" /><cc:requires
           rdf:resource="http://creativecommons.org/ns#ShareAlike" /></cc:License></rdf:RDF></metadata><g
     id="layer1"
     inkscape:groupmode="layer"
     inkscape:label="sign_7_5_4"
     transform="rotate(-90,-20.008512,502.38541)"><path
       class="fil2 str0"
       d="M 476.36678,535.69749 V 709.0914 c 0,4.01068 -4.36369,7.2924 -9.69667,7.2924 h -78.58538 c -5.33406,0 -9.69771,-3.28172 -9.69771,-7.2924 V 535.69749 c 0,-4.01171 4.36365,-7.29344 9.69771,-7.29344 h 78.58538 c 5.33298,0 9.69667,3.28173 9.69667,7.29344 z"
       id="path2394"
       sodipodi:nodetypes="cccccccccc"
       style="fill:#ffffff;fill-rule:evenodd;stroke:#000000;stroke-width:2;stroke-dasharray:none"
       inkscape:label="bg" /><path
       class="fil2 str0"
       d="m 471.4443,540.238 v 164.31284 c 0,3.80063 -3.92524,6.91049 -8.72236,6.91049 h -70.68915 c -4.79809,0 -8.72329,-3.10986 -8.72329,-6.91049 V 540.238 c 0,-3.80161 3.9252,-6.91147 8.72329,-6.91147 h 70.68915 c 4.79712,0 8.72236,3.10986 8.72236,6.91147 z"
       id="path2394-4"
       sodipodi:nodetypes="cccccccccc"
       style="fill:#ffffff;fill-rule:evenodd;stroke:#000000;stroke-width:3;stroke-dasharray:none"
       inkscape:label="black" /><path
       id="path2459"
       style="fill:#000000;fill-opacity:1;fill-rule:nonzero;stroke:none;stroke-width:4.64826;stroke-linecap:round;stroke-linejoin:miter;stroke-miterlimit:4;stroke-dasharray:none;stroke-opacity:1"
       inkscape:label="sign"
       d="m 456.09076,580.30411 c 0,-1.73299 -0.36073,-4.54816 -1.42969,-5.87891 -3.64082,-4.53245 -13.31554,-11.79842 -18.09765,-14.21875 -1.19755,-0.6061 -3.38519,-0.81445 -4.73633,-0.81445 h -20.41797 c -1.80847,9e-5 -3.2753,1.46692 -3.27539,3.27539 v 13.79883 c 0.45423,-0.0536 0.92996,-0.0644 1.39844,-0.0644 6.49525,0 11.76757,5.27038 11.76757,11.76562 0,6.49523 -5.27232,11.76756 -11.76757,11.76758 -0.46848,0 -0.94421,-0.009 -1.39844,-0.0625 v 22.51953 h 47.95703 z m 0,42.0918 h -47.95703 v 22.51954 c 0.45423,-0.0533 0.92996,-0.0625 1.39844,-0.0625 6.49525,2e-5 11.76757,5.27235 11.76757,11.76757 0,6.49524 -5.27232,11.76562 -11.76757,11.76562 -0.46848,0 -0.94421,-0.0109 -1.39844,-0.0645 v 13.79883 c 9e-5,1.80847 1.46692,3.27529 3.27539,3.27538 h 20.41797 c 1.35114,0 3.53878,-0.20835 4.73633,-0.81445 4.78211,-2.42033 14.45683,-9.68628 18.09765,-14.21875 1.06896,-1.33075 1.42969,-4.14591 1.42969,-5.8789 z m -3.84766,-40.69922 v 11.02344 c 0,1.27186 -1.17037,2.28906 -2.45117,2.28906 h -11.63672 c -1.28508,0 -2.72656,-3.55813 -2.72656,-2.28906 v -21.90625 c 0,-1.26484 1.51358,-2.71911 2.72656,-2.28907 2.83353,0 10.51041,5.41206 13.16797,8.9668 0.72334,0.96751 0.91992,2.97911 0.91992,4.20508 z m 0,19.10351 v 17.44532 c 0,1.27178 -1.16326,2.28711 -2.45117,2.28711 h -11.63672 c -1.28789,0 -2.72656,-1.0153 -2.72656,-2.28711 V 600.8002 c 0,-1.2704 1.43867,-2.29297 2.72656,-2.29297 h 11.63672 c 1.28791,0 2.45117,1.02257 2.45117,2.29297 z m 0,25.74219 v 17.44532 c 0,1.2704 -1.16326,2.29297 -2.45117,2.29297 h -11.63672 c -1.28789,0 -2.72656,-1.02257 -2.72656,-2.29297 v -17.44532 c 0,-1.27182 1.43867,-2.28711 2.72656,-2.28711 h 11.63672 c 1.28791,0 2.45117,1.01531 2.45117,2.28711 z m 0,25.5254 v 11.02343 c 0,1.22597 -0.19658,3.23758 -0.91992,4.20508 -2.65756,3.55473 -10.33444,8.9668 -13.16797,8.9668 -1.21298,0.43004 -2.72656,-1.02423 -2.72656,-2.28906 v -21.90625 c 0,1.26907 1.44148,-2.28906 2.72656,-2.28906 h 11.63672 c 1.2808,0 2.45117,1.01719 2.45117,2.28906 z m -32.97656,-63.9004 c 0,-5.66768 -4.60769,-10.32422 -10.27539,-10.32422 -5.66766,0 -10.32812,4.65654 -10.32812,10.32422 0,5.66767 4.66046,10.32813 10.32812,10.32813 5.6677,0 10.27539,-4.66046 10.27539,-10.32813 z m 0,68.45313 c 0,-5.66766 -4.60769,-10.32812 -10.27539,-10.32812 -5.66766,0 -10.32812,4.66046 -10.32812,10.32812 0,5.66768 4.66046,10.32421 10.32812,10.32421 5.6677,0 10.27539,-4.65653 10.27539,-10.32421 z m -3.6582,-68.45313 c 0,3.68544 -2.93172,6.62109 -6.61719,6.62109 -3.68545,0 -6.66797,-2.93565 -6.66797,-6.62109 0,-3.68546 2.98252,-6.61719 6.66797,-6.61719 3.68547,0 6.61719,2.93173 6.61719,6.61719 z m 0,68.45313 c 0,3.68546 -2.93172,6.61718 -6.61719,6.61718 -3.68545,0 -6.66797,-2.93172 -6.66797,-6.61718 0,-3.68543 2.98252,-6.62109 6.66797,-6.62109 3.68547,0 6.61719,2.93566 6.61719,6.62109 z" /></g></svg>
