<?xml version="1.0" encoding="UTF-8" standalone="no"?>
<!-- Created with Inkscape (http://www.inkscape.org/) -->

<svg
   height="110"
   id="svg3264"
   inkscape:output_extension="org.inkscape.output.svg.inkscape"
   inkscape:version="1.3 (0e150ed6c4, 2023-07-21)"
   sodipodi:docname="7.7.svg"
   sodipodi:version="0.32"
   version="1.0"
   width="200"
   xml:space="preserve"
   xmlns:inkscape="http://www.inkscape.org/namespaces/inkscape"
   xmlns:sodipodi="http://sodipodi.sourceforge.net/DTD/sodipodi-0.dtd"
   xmlns="http://www.w3.org/2000/svg"
   xmlns:svg="http://www.w3.org/2000/svg"
   xmlns:rdf="http://www.w3.org/1999/02/22-rdf-syntax-ns#"
   xmlns:cc="http://creativecommons.org/ns#"
   xmlns:dc="http://purl.org/dc/elements/1.1/"><title
     id="title1">Таблички до дорожніх знаків » ПДР Тест Центр</title><sodipodi:namedview
     bordercolor="#666666"
     borderopacity="1.0"
     gridtolerance="10000"
     guidetolerance="10"
     id="base"
     inkscape:current-layer="layer1"
     inkscape:cx="93"
     inkscape:cy="111.25"
     inkscape:document-units="px"
     inkscape:pageopacity="0.0"
     inkscape:pageshadow="2"
     inkscape:window-height="1009"
     inkscape:window-maximized="1"
     inkscape:window-width="1920"
     inkscape:window-x="-8"
     inkscape:window-y="-8"
     inkscape:zoom="2"
     objecttolerance="10"
     pagecolor="#ffffff"
     showgrid="false"
     inkscape:showpageshadow="2"
     inkscape:pagecheckerboard="0"
     inkscape:deskcolor="#d1d1d1" /><defs
     id="defs3266"><inkscape:path-effect
       effect="fillet_chamfer"
       id="path-effect11"
       is_visible="true"
       lpeversion="1"
       nodesatellites_param="F,0,1,1,0,1.9286022,0,1 @ F,0,1,1,0,1.9286022,0,1 @ F,0,0,1,0,1.9286022,0,1 @ F,0,1,1,0,1.9286022,0,1 | F,0,1,1,0,1.9286022,0,1 @ F,0,1,1,0,1.9286022,0,1 @ F,0,1,1,0,1.9286022,0,1 @ F,0,1,1,0,1.9286022,0,1 | F,0,1,1,0,1.9286022,0,1 @ F,0,1,1,0,1.9286022,0,1 @ F,0,1,1,0,1.9286022,0,1 @ F,0,1,1,0,1.9286022,0,1"
       radius="0"
       unit="px"
       method="auto"
       mode="F"
       chamfer_steps="1"
       flexible="false"
       use_knot_distance="true"
       apply_no_radius="true"
       apply_with_radius="true"
       only_selected="false"
       hide_knots="false" /><inkscape:path-effect
       effect="fillet_chamfer"
       id="path-effect9"
       is_visible="true"
       lpeversion="1"
       nodesatellites_param="F,0,1,1,0,1.9286022,0,1 @ F,0,1,1,0,1.9286022,0,1 @ F,0,0,1,0,1.9286022,0,1 @ F,0,1,1,0,1.9286022,0,1 | F,0,1,1,0,1.9286022,0,1 @ F,0,1,1,0,1.9286022,0,1 @ F,0,1,1,0,1.9286022,0,1 @ F,0,1,1,0,1.9286022,0,1 | F,0,1,1,0,1.9286022,0,1 @ F,0,1,1,0,1.9286022,0,1 @ F,0,1,1,0,1.9286022,0,1 @ F,0,1,1,0,1.9286022,0,1"
       radius="0"
       unit="px"
       method="auto"
       mode="F"
       chamfer_steps="1"
       flexible="false"
       use_knot_distance="true"
       apply_no_radius="true"
       apply_with_radius="true"
       only_selected="false"
       hide_knots="false" /><inkscape:path-effect
       effect="fillet_chamfer"
       id="path-effect7"
       is_visible="true"
       lpeversion="1"
       nodesatellites_param="F,0,1,1,0,1.9286022,0,1 @ F,0,1,1,0,1.9286022,0,1 @ F,0,0,1,0,1.9286022,0,1 @ F,0,1,1,0,1.9286022,0,1 | F,0,1,1,0,1.9286022,0,1 @ F,0,1,1,0,1.9286022,0,1 @ F,0,1,1,0,1.9286022,0,1 @ F,0,1,1,0,1.9286022,0,1 | F,0,1,1,0,1.9286022,0,1 @ F,0,1,1,0,1.9286022,0,1 @ F,0,1,1,0,1.9286022,0,1 @ F,0,1,1,0,1.9286022,0,1"
       radius="0"
       unit="px"
       method="auto"
       mode="F"
       chamfer_steps="1"
       flexible="false"
       use_knot_distance="true"
       apply_no_radius="true"
       apply_with_radius="true"
       only_selected="false"
       hide_knots="false" /><inkscape:path-effect
       effect="fillet_chamfer"
       id="path-effect2"
       is_visible="true"
       lpeversion="1"
       nodesatellites_param="F,0,0,1,0,0,0,1 @ F,0,0,1,0,0,0,1 @ F,0,0,1,0,0,0,1 @ F,0,1,1,0,9.4016857,0,1 @ F,0,0,1,0,9.4016857,0,1 @ F,0,0,1,0,0,0,1"
       radius="0"
       unit="px"
       method="auto"
       mode="F"
       chamfer_steps="1"
       flexible="false"
       use_knot_distance="true"
       apply_no_radius="true"
       apply_with_radius="true"
       only_selected="false"
       hide_knots="false" /><inkscape:perspective
       id="perspective3272"
       inkscape:persp3d-origin="372.04724 : 365.78244 : 1"
       inkscape:vp_x="0 : 541.17614 : 1"
       inkscape:vp_y="0 : 1000 : 0"
       inkscape:vp_z="744.09448 : 541.17614 : 1"
       sodipodi:type="inkscape:persp3d" /><inkscape:path-effect
       effect="fillet_chamfer"
       id="path-effect1"
       is_visible="true"
       lpeversion="1"
       nodesatellites_param="F,0,0,1,0,0,0,1 @ F,0,0,1,0,0,0,1 @ F,0,0,1,0,0,0,1 @ F,0,0,1,0,0,0,1 @ F,0,0,1,0,0,0,1 @ F,0,0,1,0,0,0,1 @ F,0,0,1,0,0,0,1 @ F,0,0,1,0,0,0,1 | F,0,0,1,0,0,0,1 @ F,0,0,1,0,0,0,1 @ F,0,0,1,0,0,0,1 @ F,0,0,1,0,0,0,1 | F,0,0,1,0,0,0,1 @ F,0,0,1,0,0,0,1 @ F,0,0,1,0,0,0,1 @ F,0,0,1,0,0,0,1 | F,0,0,1,0,0,0,1 @ F,0,0,1,0,0,0,1 @ F,0,0,1,0,0,0,1 @ F,0,0,1,0,0,0,1 | F,0,0,1,0,0,0,1 @ F,0,0,1,0,0,0,1 @ F,0,0,1,0,0,0,1 @ F,0,0,1,0,0,0,1 | F,0,0,1,0,0,0,1 @ F,0,0,1,0,0,0,1 @ F,0,0,1,0,0,0,1 @ F,0,0,1,0,0,0,1 @ F,0,0,1,0,0,0,1 @ F,0,0,1,0,0,0,1 @ F,0,0,1,0,1.2368237,0,1 @ F,0,0,1,0,1.3025606,0,1 @ F,0,0,1,0,0,0,1 @ F,0,0,1,0,0,0,1 @ F,0,0,1,0,0,0,1 @ F,0,0,1,0,0,0,1 @ F,0,0,1,0,0,0,1 @ F,0,0,1,0,0,0,1 @ F,0,0,1,0,0,0,1 @ F,0,0,1,0,0,0,1 | F,0,0,1,0,0,0,1 @ F,0,0,1,0,0,0,1 @ F,0,0,1,0,0,0,1 @ F,0,0,1,0,0,0,1 @ F,0,0,1,0,0,0,1 @ F,0,0,1,0,0,0,1 @ F,0,0,1,0,0,0,1 @ F,0,0,1,0,0,0,1 | F,0,0,1,0,0,0,1 @ F,0,0,1,0,0,0,1 @ F,0,0,1,0,0,0,1 @ F,0,0,1,0,0,0,1 @ F,0,0,1,0,0,0,1 @ F,0,0,1,0,0,0,1 @ F,0,0,1,0,0,0,1 @ F,0,0,1,0,0,0,1"
       radius="0"
       unit="px"
       method="auto"
       mode="F"
       chamfer_steps="1"
       flexible="false"
       use_knot_distance="true"
       apply_no_radius="true"
       apply_with_radius="true"
       only_selected="false"
       hide_knots="false" /></defs><metadata
     id="metadata3269"><rdf:RDF><cc:Work
         rdf:about=""><dc:format>&#10;					image/svg+xml&#10;				</dc:format><dc:type
           rdf:resource="http://purl.org/dc/dcmitype/StillImage" /><cc:license
           rdf:resource="http://creativecommons.org/licenses/by-nc-sa/4.0/" /><dc:creator><cc:Agent><dc:title>ПДР Тест Центр | PDR Test Center</dc:title></cc:Agent></dc:creator><dc:rights><cc:Agent><dc:title>ПДР Тест Центр | PDR Test Center</dc:title></cc:Agent></dc:rights><dc:language>uk-UA</dc:language><dc:date>2023-09-01</dc:date><dc:title>Таблички до дорожніх знаків » ПДР Тест Центр</dc:title><dc:publisher><cc:Agent><dc:title>https://pdrtest.com/</dc:title></cc:Agent></dc:publisher><dc:source>https://pdrtest.com/driver/rules/section/33.7</dc:source></cc:Work><cc:License
         rdf:about="http://creativecommons.org/licenses/by-nc-sa/4.0/"><cc:permits
           rdf:resource="http://creativecommons.org/ns#Reproduction" /><cc:permits
           rdf:resource="http://creativecommons.org/ns#Distribution" /><cc:requires
           rdf:resource="http://creativecommons.org/ns#Notice" /><cc:requires
           rdf:resource="http://creativecommons.org/ns#Attribution" /><cc:prohibits
           rdf:resource="http://creativecommons.org/ns#CommercialUse" /><cc:permits
           rdf:resource="http://creativecommons.org/ns#DerivativeWorks" /><cc:requires
           rdf:resource="http://creativecommons.org/ns#ShareAlike" /></cc:License></rdf:RDF></metadata><g
     id="layer1"
     inkscape:groupmode="layer"
     inkscape:label="sign_7_7"
     transform="rotate(-90,-20.008512,502.38541)"><path
       class="fil2 str0"
       d="M 476.36678,535.69749 V 709.0914 c 0,4.01068 -4.36369,7.2924 -9.69667,7.2924 h -78.58538 c -5.33406,0 -9.69771,-3.28172 -9.69771,-7.2924 V 535.69749 c 0,-4.01171 4.36365,-7.29344 9.69771,-7.29344 h 78.58538 c 5.33298,0 9.69667,3.28173 9.69667,7.29344 z"
       id="path2394"
       sodipodi:nodetypes="cccccccccc"
       style="fill:#ffffff;fill-rule:evenodd;stroke:#000000;stroke-width:2;stroke-dasharray:none"
       inkscape:label="bg" /><path
       class="fil2 str0"
       d="m 471.4443,540.238 v 164.31284 c 0,3.80063 -3.92524,6.91049 -8.72236,6.91049 h -70.68915 c -4.79809,0 -8.72329,-3.10986 -8.72329,-6.91049 V 540.238 c 0,-3.80161 3.9252,-6.91147 8.72329,-6.91147 h 70.68915 c 4.79712,0 8.72236,3.10986 8.72236,6.91147 z"
       id="path2394-4"
       sodipodi:nodetypes="cccccccccc"
       style="fill:#ffffff;fill-rule:evenodd;stroke:#000000;stroke-width:3;stroke-dasharray:none"
       inkscape:label="black" /><path
       id="path4258"
       style="fill:#000000;fill-opacity:1;fill-rule:evenodd;stroke-width:4.57956;stroke-dasharray:none"
       inkscape:label="car"
       d="m 12.732422,69.869141 c -0.668282,0.02523 -1.296994,0.141552 -1.908203,0.298828 v 6.380859 c 1.347693,-0.976496 2.746353,-1.675275 4.107422,-1.880859 24.2042,0.491348 34.528795,-0.104606 36.169921,0.539062 3.201294,2.189736 11.7761,18.909545 -0.896484,18.203125 -13.126442,-0.04398 -26.256197,-0.01902 -39.380859,-0.273437 v 25.402341 c 10.071931,0.11275 20.14428,0.1781 30.21875,0.0859 4.26151,-21.387654 24.026701,-14.71342 26.779297,-3.04492 3.225392,-0.25761 5.510742,-0.33709 7.136718,-3.60938 1.673098,-5.31395 5.401538,-11.97446 2.746094,-17.37695 C 70.848002,86.433496 64.14786,74.915278 54.642578,70.117188 40.671326,70.086978 26.701834,70.131329 12.732422,69.869141 Z M 153.43945,73.40625 c -10.87531,0.0089 -20.72388,6.426108 -25.125,16.371094 -2.40394,-1.143035 -5.04799,-1.754585 -7.75195,-1.757813 -7.52349,4.96e-4 -13.9714,4.591442 -16.70508,11.123047 -1.94498,-1.257141 -4.1778,-1.901791 -6.515623,-1.904297 -6.685655,-2.5e-5 -12.105494,5.419819 -12.105469,12.105469 -3e-6,0.92361 0.112677,1.81926 0.308594,2.68359 l -6.517578,2.12891 c -0.330298,0.10794 -0.510284,0.46072 -0.402344,0.79102 l 0.445312,1.36328 c 0.10794,0.3303 0.460718,0.50833 0.791016,0.40039 l 6.570313,-2.14649 c 1.950835,4.06865 6.096599,6.88478 10.910156,6.88477 3.473063,-0.002 6.742743,-1.45691 9.039063,-4.0625 -0.0101,0.0114 0.016,-0.0153 0.006,-0.004 3.31685,4.17168 8.4321,6.84922 14.17578,6.84961 4.69451,-9.6e-4 9.12628,-1.82655 12.44336,-4.96875 5.20646,5.80731 12.63412,9.13062 20.43359,9.14258 15.18779,0 27.5,-12.31225 27.5,-27.5 0,-15.187771 -12.31221,-27.5 -27.5,-27.5 z m 0,5 c 12.42637,0 22.5,10.073641 22.5,22.5 0,12.42637 -10.07363,22.5 -22.5,22.5 -7.01989,-0.0131 -13.0182,-2.51679 -17.26367,-8.10742 l -0.002,-0.008 c -0.79875,-0.97031 -1.5148,-2.00584 -2.14063,-3.09571 -2.38379,5.30683 -7.65311,8.72723 -13.4707,8.74414 -5.09198,-4e-5 -9.58348,-2.56977 -12.25,-6.48242 l 0.004,-0.01 c -0.56042,-0.80288 -1.03997,-1.65927 -1.43164,-2.55665 -1.15169,4.32799 -5.06439,7.3446 -9.542973,7.35743 -5.470709,0.001 -9.906174,-4.43361 -9.90625,-9.9043 7.8e-5,-5.47069 4.435542,-9.905298 9.90625,-9.904297 3.452203,0.01195 6.649103,1.820567 8.437503,4.773437 0.12068,-0.97147 0.41926,-1.83486 0.72851,-2.76367 0.0265,0.0301 -0.0262,-0.0361 0,-0.006 1.95997,-5.886685 7.50954,-10.132761 14.05469,-10.132813 4.16932,0.01502 8.13933,1.786249 10.93555,4.878906 0.26102,-1.223361 0.6236,-2.422843 1.08398,-3.585937 3.27991,-8.771065 11.49321,-14.171862 20.85742,-14.197266 z m -98.949216,28.23437 c -4.95242,0.0911 -9.494777,3.3695 -10.953125,8.36719 -1.794906,6.15104 1.755194,12.62112 7.90625,14.41602 6.150998,1.79489 12.769577,-1.70643 14.564453,-7.85742 2.298376,-7.87645 -4.180092,-15.0608 -11.517578,-14.92579 z m 0.101563,5.18555 c 3.942192,-0.0828 7.598137,3.74938 6.287109,8.24219 -0.998668,3.42241 -4.563934,5.37756 -7.986328,4.37891 -3.422432,-0.99865 -5.22523,-4.52096 -4.226562,-7.94336 0.811408,-2.7807 3.215957,-4.62074 5.925781,-4.67774 z"
       transform="rotate(90,2.491485,524.88541)" /><path
       id="rect20"
       style="opacity:1;fill:#ff0000;fill-opacity:1;stroke-width:3.55503;stroke-linecap:square;stroke-miterlimit:0;paint-order:markers fill stroke"
       d="m 206.2159,78.443252 0.83072,124.062168 h 16.43945 L 222.65535,78.443252 Z"
       transform="matrix(0,1,-0.71212407,-0.70205363,527.37689,522.39392)"
       sodipodi:nodetypes="ccccc"
       inkscape:label="red" /></g></svg>
